G04 #@! TF.GenerationSoftware,KiCad,Pcbnew,5.1.5+dfsg1-2build2*
G04 #@! TF.CreationDate,2020-05-17T18:00:09-07:00*
G04 #@! TF.ProjectId,triad_center,74726961-645f-4636-956e-7465722e6b69,rev?*
G04 #@! TF.SameCoordinates,Original*
G04 #@! TF.FileFunction,Soldermask,Bot*
G04 #@! TF.FilePolarity,Negative*
%FSLAX46Y46*%
G04 Gerber Fmt 4.6, Leading zero omitted, Abs format (unit mm)*
G04 Created by KiCad (PCBNEW 5.1.5+dfsg1-2build2) date 2020-05-17 18:00:09*
%MOMM*%
%LPD*%
G04 APERTURE LIST*
%ADD10C,0.100000*%
G04 APERTURE END LIST*
D10*
G36*
X65084549Y-137076116D02*
G01*
X65195734Y-137098232D01*
X65405203Y-137184997D01*
X65593720Y-137310960D01*
X65754040Y-137471280D01*
X65880003Y-137659797D01*
X65966768Y-137869266D01*
X66011000Y-138091636D01*
X66011000Y-138318364D01*
X65966768Y-138540734D01*
X65880003Y-138750203D01*
X65754040Y-138938720D01*
X65593720Y-139099040D01*
X65405203Y-139225003D01*
X65195734Y-139311768D01*
X65084549Y-139333884D01*
X64973365Y-139356000D01*
X64746635Y-139356000D01*
X64635451Y-139333884D01*
X64524266Y-139311768D01*
X64314797Y-139225003D01*
X64126280Y-139099040D01*
X63965960Y-138938720D01*
X63839997Y-138750203D01*
X63753232Y-138540734D01*
X63709000Y-138318364D01*
X63709000Y-138091636D01*
X63753232Y-137869266D01*
X63839997Y-137659797D01*
X63965960Y-137471280D01*
X64126280Y-137310960D01*
X64314797Y-137184997D01*
X64524266Y-137098232D01*
X64635451Y-137076116D01*
X64746635Y-137054000D01*
X64973365Y-137054000D01*
X65084549Y-137076116D01*
G37*
G36*
X46034549Y-137076116D02*
G01*
X46145734Y-137098232D01*
X46355203Y-137184997D01*
X46543720Y-137310960D01*
X46704040Y-137471280D01*
X46830003Y-137659797D01*
X46916768Y-137869266D01*
X46961000Y-138091636D01*
X46961000Y-138318364D01*
X46916768Y-138540734D01*
X46830003Y-138750203D01*
X46704040Y-138938720D01*
X46543720Y-139099040D01*
X46355203Y-139225003D01*
X46145734Y-139311768D01*
X46034549Y-139333884D01*
X45923365Y-139356000D01*
X45696635Y-139356000D01*
X45585451Y-139333884D01*
X45474266Y-139311768D01*
X45264797Y-139225003D01*
X45076280Y-139099040D01*
X44915960Y-138938720D01*
X44789997Y-138750203D01*
X44703232Y-138540734D01*
X44659000Y-138318364D01*
X44659000Y-138091636D01*
X44703232Y-137869266D01*
X44789997Y-137659797D01*
X44915960Y-137471280D01*
X45076280Y-137310960D01*
X45264797Y-137184997D01*
X45474266Y-137098232D01*
X45585451Y-137076116D01*
X45696635Y-137054000D01*
X45923365Y-137054000D01*
X46034549Y-137076116D01*
G37*
G36*
X26984549Y-137076116D02*
G01*
X27095734Y-137098232D01*
X27305203Y-137184997D01*
X27493720Y-137310960D01*
X27654040Y-137471280D01*
X27780003Y-137659797D01*
X27866768Y-137869266D01*
X27911000Y-138091636D01*
X27911000Y-138318364D01*
X27866768Y-138540734D01*
X27780003Y-138750203D01*
X27654040Y-138938720D01*
X27493720Y-139099040D01*
X27305203Y-139225003D01*
X27095734Y-139311768D01*
X26984549Y-139333884D01*
X26873365Y-139356000D01*
X26646635Y-139356000D01*
X26535451Y-139333884D01*
X26424266Y-139311768D01*
X26214797Y-139225003D01*
X26026280Y-139099040D01*
X25865960Y-138938720D01*
X25739997Y-138750203D01*
X25653232Y-138540734D01*
X25609000Y-138318364D01*
X25609000Y-138091636D01*
X25653232Y-137869266D01*
X25739997Y-137659797D01*
X25865960Y-137471280D01*
X26026280Y-137310960D01*
X26214797Y-137184997D01*
X26424266Y-137098232D01*
X26535451Y-137076116D01*
X26646635Y-137054000D01*
X26873365Y-137054000D01*
X26984549Y-137076116D01*
G37*
G36*
X33334549Y-134536116D02*
G01*
X33445734Y-134558232D01*
X33655203Y-134644997D01*
X33843720Y-134770960D01*
X34004040Y-134931280D01*
X34011586Y-134942574D01*
X34130004Y-135119799D01*
X34153283Y-135176000D01*
X34216768Y-135329266D01*
X34261000Y-135551636D01*
X34261000Y-135778364D01*
X34216768Y-136000734D01*
X34130003Y-136210203D01*
X34004040Y-136398720D01*
X33843720Y-136559040D01*
X33655203Y-136685003D01*
X33445734Y-136771768D01*
X33334549Y-136793884D01*
X33223365Y-136816000D01*
X32996635Y-136816000D01*
X32885451Y-136793884D01*
X32774266Y-136771768D01*
X32564797Y-136685003D01*
X32376280Y-136559040D01*
X32215960Y-136398720D01*
X32089997Y-136210203D01*
X32003232Y-136000734D01*
X31959000Y-135778364D01*
X31959000Y-135551636D01*
X32003232Y-135329266D01*
X32066717Y-135176000D01*
X32089996Y-135119799D01*
X32208414Y-134942574D01*
X32215960Y-134931280D01*
X32376280Y-134770960D01*
X32564797Y-134644997D01*
X32774266Y-134558232D01*
X32885451Y-134536116D01*
X32996635Y-134514000D01*
X33223365Y-134514000D01*
X33334549Y-134536116D01*
G37*
G36*
X52384549Y-134536116D02*
G01*
X52495734Y-134558232D01*
X52705203Y-134644997D01*
X52893720Y-134770960D01*
X53054040Y-134931280D01*
X53061586Y-134942574D01*
X53180004Y-135119799D01*
X53203283Y-135176000D01*
X53266768Y-135329266D01*
X53311000Y-135551636D01*
X53311000Y-135778364D01*
X53266768Y-136000734D01*
X53180003Y-136210203D01*
X53054040Y-136398720D01*
X52893720Y-136559040D01*
X52705203Y-136685003D01*
X52495734Y-136771768D01*
X52384549Y-136793884D01*
X52273365Y-136816000D01*
X52046635Y-136816000D01*
X51935451Y-136793884D01*
X51824266Y-136771768D01*
X51614797Y-136685003D01*
X51426280Y-136559040D01*
X51265960Y-136398720D01*
X51139997Y-136210203D01*
X51053232Y-136000734D01*
X51009000Y-135778364D01*
X51009000Y-135551636D01*
X51053232Y-135329266D01*
X51116717Y-135176000D01*
X51139996Y-135119799D01*
X51258414Y-134942574D01*
X51265960Y-134931280D01*
X51426280Y-134770960D01*
X51614797Y-134644997D01*
X51824266Y-134558232D01*
X51935451Y-134536116D01*
X52046635Y-134514000D01*
X52273365Y-134514000D01*
X52384549Y-134536116D01*
G37*
G36*
X71434549Y-134536116D02*
G01*
X71545734Y-134558232D01*
X71755203Y-134644997D01*
X71943720Y-134770960D01*
X72104040Y-134931280D01*
X72111586Y-134942574D01*
X72230004Y-135119799D01*
X72253283Y-135176000D01*
X72316768Y-135329266D01*
X72361000Y-135551636D01*
X72361000Y-135778364D01*
X72316768Y-136000734D01*
X72230003Y-136210203D01*
X72104040Y-136398720D01*
X71943720Y-136559040D01*
X71755203Y-136685003D01*
X71545734Y-136771768D01*
X71434549Y-136793884D01*
X71323365Y-136816000D01*
X71096635Y-136816000D01*
X70985451Y-136793884D01*
X70874266Y-136771768D01*
X70664797Y-136685003D01*
X70476280Y-136559040D01*
X70315960Y-136398720D01*
X70189997Y-136210203D01*
X70103232Y-136000734D01*
X70059000Y-135778364D01*
X70059000Y-135551636D01*
X70103232Y-135329266D01*
X70166717Y-135176000D01*
X70189996Y-135119799D01*
X70308414Y-134942574D01*
X70315960Y-134931280D01*
X70476280Y-134770960D01*
X70664797Y-134644997D01*
X70874266Y-134558232D01*
X70985451Y-134536116D01*
X71096635Y-134514000D01*
X71323365Y-134514000D01*
X71434549Y-134536116D01*
G37*
G36*
X67998254Y-131152818D02*
G01*
X68371511Y-131307426D01*
X68371513Y-131307427D01*
X68707436Y-131531884D01*
X68993116Y-131817564D01*
X69217574Y-132153489D01*
X69372182Y-132526746D01*
X69451000Y-132922993D01*
X69451000Y-133327007D01*
X69372182Y-133723254D01*
X69217574Y-134096511D01*
X69217573Y-134096513D01*
X68993116Y-134432436D01*
X68707436Y-134718116D01*
X68371513Y-134942573D01*
X68371512Y-134942574D01*
X68371511Y-134942574D01*
X67998254Y-135097182D01*
X67602007Y-135176000D01*
X67197993Y-135176000D01*
X66801746Y-135097182D01*
X66428489Y-134942574D01*
X66428488Y-134942574D01*
X66428487Y-134942573D01*
X66092564Y-134718116D01*
X65806884Y-134432436D01*
X65582427Y-134096513D01*
X65582426Y-134096511D01*
X65427818Y-133723254D01*
X65349000Y-133327007D01*
X65349000Y-132922993D01*
X65427818Y-132526746D01*
X65582426Y-132153489D01*
X65806884Y-131817564D01*
X66092564Y-131531884D01*
X66428487Y-131307427D01*
X66428489Y-131307426D01*
X66801746Y-131152818D01*
X67197993Y-131074000D01*
X67602007Y-131074000D01*
X67998254Y-131152818D01*
G37*
G36*
X48948254Y-131152818D02*
G01*
X49321511Y-131307426D01*
X49321513Y-131307427D01*
X49657436Y-131531884D01*
X49943116Y-131817564D01*
X50167574Y-132153489D01*
X50322182Y-132526746D01*
X50401000Y-132922993D01*
X50401000Y-133327007D01*
X50322182Y-133723254D01*
X50167574Y-134096511D01*
X50167573Y-134096513D01*
X49943116Y-134432436D01*
X49657436Y-134718116D01*
X49321513Y-134942573D01*
X49321512Y-134942574D01*
X49321511Y-134942574D01*
X48948254Y-135097182D01*
X48552007Y-135176000D01*
X48147993Y-135176000D01*
X47751746Y-135097182D01*
X47378489Y-134942574D01*
X47378488Y-134942574D01*
X47378487Y-134942573D01*
X47042564Y-134718116D01*
X46756884Y-134432436D01*
X46532427Y-134096513D01*
X46532426Y-134096511D01*
X46377818Y-133723254D01*
X46299000Y-133327007D01*
X46299000Y-132922993D01*
X46377818Y-132526746D01*
X46532426Y-132153489D01*
X46756884Y-131817564D01*
X47042564Y-131531884D01*
X47378487Y-131307427D01*
X47378489Y-131307426D01*
X47751746Y-131152818D01*
X48147993Y-131074000D01*
X48552007Y-131074000D01*
X48948254Y-131152818D01*
G37*
G36*
X29898254Y-131152818D02*
G01*
X30271511Y-131307426D01*
X30271513Y-131307427D01*
X30607436Y-131531884D01*
X30893116Y-131817564D01*
X31117574Y-132153489D01*
X31272182Y-132526746D01*
X31351000Y-132922993D01*
X31351000Y-133327007D01*
X31272182Y-133723254D01*
X31117574Y-134096511D01*
X31117573Y-134096513D01*
X30893116Y-134432436D01*
X30607436Y-134718116D01*
X30271513Y-134942573D01*
X30271512Y-134942574D01*
X30271511Y-134942574D01*
X29898254Y-135097182D01*
X29502007Y-135176000D01*
X29097993Y-135176000D01*
X28701746Y-135097182D01*
X28328489Y-134942574D01*
X28328488Y-134942574D01*
X28328487Y-134942573D01*
X27992564Y-134718116D01*
X27706884Y-134432436D01*
X27482427Y-134096513D01*
X27482426Y-134096511D01*
X27327818Y-133723254D01*
X27249000Y-133327007D01*
X27249000Y-132922993D01*
X27327818Y-132526746D01*
X27482426Y-132153489D01*
X27706884Y-131817564D01*
X27992564Y-131531884D01*
X28328487Y-131307427D01*
X28328489Y-131307426D01*
X28701746Y-131152818D01*
X29097993Y-131074000D01*
X29502007Y-131074000D01*
X29898254Y-131152818D01*
G37*
G36*
X76263500Y-135126000D02*
G01*
X75061500Y-135126000D01*
X75061500Y-133924000D01*
X76263500Y-133924000D01*
X76263500Y-135126000D01*
G37*
G36*
X57213500Y-135126000D02*
G01*
X56011500Y-135126000D01*
X56011500Y-133924000D01*
X57213500Y-133924000D01*
X57213500Y-135126000D01*
G37*
G36*
X38163500Y-135126000D02*
G01*
X36961500Y-135126000D01*
X36961500Y-133924000D01*
X38163500Y-133924000D01*
X38163500Y-135126000D01*
G37*
G36*
X43383512Y-132228927D02*
G01*
X43532812Y-132258624D01*
X43696784Y-132326544D01*
X43844354Y-132425147D01*
X43969853Y-132550646D01*
X44068456Y-132698216D01*
X44136376Y-132862188D01*
X44171000Y-133036259D01*
X44171000Y-133213741D01*
X44136376Y-133387812D01*
X44068456Y-133551784D01*
X43969853Y-133699354D01*
X43844354Y-133824853D01*
X43696784Y-133923456D01*
X43532812Y-133991376D01*
X43383512Y-134021073D01*
X43358742Y-134026000D01*
X43181258Y-134026000D01*
X43156488Y-134021073D01*
X43007188Y-133991376D01*
X42843216Y-133923456D01*
X42695646Y-133824853D01*
X42570147Y-133699354D01*
X42471544Y-133551784D01*
X42403624Y-133387812D01*
X42369000Y-133213741D01*
X42369000Y-133036259D01*
X42403624Y-132862188D01*
X42471544Y-132698216D01*
X42570147Y-132550646D01*
X42695646Y-132425147D01*
X42843216Y-132326544D01*
X43007188Y-132258624D01*
X43156488Y-132228927D01*
X43181258Y-132224000D01*
X43358742Y-132224000D01*
X43383512Y-132228927D01*
G37*
G36*
X34493512Y-132228927D02*
G01*
X34642812Y-132258624D01*
X34806784Y-132326544D01*
X34954354Y-132425147D01*
X35079853Y-132550646D01*
X35178456Y-132698216D01*
X35246376Y-132862188D01*
X35281000Y-133036259D01*
X35281000Y-133213741D01*
X35246376Y-133387812D01*
X35178456Y-133551784D01*
X35079853Y-133699354D01*
X34954354Y-133824853D01*
X34806784Y-133923456D01*
X34642812Y-133991376D01*
X34493512Y-134021073D01*
X34468742Y-134026000D01*
X34291258Y-134026000D01*
X34266488Y-134021073D01*
X34117188Y-133991376D01*
X33953216Y-133923456D01*
X33805646Y-133824853D01*
X33680147Y-133699354D01*
X33581544Y-133551784D01*
X33513624Y-133387812D01*
X33479000Y-133213741D01*
X33479000Y-133036259D01*
X33513624Y-132862188D01*
X33581544Y-132698216D01*
X33680147Y-132550646D01*
X33805646Y-132425147D01*
X33953216Y-132326544D01*
X34117188Y-132258624D01*
X34266488Y-132228927D01*
X34291258Y-132224000D01*
X34468742Y-132224000D01*
X34493512Y-132228927D01*
G37*
G36*
X24333512Y-132228927D02*
G01*
X24482812Y-132258624D01*
X24646784Y-132326544D01*
X24794354Y-132425147D01*
X24919853Y-132550646D01*
X25018456Y-132698216D01*
X25086376Y-132862188D01*
X25121000Y-133036259D01*
X25121000Y-133213741D01*
X25086376Y-133387812D01*
X25018456Y-133551784D01*
X24919853Y-133699354D01*
X24794354Y-133824853D01*
X24646784Y-133923456D01*
X24482812Y-133991376D01*
X24333512Y-134021073D01*
X24308742Y-134026000D01*
X24131258Y-134026000D01*
X24106488Y-134021073D01*
X23957188Y-133991376D01*
X23793216Y-133923456D01*
X23645646Y-133824853D01*
X23520147Y-133699354D01*
X23421544Y-133551784D01*
X23353624Y-133387812D01*
X23319000Y-133213741D01*
X23319000Y-133036259D01*
X23353624Y-132862188D01*
X23421544Y-132698216D01*
X23520147Y-132550646D01*
X23645646Y-132425147D01*
X23793216Y-132326544D01*
X23957188Y-132258624D01*
X24106488Y-132228927D01*
X24131258Y-132224000D01*
X24308742Y-132224000D01*
X24333512Y-132228927D01*
G37*
G36*
X53543512Y-132228927D02*
G01*
X53692812Y-132258624D01*
X53856784Y-132326544D01*
X54004354Y-132425147D01*
X54129853Y-132550646D01*
X54228456Y-132698216D01*
X54296376Y-132862188D01*
X54331000Y-133036259D01*
X54331000Y-133213741D01*
X54296376Y-133387812D01*
X54228456Y-133551784D01*
X54129853Y-133699354D01*
X54004354Y-133824853D01*
X53856784Y-133923456D01*
X53692812Y-133991376D01*
X53543512Y-134021073D01*
X53518742Y-134026000D01*
X53341258Y-134026000D01*
X53316488Y-134021073D01*
X53167188Y-133991376D01*
X53003216Y-133923456D01*
X52855646Y-133824853D01*
X52730147Y-133699354D01*
X52631544Y-133551784D01*
X52563624Y-133387812D01*
X52529000Y-133213741D01*
X52529000Y-133036259D01*
X52563624Y-132862188D01*
X52631544Y-132698216D01*
X52730147Y-132550646D01*
X52855646Y-132425147D01*
X53003216Y-132326544D01*
X53167188Y-132258624D01*
X53316488Y-132228927D01*
X53341258Y-132224000D01*
X53518742Y-132224000D01*
X53543512Y-132228927D01*
G37*
G36*
X72593512Y-132228927D02*
G01*
X72742812Y-132258624D01*
X72906784Y-132326544D01*
X73054354Y-132425147D01*
X73179853Y-132550646D01*
X73278456Y-132698216D01*
X73346376Y-132862188D01*
X73381000Y-133036259D01*
X73381000Y-133213741D01*
X73346376Y-133387812D01*
X73278456Y-133551784D01*
X73179853Y-133699354D01*
X73054354Y-133824853D01*
X72906784Y-133923456D01*
X72742812Y-133991376D01*
X72593512Y-134021073D01*
X72568742Y-134026000D01*
X72391258Y-134026000D01*
X72366488Y-134021073D01*
X72217188Y-133991376D01*
X72053216Y-133923456D01*
X71905646Y-133824853D01*
X71780147Y-133699354D01*
X71681544Y-133551784D01*
X71613624Y-133387812D01*
X71579000Y-133213741D01*
X71579000Y-133036259D01*
X71613624Y-132862188D01*
X71681544Y-132698216D01*
X71780147Y-132550646D01*
X71905646Y-132425147D01*
X72053216Y-132326544D01*
X72217188Y-132258624D01*
X72366488Y-132228927D01*
X72391258Y-132224000D01*
X72568742Y-132224000D01*
X72593512Y-132228927D01*
G37*
G36*
X62433512Y-132228927D02*
G01*
X62582812Y-132258624D01*
X62746784Y-132326544D01*
X62894354Y-132425147D01*
X63019853Y-132550646D01*
X63118456Y-132698216D01*
X63186376Y-132862188D01*
X63221000Y-133036259D01*
X63221000Y-133213741D01*
X63186376Y-133387812D01*
X63118456Y-133551784D01*
X63019853Y-133699354D01*
X62894354Y-133824853D01*
X62746784Y-133923456D01*
X62582812Y-133991376D01*
X62433512Y-134021073D01*
X62408742Y-134026000D01*
X62231258Y-134026000D01*
X62206488Y-134021073D01*
X62057188Y-133991376D01*
X61893216Y-133923456D01*
X61745646Y-133824853D01*
X61620147Y-133699354D01*
X61521544Y-133551784D01*
X61453624Y-133387812D01*
X61419000Y-133213741D01*
X61419000Y-133036259D01*
X61453624Y-132862188D01*
X61521544Y-132698216D01*
X61620147Y-132550646D01*
X61745646Y-132425147D01*
X61893216Y-132326544D01*
X62057188Y-132258624D01*
X62206488Y-132228927D01*
X62231258Y-132224000D01*
X62408742Y-132224000D01*
X62433512Y-132228927D01*
G37*
G36*
X38163500Y-132326000D02*
G01*
X36961500Y-132326000D01*
X36961500Y-131124000D01*
X38163500Y-131124000D01*
X38163500Y-132326000D01*
G37*
G36*
X76263500Y-132326000D02*
G01*
X75061500Y-132326000D01*
X75061500Y-131124000D01*
X76263500Y-131124000D01*
X76263500Y-132326000D01*
G37*
G36*
X57213500Y-132326000D02*
G01*
X56011500Y-132326000D01*
X56011500Y-131124000D01*
X57213500Y-131124000D01*
X57213500Y-132326000D01*
G37*
G36*
X33263674Y-126663465D02*
G01*
X33301367Y-126674899D01*
X33336103Y-126693466D01*
X33366548Y-126718452D01*
X33391534Y-126748897D01*
X33410101Y-126783633D01*
X33421535Y-126821326D01*
X33426000Y-126866661D01*
X33426000Y-127953339D01*
X33421535Y-127998674D01*
X33410101Y-128036367D01*
X33391534Y-128071103D01*
X33366548Y-128101548D01*
X33336103Y-128126534D01*
X33301367Y-128145101D01*
X33263674Y-128156535D01*
X33218339Y-128161000D01*
X32381661Y-128161000D01*
X32336326Y-128156535D01*
X32298633Y-128145101D01*
X32263897Y-128126534D01*
X32233452Y-128101548D01*
X32208466Y-128071103D01*
X32189899Y-128036367D01*
X32178465Y-127998674D01*
X32174000Y-127953339D01*
X32174000Y-126866661D01*
X32178465Y-126821326D01*
X32189899Y-126783633D01*
X32208466Y-126748897D01*
X32233452Y-126718452D01*
X32263897Y-126693466D01*
X32298633Y-126674899D01*
X32336326Y-126663465D01*
X32381661Y-126659000D01*
X33218339Y-126659000D01*
X33263674Y-126663465D01*
G37*
G36*
X35313674Y-126663465D02*
G01*
X35351367Y-126674899D01*
X35386103Y-126693466D01*
X35416548Y-126718452D01*
X35441534Y-126748897D01*
X35460101Y-126783633D01*
X35471535Y-126821326D01*
X35476000Y-126866661D01*
X35476000Y-127953339D01*
X35471535Y-127998674D01*
X35460101Y-128036367D01*
X35441534Y-128071103D01*
X35416548Y-128101548D01*
X35386103Y-128126534D01*
X35351367Y-128145101D01*
X35313674Y-128156535D01*
X35268339Y-128161000D01*
X34431661Y-128161000D01*
X34386326Y-128156535D01*
X34348633Y-128145101D01*
X34313897Y-128126534D01*
X34283452Y-128101548D01*
X34258466Y-128071103D01*
X34239899Y-128036367D01*
X34228465Y-127998674D01*
X34224000Y-127953339D01*
X34224000Y-126866661D01*
X34228465Y-126821326D01*
X34239899Y-126783633D01*
X34258466Y-126748897D01*
X34283452Y-126718452D01*
X34313897Y-126693466D01*
X34348633Y-126674899D01*
X34386326Y-126663465D01*
X34431661Y-126659000D01*
X35268339Y-126659000D01*
X35313674Y-126663465D01*
G37*
G36*
X64363674Y-126663465D02*
G01*
X64401367Y-126674899D01*
X64436103Y-126693466D01*
X64466548Y-126718452D01*
X64491534Y-126748897D01*
X64510101Y-126783633D01*
X64521535Y-126821326D01*
X64526000Y-126866661D01*
X64526000Y-127953339D01*
X64521535Y-127998674D01*
X64510101Y-128036367D01*
X64491534Y-128071103D01*
X64466548Y-128101548D01*
X64436103Y-128126534D01*
X64401367Y-128145101D01*
X64363674Y-128156535D01*
X64318339Y-128161000D01*
X63481661Y-128161000D01*
X63436326Y-128156535D01*
X63398633Y-128145101D01*
X63363897Y-128126534D01*
X63333452Y-128101548D01*
X63308466Y-128071103D01*
X63289899Y-128036367D01*
X63278465Y-127998674D01*
X63274000Y-127953339D01*
X63274000Y-126866661D01*
X63278465Y-126821326D01*
X63289899Y-126783633D01*
X63308466Y-126748897D01*
X63333452Y-126718452D01*
X63363897Y-126693466D01*
X63398633Y-126674899D01*
X63436326Y-126663465D01*
X63481661Y-126659000D01*
X64318339Y-126659000D01*
X64363674Y-126663465D01*
G37*
G36*
X62313674Y-126663465D02*
G01*
X62351367Y-126674899D01*
X62386103Y-126693466D01*
X62416548Y-126718452D01*
X62441534Y-126748897D01*
X62460101Y-126783633D01*
X62471535Y-126821326D01*
X62476000Y-126866661D01*
X62476000Y-127953339D01*
X62471535Y-127998674D01*
X62460101Y-128036367D01*
X62441534Y-128071103D01*
X62416548Y-128101548D01*
X62386103Y-128126534D01*
X62351367Y-128145101D01*
X62313674Y-128156535D01*
X62268339Y-128161000D01*
X61431661Y-128161000D01*
X61386326Y-128156535D01*
X61348633Y-128145101D01*
X61313897Y-128126534D01*
X61283452Y-128101548D01*
X61258466Y-128071103D01*
X61239899Y-128036367D01*
X61228465Y-127998674D01*
X61224000Y-127953339D01*
X61224000Y-126866661D01*
X61228465Y-126821326D01*
X61239899Y-126783633D01*
X61258466Y-126748897D01*
X61283452Y-126718452D01*
X61313897Y-126693466D01*
X61348633Y-126674899D01*
X61386326Y-126663465D01*
X61431661Y-126659000D01*
X62268339Y-126659000D01*
X62313674Y-126663465D01*
G37*
G36*
X72373903Y-121343213D02*
G01*
X72596177Y-121387426D01*
X73014932Y-121560880D01*
X73391802Y-121812696D01*
X73712304Y-122133198D01*
X73964120Y-122510068D01*
X74137574Y-122928823D01*
X74226000Y-123373371D01*
X74226000Y-123826629D01*
X74137574Y-124271177D01*
X73964120Y-124689932D01*
X73712304Y-125066802D01*
X73391802Y-125387304D01*
X73014932Y-125639120D01*
X72596177Y-125812574D01*
X72373903Y-125856787D01*
X72151630Y-125901000D01*
X71698370Y-125901000D01*
X71476097Y-125856787D01*
X71253823Y-125812574D01*
X70835068Y-125639120D01*
X70458198Y-125387304D01*
X70137696Y-125066802D01*
X69885880Y-124689932D01*
X69712426Y-124271177D01*
X69624000Y-123826629D01*
X69624000Y-123373371D01*
X69712426Y-122928823D01*
X69885880Y-122510068D01*
X70137696Y-122133198D01*
X70458198Y-121812696D01*
X70835068Y-121560880D01*
X71253823Y-121387426D01*
X71476097Y-121343213D01*
X71698370Y-121299000D01*
X72151630Y-121299000D01*
X72373903Y-121343213D01*
G37*
G36*
X25223903Y-121343213D02*
G01*
X25446177Y-121387426D01*
X25864932Y-121560880D01*
X26241802Y-121812696D01*
X26562304Y-122133198D01*
X26814120Y-122510068D01*
X26987574Y-122928823D01*
X27076000Y-123373371D01*
X27076000Y-123826629D01*
X26987574Y-124271177D01*
X26814120Y-124689932D01*
X26562304Y-125066802D01*
X26241802Y-125387304D01*
X25864932Y-125639120D01*
X25446177Y-125812574D01*
X25223903Y-125856787D01*
X25001630Y-125901000D01*
X24548370Y-125901000D01*
X24326097Y-125856787D01*
X24103823Y-125812574D01*
X23685068Y-125639120D01*
X23308198Y-125387304D01*
X22987696Y-125066802D01*
X22735880Y-124689932D01*
X22562426Y-124271177D01*
X22474000Y-123826629D01*
X22474000Y-123373371D01*
X22562426Y-122928823D01*
X22735880Y-122510068D01*
X22987696Y-122133198D01*
X23308198Y-121812696D01*
X23685068Y-121560880D01*
X24103823Y-121387426D01*
X24326097Y-121343213D01*
X24548370Y-121299000D01*
X25001630Y-121299000D01*
X25223903Y-121343213D01*
G37*
G36*
X32176000Y-125751000D02*
G01*
X30574000Y-125751000D01*
X30574000Y-124649000D01*
X32176000Y-124649000D01*
X32176000Y-125751000D01*
G37*
G36*
X66126000Y-125751000D02*
G01*
X64524000Y-125751000D01*
X64524000Y-124649000D01*
X66126000Y-124649000D01*
X66126000Y-125751000D01*
G37*
G36*
X61226000Y-125751000D02*
G01*
X59624000Y-125751000D01*
X59624000Y-124649000D01*
X61226000Y-124649000D01*
X61226000Y-125751000D01*
G37*
G36*
X37076000Y-125751000D02*
G01*
X35474000Y-125751000D01*
X35474000Y-124649000D01*
X37076000Y-124649000D01*
X37076000Y-125751000D01*
G37*
G36*
X61226000Y-122551000D02*
G01*
X59624000Y-122551000D01*
X59624000Y-121449000D01*
X61226000Y-121449000D01*
X61226000Y-122551000D01*
G37*
G36*
X32176000Y-122551000D02*
G01*
X30574000Y-122551000D01*
X30574000Y-121449000D01*
X32176000Y-121449000D01*
X32176000Y-122551000D01*
G37*
G36*
X66126000Y-122551000D02*
G01*
X64524000Y-122551000D01*
X64524000Y-121449000D01*
X66126000Y-121449000D01*
X66126000Y-122551000D01*
G37*
G36*
X37076000Y-122551000D02*
G01*
X35474000Y-122551000D01*
X35474000Y-121449000D01*
X37076000Y-121449000D01*
X37076000Y-122551000D01*
G37*
G36*
X46034549Y-118026116D02*
G01*
X46145734Y-118048232D01*
X46355203Y-118134997D01*
X46543720Y-118260960D01*
X46704040Y-118421280D01*
X46830003Y-118609797D01*
X46916768Y-118819266D01*
X46961000Y-119041636D01*
X46961000Y-119268364D01*
X46916768Y-119490734D01*
X46830003Y-119700203D01*
X46704040Y-119888720D01*
X46543720Y-120049040D01*
X46355203Y-120175003D01*
X46145734Y-120261768D01*
X46034549Y-120283884D01*
X45923365Y-120306000D01*
X45696635Y-120306000D01*
X45585451Y-120283884D01*
X45474266Y-120261768D01*
X45264797Y-120175003D01*
X45076280Y-120049040D01*
X44915960Y-119888720D01*
X44789997Y-119700203D01*
X44703232Y-119490734D01*
X44659000Y-119268364D01*
X44659000Y-119041636D01*
X44703232Y-118819266D01*
X44789997Y-118609797D01*
X44915960Y-118421280D01*
X45076280Y-118260960D01*
X45264797Y-118134997D01*
X45474266Y-118048232D01*
X45585451Y-118026116D01*
X45696635Y-118004000D01*
X45923365Y-118004000D01*
X46034549Y-118026116D01*
G37*
G36*
X52384549Y-115486116D02*
G01*
X52495734Y-115508232D01*
X52705203Y-115594997D01*
X52893720Y-115720960D01*
X53054040Y-115881280D01*
X53061586Y-115892574D01*
X53180004Y-116069799D01*
X53203283Y-116126000D01*
X53266768Y-116279266D01*
X53311000Y-116501636D01*
X53311000Y-116728364D01*
X53266768Y-116950734D01*
X53180003Y-117160203D01*
X53054040Y-117348720D01*
X52893720Y-117509040D01*
X52705203Y-117635003D01*
X52495734Y-117721768D01*
X52384549Y-117743884D01*
X52273365Y-117766000D01*
X52046635Y-117766000D01*
X51935451Y-117743884D01*
X51824266Y-117721768D01*
X51614797Y-117635003D01*
X51426280Y-117509040D01*
X51265960Y-117348720D01*
X51139997Y-117160203D01*
X51053232Y-116950734D01*
X51009000Y-116728364D01*
X51009000Y-116501636D01*
X51053232Y-116279266D01*
X51116717Y-116126000D01*
X51139996Y-116069799D01*
X51258414Y-115892574D01*
X51265960Y-115881280D01*
X51426280Y-115720960D01*
X51614797Y-115594997D01*
X51824266Y-115508232D01*
X51935451Y-115486116D01*
X52046635Y-115464000D01*
X52273365Y-115464000D01*
X52384549Y-115486116D01*
G37*
G36*
X74976000Y-117363000D02*
G01*
X73574000Y-117363000D01*
X73574000Y-115496000D01*
X74976000Y-115496000D01*
X74976000Y-117363000D01*
G37*
G36*
X23126000Y-117363000D02*
G01*
X21724000Y-117363000D01*
X21724000Y-115496000D01*
X23126000Y-115496000D01*
X23126000Y-117363000D01*
G37*
G36*
X48948254Y-112102818D02*
G01*
X49321511Y-112257426D01*
X49321513Y-112257427D01*
X49507837Y-112381925D01*
X49657436Y-112481884D01*
X49943116Y-112767564D01*
X50167574Y-113103489D01*
X50322182Y-113476746D01*
X50401000Y-113872993D01*
X50401000Y-114277007D01*
X50322182Y-114673254D01*
X50167574Y-115046511D01*
X50167573Y-115046513D01*
X49943116Y-115382436D01*
X49657436Y-115668116D01*
X49321513Y-115892573D01*
X49321512Y-115892574D01*
X49321511Y-115892574D01*
X48948254Y-116047182D01*
X48552007Y-116126000D01*
X48147993Y-116126000D01*
X47751746Y-116047182D01*
X47378489Y-115892574D01*
X47378488Y-115892574D01*
X47378487Y-115892573D01*
X47042564Y-115668116D01*
X46756884Y-115382436D01*
X46532427Y-115046513D01*
X46532426Y-115046511D01*
X46377818Y-114673254D01*
X46299000Y-114277007D01*
X46299000Y-113872993D01*
X46377818Y-113476746D01*
X46532426Y-113103489D01*
X46756884Y-112767564D01*
X47042564Y-112481884D01*
X47192163Y-112381925D01*
X47378487Y-112257427D01*
X47378489Y-112257426D01*
X47751746Y-112102818D01*
X48147993Y-112024000D01*
X48552007Y-112024000D01*
X48948254Y-112102818D01*
G37*
G36*
X57213500Y-116076000D02*
G01*
X56011500Y-116076000D01*
X56011500Y-114874000D01*
X57213500Y-114874000D01*
X57213500Y-116076000D01*
G37*
G36*
X43383512Y-113178927D02*
G01*
X43532812Y-113208624D01*
X43696784Y-113276544D01*
X43844354Y-113375147D01*
X43969853Y-113500646D01*
X44068456Y-113648216D01*
X44136376Y-113812188D01*
X44171000Y-113986259D01*
X44171000Y-114163741D01*
X44136376Y-114337812D01*
X44068456Y-114501784D01*
X43969853Y-114649354D01*
X43844354Y-114774853D01*
X43696784Y-114873456D01*
X43532812Y-114941376D01*
X43383512Y-114971073D01*
X43358742Y-114976000D01*
X43181258Y-114976000D01*
X43156488Y-114971073D01*
X43007188Y-114941376D01*
X42843216Y-114873456D01*
X42695646Y-114774853D01*
X42570147Y-114649354D01*
X42471544Y-114501784D01*
X42403624Y-114337812D01*
X42369000Y-114163741D01*
X42369000Y-113986259D01*
X42403624Y-113812188D01*
X42471544Y-113648216D01*
X42570147Y-113500646D01*
X42695646Y-113375147D01*
X42843216Y-113276544D01*
X43007188Y-113208624D01*
X43156488Y-113178927D01*
X43181258Y-113174000D01*
X43358742Y-113174000D01*
X43383512Y-113178927D01*
G37*
G36*
X53543512Y-113178927D02*
G01*
X53692812Y-113208624D01*
X53856784Y-113276544D01*
X54004354Y-113375147D01*
X54129853Y-113500646D01*
X54228456Y-113648216D01*
X54296376Y-113812188D01*
X54331000Y-113986259D01*
X54331000Y-114163741D01*
X54296376Y-114337812D01*
X54228456Y-114501784D01*
X54129853Y-114649354D01*
X54004354Y-114774853D01*
X53856784Y-114873456D01*
X53692812Y-114941376D01*
X53543512Y-114971073D01*
X53518742Y-114976000D01*
X53341258Y-114976000D01*
X53316488Y-114971073D01*
X53167188Y-114941376D01*
X53003216Y-114873456D01*
X52855646Y-114774853D01*
X52730147Y-114649354D01*
X52631544Y-114501784D01*
X52563624Y-114337812D01*
X52529000Y-114163741D01*
X52529000Y-113986259D01*
X52563624Y-113812188D01*
X52631544Y-113648216D01*
X52730147Y-113500646D01*
X52855646Y-113375147D01*
X53003216Y-113276544D01*
X53167188Y-113208624D01*
X53316488Y-113178927D01*
X53341258Y-113174000D01*
X53518742Y-113174000D01*
X53543512Y-113178927D01*
G37*
G36*
X36088674Y-113403465D02*
G01*
X36126367Y-113414899D01*
X36161103Y-113433466D01*
X36191548Y-113458452D01*
X36216534Y-113488897D01*
X36235101Y-113523633D01*
X36246535Y-113561326D01*
X36251000Y-113606661D01*
X36251000Y-114443339D01*
X36246535Y-114488674D01*
X36235101Y-114526367D01*
X36216534Y-114561103D01*
X36191548Y-114591548D01*
X36161103Y-114616534D01*
X36126367Y-114635101D01*
X36088674Y-114646535D01*
X36043339Y-114651000D01*
X34956661Y-114651000D01*
X34911326Y-114646535D01*
X34873633Y-114635101D01*
X34838897Y-114616534D01*
X34808452Y-114591548D01*
X34783466Y-114561103D01*
X34764899Y-114526367D01*
X34753465Y-114488674D01*
X34749000Y-114443339D01*
X34749000Y-113606661D01*
X34753465Y-113561326D01*
X34764899Y-113523633D01*
X34783466Y-113488897D01*
X34808452Y-113458452D01*
X34838897Y-113433466D01*
X34873633Y-113414899D01*
X34911326Y-113403465D01*
X34956661Y-113399000D01*
X36043339Y-113399000D01*
X36088674Y-113403465D01*
G37*
G36*
X38588674Y-113403465D02*
G01*
X38626367Y-113414899D01*
X38661103Y-113433466D01*
X38691548Y-113458452D01*
X38716534Y-113488897D01*
X38735101Y-113523633D01*
X38746535Y-113561326D01*
X38751000Y-113606661D01*
X38751000Y-114443339D01*
X38746535Y-114488674D01*
X38735101Y-114526367D01*
X38716534Y-114561103D01*
X38691548Y-114591548D01*
X38661103Y-114616534D01*
X38626367Y-114635101D01*
X38588674Y-114646535D01*
X38543339Y-114651000D01*
X37456661Y-114651000D01*
X37411326Y-114646535D01*
X37373633Y-114635101D01*
X37338897Y-114616534D01*
X37308452Y-114591548D01*
X37283466Y-114561103D01*
X37264899Y-114526367D01*
X37253465Y-114488674D01*
X37249000Y-114443339D01*
X37249000Y-113606661D01*
X37253465Y-113561326D01*
X37264899Y-113523633D01*
X37283466Y-113488897D01*
X37308452Y-113458452D01*
X37338897Y-113433466D01*
X37373633Y-113414899D01*
X37411326Y-113403465D01*
X37456661Y-113399000D01*
X38543339Y-113399000D01*
X38588674Y-113403465D01*
G37*
G36*
X41088674Y-113403465D02*
G01*
X41126367Y-113414899D01*
X41161103Y-113433466D01*
X41191548Y-113458452D01*
X41216534Y-113488897D01*
X41235101Y-113523633D01*
X41246535Y-113561326D01*
X41251000Y-113606661D01*
X41251000Y-114443339D01*
X41246535Y-114488674D01*
X41235101Y-114526367D01*
X41216534Y-114561103D01*
X41191548Y-114591548D01*
X41161103Y-114616534D01*
X41126367Y-114635101D01*
X41088674Y-114646535D01*
X41043339Y-114651000D01*
X39956661Y-114651000D01*
X39911326Y-114646535D01*
X39873633Y-114635101D01*
X39838897Y-114616534D01*
X39808452Y-114591548D01*
X39783466Y-114561103D01*
X39764899Y-114526367D01*
X39753465Y-114488674D01*
X39749000Y-114443339D01*
X39749000Y-113606661D01*
X39753465Y-113561326D01*
X39764899Y-113523633D01*
X39783466Y-113488897D01*
X39808452Y-113458452D01*
X39838897Y-113433466D01*
X39873633Y-113414899D01*
X39911326Y-113403465D01*
X39956661Y-113399000D01*
X41043339Y-113399000D01*
X41088674Y-113403465D01*
G37*
G36*
X71976000Y-114263000D02*
G01*
X70874000Y-114263000D01*
X70874000Y-104361000D01*
X71976000Y-104361000D01*
X71976000Y-114263000D01*
G37*
G36*
X25826000Y-114263000D02*
G01*
X24724000Y-114263000D01*
X24724000Y-104361000D01*
X25826000Y-104361000D01*
X25826000Y-114263000D01*
G37*
G36*
X57213500Y-113276000D02*
G01*
X56011500Y-113276000D01*
X56011500Y-112074000D01*
X57213500Y-112074000D01*
X57213500Y-113276000D01*
G37*
G36*
X41088674Y-111353465D02*
G01*
X41126367Y-111364899D01*
X41161103Y-111383466D01*
X41191548Y-111408452D01*
X41216534Y-111438897D01*
X41235101Y-111473633D01*
X41246535Y-111511326D01*
X41251000Y-111556661D01*
X41251000Y-112393339D01*
X41246535Y-112438674D01*
X41235101Y-112476367D01*
X41216534Y-112511103D01*
X41191548Y-112541548D01*
X41161103Y-112566534D01*
X41126367Y-112585101D01*
X41088674Y-112596535D01*
X41043339Y-112601000D01*
X39956661Y-112601000D01*
X39911326Y-112596535D01*
X39873633Y-112585101D01*
X39838897Y-112566534D01*
X39808452Y-112541548D01*
X39783466Y-112511103D01*
X39764899Y-112476367D01*
X39753465Y-112438674D01*
X39749000Y-112393339D01*
X39749000Y-111556661D01*
X39753465Y-111511326D01*
X39764899Y-111473633D01*
X39783466Y-111438897D01*
X39808452Y-111408452D01*
X39838897Y-111383466D01*
X39873633Y-111364899D01*
X39911326Y-111353465D01*
X39956661Y-111349000D01*
X41043339Y-111349000D01*
X41088674Y-111353465D01*
G37*
G36*
X38588674Y-111353465D02*
G01*
X38626367Y-111364899D01*
X38661103Y-111383466D01*
X38691548Y-111408452D01*
X38716534Y-111438897D01*
X38735101Y-111473633D01*
X38746535Y-111511326D01*
X38751000Y-111556661D01*
X38751000Y-112393339D01*
X38746535Y-112438674D01*
X38735101Y-112476367D01*
X38716534Y-112511103D01*
X38691548Y-112541548D01*
X38661103Y-112566534D01*
X38626367Y-112585101D01*
X38588674Y-112596535D01*
X38543339Y-112601000D01*
X37456661Y-112601000D01*
X37411326Y-112596535D01*
X37373633Y-112585101D01*
X37338897Y-112566534D01*
X37308452Y-112541548D01*
X37283466Y-112511103D01*
X37264899Y-112476367D01*
X37253465Y-112438674D01*
X37249000Y-112393339D01*
X37249000Y-111556661D01*
X37253465Y-111511326D01*
X37264899Y-111473633D01*
X37283466Y-111438897D01*
X37308452Y-111408452D01*
X37338897Y-111383466D01*
X37373633Y-111364899D01*
X37411326Y-111353465D01*
X37456661Y-111349000D01*
X38543339Y-111349000D01*
X38588674Y-111353465D01*
G37*
G36*
X36088674Y-111353465D02*
G01*
X36126367Y-111364899D01*
X36161103Y-111383466D01*
X36191548Y-111408452D01*
X36216534Y-111438897D01*
X36235101Y-111473633D01*
X36246535Y-111511326D01*
X36251000Y-111556661D01*
X36251000Y-112393339D01*
X36246535Y-112438674D01*
X36235101Y-112476367D01*
X36216534Y-112511103D01*
X36191548Y-112541548D01*
X36161103Y-112566534D01*
X36126367Y-112585101D01*
X36088674Y-112596535D01*
X36043339Y-112601000D01*
X34956661Y-112601000D01*
X34911326Y-112596535D01*
X34873633Y-112585101D01*
X34838897Y-112566534D01*
X34808452Y-112541548D01*
X34783466Y-112511103D01*
X34764899Y-112476367D01*
X34753465Y-112438674D01*
X34749000Y-112393339D01*
X34749000Y-111556661D01*
X34753465Y-111511326D01*
X34764899Y-111473633D01*
X34783466Y-111438897D01*
X34808452Y-111408452D01*
X34838897Y-111383466D01*
X34873633Y-111364899D01*
X34911326Y-111353465D01*
X34956661Y-111349000D01*
X36043339Y-111349000D01*
X36088674Y-111353465D01*
G37*
G36*
X54063674Y-109253465D02*
G01*
X54101367Y-109264899D01*
X54136103Y-109283466D01*
X54166548Y-109308452D01*
X54191534Y-109338897D01*
X54210101Y-109373633D01*
X54221535Y-109411326D01*
X54226000Y-109456661D01*
X54226000Y-110543339D01*
X54221535Y-110588674D01*
X54210101Y-110626367D01*
X54191534Y-110661103D01*
X54166548Y-110691548D01*
X54136103Y-110716534D01*
X54101367Y-110735101D01*
X54063674Y-110746535D01*
X54018339Y-110751000D01*
X53181661Y-110751000D01*
X53136326Y-110746535D01*
X53098633Y-110735101D01*
X53063897Y-110716534D01*
X53033452Y-110691548D01*
X53008466Y-110661103D01*
X52989899Y-110626367D01*
X52978465Y-110588674D01*
X52974000Y-110543339D01*
X52974000Y-109456661D01*
X52978465Y-109411326D01*
X52989899Y-109373633D01*
X53008466Y-109338897D01*
X53033452Y-109308452D01*
X53063897Y-109283466D01*
X53098633Y-109264899D01*
X53136326Y-109253465D01*
X53181661Y-109249000D01*
X54018339Y-109249000D01*
X54063674Y-109253465D01*
G37*
G36*
X52013674Y-109253465D02*
G01*
X52051367Y-109264899D01*
X52086103Y-109283466D01*
X52116548Y-109308452D01*
X52141534Y-109338897D01*
X52160101Y-109373633D01*
X52171535Y-109411326D01*
X52176000Y-109456661D01*
X52176000Y-110543339D01*
X52171535Y-110588674D01*
X52160101Y-110626367D01*
X52141534Y-110661103D01*
X52116548Y-110691548D01*
X52086103Y-110716534D01*
X52051367Y-110735101D01*
X52013674Y-110746535D01*
X51968339Y-110751000D01*
X51131661Y-110751000D01*
X51086326Y-110746535D01*
X51048633Y-110735101D01*
X51013897Y-110716534D01*
X50983452Y-110691548D01*
X50958466Y-110661103D01*
X50939899Y-110626367D01*
X50928465Y-110588674D01*
X50924000Y-110543339D01*
X50924000Y-109456661D01*
X50928465Y-109411326D01*
X50939899Y-109373633D01*
X50958466Y-109338897D01*
X50983452Y-109308452D01*
X51013897Y-109283466D01*
X51048633Y-109264899D01*
X51086326Y-109253465D01*
X51131661Y-109249000D01*
X51968339Y-109249000D01*
X52013674Y-109253465D01*
G37*
G36*
X52800000Y-108450000D02*
G01*
X43900000Y-108450000D01*
X43900000Y-106550000D01*
X52800000Y-106550000D01*
X52800000Y-108450000D01*
G37*
G36*
X36788674Y-106253465D02*
G01*
X36826367Y-106264899D01*
X36861103Y-106283466D01*
X36891548Y-106308452D01*
X36916534Y-106338897D01*
X36935101Y-106373633D01*
X36946535Y-106411326D01*
X36951000Y-106456661D01*
X36951000Y-107543339D01*
X36946535Y-107588674D01*
X36935101Y-107626367D01*
X36916534Y-107661103D01*
X36891548Y-107691548D01*
X36861103Y-107716534D01*
X36826367Y-107735101D01*
X36788674Y-107746535D01*
X36743339Y-107751000D01*
X35906661Y-107751000D01*
X35861326Y-107746535D01*
X35823633Y-107735101D01*
X35788897Y-107716534D01*
X35758452Y-107691548D01*
X35733466Y-107661103D01*
X35714899Y-107626367D01*
X35703465Y-107588674D01*
X35699000Y-107543339D01*
X35699000Y-106456661D01*
X35703465Y-106411326D01*
X35714899Y-106373633D01*
X35733466Y-106338897D01*
X35758452Y-106308452D01*
X35788897Y-106283466D01*
X35823633Y-106264899D01*
X35861326Y-106253465D01*
X35906661Y-106249000D01*
X36743339Y-106249000D01*
X36788674Y-106253465D01*
G37*
G36*
X38838674Y-106253465D02*
G01*
X38876367Y-106264899D01*
X38911103Y-106283466D01*
X38941548Y-106308452D01*
X38966534Y-106338897D01*
X38985101Y-106373633D01*
X38996535Y-106411326D01*
X39001000Y-106456661D01*
X39001000Y-107543339D01*
X38996535Y-107588674D01*
X38985101Y-107626367D01*
X38966534Y-107661103D01*
X38941548Y-107691548D01*
X38911103Y-107716534D01*
X38876367Y-107735101D01*
X38838674Y-107746535D01*
X38793339Y-107751000D01*
X37956661Y-107751000D01*
X37911326Y-107746535D01*
X37873633Y-107735101D01*
X37838897Y-107716534D01*
X37808452Y-107691548D01*
X37783466Y-107661103D01*
X37764899Y-107626367D01*
X37753465Y-107588674D01*
X37749000Y-107543339D01*
X37749000Y-106456661D01*
X37753465Y-106411326D01*
X37764899Y-106373633D01*
X37783466Y-106338897D01*
X37808452Y-106308452D01*
X37838897Y-106283466D01*
X37873633Y-106264899D01*
X37911326Y-106253465D01*
X37956661Y-106249000D01*
X38793339Y-106249000D01*
X38838674Y-106253465D01*
G37*
G36*
X55200000Y-106050000D02*
G01*
X53300000Y-106050000D01*
X53300000Y-97150000D01*
X55200000Y-97150000D01*
X55200000Y-106050000D01*
G37*
G36*
X43400000Y-106050000D02*
G01*
X41500000Y-106050000D01*
X41500000Y-97150000D01*
X43400000Y-97150000D01*
X43400000Y-106050000D01*
G37*
G36*
X39048470Y-103909188D02*
G01*
X37703553Y-105254105D01*
X36146504Y-103697056D01*
X37491421Y-102352139D01*
X39048470Y-103909188D01*
G37*
G36*
X40604105Y-102353553D02*
G01*
X39259188Y-103698470D01*
X37702139Y-102141421D01*
X39047056Y-100796504D01*
X40604105Y-102353553D01*
G37*
G36*
X36997861Y-101858579D02*
G01*
X35652944Y-103203496D01*
X34095895Y-101646447D01*
X35440812Y-100301530D01*
X36997861Y-101858579D01*
G37*
G36*
X23126000Y-103128000D02*
G01*
X21724000Y-103128000D01*
X21724000Y-101261000D01*
X23126000Y-101261000D01*
X23126000Y-103128000D01*
G37*
G36*
X74976000Y-103128000D02*
G01*
X73574000Y-103128000D01*
X73574000Y-101261000D01*
X74976000Y-101261000D01*
X74976000Y-103128000D01*
G37*
G36*
X38553496Y-100302944D02*
G01*
X37208579Y-101647861D01*
X35651530Y-100090812D01*
X36996447Y-98745895D01*
X38553496Y-100302944D01*
G37*
G36*
X57338674Y-96978465D02*
G01*
X57376367Y-96989899D01*
X57411103Y-97008466D01*
X57441548Y-97033452D01*
X57466534Y-97063897D01*
X57485101Y-97098633D01*
X57496535Y-97136326D01*
X57501000Y-97181661D01*
X57501000Y-98018339D01*
X57496535Y-98063674D01*
X57485101Y-98101367D01*
X57466534Y-98136103D01*
X57441548Y-98166548D01*
X57411103Y-98191534D01*
X57376367Y-98210101D01*
X57338674Y-98221535D01*
X57293339Y-98226000D01*
X56206661Y-98226000D01*
X56161326Y-98221535D01*
X56123633Y-98210101D01*
X56088897Y-98191534D01*
X56058452Y-98166548D01*
X56033466Y-98136103D01*
X56014899Y-98101367D01*
X56003465Y-98063674D01*
X55999000Y-98018339D01*
X55999000Y-97181661D01*
X56003465Y-97136326D01*
X56014899Y-97098633D01*
X56033466Y-97063897D01*
X56058452Y-97033452D01*
X56088897Y-97008466D01*
X56123633Y-96989899D01*
X56161326Y-96978465D01*
X56206661Y-96974000D01*
X57293339Y-96974000D01*
X57338674Y-96978465D01*
G37*
G36*
X38838674Y-96253465D02*
G01*
X38876367Y-96264899D01*
X38911103Y-96283466D01*
X38941548Y-96308452D01*
X38966534Y-96338897D01*
X38985101Y-96373633D01*
X38996535Y-96411326D01*
X39001000Y-96456661D01*
X39001000Y-97543339D01*
X38996535Y-97588674D01*
X38985101Y-97626367D01*
X38966534Y-97661103D01*
X38941548Y-97691548D01*
X38911103Y-97716534D01*
X38876367Y-97735101D01*
X38838674Y-97746535D01*
X38793339Y-97751000D01*
X37956661Y-97751000D01*
X37911326Y-97746535D01*
X37873633Y-97735101D01*
X37838897Y-97716534D01*
X37808452Y-97691548D01*
X37783466Y-97661103D01*
X37764899Y-97626367D01*
X37753465Y-97588674D01*
X37749000Y-97543339D01*
X37749000Y-96456661D01*
X37753465Y-96411326D01*
X37764899Y-96373633D01*
X37783466Y-96338897D01*
X37808452Y-96308452D01*
X37838897Y-96283466D01*
X37873633Y-96264899D01*
X37911326Y-96253465D01*
X37956661Y-96249000D01*
X38793339Y-96249000D01*
X38838674Y-96253465D01*
G37*
G36*
X36788674Y-96253465D02*
G01*
X36826367Y-96264899D01*
X36861103Y-96283466D01*
X36891548Y-96308452D01*
X36916534Y-96338897D01*
X36935101Y-96373633D01*
X36946535Y-96411326D01*
X36951000Y-96456661D01*
X36951000Y-97543339D01*
X36946535Y-97588674D01*
X36935101Y-97626367D01*
X36916534Y-97661103D01*
X36891548Y-97691548D01*
X36861103Y-97716534D01*
X36826367Y-97735101D01*
X36788674Y-97746535D01*
X36743339Y-97751000D01*
X35906661Y-97751000D01*
X35861326Y-97746535D01*
X35823633Y-97735101D01*
X35788897Y-97716534D01*
X35758452Y-97691548D01*
X35733466Y-97661103D01*
X35714899Y-97626367D01*
X35703465Y-97588674D01*
X35699000Y-97543339D01*
X35699000Y-96456661D01*
X35703465Y-96411326D01*
X35714899Y-96373633D01*
X35733466Y-96338897D01*
X35758452Y-96308452D01*
X35788897Y-96283466D01*
X35823633Y-96264899D01*
X35861326Y-96253465D01*
X35906661Y-96249000D01*
X36743339Y-96249000D01*
X36788674Y-96253465D01*
G37*
G36*
X52800000Y-96650000D02*
G01*
X43900000Y-96650000D01*
X43900000Y-94750000D01*
X52800000Y-94750000D01*
X52800000Y-96650000D01*
G37*
G36*
X57338674Y-94928465D02*
G01*
X57376367Y-94939899D01*
X57411103Y-94958466D01*
X57441548Y-94983452D01*
X57466534Y-95013897D01*
X57485101Y-95048633D01*
X57496535Y-95086326D01*
X57501000Y-95131661D01*
X57501000Y-95968339D01*
X57496535Y-96013674D01*
X57485101Y-96051367D01*
X57466534Y-96086103D01*
X57441548Y-96116548D01*
X57411103Y-96141534D01*
X57376367Y-96160101D01*
X57338674Y-96171535D01*
X57293339Y-96176000D01*
X56206661Y-96176000D01*
X56161326Y-96171535D01*
X56123633Y-96160101D01*
X56088897Y-96141534D01*
X56058452Y-96116548D01*
X56033466Y-96086103D01*
X56014899Y-96051367D01*
X56003465Y-96013674D01*
X55999000Y-95968339D01*
X55999000Y-95131661D01*
X56003465Y-95086326D01*
X56014899Y-95048633D01*
X56033466Y-95013897D01*
X56058452Y-94983452D01*
X56088897Y-94958466D01*
X56123633Y-94939899D01*
X56161326Y-94928465D01*
X56206661Y-94924000D01*
X57293339Y-94924000D01*
X57338674Y-94928465D01*
G37*
G36*
X52813674Y-92453465D02*
G01*
X52851367Y-92464899D01*
X52886103Y-92483466D01*
X52916548Y-92508452D01*
X52941534Y-92538897D01*
X52960101Y-92573633D01*
X52971535Y-92611326D01*
X52976000Y-92656661D01*
X52976000Y-93743339D01*
X52971535Y-93788674D01*
X52960101Y-93826367D01*
X52941534Y-93861103D01*
X52916548Y-93891548D01*
X52886103Y-93916534D01*
X52851367Y-93935101D01*
X52813674Y-93946535D01*
X52768339Y-93951000D01*
X51931661Y-93951000D01*
X51886326Y-93946535D01*
X51848633Y-93935101D01*
X51813897Y-93916534D01*
X51783452Y-93891548D01*
X51758466Y-93861103D01*
X51739899Y-93826367D01*
X51728465Y-93788674D01*
X51724000Y-93743339D01*
X51724000Y-92656661D01*
X51728465Y-92611326D01*
X51739899Y-92573633D01*
X51758466Y-92538897D01*
X51783452Y-92508452D01*
X51813897Y-92483466D01*
X51848633Y-92464899D01*
X51886326Y-92453465D01*
X51931661Y-92449000D01*
X52768339Y-92449000D01*
X52813674Y-92453465D01*
G37*
G36*
X42763674Y-92453465D02*
G01*
X42801367Y-92464899D01*
X42836103Y-92483466D01*
X42866548Y-92508452D01*
X42891534Y-92538897D01*
X42910101Y-92573633D01*
X42921535Y-92611326D01*
X42926000Y-92656661D01*
X42926000Y-93743339D01*
X42921535Y-93788674D01*
X42910101Y-93826367D01*
X42891534Y-93861103D01*
X42866548Y-93891548D01*
X42836103Y-93916534D01*
X42801367Y-93935101D01*
X42763674Y-93946535D01*
X42718339Y-93951000D01*
X41881661Y-93951000D01*
X41836326Y-93946535D01*
X41798633Y-93935101D01*
X41763897Y-93916534D01*
X41733452Y-93891548D01*
X41708466Y-93861103D01*
X41689899Y-93826367D01*
X41678465Y-93788674D01*
X41674000Y-93743339D01*
X41674000Y-92656661D01*
X41678465Y-92611326D01*
X41689899Y-92573633D01*
X41708466Y-92538897D01*
X41733452Y-92508452D01*
X41763897Y-92483466D01*
X41798633Y-92464899D01*
X41836326Y-92453465D01*
X41881661Y-92449000D01*
X42718339Y-92449000D01*
X42763674Y-92453465D01*
G37*
G36*
X44813674Y-92453465D02*
G01*
X44851367Y-92464899D01*
X44886103Y-92483466D01*
X44916548Y-92508452D01*
X44941534Y-92538897D01*
X44960101Y-92573633D01*
X44971535Y-92611326D01*
X44976000Y-92656661D01*
X44976000Y-93743339D01*
X44971535Y-93788674D01*
X44960101Y-93826367D01*
X44941534Y-93861103D01*
X44916548Y-93891548D01*
X44886103Y-93916534D01*
X44851367Y-93935101D01*
X44813674Y-93946535D01*
X44768339Y-93951000D01*
X43931661Y-93951000D01*
X43886326Y-93946535D01*
X43848633Y-93935101D01*
X43813897Y-93916534D01*
X43783452Y-93891548D01*
X43758466Y-93861103D01*
X43739899Y-93826367D01*
X43728465Y-93788674D01*
X43724000Y-93743339D01*
X43724000Y-92656661D01*
X43728465Y-92611326D01*
X43739899Y-92573633D01*
X43758466Y-92538897D01*
X43783452Y-92508452D01*
X43813897Y-92483466D01*
X43848633Y-92464899D01*
X43886326Y-92453465D01*
X43931661Y-92449000D01*
X44768339Y-92449000D01*
X44813674Y-92453465D01*
G37*
G36*
X54863674Y-92453465D02*
G01*
X54901367Y-92464899D01*
X54936103Y-92483466D01*
X54966548Y-92508452D01*
X54991534Y-92538897D01*
X55010101Y-92573633D01*
X55021535Y-92611326D01*
X55026000Y-92656661D01*
X55026000Y-93743339D01*
X55021535Y-93788674D01*
X55010101Y-93826367D01*
X54991534Y-93861103D01*
X54966548Y-93891548D01*
X54936103Y-93916534D01*
X54901367Y-93935101D01*
X54863674Y-93946535D01*
X54818339Y-93951000D01*
X53981661Y-93951000D01*
X53936326Y-93946535D01*
X53898633Y-93935101D01*
X53863897Y-93916534D01*
X53833452Y-93891548D01*
X53808466Y-93861103D01*
X53789899Y-93826367D01*
X53778465Y-93788674D01*
X53774000Y-93743339D01*
X53774000Y-92656661D01*
X53778465Y-92611326D01*
X53789899Y-92573633D01*
X53808466Y-92538897D01*
X53833452Y-92508452D01*
X53863897Y-92483466D01*
X53898633Y-92464899D01*
X53936326Y-92453465D01*
X53981661Y-92449000D01*
X54818339Y-92449000D01*
X54863674Y-92453465D01*
G37*
G36*
X65084549Y-89451116D02*
G01*
X65195734Y-89473232D01*
X65405203Y-89559997D01*
X65593720Y-89685960D01*
X65754040Y-89846280D01*
X65880003Y-90034797D01*
X65966768Y-90244266D01*
X66011000Y-90466636D01*
X66011000Y-90693364D01*
X65966768Y-90915734D01*
X65880003Y-91125203D01*
X65754040Y-91313720D01*
X65593720Y-91474040D01*
X65405203Y-91600003D01*
X65195734Y-91686768D01*
X65084549Y-91708884D01*
X64973365Y-91731000D01*
X64746635Y-91731000D01*
X64635451Y-91708884D01*
X64524266Y-91686768D01*
X64314797Y-91600003D01*
X64126280Y-91474040D01*
X63965960Y-91313720D01*
X63839997Y-91125203D01*
X63753232Y-90915734D01*
X63709000Y-90693364D01*
X63709000Y-90466636D01*
X63753232Y-90244266D01*
X63839997Y-90034797D01*
X63965960Y-89846280D01*
X64126280Y-89685960D01*
X64314797Y-89559997D01*
X64524266Y-89473232D01*
X64635451Y-89451116D01*
X64746635Y-89429000D01*
X64973365Y-89429000D01*
X65084549Y-89451116D01*
G37*
G36*
X26984549Y-89451116D02*
G01*
X27095734Y-89473232D01*
X27305203Y-89559997D01*
X27493720Y-89685960D01*
X27654040Y-89846280D01*
X27780003Y-90034797D01*
X27866768Y-90244266D01*
X27911000Y-90466636D01*
X27911000Y-90693364D01*
X27866768Y-90915734D01*
X27780003Y-91125203D01*
X27654040Y-91313720D01*
X27493720Y-91474040D01*
X27305203Y-91600003D01*
X27095734Y-91686768D01*
X26984549Y-91708884D01*
X26873365Y-91731000D01*
X26646635Y-91731000D01*
X26535451Y-91708884D01*
X26424266Y-91686768D01*
X26214797Y-91600003D01*
X26026280Y-91474040D01*
X25865960Y-91313720D01*
X25739997Y-91125203D01*
X25653232Y-90915734D01*
X25609000Y-90693364D01*
X25609000Y-90466636D01*
X25653232Y-90244266D01*
X25739997Y-90034797D01*
X25865960Y-89846280D01*
X26026280Y-89685960D01*
X26214797Y-89559997D01*
X26424266Y-89473232D01*
X26535451Y-89451116D01*
X26646635Y-89429000D01*
X26873365Y-89429000D01*
X26984549Y-89451116D01*
G37*
G36*
X46034549Y-89451116D02*
G01*
X46145734Y-89473232D01*
X46355203Y-89559997D01*
X46543720Y-89685960D01*
X46704040Y-89846280D01*
X46830003Y-90034797D01*
X46916768Y-90244266D01*
X46961000Y-90466636D01*
X46961000Y-90693364D01*
X46916768Y-90915734D01*
X46830003Y-91125203D01*
X46704040Y-91313720D01*
X46543720Y-91474040D01*
X46355203Y-91600003D01*
X46145734Y-91686768D01*
X46034549Y-91708884D01*
X45923365Y-91731000D01*
X45696635Y-91731000D01*
X45585451Y-91708884D01*
X45474266Y-91686768D01*
X45264797Y-91600003D01*
X45076280Y-91474040D01*
X44915960Y-91313720D01*
X44789997Y-91125203D01*
X44703232Y-90915734D01*
X44659000Y-90693364D01*
X44659000Y-90466636D01*
X44703232Y-90244266D01*
X44789997Y-90034797D01*
X44915960Y-89846280D01*
X45076280Y-89685960D01*
X45264797Y-89559997D01*
X45474266Y-89473232D01*
X45585451Y-89451116D01*
X45696635Y-89429000D01*
X45923365Y-89429000D01*
X46034549Y-89451116D01*
G37*
G36*
X33334549Y-86911116D02*
G01*
X33445734Y-86933232D01*
X33655203Y-87019997D01*
X33843720Y-87145960D01*
X34004040Y-87306280D01*
X34011586Y-87317574D01*
X34130004Y-87494799D01*
X34153283Y-87551000D01*
X34216768Y-87704266D01*
X34261000Y-87926636D01*
X34261000Y-88153364D01*
X34216768Y-88375734D01*
X34130003Y-88585203D01*
X34004040Y-88773720D01*
X33843720Y-88934040D01*
X33655203Y-89060003D01*
X33445734Y-89146768D01*
X33334549Y-89168884D01*
X33223365Y-89191000D01*
X32996635Y-89191000D01*
X32885451Y-89168884D01*
X32774266Y-89146768D01*
X32564797Y-89060003D01*
X32376280Y-88934040D01*
X32215960Y-88773720D01*
X32089997Y-88585203D01*
X32003232Y-88375734D01*
X31959000Y-88153364D01*
X31959000Y-87926636D01*
X32003232Y-87704266D01*
X32066717Y-87551000D01*
X32089996Y-87494799D01*
X32208414Y-87317574D01*
X32215960Y-87306280D01*
X32376280Y-87145960D01*
X32564797Y-87019997D01*
X32774266Y-86933232D01*
X32885451Y-86911116D01*
X32996635Y-86889000D01*
X33223365Y-86889000D01*
X33334549Y-86911116D01*
G37*
G36*
X71434549Y-86911116D02*
G01*
X71545734Y-86933232D01*
X71755203Y-87019997D01*
X71943720Y-87145960D01*
X72104040Y-87306280D01*
X72111586Y-87317574D01*
X72230004Y-87494799D01*
X72253283Y-87551000D01*
X72316768Y-87704266D01*
X72361000Y-87926636D01*
X72361000Y-88153364D01*
X72316768Y-88375734D01*
X72230003Y-88585203D01*
X72104040Y-88773720D01*
X71943720Y-88934040D01*
X71755203Y-89060003D01*
X71545734Y-89146768D01*
X71434549Y-89168884D01*
X71323365Y-89191000D01*
X71096635Y-89191000D01*
X70985451Y-89168884D01*
X70874266Y-89146768D01*
X70664797Y-89060003D01*
X70476280Y-88934040D01*
X70315960Y-88773720D01*
X70189997Y-88585203D01*
X70103232Y-88375734D01*
X70059000Y-88153364D01*
X70059000Y-87926636D01*
X70103232Y-87704266D01*
X70166717Y-87551000D01*
X70189996Y-87494799D01*
X70308414Y-87317574D01*
X70315960Y-87306280D01*
X70476280Y-87145960D01*
X70664797Y-87019997D01*
X70874266Y-86933232D01*
X70985451Y-86911116D01*
X71096635Y-86889000D01*
X71323365Y-86889000D01*
X71434549Y-86911116D01*
G37*
G36*
X52384549Y-86911116D02*
G01*
X52495734Y-86933232D01*
X52705203Y-87019997D01*
X52893720Y-87145960D01*
X53054040Y-87306280D01*
X53061586Y-87317574D01*
X53180004Y-87494799D01*
X53203283Y-87551000D01*
X53266768Y-87704266D01*
X53311000Y-87926636D01*
X53311000Y-88153364D01*
X53266768Y-88375734D01*
X53180003Y-88585203D01*
X53054040Y-88773720D01*
X52893720Y-88934040D01*
X52705203Y-89060003D01*
X52495734Y-89146768D01*
X52384549Y-89168884D01*
X52273365Y-89191000D01*
X52046635Y-89191000D01*
X51935451Y-89168884D01*
X51824266Y-89146768D01*
X51614797Y-89060003D01*
X51426280Y-88934040D01*
X51265960Y-88773720D01*
X51139997Y-88585203D01*
X51053232Y-88375734D01*
X51009000Y-88153364D01*
X51009000Y-87926636D01*
X51053232Y-87704266D01*
X51116717Y-87551000D01*
X51139996Y-87494799D01*
X51258414Y-87317574D01*
X51265960Y-87306280D01*
X51426280Y-87145960D01*
X51614797Y-87019997D01*
X51824266Y-86933232D01*
X51935451Y-86911116D01*
X52046635Y-86889000D01*
X52273365Y-86889000D01*
X52384549Y-86911116D01*
G37*
G36*
X48948254Y-83527818D02*
G01*
X49321511Y-83682426D01*
X49321513Y-83682427D01*
X49657436Y-83906884D01*
X49943116Y-84192564D01*
X50167574Y-84528489D01*
X50322182Y-84901746D01*
X50401000Y-85297993D01*
X50401000Y-85702007D01*
X50322182Y-86098254D01*
X50167574Y-86471511D01*
X50167573Y-86471513D01*
X49943116Y-86807436D01*
X49657436Y-87093116D01*
X49321513Y-87317573D01*
X49321512Y-87317574D01*
X49321511Y-87317574D01*
X48948254Y-87472182D01*
X48552007Y-87551000D01*
X48147993Y-87551000D01*
X47751746Y-87472182D01*
X47378489Y-87317574D01*
X47378488Y-87317574D01*
X47378487Y-87317573D01*
X47042564Y-87093116D01*
X46756884Y-86807436D01*
X46532427Y-86471513D01*
X46532426Y-86471511D01*
X46377818Y-86098254D01*
X46299000Y-85702007D01*
X46299000Y-85297993D01*
X46377818Y-84901746D01*
X46532426Y-84528489D01*
X46756884Y-84192564D01*
X47042564Y-83906884D01*
X47378487Y-83682427D01*
X47378489Y-83682426D01*
X47751746Y-83527818D01*
X48147993Y-83449000D01*
X48552007Y-83449000D01*
X48948254Y-83527818D01*
G37*
G36*
X67998254Y-83527818D02*
G01*
X68371511Y-83682426D01*
X68371513Y-83682427D01*
X68707436Y-83906884D01*
X68993116Y-84192564D01*
X69217574Y-84528489D01*
X69372182Y-84901746D01*
X69451000Y-85297993D01*
X69451000Y-85702007D01*
X69372182Y-86098254D01*
X69217574Y-86471511D01*
X69217573Y-86471513D01*
X68993116Y-86807436D01*
X68707436Y-87093116D01*
X68371513Y-87317573D01*
X68371512Y-87317574D01*
X68371511Y-87317574D01*
X67998254Y-87472182D01*
X67602007Y-87551000D01*
X67197993Y-87551000D01*
X66801746Y-87472182D01*
X66428489Y-87317574D01*
X66428488Y-87317574D01*
X66428487Y-87317573D01*
X66092564Y-87093116D01*
X65806884Y-86807436D01*
X65582427Y-86471513D01*
X65582426Y-86471511D01*
X65427818Y-86098254D01*
X65349000Y-85702007D01*
X65349000Y-85297993D01*
X65427818Y-84901746D01*
X65582426Y-84528489D01*
X65806884Y-84192564D01*
X66092564Y-83906884D01*
X66428487Y-83682427D01*
X66428489Y-83682426D01*
X66801746Y-83527818D01*
X67197993Y-83449000D01*
X67602007Y-83449000D01*
X67998254Y-83527818D01*
G37*
G36*
X29898254Y-83527818D02*
G01*
X30271511Y-83682426D01*
X30271513Y-83682427D01*
X30607436Y-83906884D01*
X30893116Y-84192564D01*
X31117574Y-84528489D01*
X31272182Y-84901746D01*
X31351000Y-85297993D01*
X31351000Y-85702007D01*
X31272182Y-86098254D01*
X31117574Y-86471511D01*
X31117573Y-86471513D01*
X30893116Y-86807436D01*
X30607436Y-87093116D01*
X30271513Y-87317573D01*
X30271512Y-87317574D01*
X30271511Y-87317574D01*
X29898254Y-87472182D01*
X29502007Y-87551000D01*
X29097993Y-87551000D01*
X28701746Y-87472182D01*
X28328489Y-87317574D01*
X28328488Y-87317574D01*
X28328487Y-87317573D01*
X27992564Y-87093116D01*
X27706884Y-86807436D01*
X27482427Y-86471513D01*
X27482426Y-86471511D01*
X27327818Y-86098254D01*
X27249000Y-85702007D01*
X27249000Y-85297993D01*
X27327818Y-84901746D01*
X27482426Y-84528489D01*
X27706884Y-84192564D01*
X27992564Y-83906884D01*
X28328487Y-83682427D01*
X28328489Y-83682426D01*
X28701746Y-83527818D01*
X29097993Y-83449000D01*
X29502007Y-83449000D01*
X29898254Y-83527818D01*
G37*
G36*
X57213500Y-87501000D02*
G01*
X56011500Y-87501000D01*
X56011500Y-86299000D01*
X57213500Y-86299000D01*
X57213500Y-87501000D01*
G37*
G36*
X76263500Y-87501000D02*
G01*
X75061500Y-87501000D01*
X75061500Y-86299000D01*
X76263500Y-86299000D01*
X76263500Y-87501000D01*
G37*
G36*
X38163500Y-87501000D02*
G01*
X36961500Y-87501000D01*
X36961500Y-86299000D01*
X38163500Y-86299000D01*
X38163500Y-87501000D01*
G37*
G36*
X24333512Y-84603927D02*
G01*
X24482812Y-84633624D01*
X24646784Y-84701544D01*
X24794354Y-84800147D01*
X24919853Y-84925646D01*
X25018456Y-85073216D01*
X25086376Y-85237188D01*
X25121000Y-85411259D01*
X25121000Y-85588741D01*
X25086376Y-85762812D01*
X25018456Y-85926784D01*
X24919853Y-86074354D01*
X24794354Y-86199853D01*
X24646784Y-86298456D01*
X24482812Y-86366376D01*
X24333512Y-86396073D01*
X24308742Y-86401000D01*
X24131258Y-86401000D01*
X24106488Y-86396073D01*
X23957188Y-86366376D01*
X23793216Y-86298456D01*
X23645646Y-86199853D01*
X23520147Y-86074354D01*
X23421544Y-85926784D01*
X23353624Y-85762812D01*
X23319000Y-85588741D01*
X23319000Y-85411259D01*
X23353624Y-85237188D01*
X23421544Y-85073216D01*
X23520147Y-84925646D01*
X23645646Y-84800147D01*
X23793216Y-84701544D01*
X23957188Y-84633624D01*
X24106488Y-84603927D01*
X24131258Y-84599000D01*
X24308742Y-84599000D01*
X24333512Y-84603927D01*
G37*
G36*
X34493512Y-84603927D02*
G01*
X34642812Y-84633624D01*
X34806784Y-84701544D01*
X34954354Y-84800147D01*
X35079853Y-84925646D01*
X35178456Y-85073216D01*
X35246376Y-85237188D01*
X35281000Y-85411259D01*
X35281000Y-85588741D01*
X35246376Y-85762812D01*
X35178456Y-85926784D01*
X35079853Y-86074354D01*
X34954354Y-86199853D01*
X34806784Y-86298456D01*
X34642812Y-86366376D01*
X34493512Y-86396073D01*
X34468742Y-86401000D01*
X34291258Y-86401000D01*
X34266488Y-86396073D01*
X34117188Y-86366376D01*
X33953216Y-86298456D01*
X33805646Y-86199853D01*
X33680147Y-86074354D01*
X33581544Y-85926784D01*
X33513624Y-85762812D01*
X33479000Y-85588741D01*
X33479000Y-85411259D01*
X33513624Y-85237188D01*
X33581544Y-85073216D01*
X33680147Y-84925646D01*
X33805646Y-84800147D01*
X33953216Y-84701544D01*
X34117188Y-84633624D01*
X34266488Y-84603927D01*
X34291258Y-84599000D01*
X34468742Y-84599000D01*
X34493512Y-84603927D01*
G37*
G36*
X43383512Y-84603927D02*
G01*
X43532812Y-84633624D01*
X43696784Y-84701544D01*
X43844354Y-84800147D01*
X43969853Y-84925646D01*
X44068456Y-85073216D01*
X44136376Y-85237188D01*
X44171000Y-85411259D01*
X44171000Y-85588741D01*
X44136376Y-85762812D01*
X44068456Y-85926784D01*
X43969853Y-86074354D01*
X43844354Y-86199853D01*
X43696784Y-86298456D01*
X43532812Y-86366376D01*
X43383512Y-86396073D01*
X43358742Y-86401000D01*
X43181258Y-86401000D01*
X43156488Y-86396073D01*
X43007188Y-86366376D01*
X42843216Y-86298456D01*
X42695646Y-86199853D01*
X42570147Y-86074354D01*
X42471544Y-85926784D01*
X42403624Y-85762812D01*
X42369000Y-85588741D01*
X42369000Y-85411259D01*
X42403624Y-85237188D01*
X42471544Y-85073216D01*
X42570147Y-84925646D01*
X42695646Y-84800147D01*
X42843216Y-84701544D01*
X43007188Y-84633624D01*
X43156488Y-84603927D01*
X43181258Y-84599000D01*
X43358742Y-84599000D01*
X43383512Y-84603927D01*
G37*
G36*
X53543512Y-84603927D02*
G01*
X53692812Y-84633624D01*
X53856784Y-84701544D01*
X54004354Y-84800147D01*
X54129853Y-84925646D01*
X54228456Y-85073216D01*
X54296376Y-85237188D01*
X54331000Y-85411259D01*
X54331000Y-85588741D01*
X54296376Y-85762812D01*
X54228456Y-85926784D01*
X54129853Y-86074354D01*
X54004354Y-86199853D01*
X53856784Y-86298456D01*
X53692812Y-86366376D01*
X53543512Y-86396073D01*
X53518742Y-86401000D01*
X53341258Y-86401000D01*
X53316488Y-86396073D01*
X53167188Y-86366376D01*
X53003216Y-86298456D01*
X52855646Y-86199853D01*
X52730147Y-86074354D01*
X52631544Y-85926784D01*
X52563624Y-85762812D01*
X52529000Y-85588741D01*
X52529000Y-85411259D01*
X52563624Y-85237188D01*
X52631544Y-85073216D01*
X52730147Y-84925646D01*
X52855646Y-84800147D01*
X53003216Y-84701544D01*
X53167188Y-84633624D01*
X53316488Y-84603927D01*
X53341258Y-84599000D01*
X53518742Y-84599000D01*
X53543512Y-84603927D01*
G37*
G36*
X62433512Y-84603927D02*
G01*
X62582812Y-84633624D01*
X62746784Y-84701544D01*
X62894354Y-84800147D01*
X63019853Y-84925646D01*
X63118456Y-85073216D01*
X63186376Y-85237188D01*
X63221000Y-85411259D01*
X63221000Y-85588741D01*
X63186376Y-85762812D01*
X63118456Y-85926784D01*
X63019853Y-86074354D01*
X62894354Y-86199853D01*
X62746784Y-86298456D01*
X62582812Y-86366376D01*
X62433512Y-86396073D01*
X62408742Y-86401000D01*
X62231258Y-86401000D01*
X62206488Y-86396073D01*
X62057188Y-86366376D01*
X61893216Y-86298456D01*
X61745646Y-86199853D01*
X61620147Y-86074354D01*
X61521544Y-85926784D01*
X61453624Y-85762812D01*
X61419000Y-85588741D01*
X61419000Y-85411259D01*
X61453624Y-85237188D01*
X61521544Y-85073216D01*
X61620147Y-84925646D01*
X61745646Y-84800147D01*
X61893216Y-84701544D01*
X62057188Y-84633624D01*
X62206488Y-84603927D01*
X62231258Y-84599000D01*
X62408742Y-84599000D01*
X62433512Y-84603927D01*
G37*
G36*
X72593512Y-84603927D02*
G01*
X72742812Y-84633624D01*
X72906784Y-84701544D01*
X73054354Y-84800147D01*
X73179853Y-84925646D01*
X73278456Y-85073216D01*
X73346376Y-85237188D01*
X73381000Y-85411259D01*
X73381000Y-85588741D01*
X73346376Y-85762812D01*
X73278456Y-85926784D01*
X73179853Y-86074354D01*
X73054354Y-86199853D01*
X72906784Y-86298456D01*
X72742812Y-86366376D01*
X72593512Y-86396073D01*
X72568742Y-86401000D01*
X72391258Y-86401000D01*
X72366488Y-86396073D01*
X72217188Y-86366376D01*
X72053216Y-86298456D01*
X71905646Y-86199853D01*
X71780147Y-86074354D01*
X71681544Y-85926784D01*
X71613624Y-85762812D01*
X71579000Y-85588741D01*
X71579000Y-85411259D01*
X71613624Y-85237188D01*
X71681544Y-85073216D01*
X71780147Y-84925646D01*
X71905646Y-84800147D01*
X72053216Y-84701544D01*
X72217188Y-84633624D01*
X72366488Y-84603927D01*
X72391258Y-84599000D01*
X72568742Y-84599000D01*
X72593512Y-84603927D01*
G37*
G36*
X57213500Y-84701000D02*
G01*
X56011500Y-84701000D01*
X56011500Y-83499000D01*
X57213500Y-83499000D01*
X57213500Y-84701000D01*
G37*
G36*
X38163500Y-84701000D02*
G01*
X36961500Y-84701000D01*
X36961500Y-83499000D01*
X38163500Y-83499000D01*
X38163500Y-84701000D01*
G37*
G36*
X76263500Y-84701000D02*
G01*
X75061500Y-84701000D01*
X75061500Y-83499000D01*
X76263500Y-83499000D01*
X76263500Y-84701000D01*
G37*
G36*
X26984549Y-70401116D02*
G01*
X27095734Y-70423232D01*
X27305203Y-70509997D01*
X27493720Y-70635960D01*
X27654040Y-70796280D01*
X27780003Y-70984797D01*
X27866768Y-71194266D01*
X27911000Y-71416636D01*
X27911000Y-71643364D01*
X27866768Y-71865734D01*
X27780003Y-72075203D01*
X27654040Y-72263720D01*
X27493720Y-72424040D01*
X27305203Y-72550003D01*
X27095734Y-72636768D01*
X26984549Y-72658884D01*
X26873365Y-72681000D01*
X26646635Y-72681000D01*
X26535451Y-72658884D01*
X26424266Y-72636768D01*
X26214797Y-72550003D01*
X26026280Y-72424040D01*
X25865960Y-72263720D01*
X25739997Y-72075203D01*
X25653232Y-71865734D01*
X25609000Y-71643364D01*
X25609000Y-71416636D01*
X25653232Y-71194266D01*
X25739997Y-70984797D01*
X25865960Y-70796280D01*
X26026280Y-70635960D01*
X26214797Y-70509997D01*
X26424266Y-70423232D01*
X26535451Y-70401116D01*
X26646635Y-70379000D01*
X26873365Y-70379000D01*
X26984549Y-70401116D01*
G37*
G36*
X65084549Y-70401116D02*
G01*
X65195734Y-70423232D01*
X65405203Y-70509997D01*
X65593720Y-70635960D01*
X65754040Y-70796280D01*
X65880003Y-70984797D01*
X65966768Y-71194266D01*
X66011000Y-71416636D01*
X66011000Y-71643364D01*
X65966768Y-71865734D01*
X65880003Y-72075203D01*
X65754040Y-72263720D01*
X65593720Y-72424040D01*
X65405203Y-72550003D01*
X65195734Y-72636768D01*
X65084549Y-72658884D01*
X64973365Y-72681000D01*
X64746635Y-72681000D01*
X64635451Y-72658884D01*
X64524266Y-72636768D01*
X64314797Y-72550003D01*
X64126280Y-72424040D01*
X63965960Y-72263720D01*
X63839997Y-72075203D01*
X63753232Y-71865734D01*
X63709000Y-71643364D01*
X63709000Y-71416636D01*
X63753232Y-71194266D01*
X63839997Y-70984797D01*
X63965960Y-70796280D01*
X64126280Y-70635960D01*
X64314797Y-70509997D01*
X64524266Y-70423232D01*
X64635451Y-70401116D01*
X64746635Y-70379000D01*
X64973365Y-70379000D01*
X65084549Y-70401116D01*
G37*
G36*
X46034549Y-70401116D02*
G01*
X46145734Y-70423232D01*
X46355203Y-70509997D01*
X46543720Y-70635960D01*
X46704040Y-70796280D01*
X46830003Y-70984797D01*
X46916768Y-71194266D01*
X46961000Y-71416636D01*
X46961000Y-71643364D01*
X46916768Y-71865734D01*
X46830003Y-72075203D01*
X46704040Y-72263720D01*
X46543720Y-72424040D01*
X46355203Y-72550003D01*
X46145734Y-72636768D01*
X46034549Y-72658884D01*
X45923365Y-72681000D01*
X45696635Y-72681000D01*
X45585451Y-72658884D01*
X45474266Y-72636768D01*
X45264797Y-72550003D01*
X45076280Y-72424040D01*
X44915960Y-72263720D01*
X44789997Y-72075203D01*
X44703232Y-71865734D01*
X44659000Y-71643364D01*
X44659000Y-71416636D01*
X44703232Y-71194266D01*
X44789997Y-70984797D01*
X44915960Y-70796280D01*
X45076280Y-70635960D01*
X45264797Y-70509997D01*
X45474266Y-70423232D01*
X45585451Y-70401116D01*
X45696635Y-70379000D01*
X45923365Y-70379000D01*
X46034549Y-70401116D01*
G37*
G36*
X52384549Y-67861116D02*
G01*
X52495734Y-67883232D01*
X52705203Y-67969997D01*
X52893720Y-68095960D01*
X53054040Y-68256280D01*
X53061586Y-68267574D01*
X53180004Y-68444799D01*
X53203283Y-68501000D01*
X53266768Y-68654266D01*
X53311000Y-68876636D01*
X53311000Y-69103364D01*
X53266768Y-69325734D01*
X53180003Y-69535203D01*
X53054040Y-69723720D01*
X52893720Y-69884040D01*
X52705203Y-70010003D01*
X52495734Y-70096768D01*
X52384549Y-70118884D01*
X52273365Y-70141000D01*
X52046635Y-70141000D01*
X51935451Y-70118884D01*
X51824266Y-70096768D01*
X51614797Y-70010003D01*
X51426280Y-69884040D01*
X51265960Y-69723720D01*
X51139997Y-69535203D01*
X51053232Y-69325734D01*
X51009000Y-69103364D01*
X51009000Y-68876636D01*
X51053232Y-68654266D01*
X51116717Y-68501000D01*
X51139996Y-68444799D01*
X51258414Y-68267574D01*
X51265960Y-68256280D01*
X51426280Y-68095960D01*
X51614797Y-67969997D01*
X51824266Y-67883232D01*
X51935451Y-67861116D01*
X52046635Y-67839000D01*
X52273365Y-67839000D01*
X52384549Y-67861116D01*
G37*
G36*
X71434549Y-67861116D02*
G01*
X71545734Y-67883232D01*
X71755203Y-67969997D01*
X71943720Y-68095960D01*
X72104040Y-68256280D01*
X72111586Y-68267574D01*
X72230004Y-68444799D01*
X72253283Y-68501000D01*
X72316768Y-68654266D01*
X72361000Y-68876636D01*
X72361000Y-69103364D01*
X72316768Y-69325734D01*
X72230003Y-69535203D01*
X72104040Y-69723720D01*
X71943720Y-69884040D01*
X71755203Y-70010003D01*
X71545734Y-70096768D01*
X71434549Y-70118884D01*
X71323365Y-70141000D01*
X71096635Y-70141000D01*
X70985451Y-70118884D01*
X70874266Y-70096768D01*
X70664797Y-70010003D01*
X70476280Y-69884040D01*
X70315960Y-69723720D01*
X70189997Y-69535203D01*
X70103232Y-69325734D01*
X70059000Y-69103364D01*
X70059000Y-68876636D01*
X70103232Y-68654266D01*
X70166717Y-68501000D01*
X70189996Y-68444799D01*
X70308414Y-68267574D01*
X70315960Y-68256280D01*
X70476280Y-68095960D01*
X70664797Y-67969997D01*
X70874266Y-67883232D01*
X70985451Y-67861116D01*
X71096635Y-67839000D01*
X71323365Y-67839000D01*
X71434549Y-67861116D01*
G37*
G36*
X33334549Y-67861116D02*
G01*
X33445734Y-67883232D01*
X33655203Y-67969997D01*
X33843720Y-68095960D01*
X34004040Y-68256280D01*
X34011586Y-68267574D01*
X34130004Y-68444799D01*
X34153283Y-68501000D01*
X34216768Y-68654266D01*
X34261000Y-68876636D01*
X34261000Y-69103364D01*
X34216768Y-69325734D01*
X34130003Y-69535203D01*
X34004040Y-69723720D01*
X33843720Y-69884040D01*
X33655203Y-70010003D01*
X33445734Y-70096768D01*
X33334549Y-70118884D01*
X33223365Y-70141000D01*
X32996635Y-70141000D01*
X32885451Y-70118884D01*
X32774266Y-70096768D01*
X32564797Y-70010003D01*
X32376280Y-69884040D01*
X32215960Y-69723720D01*
X32089997Y-69535203D01*
X32003232Y-69325734D01*
X31959000Y-69103364D01*
X31959000Y-68876636D01*
X32003232Y-68654266D01*
X32066717Y-68501000D01*
X32089996Y-68444799D01*
X32208414Y-68267574D01*
X32215960Y-68256280D01*
X32376280Y-68095960D01*
X32564797Y-67969997D01*
X32774266Y-67883232D01*
X32885451Y-67861116D01*
X32996635Y-67839000D01*
X33223365Y-67839000D01*
X33334549Y-67861116D01*
G37*
G36*
X67998254Y-64477818D02*
G01*
X68371511Y-64632426D01*
X68371513Y-64632427D01*
X68707436Y-64856884D01*
X68993116Y-65142564D01*
X69217574Y-65478489D01*
X69372182Y-65851746D01*
X69451000Y-66247993D01*
X69451000Y-66652007D01*
X69372182Y-67048254D01*
X69217574Y-67421511D01*
X69217573Y-67421513D01*
X68993116Y-67757436D01*
X68707436Y-68043116D01*
X68371513Y-68267573D01*
X68371512Y-68267574D01*
X68371511Y-68267574D01*
X67998254Y-68422182D01*
X67602007Y-68501000D01*
X67197993Y-68501000D01*
X66801746Y-68422182D01*
X66428489Y-68267574D01*
X66428488Y-68267574D01*
X66428487Y-68267573D01*
X66092564Y-68043116D01*
X65806884Y-67757436D01*
X65582427Y-67421513D01*
X65582426Y-67421511D01*
X65427818Y-67048254D01*
X65349000Y-66652007D01*
X65349000Y-66247993D01*
X65427818Y-65851746D01*
X65582426Y-65478489D01*
X65806884Y-65142564D01*
X66092564Y-64856884D01*
X66428487Y-64632427D01*
X66428489Y-64632426D01*
X66801746Y-64477818D01*
X67197993Y-64399000D01*
X67602007Y-64399000D01*
X67998254Y-64477818D01*
G37*
G36*
X48948254Y-64477818D02*
G01*
X49321511Y-64632426D01*
X49321513Y-64632427D01*
X49657436Y-64856884D01*
X49943116Y-65142564D01*
X50167574Y-65478489D01*
X50322182Y-65851746D01*
X50401000Y-66247993D01*
X50401000Y-66652007D01*
X50322182Y-67048254D01*
X50167574Y-67421511D01*
X50167573Y-67421513D01*
X49943116Y-67757436D01*
X49657436Y-68043116D01*
X49321513Y-68267573D01*
X49321512Y-68267574D01*
X49321511Y-68267574D01*
X48948254Y-68422182D01*
X48552007Y-68501000D01*
X48147993Y-68501000D01*
X47751746Y-68422182D01*
X47378489Y-68267574D01*
X47378488Y-68267574D01*
X47378487Y-68267573D01*
X47042564Y-68043116D01*
X46756884Y-67757436D01*
X46532427Y-67421513D01*
X46532426Y-67421511D01*
X46377818Y-67048254D01*
X46299000Y-66652007D01*
X46299000Y-66247993D01*
X46377818Y-65851746D01*
X46532426Y-65478489D01*
X46756884Y-65142564D01*
X47042564Y-64856884D01*
X47378487Y-64632427D01*
X47378489Y-64632426D01*
X47751746Y-64477818D01*
X48147993Y-64399000D01*
X48552007Y-64399000D01*
X48948254Y-64477818D01*
G37*
G36*
X29898254Y-64477818D02*
G01*
X30271511Y-64632426D01*
X30271513Y-64632427D01*
X30607436Y-64856884D01*
X30893116Y-65142564D01*
X31117574Y-65478489D01*
X31272182Y-65851746D01*
X31351000Y-66247993D01*
X31351000Y-66652007D01*
X31272182Y-67048254D01*
X31117574Y-67421511D01*
X31117573Y-67421513D01*
X30893116Y-67757436D01*
X30607436Y-68043116D01*
X30271513Y-68267573D01*
X30271512Y-68267574D01*
X30271511Y-68267574D01*
X29898254Y-68422182D01*
X29502007Y-68501000D01*
X29097993Y-68501000D01*
X28701746Y-68422182D01*
X28328489Y-68267574D01*
X28328488Y-68267574D01*
X28328487Y-68267573D01*
X27992564Y-68043116D01*
X27706884Y-67757436D01*
X27482427Y-67421513D01*
X27482426Y-67421511D01*
X27327818Y-67048254D01*
X27249000Y-66652007D01*
X27249000Y-66247993D01*
X27327818Y-65851746D01*
X27482426Y-65478489D01*
X27706884Y-65142564D01*
X27992564Y-64856884D01*
X28328487Y-64632427D01*
X28328489Y-64632426D01*
X28701746Y-64477818D01*
X29097993Y-64399000D01*
X29502007Y-64399000D01*
X29898254Y-64477818D01*
G37*
G36*
X76263500Y-68451000D02*
G01*
X75061500Y-68451000D01*
X75061500Y-67249000D01*
X76263500Y-67249000D01*
X76263500Y-68451000D01*
G37*
G36*
X57213500Y-68451000D02*
G01*
X56011500Y-68451000D01*
X56011500Y-67249000D01*
X57213500Y-67249000D01*
X57213500Y-68451000D01*
G37*
G36*
X38163500Y-68451000D02*
G01*
X36961500Y-68451000D01*
X36961500Y-67249000D01*
X38163500Y-67249000D01*
X38163500Y-68451000D01*
G37*
G36*
X34493512Y-65553927D02*
G01*
X34642812Y-65583624D01*
X34806784Y-65651544D01*
X34954354Y-65750147D01*
X35079853Y-65875646D01*
X35178456Y-66023216D01*
X35246376Y-66187188D01*
X35281000Y-66361259D01*
X35281000Y-66538741D01*
X35246376Y-66712812D01*
X35178456Y-66876784D01*
X35079853Y-67024354D01*
X34954354Y-67149853D01*
X34806784Y-67248456D01*
X34642812Y-67316376D01*
X34493512Y-67346073D01*
X34468742Y-67351000D01*
X34291258Y-67351000D01*
X34266488Y-67346073D01*
X34117188Y-67316376D01*
X33953216Y-67248456D01*
X33805646Y-67149853D01*
X33680147Y-67024354D01*
X33581544Y-66876784D01*
X33513624Y-66712812D01*
X33479000Y-66538741D01*
X33479000Y-66361259D01*
X33513624Y-66187188D01*
X33581544Y-66023216D01*
X33680147Y-65875646D01*
X33805646Y-65750147D01*
X33953216Y-65651544D01*
X34117188Y-65583624D01*
X34266488Y-65553927D01*
X34291258Y-65549000D01*
X34468742Y-65549000D01*
X34493512Y-65553927D01*
G37*
G36*
X24333512Y-65553927D02*
G01*
X24482812Y-65583624D01*
X24646784Y-65651544D01*
X24794354Y-65750147D01*
X24919853Y-65875646D01*
X25018456Y-66023216D01*
X25086376Y-66187188D01*
X25121000Y-66361259D01*
X25121000Y-66538741D01*
X25086376Y-66712812D01*
X25018456Y-66876784D01*
X24919853Y-67024354D01*
X24794354Y-67149853D01*
X24646784Y-67248456D01*
X24482812Y-67316376D01*
X24333512Y-67346073D01*
X24308742Y-67351000D01*
X24131258Y-67351000D01*
X24106488Y-67346073D01*
X23957188Y-67316376D01*
X23793216Y-67248456D01*
X23645646Y-67149853D01*
X23520147Y-67024354D01*
X23421544Y-66876784D01*
X23353624Y-66712812D01*
X23319000Y-66538741D01*
X23319000Y-66361259D01*
X23353624Y-66187188D01*
X23421544Y-66023216D01*
X23520147Y-65875646D01*
X23645646Y-65750147D01*
X23793216Y-65651544D01*
X23957188Y-65583624D01*
X24106488Y-65553927D01*
X24131258Y-65549000D01*
X24308742Y-65549000D01*
X24333512Y-65553927D01*
G37*
G36*
X43383512Y-65553927D02*
G01*
X43532812Y-65583624D01*
X43696784Y-65651544D01*
X43844354Y-65750147D01*
X43969853Y-65875646D01*
X44068456Y-66023216D01*
X44136376Y-66187188D01*
X44171000Y-66361259D01*
X44171000Y-66538741D01*
X44136376Y-66712812D01*
X44068456Y-66876784D01*
X43969853Y-67024354D01*
X43844354Y-67149853D01*
X43696784Y-67248456D01*
X43532812Y-67316376D01*
X43383512Y-67346073D01*
X43358742Y-67351000D01*
X43181258Y-67351000D01*
X43156488Y-67346073D01*
X43007188Y-67316376D01*
X42843216Y-67248456D01*
X42695646Y-67149853D01*
X42570147Y-67024354D01*
X42471544Y-66876784D01*
X42403624Y-66712812D01*
X42369000Y-66538741D01*
X42369000Y-66361259D01*
X42403624Y-66187188D01*
X42471544Y-66023216D01*
X42570147Y-65875646D01*
X42695646Y-65750147D01*
X42843216Y-65651544D01*
X43007188Y-65583624D01*
X43156488Y-65553927D01*
X43181258Y-65549000D01*
X43358742Y-65549000D01*
X43383512Y-65553927D01*
G37*
G36*
X72593512Y-65553927D02*
G01*
X72742812Y-65583624D01*
X72906784Y-65651544D01*
X73054354Y-65750147D01*
X73179853Y-65875646D01*
X73278456Y-66023216D01*
X73346376Y-66187188D01*
X73381000Y-66361259D01*
X73381000Y-66538741D01*
X73346376Y-66712812D01*
X73278456Y-66876784D01*
X73179853Y-67024354D01*
X73054354Y-67149853D01*
X72906784Y-67248456D01*
X72742812Y-67316376D01*
X72593512Y-67346073D01*
X72568742Y-67351000D01*
X72391258Y-67351000D01*
X72366488Y-67346073D01*
X72217188Y-67316376D01*
X72053216Y-67248456D01*
X71905646Y-67149853D01*
X71780147Y-67024354D01*
X71681544Y-66876784D01*
X71613624Y-66712812D01*
X71579000Y-66538741D01*
X71579000Y-66361259D01*
X71613624Y-66187188D01*
X71681544Y-66023216D01*
X71780147Y-65875646D01*
X71905646Y-65750147D01*
X72053216Y-65651544D01*
X72217188Y-65583624D01*
X72366488Y-65553927D01*
X72391258Y-65549000D01*
X72568742Y-65549000D01*
X72593512Y-65553927D01*
G37*
G36*
X53543512Y-65553927D02*
G01*
X53692812Y-65583624D01*
X53856784Y-65651544D01*
X54004354Y-65750147D01*
X54129853Y-65875646D01*
X54228456Y-66023216D01*
X54296376Y-66187188D01*
X54331000Y-66361259D01*
X54331000Y-66538741D01*
X54296376Y-66712812D01*
X54228456Y-66876784D01*
X54129853Y-67024354D01*
X54004354Y-67149853D01*
X53856784Y-67248456D01*
X53692812Y-67316376D01*
X53543512Y-67346073D01*
X53518742Y-67351000D01*
X53341258Y-67351000D01*
X53316488Y-67346073D01*
X53167188Y-67316376D01*
X53003216Y-67248456D01*
X52855646Y-67149853D01*
X52730147Y-67024354D01*
X52631544Y-66876784D01*
X52563624Y-66712812D01*
X52529000Y-66538741D01*
X52529000Y-66361259D01*
X52563624Y-66187188D01*
X52631544Y-66023216D01*
X52730147Y-65875646D01*
X52855646Y-65750147D01*
X53003216Y-65651544D01*
X53167188Y-65583624D01*
X53316488Y-65553927D01*
X53341258Y-65549000D01*
X53518742Y-65549000D01*
X53543512Y-65553927D01*
G37*
G36*
X62433512Y-65553927D02*
G01*
X62582812Y-65583624D01*
X62746784Y-65651544D01*
X62894354Y-65750147D01*
X63019853Y-65875646D01*
X63118456Y-66023216D01*
X63186376Y-66187188D01*
X63221000Y-66361259D01*
X63221000Y-66538741D01*
X63186376Y-66712812D01*
X63118456Y-66876784D01*
X63019853Y-67024354D01*
X62894354Y-67149853D01*
X62746784Y-67248456D01*
X62582812Y-67316376D01*
X62433512Y-67346073D01*
X62408742Y-67351000D01*
X62231258Y-67351000D01*
X62206488Y-67346073D01*
X62057188Y-67316376D01*
X61893216Y-67248456D01*
X61745646Y-67149853D01*
X61620147Y-67024354D01*
X61521544Y-66876784D01*
X61453624Y-66712812D01*
X61419000Y-66538741D01*
X61419000Y-66361259D01*
X61453624Y-66187188D01*
X61521544Y-66023216D01*
X61620147Y-65875646D01*
X61745646Y-65750147D01*
X61893216Y-65651544D01*
X62057188Y-65583624D01*
X62206488Y-65553927D01*
X62231258Y-65549000D01*
X62408742Y-65549000D01*
X62433512Y-65553927D01*
G37*
G36*
X76263500Y-65651000D02*
G01*
X75061500Y-65651000D01*
X75061500Y-64449000D01*
X76263500Y-64449000D01*
X76263500Y-65651000D01*
G37*
G36*
X57213500Y-65651000D02*
G01*
X56011500Y-65651000D01*
X56011500Y-64449000D01*
X57213500Y-64449000D01*
X57213500Y-65651000D01*
G37*
G36*
X38163500Y-65651000D02*
G01*
X36961500Y-65651000D01*
X36961500Y-64449000D01*
X38163500Y-64449000D01*
X38163500Y-65651000D01*
G37*
G36*
X37076000Y-59076000D02*
G01*
X35474000Y-59076000D01*
X35474000Y-57974000D01*
X37076000Y-57974000D01*
X37076000Y-59076000D01*
G37*
G36*
X61226000Y-59076000D02*
G01*
X59624000Y-59076000D01*
X59624000Y-57974000D01*
X61226000Y-57974000D01*
X61226000Y-59076000D01*
G37*
G36*
X32176000Y-59076000D02*
G01*
X30574000Y-59076000D01*
X30574000Y-57974000D01*
X32176000Y-57974000D01*
X32176000Y-59076000D01*
G37*
G36*
X66126000Y-59076000D02*
G01*
X64524000Y-59076000D01*
X64524000Y-57974000D01*
X66126000Y-57974000D01*
X66126000Y-59076000D01*
G37*
G36*
X37076000Y-55876000D02*
G01*
X35474000Y-55876000D01*
X35474000Y-54774000D01*
X37076000Y-54774000D01*
X37076000Y-55876000D01*
G37*
G36*
X32176000Y-55876000D02*
G01*
X30574000Y-55876000D01*
X30574000Y-54774000D01*
X32176000Y-54774000D01*
X32176000Y-55876000D01*
G37*
G36*
X66126000Y-55876000D02*
G01*
X64524000Y-55876000D01*
X64524000Y-54774000D01*
X66126000Y-54774000D01*
X66126000Y-55876000D01*
G37*
G36*
X61226000Y-55876000D02*
G01*
X59624000Y-55876000D01*
X59624000Y-54774000D01*
X61226000Y-54774000D01*
X61226000Y-55876000D01*
G37*
G36*
X45213512Y-53516927D02*
G01*
X45362812Y-53546624D01*
X45526784Y-53614544D01*
X45674354Y-53713147D01*
X45799853Y-53838646D01*
X45898456Y-53986216D01*
X45966376Y-54150188D01*
X46001000Y-54324259D01*
X46001000Y-54501741D01*
X45966376Y-54675812D01*
X45898456Y-54839784D01*
X45799853Y-54987354D01*
X45674354Y-55112853D01*
X45526784Y-55211456D01*
X45362812Y-55279376D01*
X45213512Y-55309073D01*
X45188742Y-55314000D01*
X45011258Y-55314000D01*
X44986488Y-55309073D01*
X44837188Y-55279376D01*
X44673216Y-55211456D01*
X44525646Y-55112853D01*
X44400147Y-54987354D01*
X44301544Y-54839784D01*
X44233624Y-54675812D01*
X44199000Y-54501741D01*
X44199000Y-54324259D01*
X44233624Y-54150188D01*
X44301544Y-53986216D01*
X44400147Y-53838646D01*
X44525646Y-53713147D01*
X44673216Y-53614544D01*
X44837188Y-53546624D01*
X44986488Y-53516927D01*
X45011258Y-53512000D01*
X45188742Y-53512000D01*
X45213512Y-53516927D01*
G37*
G36*
X51713512Y-53516927D02*
G01*
X51862812Y-53546624D01*
X52026784Y-53614544D01*
X52174354Y-53713147D01*
X52299853Y-53838646D01*
X52398456Y-53986216D01*
X52466376Y-54150188D01*
X52501000Y-54324259D01*
X52501000Y-54501741D01*
X52466376Y-54675812D01*
X52398456Y-54839784D01*
X52299853Y-54987354D01*
X52174354Y-55112853D01*
X52026784Y-55211456D01*
X51862812Y-55279376D01*
X51713512Y-55309073D01*
X51688742Y-55314000D01*
X51511258Y-55314000D01*
X51486488Y-55309073D01*
X51337188Y-55279376D01*
X51173216Y-55211456D01*
X51025646Y-55112853D01*
X50900147Y-54987354D01*
X50801544Y-54839784D01*
X50733624Y-54675812D01*
X50699000Y-54501741D01*
X50699000Y-54324259D01*
X50733624Y-54150188D01*
X50801544Y-53986216D01*
X50900147Y-53838646D01*
X51025646Y-53713147D01*
X51173216Y-53614544D01*
X51337188Y-53546624D01*
X51486488Y-53516927D01*
X51511258Y-53512000D01*
X51688742Y-53512000D01*
X51713512Y-53516927D01*
G37*
G36*
X35313674Y-52368465D02*
G01*
X35351367Y-52379899D01*
X35386103Y-52398466D01*
X35416548Y-52423452D01*
X35441534Y-52453897D01*
X35460101Y-52488633D01*
X35471535Y-52526326D01*
X35476000Y-52571661D01*
X35476000Y-53658339D01*
X35471535Y-53703674D01*
X35460101Y-53741367D01*
X35441534Y-53776103D01*
X35416548Y-53806548D01*
X35386103Y-53831534D01*
X35351367Y-53850101D01*
X35313674Y-53861535D01*
X35268339Y-53866000D01*
X34431661Y-53866000D01*
X34386326Y-53861535D01*
X34348633Y-53850101D01*
X34313897Y-53831534D01*
X34283452Y-53806548D01*
X34258466Y-53776103D01*
X34239899Y-53741367D01*
X34228465Y-53703674D01*
X34224000Y-53658339D01*
X34224000Y-52571661D01*
X34228465Y-52526326D01*
X34239899Y-52488633D01*
X34258466Y-52453897D01*
X34283452Y-52423452D01*
X34313897Y-52398466D01*
X34348633Y-52379899D01*
X34386326Y-52368465D01*
X34431661Y-52364000D01*
X35268339Y-52364000D01*
X35313674Y-52368465D01*
G37*
G36*
X64363674Y-52368465D02*
G01*
X64401367Y-52379899D01*
X64436103Y-52398466D01*
X64466548Y-52423452D01*
X64491534Y-52453897D01*
X64510101Y-52488633D01*
X64521535Y-52526326D01*
X64526000Y-52571661D01*
X64526000Y-53658339D01*
X64521535Y-53703674D01*
X64510101Y-53741367D01*
X64491534Y-53776103D01*
X64466548Y-53806548D01*
X64436103Y-53831534D01*
X64401367Y-53850101D01*
X64363674Y-53861535D01*
X64318339Y-53866000D01*
X63481661Y-53866000D01*
X63436326Y-53861535D01*
X63398633Y-53850101D01*
X63363897Y-53831534D01*
X63333452Y-53806548D01*
X63308466Y-53776103D01*
X63289899Y-53741367D01*
X63278465Y-53703674D01*
X63274000Y-53658339D01*
X63274000Y-52571661D01*
X63278465Y-52526326D01*
X63289899Y-52488633D01*
X63308466Y-52453897D01*
X63333452Y-52423452D01*
X63363897Y-52398466D01*
X63398633Y-52379899D01*
X63436326Y-52368465D01*
X63481661Y-52364000D01*
X64318339Y-52364000D01*
X64363674Y-52368465D01*
G37*
G36*
X62313674Y-52368465D02*
G01*
X62351367Y-52379899D01*
X62386103Y-52398466D01*
X62416548Y-52423452D01*
X62441534Y-52453897D01*
X62460101Y-52488633D01*
X62471535Y-52526326D01*
X62476000Y-52571661D01*
X62476000Y-53658339D01*
X62471535Y-53703674D01*
X62460101Y-53741367D01*
X62441534Y-53776103D01*
X62416548Y-53806548D01*
X62386103Y-53831534D01*
X62351367Y-53850101D01*
X62313674Y-53861535D01*
X62268339Y-53866000D01*
X61431661Y-53866000D01*
X61386326Y-53861535D01*
X61348633Y-53850101D01*
X61313897Y-53831534D01*
X61283452Y-53806548D01*
X61258466Y-53776103D01*
X61239899Y-53741367D01*
X61228465Y-53703674D01*
X61224000Y-53658339D01*
X61224000Y-52571661D01*
X61228465Y-52526326D01*
X61239899Y-52488633D01*
X61258466Y-52453897D01*
X61283452Y-52423452D01*
X61313897Y-52398466D01*
X61348633Y-52379899D01*
X61386326Y-52368465D01*
X61431661Y-52364000D01*
X62268339Y-52364000D01*
X62313674Y-52368465D01*
G37*
G36*
X33263674Y-52368465D02*
G01*
X33301367Y-52379899D01*
X33336103Y-52398466D01*
X33366548Y-52423452D01*
X33391534Y-52453897D01*
X33410101Y-52488633D01*
X33421535Y-52526326D01*
X33426000Y-52571661D01*
X33426000Y-53658339D01*
X33421535Y-53703674D01*
X33410101Y-53741367D01*
X33391534Y-53776103D01*
X33366548Y-53806548D01*
X33336103Y-53831534D01*
X33301367Y-53850101D01*
X33263674Y-53861535D01*
X33218339Y-53866000D01*
X32381661Y-53866000D01*
X32336326Y-53861535D01*
X32298633Y-53850101D01*
X32263897Y-53831534D01*
X32233452Y-53806548D01*
X32208466Y-53776103D01*
X32189899Y-53741367D01*
X32178465Y-53703674D01*
X32174000Y-53658339D01*
X32174000Y-52571661D01*
X32178465Y-52526326D01*
X32189899Y-52488633D01*
X32208466Y-52453897D01*
X32233452Y-52423452D01*
X32263897Y-52398466D01*
X32298633Y-52379899D01*
X32336326Y-52368465D01*
X32381661Y-52364000D01*
X33218339Y-52364000D01*
X33263674Y-52368465D01*
G37*
G36*
X42588674Y-51341465D02*
G01*
X42626367Y-51352899D01*
X42661103Y-51371466D01*
X42691548Y-51396452D01*
X42716534Y-51426897D01*
X42735101Y-51461633D01*
X42746535Y-51499326D01*
X42751000Y-51544661D01*
X42751000Y-52381339D01*
X42746535Y-52426674D01*
X42735101Y-52464367D01*
X42716534Y-52499103D01*
X42691548Y-52529548D01*
X42661103Y-52554534D01*
X42626367Y-52573101D01*
X42588674Y-52584535D01*
X42543339Y-52589000D01*
X41456661Y-52589000D01*
X41411326Y-52584535D01*
X41373633Y-52573101D01*
X41338897Y-52554534D01*
X41308452Y-52529548D01*
X41283466Y-52499103D01*
X41264899Y-52464367D01*
X41253465Y-52426674D01*
X41249000Y-52381339D01*
X41249000Y-51544661D01*
X41253465Y-51499326D01*
X41264899Y-51461633D01*
X41283466Y-51426897D01*
X41308452Y-51396452D01*
X41338897Y-51371466D01*
X41373633Y-51352899D01*
X41411326Y-51341465D01*
X41456661Y-51337000D01*
X42543339Y-51337000D01*
X42588674Y-51341465D01*
G37*
G36*
X51713512Y-49016927D02*
G01*
X51862812Y-49046624D01*
X52026784Y-49114544D01*
X52174354Y-49213147D01*
X52299853Y-49338646D01*
X52398456Y-49486216D01*
X52466376Y-49650188D01*
X52501000Y-49824259D01*
X52501000Y-50001741D01*
X52466376Y-50175812D01*
X52398456Y-50339784D01*
X52299853Y-50487354D01*
X52174354Y-50612853D01*
X52026784Y-50711456D01*
X51862812Y-50779376D01*
X51713512Y-50809073D01*
X51688742Y-50814000D01*
X51511258Y-50814000D01*
X51486488Y-50809073D01*
X51337188Y-50779376D01*
X51173216Y-50711456D01*
X51025646Y-50612853D01*
X50900147Y-50487354D01*
X50801544Y-50339784D01*
X50733624Y-50175812D01*
X50699000Y-50001741D01*
X50699000Y-49824259D01*
X50733624Y-49650188D01*
X50801544Y-49486216D01*
X50900147Y-49338646D01*
X51025646Y-49213147D01*
X51173216Y-49114544D01*
X51337188Y-49046624D01*
X51486488Y-49016927D01*
X51511258Y-49012000D01*
X51688742Y-49012000D01*
X51713512Y-49016927D01*
G37*
G36*
X45213512Y-49016927D02*
G01*
X45362812Y-49046624D01*
X45526784Y-49114544D01*
X45674354Y-49213147D01*
X45799853Y-49338646D01*
X45898456Y-49486216D01*
X45966376Y-49650188D01*
X46001000Y-49824259D01*
X46001000Y-50001741D01*
X45966376Y-50175812D01*
X45898456Y-50339784D01*
X45799853Y-50487354D01*
X45674354Y-50612853D01*
X45526784Y-50711456D01*
X45362812Y-50779376D01*
X45213512Y-50809073D01*
X45188742Y-50814000D01*
X45011258Y-50814000D01*
X44986488Y-50809073D01*
X44837188Y-50779376D01*
X44673216Y-50711456D01*
X44525646Y-50612853D01*
X44400147Y-50487354D01*
X44301544Y-50339784D01*
X44233624Y-50175812D01*
X44199000Y-50001741D01*
X44199000Y-49824259D01*
X44233624Y-49650188D01*
X44301544Y-49486216D01*
X44400147Y-49338646D01*
X44525646Y-49213147D01*
X44673216Y-49114544D01*
X44837188Y-49046624D01*
X44986488Y-49016927D01*
X45011258Y-49012000D01*
X45188742Y-49012000D01*
X45213512Y-49016927D01*
G37*
G36*
X42588674Y-49291465D02*
G01*
X42626367Y-49302899D01*
X42661103Y-49321466D01*
X42691548Y-49346452D01*
X42716534Y-49376897D01*
X42735101Y-49411633D01*
X42746535Y-49449326D01*
X42751000Y-49494661D01*
X42751000Y-50331339D01*
X42746535Y-50376674D01*
X42735101Y-50414367D01*
X42716534Y-50449103D01*
X42691548Y-50479548D01*
X42661103Y-50504534D01*
X42626367Y-50523101D01*
X42588674Y-50534535D01*
X42543339Y-50539000D01*
X41456661Y-50539000D01*
X41411326Y-50534535D01*
X41373633Y-50523101D01*
X41338897Y-50504534D01*
X41308452Y-50479548D01*
X41283466Y-50449103D01*
X41264899Y-50414367D01*
X41253465Y-50376674D01*
X41249000Y-50331339D01*
X41249000Y-49494661D01*
X41253465Y-49449326D01*
X41264899Y-49411633D01*
X41283466Y-49376897D01*
X41308452Y-49346452D01*
X41338897Y-49321466D01*
X41373633Y-49302899D01*
X41411326Y-49291465D01*
X41456661Y-49287000D01*
X42543339Y-49287000D01*
X42588674Y-49291465D01*
G37*
G36*
X26984549Y-41826116D02*
G01*
X27095734Y-41848232D01*
X27305203Y-41934997D01*
X27493720Y-42060960D01*
X27654040Y-42221280D01*
X27780003Y-42409797D01*
X27866768Y-42619266D01*
X27911000Y-42841636D01*
X27911000Y-43068364D01*
X27866768Y-43290734D01*
X27780003Y-43500203D01*
X27654040Y-43688720D01*
X27493720Y-43849040D01*
X27305203Y-43975003D01*
X27095734Y-44061768D01*
X26984549Y-44083884D01*
X26873365Y-44106000D01*
X26646635Y-44106000D01*
X26535451Y-44083884D01*
X26424266Y-44061768D01*
X26214797Y-43975003D01*
X26026280Y-43849040D01*
X25865960Y-43688720D01*
X25739997Y-43500203D01*
X25653232Y-43290734D01*
X25609000Y-43068364D01*
X25609000Y-42841636D01*
X25653232Y-42619266D01*
X25739997Y-42409797D01*
X25865960Y-42221280D01*
X26026280Y-42060960D01*
X26214797Y-41934997D01*
X26424266Y-41848232D01*
X26535451Y-41826116D01*
X26646635Y-41804000D01*
X26873365Y-41804000D01*
X26984549Y-41826116D01*
G37*
G36*
X46034549Y-41826116D02*
G01*
X46145734Y-41848232D01*
X46355203Y-41934997D01*
X46543720Y-42060960D01*
X46704040Y-42221280D01*
X46830003Y-42409797D01*
X46916768Y-42619266D01*
X46961000Y-42841636D01*
X46961000Y-43068364D01*
X46916768Y-43290734D01*
X46830003Y-43500203D01*
X46704040Y-43688720D01*
X46543720Y-43849040D01*
X46355203Y-43975003D01*
X46145734Y-44061768D01*
X46034549Y-44083884D01*
X45923365Y-44106000D01*
X45696635Y-44106000D01*
X45585451Y-44083884D01*
X45474266Y-44061768D01*
X45264797Y-43975003D01*
X45076280Y-43849040D01*
X44915960Y-43688720D01*
X44789997Y-43500203D01*
X44703232Y-43290734D01*
X44659000Y-43068364D01*
X44659000Y-42841636D01*
X44703232Y-42619266D01*
X44789997Y-42409797D01*
X44915960Y-42221280D01*
X45076280Y-42060960D01*
X45264797Y-41934997D01*
X45474266Y-41848232D01*
X45585451Y-41826116D01*
X45696635Y-41804000D01*
X45923365Y-41804000D01*
X46034549Y-41826116D01*
G37*
G36*
X65084549Y-41826116D02*
G01*
X65195734Y-41848232D01*
X65405203Y-41934997D01*
X65593720Y-42060960D01*
X65754040Y-42221280D01*
X65880003Y-42409797D01*
X65966768Y-42619266D01*
X66011000Y-42841636D01*
X66011000Y-43068364D01*
X65966768Y-43290734D01*
X65880003Y-43500203D01*
X65754040Y-43688720D01*
X65593720Y-43849040D01*
X65405203Y-43975003D01*
X65195734Y-44061768D01*
X65084549Y-44083884D01*
X64973365Y-44106000D01*
X64746635Y-44106000D01*
X64635451Y-44083884D01*
X64524266Y-44061768D01*
X64314797Y-43975003D01*
X64126280Y-43849040D01*
X63965960Y-43688720D01*
X63839997Y-43500203D01*
X63753232Y-43290734D01*
X63709000Y-43068364D01*
X63709000Y-42841636D01*
X63753232Y-42619266D01*
X63839997Y-42409797D01*
X63965960Y-42221280D01*
X64126280Y-42060960D01*
X64314797Y-41934997D01*
X64524266Y-41848232D01*
X64635451Y-41826116D01*
X64746635Y-41804000D01*
X64973365Y-41804000D01*
X65084549Y-41826116D01*
G37*
G36*
X52384549Y-39286116D02*
G01*
X52495734Y-39308232D01*
X52705203Y-39394997D01*
X52893720Y-39520960D01*
X53054040Y-39681280D01*
X53061586Y-39692574D01*
X53180004Y-39869799D01*
X53203283Y-39926000D01*
X53266768Y-40079266D01*
X53311000Y-40301636D01*
X53311000Y-40528364D01*
X53266768Y-40750734D01*
X53180003Y-40960203D01*
X53054040Y-41148720D01*
X52893720Y-41309040D01*
X52705203Y-41435003D01*
X52495734Y-41521768D01*
X52384549Y-41543884D01*
X52273365Y-41566000D01*
X52046635Y-41566000D01*
X51935451Y-41543884D01*
X51824266Y-41521768D01*
X51614797Y-41435003D01*
X51426280Y-41309040D01*
X51265960Y-41148720D01*
X51139997Y-40960203D01*
X51053232Y-40750734D01*
X51009000Y-40528364D01*
X51009000Y-40301636D01*
X51053232Y-40079266D01*
X51116717Y-39926000D01*
X51139996Y-39869799D01*
X51258414Y-39692574D01*
X51265960Y-39681280D01*
X51426280Y-39520960D01*
X51614797Y-39394997D01*
X51824266Y-39308232D01*
X51935451Y-39286116D01*
X52046635Y-39264000D01*
X52273365Y-39264000D01*
X52384549Y-39286116D01*
G37*
G36*
X33334549Y-39286116D02*
G01*
X33445734Y-39308232D01*
X33655203Y-39394997D01*
X33843720Y-39520960D01*
X34004040Y-39681280D01*
X34011586Y-39692574D01*
X34130004Y-39869799D01*
X34153283Y-39926000D01*
X34216768Y-40079266D01*
X34261000Y-40301636D01*
X34261000Y-40528364D01*
X34216768Y-40750734D01*
X34130003Y-40960203D01*
X34004040Y-41148720D01*
X33843720Y-41309040D01*
X33655203Y-41435003D01*
X33445734Y-41521768D01*
X33334549Y-41543884D01*
X33223365Y-41566000D01*
X32996635Y-41566000D01*
X32885451Y-41543884D01*
X32774266Y-41521768D01*
X32564797Y-41435003D01*
X32376280Y-41309040D01*
X32215960Y-41148720D01*
X32089997Y-40960203D01*
X32003232Y-40750734D01*
X31959000Y-40528364D01*
X31959000Y-40301636D01*
X32003232Y-40079266D01*
X32066717Y-39926000D01*
X32089996Y-39869799D01*
X32208414Y-39692574D01*
X32215960Y-39681280D01*
X32376280Y-39520960D01*
X32564797Y-39394997D01*
X32774266Y-39308232D01*
X32885451Y-39286116D01*
X32996635Y-39264000D01*
X33223365Y-39264000D01*
X33334549Y-39286116D01*
G37*
G36*
X71434549Y-39286116D02*
G01*
X71545734Y-39308232D01*
X71755203Y-39394997D01*
X71943720Y-39520960D01*
X72104040Y-39681280D01*
X72111586Y-39692574D01*
X72230004Y-39869799D01*
X72253283Y-39926000D01*
X72316768Y-40079266D01*
X72361000Y-40301636D01*
X72361000Y-40528364D01*
X72316768Y-40750734D01*
X72230003Y-40960203D01*
X72104040Y-41148720D01*
X71943720Y-41309040D01*
X71755203Y-41435003D01*
X71545734Y-41521768D01*
X71434549Y-41543884D01*
X71323365Y-41566000D01*
X71096635Y-41566000D01*
X70985451Y-41543884D01*
X70874266Y-41521768D01*
X70664797Y-41435003D01*
X70476280Y-41309040D01*
X70315960Y-41148720D01*
X70189997Y-40960203D01*
X70103232Y-40750734D01*
X70059000Y-40528364D01*
X70059000Y-40301636D01*
X70103232Y-40079266D01*
X70166717Y-39926000D01*
X70189996Y-39869799D01*
X70308414Y-39692574D01*
X70315960Y-39681280D01*
X70476280Y-39520960D01*
X70664797Y-39394997D01*
X70874266Y-39308232D01*
X70985451Y-39286116D01*
X71096635Y-39264000D01*
X71323365Y-39264000D01*
X71434549Y-39286116D01*
G37*
G36*
X29898254Y-35902818D02*
G01*
X30271511Y-36057426D01*
X30271513Y-36057427D01*
X30607436Y-36281884D01*
X30893116Y-36567564D01*
X31117574Y-36903489D01*
X31272182Y-37276746D01*
X31351000Y-37672993D01*
X31351000Y-38077007D01*
X31272182Y-38473254D01*
X31117574Y-38846511D01*
X31117573Y-38846513D01*
X30893116Y-39182436D01*
X30607436Y-39468116D01*
X30271513Y-39692573D01*
X30271512Y-39692574D01*
X30271511Y-39692574D01*
X29898254Y-39847182D01*
X29502007Y-39926000D01*
X29097993Y-39926000D01*
X28701746Y-39847182D01*
X28328489Y-39692574D01*
X28328488Y-39692574D01*
X28328487Y-39692573D01*
X27992564Y-39468116D01*
X27706884Y-39182436D01*
X27482427Y-38846513D01*
X27482426Y-38846511D01*
X27327818Y-38473254D01*
X27249000Y-38077007D01*
X27249000Y-37672993D01*
X27327818Y-37276746D01*
X27482426Y-36903489D01*
X27706884Y-36567564D01*
X27992564Y-36281884D01*
X28328487Y-36057427D01*
X28328489Y-36057426D01*
X28701746Y-35902818D01*
X29097993Y-35824000D01*
X29502007Y-35824000D01*
X29898254Y-35902818D01*
G37*
G36*
X48948254Y-35902818D02*
G01*
X49321511Y-36057426D01*
X49321513Y-36057427D01*
X49657436Y-36281884D01*
X49943116Y-36567564D01*
X50167574Y-36903489D01*
X50322182Y-37276746D01*
X50401000Y-37672993D01*
X50401000Y-38077007D01*
X50322182Y-38473254D01*
X50167574Y-38846511D01*
X50167573Y-38846513D01*
X49943116Y-39182436D01*
X49657436Y-39468116D01*
X49321513Y-39692573D01*
X49321512Y-39692574D01*
X49321511Y-39692574D01*
X48948254Y-39847182D01*
X48552007Y-39926000D01*
X48147993Y-39926000D01*
X47751746Y-39847182D01*
X47378489Y-39692574D01*
X47378488Y-39692574D01*
X47378487Y-39692573D01*
X47042564Y-39468116D01*
X46756884Y-39182436D01*
X46532427Y-38846513D01*
X46532426Y-38846511D01*
X46377818Y-38473254D01*
X46299000Y-38077007D01*
X46299000Y-37672993D01*
X46377818Y-37276746D01*
X46532426Y-36903489D01*
X46756884Y-36567564D01*
X47042564Y-36281884D01*
X47378487Y-36057427D01*
X47378489Y-36057426D01*
X47751746Y-35902818D01*
X48147993Y-35824000D01*
X48552007Y-35824000D01*
X48948254Y-35902818D01*
G37*
G36*
X67998254Y-35902818D02*
G01*
X68371511Y-36057426D01*
X68371513Y-36057427D01*
X68707436Y-36281884D01*
X68993116Y-36567564D01*
X69217574Y-36903489D01*
X69372182Y-37276746D01*
X69451000Y-37672993D01*
X69451000Y-38077007D01*
X69372182Y-38473254D01*
X69217574Y-38846511D01*
X69217573Y-38846513D01*
X68993116Y-39182436D01*
X68707436Y-39468116D01*
X68371513Y-39692573D01*
X68371512Y-39692574D01*
X68371511Y-39692574D01*
X67998254Y-39847182D01*
X67602007Y-39926000D01*
X67197993Y-39926000D01*
X66801746Y-39847182D01*
X66428489Y-39692574D01*
X66428488Y-39692574D01*
X66428487Y-39692573D01*
X66092564Y-39468116D01*
X65806884Y-39182436D01*
X65582427Y-38846513D01*
X65582426Y-38846511D01*
X65427818Y-38473254D01*
X65349000Y-38077007D01*
X65349000Y-37672993D01*
X65427818Y-37276746D01*
X65582426Y-36903489D01*
X65806884Y-36567564D01*
X66092564Y-36281884D01*
X66428487Y-36057427D01*
X66428489Y-36057426D01*
X66801746Y-35902818D01*
X67197993Y-35824000D01*
X67602007Y-35824000D01*
X67998254Y-35902818D01*
G37*
G36*
X38163500Y-39876000D02*
G01*
X36961500Y-39876000D01*
X36961500Y-38674000D01*
X38163500Y-38674000D01*
X38163500Y-39876000D01*
G37*
G36*
X76263500Y-39876000D02*
G01*
X75061500Y-39876000D01*
X75061500Y-38674000D01*
X76263500Y-38674000D01*
X76263500Y-39876000D01*
G37*
G36*
X57213500Y-39876000D02*
G01*
X56011500Y-39876000D01*
X56011500Y-38674000D01*
X57213500Y-38674000D01*
X57213500Y-39876000D01*
G37*
G36*
X43383512Y-36978927D02*
G01*
X43532812Y-37008624D01*
X43696784Y-37076544D01*
X43844354Y-37175147D01*
X43969853Y-37300646D01*
X44068456Y-37448216D01*
X44136376Y-37612188D01*
X44171000Y-37786259D01*
X44171000Y-37963741D01*
X44136376Y-38137812D01*
X44068456Y-38301784D01*
X43969853Y-38449354D01*
X43844354Y-38574853D01*
X43696784Y-38673456D01*
X43532812Y-38741376D01*
X43383512Y-38771073D01*
X43358742Y-38776000D01*
X43181258Y-38776000D01*
X43156488Y-38771073D01*
X43007188Y-38741376D01*
X42843216Y-38673456D01*
X42695646Y-38574853D01*
X42570147Y-38449354D01*
X42471544Y-38301784D01*
X42403624Y-38137812D01*
X42369000Y-37963741D01*
X42369000Y-37786259D01*
X42403624Y-37612188D01*
X42471544Y-37448216D01*
X42570147Y-37300646D01*
X42695646Y-37175147D01*
X42843216Y-37076544D01*
X43007188Y-37008624D01*
X43156488Y-36978927D01*
X43181258Y-36974000D01*
X43358742Y-36974000D01*
X43383512Y-36978927D01*
G37*
G36*
X53543512Y-36978927D02*
G01*
X53692812Y-37008624D01*
X53856784Y-37076544D01*
X54004354Y-37175147D01*
X54129853Y-37300646D01*
X54228456Y-37448216D01*
X54296376Y-37612188D01*
X54331000Y-37786259D01*
X54331000Y-37963741D01*
X54296376Y-38137812D01*
X54228456Y-38301784D01*
X54129853Y-38449354D01*
X54004354Y-38574853D01*
X53856784Y-38673456D01*
X53692812Y-38741376D01*
X53543512Y-38771073D01*
X53518742Y-38776000D01*
X53341258Y-38776000D01*
X53316488Y-38771073D01*
X53167188Y-38741376D01*
X53003216Y-38673456D01*
X52855646Y-38574853D01*
X52730147Y-38449354D01*
X52631544Y-38301784D01*
X52563624Y-38137812D01*
X52529000Y-37963741D01*
X52529000Y-37786259D01*
X52563624Y-37612188D01*
X52631544Y-37448216D01*
X52730147Y-37300646D01*
X52855646Y-37175147D01*
X53003216Y-37076544D01*
X53167188Y-37008624D01*
X53316488Y-36978927D01*
X53341258Y-36974000D01*
X53518742Y-36974000D01*
X53543512Y-36978927D01*
G37*
G36*
X62433512Y-36978927D02*
G01*
X62582812Y-37008624D01*
X62746784Y-37076544D01*
X62894354Y-37175147D01*
X63019853Y-37300646D01*
X63118456Y-37448216D01*
X63186376Y-37612188D01*
X63221000Y-37786259D01*
X63221000Y-37963741D01*
X63186376Y-38137812D01*
X63118456Y-38301784D01*
X63019853Y-38449354D01*
X62894354Y-38574853D01*
X62746784Y-38673456D01*
X62582812Y-38741376D01*
X62433512Y-38771073D01*
X62408742Y-38776000D01*
X62231258Y-38776000D01*
X62206488Y-38771073D01*
X62057188Y-38741376D01*
X61893216Y-38673456D01*
X61745646Y-38574853D01*
X61620147Y-38449354D01*
X61521544Y-38301784D01*
X61453624Y-38137812D01*
X61419000Y-37963741D01*
X61419000Y-37786259D01*
X61453624Y-37612188D01*
X61521544Y-37448216D01*
X61620147Y-37300646D01*
X61745646Y-37175147D01*
X61893216Y-37076544D01*
X62057188Y-37008624D01*
X62206488Y-36978927D01*
X62231258Y-36974000D01*
X62408742Y-36974000D01*
X62433512Y-36978927D01*
G37*
G36*
X72593512Y-36978927D02*
G01*
X72742812Y-37008624D01*
X72906784Y-37076544D01*
X73054354Y-37175147D01*
X73179853Y-37300646D01*
X73278456Y-37448216D01*
X73346376Y-37612188D01*
X73381000Y-37786259D01*
X73381000Y-37963741D01*
X73346376Y-38137812D01*
X73278456Y-38301784D01*
X73179853Y-38449354D01*
X73054354Y-38574853D01*
X72906784Y-38673456D01*
X72742812Y-38741376D01*
X72593512Y-38771073D01*
X72568742Y-38776000D01*
X72391258Y-38776000D01*
X72366488Y-38771073D01*
X72217188Y-38741376D01*
X72053216Y-38673456D01*
X71905646Y-38574853D01*
X71780147Y-38449354D01*
X71681544Y-38301784D01*
X71613624Y-38137812D01*
X71579000Y-37963741D01*
X71579000Y-37786259D01*
X71613624Y-37612188D01*
X71681544Y-37448216D01*
X71780147Y-37300646D01*
X71905646Y-37175147D01*
X72053216Y-37076544D01*
X72217188Y-37008624D01*
X72366488Y-36978927D01*
X72391258Y-36974000D01*
X72568742Y-36974000D01*
X72593512Y-36978927D01*
G37*
G36*
X24333512Y-36978927D02*
G01*
X24482812Y-37008624D01*
X24646784Y-37076544D01*
X24794354Y-37175147D01*
X24919853Y-37300646D01*
X25018456Y-37448216D01*
X25086376Y-37612188D01*
X25121000Y-37786259D01*
X25121000Y-37963741D01*
X25086376Y-38137812D01*
X25018456Y-38301784D01*
X24919853Y-38449354D01*
X24794354Y-38574853D01*
X24646784Y-38673456D01*
X24482812Y-38741376D01*
X24333512Y-38771073D01*
X24308742Y-38776000D01*
X24131258Y-38776000D01*
X24106488Y-38771073D01*
X23957188Y-38741376D01*
X23793216Y-38673456D01*
X23645646Y-38574853D01*
X23520147Y-38449354D01*
X23421544Y-38301784D01*
X23353624Y-38137812D01*
X23319000Y-37963741D01*
X23319000Y-37786259D01*
X23353624Y-37612188D01*
X23421544Y-37448216D01*
X23520147Y-37300646D01*
X23645646Y-37175147D01*
X23793216Y-37076544D01*
X23957188Y-37008624D01*
X24106488Y-36978927D01*
X24131258Y-36974000D01*
X24308742Y-36974000D01*
X24333512Y-36978927D01*
G37*
G36*
X34493512Y-36978927D02*
G01*
X34642812Y-37008624D01*
X34806784Y-37076544D01*
X34954354Y-37175147D01*
X35079853Y-37300646D01*
X35178456Y-37448216D01*
X35246376Y-37612188D01*
X35281000Y-37786259D01*
X35281000Y-37963741D01*
X35246376Y-38137812D01*
X35178456Y-38301784D01*
X35079853Y-38449354D01*
X34954354Y-38574853D01*
X34806784Y-38673456D01*
X34642812Y-38741376D01*
X34493512Y-38771073D01*
X34468742Y-38776000D01*
X34291258Y-38776000D01*
X34266488Y-38771073D01*
X34117188Y-38741376D01*
X33953216Y-38673456D01*
X33805646Y-38574853D01*
X33680147Y-38449354D01*
X33581544Y-38301784D01*
X33513624Y-38137812D01*
X33479000Y-37963741D01*
X33479000Y-37786259D01*
X33513624Y-37612188D01*
X33581544Y-37448216D01*
X33680147Y-37300646D01*
X33805646Y-37175147D01*
X33953216Y-37076544D01*
X34117188Y-37008624D01*
X34266488Y-36978927D01*
X34291258Y-36974000D01*
X34468742Y-36974000D01*
X34493512Y-36978927D01*
G37*
G36*
X57213500Y-37076000D02*
G01*
X56011500Y-37076000D01*
X56011500Y-35874000D01*
X57213500Y-35874000D01*
X57213500Y-37076000D01*
G37*
G36*
X76263500Y-37076000D02*
G01*
X75061500Y-37076000D01*
X75061500Y-35874000D01*
X76263500Y-35874000D01*
X76263500Y-37076000D01*
G37*
G36*
X38163500Y-37076000D02*
G01*
X36961500Y-37076000D01*
X36961500Y-35874000D01*
X38163500Y-35874000D01*
X38163500Y-37076000D01*
G37*
G36*
X72373903Y-26093213D02*
G01*
X72596177Y-26137426D01*
X73014932Y-26310880D01*
X73391802Y-26562696D01*
X73712304Y-26883198D01*
X73964120Y-27260068D01*
X74112411Y-27618075D01*
X74137574Y-27678824D01*
X74226000Y-28123370D01*
X74226000Y-28576630D01*
X74215328Y-28630282D01*
X74137574Y-29021177D01*
X73964120Y-29439932D01*
X73712304Y-29816802D01*
X73391802Y-30137304D01*
X73014932Y-30389120D01*
X72596177Y-30562574D01*
X72373903Y-30606787D01*
X72151630Y-30651000D01*
X71698370Y-30651000D01*
X71476097Y-30606787D01*
X71253823Y-30562574D01*
X70835068Y-30389120D01*
X70458198Y-30137304D01*
X70137696Y-29816802D01*
X69885880Y-29439932D01*
X69712426Y-29021177D01*
X69634672Y-28630282D01*
X69624000Y-28576630D01*
X69624000Y-28123370D01*
X69712426Y-27678824D01*
X69737589Y-27618075D01*
X69885880Y-27260068D01*
X70137696Y-26883198D01*
X70458198Y-26562696D01*
X70835068Y-26310880D01*
X71253823Y-26137426D01*
X71476097Y-26093213D01*
X71698370Y-26049000D01*
X72151630Y-26049000D01*
X72373903Y-26093213D01*
G37*
G36*
X25223903Y-26093213D02*
G01*
X25446177Y-26137426D01*
X25864932Y-26310880D01*
X26241802Y-26562696D01*
X26562304Y-26883198D01*
X26814120Y-27260068D01*
X26962411Y-27618075D01*
X26987574Y-27678824D01*
X27076000Y-28123370D01*
X27076000Y-28576630D01*
X27065328Y-28630282D01*
X26987574Y-29021177D01*
X26814120Y-29439932D01*
X26562304Y-29816802D01*
X26241802Y-30137304D01*
X25864932Y-30389120D01*
X25446177Y-30562574D01*
X25223903Y-30606787D01*
X25001630Y-30651000D01*
X24548370Y-30651000D01*
X24326097Y-30606787D01*
X24103823Y-30562574D01*
X23685068Y-30389120D01*
X23308198Y-30137304D01*
X22987696Y-29816802D01*
X22735880Y-29439932D01*
X22562426Y-29021177D01*
X22484672Y-28630282D01*
X22474000Y-28576630D01*
X22474000Y-28123370D01*
X22562426Y-27678824D01*
X22587589Y-27618075D01*
X22735880Y-27260068D01*
X22987696Y-26883198D01*
X23308198Y-26562696D01*
X23685068Y-26310880D01*
X24103823Y-26137426D01*
X24326097Y-26093213D01*
X24548370Y-26049000D01*
X25001630Y-26049000D01*
X25223903Y-26093213D01*
G37*
G36*
X52748674Y-27403465D02*
G01*
X52786367Y-27414899D01*
X52821103Y-27433466D01*
X52851548Y-27458452D01*
X52876534Y-27488897D01*
X52895101Y-27523633D01*
X52906535Y-27561326D01*
X52911000Y-27606661D01*
X52911000Y-28443339D01*
X52906535Y-28488674D01*
X52895101Y-28526367D01*
X52876534Y-28561103D01*
X52851548Y-28591548D01*
X52821103Y-28616534D01*
X52786367Y-28635101D01*
X52748674Y-28646535D01*
X52703339Y-28651000D01*
X51616661Y-28651000D01*
X51571326Y-28646535D01*
X51533633Y-28635101D01*
X51498897Y-28616534D01*
X51468452Y-28591548D01*
X51443466Y-28561103D01*
X51424899Y-28526367D01*
X51413465Y-28488674D01*
X51409000Y-28443339D01*
X51409000Y-27606661D01*
X51413465Y-27561326D01*
X51424899Y-27523633D01*
X51443466Y-27488897D01*
X51468452Y-27458452D01*
X51498897Y-27433466D01*
X51533633Y-27414899D01*
X51571326Y-27403465D01*
X51616661Y-27399000D01*
X52703339Y-27399000D01*
X52748674Y-27403465D01*
G37*
G36*
X50208674Y-27403465D02*
G01*
X50246367Y-27414899D01*
X50281103Y-27433466D01*
X50311548Y-27458452D01*
X50336534Y-27488897D01*
X50355101Y-27523633D01*
X50366535Y-27561326D01*
X50371000Y-27606661D01*
X50371000Y-28443339D01*
X50366535Y-28488674D01*
X50355101Y-28526367D01*
X50336534Y-28561103D01*
X50311548Y-28591548D01*
X50281103Y-28616534D01*
X50246367Y-28635101D01*
X50208674Y-28646535D01*
X50163339Y-28651000D01*
X49076661Y-28651000D01*
X49031326Y-28646535D01*
X48993633Y-28635101D01*
X48958897Y-28616534D01*
X48928452Y-28591548D01*
X48903466Y-28561103D01*
X48884899Y-28526367D01*
X48873465Y-28488674D01*
X48869000Y-28443339D01*
X48869000Y-27606661D01*
X48873465Y-27561326D01*
X48884899Y-27523633D01*
X48903466Y-27488897D01*
X48928452Y-27458452D01*
X48958897Y-27433466D01*
X48993633Y-27414899D01*
X49031326Y-27403465D01*
X49076661Y-27399000D01*
X50163339Y-27399000D01*
X50208674Y-27403465D01*
G37*
G36*
X47668674Y-27403465D02*
G01*
X47706367Y-27414899D01*
X47741103Y-27433466D01*
X47771548Y-27458452D01*
X47796534Y-27488897D01*
X47815101Y-27523633D01*
X47826535Y-27561326D01*
X47831000Y-27606661D01*
X47831000Y-28443339D01*
X47826535Y-28488674D01*
X47815101Y-28526367D01*
X47796534Y-28561103D01*
X47771548Y-28591548D01*
X47741103Y-28616534D01*
X47706367Y-28635101D01*
X47668674Y-28646535D01*
X47623339Y-28651000D01*
X46536661Y-28651000D01*
X46491326Y-28646535D01*
X46453633Y-28635101D01*
X46418897Y-28616534D01*
X46388452Y-28591548D01*
X46363466Y-28561103D01*
X46344899Y-28526367D01*
X46333465Y-28488674D01*
X46329000Y-28443339D01*
X46329000Y-27606661D01*
X46333465Y-27561326D01*
X46344899Y-27523633D01*
X46363466Y-27488897D01*
X46388452Y-27458452D01*
X46418897Y-27433466D01*
X46453633Y-27414899D01*
X46491326Y-27403465D01*
X46536661Y-27399000D01*
X47623339Y-27399000D01*
X47668674Y-27403465D01*
G37*
G36*
X45128674Y-27403465D02*
G01*
X45166367Y-27414899D01*
X45201103Y-27433466D01*
X45231548Y-27458452D01*
X45256534Y-27488897D01*
X45275101Y-27523633D01*
X45286535Y-27561326D01*
X45291000Y-27606661D01*
X45291000Y-28443339D01*
X45286535Y-28488674D01*
X45275101Y-28526367D01*
X45256534Y-28561103D01*
X45231548Y-28591548D01*
X45201103Y-28616534D01*
X45166367Y-28635101D01*
X45128674Y-28646535D01*
X45083339Y-28651000D01*
X43996661Y-28651000D01*
X43951326Y-28646535D01*
X43913633Y-28635101D01*
X43878897Y-28616534D01*
X43848452Y-28591548D01*
X43823466Y-28561103D01*
X43804899Y-28526367D01*
X43793465Y-28488674D01*
X43789000Y-28443339D01*
X43789000Y-27606661D01*
X43793465Y-27561326D01*
X43804899Y-27523633D01*
X43823466Y-27488897D01*
X43848452Y-27458452D01*
X43878897Y-27433466D01*
X43913633Y-27414899D01*
X43951326Y-27403465D01*
X43996661Y-27399000D01*
X45083339Y-27399000D01*
X45128674Y-27403465D01*
G37*
G36*
X45128674Y-25353465D02*
G01*
X45166367Y-25364899D01*
X45201103Y-25383466D01*
X45231548Y-25408452D01*
X45256534Y-25438897D01*
X45275101Y-25473633D01*
X45286535Y-25511326D01*
X45291000Y-25556661D01*
X45291000Y-26393339D01*
X45286535Y-26438674D01*
X45275101Y-26476367D01*
X45256534Y-26511103D01*
X45231548Y-26541548D01*
X45201103Y-26566534D01*
X45166367Y-26585101D01*
X45128674Y-26596535D01*
X45083339Y-26601000D01*
X43996661Y-26601000D01*
X43951326Y-26596535D01*
X43913633Y-26585101D01*
X43878897Y-26566534D01*
X43848452Y-26541548D01*
X43823466Y-26511103D01*
X43804899Y-26476367D01*
X43793465Y-26438674D01*
X43789000Y-26393339D01*
X43789000Y-25556661D01*
X43793465Y-25511326D01*
X43804899Y-25473633D01*
X43823466Y-25438897D01*
X43848452Y-25408452D01*
X43878897Y-25383466D01*
X43913633Y-25364899D01*
X43951326Y-25353465D01*
X43996661Y-25349000D01*
X45083339Y-25349000D01*
X45128674Y-25353465D01*
G37*
G36*
X52748674Y-25353465D02*
G01*
X52786367Y-25364899D01*
X52821103Y-25383466D01*
X52851548Y-25408452D01*
X52876534Y-25438897D01*
X52895101Y-25473633D01*
X52906535Y-25511326D01*
X52911000Y-25556661D01*
X52911000Y-26393339D01*
X52906535Y-26438674D01*
X52895101Y-26476367D01*
X52876534Y-26511103D01*
X52851548Y-26541548D01*
X52821103Y-26566534D01*
X52786367Y-26585101D01*
X52748674Y-26596535D01*
X52703339Y-26601000D01*
X51616661Y-26601000D01*
X51571326Y-26596535D01*
X51533633Y-26585101D01*
X51498897Y-26566534D01*
X51468452Y-26541548D01*
X51443466Y-26511103D01*
X51424899Y-26476367D01*
X51413465Y-26438674D01*
X51409000Y-26393339D01*
X51409000Y-25556661D01*
X51413465Y-25511326D01*
X51424899Y-25473633D01*
X51443466Y-25438897D01*
X51468452Y-25408452D01*
X51498897Y-25383466D01*
X51533633Y-25364899D01*
X51571326Y-25353465D01*
X51616661Y-25349000D01*
X52703339Y-25349000D01*
X52748674Y-25353465D01*
G37*
G36*
X50208674Y-25353465D02*
G01*
X50246367Y-25364899D01*
X50281103Y-25383466D01*
X50311548Y-25408452D01*
X50336534Y-25438897D01*
X50355101Y-25473633D01*
X50366535Y-25511326D01*
X50371000Y-25556661D01*
X50371000Y-26393339D01*
X50366535Y-26438674D01*
X50355101Y-26476367D01*
X50336534Y-26511103D01*
X50311548Y-26541548D01*
X50281103Y-26566534D01*
X50246367Y-26585101D01*
X50208674Y-26596535D01*
X50163339Y-26601000D01*
X49076661Y-26601000D01*
X49031326Y-26596535D01*
X48993633Y-26585101D01*
X48958897Y-26566534D01*
X48928452Y-26541548D01*
X48903466Y-26511103D01*
X48884899Y-26476367D01*
X48873465Y-26438674D01*
X48869000Y-26393339D01*
X48869000Y-25556661D01*
X48873465Y-25511326D01*
X48884899Y-25473633D01*
X48903466Y-25438897D01*
X48928452Y-25408452D01*
X48958897Y-25383466D01*
X48993633Y-25364899D01*
X49031326Y-25353465D01*
X49076661Y-25349000D01*
X50163339Y-25349000D01*
X50208674Y-25353465D01*
G37*
G36*
X47668674Y-25353465D02*
G01*
X47706367Y-25364899D01*
X47741103Y-25383466D01*
X47771548Y-25408452D01*
X47796534Y-25438897D01*
X47815101Y-25473633D01*
X47826535Y-25511326D01*
X47831000Y-25556661D01*
X47831000Y-26393339D01*
X47826535Y-26438674D01*
X47815101Y-26476367D01*
X47796534Y-26511103D01*
X47771548Y-26541548D01*
X47741103Y-26566534D01*
X47706367Y-26585101D01*
X47668674Y-26596535D01*
X47623339Y-26601000D01*
X46536661Y-26601000D01*
X46491326Y-26596535D01*
X46453633Y-26585101D01*
X46418897Y-26566534D01*
X46388452Y-26541548D01*
X46363466Y-26511103D01*
X46344899Y-26476367D01*
X46333465Y-26438674D01*
X46329000Y-26393339D01*
X46329000Y-25556661D01*
X46333465Y-25511326D01*
X46344899Y-25473633D01*
X46363466Y-25438897D01*
X46388452Y-25408452D01*
X46418897Y-25383466D01*
X46453633Y-25364899D01*
X46491326Y-25353465D01*
X46536661Y-25349000D01*
X47623339Y-25349000D01*
X47668674Y-25353465D01*
G37*
G36*
X30963512Y-24548927D02*
G01*
X31112812Y-24578624D01*
X31276784Y-24646544D01*
X31424354Y-24745147D01*
X31549853Y-24870646D01*
X31648456Y-25018216D01*
X31716376Y-25182188D01*
X31746073Y-25331488D01*
X31750597Y-25354230D01*
X31751000Y-25356259D01*
X31751000Y-25533741D01*
X31716376Y-25707812D01*
X31648456Y-25871784D01*
X31549853Y-26019354D01*
X31424354Y-26144853D01*
X31276784Y-26243456D01*
X31112812Y-26311376D01*
X30963512Y-26341073D01*
X30938742Y-26346000D01*
X30761258Y-26346000D01*
X30736488Y-26341073D01*
X30587188Y-26311376D01*
X30423216Y-26243456D01*
X30275646Y-26144853D01*
X30150147Y-26019354D01*
X30051544Y-25871784D01*
X29983624Y-25707812D01*
X29949000Y-25533741D01*
X29949000Y-25356259D01*
X29949404Y-25354230D01*
X29953927Y-25331488D01*
X29983624Y-25182188D01*
X30051544Y-25018216D01*
X30150147Y-24870646D01*
X30275646Y-24745147D01*
X30423216Y-24646544D01*
X30587188Y-24578624D01*
X30736488Y-24548927D01*
X30761258Y-24544000D01*
X30938742Y-24544000D01*
X30963512Y-24548927D01*
G37*
G36*
X30963512Y-22008927D02*
G01*
X31112812Y-22038624D01*
X31276784Y-22106544D01*
X31424354Y-22205147D01*
X31549853Y-22330646D01*
X31648456Y-22478216D01*
X31716376Y-22642188D01*
X31751000Y-22816259D01*
X31751000Y-22993741D01*
X31716376Y-23167812D01*
X31648456Y-23331784D01*
X31549853Y-23479354D01*
X31424354Y-23604853D01*
X31276784Y-23703456D01*
X31112812Y-23771376D01*
X30963512Y-23801073D01*
X30938742Y-23806000D01*
X30761258Y-23806000D01*
X30736488Y-23801073D01*
X30587188Y-23771376D01*
X30423216Y-23703456D01*
X30275646Y-23604853D01*
X30150147Y-23479354D01*
X30051544Y-23331784D01*
X29983624Y-23167812D01*
X29949000Y-22993741D01*
X29949000Y-22816259D01*
X29983624Y-22642188D01*
X30051544Y-22478216D01*
X30150147Y-22330646D01*
X30275646Y-22205147D01*
X30423216Y-22106544D01*
X30587188Y-22038624D01*
X30736488Y-22008927D01*
X30761258Y-22004000D01*
X30938742Y-22004000D01*
X30963512Y-22008927D01*
G37*
G36*
X52778014Y-20036973D02*
G01*
X52881878Y-20068479D01*
X52925907Y-20092013D01*
X52977599Y-20119643D01*
X52977601Y-20119644D01*
X52977600Y-20119644D01*
X53061501Y-20188499D01*
X53102493Y-20238449D01*
X53130357Y-20272401D01*
X53132419Y-20276259D01*
X53181521Y-20368121D01*
X53213027Y-20471985D01*
X53221000Y-20552933D01*
X53221000Y-21707067D01*
X53213027Y-21788015D01*
X53181521Y-21891879D01*
X53173915Y-21906108D01*
X53130357Y-21987600D01*
X53061501Y-22071501D01*
X52977600Y-22140357D01*
X52909055Y-22176995D01*
X52881879Y-22191521D01*
X52778015Y-22223027D01*
X52670000Y-22233666D01*
X52561986Y-22223027D01*
X52458122Y-22191521D01*
X52430946Y-22176995D01*
X52362401Y-22140357D01*
X52278500Y-22071501D01*
X52209644Y-21987599D01*
X52186238Y-21943810D01*
X52172624Y-21923435D01*
X52155297Y-21906108D01*
X52134923Y-21892495D01*
X52112284Y-21883117D01*
X52088251Y-21878337D01*
X52063747Y-21878337D01*
X52039714Y-21883117D01*
X52017075Y-21892495D01*
X51996700Y-21906109D01*
X51979373Y-21923436D01*
X51965760Y-21943810D01*
X51956382Y-21966449D01*
X51951000Y-22002734D01*
X51951000Y-22821000D01*
X44749000Y-22821000D01*
X44749000Y-22002735D01*
X44746598Y-21978349D01*
X44739485Y-21954900D01*
X44727934Y-21933289D01*
X44712389Y-21914347D01*
X44693447Y-21898802D01*
X44671836Y-21887251D01*
X44648387Y-21880138D01*
X44624001Y-21877736D01*
X44599615Y-21880138D01*
X44576166Y-21887251D01*
X44554555Y-21898802D01*
X44535613Y-21914347D01*
X44520068Y-21933289D01*
X44513767Y-21943802D01*
X44490356Y-21987600D01*
X44490355Y-21987601D01*
X44421501Y-22071501D01*
X44337600Y-22140357D01*
X44269055Y-22176995D01*
X44241879Y-22191521D01*
X44138015Y-22223027D01*
X44030000Y-22233666D01*
X43921986Y-22223027D01*
X43818122Y-22191521D01*
X43790946Y-22176995D01*
X43722401Y-22140357D01*
X43638500Y-22071501D01*
X43569644Y-21987600D01*
X43526086Y-21906108D01*
X43518480Y-21891879D01*
X43486974Y-21788015D01*
X43479001Y-21707067D01*
X43479000Y-20552934D01*
X43486973Y-20471986D01*
X43518479Y-20368122D01*
X43567581Y-20276259D01*
X43569643Y-20272401D01*
X43597507Y-20238449D01*
X43638499Y-20188499D01*
X43722400Y-20119644D01*
X43722399Y-20119644D01*
X43722401Y-20119643D01*
X43774093Y-20092013D01*
X43818121Y-20068479D01*
X43921985Y-20036973D01*
X44030000Y-20026334D01*
X44138014Y-20036973D01*
X44241878Y-20068479D01*
X44285907Y-20092013D01*
X44337599Y-20119643D01*
X44337601Y-20119644D01*
X44337600Y-20119644D01*
X44421501Y-20188499D01*
X44462493Y-20238449D01*
X44490357Y-20272401D01*
X44492419Y-20276259D01*
X44541521Y-20368121D01*
X44573027Y-20471985D01*
X44581000Y-20552933D01*
X44581000Y-21144001D01*
X44583402Y-21168387D01*
X44590515Y-21191836D01*
X44602066Y-21213447D01*
X44617611Y-21232389D01*
X44636553Y-21247934D01*
X44658164Y-21259485D01*
X44681613Y-21266598D01*
X44705999Y-21269000D01*
X51994002Y-21269000D01*
X52018388Y-21266598D01*
X52041837Y-21259485D01*
X52063448Y-21247934D01*
X52082390Y-21232389D01*
X52097935Y-21213447D01*
X52109486Y-21191836D01*
X52116599Y-21168387D01*
X52119001Y-21144001D01*
X52119001Y-21064853D01*
X52119000Y-20552934D01*
X52126973Y-20471986D01*
X52158479Y-20368122D01*
X52207581Y-20276259D01*
X52209643Y-20272401D01*
X52237507Y-20238449D01*
X52278499Y-20188499D01*
X52362400Y-20119644D01*
X52362399Y-20119644D01*
X52362401Y-20119643D01*
X52414093Y-20092013D01*
X52458121Y-20068479D01*
X52561985Y-20036973D01*
X52670000Y-20026334D01*
X52778014Y-20036973D01*
G37*
G36*
X30963512Y-19468927D02*
G01*
X31112812Y-19498624D01*
X31276784Y-19566544D01*
X31424354Y-19665147D01*
X31549853Y-19790646D01*
X31648456Y-19938216D01*
X31716376Y-20102188D01*
X31746073Y-20251488D01*
X31750233Y-20272400D01*
X31751000Y-20276259D01*
X31751000Y-20453741D01*
X31716376Y-20627812D01*
X31648456Y-20791784D01*
X31549853Y-20939354D01*
X31424354Y-21064853D01*
X31276784Y-21163456D01*
X31112812Y-21231376D01*
X30971495Y-21259485D01*
X30938742Y-21266000D01*
X30761258Y-21266000D01*
X30728505Y-21259485D01*
X30587188Y-21231376D01*
X30423216Y-21163456D01*
X30275646Y-21064853D01*
X30150147Y-20939354D01*
X30051544Y-20791784D01*
X29983624Y-20627812D01*
X29949000Y-20453741D01*
X29949000Y-20276259D01*
X29949768Y-20272400D01*
X29953927Y-20251488D01*
X29983624Y-20102188D01*
X30051544Y-19938216D01*
X30150147Y-19790646D01*
X30275646Y-19665147D01*
X30423216Y-19566544D01*
X30587188Y-19498624D01*
X30736488Y-19468927D01*
X30761258Y-19464000D01*
X30938742Y-19464000D01*
X30963512Y-19468927D01*
G37*
G36*
X45569672Y-20238449D02*
G01*
X45569674Y-20238450D01*
X45569675Y-20238450D01*
X45638103Y-20266793D01*
X45699686Y-20307942D01*
X45752058Y-20360314D01*
X45793207Y-20421897D01*
X45821550Y-20490325D01*
X45821551Y-20490328D01*
X45836000Y-20562966D01*
X45836000Y-20637033D01*
X45821550Y-20709675D01*
X45793207Y-20778103D01*
X45752058Y-20839686D01*
X45699686Y-20892058D01*
X45638103Y-20933207D01*
X45569675Y-20961550D01*
X45569674Y-20961550D01*
X45569672Y-20961551D01*
X45497034Y-20976000D01*
X45422966Y-20976000D01*
X45350328Y-20961551D01*
X45350326Y-20961550D01*
X45350325Y-20961550D01*
X45281897Y-20933207D01*
X45220314Y-20892058D01*
X45167942Y-20839686D01*
X45126793Y-20778103D01*
X45098450Y-20709675D01*
X45084000Y-20637033D01*
X45084000Y-20562966D01*
X45098449Y-20490328D01*
X45098450Y-20490325D01*
X45126793Y-20421897D01*
X45167942Y-20360314D01*
X45220314Y-20307942D01*
X45281897Y-20266793D01*
X45350325Y-20238450D01*
X45350326Y-20238450D01*
X45350328Y-20238449D01*
X45422966Y-20224000D01*
X45497034Y-20224000D01*
X45569672Y-20238449D01*
G37*
G36*
X51349672Y-20238449D02*
G01*
X51349674Y-20238450D01*
X51349675Y-20238450D01*
X51418103Y-20266793D01*
X51479686Y-20307942D01*
X51532058Y-20360314D01*
X51573207Y-20421897D01*
X51601550Y-20490325D01*
X51601551Y-20490328D01*
X51616000Y-20562966D01*
X51616000Y-20637033D01*
X51601550Y-20709675D01*
X51573207Y-20778103D01*
X51532058Y-20839686D01*
X51479686Y-20892058D01*
X51418103Y-20933207D01*
X51349675Y-20961550D01*
X51349674Y-20961550D01*
X51349672Y-20961551D01*
X51277034Y-20976000D01*
X51202966Y-20976000D01*
X51130328Y-20961551D01*
X51130326Y-20961550D01*
X51130325Y-20961550D01*
X51061897Y-20933207D01*
X51000314Y-20892058D01*
X50947942Y-20839686D01*
X50906793Y-20778103D01*
X50878450Y-20709675D01*
X50864000Y-20637033D01*
X50864000Y-20562966D01*
X50878449Y-20490328D01*
X50878450Y-20490325D01*
X50906793Y-20421897D01*
X50947942Y-20360314D01*
X51000314Y-20307942D01*
X51061897Y-20266793D01*
X51130325Y-20238450D01*
X51130326Y-20238450D01*
X51130328Y-20238449D01*
X51202966Y-20224000D01*
X51277034Y-20224000D01*
X51349672Y-20238449D01*
G37*
G36*
X30963512Y-16928927D02*
G01*
X31112812Y-16958624D01*
X31276784Y-17026544D01*
X31424354Y-17125147D01*
X31549853Y-17250646D01*
X31648456Y-17398216D01*
X31716376Y-17562188D01*
X31751000Y-17736259D01*
X31751000Y-17913741D01*
X31716376Y-18087812D01*
X31648456Y-18251784D01*
X31549853Y-18399354D01*
X31424354Y-18524853D01*
X31276784Y-18623456D01*
X31112812Y-18691376D01*
X30963512Y-18721073D01*
X30938742Y-18726000D01*
X30761258Y-18726000D01*
X30736488Y-18721073D01*
X30587188Y-18691376D01*
X30423216Y-18623456D01*
X30275646Y-18524853D01*
X30150147Y-18399354D01*
X30051544Y-18251784D01*
X29983624Y-18087812D01*
X29949000Y-17913741D01*
X29949000Y-17736259D01*
X29983624Y-17562188D01*
X30051544Y-17398216D01*
X30150147Y-17250646D01*
X30275646Y-17125147D01*
X30423216Y-17026544D01*
X30587188Y-16958624D01*
X30736488Y-16928927D01*
X30761258Y-16924000D01*
X30938742Y-16924000D01*
X30963512Y-16928927D01*
G37*
G36*
X44138014Y-16106973D02*
G01*
X44241878Y-16138479D01*
X44285907Y-16162013D01*
X44337599Y-16189643D01*
X44337601Y-16189644D01*
X44337600Y-16189644D01*
X44421501Y-16258499D01*
X44490356Y-16342400D01*
X44541521Y-16438121D01*
X44573027Y-16541985D01*
X44581000Y-16622933D01*
X44581000Y-17277067D01*
X44573027Y-17358015D01*
X44541521Y-17461879D01*
X44541519Y-17461882D01*
X44490357Y-17557600D01*
X44421501Y-17641501D01*
X44337600Y-17710357D01*
X44289142Y-17736258D01*
X44241879Y-17761521D01*
X44138015Y-17793027D01*
X44030000Y-17803666D01*
X43921986Y-17793027D01*
X43818122Y-17761521D01*
X43770859Y-17736258D01*
X43722401Y-17710357D01*
X43638500Y-17641501D01*
X43569645Y-17557601D01*
X43518480Y-17461879D01*
X43499168Y-17398216D01*
X43486973Y-17358015D01*
X43479000Y-17277067D01*
X43479000Y-16622934D01*
X43486973Y-16541986D01*
X43518479Y-16438122D01*
X43569644Y-16342400D01*
X43638499Y-16258499D01*
X43722400Y-16189644D01*
X43722399Y-16189644D01*
X43722401Y-16189643D01*
X43774093Y-16162013D01*
X43818121Y-16138479D01*
X43921985Y-16106973D01*
X44030000Y-16096334D01*
X44138014Y-16106973D01*
G37*
G36*
X52778014Y-16106973D02*
G01*
X52881878Y-16138479D01*
X52925907Y-16162013D01*
X52977599Y-16189643D01*
X52977601Y-16189644D01*
X52977600Y-16189644D01*
X53061501Y-16258499D01*
X53130356Y-16342400D01*
X53181521Y-16438121D01*
X53213027Y-16541985D01*
X53221000Y-16622933D01*
X53221000Y-17277067D01*
X53213027Y-17358015D01*
X53181521Y-17461879D01*
X53181519Y-17461882D01*
X53130357Y-17557600D01*
X53061501Y-17641501D01*
X52977600Y-17710357D01*
X52929142Y-17736258D01*
X52881879Y-17761521D01*
X52778015Y-17793027D01*
X52670000Y-17803666D01*
X52561986Y-17793027D01*
X52458122Y-17761521D01*
X52410859Y-17736258D01*
X52362401Y-17710357D01*
X52278500Y-17641501D01*
X52209645Y-17557601D01*
X52158480Y-17461879D01*
X52139168Y-17398216D01*
X52126973Y-17358015D01*
X52119000Y-17277067D01*
X52119000Y-16622934D01*
X52126973Y-16541986D01*
X52158479Y-16438122D01*
X52209644Y-16342400D01*
X52278499Y-16258499D01*
X52362400Y-16189644D01*
X52362399Y-16189644D01*
X52362401Y-16189643D01*
X52414093Y-16162013D01*
X52458121Y-16138479D01*
X52561985Y-16106973D01*
X52670000Y-16096334D01*
X52778014Y-16106973D01*
G37*
M02*
