M48
; DRILL file {KiCad 5.1.5+dfsg1-2build2} date Sun 17 May 2020 06:00:12 PM PDT
; FORMAT={-:-/ absolute / inch / decimal}
; #@! TF.CreationDate,2020-05-17T18:00:12-07:00
; #@! TF.GenerationSoftware,Kicad,Pcbnew,5.1.5+dfsg1-2build2
; #@! TF.FileFunction,Plated,1,2,PTH
FMAT,2
INCH
T1C0.0157
T2C0.0236
T3C0.0394
T4C0.0591
T5C0.1378
%
G90
G05
T1
X0.8661Y-0.8465
X0.8858Y-0.8071
X1.0039Y-2.185
X1.0768Y-4.435
X1.1024Y-4.0748
X1.1175Y-4.252
X1.1215Y-4.5084
X1.1417Y-4.0748
X1.1569Y-4.252
X1.1811Y-4.0748
X1.1963Y-4.252
X1.2205Y-4.0748
X1.221Y-4.3696
X1.2356Y-4.252
X1.2598Y-4.0748
X1.275Y-4.252
X1.2795Y-4.3701
X1.2992Y-4.0748
X1.3321Y-4.4
X1.378Y-4.1535
X1.4Y-3.525
X1.425Y-1.95
X1.45Y-4.3524
X1.5157Y-3.878
X1.55Y-3.6024
X1.55Y-4.15
X1.5551Y-3.5433
X1.5748Y-3.5039
X1.575Y-4.2244
X1.61Y-4.17
X1.6339Y-3.3071
X1.6535Y-3.7402
X1.6929Y-3.2461
X1.6929Y-3.6024
X1.811Y-3.8386
X1.85Y-1.2
X1.8504Y-4.1535
X1.8775Y-4.3381
X1.9168Y-4.3381
X1.95Y-1.2
X1.9685Y-4.3381
X2.0Y-4.4
X2.0108Y-4.1575
X2.1Y-4.4
X2.1063Y-4.2717
X2.2244Y-4.3504
X2.2244Y-4.7441
X2.2244Y-5.1181
X2.225Y-4.125
X2.2835Y-1.437
X2.2835Y-3.3071
X2.3031Y-2.5591
X2.3031Y-3.5236
X2.331Y-3.5515
X2.3588Y-3.5793
X2.3867Y-3.6071
X2.4145Y-3.635
X2.4409Y-3.7008
X2.4409Y-3.7402
X2.4409Y-3.7795
X2.4409Y-3.8189
X2.4409Y-3.8583
X2.4425Y-3.9055
X2.4425Y-4.3528
X2.4819Y-3.937
X2.4819Y-4.3213
X2.5213Y-3.9685
X2.5213Y-4.2898
X2.55Y-4.725
X2.5606Y-4.0
X2.5606Y-4.2583
X2.6Y-4.0315
X2.6Y-4.2269
X2.6394Y-4.063
X2.6394Y-4.1954
X2.6575Y-4.1535
X2.7589Y-4.525
X2.7756Y-3.2461
X2.85Y-2.325
T3
X1.2146Y-0.7018
X1.2146Y-0.8018
X1.2146Y-0.9018
X1.2146Y-1.0018
X1.7756Y-1.9651
X1.7756Y-2.1422
X2.0315Y-1.9651
X2.0315Y-2.1422
T4
X1.8035Y-1.6911
X2.0535Y-1.5911
X2.5535Y-5.4411
X2.8035Y-5.3411
X2.5535Y-3.5661
X2.8035Y-3.4661
X1.0535Y-1.6911
X1.3035Y-1.5911
X1.0535Y-3.5661
X1.3035Y-3.4661
X1.8035Y-3.5661
X2.0535Y-3.4661
X1.8035Y-4.6911
X2.0535Y-4.5911
X1.0535Y-5.4411
X1.3035Y-5.3411
X1.8035Y-2.8161
X2.0535Y-2.7161
X2.5535Y-2.8161
X2.8035Y-2.7161
X1.8035Y-5.4411
X2.0535Y-5.3411
X2.5535Y-1.6911
X2.8035Y-1.5911
X1.0535Y-2.8161
X1.3035Y-2.7161
T5
X2.8317Y-4.8661
X2.8317Y-1.1161
X0.9754Y-4.8661
X0.9754Y-1.1161
T2
G00X1.7335Y-0.6555
M15
G01X1.7335Y-0.6791
M16
G05
G00X1.7335Y-0.8102
M15
G01X1.7335Y-0.8535
M16
G05
G00X2.0736Y-0.6555
M15
G01X2.0736Y-0.6791
M16
G05
G00X2.0736Y-0.8102
M15
G01X2.0736Y-0.8535
M16
G05
T0
M30
