M48
; DRILL file {KiCad 5.1.5+dfsg1-2build2} date Sun 17 May 2020 06:00:12 PM PDT
; FORMAT={-:-/ absolute / inch / decimal}
; #@! TF.CreationDate,2020-05-17T18:00:12-07:00
; #@! TF.GenerationSoftware,Kicad,Pcbnew,5.1.5+dfsg1-2build2
; #@! TF.FileFunction,NonPlated,1,2,NPTH
FMAT,2
INCH
T1C0.0256
T2C0.0669
T3C0.1575
%
G90
G05
T1
X1.7898Y-0.811
X2.0173Y-0.811
T2
X2.4535Y-3.3661
X2.8535Y-3.3661
X0.9535Y-1.4911
X1.3535Y-1.4911
X0.9535Y-3.3661
X1.3535Y-3.3661
X1.7035Y-3.3661
X2.1035Y-3.3661
X1.7035Y-4.4911
X2.1035Y-4.4911
X0.9535Y-5.2411
X1.3535Y-5.2411
X1.7035Y-2.6161
X2.1035Y-2.6161
X2.4535Y-2.6161
X2.8535Y-2.6161
X1.7035Y-5.2411
X2.1035Y-5.2411
X2.4535Y-1.4911
X2.8535Y-1.4911
X0.9535Y-2.6161
X1.3535Y-2.6161
X1.7035Y-1.4911
X2.1035Y-1.4911
X2.4535Y-5.2411
X2.8535Y-5.2411
T3
X1.9035Y-1.4911
X2.6535Y-3.3661
X1.1535Y-1.4911
X1.1535Y-3.3661
X1.9035Y-3.3661
X1.9035Y-4.4911
X1.1535Y-5.2411
X1.9035Y-2.6161
X2.6535Y-2.6161
X1.9035Y-5.2411
X2.6535Y-1.4911
X1.1535Y-2.6161
X2.6535Y-5.2411
T0
M30
