G04 #@! TF.GenerationSoftware,KiCad,Pcbnew,5.1.5+dfsg1-2build2*
G04 #@! TF.CreationDate,2020-05-17T18:00:09-07:00*
G04 #@! TF.ProjectId,triad_center,74726961-645f-4636-956e-7465722e6b69,rev?*
G04 #@! TF.SameCoordinates,Original*
G04 #@! TF.FileFunction,Paste,Bot*
G04 #@! TF.FilePolarity,Positive*
%FSLAX46Y46*%
G04 Gerber Fmt 4.6, Leading zero omitted, Abs format (unit mm)*
G04 Created by KiCad (PCBNEW 5.1.5+dfsg1-2build2) date 2020-05-17 18:00:09*
%MOMM*%
%LPD*%
G04 APERTURE LIST*
%ADD10C,0.100000*%
%ADD11R,1.100000X1.100000*%
%ADD12R,1.000000X0.300000*%
%ADD13R,1.300000X1.765000*%
%ADD14R,0.600000X1.450000*%
%ADD15R,0.300000X1.450000*%
%ADD16R,1.500000X1.000000*%
%ADD17R,1.500000X0.500000*%
%ADD18R,0.500000X1.500000*%
G04 APERTURE END LIST*
D10*
G36*
X36674505Y-106301204D02*
G01*
X36698773Y-106304804D01*
X36722572Y-106310765D01*
X36745671Y-106319030D01*
X36767850Y-106329520D01*
X36788893Y-106342132D01*
X36808599Y-106356747D01*
X36826777Y-106373223D01*
X36843253Y-106391401D01*
X36857868Y-106411107D01*
X36870480Y-106432150D01*
X36880970Y-106454329D01*
X36889235Y-106477428D01*
X36895196Y-106501227D01*
X36898796Y-106525495D01*
X36900000Y-106549999D01*
X36900000Y-107450001D01*
X36898796Y-107474505D01*
X36895196Y-107498773D01*
X36889235Y-107522572D01*
X36880970Y-107545671D01*
X36870480Y-107567850D01*
X36857868Y-107588893D01*
X36843253Y-107608599D01*
X36826777Y-107626777D01*
X36808599Y-107643253D01*
X36788893Y-107657868D01*
X36767850Y-107670480D01*
X36745671Y-107680970D01*
X36722572Y-107689235D01*
X36698773Y-107695196D01*
X36674505Y-107698796D01*
X36650001Y-107700000D01*
X35999999Y-107700000D01*
X35975495Y-107698796D01*
X35951227Y-107695196D01*
X35927428Y-107689235D01*
X35904329Y-107680970D01*
X35882150Y-107670480D01*
X35861107Y-107657868D01*
X35841401Y-107643253D01*
X35823223Y-107626777D01*
X35806747Y-107608599D01*
X35792132Y-107588893D01*
X35779520Y-107567850D01*
X35769030Y-107545671D01*
X35760765Y-107522572D01*
X35754804Y-107498773D01*
X35751204Y-107474505D01*
X35750000Y-107450001D01*
X35750000Y-106549999D01*
X35751204Y-106525495D01*
X35754804Y-106501227D01*
X35760765Y-106477428D01*
X35769030Y-106454329D01*
X35779520Y-106432150D01*
X35792132Y-106411107D01*
X35806747Y-106391401D01*
X35823223Y-106373223D01*
X35841401Y-106356747D01*
X35861107Y-106342132D01*
X35882150Y-106329520D01*
X35904329Y-106319030D01*
X35927428Y-106310765D01*
X35951227Y-106304804D01*
X35975495Y-106301204D01*
X35999999Y-106300000D01*
X36650001Y-106300000D01*
X36674505Y-106301204D01*
G37*
G36*
X38724505Y-106301204D02*
G01*
X38748773Y-106304804D01*
X38772572Y-106310765D01*
X38795671Y-106319030D01*
X38817850Y-106329520D01*
X38838893Y-106342132D01*
X38858599Y-106356747D01*
X38876777Y-106373223D01*
X38893253Y-106391401D01*
X38907868Y-106411107D01*
X38920480Y-106432150D01*
X38930970Y-106454329D01*
X38939235Y-106477428D01*
X38945196Y-106501227D01*
X38948796Y-106525495D01*
X38950000Y-106549999D01*
X38950000Y-107450001D01*
X38948796Y-107474505D01*
X38945196Y-107498773D01*
X38939235Y-107522572D01*
X38930970Y-107545671D01*
X38920480Y-107567850D01*
X38907868Y-107588893D01*
X38893253Y-107608599D01*
X38876777Y-107626777D01*
X38858599Y-107643253D01*
X38838893Y-107657868D01*
X38817850Y-107670480D01*
X38795671Y-107680970D01*
X38772572Y-107689235D01*
X38748773Y-107695196D01*
X38724505Y-107698796D01*
X38700001Y-107700000D01*
X38049999Y-107700000D01*
X38025495Y-107698796D01*
X38001227Y-107695196D01*
X37977428Y-107689235D01*
X37954329Y-107680970D01*
X37932150Y-107670480D01*
X37911107Y-107657868D01*
X37891401Y-107643253D01*
X37873223Y-107626777D01*
X37856747Y-107608599D01*
X37842132Y-107588893D01*
X37829520Y-107567850D01*
X37819030Y-107545671D01*
X37810765Y-107522572D01*
X37804804Y-107498773D01*
X37801204Y-107474505D01*
X37800000Y-107450001D01*
X37800000Y-106549999D01*
X37801204Y-106525495D01*
X37804804Y-106501227D01*
X37810765Y-106477428D01*
X37819030Y-106454329D01*
X37829520Y-106432150D01*
X37842132Y-106411107D01*
X37856747Y-106391401D01*
X37873223Y-106373223D01*
X37891401Y-106356747D01*
X37911107Y-106342132D01*
X37932150Y-106329520D01*
X37954329Y-106319030D01*
X37977428Y-106310765D01*
X38001227Y-106304804D01*
X38025495Y-106301204D01*
X38049999Y-106300000D01*
X38700001Y-106300000D01*
X38724505Y-106301204D01*
G37*
G36*
X36674505Y-96301204D02*
G01*
X36698773Y-96304804D01*
X36722572Y-96310765D01*
X36745671Y-96319030D01*
X36767850Y-96329520D01*
X36788893Y-96342132D01*
X36808599Y-96356747D01*
X36826777Y-96373223D01*
X36843253Y-96391401D01*
X36857868Y-96411107D01*
X36870480Y-96432150D01*
X36880970Y-96454329D01*
X36889235Y-96477428D01*
X36895196Y-96501227D01*
X36898796Y-96525495D01*
X36900000Y-96549999D01*
X36900000Y-97450001D01*
X36898796Y-97474505D01*
X36895196Y-97498773D01*
X36889235Y-97522572D01*
X36880970Y-97545671D01*
X36870480Y-97567850D01*
X36857868Y-97588893D01*
X36843253Y-97608599D01*
X36826777Y-97626777D01*
X36808599Y-97643253D01*
X36788893Y-97657868D01*
X36767850Y-97670480D01*
X36745671Y-97680970D01*
X36722572Y-97689235D01*
X36698773Y-97695196D01*
X36674505Y-97698796D01*
X36650001Y-97700000D01*
X35999999Y-97700000D01*
X35975495Y-97698796D01*
X35951227Y-97695196D01*
X35927428Y-97689235D01*
X35904329Y-97680970D01*
X35882150Y-97670480D01*
X35861107Y-97657868D01*
X35841401Y-97643253D01*
X35823223Y-97626777D01*
X35806747Y-97608599D01*
X35792132Y-97588893D01*
X35779520Y-97567850D01*
X35769030Y-97545671D01*
X35760765Y-97522572D01*
X35754804Y-97498773D01*
X35751204Y-97474505D01*
X35750000Y-97450001D01*
X35750000Y-96549999D01*
X35751204Y-96525495D01*
X35754804Y-96501227D01*
X35760765Y-96477428D01*
X35769030Y-96454329D01*
X35779520Y-96432150D01*
X35792132Y-96411107D01*
X35806747Y-96391401D01*
X35823223Y-96373223D01*
X35841401Y-96356747D01*
X35861107Y-96342132D01*
X35882150Y-96329520D01*
X35904329Y-96319030D01*
X35927428Y-96310765D01*
X35951227Y-96304804D01*
X35975495Y-96301204D01*
X35999999Y-96300000D01*
X36650001Y-96300000D01*
X36674505Y-96301204D01*
G37*
G36*
X38724505Y-96301204D02*
G01*
X38748773Y-96304804D01*
X38772572Y-96310765D01*
X38795671Y-96319030D01*
X38817850Y-96329520D01*
X38838893Y-96342132D01*
X38858599Y-96356747D01*
X38876777Y-96373223D01*
X38893253Y-96391401D01*
X38907868Y-96411107D01*
X38920480Y-96432150D01*
X38930970Y-96454329D01*
X38939235Y-96477428D01*
X38945196Y-96501227D01*
X38948796Y-96525495D01*
X38950000Y-96549999D01*
X38950000Y-97450001D01*
X38948796Y-97474505D01*
X38945196Y-97498773D01*
X38939235Y-97522572D01*
X38930970Y-97545671D01*
X38920480Y-97567850D01*
X38907868Y-97588893D01*
X38893253Y-97608599D01*
X38876777Y-97626777D01*
X38858599Y-97643253D01*
X38838893Y-97657868D01*
X38817850Y-97670480D01*
X38795671Y-97680970D01*
X38772572Y-97689235D01*
X38748773Y-97695196D01*
X38724505Y-97698796D01*
X38700001Y-97700000D01*
X38049999Y-97700000D01*
X38025495Y-97698796D01*
X38001227Y-97695196D01*
X37977428Y-97689235D01*
X37954329Y-97680970D01*
X37932150Y-97670480D01*
X37911107Y-97657868D01*
X37891401Y-97643253D01*
X37873223Y-97626777D01*
X37856747Y-97608599D01*
X37842132Y-97588893D01*
X37829520Y-97567850D01*
X37819030Y-97545671D01*
X37810765Y-97522572D01*
X37804804Y-97498773D01*
X37801204Y-97474505D01*
X37800000Y-97450001D01*
X37800000Y-96549999D01*
X37801204Y-96525495D01*
X37804804Y-96501227D01*
X37810765Y-96477428D01*
X37819030Y-96454329D01*
X37829520Y-96432150D01*
X37842132Y-96411107D01*
X37856747Y-96391401D01*
X37873223Y-96373223D01*
X37891401Y-96356747D01*
X37911107Y-96342132D01*
X37932150Y-96329520D01*
X37954329Y-96319030D01*
X37977428Y-96310765D01*
X38001227Y-96304804D01*
X38025495Y-96301204D01*
X38049999Y-96300000D01*
X38700001Y-96300000D01*
X38724505Y-96301204D01*
G37*
G36*
X42649505Y-92501204D02*
G01*
X42673773Y-92504804D01*
X42697572Y-92510765D01*
X42720671Y-92519030D01*
X42742850Y-92529520D01*
X42763893Y-92542132D01*
X42783599Y-92556747D01*
X42801777Y-92573223D01*
X42818253Y-92591401D01*
X42832868Y-92611107D01*
X42845480Y-92632150D01*
X42855970Y-92654329D01*
X42864235Y-92677428D01*
X42870196Y-92701227D01*
X42873796Y-92725495D01*
X42875000Y-92749999D01*
X42875000Y-93650001D01*
X42873796Y-93674505D01*
X42870196Y-93698773D01*
X42864235Y-93722572D01*
X42855970Y-93745671D01*
X42845480Y-93767850D01*
X42832868Y-93788893D01*
X42818253Y-93808599D01*
X42801777Y-93826777D01*
X42783599Y-93843253D01*
X42763893Y-93857868D01*
X42742850Y-93870480D01*
X42720671Y-93880970D01*
X42697572Y-93889235D01*
X42673773Y-93895196D01*
X42649505Y-93898796D01*
X42625001Y-93900000D01*
X41974999Y-93900000D01*
X41950495Y-93898796D01*
X41926227Y-93895196D01*
X41902428Y-93889235D01*
X41879329Y-93880970D01*
X41857150Y-93870480D01*
X41836107Y-93857868D01*
X41816401Y-93843253D01*
X41798223Y-93826777D01*
X41781747Y-93808599D01*
X41767132Y-93788893D01*
X41754520Y-93767850D01*
X41744030Y-93745671D01*
X41735765Y-93722572D01*
X41729804Y-93698773D01*
X41726204Y-93674505D01*
X41725000Y-93650001D01*
X41725000Y-92749999D01*
X41726204Y-92725495D01*
X41729804Y-92701227D01*
X41735765Y-92677428D01*
X41744030Y-92654329D01*
X41754520Y-92632150D01*
X41767132Y-92611107D01*
X41781747Y-92591401D01*
X41798223Y-92573223D01*
X41816401Y-92556747D01*
X41836107Y-92542132D01*
X41857150Y-92529520D01*
X41879329Y-92519030D01*
X41902428Y-92510765D01*
X41926227Y-92504804D01*
X41950495Y-92501204D01*
X41974999Y-92500000D01*
X42625001Y-92500000D01*
X42649505Y-92501204D01*
G37*
G36*
X44699505Y-92501204D02*
G01*
X44723773Y-92504804D01*
X44747572Y-92510765D01*
X44770671Y-92519030D01*
X44792850Y-92529520D01*
X44813893Y-92542132D01*
X44833599Y-92556747D01*
X44851777Y-92573223D01*
X44868253Y-92591401D01*
X44882868Y-92611107D01*
X44895480Y-92632150D01*
X44905970Y-92654329D01*
X44914235Y-92677428D01*
X44920196Y-92701227D01*
X44923796Y-92725495D01*
X44925000Y-92749999D01*
X44925000Y-93650001D01*
X44923796Y-93674505D01*
X44920196Y-93698773D01*
X44914235Y-93722572D01*
X44905970Y-93745671D01*
X44895480Y-93767850D01*
X44882868Y-93788893D01*
X44868253Y-93808599D01*
X44851777Y-93826777D01*
X44833599Y-93843253D01*
X44813893Y-93857868D01*
X44792850Y-93870480D01*
X44770671Y-93880970D01*
X44747572Y-93889235D01*
X44723773Y-93895196D01*
X44699505Y-93898796D01*
X44675001Y-93900000D01*
X44024999Y-93900000D01*
X44000495Y-93898796D01*
X43976227Y-93895196D01*
X43952428Y-93889235D01*
X43929329Y-93880970D01*
X43907150Y-93870480D01*
X43886107Y-93857868D01*
X43866401Y-93843253D01*
X43848223Y-93826777D01*
X43831747Y-93808599D01*
X43817132Y-93788893D01*
X43804520Y-93767850D01*
X43794030Y-93745671D01*
X43785765Y-93722572D01*
X43779804Y-93698773D01*
X43776204Y-93674505D01*
X43775000Y-93650001D01*
X43775000Y-92749999D01*
X43776204Y-92725495D01*
X43779804Y-92701227D01*
X43785765Y-92677428D01*
X43794030Y-92654329D01*
X43804520Y-92632150D01*
X43817132Y-92611107D01*
X43831747Y-92591401D01*
X43848223Y-92573223D01*
X43866401Y-92556747D01*
X43886107Y-92542132D01*
X43907150Y-92529520D01*
X43929329Y-92519030D01*
X43952428Y-92510765D01*
X43976227Y-92504804D01*
X44000495Y-92501204D01*
X44024999Y-92500000D01*
X44675001Y-92500000D01*
X44699505Y-92501204D01*
G37*
G36*
X57224505Y-97026204D02*
G01*
X57248773Y-97029804D01*
X57272572Y-97035765D01*
X57295671Y-97044030D01*
X57317850Y-97054520D01*
X57338893Y-97067132D01*
X57358599Y-97081747D01*
X57376777Y-97098223D01*
X57393253Y-97116401D01*
X57407868Y-97136107D01*
X57420480Y-97157150D01*
X57430970Y-97179329D01*
X57439235Y-97202428D01*
X57445196Y-97226227D01*
X57448796Y-97250495D01*
X57450000Y-97274999D01*
X57450000Y-97925001D01*
X57448796Y-97949505D01*
X57445196Y-97973773D01*
X57439235Y-97997572D01*
X57430970Y-98020671D01*
X57420480Y-98042850D01*
X57407868Y-98063893D01*
X57393253Y-98083599D01*
X57376777Y-98101777D01*
X57358599Y-98118253D01*
X57338893Y-98132868D01*
X57317850Y-98145480D01*
X57295671Y-98155970D01*
X57272572Y-98164235D01*
X57248773Y-98170196D01*
X57224505Y-98173796D01*
X57200001Y-98175000D01*
X56299999Y-98175000D01*
X56275495Y-98173796D01*
X56251227Y-98170196D01*
X56227428Y-98164235D01*
X56204329Y-98155970D01*
X56182150Y-98145480D01*
X56161107Y-98132868D01*
X56141401Y-98118253D01*
X56123223Y-98101777D01*
X56106747Y-98083599D01*
X56092132Y-98063893D01*
X56079520Y-98042850D01*
X56069030Y-98020671D01*
X56060765Y-97997572D01*
X56054804Y-97973773D01*
X56051204Y-97949505D01*
X56050000Y-97925001D01*
X56050000Y-97274999D01*
X56051204Y-97250495D01*
X56054804Y-97226227D01*
X56060765Y-97202428D01*
X56069030Y-97179329D01*
X56079520Y-97157150D01*
X56092132Y-97136107D01*
X56106747Y-97116401D01*
X56123223Y-97098223D01*
X56141401Y-97081747D01*
X56161107Y-97067132D01*
X56182150Y-97054520D01*
X56204329Y-97044030D01*
X56227428Y-97035765D01*
X56251227Y-97029804D01*
X56275495Y-97026204D01*
X56299999Y-97025000D01*
X57200001Y-97025000D01*
X57224505Y-97026204D01*
G37*
G36*
X57224505Y-94976204D02*
G01*
X57248773Y-94979804D01*
X57272572Y-94985765D01*
X57295671Y-94994030D01*
X57317850Y-95004520D01*
X57338893Y-95017132D01*
X57358599Y-95031747D01*
X57376777Y-95048223D01*
X57393253Y-95066401D01*
X57407868Y-95086107D01*
X57420480Y-95107150D01*
X57430970Y-95129329D01*
X57439235Y-95152428D01*
X57445196Y-95176227D01*
X57448796Y-95200495D01*
X57450000Y-95224999D01*
X57450000Y-95875001D01*
X57448796Y-95899505D01*
X57445196Y-95923773D01*
X57439235Y-95947572D01*
X57430970Y-95970671D01*
X57420480Y-95992850D01*
X57407868Y-96013893D01*
X57393253Y-96033599D01*
X57376777Y-96051777D01*
X57358599Y-96068253D01*
X57338893Y-96082868D01*
X57317850Y-96095480D01*
X57295671Y-96105970D01*
X57272572Y-96114235D01*
X57248773Y-96120196D01*
X57224505Y-96123796D01*
X57200001Y-96125000D01*
X56299999Y-96125000D01*
X56275495Y-96123796D01*
X56251227Y-96120196D01*
X56227428Y-96114235D01*
X56204329Y-96105970D01*
X56182150Y-96095480D01*
X56161107Y-96082868D01*
X56141401Y-96068253D01*
X56123223Y-96051777D01*
X56106747Y-96033599D01*
X56092132Y-96013893D01*
X56079520Y-95992850D01*
X56069030Y-95970671D01*
X56060765Y-95947572D01*
X56054804Y-95923773D01*
X56051204Y-95899505D01*
X56050000Y-95875001D01*
X56050000Y-95224999D01*
X56051204Y-95200495D01*
X56054804Y-95176227D01*
X56060765Y-95152428D01*
X56069030Y-95129329D01*
X56079520Y-95107150D01*
X56092132Y-95086107D01*
X56106747Y-95066401D01*
X56123223Y-95048223D01*
X56141401Y-95031747D01*
X56161107Y-95017132D01*
X56182150Y-95004520D01*
X56204329Y-94994030D01*
X56227428Y-94985765D01*
X56251227Y-94979804D01*
X56275495Y-94976204D01*
X56299999Y-94975000D01*
X57200001Y-94975000D01*
X57224505Y-94976204D01*
G37*
G36*
X35974505Y-113451204D02*
G01*
X35998773Y-113454804D01*
X36022572Y-113460765D01*
X36045671Y-113469030D01*
X36067850Y-113479520D01*
X36088893Y-113492132D01*
X36108599Y-113506747D01*
X36126777Y-113523223D01*
X36143253Y-113541401D01*
X36157868Y-113561107D01*
X36170480Y-113582150D01*
X36180970Y-113604329D01*
X36189235Y-113627428D01*
X36195196Y-113651227D01*
X36198796Y-113675495D01*
X36200000Y-113699999D01*
X36200000Y-114350001D01*
X36198796Y-114374505D01*
X36195196Y-114398773D01*
X36189235Y-114422572D01*
X36180970Y-114445671D01*
X36170480Y-114467850D01*
X36157868Y-114488893D01*
X36143253Y-114508599D01*
X36126777Y-114526777D01*
X36108599Y-114543253D01*
X36088893Y-114557868D01*
X36067850Y-114570480D01*
X36045671Y-114580970D01*
X36022572Y-114589235D01*
X35998773Y-114595196D01*
X35974505Y-114598796D01*
X35950001Y-114600000D01*
X35049999Y-114600000D01*
X35025495Y-114598796D01*
X35001227Y-114595196D01*
X34977428Y-114589235D01*
X34954329Y-114580970D01*
X34932150Y-114570480D01*
X34911107Y-114557868D01*
X34891401Y-114543253D01*
X34873223Y-114526777D01*
X34856747Y-114508599D01*
X34842132Y-114488893D01*
X34829520Y-114467850D01*
X34819030Y-114445671D01*
X34810765Y-114422572D01*
X34804804Y-114398773D01*
X34801204Y-114374505D01*
X34800000Y-114350001D01*
X34800000Y-113699999D01*
X34801204Y-113675495D01*
X34804804Y-113651227D01*
X34810765Y-113627428D01*
X34819030Y-113604329D01*
X34829520Y-113582150D01*
X34842132Y-113561107D01*
X34856747Y-113541401D01*
X34873223Y-113523223D01*
X34891401Y-113506747D01*
X34911107Y-113492132D01*
X34932150Y-113479520D01*
X34954329Y-113469030D01*
X34977428Y-113460765D01*
X35001227Y-113454804D01*
X35025495Y-113451204D01*
X35049999Y-113450000D01*
X35950001Y-113450000D01*
X35974505Y-113451204D01*
G37*
G36*
X35974505Y-111401204D02*
G01*
X35998773Y-111404804D01*
X36022572Y-111410765D01*
X36045671Y-111419030D01*
X36067850Y-111429520D01*
X36088893Y-111442132D01*
X36108599Y-111456747D01*
X36126777Y-111473223D01*
X36143253Y-111491401D01*
X36157868Y-111511107D01*
X36170480Y-111532150D01*
X36180970Y-111554329D01*
X36189235Y-111577428D01*
X36195196Y-111601227D01*
X36198796Y-111625495D01*
X36200000Y-111649999D01*
X36200000Y-112300001D01*
X36198796Y-112324505D01*
X36195196Y-112348773D01*
X36189235Y-112372572D01*
X36180970Y-112395671D01*
X36170480Y-112417850D01*
X36157868Y-112438893D01*
X36143253Y-112458599D01*
X36126777Y-112476777D01*
X36108599Y-112493253D01*
X36088893Y-112507868D01*
X36067850Y-112520480D01*
X36045671Y-112530970D01*
X36022572Y-112539235D01*
X35998773Y-112545196D01*
X35974505Y-112548796D01*
X35950001Y-112550000D01*
X35049999Y-112550000D01*
X35025495Y-112548796D01*
X35001227Y-112545196D01*
X34977428Y-112539235D01*
X34954329Y-112530970D01*
X34932150Y-112520480D01*
X34911107Y-112507868D01*
X34891401Y-112493253D01*
X34873223Y-112476777D01*
X34856747Y-112458599D01*
X34842132Y-112438893D01*
X34829520Y-112417850D01*
X34819030Y-112395671D01*
X34810765Y-112372572D01*
X34804804Y-112348773D01*
X34801204Y-112324505D01*
X34800000Y-112300001D01*
X34800000Y-111649999D01*
X34801204Y-111625495D01*
X34804804Y-111601227D01*
X34810765Y-111577428D01*
X34819030Y-111554329D01*
X34829520Y-111532150D01*
X34842132Y-111511107D01*
X34856747Y-111491401D01*
X34873223Y-111473223D01*
X34891401Y-111456747D01*
X34911107Y-111442132D01*
X34932150Y-111429520D01*
X34954329Y-111419030D01*
X34977428Y-111410765D01*
X35001227Y-111404804D01*
X35025495Y-111401204D01*
X35049999Y-111400000D01*
X35950001Y-111400000D01*
X35974505Y-111401204D01*
G37*
G36*
X38474505Y-111401204D02*
G01*
X38498773Y-111404804D01*
X38522572Y-111410765D01*
X38545671Y-111419030D01*
X38567850Y-111429520D01*
X38588893Y-111442132D01*
X38608599Y-111456747D01*
X38626777Y-111473223D01*
X38643253Y-111491401D01*
X38657868Y-111511107D01*
X38670480Y-111532150D01*
X38680970Y-111554329D01*
X38689235Y-111577428D01*
X38695196Y-111601227D01*
X38698796Y-111625495D01*
X38700000Y-111649999D01*
X38700000Y-112300001D01*
X38698796Y-112324505D01*
X38695196Y-112348773D01*
X38689235Y-112372572D01*
X38680970Y-112395671D01*
X38670480Y-112417850D01*
X38657868Y-112438893D01*
X38643253Y-112458599D01*
X38626777Y-112476777D01*
X38608599Y-112493253D01*
X38588893Y-112507868D01*
X38567850Y-112520480D01*
X38545671Y-112530970D01*
X38522572Y-112539235D01*
X38498773Y-112545196D01*
X38474505Y-112548796D01*
X38450001Y-112550000D01*
X37549999Y-112550000D01*
X37525495Y-112548796D01*
X37501227Y-112545196D01*
X37477428Y-112539235D01*
X37454329Y-112530970D01*
X37432150Y-112520480D01*
X37411107Y-112507868D01*
X37391401Y-112493253D01*
X37373223Y-112476777D01*
X37356747Y-112458599D01*
X37342132Y-112438893D01*
X37329520Y-112417850D01*
X37319030Y-112395671D01*
X37310765Y-112372572D01*
X37304804Y-112348773D01*
X37301204Y-112324505D01*
X37300000Y-112300001D01*
X37300000Y-111649999D01*
X37301204Y-111625495D01*
X37304804Y-111601227D01*
X37310765Y-111577428D01*
X37319030Y-111554329D01*
X37329520Y-111532150D01*
X37342132Y-111511107D01*
X37356747Y-111491401D01*
X37373223Y-111473223D01*
X37391401Y-111456747D01*
X37411107Y-111442132D01*
X37432150Y-111429520D01*
X37454329Y-111419030D01*
X37477428Y-111410765D01*
X37501227Y-111404804D01*
X37525495Y-111401204D01*
X37549999Y-111400000D01*
X38450001Y-111400000D01*
X38474505Y-111401204D01*
G37*
G36*
X38474505Y-113451204D02*
G01*
X38498773Y-113454804D01*
X38522572Y-113460765D01*
X38545671Y-113469030D01*
X38567850Y-113479520D01*
X38588893Y-113492132D01*
X38608599Y-113506747D01*
X38626777Y-113523223D01*
X38643253Y-113541401D01*
X38657868Y-113561107D01*
X38670480Y-113582150D01*
X38680970Y-113604329D01*
X38689235Y-113627428D01*
X38695196Y-113651227D01*
X38698796Y-113675495D01*
X38700000Y-113699999D01*
X38700000Y-114350001D01*
X38698796Y-114374505D01*
X38695196Y-114398773D01*
X38689235Y-114422572D01*
X38680970Y-114445671D01*
X38670480Y-114467850D01*
X38657868Y-114488893D01*
X38643253Y-114508599D01*
X38626777Y-114526777D01*
X38608599Y-114543253D01*
X38588893Y-114557868D01*
X38567850Y-114570480D01*
X38545671Y-114580970D01*
X38522572Y-114589235D01*
X38498773Y-114595196D01*
X38474505Y-114598796D01*
X38450001Y-114600000D01*
X37549999Y-114600000D01*
X37525495Y-114598796D01*
X37501227Y-114595196D01*
X37477428Y-114589235D01*
X37454329Y-114580970D01*
X37432150Y-114570480D01*
X37411107Y-114557868D01*
X37391401Y-114543253D01*
X37373223Y-114526777D01*
X37356747Y-114508599D01*
X37342132Y-114488893D01*
X37329520Y-114467850D01*
X37319030Y-114445671D01*
X37310765Y-114422572D01*
X37304804Y-114398773D01*
X37301204Y-114374505D01*
X37300000Y-114350001D01*
X37300000Y-113699999D01*
X37301204Y-113675495D01*
X37304804Y-113651227D01*
X37310765Y-113627428D01*
X37319030Y-113604329D01*
X37329520Y-113582150D01*
X37342132Y-113561107D01*
X37356747Y-113541401D01*
X37373223Y-113523223D01*
X37391401Y-113506747D01*
X37411107Y-113492132D01*
X37432150Y-113479520D01*
X37454329Y-113469030D01*
X37477428Y-113460765D01*
X37501227Y-113454804D01*
X37525495Y-113451204D01*
X37549999Y-113450000D01*
X38450001Y-113450000D01*
X38474505Y-113451204D01*
G37*
G36*
X53949505Y-109301204D02*
G01*
X53973773Y-109304804D01*
X53997572Y-109310765D01*
X54020671Y-109319030D01*
X54042850Y-109329520D01*
X54063893Y-109342132D01*
X54083599Y-109356747D01*
X54101777Y-109373223D01*
X54118253Y-109391401D01*
X54132868Y-109411107D01*
X54145480Y-109432150D01*
X54155970Y-109454329D01*
X54164235Y-109477428D01*
X54170196Y-109501227D01*
X54173796Y-109525495D01*
X54175000Y-109549999D01*
X54175000Y-110450001D01*
X54173796Y-110474505D01*
X54170196Y-110498773D01*
X54164235Y-110522572D01*
X54155970Y-110545671D01*
X54145480Y-110567850D01*
X54132868Y-110588893D01*
X54118253Y-110608599D01*
X54101777Y-110626777D01*
X54083599Y-110643253D01*
X54063893Y-110657868D01*
X54042850Y-110670480D01*
X54020671Y-110680970D01*
X53997572Y-110689235D01*
X53973773Y-110695196D01*
X53949505Y-110698796D01*
X53925001Y-110700000D01*
X53274999Y-110700000D01*
X53250495Y-110698796D01*
X53226227Y-110695196D01*
X53202428Y-110689235D01*
X53179329Y-110680970D01*
X53157150Y-110670480D01*
X53136107Y-110657868D01*
X53116401Y-110643253D01*
X53098223Y-110626777D01*
X53081747Y-110608599D01*
X53067132Y-110588893D01*
X53054520Y-110567850D01*
X53044030Y-110545671D01*
X53035765Y-110522572D01*
X53029804Y-110498773D01*
X53026204Y-110474505D01*
X53025000Y-110450001D01*
X53025000Y-109549999D01*
X53026204Y-109525495D01*
X53029804Y-109501227D01*
X53035765Y-109477428D01*
X53044030Y-109454329D01*
X53054520Y-109432150D01*
X53067132Y-109411107D01*
X53081747Y-109391401D01*
X53098223Y-109373223D01*
X53116401Y-109356747D01*
X53136107Y-109342132D01*
X53157150Y-109329520D01*
X53179329Y-109319030D01*
X53202428Y-109310765D01*
X53226227Y-109304804D01*
X53250495Y-109301204D01*
X53274999Y-109300000D01*
X53925001Y-109300000D01*
X53949505Y-109301204D01*
G37*
G36*
X51899505Y-109301204D02*
G01*
X51923773Y-109304804D01*
X51947572Y-109310765D01*
X51970671Y-109319030D01*
X51992850Y-109329520D01*
X52013893Y-109342132D01*
X52033599Y-109356747D01*
X52051777Y-109373223D01*
X52068253Y-109391401D01*
X52082868Y-109411107D01*
X52095480Y-109432150D01*
X52105970Y-109454329D01*
X52114235Y-109477428D01*
X52120196Y-109501227D01*
X52123796Y-109525495D01*
X52125000Y-109549999D01*
X52125000Y-110450001D01*
X52123796Y-110474505D01*
X52120196Y-110498773D01*
X52114235Y-110522572D01*
X52105970Y-110545671D01*
X52095480Y-110567850D01*
X52082868Y-110588893D01*
X52068253Y-110608599D01*
X52051777Y-110626777D01*
X52033599Y-110643253D01*
X52013893Y-110657868D01*
X51992850Y-110670480D01*
X51970671Y-110680970D01*
X51947572Y-110689235D01*
X51923773Y-110695196D01*
X51899505Y-110698796D01*
X51875001Y-110700000D01*
X51224999Y-110700000D01*
X51200495Y-110698796D01*
X51176227Y-110695196D01*
X51152428Y-110689235D01*
X51129329Y-110680970D01*
X51107150Y-110670480D01*
X51086107Y-110657868D01*
X51066401Y-110643253D01*
X51048223Y-110626777D01*
X51031747Y-110608599D01*
X51017132Y-110588893D01*
X51004520Y-110567850D01*
X50994030Y-110545671D01*
X50985765Y-110522572D01*
X50979804Y-110498773D01*
X50976204Y-110474505D01*
X50975000Y-110450001D01*
X50975000Y-109549999D01*
X50976204Y-109525495D01*
X50979804Y-109501227D01*
X50985765Y-109477428D01*
X50994030Y-109454329D01*
X51004520Y-109432150D01*
X51017132Y-109411107D01*
X51031747Y-109391401D01*
X51048223Y-109373223D01*
X51066401Y-109356747D01*
X51086107Y-109342132D01*
X51107150Y-109329520D01*
X51129329Y-109319030D01*
X51152428Y-109310765D01*
X51176227Y-109304804D01*
X51200495Y-109301204D01*
X51224999Y-109300000D01*
X51875001Y-109300000D01*
X51899505Y-109301204D01*
G37*
G36*
X40974505Y-113451204D02*
G01*
X40998773Y-113454804D01*
X41022572Y-113460765D01*
X41045671Y-113469030D01*
X41067850Y-113479520D01*
X41088893Y-113492132D01*
X41108599Y-113506747D01*
X41126777Y-113523223D01*
X41143253Y-113541401D01*
X41157868Y-113561107D01*
X41170480Y-113582150D01*
X41180970Y-113604329D01*
X41189235Y-113627428D01*
X41195196Y-113651227D01*
X41198796Y-113675495D01*
X41200000Y-113699999D01*
X41200000Y-114350001D01*
X41198796Y-114374505D01*
X41195196Y-114398773D01*
X41189235Y-114422572D01*
X41180970Y-114445671D01*
X41170480Y-114467850D01*
X41157868Y-114488893D01*
X41143253Y-114508599D01*
X41126777Y-114526777D01*
X41108599Y-114543253D01*
X41088893Y-114557868D01*
X41067850Y-114570480D01*
X41045671Y-114580970D01*
X41022572Y-114589235D01*
X40998773Y-114595196D01*
X40974505Y-114598796D01*
X40950001Y-114600000D01*
X40049999Y-114600000D01*
X40025495Y-114598796D01*
X40001227Y-114595196D01*
X39977428Y-114589235D01*
X39954329Y-114580970D01*
X39932150Y-114570480D01*
X39911107Y-114557868D01*
X39891401Y-114543253D01*
X39873223Y-114526777D01*
X39856747Y-114508599D01*
X39842132Y-114488893D01*
X39829520Y-114467850D01*
X39819030Y-114445671D01*
X39810765Y-114422572D01*
X39804804Y-114398773D01*
X39801204Y-114374505D01*
X39800000Y-114350001D01*
X39800000Y-113699999D01*
X39801204Y-113675495D01*
X39804804Y-113651227D01*
X39810765Y-113627428D01*
X39819030Y-113604329D01*
X39829520Y-113582150D01*
X39842132Y-113561107D01*
X39856747Y-113541401D01*
X39873223Y-113523223D01*
X39891401Y-113506747D01*
X39911107Y-113492132D01*
X39932150Y-113479520D01*
X39954329Y-113469030D01*
X39977428Y-113460765D01*
X40001227Y-113454804D01*
X40025495Y-113451204D01*
X40049999Y-113450000D01*
X40950001Y-113450000D01*
X40974505Y-113451204D01*
G37*
G36*
X40974505Y-111401204D02*
G01*
X40998773Y-111404804D01*
X41022572Y-111410765D01*
X41045671Y-111419030D01*
X41067850Y-111429520D01*
X41088893Y-111442132D01*
X41108599Y-111456747D01*
X41126777Y-111473223D01*
X41143253Y-111491401D01*
X41157868Y-111511107D01*
X41170480Y-111532150D01*
X41180970Y-111554329D01*
X41189235Y-111577428D01*
X41195196Y-111601227D01*
X41198796Y-111625495D01*
X41200000Y-111649999D01*
X41200000Y-112300001D01*
X41198796Y-112324505D01*
X41195196Y-112348773D01*
X41189235Y-112372572D01*
X41180970Y-112395671D01*
X41170480Y-112417850D01*
X41157868Y-112438893D01*
X41143253Y-112458599D01*
X41126777Y-112476777D01*
X41108599Y-112493253D01*
X41088893Y-112507868D01*
X41067850Y-112520480D01*
X41045671Y-112530970D01*
X41022572Y-112539235D01*
X40998773Y-112545196D01*
X40974505Y-112548796D01*
X40950001Y-112550000D01*
X40049999Y-112550000D01*
X40025495Y-112548796D01*
X40001227Y-112545196D01*
X39977428Y-112539235D01*
X39954329Y-112530970D01*
X39932150Y-112520480D01*
X39911107Y-112507868D01*
X39891401Y-112493253D01*
X39873223Y-112476777D01*
X39856747Y-112458599D01*
X39842132Y-112438893D01*
X39829520Y-112417850D01*
X39819030Y-112395671D01*
X39810765Y-112372572D01*
X39804804Y-112348773D01*
X39801204Y-112324505D01*
X39800000Y-112300001D01*
X39800000Y-111649999D01*
X39801204Y-111625495D01*
X39804804Y-111601227D01*
X39810765Y-111577428D01*
X39819030Y-111554329D01*
X39829520Y-111532150D01*
X39842132Y-111511107D01*
X39856747Y-111491401D01*
X39873223Y-111473223D01*
X39891401Y-111456747D01*
X39911107Y-111442132D01*
X39932150Y-111429520D01*
X39954329Y-111419030D01*
X39977428Y-111410765D01*
X40001227Y-111404804D01*
X40025495Y-111401204D01*
X40049999Y-111400000D01*
X40950001Y-111400000D01*
X40974505Y-111401204D01*
G37*
D11*
X37562500Y-39275000D03*
X37562500Y-36475000D03*
X56612500Y-36475000D03*
X56612500Y-39275000D03*
X75662500Y-39275000D03*
X75662500Y-36475000D03*
X37562500Y-65050000D03*
X37562500Y-67850000D03*
X56612500Y-67850000D03*
X56612500Y-65050000D03*
X75662500Y-65050000D03*
X75662500Y-67850000D03*
X37562500Y-86900000D03*
X37562500Y-84100000D03*
X56612500Y-84100000D03*
X56612500Y-86900000D03*
X75662500Y-86900000D03*
X75662500Y-84100000D03*
X56612500Y-112675000D03*
X56612500Y-115475000D03*
X37562500Y-131725000D03*
X37562500Y-134525000D03*
X56612500Y-134525000D03*
X56612500Y-131725000D03*
X75662500Y-134525000D03*
X75662500Y-131725000D03*
D12*
X25275000Y-104562000D03*
X25275000Y-105062000D03*
X25275000Y-105562000D03*
X25275000Y-106062000D03*
X25275000Y-106562000D03*
X25275000Y-107062000D03*
X25275000Y-107562000D03*
X25275000Y-108062000D03*
X25275000Y-108562000D03*
X25275000Y-109062000D03*
X25275000Y-109562000D03*
X25275000Y-110062000D03*
X25275000Y-110562000D03*
X25275000Y-111062000D03*
X25275000Y-111562000D03*
X25275000Y-112062000D03*
X25275000Y-112562000D03*
X25275000Y-113062000D03*
X25275000Y-113562000D03*
X25275000Y-114062000D03*
D13*
X22425000Y-116429500D03*
X22425000Y-102194500D03*
X74275000Y-116429500D03*
X74275000Y-102194500D03*
D12*
X71425000Y-104562000D03*
X71425000Y-105062000D03*
X71425000Y-105562000D03*
X71425000Y-106062000D03*
X71425000Y-106562000D03*
X71425000Y-107062000D03*
X71425000Y-107562000D03*
X71425000Y-108062000D03*
X71425000Y-108562000D03*
X71425000Y-109062000D03*
X71425000Y-109562000D03*
X71425000Y-110062000D03*
X71425000Y-110562000D03*
X71425000Y-111062000D03*
X71425000Y-111562000D03*
X71425000Y-112062000D03*
X71425000Y-112562000D03*
X71425000Y-113062000D03*
X71425000Y-113562000D03*
X71425000Y-114062000D03*
D14*
X51600000Y-22045000D03*
X50800000Y-22045000D03*
X45900000Y-22045000D03*
X45100000Y-22045000D03*
X45100000Y-22045000D03*
X45900000Y-22045000D03*
X50800000Y-22045000D03*
X51600000Y-22045000D03*
D15*
X46600000Y-22045000D03*
X47100000Y-22045000D03*
X47600000Y-22045000D03*
X48600000Y-22045000D03*
X49100000Y-22045000D03*
X49600000Y-22045000D03*
X50100000Y-22045000D03*
X48100000Y-22045000D03*
D16*
X60425000Y-58525000D03*
X60425000Y-55325000D03*
X65325000Y-58525000D03*
X65325000Y-55325000D03*
X65325000Y-122000000D03*
X65325000Y-125200000D03*
X60425000Y-122000000D03*
X60425000Y-125200000D03*
X36275000Y-122000000D03*
X36275000Y-125200000D03*
X31375000Y-122000000D03*
X31375000Y-125200000D03*
X36275000Y-55325000D03*
X36275000Y-58525000D03*
X31375000Y-55325000D03*
X31375000Y-58525000D03*
D10*
G36*
X42474505Y-49339204D02*
G01*
X42498773Y-49342804D01*
X42522572Y-49348765D01*
X42545671Y-49357030D01*
X42567850Y-49367520D01*
X42588893Y-49380132D01*
X42608599Y-49394747D01*
X42626777Y-49411223D01*
X42643253Y-49429401D01*
X42657868Y-49449107D01*
X42670480Y-49470150D01*
X42680970Y-49492329D01*
X42689235Y-49515428D01*
X42695196Y-49539227D01*
X42698796Y-49563495D01*
X42700000Y-49587999D01*
X42700000Y-50238001D01*
X42698796Y-50262505D01*
X42695196Y-50286773D01*
X42689235Y-50310572D01*
X42680970Y-50333671D01*
X42670480Y-50355850D01*
X42657868Y-50376893D01*
X42643253Y-50396599D01*
X42626777Y-50414777D01*
X42608599Y-50431253D01*
X42588893Y-50445868D01*
X42567850Y-50458480D01*
X42545671Y-50468970D01*
X42522572Y-50477235D01*
X42498773Y-50483196D01*
X42474505Y-50486796D01*
X42450001Y-50488000D01*
X41549999Y-50488000D01*
X41525495Y-50486796D01*
X41501227Y-50483196D01*
X41477428Y-50477235D01*
X41454329Y-50468970D01*
X41432150Y-50458480D01*
X41411107Y-50445868D01*
X41391401Y-50431253D01*
X41373223Y-50414777D01*
X41356747Y-50396599D01*
X41342132Y-50376893D01*
X41329520Y-50355850D01*
X41319030Y-50333671D01*
X41310765Y-50310572D01*
X41304804Y-50286773D01*
X41301204Y-50262505D01*
X41300000Y-50238001D01*
X41300000Y-49587999D01*
X41301204Y-49563495D01*
X41304804Y-49539227D01*
X41310765Y-49515428D01*
X41319030Y-49492329D01*
X41329520Y-49470150D01*
X41342132Y-49449107D01*
X41356747Y-49429401D01*
X41373223Y-49411223D01*
X41391401Y-49394747D01*
X41411107Y-49380132D01*
X41432150Y-49367520D01*
X41454329Y-49357030D01*
X41477428Y-49348765D01*
X41501227Y-49342804D01*
X41525495Y-49339204D01*
X41549999Y-49338000D01*
X42450001Y-49338000D01*
X42474505Y-49339204D01*
G37*
G36*
X42474505Y-51389204D02*
G01*
X42498773Y-51392804D01*
X42522572Y-51398765D01*
X42545671Y-51407030D01*
X42567850Y-51417520D01*
X42588893Y-51430132D01*
X42608599Y-51444747D01*
X42626777Y-51461223D01*
X42643253Y-51479401D01*
X42657868Y-51499107D01*
X42670480Y-51520150D01*
X42680970Y-51542329D01*
X42689235Y-51565428D01*
X42695196Y-51589227D01*
X42698796Y-51613495D01*
X42700000Y-51637999D01*
X42700000Y-52288001D01*
X42698796Y-52312505D01*
X42695196Y-52336773D01*
X42689235Y-52360572D01*
X42680970Y-52383671D01*
X42670480Y-52405850D01*
X42657868Y-52426893D01*
X42643253Y-52446599D01*
X42626777Y-52464777D01*
X42608599Y-52481253D01*
X42588893Y-52495868D01*
X42567850Y-52508480D01*
X42545671Y-52518970D01*
X42522572Y-52527235D01*
X42498773Y-52533196D01*
X42474505Y-52536796D01*
X42450001Y-52538000D01*
X41549999Y-52538000D01*
X41525495Y-52536796D01*
X41501227Y-52533196D01*
X41477428Y-52527235D01*
X41454329Y-52518970D01*
X41432150Y-52508480D01*
X41411107Y-52495868D01*
X41391401Y-52481253D01*
X41373223Y-52464777D01*
X41356747Y-52446599D01*
X41342132Y-52426893D01*
X41329520Y-52405850D01*
X41319030Y-52383671D01*
X41310765Y-52360572D01*
X41304804Y-52336773D01*
X41301204Y-52312505D01*
X41300000Y-52288001D01*
X41300000Y-51637999D01*
X41301204Y-51613495D01*
X41304804Y-51589227D01*
X41310765Y-51565428D01*
X41319030Y-51542329D01*
X41329520Y-51520150D01*
X41342132Y-51499107D01*
X41356747Y-51479401D01*
X41373223Y-51461223D01*
X41391401Y-51444747D01*
X41411107Y-51430132D01*
X41432150Y-51417520D01*
X41454329Y-51407030D01*
X41477428Y-51398765D01*
X41501227Y-51392804D01*
X41525495Y-51389204D01*
X41549999Y-51388000D01*
X42450001Y-51388000D01*
X42474505Y-51389204D01*
G37*
G36*
X52699505Y-92501204D02*
G01*
X52723773Y-92504804D01*
X52747572Y-92510765D01*
X52770671Y-92519030D01*
X52792850Y-92529520D01*
X52813893Y-92542132D01*
X52833599Y-92556747D01*
X52851777Y-92573223D01*
X52868253Y-92591401D01*
X52882868Y-92611107D01*
X52895480Y-92632150D01*
X52905970Y-92654329D01*
X52914235Y-92677428D01*
X52920196Y-92701227D01*
X52923796Y-92725495D01*
X52925000Y-92749999D01*
X52925000Y-93650001D01*
X52923796Y-93674505D01*
X52920196Y-93698773D01*
X52914235Y-93722572D01*
X52905970Y-93745671D01*
X52895480Y-93767850D01*
X52882868Y-93788893D01*
X52868253Y-93808599D01*
X52851777Y-93826777D01*
X52833599Y-93843253D01*
X52813893Y-93857868D01*
X52792850Y-93870480D01*
X52770671Y-93880970D01*
X52747572Y-93889235D01*
X52723773Y-93895196D01*
X52699505Y-93898796D01*
X52675001Y-93900000D01*
X52024999Y-93900000D01*
X52000495Y-93898796D01*
X51976227Y-93895196D01*
X51952428Y-93889235D01*
X51929329Y-93880970D01*
X51907150Y-93870480D01*
X51886107Y-93857868D01*
X51866401Y-93843253D01*
X51848223Y-93826777D01*
X51831747Y-93808599D01*
X51817132Y-93788893D01*
X51804520Y-93767850D01*
X51794030Y-93745671D01*
X51785765Y-93722572D01*
X51779804Y-93698773D01*
X51776204Y-93674505D01*
X51775000Y-93650001D01*
X51775000Y-92749999D01*
X51776204Y-92725495D01*
X51779804Y-92701227D01*
X51785765Y-92677428D01*
X51794030Y-92654329D01*
X51804520Y-92632150D01*
X51817132Y-92611107D01*
X51831747Y-92591401D01*
X51848223Y-92573223D01*
X51866401Y-92556747D01*
X51886107Y-92542132D01*
X51907150Y-92529520D01*
X51929329Y-92519030D01*
X51952428Y-92510765D01*
X51976227Y-92504804D01*
X52000495Y-92501204D01*
X52024999Y-92500000D01*
X52675001Y-92500000D01*
X52699505Y-92501204D01*
G37*
G36*
X54749505Y-92501204D02*
G01*
X54773773Y-92504804D01*
X54797572Y-92510765D01*
X54820671Y-92519030D01*
X54842850Y-92529520D01*
X54863893Y-92542132D01*
X54883599Y-92556747D01*
X54901777Y-92573223D01*
X54918253Y-92591401D01*
X54932868Y-92611107D01*
X54945480Y-92632150D01*
X54955970Y-92654329D01*
X54964235Y-92677428D01*
X54970196Y-92701227D01*
X54973796Y-92725495D01*
X54975000Y-92749999D01*
X54975000Y-93650001D01*
X54973796Y-93674505D01*
X54970196Y-93698773D01*
X54964235Y-93722572D01*
X54955970Y-93745671D01*
X54945480Y-93767850D01*
X54932868Y-93788893D01*
X54918253Y-93808599D01*
X54901777Y-93826777D01*
X54883599Y-93843253D01*
X54863893Y-93857868D01*
X54842850Y-93870480D01*
X54820671Y-93880970D01*
X54797572Y-93889235D01*
X54773773Y-93895196D01*
X54749505Y-93898796D01*
X54725001Y-93900000D01*
X54074999Y-93900000D01*
X54050495Y-93898796D01*
X54026227Y-93895196D01*
X54002428Y-93889235D01*
X53979329Y-93880970D01*
X53957150Y-93870480D01*
X53936107Y-93857868D01*
X53916401Y-93843253D01*
X53898223Y-93826777D01*
X53881747Y-93808599D01*
X53867132Y-93788893D01*
X53854520Y-93767850D01*
X53844030Y-93745671D01*
X53835765Y-93722572D01*
X53829804Y-93698773D01*
X53826204Y-93674505D01*
X53825000Y-93650001D01*
X53825000Y-92749999D01*
X53826204Y-92725495D01*
X53829804Y-92701227D01*
X53835765Y-92677428D01*
X53844030Y-92654329D01*
X53854520Y-92632150D01*
X53867132Y-92611107D01*
X53881747Y-92591401D01*
X53898223Y-92573223D01*
X53916401Y-92556747D01*
X53936107Y-92542132D01*
X53957150Y-92529520D01*
X53979329Y-92519030D01*
X54002428Y-92510765D01*
X54026227Y-92504804D01*
X54050495Y-92501204D01*
X54074999Y-92500000D01*
X54725001Y-92500000D01*
X54749505Y-92501204D01*
G37*
G36*
X47554505Y-25401204D02*
G01*
X47578773Y-25404804D01*
X47602572Y-25410765D01*
X47625671Y-25419030D01*
X47647850Y-25429520D01*
X47668893Y-25442132D01*
X47688599Y-25456747D01*
X47706777Y-25473223D01*
X47723253Y-25491401D01*
X47737868Y-25511107D01*
X47750480Y-25532150D01*
X47760970Y-25554329D01*
X47769235Y-25577428D01*
X47775196Y-25601227D01*
X47778796Y-25625495D01*
X47780000Y-25649999D01*
X47780000Y-26300001D01*
X47778796Y-26324505D01*
X47775196Y-26348773D01*
X47769235Y-26372572D01*
X47760970Y-26395671D01*
X47750480Y-26417850D01*
X47737868Y-26438893D01*
X47723253Y-26458599D01*
X47706777Y-26476777D01*
X47688599Y-26493253D01*
X47668893Y-26507868D01*
X47647850Y-26520480D01*
X47625671Y-26530970D01*
X47602572Y-26539235D01*
X47578773Y-26545196D01*
X47554505Y-26548796D01*
X47530001Y-26550000D01*
X46629999Y-26550000D01*
X46605495Y-26548796D01*
X46581227Y-26545196D01*
X46557428Y-26539235D01*
X46534329Y-26530970D01*
X46512150Y-26520480D01*
X46491107Y-26507868D01*
X46471401Y-26493253D01*
X46453223Y-26476777D01*
X46436747Y-26458599D01*
X46422132Y-26438893D01*
X46409520Y-26417850D01*
X46399030Y-26395671D01*
X46390765Y-26372572D01*
X46384804Y-26348773D01*
X46381204Y-26324505D01*
X46380000Y-26300001D01*
X46380000Y-25649999D01*
X46381204Y-25625495D01*
X46384804Y-25601227D01*
X46390765Y-25577428D01*
X46399030Y-25554329D01*
X46409520Y-25532150D01*
X46422132Y-25511107D01*
X46436747Y-25491401D01*
X46453223Y-25473223D01*
X46471401Y-25456747D01*
X46491107Y-25442132D01*
X46512150Y-25429520D01*
X46534329Y-25419030D01*
X46557428Y-25410765D01*
X46581227Y-25404804D01*
X46605495Y-25401204D01*
X46629999Y-25400000D01*
X47530001Y-25400000D01*
X47554505Y-25401204D01*
G37*
G36*
X47554505Y-27451204D02*
G01*
X47578773Y-27454804D01*
X47602572Y-27460765D01*
X47625671Y-27469030D01*
X47647850Y-27479520D01*
X47668893Y-27492132D01*
X47688599Y-27506747D01*
X47706777Y-27523223D01*
X47723253Y-27541401D01*
X47737868Y-27561107D01*
X47750480Y-27582150D01*
X47760970Y-27604329D01*
X47769235Y-27627428D01*
X47775196Y-27651227D01*
X47778796Y-27675495D01*
X47780000Y-27699999D01*
X47780000Y-28350001D01*
X47778796Y-28374505D01*
X47775196Y-28398773D01*
X47769235Y-28422572D01*
X47760970Y-28445671D01*
X47750480Y-28467850D01*
X47737868Y-28488893D01*
X47723253Y-28508599D01*
X47706777Y-28526777D01*
X47688599Y-28543253D01*
X47668893Y-28557868D01*
X47647850Y-28570480D01*
X47625671Y-28580970D01*
X47602572Y-28589235D01*
X47578773Y-28595196D01*
X47554505Y-28598796D01*
X47530001Y-28600000D01*
X46629999Y-28600000D01*
X46605495Y-28598796D01*
X46581227Y-28595196D01*
X46557428Y-28589235D01*
X46534329Y-28580970D01*
X46512150Y-28570480D01*
X46491107Y-28557868D01*
X46471401Y-28543253D01*
X46453223Y-28526777D01*
X46436747Y-28508599D01*
X46422132Y-28488893D01*
X46409520Y-28467850D01*
X46399030Y-28445671D01*
X46390765Y-28422572D01*
X46384804Y-28398773D01*
X46381204Y-28374505D01*
X46380000Y-28350001D01*
X46380000Y-27699999D01*
X46381204Y-27675495D01*
X46384804Y-27651227D01*
X46390765Y-27627428D01*
X46399030Y-27604329D01*
X46409520Y-27582150D01*
X46422132Y-27561107D01*
X46436747Y-27541401D01*
X46453223Y-27523223D01*
X46471401Y-27506747D01*
X46491107Y-27492132D01*
X46512150Y-27479520D01*
X46534329Y-27469030D01*
X46557428Y-27460765D01*
X46581227Y-27454804D01*
X46605495Y-27451204D01*
X46629999Y-27450000D01*
X47530001Y-27450000D01*
X47554505Y-27451204D01*
G37*
G36*
X50094505Y-27451204D02*
G01*
X50118773Y-27454804D01*
X50142572Y-27460765D01*
X50165671Y-27469030D01*
X50187850Y-27479520D01*
X50208893Y-27492132D01*
X50228599Y-27506747D01*
X50246777Y-27523223D01*
X50263253Y-27541401D01*
X50277868Y-27561107D01*
X50290480Y-27582150D01*
X50300970Y-27604329D01*
X50309235Y-27627428D01*
X50315196Y-27651227D01*
X50318796Y-27675495D01*
X50320000Y-27699999D01*
X50320000Y-28350001D01*
X50318796Y-28374505D01*
X50315196Y-28398773D01*
X50309235Y-28422572D01*
X50300970Y-28445671D01*
X50290480Y-28467850D01*
X50277868Y-28488893D01*
X50263253Y-28508599D01*
X50246777Y-28526777D01*
X50228599Y-28543253D01*
X50208893Y-28557868D01*
X50187850Y-28570480D01*
X50165671Y-28580970D01*
X50142572Y-28589235D01*
X50118773Y-28595196D01*
X50094505Y-28598796D01*
X50070001Y-28600000D01*
X49169999Y-28600000D01*
X49145495Y-28598796D01*
X49121227Y-28595196D01*
X49097428Y-28589235D01*
X49074329Y-28580970D01*
X49052150Y-28570480D01*
X49031107Y-28557868D01*
X49011401Y-28543253D01*
X48993223Y-28526777D01*
X48976747Y-28508599D01*
X48962132Y-28488893D01*
X48949520Y-28467850D01*
X48939030Y-28445671D01*
X48930765Y-28422572D01*
X48924804Y-28398773D01*
X48921204Y-28374505D01*
X48920000Y-28350001D01*
X48920000Y-27699999D01*
X48921204Y-27675495D01*
X48924804Y-27651227D01*
X48930765Y-27627428D01*
X48939030Y-27604329D01*
X48949520Y-27582150D01*
X48962132Y-27561107D01*
X48976747Y-27541401D01*
X48993223Y-27523223D01*
X49011401Y-27506747D01*
X49031107Y-27492132D01*
X49052150Y-27479520D01*
X49074329Y-27469030D01*
X49097428Y-27460765D01*
X49121227Y-27454804D01*
X49145495Y-27451204D01*
X49169999Y-27450000D01*
X50070001Y-27450000D01*
X50094505Y-27451204D01*
G37*
G36*
X50094505Y-25401204D02*
G01*
X50118773Y-25404804D01*
X50142572Y-25410765D01*
X50165671Y-25419030D01*
X50187850Y-25429520D01*
X50208893Y-25442132D01*
X50228599Y-25456747D01*
X50246777Y-25473223D01*
X50263253Y-25491401D01*
X50277868Y-25511107D01*
X50290480Y-25532150D01*
X50300970Y-25554329D01*
X50309235Y-25577428D01*
X50315196Y-25601227D01*
X50318796Y-25625495D01*
X50320000Y-25649999D01*
X50320000Y-26300001D01*
X50318796Y-26324505D01*
X50315196Y-26348773D01*
X50309235Y-26372572D01*
X50300970Y-26395671D01*
X50290480Y-26417850D01*
X50277868Y-26438893D01*
X50263253Y-26458599D01*
X50246777Y-26476777D01*
X50228599Y-26493253D01*
X50208893Y-26507868D01*
X50187850Y-26520480D01*
X50165671Y-26530970D01*
X50142572Y-26539235D01*
X50118773Y-26545196D01*
X50094505Y-26548796D01*
X50070001Y-26550000D01*
X49169999Y-26550000D01*
X49145495Y-26548796D01*
X49121227Y-26545196D01*
X49097428Y-26539235D01*
X49074329Y-26530970D01*
X49052150Y-26520480D01*
X49031107Y-26507868D01*
X49011401Y-26493253D01*
X48993223Y-26476777D01*
X48976747Y-26458599D01*
X48962132Y-26438893D01*
X48949520Y-26417850D01*
X48939030Y-26395671D01*
X48930765Y-26372572D01*
X48924804Y-26348773D01*
X48921204Y-26324505D01*
X48920000Y-26300001D01*
X48920000Y-25649999D01*
X48921204Y-25625495D01*
X48924804Y-25601227D01*
X48930765Y-25577428D01*
X48939030Y-25554329D01*
X48949520Y-25532150D01*
X48962132Y-25511107D01*
X48976747Y-25491401D01*
X48993223Y-25473223D01*
X49011401Y-25456747D01*
X49031107Y-25442132D01*
X49052150Y-25429520D01*
X49074329Y-25419030D01*
X49097428Y-25410765D01*
X49121227Y-25404804D01*
X49145495Y-25401204D01*
X49169999Y-25400000D01*
X50070001Y-25400000D01*
X50094505Y-25401204D01*
G37*
G36*
X45014505Y-25401204D02*
G01*
X45038773Y-25404804D01*
X45062572Y-25410765D01*
X45085671Y-25419030D01*
X45107850Y-25429520D01*
X45128893Y-25442132D01*
X45148599Y-25456747D01*
X45166777Y-25473223D01*
X45183253Y-25491401D01*
X45197868Y-25511107D01*
X45210480Y-25532150D01*
X45220970Y-25554329D01*
X45229235Y-25577428D01*
X45235196Y-25601227D01*
X45238796Y-25625495D01*
X45240000Y-25649999D01*
X45240000Y-26300001D01*
X45238796Y-26324505D01*
X45235196Y-26348773D01*
X45229235Y-26372572D01*
X45220970Y-26395671D01*
X45210480Y-26417850D01*
X45197868Y-26438893D01*
X45183253Y-26458599D01*
X45166777Y-26476777D01*
X45148599Y-26493253D01*
X45128893Y-26507868D01*
X45107850Y-26520480D01*
X45085671Y-26530970D01*
X45062572Y-26539235D01*
X45038773Y-26545196D01*
X45014505Y-26548796D01*
X44990001Y-26550000D01*
X44089999Y-26550000D01*
X44065495Y-26548796D01*
X44041227Y-26545196D01*
X44017428Y-26539235D01*
X43994329Y-26530970D01*
X43972150Y-26520480D01*
X43951107Y-26507868D01*
X43931401Y-26493253D01*
X43913223Y-26476777D01*
X43896747Y-26458599D01*
X43882132Y-26438893D01*
X43869520Y-26417850D01*
X43859030Y-26395671D01*
X43850765Y-26372572D01*
X43844804Y-26348773D01*
X43841204Y-26324505D01*
X43840000Y-26300001D01*
X43840000Y-25649999D01*
X43841204Y-25625495D01*
X43844804Y-25601227D01*
X43850765Y-25577428D01*
X43859030Y-25554329D01*
X43869520Y-25532150D01*
X43882132Y-25511107D01*
X43896747Y-25491401D01*
X43913223Y-25473223D01*
X43931401Y-25456747D01*
X43951107Y-25442132D01*
X43972150Y-25429520D01*
X43994329Y-25419030D01*
X44017428Y-25410765D01*
X44041227Y-25404804D01*
X44065495Y-25401204D01*
X44089999Y-25400000D01*
X44990001Y-25400000D01*
X45014505Y-25401204D01*
G37*
G36*
X45014505Y-27451204D02*
G01*
X45038773Y-27454804D01*
X45062572Y-27460765D01*
X45085671Y-27469030D01*
X45107850Y-27479520D01*
X45128893Y-27492132D01*
X45148599Y-27506747D01*
X45166777Y-27523223D01*
X45183253Y-27541401D01*
X45197868Y-27561107D01*
X45210480Y-27582150D01*
X45220970Y-27604329D01*
X45229235Y-27627428D01*
X45235196Y-27651227D01*
X45238796Y-27675495D01*
X45240000Y-27699999D01*
X45240000Y-28350001D01*
X45238796Y-28374505D01*
X45235196Y-28398773D01*
X45229235Y-28422572D01*
X45220970Y-28445671D01*
X45210480Y-28467850D01*
X45197868Y-28488893D01*
X45183253Y-28508599D01*
X45166777Y-28526777D01*
X45148599Y-28543253D01*
X45128893Y-28557868D01*
X45107850Y-28570480D01*
X45085671Y-28580970D01*
X45062572Y-28589235D01*
X45038773Y-28595196D01*
X45014505Y-28598796D01*
X44990001Y-28600000D01*
X44089999Y-28600000D01*
X44065495Y-28598796D01*
X44041227Y-28595196D01*
X44017428Y-28589235D01*
X43994329Y-28580970D01*
X43972150Y-28570480D01*
X43951107Y-28557868D01*
X43931401Y-28543253D01*
X43913223Y-28526777D01*
X43896747Y-28508599D01*
X43882132Y-28488893D01*
X43869520Y-28467850D01*
X43859030Y-28445671D01*
X43850765Y-28422572D01*
X43844804Y-28398773D01*
X43841204Y-28374505D01*
X43840000Y-28350001D01*
X43840000Y-27699999D01*
X43841204Y-27675495D01*
X43844804Y-27651227D01*
X43850765Y-27627428D01*
X43859030Y-27604329D01*
X43869520Y-27582150D01*
X43882132Y-27561107D01*
X43896747Y-27541401D01*
X43913223Y-27523223D01*
X43931401Y-27506747D01*
X43951107Y-27492132D01*
X43972150Y-27479520D01*
X43994329Y-27469030D01*
X44017428Y-27460765D01*
X44041227Y-27454804D01*
X44065495Y-27451204D01*
X44089999Y-27450000D01*
X44990001Y-27450000D01*
X45014505Y-27451204D01*
G37*
G36*
X52634505Y-27451204D02*
G01*
X52658773Y-27454804D01*
X52682572Y-27460765D01*
X52705671Y-27469030D01*
X52727850Y-27479520D01*
X52748893Y-27492132D01*
X52768599Y-27506747D01*
X52786777Y-27523223D01*
X52803253Y-27541401D01*
X52817868Y-27561107D01*
X52830480Y-27582150D01*
X52840970Y-27604329D01*
X52849235Y-27627428D01*
X52855196Y-27651227D01*
X52858796Y-27675495D01*
X52860000Y-27699999D01*
X52860000Y-28350001D01*
X52858796Y-28374505D01*
X52855196Y-28398773D01*
X52849235Y-28422572D01*
X52840970Y-28445671D01*
X52830480Y-28467850D01*
X52817868Y-28488893D01*
X52803253Y-28508599D01*
X52786777Y-28526777D01*
X52768599Y-28543253D01*
X52748893Y-28557868D01*
X52727850Y-28570480D01*
X52705671Y-28580970D01*
X52682572Y-28589235D01*
X52658773Y-28595196D01*
X52634505Y-28598796D01*
X52610001Y-28600000D01*
X51709999Y-28600000D01*
X51685495Y-28598796D01*
X51661227Y-28595196D01*
X51637428Y-28589235D01*
X51614329Y-28580970D01*
X51592150Y-28570480D01*
X51571107Y-28557868D01*
X51551401Y-28543253D01*
X51533223Y-28526777D01*
X51516747Y-28508599D01*
X51502132Y-28488893D01*
X51489520Y-28467850D01*
X51479030Y-28445671D01*
X51470765Y-28422572D01*
X51464804Y-28398773D01*
X51461204Y-28374505D01*
X51460000Y-28350001D01*
X51460000Y-27699999D01*
X51461204Y-27675495D01*
X51464804Y-27651227D01*
X51470765Y-27627428D01*
X51479030Y-27604329D01*
X51489520Y-27582150D01*
X51502132Y-27561107D01*
X51516747Y-27541401D01*
X51533223Y-27523223D01*
X51551401Y-27506747D01*
X51571107Y-27492132D01*
X51592150Y-27479520D01*
X51614329Y-27469030D01*
X51637428Y-27460765D01*
X51661227Y-27454804D01*
X51685495Y-27451204D01*
X51709999Y-27450000D01*
X52610001Y-27450000D01*
X52634505Y-27451204D01*
G37*
G36*
X52634505Y-25401204D02*
G01*
X52658773Y-25404804D01*
X52682572Y-25410765D01*
X52705671Y-25419030D01*
X52727850Y-25429520D01*
X52748893Y-25442132D01*
X52768599Y-25456747D01*
X52786777Y-25473223D01*
X52803253Y-25491401D01*
X52817868Y-25511107D01*
X52830480Y-25532150D01*
X52840970Y-25554329D01*
X52849235Y-25577428D01*
X52855196Y-25601227D01*
X52858796Y-25625495D01*
X52860000Y-25649999D01*
X52860000Y-26300001D01*
X52858796Y-26324505D01*
X52855196Y-26348773D01*
X52849235Y-26372572D01*
X52840970Y-26395671D01*
X52830480Y-26417850D01*
X52817868Y-26438893D01*
X52803253Y-26458599D01*
X52786777Y-26476777D01*
X52768599Y-26493253D01*
X52748893Y-26507868D01*
X52727850Y-26520480D01*
X52705671Y-26530970D01*
X52682572Y-26539235D01*
X52658773Y-26545196D01*
X52634505Y-26548796D01*
X52610001Y-26550000D01*
X51709999Y-26550000D01*
X51685495Y-26548796D01*
X51661227Y-26545196D01*
X51637428Y-26539235D01*
X51614329Y-26530970D01*
X51592150Y-26520480D01*
X51571107Y-26507868D01*
X51551401Y-26493253D01*
X51533223Y-26476777D01*
X51516747Y-26458599D01*
X51502132Y-26438893D01*
X51489520Y-26417850D01*
X51479030Y-26395671D01*
X51470765Y-26372572D01*
X51464804Y-26348773D01*
X51461204Y-26324505D01*
X51460000Y-26300001D01*
X51460000Y-25649999D01*
X51461204Y-25625495D01*
X51464804Y-25601227D01*
X51470765Y-25577428D01*
X51479030Y-25554329D01*
X51489520Y-25532150D01*
X51502132Y-25511107D01*
X51516747Y-25491401D01*
X51533223Y-25473223D01*
X51551401Y-25456747D01*
X51571107Y-25442132D01*
X51592150Y-25429520D01*
X51614329Y-25419030D01*
X51637428Y-25410765D01*
X51661227Y-25404804D01*
X51685495Y-25401204D01*
X51709999Y-25400000D01*
X52610001Y-25400000D01*
X52634505Y-25401204D01*
G37*
D17*
X54250000Y-105600000D03*
X54250000Y-104800000D03*
X54250000Y-104000000D03*
X54250000Y-103200000D03*
X54250000Y-102400000D03*
X54250000Y-101600000D03*
X54250000Y-100800000D03*
X54250000Y-100000000D03*
X54250000Y-99200000D03*
X54250000Y-98400000D03*
X54250000Y-97600000D03*
D18*
X52350000Y-95700000D03*
X51550000Y-95700000D03*
X50750000Y-95700000D03*
X49950000Y-95700000D03*
X49150000Y-95700000D03*
X48350000Y-95700000D03*
X47550000Y-95700000D03*
X46750000Y-95700000D03*
X45950000Y-95700000D03*
X45150000Y-95700000D03*
X44350000Y-95700000D03*
D17*
X42450000Y-97600000D03*
X42450000Y-98400000D03*
X42450000Y-99200000D03*
X42450000Y-100000000D03*
X42450000Y-100800000D03*
X42450000Y-101600000D03*
X42450000Y-102400000D03*
X42450000Y-103200000D03*
X42450000Y-104000000D03*
X42450000Y-104800000D03*
X42450000Y-105600000D03*
D18*
X44350000Y-107500000D03*
X45150000Y-107500000D03*
X45950000Y-107500000D03*
X46750000Y-107500000D03*
X47550000Y-107500000D03*
X48350000Y-107500000D03*
X49150000Y-107500000D03*
X49950000Y-107500000D03*
X50750000Y-107500000D03*
X51550000Y-107500000D03*
X52350000Y-107500000D03*
D10*
G36*
X40531980Y-102353553D02*
G01*
X39259188Y-103626345D01*
X37774264Y-102141421D01*
X39047056Y-100868629D01*
X40531980Y-102353553D01*
G37*
G36*
X38481371Y-100302944D02*
G01*
X37208579Y-101575736D01*
X35723655Y-100090812D01*
X36996447Y-98818020D01*
X38481371Y-100302944D01*
G37*
G36*
X36925736Y-101858579D02*
G01*
X35652944Y-103131371D01*
X34168020Y-101646447D01*
X35440812Y-100373655D01*
X36925736Y-101858579D01*
G37*
G36*
X38976345Y-103909188D02*
G01*
X37703553Y-105181980D01*
X36218629Y-103697056D01*
X37491421Y-102424264D01*
X38976345Y-103909188D01*
G37*
G36*
X62199505Y-52416204D02*
G01*
X62223773Y-52419804D01*
X62247572Y-52425765D01*
X62270671Y-52434030D01*
X62292850Y-52444520D01*
X62313893Y-52457132D01*
X62333599Y-52471747D01*
X62351777Y-52488223D01*
X62368253Y-52506401D01*
X62382868Y-52526107D01*
X62395480Y-52547150D01*
X62405970Y-52569329D01*
X62414235Y-52592428D01*
X62420196Y-52616227D01*
X62423796Y-52640495D01*
X62425000Y-52664999D01*
X62425000Y-53565001D01*
X62423796Y-53589505D01*
X62420196Y-53613773D01*
X62414235Y-53637572D01*
X62405970Y-53660671D01*
X62395480Y-53682850D01*
X62382868Y-53703893D01*
X62368253Y-53723599D01*
X62351777Y-53741777D01*
X62333599Y-53758253D01*
X62313893Y-53772868D01*
X62292850Y-53785480D01*
X62270671Y-53795970D01*
X62247572Y-53804235D01*
X62223773Y-53810196D01*
X62199505Y-53813796D01*
X62175001Y-53815000D01*
X61524999Y-53815000D01*
X61500495Y-53813796D01*
X61476227Y-53810196D01*
X61452428Y-53804235D01*
X61429329Y-53795970D01*
X61407150Y-53785480D01*
X61386107Y-53772868D01*
X61366401Y-53758253D01*
X61348223Y-53741777D01*
X61331747Y-53723599D01*
X61317132Y-53703893D01*
X61304520Y-53682850D01*
X61294030Y-53660671D01*
X61285765Y-53637572D01*
X61279804Y-53613773D01*
X61276204Y-53589505D01*
X61275000Y-53565001D01*
X61275000Y-52664999D01*
X61276204Y-52640495D01*
X61279804Y-52616227D01*
X61285765Y-52592428D01*
X61294030Y-52569329D01*
X61304520Y-52547150D01*
X61317132Y-52526107D01*
X61331747Y-52506401D01*
X61348223Y-52488223D01*
X61366401Y-52471747D01*
X61386107Y-52457132D01*
X61407150Y-52444520D01*
X61429329Y-52434030D01*
X61452428Y-52425765D01*
X61476227Y-52419804D01*
X61500495Y-52416204D01*
X61524999Y-52415000D01*
X62175001Y-52415000D01*
X62199505Y-52416204D01*
G37*
G36*
X64249505Y-52416204D02*
G01*
X64273773Y-52419804D01*
X64297572Y-52425765D01*
X64320671Y-52434030D01*
X64342850Y-52444520D01*
X64363893Y-52457132D01*
X64383599Y-52471747D01*
X64401777Y-52488223D01*
X64418253Y-52506401D01*
X64432868Y-52526107D01*
X64445480Y-52547150D01*
X64455970Y-52569329D01*
X64464235Y-52592428D01*
X64470196Y-52616227D01*
X64473796Y-52640495D01*
X64475000Y-52664999D01*
X64475000Y-53565001D01*
X64473796Y-53589505D01*
X64470196Y-53613773D01*
X64464235Y-53637572D01*
X64455970Y-53660671D01*
X64445480Y-53682850D01*
X64432868Y-53703893D01*
X64418253Y-53723599D01*
X64401777Y-53741777D01*
X64383599Y-53758253D01*
X64363893Y-53772868D01*
X64342850Y-53785480D01*
X64320671Y-53795970D01*
X64297572Y-53804235D01*
X64273773Y-53810196D01*
X64249505Y-53813796D01*
X64225001Y-53815000D01*
X63574999Y-53815000D01*
X63550495Y-53813796D01*
X63526227Y-53810196D01*
X63502428Y-53804235D01*
X63479329Y-53795970D01*
X63457150Y-53785480D01*
X63436107Y-53772868D01*
X63416401Y-53758253D01*
X63398223Y-53741777D01*
X63381747Y-53723599D01*
X63367132Y-53703893D01*
X63354520Y-53682850D01*
X63344030Y-53660671D01*
X63335765Y-53637572D01*
X63329804Y-53613773D01*
X63326204Y-53589505D01*
X63325000Y-53565001D01*
X63325000Y-52664999D01*
X63326204Y-52640495D01*
X63329804Y-52616227D01*
X63335765Y-52592428D01*
X63344030Y-52569329D01*
X63354520Y-52547150D01*
X63367132Y-52526107D01*
X63381747Y-52506401D01*
X63398223Y-52488223D01*
X63416401Y-52471747D01*
X63436107Y-52457132D01*
X63457150Y-52444520D01*
X63479329Y-52434030D01*
X63502428Y-52425765D01*
X63526227Y-52419804D01*
X63550495Y-52416204D01*
X63574999Y-52415000D01*
X64225001Y-52415000D01*
X64249505Y-52416204D01*
G37*
G36*
X62199505Y-126711204D02*
G01*
X62223773Y-126714804D01*
X62247572Y-126720765D01*
X62270671Y-126729030D01*
X62292850Y-126739520D01*
X62313893Y-126752132D01*
X62333599Y-126766747D01*
X62351777Y-126783223D01*
X62368253Y-126801401D01*
X62382868Y-126821107D01*
X62395480Y-126842150D01*
X62405970Y-126864329D01*
X62414235Y-126887428D01*
X62420196Y-126911227D01*
X62423796Y-126935495D01*
X62425000Y-126959999D01*
X62425000Y-127860001D01*
X62423796Y-127884505D01*
X62420196Y-127908773D01*
X62414235Y-127932572D01*
X62405970Y-127955671D01*
X62395480Y-127977850D01*
X62382868Y-127998893D01*
X62368253Y-128018599D01*
X62351777Y-128036777D01*
X62333599Y-128053253D01*
X62313893Y-128067868D01*
X62292850Y-128080480D01*
X62270671Y-128090970D01*
X62247572Y-128099235D01*
X62223773Y-128105196D01*
X62199505Y-128108796D01*
X62175001Y-128110000D01*
X61524999Y-128110000D01*
X61500495Y-128108796D01*
X61476227Y-128105196D01*
X61452428Y-128099235D01*
X61429329Y-128090970D01*
X61407150Y-128080480D01*
X61386107Y-128067868D01*
X61366401Y-128053253D01*
X61348223Y-128036777D01*
X61331747Y-128018599D01*
X61317132Y-127998893D01*
X61304520Y-127977850D01*
X61294030Y-127955671D01*
X61285765Y-127932572D01*
X61279804Y-127908773D01*
X61276204Y-127884505D01*
X61275000Y-127860001D01*
X61275000Y-126959999D01*
X61276204Y-126935495D01*
X61279804Y-126911227D01*
X61285765Y-126887428D01*
X61294030Y-126864329D01*
X61304520Y-126842150D01*
X61317132Y-126821107D01*
X61331747Y-126801401D01*
X61348223Y-126783223D01*
X61366401Y-126766747D01*
X61386107Y-126752132D01*
X61407150Y-126739520D01*
X61429329Y-126729030D01*
X61452428Y-126720765D01*
X61476227Y-126714804D01*
X61500495Y-126711204D01*
X61524999Y-126710000D01*
X62175001Y-126710000D01*
X62199505Y-126711204D01*
G37*
G36*
X64249505Y-126711204D02*
G01*
X64273773Y-126714804D01*
X64297572Y-126720765D01*
X64320671Y-126729030D01*
X64342850Y-126739520D01*
X64363893Y-126752132D01*
X64383599Y-126766747D01*
X64401777Y-126783223D01*
X64418253Y-126801401D01*
X64432868Y-126821107D01*
X64445480Y-126842150D01*
X64455970Y-126864329D01*
X64464235Y-126887428D01*
X64470196Y-126911227D01*
X64473796Y-126935495D01*
X64475000Y-126959999D01*
X64475000Y-127860001D01*
X64473796Y-127884505D01*
X64470196Y-127908773D01*
X64464235Y-127932572D01*
X64455970Y-127955671D01*
X64445480Y-127977850D01*
X64432868Y-127998893D01*
X64418253Y-128018599D01*
X64401777Y-128036777D01*
X64383599Y-128053253D01*
X64363893Y-128067868D01*
X64342850Y-128080480D01*
X64320671Y-128090970D01*
X64297572Y-128099235D01*
X64273773Y-128105196D01*
X64249505Y-128108796D01*
X64225001Y-128110000D01*
X63574999Y-128110000D01*
X63550495Y-128108796D01*
X63526227Y-128105196D01*
X63502428Y-128099235D01*
X63479329Y-128090970D01*
X63457150Y-128080480D01*
X63436107Y-128067868D01*
X63416401Y-128053253D01*
X63398223Y-128036777D01*
X63381747Y-128018599D01*
X63367132Y-127998893D01*
X63354520Y-127977850D01*
X63344030Y-127955671D01*
X63335765Y-127932572D01*
X63329804Y-127908773D01*
X63326204Y-127884505D01*
X63325000Y-127860001D01*
X63325000Y-126959999D01*
X63326204Y-126935495D01*
X63329804Y-126911227D01*
X63335765Y-126887428D01*
X63344030Y-126864329D01*
X63354520Y-126842150D01*
X63367132Y-126821107D01*
X63381747Y-126801401D01*
X63398223Y-126783223D01*
X63416401Y-126766747D01*
X63436107Y-126752132D01*
X63457150Y-126739520D01*
X63479329Y-126729030D01*
X63502428Y-126720765D01*
X63526227Y-126714804D01*
X63550495Y-126711204D01*
X63574999Y-126710000D01*
X64225001Y-126710000D01*
X64249505Y-126711204D01*
G37*
G36*
X35199505Y-126711204D02*
G01*
X35223773Y-126714804D01*
X35247572Y-126720765D01*
X35270671Y-126729030D01*
X35292850Y-126739520D01*
X35313893Y-126752132D01*
X35333599Y-126766747D01*
X35351777Y-126783223D01*
X35368253Y-126801401D01*
X35382868Y-126821107D01*
X35395480Y-126842150D01*
X35405970Y-126864329D01*
X35414235Y-126887428D01*
X35420196Y-126911227D01*
X35423796Y-126935495D01*
X35425000Y-126959999D01*
X35425000Y-127860001D01*
X35423796Y-127884505D01*
X35420196Y-127908773D01*
X35414235Y-127932572D01*
X35405970Y-127955671D01*
X35395480Y-127977850D01*
X35382868Y-127998893D01*
X35368253Y-128018599D01*
X35351777Y-128036777D01*
X35333599Y-128053253D01*
X35313893Y-128067868D01*
X35292850Y-128080480D01*
X35270671Y-128090970D01*
X35247572Y-128099235D01*
X35223773Y-128105196D01*
X35199505Y-128108796D01*
X35175001Y-128110000D01*
X34524999Y-128110000D01*
X34500495Y-128108796D01*
X34476227Y-128105196D01*
X34452428Y-128099235D01*
X34429329Y-128090970D01*
X34407150Y-128080480D01*
X34386107Y-128067868D01*
X34366401Y-128053253D01*
X34348223Y-128036777D01*
X34331747Y-128018599D01*
X34317132Y-127998893D01*
X34304520Y-127977850D01*
X34294030Y-127955671D01*
X34285765Y-127932572D01*
X34279804Y-127908773D01*
X34276204Y-127884505D01*
X34275000Y-127860001D01*
X34275000Y-126959999D01*
X34276204Y-126935495D01*
X34279804Y-126911227D01*
X34285765Y-126887428D01*
X34294030Y-126864329D01*
X34304520Y-126842150D01*
X34317132Y-126821107D01*
X34331747Y-126801401D01*
X34348223Y-126783223D01*
X34366401Y-126766747D01*
X34386107Y-126752132D01*
X34407150Y-126739520D01*
X34429329Y-126729030D01*
X34452428Y-126720765D01*
X34476227Y-126714804D01*
X34500495Y-126711204D01*
X34524999Y-126710000D01*
X35175001Y-126710000D01*
X35199505Y-126711204D01*
G37*
G36*
X33149505Y-126711204D02*
G01*
X33173773Y-126714804D01*
X33197572Y-126720765D01*
X33220671Y-126729030D01*
X33242850Y-126739520D01*
X33263893Y-126752132D01*
X33283599Y-126766747D01*
X33301777Y-126783223D01*
X33318253Y-126801401D01*
X33332868Y-126821107D01*
X33345480Y-126842150D01*
X33355970Y-126864329D01*
X33364235Y-126887428D01*
X33370196Y-126911227D01*
X33373796Y-126935495D01*
X33375000Y-126959999D01*
X33375000Y-127860001D01*
X33373796Y-127884505D01*
X33370196Y-127908773D01*
X33364235Y-127932572D01*
X33355970Y-127955671D01*
X33345480Y-127977850D01*
X33332868Y-127998893D01*
X33318253Y-128018599D01*
X33301777Y-128036777D01*
X33283599Y-128053253D01*
X33263893Y-128067868D01*
X33242850Y-128080480D01*
X33220671Y-128090970D01*
X33197572Y-128099235D01*
X33173773Y-128105196D01*
X33149505Y-128108796D01*
X33125001Y-128110000D01*
X32474999Y-128110000D01*
X32450495Y-128108796D01*
X32426227Y-128105196D01*
X32402428Y-128099235D01*
X32379329Y-128090970D01*
X32357150Y-128080480D01*
X32336107Y-128067868D01*
X32316401Y-128053253D01*
X32298223Y-128036777D01*
X32281747Y-128018599D01*
X32267132Y-127998893D01*
X32254520Y-127977850D01*
X32244030Y-127955671D01*
X32235765Y-127932572D01*
X32229804Y-127908773D01*
X32226204Y-127884505D01*
X32225000Y-127860001D01*
X32225000Y-126959999D01*
X32226204Y-126935495D01*
X32229804Y-126911227D01*
X32235765Y-126887428D01*
X32244030Y-126864329D01*
X32254520Y-126842150D01*
X32267132Y-126821107D01*
X32281747Y-126801401D01*
X32298223Y-126783223D01*
X32316401Y-126766747D01*
X32336107Y-126752132D01*
X32357150Y-126739520D01*
X32379329Y-126729030D01*
X32402428Y-126720765D01*
X32426227Y-126714804D01*
X32450495Y-126711204D01*
X32474999Y-126710000D01*
X33125001Y-126710000D01*
X33149505Y-126711204D01*
G37*
G36*
X35199505Y-52416204D02*
G01*
X35223773Y-52419804D01*
X35247572Y-52425765D01*
X35270671Y-52434030D01*
X35292850Y-52444520D01*
X35313893Y-52457132D01*
X35333599Y-52471747D01*
X35351777Y-52488223D01*
X35368253Y-52506401D01*
X35382868Y-52526107D01*
X35395480Y-52547150D01*
X35405970Y-52569329D01*
X35414235Y-52592428D01*
X35420196Y-52616227D01*
X35423796Y-52640495D01*
X35425000Y-52664999D01*
X35425000Y-53565001D01*
X35423796Y-53589505D01*
X35420196Y-53613773D01*
X35414235Y-53637572D01*
X35405970Y-53660671D01*
X35395480Y-53682850D01*
X35382868Y-53703893D01*
X35368253Y-53723599D01*
X35351777Y-53741777D01*
X35333599Y-53758253D01*
X35313893Y-53772868D01*
X35292850Y-53785480D01*
X35270671Y-53795970D01*
X35247572Y-53804235D01*
X35223773Y-53810196D01*
X35199505Y-53813796D01*
X35175001Y-53815000D01*
X34524999Y-53815000D01*
X34500495Y-53813796D01*
X34476227Y-53810196D01*
X34452428Y-53804235D01*
X34429329Y-53795970D01*
X34407150Y-53785480D01*
X34386107Y-53772868D01*
X34366401Y-53758253D01*
X34348223Y-53741777D01*
X34331747Y-53723599D01*
X34317132Y-53703893D01*
X34304520Y-53682850D01*
X34294030Y-53660671D01*
X34285765Y-53637572D01*
X34279804Y-53613773D01*
X34276204Y-53589505D01*
X34275000Y-53565001D01*
X34275000Y-52664999D01*
X34276204Y-52640495D01*
X34279804Y-52616227D01*
X34285765Y-52592428D01*
X34294030Y-52569329D01*
X34304520Y-52547150D01*
X34317132Y-52526107D01*
X34331747Y-52506401D01*
X34348223Y-52488223D01*
X34366401Y-52471747D01*
X34386107Y-52457132D01*
X34407150Y-52444520D01*
X34429329Y-52434030D01*
X34452428Y-52425765D01*
X34476227Y-52419804D01*
X34500495Y-52416204D01*
X34524999Y-52415000D01*
X35175001Y-52415000D01*
X35199505Y-52416204D01*
G37*
G36*
X33149505Y-52416204D02*
G01*
X33173773Y-52419804D01*
X33197572Y-52425765D01*
X33220671Y-52434030D01*
X33242850Y-52444520D01*
X33263893Y-52457132D01*
X33283599Y-52471747D01*
X33301777Y-52488223D01*
X33318253Y-52506401D01*
X33332868Y-52526107D01*
X33345480Y-52547150D01*
X33355970Y-52569329D01*
X33364235Y-52592428D01*
X33370196Y-52616227D01*
X33373796Y-52640495D01*
X33375000Y-52664999D01*
X33375000Y-53565001D01*
X33373796Y-53589505D01*
X33370196Y-53613773D01*
X33364235Y-53637572D01*
X33355970Y-53660671D01*
X33345480Y-53682850D01*
X33332868Y-53703893D01*
X33318253Y-53723599D01*
X33301777Y-53741777D01*
X33283599Y-53758253D01*
X33263893Y-53772868D01*
X33242850Y-53785480D01*
X33220671Y-53795970D01*
X33197572Y-53804235D01*
X33173773Y-53810196D01*
X33149505Y-53813796D01*
X33125001Y-53815000D01*
X32474999Y-53815000D01*
X32450495Y-53813796D01*
X32426227Y-53810196D01*
X32402428Y-53804235D01*
X32379329Y-53795970D01*
X32357150Y-53785480D01*
X32336107Y-53772868D01*
X32316401Y-53758253D01*
X32298223Y-53741777D01*
X32281747Y-53723599D01*
X32267132Y-53703893D01*
X32254520Y-53682850D01*
X32244030Y-53660671D01*
X32235765Y-53637572D01*
X32229804Y-53613773D01*
X32226204Y-53589505D01*
X32225000Y-53565001D01*
X32225000Y-52664999D01*
X32226204Y-52640495D01*
X32229804Y-52616227D01*
X32235765Y-52592428D01*
X32244030Y-52569329D01*
X32254520Y-52547150D01*
X32267132Y-52526107D01*
X32281747Y-52506401D01*
X32298223Y-52488223D01*
X32316401Y-52471747D01*
X32336107Y-52457132D01*
X32357150Y-52444520D01*
X32379329Y-52434030D01*
X32402428Y-52425765D01*
X32426227Y-52419804D01*
X32450495Y-52416204D01*
X32474999Y-52415000D01*
X33125001Y-52415000D01*
X33149505Y-52416204D01*
G37*
M02*
