G04 #@! TF.GenerationSoftware,KiCad,Pcbnew,5.1.5+dfsg1-2build2*
G04 #@! TF.CreationDate,2020-05-17T17:42:05-07:00*
G04 #@! TF.ProjectId,triad_left,74726961-645f-46c6-9566-742e6b696361,rev?*
G04 #@! TF.SameCoordinates,Original*
G04 #@! TF.FileFunction,Copper,L1,Top*
G04 #@! TF.FilePolarity,Positive*
%FSLAX46Y46*%
G04 Gerber Fmt 4.6, Leading zero omitted, Abs format (unit mm)*
G04 Created by KiCad (PCBNEW 5.1.5+dfsg1-2build2) date 2020-05-17 17:42:05*
%MOMM*%
%LPD*%
G04 APERTURE LIST*
%ADD10C,4.500000*%
%ADD11C,2.200000*%
%ADD12C,0.800000*%
%ADD13C,0.250000*%
G04 APERTURE END LIST*
D10*
X125025000Y-118600000D03*
X48825000Y-120600000D03*
X125025000Y-42400000D03*
X48825000Y-44400000D03*
D11*
X36760000Y-39955000D03*
X43110000Y-37415000D03*
X62160000Y-37415000D03*
X55810000Y-39955000D03*
X74860000Y-36955000D03*
X81210000Y-34415000D03*
X100260000Y-29415000D03*
X93910000Y-31955000D03*
X112960000Y-37955000D03*
X119310000Y-35415000D03*
X138360000Y-40415000D03*
X132010000Y-42955000D03*
X36760000Y-59005000D03*
X43110000Y-56465000D03*
X62160000Y-56465000D03*
X55810000Y-59005000D03*
X74860000Y-56005000D03*
X81210000Y-53465000D03*
X100260000Y-48465000D03*
X93910000Y-51005000D03*
X112960000Y-57005000D03*
X119310000Y-54465000D03*
X138360000Y-59465000D03*
X132010000Y-62005000D03*
X36760000Y-78055000D03*
X43110000Y-75515000D03*
X62160000Y-75515000D03*
X55810000Y-78055000D03*
X74860000Y-75055000D03*
X81210000Y-72515000D03*
X100260000Y-67514999D03*
X93910000Y-70054999D03*
X112960000Y-76055000D03*
X119310000Y-73515000D03*
X138360000Y-78515000D03*
X132010000Y-81055000D03*
X36760000Y-97105000D03*
X43110000Y-94565000D03*
X55810000Y-97105000D03*
X62160000Y-94565000D03*
X81210000Y-91565000D03*
X74860000Y-94105000D03*
X93910000Y-89105000D03*
X100260000Y-86565000D03*
X119310000Y-92565000D03*
X112960000Y-95105000D03*
X132010000Y-100105000D03*
X138360000Y-97565000D03*
X43110000Y-113615000D03*
X36760000Y-116155000D03*
X55810000Y-116155000D03*
X62160000Y-113615000D03*
X81210000Y-110615000D03*
X74860000Y-113155000D03*
X100260000Y-105615000D03*
X93910000Y-108155000D03*
X112960000Y-114155000D03*
X119310000Y-111615000D03*
X138360000Y-116615000D03*
X132010000Y-119155000D03*
X151060000Y-138205000D03*
X157410000Y-135665000D03*
X36760000Y-135205000D03*
X43110000Y-132665000D03*
X62160000Y-132665000D03*
X55810000Y-135205000D03*
X74860000Y-132205000D03*
X81210000Y-129665000D03*
X100260000Y-124665000D03*
X93910000Y-127205000D03*
X112960000Y-133205000D03*
X119310000Y-130665000D03*
X138360000Y-135665000D03*
X132010000Y-138205000D03*
D12*
X146050000Y-110205000D03*
X142812500Y-34570000D03*
X146050000Y-111475000D03*
X142812500Y-53620000D03*
X146050000Y-112745000D03*
X142812500Y-72670000D03*
X146050000Y-114015000D03*
X142812500Y-91440000D03*
X146050000Y-115285000D03*
X142812500Y-110770000D03*
X161862499Y-129820000D03*
X146050000Y-116555000D03*
X142812500Y-129820000D03*
X43110000Y-62935000D03*
X62160000Y-63570000D03*
X81210000Y-61030000D03*
X100260000Y-73730000D03*
X119310000Y-80715000D03*
X138360000Y-86430000D03*
X151130000Y-113030000D03*
X143537500Y-51435000D03*
X143537500Y-121920000D03*
X146050000Y-119380000D03*
X50165000Y-116205000D03*
X50165000Y-49530000D03*
X69215000Y-119380000D03*
X67945000Y-43180000D03*
X146076401Y-120406404D03*
X143537500Y-122920003D03*
X106680000Y-114300000D03*
X107950000Y-43180000D03*
D13*
X144780000Y-108935000D02*
X146050000Y-110205000D01*
X144780000Y-88900000D02*
X144780000Y-108935000D01*
X144145000Y-71064998D02*
X144145000Y-88265000D01*
X143537501Y-70457499D02*
X144145000Y-71064998D01*
X144145000Y-88265000D02*
X144780000Y-88900000D01*
X142812500Y-52070000D02*
X143537501Y-52795001D01*
X143537501Y-52795001D02*
X143537501Y-70457499D01*
X142812500Y-34570000D02*
X142812500Y-52070000D01*
X142812500Y-53620000D02*
X142812500Y-71120000D01*
X143537501Y-71845001D02*
X143537501Y-73632499D01*
X142812500Y-71120000D02*
X143537501Y-71845001D01*
X143537501Y-73632499D02*
X143510000Y-73660000D01*
X143510000Y-73660000D02*
X143510000Y-89535000D01*
X143510000Y-89535000D02*
X144145000Y-90170000D01*
X144145000Y-90170000D02*
X144145000Y-109220000D01*
X144145000Y-109220000D02*
X144780000Y-109855000D01*
X144780000Y-110205000D02*
X146050000Y-111475000D01*
X144780000Y-109855000D02*
X144780000Y-110205000D01*
X144145000Y-110840000D02*
X145650001Y-112345001D01*
X145650001Y-112345001D02*
X146050000Y-112745000D01*
X144145000Y-109916090D02*
X144145000Y-110840000D01*
X143537501Y-109308591D02*
X144145000Y-109916090D01*
X143537501Y-90832501D02*
X143537501Y-109308591D01*
X142812500Y-90107500D02*
X143537501Y-90832501D01*
X142812500Y-72670000D02*
X142812500Y-90107500D01*
X143537501Y-111502501D02*
X145650001Y-113615001D01*
X143537501Y-109945001D02*
X143537501Y-111502501D01*
X142812500Y-109220000D02*
X143537501Y-109945001D01*
X145650001Y-113615001D02*
X146050000Y-114015000D01*
X142812500Y-91440000D02*
X142812500Y-109220000D01*
X142812500Y-111335685D02*
X142812500Y-110770000D01*
X142812500Y-112613185D02*
X142812500Y-111335685D01*
X145484315Y-115285000D02*
X142812500Y-112613185D01*
X146050000Y-115285000D02*
X145484315Y-115285000D01*
X161862499Y-129820000D02*
X147320000Y-129820000D01*
X147320000Y-116555000D02*
X146050000Y-115285000D01*
X147320000Y-129820000D02*
X147320000Y-116555000D01*
X142812500Y-119792500D02*
X146050000Y-116555000D01*
X142812500Y-129820000D02*
X142812500Y-119792500D01*
X43110000Y-37415000D02*
X43110000Y-56465000D01*
X43110000Y-56465000D02*
X43110000Y-62935000D01*
X43110000Y-92494002D02*
X43110000Y-94565000D01*
X43110000Y-75515000D02*
X43110000Y-92494002D01*
X43110000Y-111544002D02*
X43110000Y-113615000D01*
X43110000Y-94565000D02*
X43110000Y-111544002D01*
X43110000Y-113615000D02*
X43110000Y-132665000D01*
X43110000Y-62935000D02*
X43110000Y-75515000D01*
X62160000Y-132665000D02*
X62160000Y-113615000D01*
X62160000Y-113615000D02*
X62160000Y-94565000D01*
X62160000Y-94565000D02*
X62160000Y-75515000D01*
X62160000Y-75515000D02*
X62160000Y-63570000D01*
X62160000Y-56465000D02*
X62160000Y-37415000D01*
X62160000Y-63570000D02*
X62160000Y-56465000D01*
X81210000Y-51394002D02*
X81210000Y-53465000D01*
X81210000Y-34415000D02*
X81210000Y-51394002D01*
X81210000Y-53465000D02*
X81210000Y-61030000D01*
X81210000Y-72515000D02*
X81210000Y-91565000D01*
X81210000Y-91565000D02*
X81210000Y-110615000D01*
X81210000Y-110615000D02*
X81210000Y-129665000D01*
X81210000Y-61030000D02*
X81210000Y-72515000D01*
X100260000Y-105615000D02*
X100260000Y-124665000D01*
X100260000Y-67514999D02*
X100260000Y-73730000D01*
X100260000Y-88120634D02*
X100260000Y-105615000D01*
X100260000Y-86565000D02*
X100260000Y-88120634D01*
X100260000Y-29415000D02*
X100260000Y-48465000D01*
X100260000Y-48465000D02*
X100260000Y-67514999D01*
X100260000Y-73730000D02*
X100260000Y-86565000D01*
X119310000Y-111615000D02*
X119310000Y-130665000D01*
X119310000Y-73515000D02*
X119310000Y-80715000D01*
X119310000Y-92565000D02*
X119310000Y-111615000D01*
X119310000Y-35415000D02*
X119310000Y-54465000D01*
X119310000Y-54465000D02*
X119310000Y-73515000D01*
X119310000Y-80715000D02*
X119310000Y-92565000D01*
X138360000Y-116615000D02*
X138360000Y-135665000D01*
X138360000Y-95494002D02*
X138360000Y-97565000D01*
X138360000Y-78515000D02*
X138360000Y-86430000D01*
X138360000Y-97565000D02*
X138360000Y-116615000D01*
X138360000Y-40415000D02*
X138360000Y-59465000D01*
X138360000Y-59465000D02*
X138360000Y-78515000D01*
X138360000Y-86430000D02*
X138360000Y-95494002D01*
X151130000Y-113030000D02*
X145415000Y-107315000D01*
X145415000Y-107315000D02*
X145415000Y-88265000D01*
X144595010Y-87445010D02*
X144595009Y-70878597D01*
X145415000Y-88265000D02*
X144595010Y-87445010D01*
X144595009Y-70878597D02*
X144145000Y-70428588D01*
X144145000Y-52042500D02*
X143537500Y-51435000D01*
X144145000Y-70428588D02*
X144145000Y-52042500D01*
X146050000Y-119407500D02*
X146050000Y-119380000D01*
X143537500Y-121920000D02*
X146050000Y-119407500D01*
X50165000Y-116205000D02*
X50165000Y-100330000D01*
X50165000Y-100330000D02*
X50165000Y-49530000D01*
X69215000Y-119380000D02*
X69215000Y-86360000D01*
X69215000Y-86360000D02*
X69215000Y-55245000D01*
X69215000Y-55245000D02*
X69215000Y-44450000D01*
X69215000Y-44450000D02*
X67945000Y-43180000D01*
X143562802Y-122920003D02*
X143537500Y-122920003D01*
X146076401Y-120406404D02*
X143562802Y-122920003D01*
X106680000Y-114300000D02*
X106680000Y-101600000D01*
X106680000Y-101600000D02*
X106680000Y-88900000D01*
X106680000Y-88900000D02*
X106680000Y-71755000D01*
X106680000Y-71755000D02*
X106680000Y-53975000D01*
X106680000Y-53975000D02*
X106680000Y-44450000D01*
X106680000Y-44450000D02*
X107950000Y-43180000D01*
M02*
