G04 #@! TF.GenerationSoftware,KiCad,Pcbnew,5.1.5+dfsg1-2build2*
G04 #@! TF.CreationDate,2020-05-17T17:42:05-07:00*
G04 #@! TF.ProjectId,triad_left,74726961-645f-46c6-9566-742e6b696361,rev?*
G04 #@! TF.SameCoordinates,Original*
G04 #@! TF.FileFunction,Paste,Bot*
G04 #@! TF.FilePolarity,Positive*
%FSLAX46Y46*%
G04 Gerber Fmt 4.6, Leading zero omitted, Abs format (unit mm)*
G04 Created by KiCad (PCBNEW 5.1.5+dfsg1-2build2) date 2020-05-17 17:42:05*
%MOMM*%
%LPD*%
G04 APERTURE LIST*
%ADD10R,1.100000X1.100000*%
%ADD11R,1.500000X1.000000*%
%ADD12C,0.100000*%
G04 APERTURE END LIST*
D10*
X47562500Y-36275000D03*
X47562500Y-33475000D03*
X66612500Y-33475000D03*
X66612500Y-36275000D03*
X85662500Y-33275000D03*
X85662500Y-30475000D03*
X104712500Y-28275000D03*
X104712500Y-25475000D03*
X123762500Y-34275000D03*
X123762500Y-31475000D03*
X142812500Y-36475000D03*
X142812500Y-39275000D03*
X47562500Y-55325000D03*
X47562500Y-52525000D03*
X66612500Y-52525000D03*
X66612500Y-55325000D03*
X85662500Y-52325000D03*
X85662500Y-49525000D03*
X104712500Y-44525000D03*
X104712500Y-47325000D03*
X123762500Y-53325000D03*
X123762500Y-50525000D03*
X142812500Y-55525000D03*
X142812500Y-58325000D03*
X47562500Y-74375000D03*
X47562500Y-71575000D03*
X66612500Y-71575000D03*
X66612500Y-74375000D03*
X85662500Y-68575000D03*
X85662500Y-71375000D03*
X104712500Y-66374999D03*
X104712500Y-63574999D03*
X123762500Y-69575000D03*
X123762500Y-72375000D03*
X142812500Y-77375000D03*
X142812500Y-74575000D03*
X47562500Y-93425000D03*
X47562500Y-90625000D03*
X66612500Y-90625000D03*
X66612500Y-93425000D03*
X85662500Y-87625000D03*
X85662500Y-90425000D03*
X104712500Y-85425000D03*
X104712500Y-82625000D03*
X123762500Y-88625000D03*
X123762500Y-91425000D03*
X142812500Y-96425000D03*
X142812500Y-93625000D03*
X47562500Y-109675000D03*
X47562500Y-112475000D03*
X66612500Y-112475000D03*
X66612500Y-109675000D03*
X85662500Y-106675000D03*
X85662500Y-109475000D03*
X104712500Y-104475000D03*
X104712500Y-101675000D03*
X123762500Y-107675000D03*
X123762500Y-110475000D03*
X142812500Y-115475000D03*
X142812500Y-112675000D03*
X161862499Y-131725000D03*
X161862499Y-134525000D03*
X47562500Y-128725000D03*
X47562500Y-131525000D03*
X66612500Y-131525000D03*
X66612500Y-128725000D03*
X85662500Y-125725000D03*
X85662500Y-128525000D03*
X104712500Y-123525000D03*
X104712500Y-120725000D03*
X123762500Y-126725000D03*
X123762500Y-129525000D03*
X142812500Y-134525000D03*
X142812500Y-131725000D03*
D11*
X117950000Y-117000000D03*
X117950000Y-120200000D03*
X113050000Y-117000000D03*
X113050000Y-120200000D03*
X55900000Y-122200000D03*
X55900000Y-119000000D03*
X60800000Y-122200000D03*
X60800000Y-119000000D03*
X55900000Y-46000000D03*
X55900000Y-42800000D03*
X60800000Y-46000000D03*
X60800000Y-42800000D03*
X117950000Y-40800000D03*
X117950000Y-44000000D03*
X113050000Y-40800000D03*
X113050000Y-44000000D03*
D12*
G36*
X155534812Y-115104402D02*
G01*
X156519620Y-114930754D01*
X156570846Y-115221272D01*
X155586038Y-115394920D01*
X155534812Y-115104402D01*
G37*
G36*
X155447988Y-114611998D02*
G01*
X156432796Y-114438350D01*
X156484022Y-114728868D01*
X155499214Y-114902516D01*
X155447988Y-114611998D01*
G37*
G36*
X155361164Y-114119594D02*
G01*
X156345972Y-113945946D01*
X156397198Y-114236464D01*
X155412390Y-114410112D01*
X155361164Y-114119594D01*
G37*
G36*
X155274340Y-113627190D02*
G01*
X156259148Y-113453542D01*
X156310374Y-113744060D01*
X155325566Y-113917708D01*
X155274340Y-113627190D01*
G37*
G36*
X155187515Y-113134786D02*
G01*
X156172323Y-112961138D01*
X156223549Y-113251656D01*
X155238741Y-113425304D01*
X155187515Y-113134786D01*
G37*
G36*
X155100691Y-112642382D02*
G01*
X156085499Y-112468734D01*
X156136725Y-112759252D01*
X155151917Y-112932900D01*
X155100691Y-112642382D01*
G37*
G36*
X155013867Y-112149979D02*
G01*
X155998675Y-111976331D01*
X156049901Y-112266849D01*
X155065093Y-112440497D01*
X155013867Y-112149979D01*
G37*
G36*
X154927043Y-111657575D02*
G01*
X155911851Y-111483927D01*
X155963077Y-111774445D01*
X154978269Y-111948093D01*
X154927043Y-111657575D01*
G37*
G36*
X154840219Y-111165171D02*
G01*
X155825027Y-110991523D01*
X155876253Y-111282041D01*
X154891445Y-111455689D01*
X154840219Y-111165171D01*
G37*
G36*
X154753395Y-110672767D02*
G01*
X155738203Y-110499119D01*
X155789429Y-110789637D01*
X154804621Y-110963285D01*
X154753395Y-110672767D01*
G37*
G36*
X154666571Y-110180363D02*
G01*
X155651379Y-110006715D01*
X155702605Y-110297233D01*
X154717797Y-110470881D01*
X154666571Y-110180363D01*
G37*
G36*
X154579747Y-109687959D02*
G01*
X155564555Y-109514311D01*
X155615781Y-109804829D01*
X154630973Y-109978477D01*
X154579747Y-109687959D01*
G37*
G36*
X154492923Y-109195555D02*
G01*
X155477731Y-109021907D01*
X155528957Y-109312425D01*
X154544149Y-109486073D01*
X154492923Y-109195555D01*
G37*
G36*
X154406099Y-108703151D02*
G01*
X155390907Y-108529503D01*
X155442133Y-108820021D01*
X154457325Y-108993669D01*
X154406099Y-108703151D01*
G37*
G36*
X154319275Y-108210748D02*
G01*
X155304083Y-108037100D01*
X155355309Y-108327618D01*
X154370501Y-108501266D01*
X154319275Y-108210748D01*
G37*
G36*
X154232451Y-107718344D02*
G01*
X155217259Y-107544696D01*
X155268485Y-107835214D01*
X154283677Y-108008862D01*
X154232451Y-107718344D01*
G37*
G36*
X154145626Y-107225940D02*
G01*
X155130434Y-107052292D01*
X155181660Y-107342810D01*
X154196852Y-107516458D01*
X154145626Y-107225940D01*
G37*
G36*
X154058802Y-106733536D02*
G01*
X155043610Y-106559888D01*
X155094836Y-106850406D01*
X154110028Y-107024054D01*
X154058802Y-106733536D01*
G37*
G36*
X153971978Y-106241132D02*
G01*
X154956786Y-106067484D01*
X155008012Y-106358002D01*
X154023204Y-106531650D01*
X153971978Y-106241132D01*
G37*
G36*
X153885154Y-105748728D02*
G01*
X154869962Y-105575080D01*
X154921188Y-105865598D01*
X153936380Y-106039246D01*
X153885154Y-105748728D01*
G37*
G36*
X156005391Y-102224512D02*
G01*
X157285642Y-101998770D01*
X157592131Y-103736956D01*
X156311880Y-103962698D01*
X156005391Y-102224512D01*
G37*
G36*
X158477273Y-116243250D02*
G01*
X159757524Y-116017508D01*
X160064013Y-117755694D01*
X158783762Y-117981436D01*
X158477273Y-116243250D01*
G37*
G36*
X116874505Y-121711204D02*
G01*
X116898773Y-121714804D01*
X116922572Y-121720765D01*
X116945671Y-121729030D01*
X116967850Y-121739520D01*
X116988893Y-121752132D01*
X117008599Y-121766747D01*
X117026777Y-121783223D01*
X117043253Y-121801401D01*
X117057868Y-121821107D01*
X117070480Y-121842150D01*
X117080970Y-121864329D01*
X117089235Y-121887428D01*
X117095196Y-121911227D01*
X117098796Y-121935495D01*
X117100000Y-121959999D01*
X117100000Y-122860001D01*
X117098796Y-122884505D01*
X117095196Y-122908773D01*
X117089235Y-122932572D01*
X117080970Y-122955671D01*
X117070480Y-122977850D01*
X117057868Y-122998893D01*
X117043253Y-123018599D01*
X117026777Y-123036777D01*
X117008599Y-123053253D01*
X116988893Y-123067868D01*
X116967850Y-123080480D01*
X116945671Y-123090970D01*
X116922572Y-123099235D01*
X116898773Y-123105196D01*
X116874505Y-123108796D01*
X116850001Y-123110000D01*
X116199999Y-123110000D01*
X116175495Y-123108796D01*
X116151227Y-123105196D01*
X116127428Y-123099235D01*
X116104329Y-123090970D01*
X116082150Y-123080480D01*
X116061107Y-123067868D01*
X116041401Y-123053253D01*
X116023223Y-123036777D01*
X116006747Y-123018599D01*
X115992132Y-122998893D01*
X115979520Y-122977850D01*
X115969030Y-122955671D01*
X115960765Y-122932572D01*
X115954804Y-122908773D01*
X115951204Y-122884505D01*
X115950000Y-122860001D01*
X115950000Y-121959999D01*
X115951204Y-121935495D01*
X115954804Y-121911227D01*
X115960765Y-121887428D01*
X115969030Y-121864329D01*
X115979520Y-121842150D01*
X115992132Y-121821107D01*
X116006747Y-121801401D01*
X116023223Y-121783223D01*
X116041401Y-121766747D01*
X116061107Y-121752132D01*
X116082150Y-121739520D01*
X116104329Y-121729030D01*
X116127428Y-121720765D01*
X116151227Y-121714804D01*
X116175495Y-121711204D01*
X116199999Y-121710000D01*
X116850001Y-121710000D01*
X116874505Y-121711204D01*
G37*
G36*
X114824505Y-121711204D02*
G01*
X114848773Y-121714804D01*
X114872572Y-121720765D01*
X114895671Y-121729030D01*
X114917850Y-121739520D01*
X114938893Y-121752132D01*
X114958599Y-121766747D01*
X114976777Y-121783223D01*
X114993253Y-121801401D01*
X115007868Y-121821107D01*
X115020480Y-121842150D01*
X115030970Y-121864329D01*
X115039235Y-121887428D01*
X115045196Y-121911227D01*
X115048796Y-121935495D01*
X115050000Y-121959999D01*
X115050000Y-122860001D01*
X115048796Y-122884505D01*
X115045196Y-122908773D01*
X115039235Y-122932572D01*
X115030970Y-122955671D01*
X115020480Y-122977850D01*
X115007868Y-122998893D01*
X114993253Y-123018599D01*
X114976777Y-123036777D01*
X114958599Y-123053253D01*
X114938893Y-123067868D01*
X114917850Y-123080480D01*
X114895671Y-123090970D01*
X114872572Y-123099235D01*
X114848773Y-123105196D01*
X114824505Y-123108796D01*
X114800001Y-123110000D01*
X114149999Y-123110000D01*
X114125495Y-123108796D01*
X114101227Y-123105196D01*
X114077428Y-123099235D01*
X114054329Y-123090970D01*
X114032150Y-123080480D01*
X114011107Y-123067868D01*
X113991401Y-123053253D01*
X113973223Y-123036777D01*
X113956747Y-123018599D01*
X113942132Y-122998893D01*
X113929520Y-122977850D01*
X113919030Y-122955671D01*
X113910765Y-122932572D01*
X113904804Y-122908773D01*
X113901204Y-122884505D01*
X113900000Y-122860001D01*
X113900000Y-121959999D01*
X113901204Y-121935495D01*
X113904804Y-121911227D01*
X113910765Y-121887428D01*
X113919030Y-121864329D01*
X113929520Y-121842150D01*
X113942132Y-121821107D01*
X113956747Y-121801401D01*
X113973223Y-121783223D01*
X113991401Y-121766747D01*
X114011107Y-121752132D01*
X114032150Y-121739520D01*
X114054329Y-121729030D01*
X114077428Y-121720765D01*
X114101227Y-121714804D01*
X114125495Y-121711204D01*
X114149999Y-121710000D01*
X114800001Y-121710000D01*
X114824505Y-121711204D01*
G37*
G36*
X57674505Y-123711204D02*
G01*
X57698773Y-123714804D01*
X57722572Y-123720765D01*
X57745671Y-123729030D01*
X57767850Y-123739520D01*
X57788893Y-123752132D01*
X57808599Y-123766747D01*
X57826777Y-123783223D01*
X57843253Y-123801401D01*
X57857868Y-123821107D01*
X57870480Y-123842150D01*
X57880970Y-123864329D01*
X57889235Y-123887428D01*
X57895196Y-123911227D01*
X57898796Y-123935495D01*
X57900000Y-123959999D01*
X57900000Y-124860001D01*
X57898796Y-124884505D01*
X57895196Y-124908773D01*
X57889235Y-124932572D01*
X57880970Y-124955671D01*
X57870480Y-124977850D01*
X57857868Y-124998893D01*
X57843253Y-125018599D01*
X57826777Y-125036777D01*
X57808599Y-125053253D01*
X57788893Y-125067868D01*
X57767850Y-125080480D01*
X57745671Y-125090970D01*
X57722572Y-125099235D01*
X57698773Y-125105196D01*
X57674505Y-125108796D01*
X57650001Y-125110000D01*
X56999999Y-125110000D01*
X56975495Y-125108796D01*
X56951227Y-125105196D01*
X56927428Y-125099235D01*
X56904329Y-125090970D01*
X56882150Y-125080480D01*
X56861107Y-125067868D01*
X56841401Y-125053253D01*
X56823223Y-125036777D01*
X56806747Y-125018599D01*
X56792132Y-124998893D01*
X56779520Y-124977850D01*
X56769030Y-124955671D01*
X56760765Y-124932572D01*
X56754804Y-124908773D01*
X56751204Y-124884505D01*
X56750000Y-124860001D01*
X56750000Y-123959999D01*
X56751204Y-123935495D01*
X56754804Y-123911227D01*
X56760765Y-123887428D01*
X56769030Y-123864329D01*
X56779520Y-123842150D01*
X56792132Y-123821107D01*
X56806747Y-123801401D01*
X56823223Y-123783223D01*
X56841401Y-123766747D01*
X56861107Y-123752132D01*
X56882150Y-123739520D01*
X56904329Y-123729030D01*
X56927428Y-123720765D01*
X56951227Y-123714804D01*
X56975495Y-123711204D01*
X56999999Y-123710000D01*
X57650001Y-123710000D01*
X57674505Y-123711204D01*
G37*
G36*
X59724505Y-123711204D02*
G01*
X59748773Y-123714804D01*
X59772572Y-123720765D01*
X59795671Y-123729030D01*
X59817850Y-123739520D01*
X59838893Y-123752132D01*
X59858599Y-123766747D01*
X59876777Y-123783223D01*
X59893253Y-123801401D01*
X59907868Y-123821107D01*
X59920480Y-123842150D01*
X59930970Y-123864329D01*
X59939235Y-123887428D01*
X59945196Y-123911227D01*
X59948796Y-123935495D01*
X59950000Y-123959999D01*
X59950000Y-124860001D01*
X59948796Y-124884505D01*
X59945196Y-124908773D01*
X59939235Y-124932572D01*
X59930970Y-124955671D01*
X59920480Y-124977850D01*
X59907868Y-124998893D01*
X59893253Y-125018599D01*
X59876777Y-125036777D01*
X59858599Y-125053253D01*
X59838893Y-125067868D01*
X59817850Y-125080480D01*
X59795671Y-125090970D01*
X59772572Y-125099235D01*
X59748773Y-125105196D01*
X59724505Y-125108796D01*
X59700001Y-125110000D01*
X59049999Y-125110000D01*
X59025495Y-125108796D01*
X59001227Y-125105196D01*
X58977428Y-125099235D01*
X58954329Y-125090970D01*
X58932150Y-125080480D01*
X58911107Y-125067868D01*
X58891401Y-125053253D01*
X58873223Y-125036777D01*
X58856747Y-125018599D01*
X58842132Y-124998893D01*
X58829520Y-124977850D01*
X58819030Y-124955671D01*
X58810765Y-124932572D01*
X58804804Y-124908773D01*
X58801204Y-124884505D01*
X58800000Y-124860001D01*
X58800000Y-123959999D01*
X58801204Y-123935495D01*
X58804804Y-123911227D01*
X58810765Y-123887428D01*
X58819030Y-123864329D01*
X58829520Y-123842150D01*
X58842132Y-123821107D01*
X58856747Y-123801401D01*
X58873223Y-123783223D01*
X58891401Y-123766747D01*
X58911107Y-123752132D01*
X58932150Y-123739520D01*
X58954329Y-123729030D01*
X58977428Y-123720765D01*
X59001227Y-123714804D01*
X59025495Y-123711204D01*
X59049999Y-123710000D01*
X59700001Y-123710000D01*
X59724505Y-123711204D01*
G37*
G36*
X57674505Y-47511204D02*
G01*
X57698773Y-47514804D01*
X57722572Y-47520765D01*
X57745671Y-47529030D01*
X57767850Y-47539520D01*
X57788893Y-47552132D01*
X57808599Y-47566747D01*
X57826777Y-47583223D01*
X57843253Y-47601401D01*
X57857868Y-47621107D01*
X57870480Y-47642150D01*
X57880970Y-47664329D01*
X57889235Y-47687428D01*
X57895196Y-47711227D01*
X57898796Y-47735495D01*
X57900000Y-47759999D01*
X57900000Y-48660001D01*
X57898796Y-48684505D01*
X57895196Y-48708773D01*
X57889235Y-48732572D01*
X57880970Y-48755671D01*
X57870480Y-48777850D01*
X57857868Y-48798893D01*
X57843253Y-48818599D01*
X57826777Y-48836777D01*
X57808599Y-48853253D01*
X57788893Y-48867868D01*
X57767850Y-48880480D01*
X57745671Y-48890970D01*
X57722572Y-48899235D01*
X57698773Y-48905196D01*
X57674505Y-48908796D01*
X57650001Y-48910000D01*
X56999999Y-48910000D01*
X56975495Y-48908796D01*
X56951227Y-48905196D01*
X56927428Y-48899235D01*
X56904329Y-48890970D01*
X56882150Y-48880480D01*
X56861107Y-48867868D01*
X56841401Y-48853253D01*
X56823223Y-48836777D01*
X56806747Y-48818599D01*
X56792132Y-48798893D01*
X56779520Y-48777850D01*
X56769030Y-48755671D01*
X56760765Y-48732572D01*
X56754804Y-48708773D01*
X56751204Y-48684505D01*
X56750000Y-48660001D01*
X56750000Y-47759999D01*
X56751204Y-47735495D01*
X56754804Y-47711227D01*
X56760765Y-47687428D01*
X56769030Y-47664329D01*
X56779520Y-47642150D01*
X56792132Y-47621107D01*
X56806747Y-47601401D01*
X56823223Y-47583223D01*
X56841401Y-47566747D01*
X56861107Y-47552132D01*
X56882150Y-47539520D01*
X56904329Y-47529030D01*
X56927428Y-47520765D01*
X56951227Y-47514804D01*
X56975495Y-47511204D01*
X56999999Y-47510000D01*
X57650001Y-47510000D01*
X57674505Y-47511204D01*
G37*
G36*
X59724505Y-47511204D02*
G01*
X59748773Y-47514804D01*
X59772572Y-47520765D01*
X59795671Y-47529030D01*
X59817850Y-47539520D01*
X59838893Y-47552132D01*
X59858599Y-47566747D01*
X59876777Y-47583223D01*
X59893253Y-47601401D01*
X59907868Y-47621107D01*
X59920480Y-47642150D01*
X59930970Y-47664329D01*
X59939235Y-47687428D01*
X59945196Y-47711227D01*
X59948796Y-47735495D01*
X59950000Y-47759999D01*
X59950000Y-48660001D01*
X59948796Y-48684505D01*
X59945196Y-48708773D01*
X59939235Y-48732572D01*
X59930970Y-48755671D01*
X59920480Y-48777850D01*
X59907868Y-48798893D01*
X59893253Y-48818599D01*
X59876777Y-48836777D01*
X59858599Y-48853253D01*
X59838893Y-48867868D01*
X59817850Y-48880480D01*
X59795671Y-48890970D01*
X59772572Y-48899235D01*
X59748773Y-48905196D01*
X59724505Y-48908796D01*
X59700001Y-48910000D01*
X59049999Y-48910000D01*
X59025495Y-48908796D01*
X59001227Y-48905196D01*
X58977428Y-48899235D01*
X58954329Y-48890970D01*
X58932150Y-48880480D01*
X58911107Y-48867868D01*
X58891401Y-48853253D01*
X58873223Y-48836777D01*
X58856747Y-48818599D01*
X58842132Y-48798893D01*
X58829520Y-48777850D01*
X58819030Y-48755671D01*
X58810765Y-48732572D01*
X58804804Y-48708773D01*
X58801204Y-48684505D01*
X58800000Y-48660001D01*
X58800000Y-47759999D01*
X58801204Y-47735495D01*
X58804804Y-47711227D01*
X58810765Y-47687428D01*
X58819030Y-47664329D01*
X58829520Y-47642150D01*
X58842132Y-47621107D01*
X58856747Y-47601401D01*
X58873223Y-47583223D01*
X58891401Y-47566747D01*
X58911107Y-47552132D01*
X58932150Y-47539520D01*
X58954329Y-47529030D01*
X58977428Y-47520765D01*
X59001227Y-47514804D01*
X59025495Y-47511204D01*
X59049999Y-47510000D01*
X59700001Y-47510000D01*
X59724505Y-47511204D01*
G37*
G36*
X116874505Y-45511204D02*
G01*
X116898773Y-45514804D01*
X116922572Y-45520765D01*
X116945671Y-45529030D01*
X116967850Y-45539520D01*
X116988893Y-45552132D01*
X117008599Y-45566747D01*
X117026777Y-45583223D01*
X117043253Y-45601401D01*
X117057868Y-45621107D01*
X117070480Y-45642150D01*
X117080970Y-45664329D01*
X117089235Y-45687428D01*
X117095196Y-45711227D01*
X117098796Y-45735495D01*
X117100000Y-45759999D01*
X117100000Y-46660001D01*
X117098796Y-46684505D01*
X117095196Y-46708773D01*
X117089235Y-46732572D01*
X117080970Y-46755671D01*
X117070480Y-46777850D01*
X117057868Y-46798893D01*
X117043253Y-46818599D01*
X117026777Y-46836777D01*
X117008599Y-46853253D01*
X116988893Y-46867868D01*
X116967850Y-46880480D01*
X116945671Y-46890970D01*
X116922572Y-46899235D01*
X116898773Y-46905196D01*
X116874505Y-46908796D01*
X116850001Y-46910000D01*
X116199999Y-46910000D01*
X116175495Y-46908796D01*
X116151227Y-46905196D01*
X116127428Y-46899235D01*
X116104329Y-46890970D01*
X116082150Y-46880480D01*
X116061107Y-46867868D01*
X116041401Y-46853253D01*
X116023223Y-46836777D01*
X116006747Y-46818599D01*
X115992132Y-46798893D01*
X115979520Y-46777850D01*
X115969030Y-46755671D01*
X115960765Y-46732572D01*
X115954804Y-46708773D01*
X115951204Y-46684505D01*
X115950000Y-46660001D01*
X115950000Y-45759999D01*
X115951204Y-45735495D01*
X115954804Y-45711227D01*
X115960765Y-45687428D01*
X115969030Y-45664329D01*
X115979520Y-45642150D01*
X115992132Y-45621107D01*
X116006747Y-45601401D01*
X116023223Y-45583223D01*
X116041401Y-45566747D01*
X116061107Y-45552132D01*
X116082150Y-45539520D01*
X116104329Y-45529030D01*
X116127428Y-45520765D01*
X116151227Y-45514804D01*
X116175495Y-45511204D01*
X116199999Y-45510000D01*
X116850001Y-45510000D01*
X116874505Y-45511204D01*
G37*
G36*
X114824505Y-45511204D02*
G01*
X114848773Y-45514804D01*
X114872572Y-45520765D01*
X114895671Y-45529030D01*
X114917850Y-45539520D01*
X114938893Y-45552132D01*
X114958599Y-45566747D01*
X114976777Y-45583223D01*
X114993253Y-45601401D01*
X115007868Y-45621107D01*
X115020480Y-45642150D01*
X115030970Y-45664329D01*
X115039235Y-45687428D01*
X115045196Y-45711227D01*
X115048796Y-45735495D01*
X115050000Y-45759999D01*
X115050000Y-46660001D01*
X115048796Y-46684505D01*
X115045196Y-46708773D01*
X115039235Y-46732572D01*
X115030970Y-46755671D01*
X115020480Y-46777850D01*
X115007868Y-46798893D01*
X114993253Y-46818599D01*
X114976777Y-46836777D01*
X114958599Y-46853253D01*
X114938893Y-46867868D01*
X114917850Y-46880480D01*
X114895671Y-46890970D01*
X114872572Y-46899235D01*
X114848773Y-46905196D01*
X114824505Y-46908796D01*
X114800001Y-46910000D01*
X114149999Y-46910000D01*
X114125495Y-46908796D01*
X114101227Y-46905196D01*
X114077428Y-46899235D01*
X114054329Y-46890970D01*
X114032150Y-46880480D01*
X114011107Y-46867868D01*
X113991401Y-46853253D01*
X113973223Y-46836777D01*
X113956747Y-46818599D01*
X113942132Y-46798893D01*
X113929520Y-46777850D01*
X113919030Y-46755671D01*
X113910765Y-46732572D01*
X113904804Y-46708773D01*
X113901204Y-46684505D01*
X113900000Y-46660001D01*
X113900000Y-45759999D01*
X113901204Y-45735495D01*
X113904804Y-45711227D01*
X113910765Y-45687428D01*
X113919030Y-45664329D01*
X113929520Y-45642150D01*
X113942132Y-45621107D01*
X113956747Y-45601401D01*
X113973223Y-45583223D01*
X113991401Y-45566747D01*
X114011107Y-45552132D01*
X114032150Y-45539520D01*
X114054329Y-45529030D01*
X114077428Y-45520765D01*
X114101227Y-45514804D01*
X114125495Y-45511204D01*
X114149999Y-45510000D01*
X114800001Y-45510000D01*
X114824505Y-45511204D01*
G37*
M02*
