M48
; DRILL file {KiCad 5.1.5+dfsg1-2build2} date Sun 17 May 2020 05:42:19 PM PDT
; FORMAT={-:-/ absolute / inch / decimal}
; #@! TF.CreationDate,2020-05-17T17:42:19-07:00
; #@! TF.GenerationSoftware,Kicad,Pcbnew,5.1.5+dfsg1-2build2
; #@! TF.FileFunction,Plated,1,2,PTH
FMAT,2
INCH
T1C0.0157
T2C0.0591
T3C0.1378
%
G90
G05
T1
X1.6972Y-2.4778
X1.975Y-1.95
X1.975Y-4.575
X2.4472Y-2.5028
X2.675Y-1.7
X2.725Y-4.7
X3.1972Y-2.4028
X3.9472Y-2.9028
X4.2Y-4.5
X4.25Y-1.7
X4.6972Y-3.1778
X5.4472Y-3.4028
X5.6225Y-1.361
X5.6225Y-2.111
X5.6225Y-2.861
X5.6225Y-3.6
X5.6225Y-4.361
X5.6225Y-5.111
X5.6511Y-2.025
X5.6511Y-4.8
X5.6511Y-4.8394
X5.75Y-4.3388
X5.75Y-4.3888
X5.75Y-4.4388
X5.75Y-4.4888
X5.75Y-4.5388
X5.75Y-4.5888
X5.75Y-4.7
X5.751Y-4.7404
X5.95Y-4.45
X6.3725Y-5.111
T2
X5.1972Y-3.9411
X5.4472Y-3.8411
X2.1972Y-2.323
X2.4472Y-2.223
X4.4472Y-5.2443
X4.6972Y-5.1443
X2.9472Y-2.9549
X3.1972Y-2.8549
X2.1972Y-1.573
X2.4472Y-1.473
X2.1972Y-4.573
X2.4472Y-4.473
X1.4472Y-3.073
X1.6972Y-2.973
X2.1972Y-3.073
X2.4472Y-2.973
X5.9472Y-5.4411
X6.1972Y-5.3411
X1.4472Y-5.323
X1.6972Y-5.223
X5.1972Y-3.1911
X5.4472Y-3.0911
X1.4472Y-4.573
X1.6972Y-4.473
X2.9472Y-4.4549
X3.1972Y-4.3549
X3.6972Y-3.5081
X3.9472Y-3.4081
X2.1972Y-3.823
X2.4472Y-3.723
X1.4472Y-2.323
X1.6972Y-2.223
X2.1972Y-5.323
X2.4472Y-5.223
X5.1972Y-2.4411
X5.4472Y-2.3411
X3.6972Y-2.0081
X3.9472Y-1.9081
X3.6972Y-2.7581
X3.9472Y-2.6581
X1.4472Y-1.573
X1.6972Y-1.473
X3.6972Y-4.2581
X3.9472Y-4.1581
X4.4472Y-3.7443
X4.6972Y-3.6443
X1.4472Y-3.823
X1.6972Y-3.723
X2.9472Y-2.2049
X3.1972Y-2.1049
X2.9472Y-5.2049
X3.1972Y-5.1049
X5.1972Y-1.6911
X5.4472Y-1.5911
X4.4472Y-2.2443
X4.6972Y-2.1443
X4.4472Y-4.4943
X4.6972Y-4.3943
X2.9472Y-3.7049
X3.1972Y-3.6049
X5.1972Y-4.6911
X5.4472Y-4.5911
X2.9472Y-1.4549
X3.1972Y-1.3549
X5.1972Y-5.4411
X5.4472Y-5.3411
X4.4472Y-1.4943
X4.6972Y-1.3943
X3.6972Y-5.0081
X3.9472Y-4.9081
X4.4472Y-2.9943
X4.6972Y-2.8943
X3.6972Y-1.2581
X3.9472Y-1.1581
T3
X4.9222Y-4.6693
X1.9222Y-1.748
X1.9222Y-4.748
X4.9222Y-1.6693
T0
M30
