<?xml version="1.0" encoding="UTF-8" standalone="no"?>
<svg
   xmlns:dc="http://purl.org/dc/elements/1.1/"
   xmlns:cc="http://creativecommons.org/ns#"
   xmlns:rdf="http://www.w3.org/1999/02/22-rdf-syntax-ns#"
   xmlns:svg="http://www.w3.org/2000/svg"
   xmlns="http://www.w3.org/2000/svg"
   xmlns:sodipodi="http://sodipodi.sourceforge.net/DTD/sodipodi-0.dtd"
   xmlns:inkscape="http://www.inkscape.org/namespaces/inkscape"
   width="192mm"
   height="160mm"
   viewBox="0 0 192 160"
   version="1.1"
   id="svg220"
   sodipodi:docname="triad_right_switch.svg"
   inkscape:version="0.92.5 (2060ec1f9f, 2020-04-08)">
  <metadata
     id="metadata226">
    <rdf:RDF>
      <cc:Work
         rdf:about="">
        <dc:format>image/svg+xml</dc:format>
        <dc:type
           rdf:resource="http://purl.org/dc/dcmitype/StillImage" />
      </cc:Work>
    </rdf:RDF>
  </metadata>
  <defs
     id="defs224" />
  <sodipodi:namedview
     pagecolor="#ffffff"
     bordercolor="#666666"
     borderopacity="1"
     objecttolerance="10"
     gridtolerance="10"
     guidetolerance="10"
     inkscape:pageopacity="0"
     inkscape:pageshadow="2"
     inkscape:window-width="3416"
     inkscape:window-height="1364"
     id="namedview222"
     showgrid="false"
     inkscape:zoom="1.5610417"
     inkscape:cx="377.41657"
     inkscape:cy="247.26834"
     inkscape:window-x="10"
     inkscape:window-y="64"
     inkscape:window-maximized="0"
     inkscape:current-layer="svg220" />
  <g
     id="switch"
     transform="translate(96.45,80)"
     style="fill:none;stroke:#0000ff;stroke-opacity:1;stroke-width:0.1;stroke-miterlimit:4;stroke-dasharray:none">
    <g
       id="Outer"
       style="fill:none;stroke:#0000ff;stroke-opacity:1;stroke-width:0.1;stroke-miterlimit:4;stroke-dasharray:none">
      <g
         id="PlatePerimeter"
         style="fill:none;stroke:#0000ff;stroke-opacity:1;stroke-width:0.1;stroke-miterlimit:4;stroke-dasharray:none">
        <g
           id=""
           style="fill:none;stroke:#0000ff;stroke-opacity:1;stroke-width:0.1;stroke-miterlimit:4;stroke-dasharray:none">
          <path
             style="fill:none;fill-opacity:1;stroke:#0000ff;stroke-width:0.1;stroke-opacity:1;stroke-miterlimit:4;stroke-dasharray:none"
             d="M 69.675 -54.259 Q 69.675 -57.259 66.704 -57.675 L 12.705 -65.234 Q 9.734 -65.65 6.734 -65.65 L -6.949 -65.65 Q -9.949 -65.65 -12.831 -64.818 L -49.749 -54.159 Q -52.631 -53.327 -53.152 -50.373 L -69.154 40.384 Q -69.675 43.338 -69.675 46.338 L -69.675 62.65 Q -69.675 65.65 -66.675 65.65 L -31.496 65.65 Q -28.496 65.65 -25.5 65.493 L 25.658 62.807 Q 28.654 62.65 31.654 62.65 L 66.675 62.65 Q 69.675 62.65 69.675 59.65 L 69.675 -54.259"
             id="path2" />
        </g>
      </g>
      <g
         id="ScrewHoles"
         style="fill:none;stroke:#0000ff;stroke-opacity:1;stroke-width:0.1;stroke-miterlimit:4;stroke-dasharray:none">
        <g
           id="g8"
           transform="translate(-28.575,-37.6)"
           style="fill:none;stroke:#0000ff;stroke-opacity:1;stroke-width:0.1;stroke-miterlimit:4;stroke-dasharray:none">
          <circle
             r="1.15"
             style="fill:none;stroke:#0000ff;stroke-width:0.1;stroke-opacity:1;stroke-miterlimit:4;stroke-dasharray:none"
             id="circle6" />
        </g>
        <g
           id="g12"
           transform="translate(47.625,-35.6)"
           style="fill:none;stroke:#0000ff;stroke-opacity:1;stroke-width:0.1;stroke-miterlimit:4;stroke-dasharray:none">
          <circle
             r="1.15"
             style="fill:none;stroke:#0000ff;stroke-width:0.1;stroke-opacity:1;stroke-miterlimit:4;stroke-dasharray:none"
             id="circle10" />
        </g>
        <g
           id="g16"
           transform="translate(-28.575,38.6)"
           style="fill:none;stroke:#0000ff;stroke-opacity:1;stroke-width:0.1;stroke-miterlimit:4;stroke-dasharray:none">
          <circle
             r="1.15"
             style="fill:none;stroke:#0000ff;stroke-width:0.1;stroke-opacity:1;stroke-miterlimit:4;stroke-dasharray:none"
             id="circle14" />
        </g>
        <g
           id="g20"
           transform="translate(47.625,40.6)"
           style="fill:none;stroke:#0000ff;stroke-opacity:1;stroke-width:0.1;stroke-miterlimit:4;stroke-dasharray:none">
          <circle
             r="1.15"
             style="fill:none;stroke:#0000ff;stroke-width:0.1;stroke-opacity:1;stroke-miterlimit:4;stroke-dasharray:none"
             id="circle18" />
        </g>
      </g>
      <g
         id="Right"
         style="fill:none;stroke:#0000ff;stroke-opacity:1;stroke-width:0.1;stroke-miterlimit:4;stroke-dasharray:none">
        <g
           id="Column08"
           transform="translate(-57.15,5.5)"
           style="fill:none;stroke:#0000ff;stroke-opacity:1;stroke-width:0.1;stroke-miterlimit:4;stroke-dasharray:none">
          <g
             id="g23"
             transform="translate(0,-9.525002)"
             style="fill:none;stroke:#0000ff;stroke-opacity:1;stroke-width:0.1;stroke-miterlimit:4;stroke-dasharray:none" />
          <g
             id="Column08Key04"
             transform="translate(0,47.625)"
             style="fill:none;stroke:#0000ff;stroke-opacity:1;stroke-width:0.1;stroke-miterlimit:4;stroke-dasharray:none">
            <g
               id="g27"
               style="fill:none;stroke:#0000ff;stroke-opacity:1;stroke-width:0.1;stroke-miterlimit:4;stroke-dasharray:none">
              <path
                 style="fill:none;fill-opacity:1;stroke:#0000ff;stroke-width:0.1;stroke-opacity:1;stroke-miterlimit:4;stroke-dasharray:none"
                 d="M -7 -7 L 7 -7 L 7 -6 L 7.8 -6 L 7.8 6 L 7 6 L 7 7 L -7 7 L -7 6 L -7.8 6 L -7.8 -6 L -7 -6 L -7 -7"
                 id="path25" />
            </g>
          </g>
        </g>
        <g
           id="Column09"
           transform="translate(-38.100002,5.5)"
           style="fill:none;stroke:#0000ff;stroke-opacity:1;stroke-width:0.1;stroke-miterlimit:4;stroke-dasharray:none">
          <g
             id="Column09Key00"
             transform="translate(0,-47.625004)"
             style="fill:none;stroke:#0000ff;stroke-opacity:1;stroke-width:0.1;stroke-miterlimit:4;stroke-dasharray:none">
            <g
               id="g33"
               style="fill:none;stroke:#0000ff;stroke-opacity:1;stroke-width:0.1;stroke-miterlimit:4;stroke-dasharray:none">
              <path
                 style="fill:none;fill-opacity:1;stroke:#0000ff;stroke-width:0.1;stroke-opacity:1;stroke-miterlimit:4;stroke-dasharray:none"
                 d="M -7 -7 L 7 -7 L 7 -6 L 7.8 -6 L 7.8 6 L 7 6 L 7 7 L -7 7 L -7 6 L -7.8 6 L -7.8 -6 L -7 -6 L -7 -7"
                 id="path31" />
            </g>
          </g>
          <g
             id="Column09Key01"
             transform="translate(0,-28.575003)"
             style="fill:none;stroke:#0000ff;stroke-opacity:1;stroke-width:0.1;stroke-miterlimit:4;stroke-dasharray:none">
            <g
               id="g38"
               style="fill:none;stroke:#0000ff;stroke-opacity:1;stroke-width:0.1;stroke-miterlimit:4;stroke-dasharray:none">
              <path
                 style="fill:none;fill-opacity:1;stroke:#0000ff;stroke-width:0.1;stroke-opacity:1;stroke-miterlimit:4;stroke-dasharray:none"
                 d="M -7 -7 L 7 -7 L 7 -6 L 7.8 -6 L 7.8 6 L 7 6 L 7 7 L -7 7 L -7 6 L -7.8 6 L -7.8 -6 L -7 -6 L -7 -7"
                 id="path36" />
            </g>
          </g>
          <g
             id="Column09Key02"
             transform="translate(0,-9.525005)"
             style="fill:none;stroke:#0000ff;stroke-opacity:1;stroke-width:0.1;stroke-miterlimit:4;stroke-dasharray:none">
            <g
               id="g43"
               style="fill:none;stroke:#0000ff;stroke-opacity:1;stroke-width:0.1;stroke-miterlimit:4;stroke-dasharray:none">
              <path
                 style="fill:none;fill-opacity:1;stroke:#0000ff;stroke-width:0.1;stroke-opacity:1;stroke-miterlimit:4;stroke-dasharray:none"
                 d="M -7 -7 L 7 -7 L 7 -6 L 7.8 -6 L 7.8 6 L 7 6 L 7 7 L -7 7 L -7 6 L -7.8 6 L -7.8 -6 L -7 -6 L -7 -7"
                 id="path41" />
            </g>
          </g>
          <g
             id="Column09Key03"
             transform="translate(0,9.524998)"
             style="fill:none;stroke:#0000ff;stroke-opacity:1;stroke-width:0.1;stroke-miterlimit:4;stroke-dasharray:none">
            <g
               id="g48"
               style="fill:none;stroke:#0000ff;stroke-opacity:1;stroke-width:0.1;stroke-miterlimit:4;stroke-dasharray:none">
              <path
                 style="fill:none;fill-opacity:1;stroke:#0000ff;stroke-width:0.1;stroke-opacity:1;stroke-miterlimit:4;stroke-dasharray:none"
                 d="M -7 -7 L 7 -7 L 7 -6 L 7.8 -6 L 7.8 6 L 7 6 L 7 7 L -7 7 L -7 6 L -7.8 6 L -7.8 -6 L -7 -6 L -7 -7"
                 id="path46" />
            </g>
          </g>
          <g
             id="Column09Key04"
             transform="translate(0,28.575)"
             style="fill:none;stroke:#0000ff;stroke-opacity:1;stroke-width:0.1;stroke-miterlimit:4;stroke-dasharray:none">
            <g
               id="g53"
               style="fill:none;stroke:#0000ff;stroke-opacity:1;stroke-width:0.1;stroke-miterlimit:4;stroke-dasharray:none">
              <path
                 style="fill:none;fill-opacity:1;stroke:#0000ff;stroke-width:0.1;stroke-opacity:1;stroke-miterlimit:4;stroke-dasharray:none"
                 d="M -7 -7 L 7 -7 L 7 -6 L 7.8 -6 L 7.8 6 L 7 6 L 7 7 L -7 7 L -7 6 L -7.8 6 L -7.8 -6 L -7 -6 L -7 -7"
                 id="path51" />
            </g>
          </g>
          <g
             id="Column09Key05"
             transform="translate(0,47.625004)"
             style="fill:none;stroke:#0000ff;stroke-opacity:1;stroke-width:0.1;stroke-miterlimit:4;stroke-dasharray:none">
            <g
               id="g58"
               style="fill:none;stroke:#0000ff;stroke-opacity:1;stroke-width:0.1;stroke-miterlimit:4;stroke-dasharray:none">
              <path
                 style="fill:none;fill-opacity:1;stroke:#0000ff;stroke-width:0.1;stroke-opacity:1;stroke-miterlimit:4;stroke-dasharray:none"
                 d="M -7 -7 L 7 -7 L 7 -6 L 7.8 -6 L 7.8 6 L 7 6 L 7 7 L -7 7 L -7 6 L -7.8 6 L -7.8 -6 L -7 -6 L -7 -7"
                 id="path56" />
            </g>
          </g>
        </g>
        <g
           id="Column10"
           transform="translate(-19.05,0.5)"
           style="fill:none;stroke:#0000ff;stroke-opacity:1;stroke-width:0.1;stroke-miterlimit:4;stroke-dasharray:none">
          <g
             id="Column10Key00"
             transform="translate(0,-47.625004)"
             style="fill:none;stroke:#0000ff;stroke-opacity:1;stroke-width:0.1;stroke-miterlimit:4;stroke-dasharray:none">
            <g
               id="g64"
               style="fill:none;stroke:#0000ff;stroke-opacity:1;stroke-width:0.1;stroke-miterlimit:4;stroke-dasharray:none">
              <path
                 style="fill:none;fill-opacity:1;stroke:#0000ff;stroke-width:0.1;stroke-opacity:1;stroke-miterlimit:4;stroke-dasharray:none"
                 d="M -7 -7 L 7 -7 L 7 -6 L 7.8 -6 L 7.8 6 L 7 6 L 7 7 L -7 7 L -7 6 L -7.8 6 L -7.8 -6 L -7 -6 L -7 -7"
                 id="path62" />
            </g>
          </g>
          <g
             id="Column10Key01"
             transform="translate(0,-28.575003)"
             style="fill:none;stroke:#0000ff;stroke-opacity:1;stroke-width:0.1;stroke-miterlimit:4;stroke-dasharray:none">
            <g
               id="g69"
               style="fill:none;stroke:#0000ff;stroke-opacity:1;stroke-width:0.1;stroke-miterlimit:4;stroke-dasharray:none">
              <path
                 style="fill:none;fill-opacity:1;stroke:#0000ff;stroke-width:0.1;stroke-opacity:1;stroke-miterlimit:4;stroke-dasharray:none"
                 d="M -7 -7 L 7 -7 L 7 -6 L 7.8 -6 L 7.8 6 L 7 6 L 7 7 L -7 7 L -7 6 L -7.8 6 L -7.8 -6 L -7 -6 L -7 -7"
                 id="path67" />
            </g>
          </g>
          <g
             id="Column10Key02"
             transform="translate(0,-9.525005)"
             style="fill:none;stroke:#0000ff;stroke-opacity:1;stroke-width:0.1;stroke-miterlimit:4;stroke-dasharray:none">
            <g
               id="g74"
               style="fill:none;stroke:#0000ff;stroke-opacity:1;stroke-width:0.1;stroke-miterlimit:4;stroke-dasharray:none">
              <path
                 style="fill:none;fill-opacity:1;stroke:#0000ff;stroke-width:0.1;stroke-opacity:1;stroke-miterlimit:4;stroke-dasharray:none"
                 d="M -7 -7 L 7 -7 L 7 -6 L 7.8 -6 L 7.8 6 L 7 6 L 7 7 L -7 7 L -7 6 L -7.8 6 L -7.8 -6 L -7 -6 L -7 -7"
                 id="path72" />
            </g>
          </g>
          <g
             id="Column10Key03"
             transform="translate(0,9.524998)"
             style="fill:none;stroke:#0000ff;stroke-opacity:1;stroke-width:0.1;stroke-miterlimit:4;stroke-dasharray:none">
            <g
               id="g79"
               style="fill:none;stroke:#0000ff;stroke-opacity:1;stroke-width:0.1;stroke-miterlimit:4;stroke-dasharray:none">
              <path
                 style="fill:none;fill-opacity:1;stroke:#0000ff;stroke-width:0.1;stroke-opacity:1;stroke-miterlimit:4;stroke-dasharray:none"
                 d="M -7 -7 L 7 -7 L 7 -6 L 7.8 -6 L 7.8 6 L 7 6 L 7 7 L -7 7 L -7 6 L -7.8 6 L -7.8 -6 L -7 -6 L -7 -7"
                 id="path77" />
            </g>
          </g>
          <g
             id="Column10Key04"
             transform="translate(0,28.575)"
             style="fill:none;stroke:#0000ff;stroke-opacity:1;stroke-width:0.1;stroke-miterlimit:4;stroke-dasharray:none">
            <g
               id="g84"
               style="fill:none;stroke:#0000ff;stroke-opacity:1;stroke-width:0.1;stroke-miterlimit:4;stroke-dasharray:none">
              <path
                 style="fill:none;fill-opacity:1;stroke:#0000ff;stroke-width:0.1;stroke-opacity:1;stroke-miterlimit:4;stroke-dasharray:none"
                 d="M -7 -7 L 7 -7 L 7 -6 L 7.8 -6 L 7.8 6 L 7 6 L 7 7 L -7 7 L -7 6 L -7.8 6 L -7.8 -6 L -7 -6 L -7 -7"
                 id="path82" />
            </g>
          </g>
          <g
             id="Column10Key05"
             transform="translate(0,47.625004)"
             style="fill:none;stroke:#0000ff;stroke-opacity:1;stroke-width:0.1;stroke-miterlimit:4;stroke-dasharray:none">
            <g
               id="g89"
               style="fill:none;stroke:#0000ff;stroke-opacity:1;stroke-width:0.1;stroke-miterlimit:4;stroke-dasharray:none">
              <path
                 style="fill:none;fill-opacity:1;stroke:#0000ff;stroke-width:0.1;stroke-opacity:1;stroke-miterlimit:4;stroke-dasharray:none"
                 d="M -7 -7 L 7 -7 L 7 -6 L 7.8 -6 L 7.8 6 L 7 6 L 7 7 L -7 7 L -7 6 L -7.8 6 L -7.8 -6 L -7 -6 L -7 -7"
                 id="path87" />
            </g>
          </g>
        </g>
        <g
           id="Column11"
           transform="translate(0,-5.5)"
           style="fill:none;stroke:#0000ff;stroke-opacity:1;stroke-width:0.1;stroke-miterlimit:4;stroke-dasharray:none">
          <g
             id="Column11Key00"
             transform="translate(0,-47.625004)"
             style="fill:none;stroke:#0000ff;stroke-opacity:1;stroke-width:0.1;stroke-miterlimit:4;stroke-dasharray:none">
            <g
               id="g95"
               style="fill:none;stroke:#0000ff;stroke-opacity:1;stroke-width:0.1;stroke-miterlimit:4;stroke-dasharray:none">
              <path
                 style="fill:none;fill-opacity:1;stroke:#0000ff;stroke-width:0.1;stroke-opacity:1;stroke-miterlimit:4;stroke-dasharray:none"
                 d="M -7 -7 L 7 -7 L 7 -6 L 7.8 -6 L 7.8 6 L 7 6 L 7 7 L -7 7 L -7 6 L -7.8 6 L -7.8 -6 L -7 -6 L -7 -7"
                 id="path93" />
            </g>
          </g>
          <g
             id="Column11Key01"
             transform="translate(0,-28.575003)"
             style="fill:none;stroke:#0000ff;stroke-opacity:1;stroke-width:0.1;stroke-miterlimit:4;stroke-dasharray:none">
            <g
               id="g100"
               style="fill:none;stroke:#0000ff;stroke-opacity:1;stroke-width:0.1;stroke-miterlimit:4;stroke-dasharray:none">
              <path
                 style="fill:none;fill-opacity:1;stroke:#0000ff;stroke-width:0.1;stroke-opacity:1;stroke-miterlimit:4;stroke-dasharray:none"
                 d="M -7 -7 L 7 -7 L 7 -6 L 7.8 -6 L 7.8 6 L 7 6 L 7 7 L -7 7 L -7 6 L -7.8 6 L -7.8 -6 L -7 -6 L -7 -7"
                 id="path98" />
            </g>
          </g>
          <g
             id="Column11Key02"
             transform="translate(0,-9.525005)"
             style="fill:none;stroke:#0000ff;stroke-opacity:1;stroke-width:0.1;stroke-miterlimit:4;stroke-dasharray:none">
            <g
               id="g105"
               style="fill:none;stroke:#0000ff;stroke-opacity:1;stroke-width:0.1;stroke-miterlimit:4;stroke-dasharray:none">
              <path
                 style="fill:none;fill-opacity:1;stroke:#0000ff;stroke-width:0.1;stroke-opacity:1;stroke-miterlimit:4;stroke-dasharray:none"
                 d="M -7 -7 L 7 -7 L 7 -6 L 7.8 -6 L 7.8 6 L 7 6 L 7 7 L -7 7 L -7 6 L -7.8 6 L -7.8 -6 L -7 -6 L -7 -7"
                 id="path103" />
            </g>
          </g>
          <g
             id="Column11Key03"
             transform="translate(0,9.524998)"
             style="fill:none;stroke:#0000ff;stroke-opacity:1;stroke-width:0.1;stroke-miterlimit:4;stroke-dasharray:none">
            <g
               id="g110"
               style="fill:none;stroke:#0000ff;stroke-opacity:1;stroke-width:0.1;stroke-miterlimit:4;stroke-dasharray:none">
              <path
                 style="fill:none;fill-opacity:1;stroke:#0000ff;stroke-width:0.1;stroke-opacity:1;stroke-miterlimit:4;stroke-dasharray:none"
                 d="M -7 -7 L 7 -7 L 7 -6 L 7.8 -6 L 7.8 6 L 7 6 L 7 7 L -7 7 L -7 6 L -7.8 6 L -7.8 -6 L -7 -6 L -7 -7"
                 id="path108" />
            </g>
          </g>
          <g
             id="Column11Key04"
             transform="translate(0,28.575)"
             style="fill:none;stroke:#0000ff;stroke-opacity:1;stroke-width:0.1;stroke-miterlimit:4;stroke-dasharray:none">
            <g
               id="g115"
               style="fill:none;stroke:#0000ff;stroke-opacity:1;stroke-width:0.1;stroke-miterlimit:4;stroke-dasharray:none">
              <path
                 style="fill:none;fill-opacity:1;stroke:#0000ff;stroke-width:0.1;stroke-opacity:1;stroke-miterlimit:4;stroke-dasharray:none"
                 d="M -7 -7 L 7 -7 L 7 -6 L 7.8 -6 L 7.8 6 L 7 6 L 7 7 L -7 7 L -7 6 L -7.8 6 L -7.8 -6 L -7 -6 L -7 -7"
                 id="path113" />
            </g>
          </g>
          <g
             id="Column11Key05"
             transform="translate(0,47.625004)"
             style="fill:none;stroke:#0000ff;stroke-opacity:1;stroke-width:0.1;stroke-miterlimit:4;stroke-dasharray:none">
            <g
               id="g120"
               style="fill:none;stroke:#0000ff;stroke-opacity:1;stroke-width:0.1;stroke-miterlimit:4;stroke-dasharray:none">
              <path
                 style="fill:none;fill-opacity:1;stroke:#0000ff;stroke-width:0.1;stroke-opacity:1;stroke-miterlimit:4;stroke-dasharray:none"
                 d="M -7 -7 L 7 -7 L 7 -6 L 7.8 -6 L 7.8 6 L 7 6 L 7 7 L -7 7 L -7 6 L -7.8 6 L -7.8 -6 L -7 -6 L -7 -7"
                 id="path118" />
            </g>
          </g>
        </g>
        <g
           id="Column12"
           transform="translate(19.050003,-0.5)"
           style="fill:none;stroke:#0000ff;stroke-opacity:1;stroke-width:0.1;stroke-miterlimit:4;stroke-dasharray:none">
          <g
             id="Column12Key00"
             transform="translate(0,-47.625004)"
             style="fill:none;stroke:#0000ff;stroke-opacity:1;stroke-width:0.1;stroke-miterlimit:4;stroke-dasharray:none">
            <g
               id="g126"
               style="fill:none;stroke:#0000ff;stroke-opacity:1;stroke-width:0.1;stroke-miterlimit:4;stroke-dasharray:none">
              <path
                 style="fill:none;fill-opacity:1;stroke:#0000ff;stroke-width:0.1;stroke-opacity:1;stroke-miterlimit:4;stroke-dasharray:none"
                 d="M -7 -7 L 7 -7 L 7 -6 L 7.8 -6 L 7.8 6 L 7 6 L 7 7 L -7 7 L -7 6 L -7.8 6 L -7.8 -6 L -7 -6 L -7 -7"
                 id="path124" />
            </g>
          </g>
          <g
             id="Column12Key01"
             transform="translate(0,-28.575003)"
             style="fill:none;stroke:#0000ff;stroke-opacity:1;stroke-width:0.1;stroke-miterlimit:4;stroke-dasharray:none">
            <g
               id="g131"
               style="fill:none;stroke:#0000ff;stroke-opacity:1;stroke-width:0.1;stroke-miterlimit:4;stroke-dasharray:none">
              <path
                 style="fill:none;fill-opacity:1;stroke:#0000ff;stroke-width:0.1;stroke-opacity:1;stroke-miterlimit:4;stroke-dasharray:none"
                 d="M -7 -7 L 7 -7 L 7 -6 L 7.8 -6 L 7.8 6 L 7 6 L 7 7 L -7 7 L -7 6 L -7.8 6 L -7.8 -6 L -7 -6 L -7 -7"
                 id="path129" />
            </g>
          </g>
          <g
             id="Column12Key02"
             transform="translate(0,-9.525005)"
             style="fill:none;stroke:#0000ff;stroke-opacity:1;stroke-width:0.1;stroke-miterlimit:4;stroke-dasharray:none">
            <g
               id="g136"
               style="fill:none;stroke:#0000ff;stroke-opacity:1;stroke-width:0.1;stroke-miterlimit:4;stroke-dasharray:none">
              <path
                 style="fill:none;fill-opacity:1;stroke:#0000ff;stroke-width:0.1;stroke-opacity:1;stroke-miterlimit:4;stroke-dasharray:none"
                 d="M -7 -7 L 7 -7 L 7 -6 L 7.8 -6 L 7.8 6 L 7 6 L 7 7 L -7 7 L -7 6 L -7.8 6 L -7.8 -6 L -7 -6 L -7 -7"
                 id="path134" />
            </g>
          </g>
          <g
             id="Column12Key03"
             transform="translate(0,9.524998)"
             style="fill:none;stroke:#0000ff;stroke-opacity:1;stroke-width:0.1;stroke-miterlimit:4;stroke-dasharray:none">
            <g
               id="g141"
               style="fill:none;stroke:#0000ff;stroke-opacity:1;stroke-width:0.1;stroke-miterlimit:4;stroke-dasharray:none">
              <path
                 style="fill:none;fill-opacity:1;stroke:#0000ff;stroke-width:0.1;stroke-opacity:1;stroke-miterlimit:4;stroke-dasharray:none"
                 d="M -7 -7 L 7 -7 L 7 -6 L 7.8 -6 L 7.8 6 L 7 6 L 7 7 L -7 7 L -7 6 L -7.8 6 L -7.8 -6 L -7 -6 L -7 -7"
                 id="path139" />
            </g>
          </g>
          <g
             id="Column12Key04"
             transform="translate(0,28.575)"
             style="fill:none;stroke:#0000ff;stroke-opacity:1;stroke-width:0.1;stroke-miterlimit:4;stroke-dasharray:none">
            <g
               id="g146"
               style="fill:none;stroke:#0000ff;stroke-opacity:1;stroke-width:0.1;stroke-miterlimit:4;stroke-dasharray:none">
              <path
                 style="fill:none;fill-opacity:1;stroke:#0000ff;stroke-width:0.1;stroke-opacity:1;stroke-miterlimit:4;stroke-dasharray:none"
                 d="M -7 -7 L 7 -7 L 7 -6 L 7.8 -6 L 7.8 6 L 7 6 L 7 7 L -7 7 L -7 6 L -7.8 6 L -7.8 -6 L -7 -6 L -7 -7"
                 id="path144" />
            </g>
          </g>
          <g
             id="Column12Key05"
             transform="translate(0,47.625004)"
             style="fill:none;stroke:#0000ff;stroke-opacity:1;stroke-width:0.1;stroke-miterlimit:4;stroke-dasharray:none">
            <g
               id="g151"
               style="fill:none;stroke:#0000ff;stroke-opacity:1;stroke-width:0.1;stroke-miterlimit:4;stroke-dasharray:none">
              <path
                 style="fill:none;fill-opacity:1;stroke:#0000ff;stroke-width:0.1;stroke-opacity:1;stroke-miterlimit:4;stroke-dasharray:none"
                 d="M -7 -7 L 7 -7 L 7 -6 L 7.8 -6 L 7.8 6 L 7 6 L 7 7 L -7 7 L -7 6 L -7.8 6 L -7.8 -6 L -7 -6 L -7 -7"
                 id="path149" />
            </g>
          </g>
        </g>
        <g
           id="Column13"
           transform="translate(38.100006,2.5)"
           style="fill:none;stroke:#0000ff;stroke-opacity:1;stroke-width:0.1;stroke-miterlimit:4;stroke-dasharray:none">
          <g
             id="Column13Key00"
             transform="translate(0,-47.625004)"
             style="fill:none;stroke:#0000ff;stroke-opacity:1;stroke-width:0.1;stroke-miterlimit:4;stroke-dasharray:none">
            <g
               id="g157"
               style="fill:none;stroke:#0000ff;stroke-opacity:1;stroke-width:0.1;stroke-miterlimit:4;stroke-dasharray:none">
              <path
                 style="fill:none;fill-opacity:1;stroke:#0000ff;stroke-width:0.1;stroke-opacity:1;stroke-miterlimit:4;stroke-dasharray:none"
                 d="M -7 -7 L 7 -7 L 7 -6 L 7.8 -6 L 7.8 6 L 7 6 L 7 7 L -7 7 L -7 6 L -7.8 6 L -7.8 -6 L -7 -6 L -7 -7"
                 id="path155" />
            </g>
          </g>
          <g
             id="Column13Key01"
             transform="translate(0,-28.575003)"
             style="fill:none;stroke:#0000ff;stroke-opacity:1;stroke-width:0.1;stroke-miterlimit:4;stroke-dasharray:none">
            <g
               id="g162"
               style="fill:none;stroke:#0000ff;stroke-opacity:1;stroke-width:0.1;stroke-miterlimit:4;stroke-dasharray:none">
              <path
                 style="fill:none;fill-opacity:1;stroke:#0000ff;stroke-width:0.1;stroke-opacity:1;stroke-miterlimit:4;stroke-dasharray:none"
                 d="M -7 -7 L 7 -7 L 7 -6 L 7.8 -6 L 7.8 6 L 7 6 L 7 7 L -7 7 L -7 6 L -7.8 6 L -7.8 -6 L -7 -6 L -7 -7"
                 id="path160" />
            </g>
          </g>
          <g
             id="Column13Key02"
             transform="translate(0,-9.525005)"
             style="fill:none;stroke:#0000ff;stroke-opacity:1;stroke-width:0.1;stroke-miterlimit:4;stroke-dasharray:none">
            <g
               id="g167"
               style="fill:none;stroke:#0000ff;stroke-opacity:1;stroke-width:0.1;stroke-miterlimit:4;stroke-dasharray:none">
              <path
                 style="fill:none;fill-opacity:1;stroke:#0000ff;stroke-width:0.1;stroke-opacity:1;stroke-miterlimit:4;stroke-dasharray:none"
                 d="M -7 -7 L 7 -7 L 7 -6 L 7.8 -6 L 7.8 6 L 7 6 L 7 7 L -7 7 L -7 6 L -7.8 6 L -7.8 -6 L -7 -6 L -7 -7"
                 id="path165" />
            </g>
          </g>
          <g
             id="Column13Key03"
             transform="translate(0,9.524998)"
             style="fill:none;stroke:#0000ff;stroke-opacity:1;stroke-width:0.1;stroke-miterlimit:4;stroke-dasharray:none">
            <g
               id="g172"
               style="fill:none;stroke:#0000ff;stroke-opacity:1;stroke-width:0.1;stroke-miterlimit:4;stroke-dasharray:none">
              <path
                 style="fill:none;fill-opacity:1;stroke:#0000ff;stroke-width:0.1;stroke-opacity:1;stroke-miterlimit:4;stroke-dasharray:none"
                 d="M -7 -7 L 7 -7 L 7 -6 L 7.8 -6 L 7.8 6 L 7 6 L 7 7 L -7 7 L -7 6 L -7.8 6 L -7.8 -6 L -7 -6 L -7 -7"
                 id="path170" />
            </g>
          </g>
          <g
             id="Column13Key04"
             transform="translate(0,28.575)"
             style="fill:none;stroke:#0000ff;stroke-opacity:1;stroke-width:0.1;stroke-miterlimit:4;stroke-dasharray:none">
            <g
               id="g177"
               style="fill:none;stroke:#0000ff;stroke-opacity:1;stroke-width:0.1;stroke-miterlimit:4;stroke-dasharray:none">
              <path
                 style="fill:none;fill-opacity:1;stroke:#0000ff;stroke-width:0.1;stroke-opacity:1;stroke-miterlimit:4;stroke-dasharray:none"
                 d="M -7 -7 L 7 -7 L 7 -6 L 7.8 -6 L 7.8 6 L 7 6 L 7 7 L -7 7 L -7 6 L -7.8 6 L -7.8 -6 L -7 -6 L -7 -7"
                 id="path175" />
            </g>
          </g>
          <g
             id="Column13Key05"
             transform="translate(0,47.625004)"
             style="fill:none;stroke:#0000ff;stroke-opacity:1;stroke-width:0.1;stroke-miterlimit:4;stroke-dasharray:none">
            <g
               id="g182"
               style="fill:none;stroke:#0000ff;stroke-opacity:1;stroke-width:0.1;stroke-miterlimit:4;stroke-dasharray:none">
              <path
                 style="fill:none;fill-opacity:1;stroke:#0000ff;stroke-width:0.1;stroke-opacity:1;stroke-miterlimit:4;stroke-dasharray:none"
                 d="M -7 -7 L 7 -7 L 7 -6 L 7.8 -6 L 7.8 6 L 7 6 L 7 7 L -7 7 L -7 6 L -7.8 6 L -7.8 -6 L -7 -6 L -7 -7"
                 id="path180" />
            </g>
          </g>
        </g>
        <g
           id="Column14"
           transform="translate(57.15001,2.5)"
           style="fill:none;stroke:#0000ff;stroke-opacity:1;stroke-width:0.1;stroke-miterlimit:4;stroke-dasharray:none">
          <g
             id="Column14Key00"
             transform="translate(0,-47.625004)"
             style="fill:none;stroke:#0000ff;stroke-opacity:1;stroke-width:0.1;stroke-miterlimit:4;stroke-dasharray:none">
            <g
               id="g188"
               style="fill:none;stroke:#0000ff;stroke-opacity:1;stroke-width:0.1;stroke-miterlimit:4;stroke-dasharray:none">
              <path
                 style="fill:none;fill-opacity:1;stroke:#0000ff;stroke-width:0.1;stroke-opacity:1;stroke-miterlimit:4;stroke-dasharray:none"
                 d="M -7 -7 L 7 -7 L 7 -6 L 7.8 -6 L 7.8 6 L 7 6 L 7 7 L -7 7 L -7 6 L -7.8 6 L -7.8 -6 L -7 -6 L -7 -7"
                 id="path186" />
            </g>
          </g>
          <g
             id="Column14Key01"
             transform="translate(0,-28.575003)"
             style="fill:none;stroke:#0000ff;stroke-opacity:1;stroke-width:0.1;stroke-miterlimit:4;stroke-dasharray:none">
            <g
               id="g193"
               style="fill:none;stroke:#0000ff;stroke-opacity:1;stroke-width:0.1;stroke-miterlimit:4;stroke-dasharray:none">
              <path
                 style="fill:none;fill-opacity:1;stroke:#0000ff;stroke-width:0.1;stroke-opacity:1;stroke-miterlimit:4;stroke-dasharray:none"
                 d="M -7 -7 L 7 -7 L 7 -6 L 7.8 -6 L 7.8 6 L 7 6 L 7 7 L -7 7 L -7 6 L -7.8 6 L -7.8 -6 L -7 -6 L -7 -7"
                 id="path191" />
            </g>
          </g>
          <g
             id="Column14Key02"
             transform="translate(0,-9.525005)"
             style="fill:none;stroke:#0000ff;stroke-opacity:1;stroke-width:0.1;stroke-miterlimit:4;stroke-dasharray:none">
            <g
               id="g198"
               style="fill:none;stroke:#0000ff;stroke-opacity:1;stroke-width:0.1;stroke-miterlimit:4;stroke-dasharray:none">
              <path
                 style="fill:none;fill-opacity:1;stroke:#0000ff;stroke-width:0.1;stroke-opacity:1;stroke-miterlimit:4;stroke-dasharray:none"
                 d="M -7 -7 L 7 -7 L 7 -6 L 7.8 -6 L 7.8 6 L 7 6 L 7 7 L -7 7 L -7 6 L -7.8 6 L -7.8 -6 L -7 -6 L -7 -7"
                 id="path196" />
            </g>
          </g>
          <g
             id="Column14Key03"
             transform="translate(0,9.524998)"
             style="fill:none;stroke:#0000ff;stroke-opacity:1;stroke-width:0.1;stroke-miterlimit:4;stroke-dasharray:none">
            <g
               id="g203"
               style="fill:none;stroke:#0000ff;stroke-opacity:1;stroke-width:0.1;stroke-miterlimit:4;stroke-dasharray:none">
              <path
                 style="fill:none;fill-opacity:1;stroke:#0000ff;stroke-width:0.1;stroke-opacity:1;stroke-miterlimit:4;stroke-dasharray:none"
                 d="M -7 -7 L 7 -7 L 7 -6 L 7.8 -6 L 7.8 6 L 7 6 L 7 7 L -7 7 L -7 6 L -7.8 6 L -7.8 -6 L -7 -6 L -7 -7"
                 id="path201" />
            </g>
          </g>
          <g
             id="Column14Key04"
             transform="translate(0,28.575)"
             style="fill:none;stroke:#0000ff;stroke-opacity:1;stroke-width:0.1;stroke-miterlimit:4;stroke-dasharray:none">
            <g
               id="g208"
               style="fill:none;stroke:#0000ff;stroke-opacity:1;stroke-width:0.1;stroke-miterlimit:4;stroke-dasharray:none">
              <path
                 style="fill:none;fill-opacity:1;stroke:#0000ff;stroke-width:0.1;stroke-opacity:1;stroke-miterlimit:4;stroke-dasharray:none"
                 d="M -7 -7 L 7 -7 L 7 -6 L 7.8 -6 L 7.8 6 L 7 6 L 7 7 L -7 7 L -7 6 L -7.8 6 L -7.8 -6 L -7 -6 L -7 -7"
                 id="path206" />
            </g>
          </g>
          <g
             id="Column14Key05"
             transform="translate(0,47.625004)"
             style="fill:none;stroke:#0000ff;stroke-opacity:1;stroke-width:0.1;stroke-miterlimit:4;stroke-dasharray:none">
            <g
               id="g213"
               style="fill:none;stroke:#0000ff;stroke-opacity:1;stroke-width:0.1;stroke-miterlimit:4;stroke-dasharray:none">
              <path
                 style="fill:none;fill-opacity:1;stroke:#0000ff;stroke-width:0.1;stroke-opacity:1;stroke-miterlimit:4;stroke-dasharray:none"
                 d="M -7 -7 L 7 -7 L 7 -6 L 7.8 -6 L 7.8 6 L 7 6 L 7 7 L -7 7 L -7 6 L -7.8 6 L -7.8 -6 L -7 -6 L -7 -7"
                 id="path211" />
            </g>
          </g>
        </g>
      </g>
    </g>
  </g>
</svg>
