<?xml version="1.0" encoding="UTF-8" standalone="no"?>
<svg
   xmlns:dc="http://purl.org/dc/elements/1.1/"
   xmlns:cc="http://creativecommons.org/ns#"
   xmlns:rdf="http://www.w3.org/1999/02/22-rdf-syntax-ns#"
   xmlns:svg="http://www.w3.org/2000/svg"
   xmlns="http://www.w3.org/2000/svg"
   xmlns:sodipodi="http://sodipodi.sourceforge.net/DTD/sodipodi-0.dtd"
   xmlns:inkscape="http://www.inkscape.org/namespaces/inkscape"
   width="192mm"
   height="160mm"
   viewBox="0 0 192 160"
   version="1.1"
   id="svg220"
   sodipodi:docname="triad_left_switch.svg"
   inkscape:version="0.92.5 (2060ec1f9f, 2020-04-08)">
  <metadata
     id="metadata226">
    <rdf:RDF>
      <cc:Work
         rdf:about="">
        <dc:format>image/svg+xml</dc:format>
        <dc:type
           rdf:resource="http://purl.org/dc/dcmitype/StillImage" />
        <dc:title></dc:title>
      </cc:Work>
    </rdf:RDF>
  </metadata>
  <defs
     id="defs224" />
  <sodipodi:namedview
     pagecolor="#ffffff"
     bordercolor="#666666"
     borderopacity="1"
     objecttolerance="10"
     gridtolerance="10"
     guidetolerance="10"
     inkscape:pageopacity="0"
     inkscape:pageshadow="2"
     inkscape:window-width="3416"
     inkscape:window-height="1364"
     id="namedview222"
     showgrid="false"
     inkscape:zoom="2.2076463"
     inkscape:cx="366.1985"
     inkscape:cy="309.91719"
     inkscape:window-x="10"
     inkscape:window-y="64"
     inkscape:window-maximized="0"
     inkscape:current-layer="svg220" />
  <g
     id="switch"
     transform="translate(96.45,80)"
     style="fill:none;stroke:#0000ff;stroke-opacity:1;stroke-width:0.1;stroke-miterlimit:4;stroke-dasharray:none">
    <g
       id="Outer"
       style="fill:none;stroke:#0000ff;stroke-opacity:1;stroke-width:0.1;stroke-miterlimit:4;stroke-dasharray:none">
      <g
         id="PlatePerimeter"
         style="fill:none;stroke:#0000ff;stroke-opacity:1;stroke-width:0.1;stroke-miterlimit:4;stroke-dasharray:none">
        <g
           id=""
           style="fill:none;stroke:#0000ff;stroke-opacity:1;stroke-width:0.1;stroke-miterlimit:4;stroke-dasharray:none">
          <path
             style="fill:none;fill-opacity:1;stroke:#0000ff;stroke-width:0.1;stroke-opacity:1;stroke-miterlimit:4;stroke-dasharray:none"
             d="M -69.675 -54.259 Q -69.675 -57.259 -66.704 -57.675 L -12.705 -65.234 Q -9.734 -65.65 -6.734 -65.65 L 6.949 -65.65 Q 9.949 -65.65 12.831 -64.818 L 49.749 -54.159 Q 52.631 -53.327 53.152 -50.373 L 69.154 40.384 Q 69.675 43.338 69.675 46.338 L 69.675 62.65 Q 69.675 65.65 66.675 65.65 L 31.496 65.65 Q 28.496 65.65 25.5 65.493 L -25.658 62.807 Q -28.654 62.65 -31.654 62.65 L -66.675 62.65 Q -69.675 62.65 -69.675 59.65 L -69.675 -54.259"
             id="path2" />
        </g>
      </g>
      <g
         id="ScrewHoles"
         style="fill:none;stroke:#0000ff;stroke-opacity:1;stroke-width:0.1;stroke-miterlimit:4;stroke-dasharray:none">
        <g
           id="g8"
           transform="translate(-47.625,-35.6)"
           style="fill:none;stroke:#0000ff;stroke-opacity:1;stroke-width:0.1;stroke-miterlimit:4;stroke-dasharray:none">
          <circle
             r="1.15"
             style="fill:none;stroke:#0000ff;stroke-width:0.1;stroke-opacity:1;stroke-miterlimit:4;stroke-dasharray:none"
             id="circle6" />
        </g>
        <g
           id="g12"
           transform="translate(28.575,-37.6)"
           style="fill:none;stroke:#0000ff;stroke-opacity:1;stroke-width:0.1;stroke-miterlimit:4;stroke-dasharray:none">
          <circle
             r="1.15"
             style="fill:none;stroke:#0000ff;stroke-width:0.1;stroke-opacity:1;stroke-miterlimit:4;stroke-dasharray:none"
             id="circle10" />
        </g>
        <g
           id="g16"
           transform="translate(-47.625,40.6)"
           style="fill:none;stroke:#0000ff;stroke-opacity:1;stroke-width:0.1;stroke-miterlimit:4;stroke-dasharray:none">
          <circle
             r="1.15"
             style="fill:none;stroke:#0000ff;stroke-width:0.1;stroke-opacity:1;stroke-miterlimit:4;stroke-dasharray:none"
             id="circle14" />
        </g>
        <g
           id="g20"
           transform="translate(28.575,38.6)"
           style="fill:none;stroke:#0000ff;stroke-opacity:1;stroke-width:0.1;stroke-miterlimit:4;stroke-dasharray:none">
          <circle
             r="1.15"
             style="fill:none;stroke:#0000ff;stroke-width:0.1;stroke-opacity:1;stroke-miterlimit:4;stroke-dasharray:none"
             id="circle18" />
        </g>
      </g>
      <g
         id="Keys"
         style="fill:none;stroke:#0000ff;stroke-opacity:1;stroke-width:0.1;stroke-miterlimit:4;stroke-dasharray:none">
        <g
           id="Column00"
           transform="translate(-57.15,2.5)"
           style="fill:none;stroke:#0000ff;stroke-opacity:1;stroke-width:0.1;stroke-miterlimit:4;stroke-dasharray:none">
          <g
             id="Column00Key00"
             transform="translate(0,-47.625004)"
             style="fill:none;stroke:#0000ff;stroke-opacity:1;stroke-width:0.1;stroke-miterlimit:4;stroke-dasharray:none">
            <g
               id="g25"
               style="fill:none;stroke:#0000ff;stroke-opacity:1;stroke-width:0.1;stroke-miterlimit:4;stroke-dasharray:none">
              <path
                 style="fill:none;fill-opacity:1;stroke:#0000ff;stroke-width:0.1;stroke-opacity:1;stroke-miterlimit:4;stroke-dasharray:none"
                 d="M -7 -7 L 7 -7 L 7 -6 L 7.8 -6 L 7.8 6 L 7 6 L 7 7 L -7 7 L -7 6 L -7.8 6 L -7.8 -6 L -7 -6 L -7 -7"
                 id="path23" />
            </g>
          </g>
          <g
             id="Column00Key01"
             transform="translate(0,-28.575003)"
             style="fill:none;stroke:#0000ff;stroke-opacity:1;stroke-width:0.1;stroke-miterlimit:4;stroke-dasharray:none">
            <g
               id="g30"
               style="fill:none;stroke:#0000ff;stroke-opacity:1;stroke-width:0.1;stroke-miterlimit:4;stroke-dasharray:none">
              <path
                 style="fill:none;fill-opacity:1;stroke:#0000ff;stroke-width:0.1;stroke-opacity:1;stroke-miterlimit:4;stroke-dasharray:none"
                 d="M -7 -7 L 7 -7 L 7 -6 L 7.8 -6 L 7.8 6 L 7 6 L 7 7 L -7 7 L -7 6 L -7.8 6 L -7.8 -6 L -7 -6 L -7 -7"
                 id="path28" />
            </g>
          </g>
          <g
             id="Column00Key02"
             transform="translate(0,-9.525005)"
             style="fill:none;stroke:#0000ff;stroke-opacity:1;stroke-width:0.1;stroke-miterlimit:4;stroke-dasharray:none">
            <g
               id="g35"
               style="fill:none;stroke:#0000ff;stroke-opacity:1;stroke-width:0.1;stroke-miterlimit:4;stroke-dasharray:none">
              <path
                 style="fill:none;fill-opacity:1;stroke:#0000ff;stroke-width:0.1;stroke-opacity:1;stroke-miterlimit:4;stroke-dasharray:none"
                 d="M -7 -7 L 7 -7 L 7 -6 L 7.8 -6 L 7.8 6 L 7 6 L 7 7 L -7 7 L -7 6 L -7.8 6 L -7.8 -6 L -7 -6 L -7 -7"
                 id="path33" />
            </g>
          </g>
          <g
             id="Column00Key03"
             transform="translate(0,9.524998)"
             style="fill:none;stroke:#0000ff;stroke-opacity:1;stroke-width:0.1;stroke-miterlimit:4;stroke-dasharray:none">
            <g
               id="g40"
               style="fill:none;stroke:#0000ff;stroke-opacity:1;stroke-width:0.1;stroke-miterlimit:4;stroke-dasharray:none">
              <path
                 style="fill:none;fill-opacity:1;stroke:#0000ff;stroke-width:0.1;stroke-opacity:1;stroke-miterlimit:4;stroke-dasharray:none"
                 d="M -7 -7 L 7 -7 L 7 -6 L 7.8 -6 L 7.8 6 L 7 6 L 7 7 L -7 7 L -7 6 L -7.8 6 L -7.8 -6 L -7 -6 L -7 -7"
                 id="path38" />
            </g>
          </g>
          <g
             id="Column00Key04"
             transform="translate(0,28.575)"
             style="fill:none;stroke:#0000ff;stroke-opacity:1;stroke-width:0.1;stroke-miterlimit:4;stroke-dasharray:none">
            <g
               id="g45"
               style="fill:none;stroke:#0000ff;stroke-opacity:1;stroke-width:0.1;stroke-miterlimit:4;stroke-dasharray:none">
              <path
                 style="fill:none;fill-opacity:1;stroke:#0000ff;stroke-width:0.1;stroke-opacity:1;stroke-miterlimit:4;stroke-dasharray:none"
                 d="M -7 -7 L 7 -7 L 7 -6 L 7.8 -6 L 7.8 6 L 7 6 L 7 7 L -7 7 L -7 6 L -7.8 6 L -7.8 -6 L -7 -6 L -7 -7"
                 id="path43" />
            </g>
          </g>
          <g
             id="Column00Key05"
             transform="translate(0,47.625004)"
             style="fill:none;stroke:#0000ff;stroke-opacity:1;stroke-width:0.1;stroke-miterlimit:4;stroke-dasharray:none">
            <g
               id="g50"
               style="fill:none;stroke:#0000ff;stroke-opacity:1;stroke-width:0.1;stroke-miterlimit:4;stroke-dasharray:none">
              <path
                 style="fill:none;fill-opacity:1;stroke:#0000ff;stroke-width:0.1;stroke-opacity:1;stroke-miterlimit:4;stroke-dasharray:none"
                 d="M -7 -7 L 7 -7 L 7 -6 L 7.8 -6 L 7.8 6 L 7 6 L 7 7 L -7 7 L -7 6 L -7.8 6 L -7.8 -6 L -7 -6 L -7 -7"
                 id="path48" />
            </g>
          </g>
        </g>
        <g
           id="Column01"
           transform="translate(-38.100002,2.5)"
           style="fill:none;stroke:#0000ff;stroke-opacity:1;stroke-width:0.1;stroke-miterlimit:4;stroke-dasharray:none">
          <g
             id="Column01Key00"
             transform="translate(0,-47.625004)"
             style="fill:none;stroke:#0000ff;stroke-opacity:1;stroke-width:0.1;stroke-miterlimit:4;stroke-dasharray:none">
            <g
               id="g56"
               style="fill:none;stroke:#0000ff;stroke-opacity:1;stroke-width:0.1;stroke-miterlimit:4;stroke-dasharray:none">
              <path
                 style="fill:none;fill-opacity:1;stroke:#0000ff;stroke-width:0.1;stroke-opacity:1;stroke-miterlimit:4;stroke-dasharray:none"
                 d="M -7 -7 L 7 -7 L 7 -6 L 7.8 -6 L 7.8 6 L 7 6 L 7 7 L -7 7 L -7 6 L -7.8 6 L -7.8 -6 L -7 -6 L -7 -7"
                 id="path54" />
            </g>
          </g>
          <g
             id="Column01Key01"
             transform="translate(0,-28.575003)"
             style="fill:none;stroke:#0000ff;stroke-opacity:1;stroke-width:0.1;stroke-miterlimit:4;stroke-dasharray:none">
            <g
               id="g61"
               style="fill:none;stroke:#0000ff;stroke-opacity:1;stroke-width:0.1;stroke-miterlimit:4;stroke-dasharray:none">
              <path
                 style="fill:none;fill-opacity:1;stroke:#0000ff;stroke-width:0.1;stroke-opacity:1;stroke-miterlimit:4;stroke-dasharray:none"
                 d="M -7 -7 L 7 -7 L 7 -6 L 7.8 -6 L 7.8 6 L 7 6 L 7 7 L -7 7 L -7 6 L -7.8 6 L -7.8 -6 L -7 -6 L -7 -7"
                 id="path59" />
            </g>
          </g>
          <g
             id="Column01Key02"
             transform="translate(0,-9.525005)"
             style="fill:none;stroke:#0000ff;stroke-opacity:1;stroke-width:0.1;stroke-miterlimit:4;stroke-dasharray:none">
            <g
               id="g66"
               style="fill:none;stroke:#0000ff;stroke-opacity:1;stroke-width:0.1;stroke-miterlimit:4;stroke-dasharray:none">
              <path
                 style="fill:none;fill-opacity:1;stroke:#0000ff;stroke-width:0.1;stroke-opacity:1;stroke-miterlimit:4;stroke-dasharray:none"
                 d="M -7 -7 L 7 -7 L 7 -6 L 7.8 -6 L 7.8 6 L 7 6 L 7 7 L -7 7 L -7 6 L -7.8 6 L -7.8 -6 L -7 -6 L -7 -7"
                 id="path64" />
            </g>
          </g>
          <g
             id="Column01Key03"
             transform="translate(0,9.524998)"
             style="fill:none;stroke:#0000ff;stroke-opacity:1;stroke-width:0.1;stroke-miterlimit:4;stroke-dasharray:none">
            <g
               id="g71"
               style="fill:none;stroke:#0000ff;stroke-opacity:1;stroke-width:0.1;stroke-miterlimit:4;stroke-dasharray:none">
              <path
                 style="fill:none;fill-opacity:1;stroke:#0000ff;stroke-width:0.1;stroke-opacity:1;stroke-miterlimit:4;stroke-dasharray:none"
                 d="M -7 -7 L 7 -7 L 7 -6 L 7.8 -6 L 7.8 6 L 7 6 L 7 7 L -7 7 L -7 6 L -7.8 6 L -7.8 -6 L -7 -6 L -7 -7"
                 id="path69" />
            </g>
          </g>
          <g
             id="Column01Key04"
             transform="translate(0,28.575)"
             style="fill:none;stroke:#0000ff;stroke-opacity:1;stroke-width:0.1;stroke-miterlimit:4;stroke-dasharray:none">
            <g
               id="g76"
               style="fill:none;stroke:#0000ff;stroke-opacity:1;stroke-width:0.1;stroke-miterlimit:4;stroke-dasharray:none">
              <path
                 style="fill:none;fill-opacity:1;stroke:#0000ff;stroke-width:0.1;stroke-opacity:1;stroke-miterlimit:4;stroke-dasharray:none"
                 d="M -7 -7 L 7 -7 L 7 -6 L 7.8 -6 L 7.8 6 L 7 6 L 7 7 L -7 7 L -7 6 L -7.8 6 L -7.8 -6 L -7 -6 L -7 -7"
                 id="path74" />
            </g>
          </g>
          <g
             id="Column01Key05"
             transform="translate(0,47.625004)"
             style="fill:none;stroke:#0000ff;stroke-opacity:1;stroke-width:0.1;stroke-miterlimit:4;stroke-dasharray:none">
            <g
               id="g81"
               style="fill:none;stroke:#0000ff;stroke-opacity:1;stroke-width:0.1;stroke-miterlimit:4;stroke-dasharray:none">
              <path
                 style="fill:none;fill-opacity:1;stroke:#0000ff;stroke-width:0.1;stroke-opacity:1;stroke-miterlimit:4;stroke-dasharray:none"
                 d="M -7 -7 L 7 -7 L 7 -6 L 7.8 -6 L 7.8 6 L 7 6 L 7 7 L -7 7 L -7 6 L -7.8 6 L -7.8 -6 L -7 -6 L -7 -7"
                 id="path79" />
            </g>
          </g>
        </g>
        <g
           id="Column02"
           transform="translate(-19.05,-0.5)"
           style="fill:none;stroke:#0000ff;stroke-opacity:1;stroke-width:0.1;stroke-miterlimit:4;stroke-dasharray:none">
          <g
             id="Column02Key00"
             transform="translate(0,-47.625004)"
             style="fill:none;stroke:#0000ff;stroke-opacity:1;stroke-width:0.1;stroke-miterlimit:4;stroke-dasharray:none">
            <g
               id="g87"
               style="fill:none;stroke:#0000ff;stroke-opacity:1;stroke-width:0.1;stroke-miterlimit:4;stroke-dasharray:none">
              <path
                 style="fill:none;fill-opacity:1;stroke:#0000ff;stroke-width:0.1;stroke-opacity:1;stroke-miterlimit:4;stroke-dasharray:none"
                 d="M -7 -7 L 7 -7 L 7 -6 L 7.8 -6 L 7.8 6 L 7 6 L 7 7 L -7 7 L -7 6 L -7.8 6 L -7.8 -6 L -7 -6 L -7 -7"
                 id="path85" />
            </g>
          </g>
          <g
             id="Column02Key01"
             transform="translate(0,-28.575003)"
             style="fill:none;stroke:#0000ff;stroke-opacity:1;stroke-width:0.1;stroke-miterlimit:4;stroke-dasharray:none">
            <g
               id="g92"
               style="fill:none;stroke:#0000ff;stroke-opacity:1;stroke-width:0.1;stroke-miterlimit:4;stroke-dasharray:none">
              <path
                 style="fill:none;fill-opacity:1;stroke:#0000ff;stroke-width:0.1;stroke-opacity:1;stroke-miterlimit:4;stroke-dasharray:none"
                 d="M -7 -7 L 7 -7 L 7 -6 L 7.8 -6 L 7.8 6 L 7 6 L 7 7 L -7 7 L -7 6 L -7.8 6 L -7.8 -6 L -7 -6 L -7 -7"
                 id="path90" />
            </g>
          </g>
          <g
             id="Column02Key02"
             transform="translate(0,-9.525005)"
             style="fill:none;stroke:#0000ff;stroke-opacity:1;stroke-width:0.1;stroke-miterlimit:4;stroke-dasharray:none">
            <g
               id="g97"
               style="fill:none;stroke:#0000ff;stroke-opacity:1;stroke-width:0.1;stroke-miterlimit:4;stroke-dasharray:none">
              <path
                 style="fill:none;fill-opacity:1;stroke:#0000ff;stroke-width:0.1;stroke-opacity:1;stroke-miterlimit:4;stroke-dasharray:none"
                 d="M -7 -7 L 7 -7 L 7 -6 L 7.8 -6 L 7.8 6 L 7 6 L 7 7 L -7 7 L -7 6 L -7.8 6 L -7.8 -6 L -7 -6 L -7 -7"
                 id="path95" />
            </g>
          </g>
          <g
             id="Column02Key03"
             transform="translate(0,9.524998)"
             style="fill:none;stroke:#0000ff;stroke-opacity:1;stroke-width:0.1;stroke-miterlimit:4;stroke-dasharray:none">
            <g
               id="g102"
               style="fill:none;stroke:#0000ff;stroke-opacity:1;stroke-width:0.1;stroke-miterlimit:4;stroke-dasharray:none">
              <path
                 style="fill:none;fill-opacity:1;stroke:#0000ff;stroke-width:0.1;stroke-opacity:1;stroke-miterlimit:4;stroke-dasharray:none"
                 d="M -7 -7 L 7 -7 L 7 -6 L 7.8 -6 L 7.8 6 L 7 6 L 7 7 L -7 7 L -7 6 L -7.8 6 L -7.8 -6 L -7 -6 L -7 -7"
                 id="path100" />
            </g>
          </g>
          <g
             id="Column02Key04"
             transform="translate(0,28.575)"
             style="fill:none;stroke:#0000ff;stroke-opacity:1;stroke-width:0.1;stroke-miterlimit:4;stroke-dasharray:none">
            <g
               id="g107"
               style="fill:none;stroke:#0000ff;stroke-opacity:1;stroke-width:0.1;stroke-miterlimit:4;stroke-dasharray:none">
              <path
                 style="fill:none;fill-opacity:1;stroke:#0000ff;stroke-width:0.1;stroke-opacity:1;stroke-miterlimit:4;stroke-dasharray:none"
                 d="M -7 -7 L 7 -7 L 7 -6 L 7.8 -6 L 7.8 6 L 7 6 L 7 7 L -7 7 L -7 6 L -7.8 6 L -7.8 -6 L -7 -6 L -7 -7"
                 id="path105" />
            </g>
          </g>
          <g
             id="Column02Key05"
             transform="translate(0,47.625004)"
             style="fill:none;stroke:#0000ff;stroke-opacity:1;stroke-width:0.1;stroke-miterlimit:4;stroke-dasharray:none">
            <g
               id="g112"
               style="fill:none;stroke:#0000ff;stroke-opacity:1;stroke-width:0.1;stroke-miterlimit:4;stroke-dasharray:none">
              <path
                 style="fill:none;fill-opacity:1;stroke:#0000ff;stroke-width:0.1;stroke-opacity:1;stroke-miterlimit:4;stroke-dasharray:none"
                 d="M -7 -7 L 7 -7 L 7 -6 L 7.8 -6 L 7.8 6 L 7 6 L 7 7 L -7 7 L -7 6 L -7.8 6 L -7.8 -6 L -7 -6 L -7 -7"
                 id="path110" />
            </g>
          </g>
        </g>
        <g
           id="Column03"
           transform="translate(0,-5.5)"
           style="fill:none;stroke:#0000ff;stroke-opacity:1;stroke-width:0.1;stroke-miterlimit:4;stroke-dasharray:none">
          <g
             id="Column03Key00"
             transform="translate(0,-47.625004)"
             style="fill:none;stroke:#0000ff;stroke-opacity:1;stroke-width:0.1;stroke-miterlimit:4;stroke-dasharray:none">
            <g
               id="g118"
               style="fill:none;stroke:#0000ff;stroke-opacity:1;stroke-width:0.1;stroke-miterlimit:4;stroke-dasharray:none">
              <path
                 style="fill:none;fill-opacity:1;stroke:#0000ff;stroke-width:0.1;stroke-opacity:1;stroke-miterlimit:4;stroke-dasharray:none"
                 d="M -7 -7 L 7 -7 L 7 -6 L 7.8 -6 L 7.8 6 L 7 6 L 7 7 L -7 7 L -7 6 L -7.8 6 L -7.8 -6 L -7 -6 L -7 -7"
                 id="path116" />
            </g>
          </g>
          <g
             id="Column03Key01"
             transform="translate(0,-28.575003)"
             style="fill:none;stroke:#0000ff;stroke-opacity:1;stroke-width:0.1;stroke-miterlimit:4;stroke-dasharray:none">
            <g
               id="g123"
               style="fill:none;stroke:#0000ff;stroke-opacity:1;stroke-width:0.1;stroke-miterlimit:4;stroke-dasharray:none">
              <path
                 style="fill:none;fill-opacity:1;stroke:#0000ff;stroke-width:0.1;stroke-opacity:1;stroke-miterlimit:4;stroke-dasharray:none"
                 d="M -7 -7 L 7 -7 L 7 -6 L 7.8 -6 L 7.8 6 L 7 6 L 7 7 L -7 7 L -7 6 L -7.8 6 L -7.8 -6 L -7 -6 L -7 -7"
                 id="path121" />
            </g>
          </g>
          <g
             id="Column03Key02"
             transform="translate(0,-9.525005)"
             style="fill:none;stroke:#0000ff;stroke-opacity:1;stroke-width:0.1;stroke-miterlimit:4;stroke-dasharray:none">
            <g
               id="g128"
               style="fill:none;stroke:#0000ff;stroke-opacity:1;stroke-width:0.1;stroke-miterlimit:4;stroke-dasharray:none">
              <path
                 style="fill:none;fill-opacity:1;stroke:#0000ff;stroke-width:0.1;stroke-opacity:1;stroke-miterlimit:4;stroke-dasharray:none"
                 d="M -7 -7 L 7 -7 L 7 -6 L 7.8 -6 L 7.8 6 L 7 6 L 7 7 L -7 7 L -7 6 L -7.8 6 L -7.8 -6 L -7 -6 L -7 -7"
                 id="path126" />
            </g>
          </g>
          <g
             id="Column03Key03"
             transform="translate(0,9.524998)"
             style="fill:none;stroke:#0000ff;stroke-opacity:1;stroke-width:0.1;stroke-miterlimit:4;stroke-dasharray:none">
            <g
               id="g133"
               style="fill:none;stroke:#0000ff;stroke-opacity:1;stroke-width:0.1;stroke-miterlimit:4;stroke-dasharray:none">
              <path
                 style="fill:none;fill-opacity:1;stroke:#0000ff;stroke-width:0.1;stroke-opacity:1;stroke-miterlimit:4;stroke-dasharray:none"
                 d="M -7 -7 L 7 -7 L 7 -6 L 7.8 -6 L 7.8 6 L 7 6 L 7 7 L -7 7 L -7 6 L -7.8 6 L -7.8 -6 L -7 -6 L -7 -7"
                 id="path131" />
            </g>
          </g>
          <g
             id="Column03Key04"
             transform="translate(0,28.575)"
             style="fill:none;stroke:#0000ff;stroke-opacity:1;stroke-width:0.1;stroke-miterlimit:4;stroke-dasharray:none">
            <g
               id="g138"
               style="fill:none;stroke:#0000ff;stroke-opacity:1;stroke-width:0.1;stroke-miterlimit:4;stroke-dasharray:none">
              <path
                 style="fill:none;fill-opacity:1;stroke:#0000ff;stroke-width:0.1;stroke-opacity:1;stroke-miterlimit:4;stroke-dasharray:none"
                 d="M -7 -7 L 7 -7 L 7 -6 L 7.8 -6 L 7.8 6 L 7 6 L 7 7 L -7 7 L -7 6 L -7.8 6 L -7.8 -6 L -7 -6 L -7 -7"
                 id="path136" />
            </g>
          </g>
          <g
             id="Column03Key05"
             transform="translate(0,47.625004)"
             style="fill:none;stroke:#0000ff;stroke-opacity:1;stroke-width:0.1;stroke-miterlimit:4;stroke-dasharray:none">
            <g
               id="g143"
               style="fill:none;stroke:#0000ff;stroke-opacity:1;stroke-width:0.1;stroke-miterlimit:4;stroke-dasharray:none">
              <path
                 style="fill:none;fill-opacity:1;stroke:#0000ff;stroke-width:0.1;stroke-opacity:1;stroke-miterlimit:4;stroke-dasharray:none"
                 d="M -7 -7 L 7 -7 L 7 -6 L 7.8 -6 L 7.8 6 L 7 6 L 7 7 L -7 7 L -7 6 L -7.8 6 L -7.8 -6 L -7 -6 L -7 -7"
                 id="path141" />
            </g>
          </g>
        </g>
        <g
           id="Column04"
           transform="translate(19.050003,0.5)"
           style="fill:none;stroke:#0000ff;stroke-opacity:1;stroke-width:0.1;stroke-miterlimit:4;stroke-dasharray:none">
          <g
             id="Column04Key00"
             transform="translate(0,-47.625004)"
             style="fill:none;stroke:#0000ff;stroke-opacity:1;stroke-width:0.1;stroke-miterlimit:4;stroke-dasharray:none">
            <g
               id="g149"
               style="fill:none;stroke:#0000ff;stroke-opacity:1;stroke-width:0.1;stroke-miterlimit:4;stroke-dasharray:none">
              <path
                 style="fill:none;fill-opacity:1;stroke:#0000ff;stroke-width:0.1;stroke-opacity:1;stroke-miterlimit:4;stroke-dasharray:none"
                 d="M -7 -7 L 7 -7 L 7 -6 L 7.8 -6 L 7.8 6 L 7 6 L 7 7 L -7 7 L -7 6 L -7.8 6 L -7.8 -6 L -7 -6 L -7 -7"
                 id="path147" />
            </g>
          </g>
          <g
             id="Column04Key01"
             transform="translate(0,-28.575003)"
             style="fill:none;stroke:#0000ff;stroke-opacity:1;stroke-width:0.1;stroke-miterlimit:4;stroke-dasharray:none">
            <g
               id="g154"
               style="fill:none;stroke:#0000ff;stroke-opacity:1;stroke-width:0.1;stroke-miterlimit:4;stroke-dasharray:none">
              <path
                 style="fill:none;fill-opacity:1;stroke:#0000ff;stroke-width:0.1;stroke-opacity:1;stroke-miterlimit:4;stroke-dasharray:none"
                 d="M -7 -7 L 7 -7 L 7 -6 L 7.8 -6 L 7.8 6 L 7 6 L 7 7 L -7 7 L -7 6 L -7.8 6 L -7.8 -6 L -7 -6 L -7 -7"
                 id="path152" />
            </g>
          </g>
          <g
             id="Column04Key02"
             transform="translate(0,-9.525005)"
             style="fill:none;stroke:#0000ff;stroke-opacity:1;stroke-width:0.1;stroke-miterlimit:4;stroke-dasharray:none">
            <g
               id="g159"
               style="fill:none;stroke:#0000ff;stroke-opacity:1;stroke-width:0.1;stroke-miterlimit:4;stroke-dasharray:none">
              <path
                 style="fill:none;fill-opacity:1;stroke:#0000ff;stroke-width:0.1;stroke-opacity:1;stroke-miterlimit:4;stroke-dasharray:none"
                 d="M -7 -7 L 7 -7 L 7 -6 L 7.8 -6 L 7.8 6 L 7 6 L 7 7 L -7 7 L -7 6 L -7.8 6 L -7.8 -6 L -7 -6 L -7 -7"
                 id="path157" />
            </g>
          </g>
          <g
             id="Column04Key03"
             transform="translate(0,9.524998)"
             style="fill:none;stroke:#0000ff;stroke-opacity:1;stroke-width:0.1;stroke-miterlimit:4;stroke-dasharray:none">
            <g
               id="g164"
               style="fill:none;stroke:#0000ff;stroke-opacity:1;stroke-width:0.1;stroke-miterlimit:4;stroke-dasharray:none">
              <path
                 style="fill:none;fill-opacity:1;stroke:#0000ff;stroke-width:0.1;stroke-opacity:1;stroke-miterlimit:4;stroke-dasharray:none"
                 d="M -7 -7 L 7 -7 L 7 -6 L 7.8 -6 L 7.8 6 L 7 6 L 7 7 L -7 7 L -7 6 L -7.8 6 L -7.8 -6 L -7 -6 L -7 -7"
                 id="path162" />
            </g>
          </g>
          <g
             id="Column04Key04"
             transform="translate(0,28.575)"
             style="fill:none;stroke:#0000ff;stroke-opacity:1;stroke-width:0.1;stroke-miterlimit:4;stroke-dasharray:none">
            <g
               id="g169"
               style="fill:none;stroke:#0000ff;stroke-opacity:1;stroke-width:0.1;stroke-miterlimit:4;stroke-dasharray:none">
              <path
                 style="fill:none;fill-opacity:1;stroke:#0000ff;stroke-width:0.1;stroke-opacity:1;stroke-miterlimit:4;stroke-dasharray:none"
                 d="M -7 -7 L 7 -7 L 7 -6 L 7.8 -6 L 7.8 6 L 7 6 L 7 7 L -7 7 L -7 6 L -7.8 6 L -7.8 -6 L -7 -6 L -7 -7"
                 id="path167" />
            </g>
          </g>
          <g
             id="Column04Key05"
             transform="translate(0,47.625004)"
             style="fill:none;stroke:#0000ff;stroke-opacity:1;stroke-width:0.1;stroke-miterlimit:4;stroke-dasharray:none">
            <g
               id="g174"
               style="fill:none;stroke:#0000ff;stroke-opacity:1;stroke-width:0.1;stroke-miterlimit:4;stroke-dasharray:none">
              <path
                 style="fill:none;fill-opacity:1;stroke:#0000ff;stroke-width:0.1;stroke-opacity:1;stroke-miterlimit:4;stroke-dasharray:none"
                 d="M -7 -7 L 7 -7 L 7 -6 L 7.8 -6 L 7.8 6 L 7 6 L 7 7 L -7 7 L -7 6 L -7.8 6 L -7.8 -6 L -7 -6 L -7 -7"
                 id="path172" />
            </g>
          </g>
        </g>
        <g
           id="Column05"
           transform="translate(38.100006,5.5)"
           style="fill:none;stroke:#0000ff;stroke-opacity:1;stroke-width:0.1;stroke-miterlimit:4;stroke-dasharray:none">
          <g
             id="Column05Key00"
             transform="translate(0,-47.625004)"
             style="fill:none;stroke:#0000ff;stroke-opacity:1;stroke-width:0.1;stroke-miterlimit:4;stroke-dasharray:none">
            <g
               id="g180"
               style="fill:none;stroke:#0000ff;stroke-opacity:1;stroke-width:0.1;stroke-miterlimit:4;stroke-dasharray:none">
              <path
                 style="fill:none;fill-opacity:1;stroke:#0000ff;stroke-width:0.1;stroke-opacity:1;stroke-miterlimit:4;stroke-dasharray:none"
                 d="M -7 -7 L 7 -7 L 7 -6 L 7.8 -6 L 7.8 6 L 7 6 L 7 7 L -7 7 L -7 6 L -7.8 6 L -7.8 -6 L -7 -6 L -7 -7"
                 id="path178" />
            </g>
          </g>
          <g
             id="Column05Key01"
             transform="translate(0,-28.575003)"
             style="fill:none;stroke:#0000ff;stroke-opacity:1;stroke-width:0.1;stroke-miterlimit:4;stroke-dasharray:none">
            <g
               id="g185"
               style="fill:none;stroke:#0000ff;stroke-opacity:1;stroke-width:0.1;stroke-miterlimit:4;stroke-dasharray:none">
              <path
                 style="fill:none;fill-opacity:1;stroke:#0000ff;stroke-width:0.1;stroke-opacity:1;stroke-miterlimit:4;stroke-dasharray:none"
                 d="M -7 -7 L 7 -7 L 7 -6 L 7.8 -6 L 7.8 6 L 7 6 L 7 7 L -7 7 L -7 6 L -7.8 6 L -7.8 -6 L -7 -6 L -7 -7"
                 id="path183" />
            </g>
          </g>
          <g
             id="Column05Key02"
             transform="translate(0,-9.525005)"
             style="fill:none;stroke:#0000ff;stroke-opacity:1;stroke-width:0.1;stroke-miterlimit:4;stroke-dasharray:none">
            <g
               id="g190"
               style="fill:none;stroke:#0000ff;stroke-opacity:1;stroke-width:0.1;stroke-miterlimit:4;stroke-dasharray:none">
              <path
                 style="fill:none;fill-opacity:1;stroke:#0000ff;stroke-width:0.1;stroke-opacity:1;stroke-miterlimit:4;stroke-dasharray:none"
                 d="M -7 -7 L 7 -7 L 7 -6 L 7.8 -6 L 7.8 6 L 7 6 L 7 7 L -7 7 L -7 6 L -7.8 6 L -7.8 -6 L -7 -6 L -7 -7"
                 id="path188" />
            </g>
          </g>
          <g
             id="Column05Key03"
             transform="translate(0,9.524998)"
             style="fill:none;stroke:#0000ff;stroke-opacity:1;stroke-width:0.1;stroke-miterlimit:4;stroke-dasharray:none">
            <g
               id="g195"
               style="fill:none;stroke:#0000ff;stroke-opacity:1;stroke-width:0.1;stroke-miterlimit:4;stroke-dasharray:none">
              <path
                 style="fill:none;fill-opacity:1;stroke:#0000ff;stroke-width:0.1;stroke-opacity:1;stroke-miterlimit:4;stroke-dasharray:none"
                 d="M -7 -7 L 7 -7 L 7 -6 L 7.8 -6 L 7.8 6 L 7 6 L 7 7 L -7 7 L -7 6 L -7.8 6 L -7.8 -6 L -7 -6 L -7 -7"
                 id="path193" />
            </g>
          </g>
          <g
             id="Column05Key04"
             transform="translate(0,28.575)"
             style="fill:none;stroke:#0000ff;stroke-opacity:1;stroke-width:0.1;stroke-miterlimit:4;stroke-dasharray:none">
            <g
               id="g200"
               style="fill:none;stroke:#0000ff;stroke-opacity:1;stroke-width:0.1;stroke-miterlimit:4;stroke-dasharray:none">
              <path
                 style="fill:none;fill-opacity:1;stroke:#0000ff;stroke-width:0.1;stroke-opacity:1;stroke-miterlimit:4;stroke-dasharray:none"
                 d="M -7 -7 L 7 -7 L 7 -6 L 7.8 -6 L 7.8 6 L 7 6 L 7 7 L -7 7 L -7 6 L -7.8 6 L -7.8 -6 L -7 -6 L -7 -7"
                 id="path198" />
            </g>
          </g>
          <g
             id="Column05Key05"
             transform="translate(0,47.625004)"
             style="fill:none;stroke:#0000ff;stroke-opacity:1;stroke-width:0.1;stroke-miterlimit:4;stroke-dasharray:none">
            <g
               id="g205"
               style="fill:none;stroke:#0000ff;stroke-opacity:1;stroke-width:0.1;stroke-miterlimit:4;stroke-dasharray:none">
              <path
                 style="fill:none;fill-opacity:1;stroke:#0000ff;stroke-width:0.1;stroke-opacity:1;stroke-miterlimit:4;stroke-dasharray:none"
                 d="M -7 -7 L 7 -7 L 7 -6 L 7.8 -6 L 7.8 6 L 7 6 L 7 7 L -7 7 L -7 6 L -7.8 6 L -7.8 -6 L -7 -6 L -7 -7"
                 id="path203" />
            </g>
          </g>
        </g>
        <g
           id="Column06"
           transform="translate(57.15001,5.5)"
           style="fill:none;stroke:#0000ff;stroke-opacity:1;stroke-width:0.1;stroke-miterlimit:4;stroke-dasharray:none">
          <g
             id="g209"
             transform="translate(0,-9.525002)"
             style="fill:none;stroke:#0000ff;stroke-opacity:1;stroke-width:0.1;stroke-miterlimit:4;stroke-dasharray:none" />
          <g
             id="Column06Key04"
             transform="translate(0,47.625)"
             style="fill:none;stroke:#0000ff;stroke-opacity:1;stroke-width:0.1;stroke-miterlimit:4;stroke-dasharray:none">
            <g
               id="g213"
               style="fill:none;stroke:#0000ff;stroke-opacity:1;stroke-width:0.1;stroke-miterlimit:4;stroke-dasharray:none">
              <path
                 style="fill:none;fill-opacity:1;stroke:#0000ff;stroke-width:0.1;stroke-opacity:1;stroke-miterlimit:4;stroke-dasharray:none"
                 d="M -7 -7 L 7 -7 L 7 -6 L 7.8 -6 L 7.8 6 L 7 6 L 7 7 L -7 7 L -7 6 L -7.8 6 L -7.8 -6 L -7 -6 L -7 -7"
                 id="path211" />
            </g>
          </g>
        </g>
      </g>
    </g>
  </g>
</svg>
