<svg><circle transform="translate(30.649,142.35)" r="0.5" stroke="black" stroke-width="0.1" fill="blue" />
<circle transform="translate(68.17,148.965999)" r="0.5" stroke="black" stroke-width="0.1" fill="blue" />
<circle transform="translate(123.931001,161.844999)" r="0.5" stroke="black" stroke-width="0.1" fill="blue" />
<circle transform="translate(161.452001,168.461002)" r="0.5" stroke="black" stroke-width="0.1" fill="blue" />
<circle transform="translate(171.425,170.295999)" r="0.5" stroke="black" stroke-width="0.1" fill="blue" />
<circle transform="translate(228.575001,170.296001)" r="0.5" stroke="black" stroke-width="0.1" fill="blue" />
<circle transform="translate(238.548,168.461002)" r="0.5" stroke="black" stroke-width="0.1" fill="blue" />
<circle transform="translate(276.069001,161.845)" r="0.5" stroke="black" stroke-width="0.1" fill="blue" />
<circle transform="translate(331.830001,148.966001)" r="0.5" stroke="black" stroke-width="0.1" fill="blue" />
<circle transform="translate(369.351001,142.35)" r="0.5" stroke="black" stroke-width="0.1" fill="blue" />
<circle transform="translate(349.503001,29.788002)" r="0.5" stroke="black" stroke-width="0.1" fill="blue" />
<circle transform="translate(291.831999,31.833001)" r="0.5" stroke="black" stroke-width="0.1" fill="blue" />
<circle transform="translate(273.072002,35.141002)" r="0.5" stroke="black" stroke-width="0.1" fill="blue" />
<circle transform="translate(236.591999,47.665999)" r="0.5" stroke="black" stroke-width="0.1" fill="blue" />
<circle transform="translate(163.408002,47.666)" r="0.5" stroke="black" stroke-width="0.1" fill="blue" />
<circle transform="translate(126.928,35.141)" r="0.5" stroke="black" stroke-width="0.1" fill="blue" />
<circle transform="translate(108.168001,31.833001)" r="0.5" stroke="black" stroke-width="0.1" fill="blue" />
<circle transform="translate(50.497001,29.788002)" r="0.5" stroke="black" stroke-width="0.1" fill="blue" />
<path stroke="blue" stroke-width="0.2" fill="black" d="M 30.649,142.35 L 68.17,148.965999" />
<path stroke="blue" stroke-width="0.2" fill="black" d="M 68.17,148.965999 L 123.931001,161.844999" />
<path stroke="blue" stroke-width="0.2" fill="black" d="M 123.931001,161.844999 L 161.452001,168.461002" />
<path stroke="blue" stroke-width="0.2" fill="black" d="M 161.452001,168.461002 L 171.425,170.295999" />
<path stroke="blue" stroke-width="0.2" fill="black" d="M 171.425,170.295999 L 228.575001,170.296001" />
<path stroke="blue" stroke-width="0.2" fill="black" d="M 228.575001,170.296001 L 238.548,168.461002" />
<path stroke="blue" stroke-width="0.2" fill="black" d="M 238.548,168.461002 L 276.069001,161.845" />
<path stroke="blue" stroke-width="0.2" fill="black" d="M 276.069001,161.845 L 331.830001,148.966001" />
<path stroke="blue" stroke-width="0.2" fill="black" d="M 331.830001,148.966001 L 369.351001,142.35" />
<path stroke="blue" stroke-width="0.2" fill="black" d="M 369.351001,142.35 L 349.503001,29.788002" />
<path stroke="blue" stroke-width="0.2" fill="black" d="M 349.503001,29.788002 L 291.831999,31.833001" />
<path stroke="blue" stroke-width="0.2" fill="black" d="M 291.831999,31.833001 L 273.072002,35.141002" />
<path stroke="blue" stroke-width="0.2" fill="black" d="M 273.072002,35.141002 L 236.591999,47.665999" />
<path stroke="blue" stroke-width="0.2" fill="black" d="M 236.591999,47.665999 L 163.408002,47.666" />
<path stroke="blue" stroke-width="0.2" fill="black" d="M 163.408002,47.666 L 126.928,35.141" />
<path stroke="blue" stroke-width="0.2" fill="black" d="M 126.928,35.141 L 108.168001,31.833001" />
<path stroke="blue" stroke-width="0.2" fill="black" d="M 108.168001,31.833001 L 50.497001,29.788002" />
<path stroke="blue" stroke-width="0.2" fill="black" d="M 50.497001,29.788002 L 30.649,142.35" />
<circle transform="translate(31.80745818414837,141.5388417237623)" r="0.5" stroke="black" stroke-width="0.1" fill="purple" />
<circle transform="translate(68.36948334183613,147.98574670713793)" r="0.5" stroke="black" stroke-width="0.1" fill="purple" />
<circle transform="translate(124.1304843922408,160.86474671877977)" r="0.5" stroke="black" stroke-width="0.1" fill="purple" />
<circle transform="translate(161.62930744713262,167.47683930233654)" r="0.5" stroke="black" stroke-width="0.1" fill="purple" />
<circle transform="translate(171.5162325360996,169.29599900319272)" r="0.5" stroke="black" stroke-width="0.1" fill="purple" />
<circle transform="translate(228.48376840081,169.29600099680724)" r="0.5" stroke="black" stroke-width="0.1" fill="purple" />
<circle transform="translate(238.37069347229522,167.47683931642905)" r="0.5" stroke="black" stroke-width="0.1" fill="purple" />
<circle transform="translate(275.8695176290341,160.8647477142185)" r="0.5" stroke="black" stroke-width="0.1" fill="purple" />
<circle transform="translate(331.6305176394133,147.98574871182126)" r="0.5" stroke="black" stroke-width="0.1" fill="purple" />
<circle transform="translate(368.19254283331395,141.53884177317696)" r="0.5" stroke="black" stroke-width="0.1" fill="purple" />
<circle transform="translate(348.6692275185702,30.81819589391734)" r="0.5" stroke="black" stroke-width="0.1" fill="purple" />
<circle transform="translate(291.93705185450597,32.82990435184974)" r="0.5" stroke="black" stroke-width="0.1" fill="purple" />
<circle transform="translate(273.3227207264619,36.11221969475203)" r="0.5" stroke="black" stroke-width="0.1" fill="purple" />
<circle transform="translate(236.7588870877317,48.66599899771961)" r="0.5" stroke="black" stroke-width="0.1" fill="purple" />
<circle transform="translate(163.24111388341825,48.66600000228039)" r="0.5" stroke="black" stroke-width="0.1" fill="purple" />
<circle transform="translate(126.67728129079165,36.112217707459024)" r="0.5" stroke="black" stroke-width="0.1" fill="purple" />
<circle transform="translate(108.06294820595637,32.8299043539081)" r="0.5" stroke="black" stroke-width="0.1" fill="purple" />
<circle transform="translate(51.33077447368018,30.81819589471138)" r="0.5" stroke="black" stroke-width="0.1" fill="purple" />
<path stroke="purple" stroke-width="0.2" fill="black" d="M 31.80745818414837,141.5388417237623 L 68.36948334183613,147.98574670713793" />
<path stroke="purple" stroke-width="0.2" fill="black" d="M 68.36948334183613,147.98574670713793 L 124.1304843922408,160.86474671877977" />
<path stroke="purple" stroke-width="0.2" fill="black" d="M 124.1304843922408,160.86474671877977 L 161.62930744713262,167.47683930233654" />
<path stroke="purple" stroke-width="0.2" fill="black" d="M 161.62930744713262,167.47683930233654 L 171.5162325360996,169.29599900319272" />
<path stroke="purple" stroke-width="0.2" fill="black" d="M 171.5162325360996,169.29599900319272 L 228.48376840081,169.29600099680724" />
<path stroke="purple" stroke-width="0.2" fill="black" d="M 228.48376840081,169.29600099680724 L 238.37069347229522,167.47683931642905" />
<path stroke="purple" stroke-width="0.2" fill="black" d="M 238.37069347229522,167.47683931642905 L 275.8695176290341,160.8647477142185" />
<path stroke="purple" stroke-width="0.2" fill="black" d="M 275.8695176290341,160.8647477142185 L 331.6305176394133,147.98574871182126" />
<path stroke="purple" stroke-width="0.2" fill="black" d="M 331.6305176394133,147.98574871182126 L 368.19254283331395,141.53884177317696" />
<path stroke="purple" stroke-width="0.2" fill="black" d="M 368.19254283331395,141.53884177317696 L 348.6692275185702,30.81819589391734" />
<path stroke="purple" stroke-width="0.2" fill="black" d="M 348.6692275185702,30.81819589391734 L 291.93705185450597,32.82990435184974" />
<path stroke="purple" stroke-width="0.2" fill="black" d="M 291.93705185450597,32.82990435184974 L 273.3227207264619,36.11221969475203" />
<path stroke="purple" stroke-width="0.2" fill="black" d="M 273.3227207264619,36.11221969475203 L 236.7588870877317,48.66599899771961" />
<path stroke="purple" stroke-width="0.2" fill="black" d="M 236.7588870877317,48.66599899771961 L 163.24111388341825,48.66600000228039" />
<path stroke="purple" stroke-width="0.2" fill="black" d="M 163.24111388341825,48.66600000228039 L 126.67728129079165,36.112217707459024" />
<path stroke="purple" stroke-width="0.2" fill="black" d="M 126.67728129079165,36.112217707459024 L 108.06294820595637,32.8299043539081" />
<path stroke="purple" stroke-width="0.2" fill="black" d="M 108.06294820595637,32.8299043539081 L 51.33077447368018,30.81819589471138" />
<path stroke="purple" stroke-width="0.2" fill="black" d="M 51.33077447368018,30.81819589471138 L 31.80745818414837,141.5388417237623" /></svg>