<svg><circle transform="translate(30.649,142.35)" r="0.5" stroke="black" stroke-width="0.1" fill="blue" />
<circle transform="translate(68.17,148.965999)" r="0.5" stroke="black" stroke-width="0.1" fill="blue" />
<circle transform="translate(123.931001,161.844999)" r="0.5" stroke="black" stroke-width="0.1" fill="blue" />
<circle transform="translate(161.452001,168.461002)" r="0.5" stroke="black" stroke-width="0.1" fill="blue" />
<circle transform="translate(171.425,170.295999)" r="0.5" stroke="black" stroke-width="0.1" fill="blue" />
<circle transform="translate(228.575001,170.296001)" r="0.5" stroke="black" stroke-width="0.1" fill="blue" />
<circle transform="translate(238.548,168.461002)" r="0.5" stroke="black" stroke-width="0.1" fill="blue" />
<circle transform="translate(276.069001,161.845)" r="0.5" stroke="black" stroke-width="0.1" fill="blue" />
<circle transform="translate(331.830001,148.966001)" r="0.5" stroke="black" stroke-width="0.1" fill="blue" />
<circle transform="translate(369.351001,142.35)" r="0.5" stroke="black" stroke-width="0.1" fill="blue" />
<circle transform="translate(349.503001,29.788002)" r="0.5" stroke="black" stroke-width="0.1" fill="blue" />
<circle transform="translate(291.831999,31.833001)" r="0.5" stroke="black" stroke-width="0.1" fill="blue" />
<circle transform="translate(273.072002,35.141002)" r="0.5" stroke="black" stroke-width="0.1" fill="blue" />
<circle transform="translate(236.591999,47.665999)" r="0.5" stroke="black" stroke-width="0.1" fill="blue" />
<circle transform="translate(163.408002,47.666)" r="0.5" stroke="black" stroke-width="0.1" fill="blue" />
<circle transform="translate(126.928,35.141)" r="0.5" stroke="black" stroke-width="0.1" fill="blue" />
<circle transform="translate(108.168001,31.833001)" r="0.5" stroke="black" stroke-width="0.1" fill="blue" />
<circle transform="translate(50.497001,29.788002)" r="0.5" stroke="black" stroke-width="0.1" fill="blue" />
<path stroke="blue" stroke-width="0.2" fill="black" d="M 30.649,142.35 L 68.17,148.965999" />
<path stroke="blue" stroke-width="0.2" fill="black" d="M 68.17,148.965999 L 123.931001,161.844999" />
<path stroke="blue" stroke-width="0.2" fill="black" d="M 123.931001,161.844999 L 161.452001,168.461002" />
<path stroke="blue" stroke-width="0.2" fill="black" d="M 161.452001,168.461002 L 171.425,170.295999" />
<path stroke="blue" stroke-width="0.2" fill="black" d="M 171.425,170.295999 L 228.575001,170.296001" />
<path stroke="blue" stroke-width="0.2" fill="black" d="M 228.575001,170.296001 L 238.548,168.461002" />
<path stroke="blue" stroke-width="0.2" fill="black" d="M 238.548,168.461002 L 276.069001,161.845" />
<path stroke="blue" stroke-width="0.2" fill="black" d="M 276.069001,161.845 L 331.830001,148.966001" />
<path stroke="blue" stroke-width="0.2" fill="black" d="M 331.830001,148.966001 L 369.351001,142.35" />
<path stroke="blue" stroke-width="0.2" fill="black" d="M 369.351001,142.35 L 349.503001,29.788002" />
<path stroke="blue" stroke-width="0.2" fill="black" d="M 349.503001,29.788002 L 291.831999,31.833001" />
<path stroke="blue" stroke-width="0.2" fill="black" d="M 291.831999,31.833001 L 273.072002,35.141002" />
<path stroke="blue" stroke-width="0.2" fill="black" d="M 273.072002,35.141002 L 236.591999,47.665999" />
<path stroke="blue" stroke-width="0.2" fill="black" d="M 236.591999,47.665999 L 163.408002,47.666" />
<path stroke="blue" stroke-width="0.2" fill="black" d="M 163.408002,47.666 L 126.928,35.141" />
<path stroke="blue" stroke-width="0.2" fill="black" d="M 126.928,35.141 L 108.168001,31.833001" />
<path stroke="blue" stroke-width="0.2" fill="black" d="M 108.168001,31.833001 L 50.497001,29.788002" />
<path stroke="blue" stroke-width="0.2" fill="black" d="M 50.497001,29.788002 L 30.649,142.35" />
<circle transform="translate(43.39204002563202,133.42725896138526)" r="0.5" stroke="black" stroke-width="0.1" fill="purple" />
<circle transform="translate(70.36431676019612,138.183223778517)" r="0.5" stroke="black" stroke-width="0.1" fill="purple" />
<circle transform="translate(126.1253183146483,151.06222390657763)" r="0.5" stroke="black" stroke-width="0.1" fill="purple" />
<circle transform="translate(163.4023719185275,157.63521232571426)" r="0.5" stroke="black" stroke-width="0.1" fill="purple" />
<circle transform="translate(172.42855789709753,159.29599903512013)" r="0.5" stroke="black" stroke-width="0.1" fill="purple" />
<circle transform="translate(227.57144240891034,159.29600096487982)" r="0.5" stroke="black" stroke-width="0.1" fill="purple" />
<circle transform="translate(236.5976281952754,157.63521248071433)" r="0.5" stroke="black" stroke-width="0.1" fill="purple" />
<circle transform="translate(273.87468391937296,151.06222485640387)" r="0.5" stroke="black" stroke-width="0.1" fill="purple" />
<circle transform="translate(329.6356840335452,138.18322583003373)" r="0.5" stroke="black" stroke-width="0.1" fill="purple" />
<circle transform="translate(356.60796116645326,133.42725950494673)" r="0.5" stroke="black" stroke-width="0.1" fill="purple" />
<circle transform="translate(340.331492704273,41.12013483309072)" r="0.5" stroke="black" stroke-width="0.1" fill="purple" />
<circle transform="translate(292.98758039956635,42.79893787034699)" r="0.5" stroke="black" stroke-width="0.1" fill="purple" />
<circle transform="translate(275.82990799108023,45.824396642272404)" r="0.5" stroke="black" stroke-width="0.1" fill="purple" />
<circle transform="translate(238.42776796504796,58.66599897491571)" r="0.5" stroke="black" stroke-width="0.1" fill="purple" />
<circle transform="translate(161.57223271760057,58.666000025084294)" r="0.5" stroke="black" stroke-width="0.1" fill="purple" />
<circle transform="translate(124.17009419870784,45.82439478204918)" r="0.5" stroke="black" stroke-width="0.1" fill="purple" />
<circle transform="translate(107.01242026552035,42.798937892989095)" r="0.5" stroke="black" stroke-width="0.1" fill="purple" />
<circle transform="translate(59.66850921048197,41.12013484182569)" r="0.5" stroke="black" stroke-width="0.1" fill="purple" />
<path stroke="purple" stroke-width="0.2" fill="black" d="M 43.39204002563202,133.42725896138526 L 70.36431676019612,138.183223778517" />
<path stroke="purple" stroke-width="0.2" fill="black" d="M 70.36431676019612,138.183223778517 L 126.1253183146483,151.06222390657763" />
<path stroke="purple" stroke-width="0.2" fill="black" d="M 126.1253183146483,151.06222390657763 L 163.4023719185275,157.63521232571426" />
<path stroke="purple" stroke-width="0.2" fill="black" d="M 163.4023719185275,157.63521232571426 L 172.42855789709753,159.29599903512013" />
<path stroke="purple" stroke-width="0.2" fill="black" d="M 172.42855789709753,159.29599903512013 L 227.57144240891034,159.29600096487982" />
<path stroke="purple" stroke-width="0.2" fill="black" d="M 227.57144240891034,159.29600096487982 L 236.5976281952754,157.63521248071433" />
<path stroke="purple" stroke-width="0.2" fill="black" d="M 236.5976281952754,157.63521248071433 L 273.87468391937296,151.06222485640387" />
<path stroke="purple" stroke-width="0.2" fill="black" d="M 273.87468391937296,151.06222485640387 L 329.6356840335452,138.18322583003373" />
<path stroke="purple" stroke-width="0.2" fill="black" d="M 329.6356840335452,138.18322583003373 L 356.60796116645326,133.42725950494673" />
<path stroke="purple" stroke-width="0.2" fill="black" d="M 356.60796116645326,133.42725950494673 L 340.331492704273,41.12013483309072" />
<path stroke="purple" stroke-width="0.2" fill="black" d="M 340.331492704273,41.12013483309072 L 292.98758039956635,42.79893787034699" />
<path stroke="purple" stroke-width="0.2" fill="black" d="M 292.98758039956635,42.79893787034699 L 275.82990799108023,45.824396642272404" />
<path stroke="purple" stroke-width="0.2" fill="black" d="M 275.82990799108023,45.824396642272404 L 238.42776796504796,58.66599897491571" />
<path stroke="purple" stroke-width="0.2" fill="black" d="M 238.42776796504796,58.66599897491571 L 161.57223271760057,58.666000025084294" />
<path stroke="purple" stroke-width="0.2" fill="black" d="M 161.57223271760057,58.666000025084294 L 124.17009419870784,45.82439478204918" />
<path stroke="purple" stroke-width="0.2" fill="black" d="M 124.17009419870784,45.82439478204918 L 107.01242026552035,42.798937892989095" />
<path stroke="purple" stroke-width="0.2" fill="black" d="M 107.01242026552035,42.798937892989095 L 59.66850921048197,41.12013484182569" />
<path stroke="purple" stroke-width="0.2" fill="black" d="M 59.66850921048197,41.12013484182569 L 43.39204002563202,133.42725896138526" /></svg>