<?xml version="1.0" encoding="UTF-8" standalone="no"?>
<svg
   xmlns:dc="http://purl.org/dc/elements/1.1/"
   xmlns:cc="http://creativecommons.org/ns#"
   xmlns:rdf="http://www.w3.org/1999/02/22-rdf-syntax-ns#"
   xmlns:svg="http://www.w3.org/2000/svg"
   xmlns="http://www.w3.org/2000/svg"
   xmlns:sodipodi="http://sodipodi.sourceforge.net/DTD/sodipodi-0.dtd"
   xmlns:inkscape="http://www.inkscape.org/namespaces/inkscape"
   version="1.0"
   width="400.000000pt"
   height="400.000000pt"
   viewBox="0 0 400.000000 400.000000"
   preserveAspectRatio="xMidYMid meet"
   id="svg702"
   sodipodi:docname="cozykeys_logo_2.svg"
   inkscape:version="0.92.5 (2060ec1f9f, 2020-04-08)">
  <defs
     id="defs706" />
  <sodipodi:namedview
     pagecolor="#ffffff"
     bordercolor="#666666"
     borderopacity="1"
     objecttolerance="10"
     gridtolerance="10"
     guidetolerance="10"
     inkscape:pageopacity="0"
     inkscape:pageshadow="2"
     inkscape:window-width="2536"
     inkscape:window-height="1391"
     id="namedview704"
     showgrid="false"
     inkscape:zoom="1.1353125"
     inkscape:cx="367.91234"
     inkscape:cy="217.01721"
     inkscape:window-x="10"
     inkscape:window-y="35"
     inkscape:window-maximized="0"
     inkscape:current-layer="layer2" />
  <metadata
     id="metadata684">
Created by potrace 1.16, written by Peter Selinger 2001-2019
<rdf:RDF>
  <cc:Work
     rdf:about="">
    <dc:format>image/svg+xml</dc:format>
    <dc:type
       rdf:resource="http://purl.org/dc/dcmitype/StillImage" />
  </cc:Work>
</rdf:RDF>
</metadata>
  <g
     inkscape:groupmode="layer"
     id="layer1"
     inkscape:label="Base"
     sodipodi:insensitive="true"
     style="display:inline">
    <g
       id="g5245">
      <path
         d="M 0,200 V 400 H 200 400 V 200 0 H 200 0 Z M 152.7,72.1 c 5.9,4 14.2,9.6 18.3,12.3 20.9,13.7 25,16.7 32.3,24.2 9.8,10.3 12.4,13.8 17.8,24.4 2.3,4.7 4.4,8.7 4.6,8.9 0.1,0.2 3.3,-0.8 7,-2.2 12.8,-5 14.4,-4.8 28,4.5 4.3,2.9 8.3,5.5 8.8,5.8 0.6,0.3 17.2,11.3 37,24.4 21.9,14.6 38,26 41.1,29.1 11.6,11.9 19.8,25.5 24.6,40.5 3.1,10.1 3.4,27.6 0.4,30.9 -1.9,2.1 -4,3.6 -34.1,24 -9.3,6.4 -21.5,14.6 -27,18.4 -5.5,3.7 -15.2,10.3 -21.5,14.5 -6.3,4.3 -14.3,9.8 -17.8,12.3 -3.4,2.4 -8,5.5 -10.2,6.9 -2.1,1.4 -9.2,6.2 -15.7,10.6 -6.5,4.5 -15.2,10.5 -19.4,13.4 -5.2,3.6 -8.3,5 -9.6,4.6 -1.8,-0.6 -9.6,-9.3 -19.8,-22.1 -2.7,-3.5 -8.5,-10.5 -12.7,-15.7 -4.2,-5.1 -10.2,-12.5 -13.4,-16.3 -3.1,-3.9 -12.5,-15.3 -20.8,-25.4 -8.3,-10.1 -16,-19.5 -17.1,-21 -1,-1.4 -5.1,-6.4 -9,-11.1 -3.9,-4.7 -8.2,-9.9 -9.5,-11.7 -1.4,-1.7 -5.3,-6.5 -8.8,-10.6 -6.7,-8.1 -7,-9.2 -4.8,-17.5 0.8,-2.8 1.2,-5.2 1,-5.2 -0.3,0 -2.2,0.9 -4.4,2 -2.2,1.1 -4.6,2 -5.4,2 -1.5,0 -19.9,-21.6 -42.4,-49.8 -2.9,-3.7 -6.2,-7.7 -7.2,-8.9 -1.1,-1.3 -4.8,-5.8 -8.2,-10 -3.5,-4.3 -7.3,-8.9 -8.6,-10.3 -2.2,-2.4 -2.3,-3.1 -1.9,-12.5 0.7,-16.6 6.9,-30.7 18.2,-41.3 6.4,-6.1 7.6,-6.9 14.5,-8.6 4.1,-1 20.1,-5.4 35.5,-9.8 15.4,-4.4 30.9,-8.8 34.5,-9.8 10.6,-3 13.3,-2.3 25.7,6.1 z"
         id="path686"
         inkscape:connector-curvature="0"
         style="fill:#000000;fill-opacity:1;stroke:none;stroke-width:0.1" />
      <path
         d="m 133,66.7 c -1.4,0.3 -9.5,2.5 -18,5 C 97,76.9 77,82.5 62,86.5 56.2,88 51.1,89.6 50.7,90 c -2.3,2 28,33.1 41,42.1 l 7.4,5.1 11.9,-3.1 c 22.4,-5.9 83,-28.7 83,-31.2 0,-1.3 -53,-35.9 -55.6,-36.3 -1.6,-0.2 -4,-0.2 -5.4,0.1 z m 3.9,18.3 c 7.5,1.3 13.1,3.9 16,7.6 3,3.9 2.6,6.7 -1.4,10.3 -4.2,3.7 -4.6,3.7 -7,1.1 -1.8,-2 -1.8,-2.1 0.3,-3.6 4.8,-3.3 1.1,-8.3 -7.9,-10.4 -6.3,-1.5 -12.9,-0.8 -22.8,2.5 -10.9,3.6 -14.1,5.8 -14.1,9.5 0,4.7 4.3,6.4 16.2,6.5 8,0 10,0.3 11.5,1.8 3,3 0,3.8 -12.8,3.5 -10.9,-0.3 -11.8,-0.5 -16.5,-3.3 -9.3,-5.8 -9.7,-11.4 -1,-17.3 6.8,-4.5 19,-8 31.6,-9.1 0.8,0 4.4,0.4 7.9,0.9 z"
         id="path688"
         inkscape:connector-curvature="0"
         style="fill:#004776;fill-opacity:1;stroke:none;stroke-width:0.1" />
      <path
         d="M 41.6,98 C 32.4,107.6 26,124.1 26,138.1 v 6.4 l 11.8,14.2 c 18.4,22.4 22.4,27.2 27.7,33.8 2.8,3.4 9.7,12 15.5,19.1 l 10.5,12.9 0.2,-6 c 0.9,-23 4.1,-64.2 5.9,-75.3 0.6,-3.7 0.4,-4.1 -3.6,-6.8 C 82,128.2 56.2,103.5 50.6,94.7 49.6,93.2 48.4,92 48,92 c -0.4,0 -3.3,2.7 -6.4,6 z"
         id="path690"
         inkscape:connector-curvature="0"
         style="fill:#004776;fill-opacity:1;stroke:none;stroke-width:0.1" />
      <path
         d="m 194,105.7 c -0.8,0.4 -4.6,2.1 -8.5,3.8 -16.2,7.4 -53.7,21 -72,26.1 -7.1,2 -13.1,3.7 -13.2,3.8 -0.3,0.3 -3.3,28.9 -4.2,41.1 -1.4,18 -2.5,43.5 -1.9,43.5 0.3,0 2.5,-0.9 4.9,-1.9 4,-1.8 4.8,-2.8 8.2,-9.9 5.9,-12.2 12.7,-19.6 26.7,-28.9 12.1,-8.1 21.4,-12.4 64,-29.4 26.5,-10.6 25.2,-10 24.5,-12.8 -1.4,-5.5 -10.3,-19.7 -17.3,-27.4 -7.5,-8.3 -8.5,-9 -11.2,-8 z"
         id="path692"
         inkscape:connector-curvature="0"
         style="fill:#004776;fill-opacity:1;stroke:none;stroke-width:0.1" />
      <path
         d="m 236,140.6 c -1.9,0.9 -13.6,5.6 -26,10.6 -12.4,4.9 -24.8,10 -27.5,11.3 -2.8,1.2 -7.1,3 -9.5,3.8 -9.4,3.2 -29,12.6 -29,13.9 0,1.3 8.8,12.9 15.8,20.8 7.5,8.5 27.5,28 37,36.1 9.9,8.5 35.7,28.9 36.4,28.9 1.4,0 46.3,-22.4 59.6,-29.7 26.2,-14.4 52.8,-31.5 51.7,-33.4 -0.6,-0.9 -57.7,-39.2 -81.4,-54.6 -13,-8.4 -14.8,-9.3 -19,-9.3 -2.5,0.1 -6.2,0.8 -8.1,1.6 z m 20.5,25 c 1.4,0.9 2.5,2 2.5,2.4 0,0.4 -5.7,3.3 -12.6,6.6 -14.2,6.6 -14.2,6.6 0.8,7.9 4.5,0.4 15.2,1.5 23.7,2.5 14.8,1.7 15.5,1.9 20.7,5.5 3,2.1 5.3,3.9 5.1,4.2 -0.2,0.2 -9.6,-0.8 -20.8,-2.2 -11.2,-1.4 -21.5,-2.6 -22.8,-2.8 -2,-0.2 -2.6,0.5 -3.6,3.8 -1.4,4.5 -11.3,30.4 -12.3,32.1 -0.5,0.8 -2.4,-0.3 -5.5,-3.1 l -4.8,-4.2 2.9,-7.4 c 1.7,-4.1 4.4,-10.8 6.1,-14.9 l 3,-7.5 -2.5,-0.7 c -1.4,-0.3 -5.3,-0.9 -8.7,-1.3 -5.9,-0.6 -6.7,-0.4 -16,3.9 -5.4,2.5 -10.3,4.6 -11,4.6 -1.2,0 -5.7,-3.9 -5.7,-5 0,-0.7 2.4,-1.8 30.5,-14.4 30.1,-13.4 27.3,-12.5 31,-10 z"
         id="path694"
         inkscape:connector-curvature="0"
         style="fill:#004776;fill-opacity:1;stroke:none;stroke-width:0.1" />
      <path
         d="m 138.5,182.7 c -4.1,2.2 -13.3,9.3 -17.9,13.9 -7.8,7.8 -13.6,18.9 -17.2,33 l -1.8,7.2 8.2,9.8 c 4.5,5.5 11.8,14.4 16.2,19.9 4.5,5.5 11.5,14 15.5,19 9.8,11.9 35.1,42.9 39.5,48.4 1.9,2.4 6.2,7.5 9.5,11.4 3.3,3.9 7.8,9.4 10,12.2 2.2,2.9 6.7,8.4 10,12.4 5.5,6.6 6,7 6.7,4.9 0.8,-2.7 11,-74.1 13.4,-93.7 1.3,-11.2 1.3,-13.6 0.2,-14.2 -2.1,-1.2 -26.7,-20.8 -34.4,-27.4 C 177.3,223 156.7,201.7 146,187.3 l -4.5,-6.1 z"
         id="path696"
         inkscape:connector-curvature="0"
         style="fill:#004776;fill-opacity:1;stroke:none;stroke-width:0.1" />
      <path
         d="m 339,210.6 c -4.1,3.1 -8.8,6.2 -10.5,7.1 -1.6,0.9 -5.7,3.4 -9,5.6 -13.4,8.8 -80.3,43.7 -83.9,43.7 -0.9,0 -1.8,4.2 -3,14.7 -1.8,15.4 -12.2,89.1 -13.1,93.1 -0.3,1.2 -0.3,2.2 0,2.2 0.5,0 25.9,-17.1 44,-29.6 9.9,-6.9 40.8,-28 46.1,-31.4 14.7,-9.7 50.4,-34.1 55.8,-38.1 5.9,-4.4 6.1,-4.8 7,-10.5 1.6,-10.5 -2.5,-27.8 -9.5,-40.3 -2.6,-4.5 -15.6,-22.2 -16.2,-22.1 -0.1,0.1 -3.6,2.6 -7.7,5.6 z"
         id="path698"
         inkscape:connector-curvature="0"
         style="fill:#004776;fill-opacity:1;stroke:none;stroke-width:0.1" />
    </g>
  </g>
  <g
     inkscape:groupmode="layer"
     id="layer2"
     inkscape:label="Trace" />
</svg>
