<?xml version="1.0" encoding="UTF-8"?>
<!DOCTYPE svg PUBLIC "-//W3C//DTD SVG 1.1//EN" "http://www.w3.org/Graphics/SVG/1.1/DTD/svg11.dtd">
<!-- Creator: CorelDRAW 2018 (64-Bit Evaluation Version) -->
<svg xmlns="http://www.w3.org/2000/svg" xml:space="preserve" width="10in" height="10in" version="1.1" style="shape-rendering:geometricPrecision; text-rendering:geometricPrecision; image-rendering:optimizeQuality; fill-rule:evenodd; clip-rule:evenodd"
viewBox="0 0 10000 10000"
 xmlns:xlink="http://www.w3.org/1999/xlink">
 <defs>
  <style type="text/css">
   <![CDATA[
    .fil0 {fill:none}
    .fil2 {fill:#FEFEFE;fill-rule:nonzero}
    .fil1 {fill:#201E1E;fill-rule:nonzero}
   ]]>
  </style>
 </defs>
 <g id="Layer_x0020_1">
  <metadata id="CorelCorpID_0Corel-Layer"/>
  <rect class="fil0" width="10000" height="10000"/>
  <g id="_1948088830896">
   <path class="fil1" d="M2990.32 3668.35c-1.1,-10.55 -2.54,-22.88 -4.07,-36.08l0.09 -0.01 -0.02 -0.2 -0.09 0.01c-1.88,-16.14 -3.9,-33.48 -5.7,-51.28 -12.83,3.38 -25.34,6.54 -37.44,9.48 -25.17,6.11 -47.63,10.94 -66.81,14.47 -33.3,6.13 -61.09,7.22 -81.97,3.49 -31.23,-5.63 -51.15,-21.35 -57.72,-46.85 -2.97,-11.57 -2.94,-22.86 0.17,-33.84 2.96,-10.44 8.49,-20.07 16.62,-28.81l26.63 -28.59c29.96,-32.15 61.17,-65.63 89.15,-96.34 -11.16,4.8 -22.22,9.43 -33.15,13.89 -71.91,29.32 -139.17,51.47 -190.22,64.56 -15.49,3.97 -29.15,7.09 -40.7,9.29 -12.93,2.46 -24.18,4.08 -33.43,4.8 -4.44,0.34 -9.35,0.47 -14.67,0.38 -19.8,-0.35 -36.29,-4.97 -49.02,-13.95 -15.8,-11.15 -24.82,-27.06 -26.43,-47.84 -0.14,-1.8 -0.18,-4.3 -0.13,-7.52 0.19,-10.18 2.62,-20.09 7.41,-29.65 1.94,-3.87 4.22,-7.63 6.87,-11.28l0 -2 10.71 -10.36c62.53,-60.47 113.49,-113.23 155.56,-160.71 31.01,-35.01 57.36,-67.32 80.12,-97.92 -23.63,7.53 -46.14,13.2 -66.69,17.43 -48.18,9.93 -85.77,12.11 -102.36,12.11 -25.7,0 -48.19,-1.77 -66.85,-5.61 -22.91,-4.72 -40.72,-13.05 -52.62,-25.5 -22.98,-24.06 -28.35,-50.31 -13.71,-79.01 10.25,-20.1 32.17,-39.64 67.13,-58.5 25.54,-13.78 53.05,-45.94 82.63,-89.12 31.44,-45.91 64.97,-104.55 100.77,-167.17 16.24,-28.41 33.43,-58.29 54.14,-93.06l-2.72 1.3 0 0.14c-32.17,15.37 -61.59,30.72 -88.51,45.85 -36.99,20.79 -69.61,41.27 -98.43,60.89 -28.94,19.7 -54.26,38.67 -76.45,56.29 -15.43,12.25 -29.48,21.35 -42.11,27.52 -15.67,7.65 -30.24,11.28 -43.59,11.2 -10.33,-0.06 -19.63,-1.51 -27.91,-4.29 -15.77,-5.31 -27.62,-14.85 -35.63,-28.29 -7.02,-11.77 -10.43,-25.75 -10.34,-41.7 0.08,-15.59 3.53,-33.46 10.2,-53.27 5.65,-16.78 14.28,-36.81 25.62,-59.41 10.76,-21.43 24.06,-45.32 39.65,-71.04 68.6,-113.17 184.37,-266.04 326.06,-404.31 91.73,-89.51 194.5,-173.17 302.74,-236.56 -58.31,-25.87 -114.57,-53.79 -167.15,-82.27 -81.89,-44.35 -155.33,-90.29 -214.04,-132.08 -27.03,-19.24 -50.93,-37.56 -71.12,-54.44 -20.73,-17.33 -38.36,-33.86 -52.23,-49 -12.31,-13.44 -21.91,-26.21 -28.6,-38.16 -9.41,-16.78 -14.02,-33.17 -13.52,-48.91 0.59,-18.71 7.96,-34.97 22.55,-48.36l-0.06 -0.07c4.86,-4.46 10.39,-8.43 16.57,-11.9 11.95,-6.69 26.81,-10.42 44.7,-10.78 14.18,-0.3 30.7,1.57 49.61,5.81 99.22,22.22 189.61,42.26 276.45,59.99 84.62,17.28 165.65,32.24 248.11,44.72 68.08,10.3 136.09,18.61 206.7,24.78 38.91,3.39 78.22,6.13 118.31,8.19 -16.77,-14.57 -32.87,-29.24 -48.23,-43.81 -44.3,-42.04 -82.19,-83.33 -111.85,-119.9 -13.68,-16.85 -25.74,-32.89 -36.01,-47.69 -10.74,-15.48 -19.63,-29.86 -26.44,-42.64 -11.38,-21.35 -17.63,-41.32 -18.42,-59.11 -0.44,-9.86 0.65,-19.04 3.3,-27.46l-5.94 -6.93 24.89 -22.59c10,-9.08 21.73,-14.91 35.15,-17.22 11.62,-2 24.16,-1.15 37.59,2.76 173.13,50.36 315.67,95.13 442.87,135.08l0.74 0.19 -0.01 0.04c90.93,28.56 174.23,54.72 249.08,76.96 42.13,12.52 82.73,24.15 122.24,34.8l-1.98 -3.16c-12.1,-19.37 -22.33,-37.91 -30.53,-55.1 -8.89,-18.63 -15.8,-36.48 -20.54,-52.95 -5.09,-17.68 -7.72,-34 -7.72,-48.31 0,-14.74 2.58,-28.32 7.82,-40.48 5.61,-13.02 14.11,-24.07 25.61,-32.83 20.75,-15.83 49.06,-14.35 85.42,-1.93 27.01,9.22 60.32,24.59 100.06,42.91 105.39,48.61 264.78,122.14 408.28,158.84 75.4,19.28 154.24,16.02 232.09,12.8 25.7,-1.06 51.3,-2.13 78.33,-2.41 39.4,-0.41 80.1,-1.48 121.28,-2.56 241.67,-6.34 500.16,-13.1 835.85,104.96 67.01,-0.02 162.08,-0.67 250.69,-18 85.58,-16.74 164.69,-48.99 201.81,-111.75 5.65,-9.56 11.96,-17.35 18.77,-23.46 8.32,-7.48 17.53,-12.57 27.4,-15.46 3.55,-1.03 6.92,-1.81 10.09,-2.33 18.5,-3.04 34.41,0.73 47.79,10.63 11.96,8.85 20.26,21.83 25.1,38.46 1.29,4.44 2.33,9 3.09,13.7 1.03,6.28 1.64,13.71 1.82,22.07 0.18,7.96 -0,16.3 -0.53,24.78 -1.9,30.46 -8.24,71.53 -18.36,112.82 -4.93,20.13 -10.81,40.45 -17.55,59.79 50.85,9.81 113.74,25.27 160.5,45.05 46.25,19.56 79.62,45.65 82.63,79.79 2.65,30.11 -13.57,52.67 -55.89,68.88 -15.72,6.02 -36.5,11.54 -63.19,16.74 60.29,60.96 117.02,128.83 168.78,201.42 66.42,93.15 124.57,193.97 171.46,297.79 47.19,104.5 83.22,212.57 105.06,319.58 19.34,94.73 27.55,188.39 22.56,277.74 7.23,4.2 14.34,8.65 21.3,13.36 10.86,7.35 21.39,15.36 31.5,24.08 16.09,5.41 31.89,11.67 47.14,18.85 17.77,8.37 34.96,18.06 51.25,29.21 33.91,23.24 63.8,52.58 86.98,89.48 21.43,34.11 36.95,74.45 44.34,122.07 27.58,32.19 51.05,68.69 69.89,108.71 20.05,42.57 34.86,89.28 43.81,139.16 15.34,85.45 21.48,162.38 19.95,231.49 -1.67,75.09 -12.34,141.1 -30.1,198.92 -11.36,36.98 -25.67,70.76 -42.41,101.55 -15.78,29 -33.52,55.07 -52.83,78.44 -3.96,46.85 -19.8,89.32 -45.04,127.15 -28.58,42.83 -69.11,79.33 -117.89,109.17 -11.63,7.11 -23.3,13.65 -34.95,19.59 -9.67,4.93 -20.37,9.93 -32.03,14.99 -26.11,23.38 -56.27,44.07 -89.48,61.95 -35.53,19.14 -74.88,35.15 -116.72,47.87 -58.85,17.9 -122.47,29.19 -187.06,33.43 -63.89,4.2 -129.24,1.53 -192.35,-8.41 -16.5,-2.59 -31.69,-5.41 -45.47,-8.42 -5.61,-1.22 -11.19,-2.51 -16.74,-3.86 -56.5,106.42 -125.74,211.52 -206.01,312.12 -67.04,84.02 -141.94,165.13 -223.69,241.48 69.86,9.76 142.24,38.01 213.92,75.63 101.54,53.29 200.31,124.12 288.15,187.12 36.32,26.05 70.69,50.7 100.99,71.11 30.23,20.37 57.19,37.16 79.47,48.13l35.91 17.67 -1.24 39.94c-0.4,12.9 -2.42,26.53 -5.86,40.73 -1.52,6.25 -3.27,12.55 -5.24,18.87l6.85 5.11c31.65,23.61 67.09,50.06 106.37,83.62 38.68,33.04 79.8,72.11 121.91,120.34 23.21,26.57 43.04,50.03 58.97,72.71 17.17,24.45 30.25,48.45 38.75,74.78 8.98,27.83 12.29,56.35 9.19,88.04 -2.98,30.42 -11.76,63.16 -26.99,100.5 -36.7,89.96 -101.38,187.41 -179.02,285.57 -73.79,93.28 -158.81,186.76 -242.37,274.83 0.96,25.96 0.72,68.98 -0.64,121.93 -1.61,62.82 -4.72,139.1 -9.18,216.86 -3.82,66.67 -8.44,133.98 -13.7,194.69 -4.05,46.7 -8.65,91.58 -13.79,132.01 3.67,3.18 7.24,6.38 10.68,9.59 10.26,9.58 21.91,22.43 34.07,37.41 12.07,14.86 24.57,31.67 36.63,49.27 11.29,16.48 22.74,34.5 33.65,53.11 10.52,17.95 19.92,35.35 27.49,51.23 14.53,30.45 23.78,61.84 28.56,93.61 4.93,32.8 5.07,65.95 1.35,98.84 0.85,16.27 2.05,36.74 3.15,55.69 1.38,23.66 2.62,44.89 3,56.41l0.13 1.09 -0.1 0.02c3.5,104.67 7.65,233.19 -35.69,316.23 -4.26,8.17 -8.76,17.6 -13.39,27.68 -2.28,4.98 -8.27,18.53 -14.27,32.1 -23.28,52.69 -47.55,107.6 -86.84,151.72 -15.07,16.92 -27.17,33.8 -37.64,50.39 -11.12,17.62 -20.59,35.01 -29.76,51.87 -37.74,69.34 -71.68,131.71 -169.93,178.51 -43.21,20.58 -77.1,30.85 -108.2,35.96 -30.59,5.02 -56.98,4.73 -86.87,4.4 -12.75,-0.14 -26.29,-0.29 -41.57,0.15 -14.21,0.41 -30.35,1.41 -49.6,3.61l-0.13 0c-4.79,0.54 -27,5.72 -51.01,11.31 -0.31,0 -0.46,0.04 -0.76,0.11l0.01 0.06c-24.56,5.71 -50.65,11.78 -70.02,15.24 -79.97,100.62 -181.1,155.03 -293.27,185.88 -113.19,31.14 -235.8,37.78 -358.95,44.43 -36.41,1.96 -72.87,3.94 -112.02,6.85 -37.25,2.78 -73.69,6.24 -108.44,11.02 -10.92,1.53 -22.09,2.8 -33.39,3.5 -11.73,0.74 -23.75,0.9 -36.04,0.16 -12.99,-0.78 -26.34,-2.63 -40.04,-5.91 -13.7,-3.29 -27.41,-8.01 -41,-14.51 -11.12,-5.32 -21.96,-11.9 -32.36,-19.39 -10.96,-7.88 -21.42,-16.68 -31.21,-26.01 -9.37,-8.93 -18.43,-18.56 -26.96,-28.48 -5.42,-6.3 -10.65,-12.77 -15.66,-19.3 -2.82,0.45 -5.64,0.85 -8.45,1.2 -8.42,1.04 -17.61,1.63 -27.6,1.72 -11.9,0.1 -23.94,-0.49 -35.24,-1.88 -10.96,-1.34 -22.22,-3.51 -33.25,-6.58 -11.91,-3.31 -23.27,-7.69 -33.52,-13.22 -10.37,-5.6 -19.84,-12.47 -27.93,-20.76 -9.82,-10.05 -17.06,-16.64 -21.86,-21.01 -1.1,-1.1 -2.44,-2.22 -3.6,-3.28 -8.37,1.2 -17.37,1.57 -27.05,0.41 -12.53,-1.5 -25.43,-5.48 -38.31,-13.31l-6.59 3.57c-12.58,6.7 -25.13,12.5 -37.26,16.99 -12.13,4.48 -24.28,7.94 -36.23,10.05 -14.45,2.56 -28.84,3.38 -43.1,2.87 -14.04,-0.52 -27.4,-2.32 -40.15,-5.06 -11.75,-2.52 -23.37,-5.94 -34.78,-9.91 -10.35,-3.6 -20.88,-7.87 -31.33,-12.39 -31.28,-13.52 -63.99,-26.11 -97.41,-38.19l-0.13 0c-32.43,-11.72 -64.89,-22.76 -97.31,-33.7 -86.33,-1.66 -193.19,-18.11 -303.88,-47.76 -104.56,-28 -213.11,-67.81 -311.68,-118.08 -88.46,-45.11 -169.6,-99.05 -233.98,-161.06 -59.13,-56.96 -104.17,-120.79 -128.05,-191 -23.15,-68.05 -39.48,-124.76 -47.84,-175.57 -8.69,-52.8 -8.68,-98.96 1.37,-143.98 8.35,-37.45 23.2,-72.41 45.26,-107.93 10.1,-16.27 21.81,-32.76 35.2,-49.76l-290.79 -1.59c-23.67,-0.22 -44.63,-3 -63.14,-7.81 -21.09,-5.48 -39.07,-13.51 -54.35,-23.35 -15.33,-9.88 -27.99,-21.51 -38.36,-34.24 -11.48,-14.09 -19.95,-29.2 -26.04,-44.57 -4.99,-12.6 -8.41,-25.59 -10.62,-38.44 -2.39,-13.92 -3.27,-27.92 -3.15,-41.14 0.08,-8.99 0.62,-17.07 1.45,-24.19l0.54 -4.26c-10.52,-10.96 -19.89,-23.15 -27.75,-36.26 -11.13,-18.57 -19.24,-38.98 -23.38,-60.41l-336.93 -1743.67c-0.98,-5.07 -1.75,-10.42 -2.3,-16.04 -0.61,-6.11 -0.91,-11.43 -0.91,-15.96 0,-17.48 2.96,-34.48 8.52,-50.51 5.69,-16.44 14.06,-31.47 24.71,-44.56 10.82,-13.32 23.85,-24.6 38.69,-33.35l0.13 0c14.52,-8.56 30.67,-14.75 48.08,-18.11 4.65,-0.9 9.8,-1.63 15.44,-2.17 5.92,-0.56 11.12,-0.86 15.51,-0.86l1380.52 0c-18.17,-4.91 -36.2,-10.07 -54.07,-15.56 -99.5,-30.51 -193.43,-70.48 -279.63,-127.56 -83.69,-55.41 -159.39,-126.48 -224.87,-219.89 -62.83,-89.63 -115.98,-199.56 -157.39,-335.7 -110.74,-67.28 -181.09,-180.16 -229.33,-307.77 -48.4,-128.01 -74.35,-270.61 -97.02,-395.32 -2.73,-15.02 -5.4,-29.67 -10.38,-56.19 -3.61,-19.2 -7.12,-37.28 -10.51,-53.66l-0.78 -3.73c-0.26,-1.58 -0.44,-2.89 -0.61,-4.43l0.05 -0c-2.56,-20.76 4.42,-40.45 19.75,-59.05 9.33,-11.32 22.03,-22.35 37.7,-33.06 2.87,-45.98 8.35,-79.19 18.54,-105.5 10.17,-26.28 24.27,-45.05 43.91,-60.9zm-905.52 -1818.17c41.47,34.33 82.88,70.74 95.27,97.91 -74.91,45.45 -76.7,116.93 -43.12,138.27 57.57,36.59 101.8,-50.45 108.94,-95.95 7.59,-48.35 -110.71,-167.8 -128.2,-174.84 10.26,-23.22 66.19,-108.36 105.88,-142.29 19.33,-16.53 23.37,-11.85 38.44,0.62 44.05,36.46 88.02,75.13 101.19,103.99 -79.56,48.27 -81.46,124.19 -45.79,146.86 61.14,38.85 108.11,-53.59 115.7,-101.91 6.5,-41.37 -174.94,-242.72 -221.98,-272.1 -13.95,-8.72 -18.79,4.3 -48.86,36.37 -56.7,60.48 -138.34,162.41 -146.23,171.82 -34.2,40.8 47.38,73.52 68.78,91.24zm507.85 2089.24c-7.63,9.3 -14.37,18.37 -20.2,27.14 -10.46,15.71 -18.04,30.46 -22.81,43.84 -1.92,5.38 -3.13,10.34 -3.73,14.83 -1.61,12.15 0.15,23.48 4.13,32.32 2.89,6.4 6.45,10.81 9.98,12.07l0.06 0.09 0.59 0.2c0.33,0.04 -0.24,-0.15 0.17,-0.3 9.96,-3.59 21.46,-20.07 31.07,-38.04 10,-18.73 16.94,-37.52 18.96,-47.64 -5.2,-14.07 -11.36,-29 -18.22,-44.51zm-66.35 -3.56c11,-16.52 24.52,-33.73 40.57,-51.26 -20.8,-42.16 -44.29,-86 -66.15,-126.79 -10.23,-19.09 -20.12,-37.57 -29.02,-54.46 -24.22,-45.96 15.1,-54.82 40.55,-24.44 49.8,59.43 116.57,190.77 152.51,290.65 1.91,5.28 2.32,11.81 1.35,19.13 -1.91,14.41 -11.47,43.03 -25.3,68.91 -15.12,28.3 -36.28,55.33 -61.11,64.28 -8.28,2.98 -17.04,4.08 -26.25,2.86 -4.25,-0.56 -8.27,-1.52 -12.02,-2.86l-0.02 0.06c-18.05,-6.43 -32.93,-21.52 -41.91,-41.47 -7.88,-17.51 -11.43,-39.43 -8.38,-62.45 1.19,-8.99 3.24,-17.82 6.24,-26.23 6.19,-17.33 15.8,-36.15 28.96,-55.91zm4528.89 -2535.57c-137.84,16.95 -212.91,160.18 -117.74,209.41 88.69,45.87 186.54,-59.54 182.84,-159.25 -0.04,-1.03 -66.13,-248.19 -70.31,-272.81 28.5,30.73 108.15,104.02 178.22,119.28 76.4,16.63 83.73,-35.39 92.61,-55.47 -93.63,20.83 -93.61,-4.43 -175.52,-118.05 -81.85,-113.54 -225.41,-45.45 -206.4,-15.44 76.21,120.31 92.14,170.33 116.3,292.33zm705.02 1590.39c-8.83,37.47 -19.02,75.56 -32.49,92.12 -52.9,-33.57 -99.27,-12.02 -102.28,16.27 -5.17,48.5 64.64,49.2 96.06,39.34 33.39,-10.48 72.37,-124.2 71.33,-137.64 18.13,-0.8 90.44,8.01 124.77,22.67 16.72,7.14 15.01,11.22 11.8,24.83 -9.37,39.79 -20.2,80.25 -34.51,97.84 -56.18,-35.65 -105.43,-12.77 -108.63,17.28 -5.48,51.51 68.66,52.26 102.02,41.78 28.57,-8.97 99.98,-189.14 103.87,-228.6 1.15,-11.71 -8.72,-10.68 -38.81,-19.76 -56.75,-17.13 -147.97,-37.08 -156.51,-39.15 -37,-8.96 -32.06,53.69 -36.63,73.03z"/>
   <path class="fil2" d="M3378.95 4628.85c110.95,27.85 274.17,26.77 432.26,-4.04 108.36,-21.11 212.81,-56.04 294.18,-104.93 73.55,-44.19 127.01,-99.16 143.35,-164.27 6.52,-25.95 7.31,-54.35 1.29,-85.28 -15.05,-77.22 -35.65,-172.26 -56.43,-264.01 -25.89,-114.32 -53.67,-230.11 -71.33,-299.76 -37.55,5.17 -87.73,13.58 -146.17,24.33 -176.03,32.37 -423.34,85.36 -626.04,135 -167.3,40.96 -296.48,73.91 -297.62,97.14 6.74,32.81 3.2,11.61 10.42,51.32 43.85,241.15 101.97,560.74 316.08,614.5zm268.35 1565.16c415.16,-34.07 945.43,-81.99 968.44,-84.74 21.82,-2.46 27.69,8.5 28.45,17.24 1.29,14.71 2.52,36.85 5.91,65.2 13.41,112.13 31.52,360.87 43.06,519.62 3.76,51.71 3.03,100.74 4.04,125.65 1.96,48.33 -9.16,42.84 -106.11,49.24 -51.19,3.38 -128.47,8.15 -221.03,13.69 -364.01,21.78 -963.88,54.13 -1097.93,59.12 -37.58,1.39 -29,3.83 -38.56,-41.43 -19.26,-91.09 -55.37,-311.56 -81.22,-472.9 -8.91,-55.69 -22.02,-126.24 -24.38,-182.41 -0.68,-16.28 -0.35,-29 19.73,-31.69 111.65,-14.95 463.56,-33.64 499.59,-36.6zm4.44 55.19c-204.52,16.78 -383.48,30.44 -465.43,34.19 0.74,8.47 1.94,19.68 3.54,33.11 3.9,32.95 9.91,74.33 17.15,119.56 30.56,190.78 76.53,467.39 78.54,467.64 14.41,1.85 676.64,-34.89 1081.39,-59.11 86.35,-5.17 162.8,-9.91 220.6,-13.72 37.69,-2.48 51.07,-0.72 53.6,-12.13 -1.97,-20.41 1.44,-37.65 -3.35,-103.41 -11.52,-158.42 -29.59,-406.63 -42.81,-517.21 -1.14,-9.51 0.24,-27.19 -11.3,-25.81 -22.58,2.7 -514.45,42.64 -931.93,76.9zm-537.62 -2651.72c-1.51,-13.28 -2.79,-25.29 -4.2,-39.61 -1.65,-16.78 -3.04,-31.91 -4.62,-50.1 -13.39,4.33 -26.48,8.48 -39.26,12.42 1.81,33.48 6.06,70.01 9.74,101.66 1.49,12.83 2.89,24.9 4.02,35.85 5.43,-2.43 11.09,-4.93 17.01,-7.52 3.52,-18.25 9,-35.76 17.3,-52.7zm45.35 -107.82c1.56,18.35 2.79,32.53 3.79,43.68 3.69,-3.39 7.56,-6.75 11.63,-10.11l2.81 -3.15c5.95,-6.78 12.2,-13.93 22.61,-17.61 -0.93,-8.65 -1.91,-17.35 -2.92,-26.14 -12.81,4.59 -25.46,9.04 -37.91,13.33zm-132.87 195.2c-0.97,-14.02 -3.31,-34.13 -5.93,-56.72 -3.31,-28.49 -7.07,-60.76 -9.25,-91.75 -56.69,16.11 -105.1,27.63 -141.39,34.3 -57.97,10.67 -94.25,4.27 -99.95,-17.86 -2.81,-10.95 -0.03,-21.18 8.65,-30.52l26.63 -28.59c64.92,-69.65 135.97,-145.88 202.25,-226 -133.14,73.73 -279.59,127.72 -370.37,151 -28.44,7.3 -51.81,11.73 -68.16,13 -34.46,2.67 -53.54,-8.25 -53.08,-33.8 0.18,-9.86 4.84,-19.5 14.42,-28.77l0 -0.11c125.96,-121.81 206.33,-213.7 262.78,-295.45 15.43,-22.34 29.08,-43.96 41.42,-65.28 -23.38,12.94 -46.79,23.6 -69.51,32.37 -88.31,34.09 -166.63,39.59 -192.06,39.59 -47.56,0 -80.8,-6.04 -94.38,-20.26 -23.81,-24.93 -12.11,-52.45 44.74,-83.13 62.17,-33.56 125.03,-143.52 197.09,-269.58 34.75,-60.79 71.67,-124.7 112.17,-186.35 -75.88,30.21 -140.75,61.87 -196.32,93.11 -75.56,42.47 -133.96,84.14 -179.49,120.3 -27.13,21.55 -48.41,31.35 -64,31.26 -39.22,-0.2 -48.41,-30.26 -30.99,-81.98 10.28,-30.54 31.57,-73.32 62.01,-123.53 119.09,-196.46 383.67,-515.46 678.97,-662.57 -171.78,-69.44 -332.31,-161.51 -440.85,-238.76 -52.26,-37.2 -93.09,-71.45 -117.93,-98.56 -38.37,-41.89 -44.76,-75.25 -11.61,-93.82 13.96,-7.82 36.93,-8.84 69.91,-1.45 199.73,44.74 363.31,80.51 526.87,105.25 137.83,20.85 274.9,33.62 432.81,36.96 -99.63,-74.46 -181.98,-157.42 -235.88,-223.85 -26.66,-32.86 -46.72,-62.14 -58.79,-84.78 -17.71,-33.22 -19.41,-59.47 -3.31,-74.13l-0.05 -0.06c10.01,-9.08 23.26,-11.68 39.79,-6.87 170,49.45 314.15,94.73 442.79,135.13 180.26,56.62 330.23,103.72 466.51,136.08 -7.07,-8.5 -13.85,-17 -20.3,-25.46 -28.26,-37.06 -50.48,-73.32 -65.65,-105.09 -16.22,-33.98 -24.87,-64.12 -24.87,-86.35 0,-19.92 6.42,-35.63 19.73,-45.78 19.8,-15.11 72.28,9.09 149.95,44.92 106.62,49.18 267.89,123.57 414.24,161 105.71,27.04 214.04,12.46 319.24,11.35 276.15,-2.91 561.42,-35.76 950.76,102.4 137.7,-0 401.96,-0.54 488.44,-146.71 7.74,-13.07 16.56,-20.58 25.96,-23.32 24.09,-7.01 37.78,5.5 42.27,32.79 1.61,9.8 1.87,23.36 0.88,39.26 -3.31,53.15 -21.11,141.07 -49.48,201.84 7.98,1 17.82,2.37 29.33,4.46 87.7,15.95 223.4,51.04 227.37,96.17 2.3,26.13 -39.2,43.34 -158.5,59.44 155.69,142.77 290.96,333.66 382.63,536.64 90.31,199.97 138.64,412.26 123.1,602.83 25.53,12.82 49.72,28.74 71.47,48.39 33.93,10.87 66.8,25.77 96.31,45.99 60.39,41.39 106.16,104.05 118.07,198.12 56.57,62.97 95.6,144.94 112.44,238.78 30.87,171.99 23.45,307.85 -9.2,414.14 -21.94,71.44 -55.22,129.57 -95.97,176.38 -3.66,93.48 -60.89,167.75 -147.15,220.52 -21.05,12.88 -43.87,24.46 -68.08,34.72 -50.77,46.86 -119.55,82.57 -197.09,106.15 -111.87,34.04 -242.82,43.04 -364.07,23.94 -29.1,-4.58 -57.67,-10.79 -85.35,-18.66 -114,222.93 -286.25,442.16 -500.72,627.48 178.31,-23.78 396.2,132.48 570.72,257.65 72.5,52 137.2,98.4 185.34,122.09l15.96 7.85 -0.55 17.75c-0.66,21.13 -6.98,45.83 -17.71,72.98 8.63,6.54 17.79,13.38 27.3,20.48 63.17,47.14 141.45,105.56 223,198.94 44.61,51.09 76.22,90.12 90.81,135.28 15.1,46.77 11.08,96.13 -16.99,164.94 -70.84,173.65 -251.63,378.65 -424.65,560.38 3.57,38.8 0.22,188.92 -9.02,349.93 -6.98,121.74 -17.11,250.61 -29.74,343.14 8.04,6.25 16.01,13.02 23.92,20.41 18.5,17.28 42.52,47.02 65.68,80.84 21.69,31.67 42.93,67.23 58.43,99.72 26.95,56.48 33.59,116.59 26.48,176.09 2.03,39.78 5.73,97.22 6.31,114.64 3.38,100.85 7.54,225.02 -31.72,300.24 -9.34,17.89 -18.95,39.64 -28.74,61.81 -22.19,50.22 -45.31,102.56 -81.01,142.64 -32.62,36.63 -52.84,73.77 -71.88,108.76 -34.87,64.07 -66.23,121.7 -154.47,163.73 -80.2,38.2 -123.43,37.73 -179.89,37.1 -26.37,-0.29 -55.95,-0.61 -95.37,3.89 -7.08,0.81 -30.34,6.22 -55.43,12.06 -30.96,7.2 -64.51,15.01 -81.39,16.93 -151.91,201.76 -392.44,214.78 -635.15,227.9 -75.39,4.07 -151.02,8.17 -223.44,18.16 -20.14,2.78 -41.15,4.67 -62.64,3.37 -22.61,-1.35 -45.52,-6.2 -68.15,-17.03 -18.97,-9.08 -37.54,-23.03 -54.62,-39.3 -17.64,-16.8 -34.04,-36.36 -47.76,-55.56 -2.47,-1.53 -4.92,-3.1 -7.35,-4.71 -15.65,3.68 -31.59,5.76 -47.71,5.91 -19.12,0.17 -40.37,-2.05 -58.99,-7.24 -18.11,-5.05 -34.46,-13.09 -45.85,-24.75 -11.08,-11.34 -18.52,-18.1 -23.45,-22.59 -8.11,-7.37 -11.99,-10.9 -14.85,-15.85 -20.74,6.27 -47.54,10.59 -74.86,-16.51 -8.28,5.35 -16.78,10.39 -25.36,14.96 -21.06,11.22 -42.72,19.76 -63.19,23.37 -24.53,4.34 -47.87,2.85 -70.09,-1.92 -20.91,-4.48 -40.75,-11.98 -59.59,-20.13 -64.26,-27.79 -133.4,-51.33 -202.52,-74.64 -162.29,-1.93 -405.25,-59.97 -605.85,-162.26 -162.5,-82.86 -298.39,-195.42 -344.94,-332.26 -45.22,-132.94 -63.57,-220.08 -45.53,-300.96 14.87,-66.66 53.68,-125.78 121.69,-199.33l-365.52 -2c-42.99,-0.39 -75.15,-10.33 -99.04,-25.74 -25.62,-16.52 -41.48,-38.78 -50.83,-62.4 -8.83,-22.31 -11.65,-45.87 -11.46,-66.56 0.14,-15.19 2.2,-29.49 4.81,-40.98 -27.31,-23.29 -47.63,-55.4 -54.49,-90.91l-336.93 -1743.67c-1.7,-8.82 -2.53,-17.35 -2.53,-25.49 0,-28.02 9.22,-53.39 25.36,-73.24 16.19,-19.92 39.15,-33.96 66.56,-39.25 7.97,-1.54 16.14,-2.35 24.44,-2.35l1721.85 0 -39.32 -7.02 -41.71 -7.46c-211.09,-37.55 -408.49,-82.08 -574.88,-192.25 -160.64,-106.36 -290.38,-272.52 -372.14,-549.74 -219.14,-123.16 -276.79,-439.94 -321.56,-686.15 -7,-38.53 -13.67,-75.15 -21.03,-110.66 -0.44,-2 -0.61,-3.01 -0.84,-5.05 -2.98,-22.33 17.93,-45.51 56.67,-68.74 4.7,-103.46 19.45,-140.33 65.12,-169.46zm64.63 28.7c-46.83,22.63 -64.97,42.39 -72.02,111.57 22.29,-9.78 47.31,-19.5 74.63,-29.11l-0.38 -7.96c-1.27,-26.26 -2.46,-51 -2.23,-74.5zm115.5 -144.8c-63.83,54.91 -62.44,122.24 -58.3,209.16 21.55,-6.76 44.13,-13.45 67.57,-20.02 -0.72,-49.43 -2.56,-94.87 -5.47,-138.97 -1.11,-16.77 -2.37,-33.44 -3.8,-50.17zm1302.23 2928.57c2.36,33.91 4.5,64.54 4.55,93.93 0.29,139.35 -43.36,207.77 -304.18,219.61 -156.76,7.1 -111.1,-44.81 44.16,-58.37 173.91,-15.18 204.87,-66.23 204.68,-161.25 -0.05,-25.58 -2.19,-56.26 -4.55,-90.24l-1.38 -20.03c-4.9,1.32 -9.94,2.31 -15.11,2.91 -15.44,1.79 -32.05,0.15 -48.86,-6.31 -69.66,-26.75 -97.91,-117.96 -109.91,-183.98 -6.39,-35.19 19.6,-62.61 37.04,-20.49 21.23,51.3 37.6,131.69 92.63,152.83 7.69,2.95 15.47,3.69 22.82,2.84 6.53,-0.76 12.65,-2.76 18.04,-5.57 -2.05,-45.06 -2.67,-94.74 0.98,-149.39 4.25,-63.57 34.75,-53.44 44.69,0.28 14.24,76.95 13.1,204.37 14.41,223.22zm-466.94 -194.67c29.72,-6.44 58.88,-15.89 85.3,-28.37 4.85,-2.29 9.21,-4.78 12.86,-6.85 12.95,-7.37 22.06,-12.54 36.26,-7.2 21.55,8.1 24.67,24.28 11.09,60.35 -16.6,44.11 -51.96,115.53 -83.04,178.33 -8.67,17.52 -17,34.34 -25.2,51.24 76.91,-22.61 157.3,-26.34 206.58,-19.46 55.51,7.75 67.39,28.98 -89.63,51.84 -37.21,5.42 -75.46,12.79 -105.71,22.09 -17.3,5.31 -30.74,12.96 -39.29,17.81 -14.81,8.41 -23.94,13.63 -38.99,5.18l-0.02 0.04c-24.84,-13.98 -17.37,-29.63 2.18,-70.43l5.74 -12 -0.09 -0.04c8.18,-17.15 21.06,-43.17 34.74,-70.8 22.83,-46.13 48.02,-97.01 65.81,-137.13 -21.67,8.19 -44.2,14.73 -66.87,19.64 -100.83,21.85 -89.69,-37.35 -11.72,-54.25zm-229.4 65.6c-5.69,-0.04 -11.71,0.84 -17.95,2.52 -34.31,9.33 -69.27,41.99 -96.14,81.31 -27.41,40.1 -45.59,85.75 -45.84,120.2 -0.05,6.42 0.63,12.43 2.09,17.85 1.75,6.44 4.21,12.05 7.37,16.52 3.83,5.44 8.93,9.43 15.22,11.4 7.53,2.35 17.3,2.24 29.45,-1.04 15.22,-4.16 33.14,-12.97 53.81,-27.54 43.87,-30.94 79.31,-79.63 95.84,-125.47 7.36,-20.42 10.78,-39.79 9.19,-55.94 -1.26,-12.78 -5.82,-23.24 -14.35,-29.71 -8.28,-6.28 -20.93,-9.97 -38.69,-10.1zm-32.38 -51.05c10.6,-2.87 21.5,-4.37 32.6,-4.29 30.58,0.22 54.29,8.04 71.89,21.38 21.9,16.61 33.31,40.5 36.05,68.34 2.4,24.48 -2.15,52.1 -12.22,80.03 -20.08,55.71 -63,114.76 -116.03,152.16 -26.33,18.57 -50.12,30.05 -71.17,35.76l-0.11 0c-22.84,6.19 -43.04,5.84 -60.37,0.42 -18.59,-5.81 -33.3,-17.17 -44.08,-32.46 -7.02,-9.96 -12.23,-21.42 -15.61,-33.87 -2.69,-9.92 -3.92,-20.89 -3.83,-32.61 0.34,-45.51 22.3,-102.82 55.39,-151.23 33.63,-49.2 79.57,-90.66 127.39,-103.63l0.11 0zm-247.87 65.84c-26.34,4.8 -54.25,21.23 -80.24,43.98 -27.27,23.88 -51.87,54.35 -70.31,85.83 -23.59,40.27 -36.8,80.94 -31.66,109.19 1.69,9.27 4.82,17.4 9.41,23.83 4.34,6.09 10.2,10.72 17.6,13.32 8.77,3.08 19.98,3.7 33.75,1.2 19.96,-3.63 44.22,-13.58 73.02,-31.51 78.54,-48.92 42.43,46.92 -20.6,73.02 -15.29,6.33 -29.52,10.58 -42.66,12.97 -23.68,4.3 -44.28,2.76 -61.74,-3.37 -18.83,-6.61 -33.65,-18.25 -44.51,-33.5 -9.35,-13.12 -15.58,-28.85 -18.74,-46.19 -7.59,-41.69 8.57,-96.04 38.39,-146.94 21.33,-36.41 49.87,-71.72 81.59,-99.51 33.01,-28.91 69.99,-50.06 106.93,-56.79 15.57,-2.83 31.06,-3.15 46.18,-0.5 23.02,4.03 28.04,20.33 25.14,36.09 -6.46,34.97 -20.96,40.03 -35.11,33.74 -8.33,-3.7 -11.44,-17.58 -26.44,-14.85zm1326.83 1279.12c28.2,15.36 60.58,30.85 93.63,44.93 61.89,26.36 124.95,47.25 165.91,52.43 81.98,-30.17 166.03,-62.63 238.67,-90.68l10.09 -3.9 -508.3 -2.78zm163.75 131.77c-27.52,-9.22 -58.05,-21.45 -91.82,-35.84 -69.02,-29.4 -136.42,-65.63 -174.59,-96.49l-388.02 -2.12 6.67 3.61c81.76,44.24 176.37,95.44 246.05,102.26 55.46,5.43 93.89,19.22 133.11,33.3 41.54,14.9 84.06,30.15 150.39,34.11 35.81,-10.79 75.93,-24.08 118.2,-38.83zm-259.88 66.45c-9.3,-3.17 -18.36,-6.41 -27.37,-9.64 -35.9,-12.88 -71.09,-25.5 -119.66,-30.26 -81.2,-7.96 -180.92,-61.92 -267.11,-108.56 -39.34,-21.29 -75.76,-41 -104.37,-53.11l-814.2 -4.45c-83.7,84.77 -129.3,145.23 -143.94,210.85 -15.31,68.66 2.06,147.91 44.01,271.23 41.27,121.32 166.71,223.63 317.59,300.57 109.12,55.65 230.95,97.68 344.27,124.06 -135.62,-60.65 -252.07,-142.75 -315.05,-287.03 -55.59,-13.38 -220.67,-54.14 -60.97,-59.87 12.67,-0.45 24.79,-0.89 39.21,0.33 -4.91,-16.31 -9.24,-33.3 -12.92,-51.04 -10.85,-52.26 -16.91,-128.24 -11.03,-196.02 4.85,-55.94 18.08,-107.67 43.68,-139.63 16.51,-20.62 39.76,-37.46 64.27,-50.32 26.13,-13.7 54.22,-23.06 76.89,-27.62 106.76,-74 238.77,-6.41 330.26,40.46 28.65,14.67 52.49,26.89 64.79,29.93 7.64,-7.05 17.65,-10.89 29.9,-12.22 24.51,-2.67 53.55,10.39 90.62,27.06l3.27 1.47c2.52,1.13 5.12,2.55 7.78,4.23 4.75,3 9.22,6.82 13.41,11.38 26.65,-9.41 59.5,5.35 102.29,24.6l-0.02 0.04 3.16 1.42 0.11 0c2.78,1.25 5.43,2.67 7.89,4.23l-0.03 0.05c8.81,5.59 16.67,14 23.56,24.7 17.75,-2.83 38.11,3.47 62.17,13.54 1.75,-8.2 3.88,-15.46 6.44,-21.6 9.71,-23.26 25.19,-35.21 47.78,-31.98 7.66,1.09 15.34,4.33 22.97,9.92 11.5,8.43 12.8,7.64 15.53,5.96 17.13,-10.51 43.89,-26.92 114.82,-22.65zm-31.79 802.97c17.52,-4.33 30.57,-2.08 38.88,25.04 1.83,5.98 1.98,6.12 6.32,10.06 5.16,4.69 12.93,11.76 25.84,24.98 3.97,4.06 11.59,7.4 20.89,9.99 13.61,3.8 29.42,5.41 43.8,5.29 38.24,-0.34 76.77,-15.93 111.75,-38.4 47.18,-30.31 87.26,-72.72 112.3,-108.24 9.82,-13.94 25.62,-37.83 39.03,-64.84l1.73 -3.53c-9.59,1.53 -18.1,1.75 -25.45,1.5 -3.31,0.31 -6.66,0.46 -10.03,0.43 -17.75,26.05 -42.47,31.87 -66.06,37.41 -14.54,3.42 -28.14,6.62 -29.62,25.59 -1.39,17.23 -9.87,29.76 -22.05,38.65 -11.8,8.62 -26.68,12.91 -40.51,14.51 -44.26,5.12 -87.9,-9.67 -128.91,-37.19 -22.74,24.91 -49.43,44.48 -77.91,58.74zm472.3 -172.69c-5.53,20.8 -14.19,41.74 -23.8,61.09 -1.33,2.69 -2.69,5.34 -4.05,7.96 4.22,2.25 9.05,3.98 14.6,5.12 11.94,2.46 27.03,2.52 46.17,-0.29 -5.03,-11.24 -9.28,-23.82 -13.48,-37.74 -4.09,-13.56 -7.19,-28.41 -9.36,-44.2 -3.42,2.87 -6.78,5.55 -10.09,8.06zm-55.99 116.86c-4.16,6.34 -7.96,11.89 -11.18,16.45 -28.41,40.31 -73.98,88.48 -127.71,123 -8.31,5.33 -16.82,10.35 -25.51,14.98 5.13,2.1 10.29,3.98 15.48,5.63 24.98,7.96 50.44,10.64 74,7.39 74.65,-10.3 151.44,-14.46 228,-18.59 256.17,-13.85 509.77,-27.57 640.01,-280.2 22.04,-42.76 43.94,-103.03 54,-160.11 7.59,-43.11 8.37,-83.38 -3.12,-110.24 -52.96,-123.85 -202.02,-93.28 -300.64,-73.06l-17.1 3.53c-24.66,16.72 -50.13,34.1 -75.95,51.89 -18.67,50.48 -31.98,117.27 -37.87,184.31 -6.04,68.73 -4.2,136.65 7.75,186.18 0.15,0.57 0.25,1.17 0.43,1.72 1.06,4.99 2.01,12.66 0.98,20.2l0 0.11c-1.96,14.13 -9.16,26.7 -26.85,30.96 -0.32,0.08 -0.56,0.12 -0.86,0.26 -55.77,11.85 -92.71,11.52 -119.7,0.4 -3.46,2.42 -7.65,4.31 -12.7,5.53 -0.32,0.08 -0.56,0.12 -0.86,0.26 -62.98,13.39 -101.96,11.23 -129.7,-4.45 -5.04,1.38 -11.1,2.18 -18.3,3.13 -1.72,0.22 -3.65,0.48 -5.06,0.74 -30.72,5.54 -55.48,5.74 -75.88,1.53 -11.97,-2.47 -22.43,-6.38 -31.67,-11.57zm1001.71 -410.98c17.04,11.89 37.67,21.67 59.71,29.74 93.9,34.36 386.26,149.67 53.14,72.7 -45.98,-10.62 -95.83,-26.7 -135.65,-51.74 13.43,37.04 11.89,87.57 2.14,139.81l0 0.11c-12.52,67.03 -38.67,138.58 -63.07,185.92 -3.07,5.97 -6.23,11.77 -9.42,17.5 8.76,-2 17.95,-4.14 26.91,-6.22 26.65,-6.2 51.38,-11.96 61.72,-13.14 41.77,-4.78 73.67,-4.42 102.1,-4.11 49.06,0.54 86.63,0.96 155.58,-31.89 72.22,-34.4 99.45,-84.44 129.73,-140.07 20.65,-37.95 42.57,-78.23 79.04,-119.18 29.93,-33.6 51.24,-81.83 71.68,-128.1 9.69,-21.94 19.21,-43.48 30.47,-65.06 28.08,-53.81 28.98,-147.98 26.66,-233.51 -9.87,20.39 -20.81,40.16 -32.48,59.07 -141.04,228.55 -13.01,-91.05 -3.57,-114.25 9.61,-23.61 17.41,-47.85 22.78,-72.32 13.43,-61.13 11.59,-123.6 -15.55,-180.48 -14.38,-30.14 -34.04,-63.07 -54.09,-92.35 -20.98,-30.64 -42.09,-56.97 -57.66,-71.51 -90.8,-84.79 -199.89,-75.41 -339.54,-63.4 -22.24,1.91 -54.92,4.54 -83.41,6.51l-563.65 337.94 -4.67 2.28c-7.15,2.62 -14.02,4.28 -20.6,5.07l0 0.3 -2.76 -0.02c-4.62,0.39 -9.09,0.36 -13.42,-0.07l-50.53 -0.28c-35.88,13.13 -86.22,32.57 -143.53,54.7 -213.44,82.44 -523.25,202.1 -612.8,195.59 -57.41,-4.18 -75.8,7.1 -87.46,14.26 -22.06,13.54 -33.48,20.54 -66.71,-1.28 -1.91,7.56 -3.32,17.24 -4.32,28.49 -5.48,61.73 2.52,161.1 12.33,234.37 9.77,72.98 65.91,199.18 141.25,290.89 52.95,64.46 114.28,110.57 172.14,103.88 5.41,-0.63 10.57,-1.78 13.63,-3.67 5.03,-58.18 37.52,-65.83 72.26,-74 3.35,-0.79 6.75,-1.58 10.07,-2.52 -67.24,-34.35 -122.53,-103.67 -102.79,-112.4 10.43,-4.61 52.32,22.67 109.4,59.44 12.81,8.25 27.68,13.07 41.06,15.36 6.37,-1.18 13.76,-0.57 22.52,0.15 16.28,1.35 46.47,3.73 91.01,-38.42 131.21,-124.18 400.83,-304.94 567.32,-416.57 100.69,-67.51 209.06,-64.1 206.91,-44.08 -1.63,15.24 -86.32,29.91 -176.09,90.09l-0.62 0.41c75.68,-7.88 155.65,-1.35 211.94,55.96 65.6,12.45 155.7,27.52 232.76,32.17 171.72,10.39 248.39,10.65 248.39,22.82 0,15.24 -114.73,40.8 -251.65,32.52 -26.08,-1.57 -52.52,-4.19 -78.6,-7.41zm134.46 -940.26c106.16,-8.82 196.05,-12.72 277.84,27.61 10.98,-88.74 19.85,-204.12 26.13,-313.63 6.81,-118.88 10.8,-229.91 11.2,-291.46 -21.46,22.24 -42.62,44.04 -63.21,65.25 -79.46,81.85 -150.58,155.11 -199.16,212.94 -12.08,14.38 -21.22,26.34 -29.12,36.67 -25.5,33.36 -39.95,52.25 -80.9,69.46 -46.07,19.35 -106.53,25.91 -168.79,6.83 -41.86,-12.82 -84.41,-37.11 -123.67,-76.73 -5.8,3.33 -11.7,6.16 -17.63,8.44 -17.17,6.62 -34.87,8.93 -51.46,6.23 -17.96,-2.92 -34.26,-11.44 -47.09,-26.33 -8.91,-10.35 -15.94,-23.68 -20.29,-40.22 -29.56,-3.63 -62.94,-17.45 -92.26,-29.6 -22.58,-9.35 -38.58,-18.94 -40.22,-18.15l-0.04 -0.09c-9.93,4.84 -21.68,7.9 -34.6,9.43 -36.85,4.35 -88.71,-2.9 -132.97,-15.09 -12.52,-3.45 -24.61,-7.44 -35.83,-11.83l35.35 182.93 775.36 44.91 -0.03 0.52c12.44,-0.15 23.05,3.64 31.86,10.26 9.46,7.11 15.81,16.94 19.37,28.36 2.9,9.31 3.93,19.8 3.29,30.56 -1.8,29.88 -17.7,64.97 -43.11,82.74zm-758.55 982.51c-40.22,28.33 -80.21,57.09 -118.22,85.36 -5.61,32.77 -8.7,66.14 -8.46,97.54 0.22,30.34 3.61,58.85 10.91,83.06 8.21,27.23 15.67,46.41 29,54.25 13.25,7.78 35.44,8.92 73.15,2.28 -11.38,-54.49 -13.02,-124.2 -6.93,-193.55 3.87,-44.07 10.9,-88.41 20.55,-128.94zm-180.01 132.32c-28.92,22.52 -55.83,44.36 -79.79,65.02 0.33,12.37 1.21,24.41 2.68,35.92 1.74,13.61 4.41,26.68 8.09,38.91 8.21,27.22 15.67,46.41 29,54.25 12.8,7.52 33.94,8.84 69.36,2.93 -7.24,-13.56 -12.81,-29.42 -18.27,-47.53 -8.76,-29.05 -12.82,-62.9 -13.09,-98.69 -0.13,-16.61 0.58,-33.64 2.01,-50.8zm-579.5 198.91c-16.96,-15.63 -33.28,-33.18 -48.8,-52.07 -15.3,-18.62 -29.87,-38.63 -43.53,-59.39 -9.93,7.56 -21.04,12.8 -34.36,15.36 -24.93,4.8 -54.89,-1.31 -96.65,-21.47 -2.18,-1.05 -3.27,-1.52 -4.22,-1.92l-0.11 0c-5.91,-2.52 -10.99,-4.68 -15.15,-7 -28.06,8.99 -61.91,3.81 -111.48,-20.13 -1.49,-0.72 -3.18,-1.44 -4.67,-2.07 -6.67,-2.83 -12.29,-5.22 -16.76,-7.89 -30.9,7.68 -69.02,-0.69 -126.14,-30.46l-0.84 -0.54c-4.51,-2.5 -8.02,-5.43 -10.69,-8.67 -28.96,3.48 -64.63,-6.09 -115.2,-32.46l-0.84 -0.54c-15.83,-8.8 -19.38,-22.86 -17.48,-37.01 1.04,-7.7 4,-14.83 6.33,-19.31l0.9 -1.51c24.88,-44.68 44.86,-109.58 57.41,-177.2 13,-70.06 17.87,-142.32 11.84,-197.63 -1.48,-13.55 -2.02,-25.47 -1.68,-35.92 -20.33,-6.1 -44.41,-18.43 -72.13,-32.63 -89.6,-45.9 -225.02,-115.27 -309.3,-10.04 -18.28,22.82 -28.31,61.74 -32.53,105.18 -5.59,57.62 -0.61,121.62 9.2,168.84 57.81,278.31 298.49,359.45 541.6,441.42 72.47,24.43 145.16,48.94 214.73,79.03 36.37,15.73 82.37,16.89 126.73,3.45 34.36,-10.4 67.38,-29.55 93.83,-57.43zm-121.55 -159.34c-12.52,-22.14 -23.91,-44.56 -33.96,-66.56 -5.77,12.33 -12.13,23.92 -19.09,34.93 -6.15,9.72 -12.11,18.59 -18.25,26.51 26.43,12.17 43.73,16.2 55.74,13.89 5.54,-1.07 10.59,-4.1 15.56,-8.78zm-64.76 -145.21c-7.87,-24.52 -13.31,-47.09 -15.9,-66.41 -8.94,-66.81 -16.38,-155.16 -14.08,-220.54 -13.6,-6.1 -25,-11.15 -32.9,-14.3 7.63,29.8 11.84,64.99 12.48,102.3 1.4,80.66 -12.59,173.82 -43.37,242.31 -5.76,12.82 -12.09,24.81 -18.99,35.71 -7.77,12.28 -15.23,23.27 -23.08,32.74 30.9,14.11 49.92,17.68 62.77,13.39 13.02,-4.35 24.21,-19.49 37.9,-41.14 8.62,-13.62 16.06,-28.11 22.34,-43.89 4.89,-12.29 9.16,-25.61 12.82,-40.17zm457.48 565.65c3.99,2.56 7.96,4.81 11.87,6.68 15.3,7.32 31.37,10.64 47.53,11.6 17.28,1.04 34.9,-0.58 52.01,-2.94 74.65,-10.3 151.44,-14.45 228,-18.59 256.17,-13.85 509.79,-27.57 640.02,-280.2 22.35,-43.37 46.34,-109.06 57.86,-170.72 8.52,-45.56 10.19,-87.81 -1.11,-114.22 -4.31,-10.09 -10.82,-20 -18.62,-29.41 2.84,28.4 0.6,60.07 -5.07,92.31 -11.02,62.57 -35.14,128.83 -59.43,175.96 -144.79,280.85 -414.25,295.43 -686.45,310.15 -75.4,4.07 -151.02,8.17 -223.44,18.16 -14.05,1.94 -28.53,2.33 -43.16,1.24zm-1292.51 -992.13c-10.06,6.99 -19.04,14.86 -25.97,23.52 -17.85,22.3 -27.53,63.46 -31.53,109.68 -5.43,62.65 0.05,132.33 9.94,179.97 57.81,278.31 298.5,359.46 541.61,441.42 72.47,24.43 145.16,48.94 214.72,79.03 15.67,6.78 32.1,13 49.18,16.66 15.76,3.38 32.15,4.47 49.04,1.48 4.27,-0.76 8.65,-1.83 13.13,-3.19 -14.38,-2.89 -28.22,-7.15 -41.24,-12.78 -66.69,-28.85 -138.65,-53.11 -210.38,-77.29 -258.3,-87.09 -514.01,-173.3 -578.28,-482.65 -10.75,-51.78 -16.22,-122.02 -10.07,-185.33 3.17,-32.68 9.51,-63.87 19.86,-90.51zm565.28 504.76c32.53,15.17 53.26,19.56 67.64,15.74 15,-3.99 27.31,-20.46 42.49,-44.45 5.56,-8.78 10.65,-18.43 15.3,-28.76 27.43,-61.03 39.88,-145.3 38.6,-218.87 -1.19,-68.43 -12.7,-124.94 -33.46,-138.08l-0.11 0 -0.95 -0.54 0.02 -0.04 -3.16 -1.42 -0.11 0c-22.47,-10.11 -40.82,-18.36 -51.08,-21.93 10.79,33.02 16.69,74.72 17.47,119.48 1.4,80.67 -12.59,173.83 -43.38,242.31l0 0.11c-5.65,12.56 -11.98,24.5 -18.98,35.58 -10.1,15.96 -19.69,29.75 -30.27,40.87zm-71.76 -228.02c-12.74,68.64 -32.97,135.4 -58.44,184.71 34.54,16.5 56.22,21.33 71.11,17.37 15,-3.99 27.31,-20.46 42.49,-44.45 5.44,-8.59 10.54,-18.3 15.29,-28.86l0.04 0.02c27.41,-61.03 39.85,-145.25 38.57,-218.79 -1.19,-68.44 -12.7,-124.96 -33.47,-138.09l-1.06 -0.54 -3.27 -1.47c-29.37,-13.21 -52.37,-23.56 -61.98,-22.51 -0.68,0.07 0.08,10.39 3.21,39.13 6.58,60.43 1.44,138.44 -12.49,213.47zm1292.78 -1420.07c-30.42,-1.4 -72.77,-2.87 -99.26,-0.97 4.48,39.54 7.08,59.24 8.8,70.11l2.52 13.03 0.33 1.33c1.06,4.18 2.03,7.96 3.52,18.62l2.31 11.93c7.37,6.82 32.68,16.26 63.39,24.72 38.16,10.52 81.91,16.88 111.7,13.36 7.28,-0.86 13.09,-2.18 16.85,-4.02l0 -0.11c20.62,-10.07 50.54,2.33 85.57,16.85 21.83,9.05 46.29,19.18 66.49,23.73 0.82,-40.7 3.03,-87.24 4.85,-125.17 -32.46,23.35 -72.48,50.31 -111.94,67.37 -64.5,27.89 -125.73,30 -156.03,-40.07 -5.76,-13.31 -8.43,-27.22 -8.43,-41.51 0,-15.82 3.33,-32.36 9.33,-49.22zm-134.36 134.28c-1.52,-3.54 -2.54,-7.21 -2.98,-11.03 -0.65,-5.46 -1.18,-9.61 -1.63,-12.86l-2.89 -14.95c-0.83,-3.34 -1.78,-7.59 -3.19,-16.5l-37.84 -195.84c-3.4,-10.54 -5.28,-20.7 -5.89,-30.48l-179.05 -926.61c-4.45,-23.03 -18.19,-44.2 -36.74,-59.75 -18.42,-15.43 -41.27,-25.02 -64.1,-25.02l-2507.56 0c-5.06,0 -9.75,0.43 -14.02,1.26 -14.22,2.74 -25.94,9.8 -34.01,19.72 -8.12,9.99 -12.77,23.24 -12.77,38.3 0,5 0.47,10.04 1.44,15.07l336.93 1743.67c4.45,23.04 18.19,44.2 36.74,59.75 18.42,15.43 41.27,25.02 64.1,25.02l2507.56 0c5.06,0 9.75,-0.43 14.03,-1.26 14.22,-2.75 25.94,-9.8 34.01,-19.72 8.12,-9.99 12.76,-23.24 12.76,-38.3 0,-5 -0.47,-10.05 -1.44,-15.07l-103.46 -535.39zm92.46 -191.23c25.55,0.59 50.5,1.86 66.11,2.65l3.15 0.16c11.66,-18.13 25.59,-36.16 41.02,-53.59 -33.1,17.97 -72.44,38.74 -110.28,50.78zm-41.04 -178.24c-27.98,23.69 -69.11,68.93 -37.54,122.12 20.24,34.11 110.86,-15.22 170.35,-47.59 19.94,-10.85 37,-20.14 49.54,-25.17 4.17,-1.67 25.19,-6.83 43.79,-7.26 5.62,-0.13 11.31,0.15 16.79,0.98 5.23,-3.98 10.48,-7.86 15.72,-11.61 -87.82,8.97 -188.29,24.76 -241.41,-15.29 -6.59,-4.97 -12.34,-10.39 -17.23,-16.17zm-68.36 -10.54c17.02,-19.97 35.91,-34.85 47.78,-43.81 0.03,-8.76 1.53,-17.57 4.52,-26.26 8.32,-24.15 28.27,-46.96 60.23,-63.74 61.73,-32.42 179.2,-83.28 275.05,-89.66 31.43,-2.09 61.01,0.5 86.49,9.81 27.98,10.21 50.61,28.03 65.16,55.72 8.87,16.89 14.46,37.13 16.07,61.19 1.02,15.3 2.84,30.42 4.66,45.55 2.76,22.92 5.52,45.87 5.96,72.7 23.69,20.48 45.37,45.79 58.81,68.12 48.69,-7.56 80.41,3.14 107.11,30.37 31.78,-37.47 70.56,-91.47 109.15,-150.53 49.93,-76.41 98.93,-160.3 131.86,-227.44l18.87 -39.42c9.8,-20.52 20.06,-42.03 31,-63.83 -13.38,-8.18 -24.81,-16.28 -36.77,-25.24 -35.92,33.88 -63.03,54.15 -73.73,53.82l-0.22 0c-3.94,-0.15 -7.72,-0.97 -11.38,-2.61l-3.15 -1.63c-144.37,-88.59 -297.24,-190.53 -402.48,-319.44 -107.8,-132.04 -165.11,-290.87 -112.81,-489.64 7.23,-27.47 16.86,-54.22 29.37,-79.44 -10.28,6.96 -20.62,13.84 -31.03,20.64 -16.07,143.56 -69.25,262.71 -156.3,353.14 -86.35,89.7 -205.54,150.48 -354.37,178.12l130.15 673.51zm508.1 -15.65c-0.96,-9.87 -2.11,-19.46 -3.26,-29.04 -1.85,-15.43 -3.72,-30.85 -4.88,-48.37 -1.07,-16.07 -4.47,-28.95 -9.78,-39.06 -7.6,-14.47 -19.78,-23.91 -34.99,-29.46 -17.7,-6.46 -39.7,-8.17 -63.92,-6.56 -86.52,5.76 -195.35,53.14 -252.91,83.37 -18.6,9.77 -29.63,21.36 -33.54,32.71 -1.96,5.7 -1.98,11.43 -0.11,16.71 2.19,6.16 6.97,12.27 14.3,17.79 46.83,35.31 163.9,15.38 220.29,7.05 12.48,-1.85 6.94,-0.98 8.55,-1.24 21.15,-3.33 31.27,-4.92 43.79,7.29 1.56,1.52 2.85,2.99 3.91,4.42 5.67,-2.83 11.21,-5.44 16.6,-7.77 22.98,-9.94 44.01,-15.52 61.26,-15.52 10.97,0 22.72,2.8 34.69,7.68zm60.5 120.46c-10.3,-13.9 -24.47,-29.03 -39.89,-42.22 -20.27,-17.34 -41.26,-30.36 -55.31,-30.36 -9.85,0 -23.43,3.87 -39.33,10.74 -46.39,20.06 -106.32,62.97 -154.98,112.52 -46.41,47.26 -81.57,99.18 -81.57,139.44 0,7.23 1.16,13.82 3.65,19.59 13.31,30.78 46.83,26.99 83.33,11.21 43.37,-18.75 91.19,-53.89 124.54,-78.39 7.8,-5.73 14.86,-10.91 21.02,-15.28 10.73,-27.38 29.19,-52.81 52.84,-74.48 24.01,-22 53.55,-40.28 85.7,-52.78zm159 106.91c-28.49,-51.17 -52.84,-74.53 -97.88,-66.71 -41.4,7.19 -80.62,26.91 -109.5,53.37 -26.39,24.18 -43.74,53.59 -45.09,83.21l-1.29 27.33c-2.05,42.67 -4.65,96.85 -5.2,138.57 -0.31,23.74 4.31,39.2 11.77,47.87 3.84,4.46 8.73,7.02 14.11,7.89 6.73,1.09 14.52,-0.07 22.59,-3.19 18.61,-7.17 37.14,-23.79 48.95,-46.97 5,-9.81 8.34,-20.94 10.64,-32.25 2.42,-11.87 3.8,-24.75 4.78,-36.77 0.88,-10.86 1.06,-17.6 1.19,-22.95 1.03,-41.35 1.93,-37.34 50.85,-59.52 82.97,-37.64 75.05,-21.37 47.86,6.54 -7.03,7.21 -25.95,10.83 -32.57,18.72 -12.14,14.48 -10.5,23.65 -10.8,35.56 -0.18,7.31 -0.41,16.46 -1.19,25.99 -1.07,13.28 -2.71,28.04 -5.86,43.5 -3.27,16.03 -8.09,31.97 -15.41,46.35 -5.31,10.44 -11.63,20.04 -18.66,28.72 31.55,31.06 64.99,50.08 97.56,60.06 48.63,14.89 95.6,9.88 131.25,-5.09 27.48,-11.55 38.64,-26.13 58.32,-51.89 8.46,-11.07 18.26,-23.89 30.64,-38.62 49.43,-58.83 121.48,-133.06 201.98,-215.98 197.31,-203.25 446.24,-459.68 529.3,-663.26 22.68,-55.59 26.56,-93.52 15.69,-127.17 -11.39,-35.26 -39.63,-69.82 -79.74,-115.75 -77.25,-88.46 -153.22,-145.15 -214.53,-190.91 -6.13,-4.57 -12.11,-9.04 -17.98,-13.44 -50.04,95.95 -139.05,215.93 -222.3,315.9 -35.13,42.18 -70,80.94 -101.27,113.22 7.4,5.39 14.75,10.48 22.72,15.5 43.52,-78.88 97.73,-154.82 172.09,-195.34 226.26,-123.3 -10.09,73.38 -18.45,80.81 -70.03,62.31 -119.58,166.1 -160.32,251.45 -4.51,9.44 -8.78,18.39 -19.3,39.85 -34.34,70 -84.51,156.07 -135.11,233.51 -42.96,65.75 -86.69,126 -121.97,165.96 8.65,14.58 17.34,31.1 26.59,49.49 45.25,89.95 0.34,112.74 -64.44,-3.57zm587.84 -1123.93c8.79,-19.81 15.03,-37.52 18.08,-52.39 -49.66,-27.17 -109.48,-70.07 -175.66,-117.53 -193.72,-138.93 -444.43,-318.74 -603.69,-222.5 -29.98,18.11 -53.72,41.59 -72.31,68.52 -21.35,30.91 -36.19,66.62 -46.09,104.25 -46.94,178.4 4.88,321.42 102.18,440.6 97.72,119.69 241.77,216.74 379.37,301.53 17.65,-12.34 87.37,-88.91 167.22,-184.8 90.89,-109.15 188.56,-242.19 230.91,-337.67zm-1456.1 184.33c137.28,-25.41 246.56,-80.75 324.94,-162.17 69.25,-71.94 114.77,-164.8 134.56,-275.91 -22.45,13.61 -45.2,26.85 -68.22,39.67 -22.13,95.33 -81.31,180.84 -158.25,243.42 -70.6,57.43 -156.47,95.86 -242.65,105.18l9.62 49.8zm-20.2 -104.55c77,-7.16 154.48,-41.49 218.3,-93.4 54.11,-44.01 98.18,-100.42 123.58,-163.35 -123.88,63.05 -255.11,114.25 -391.98,150.33 -4.31,1.14 -8.63,2.24 -12.95,3.33 2.11,1.61 4.19,3.26 6.22,4.97 27.88,23.37 48.67,55.87 55.62,91.87l1.21 6.27zm377.14 1653.35l-58.34 -3.52 5.16 26.69 53.18 -23.17zm-69.2 -59.71l181.18 10.93 57.03 -24.84 -243.62 -14.11 5.41 28.02zm-16.26 -84.17l316.24 18.31c47.43,2.75 65.71,14.27 64.39,36.94 -1.23,21.39 -21.37,30.05 -50.27,42.46l-0.11 0 -10.83 4.66 -276.38 120.39 1 5.15c1.7,8.82 2.53,17.35 2.53,25.49 0,25.91 -7.88,49.54 -21.82,68.65l620.7 -296.46 -647.75 -37.52 2.3 11.93zm-6.33 483.34c-1.21,-2.66 -2.35,-5.38 -3.4,-8.14 -5.56,-14.52 -9.09,-30.74 -10.55,-46.9 -2.54,-28.07 1.81,-56.32 13.17,-77 -11.37,6.89 -24.22,11.88 -38.22,14.59 -7.97,1.54 -16.14,2.35 -24.44,2.35l-2507.56 0c-17.02,0 -33.88,-3.22 -49.88,-9.07 -0.23,3.54 -0.38,7.38 -0.41,11.5 -0.13,14.36 1.78,30.59 7.77,45.73 5.48,13.84 14.59,26.77 29.13,36.14 15.8,10.19 38.21,16.77 69.53,17.06l2514.88 13.75zm83.33 -1.02l663 -397.48c12.32,-6 20.35,-24.98 21.34,-41.56 0.26,-4.26 -0.03,-7.99 -0.9,-10.81 -0.22,-0.72 0.89,-0.21 0.38,-0.59l-9.71 4.7 -0.11 0.11 -707.86 338.1c-7.81,5.18 -10.36,25.96 -8.32,48.52 0.98,10.92 3.43,22.04 7.3,32.14 3.41,8.9 7.77,16.54 12.98,21.76 5.37,5.39 12.66,7.85 21.89,5.11zm-942.35 -2127.97l390.18 0c40.24,-5.67 80.02,-13.5 119.3,-23.85 285.57,-75.28 546.09,-218.3 764.9,-397.76 226.6,-185.84 408.42,-410.71 527.03,-639.88 -67.57,-25.87 -127.53,-62.91 -173.37,-111.83l-0.06 0.05c-34.98,-37.35 -61.7,-81.55 -77.32,-132.89 -36.09,-118.63 -54.76,-266.3 -60.25,-408.35 -5.61,-145.03 2.48,-284.8 19.7,-382.22l-154.9 25.93c79.02,269.06 164.69,607.13 -67.33,795.8 -96.68,78.61 -250.32,152.5 -414.01,198.74 -131.93,37.27 -271.89,57.22 -395.78,48.06 -133.83,-9.9 -250.75,-53.57 -324.9,-144.76 -27.94,-34.37 -49.29,-74.82 -62.61,-121.97 -21.28,-75.32 -46.44,-172.37 -70.28,-267.91 -2.98,-11.93 -5.94,-23.87 -8.87,-35.76 -11.94,-7.28 -25,-12.81 -38.8,-16.81 -56.31,-16.31 -124.42,-8.13 -184.56,11.28 -48.87,15.77 -90.06,37.6 -113.37,58.64 3.03,13.22 6.07,26.59 9.13,40.07 21.79,96.19 42.93,193.5 57.52,268.35 10.02,51.44 8.42,99.78 -2.92,144.95 -26.19,104.3 -102.96,187.04 -206.83,249.44 -96.05,57.71 -216.23,98.33 -339.21,122.29 -176.84,34.47 -362.64,34.87 -491.93,2.41 -10.16,-2.55 -20.02,-5.46 -29.65,-8.67 77.83,235.8 193.96,380.11 335.33,473.71 157.66,104.39 348.88,147.33 553.83,183.79l41.92 7.46c135.47,24.2 268.47,47.95 398.11,61.7zm2369.27 -2554.48c10.44,-176.35 -35.77,-372.21 -119.59,-557.84 -95.85,-212.24 -240.47,-410.42 -405.65,-550.65l-6.19 0.66c-90.18,9.51 -161.85,-0.51 -1.61,-40.43 81.79,-20.37 301.71,-14.54 90.21,-54.08 -29.46,-5.51 -61.12,-11.27 -87.46,-16.06 -139.75,-25.41 -89.28,-27.9 -59.81,-105.12 15.2,-39.81 26,-88.55 31.27,-128.05 -89.96,91.87 -244.84,116.6 -373.58,123.26 256.56,126.91 464.29,357.29 576.69,772.08 8.62,1.61 16.07,3.81 22.05,6.62l0.11 0c6.74,3.17 12.77,8.14 18.11,14.67 16.13,19.74 28.18,62.39 36.41,111.77 98.39,19.75 154.79,97.48 187.79,188.04 27.31,74.96 38.21,158.23 43.92,222.22 15.81,3.48 31.65,7.74 47.33,12.91zm-1223.75 7.02c41.39,64.54 106.73,142.62 182.47,203.61 46.83,37.71 97.3,68.57 147.8,84.87l92.92 -15.29c1.99,-3.84 4.03,-7.65 6.1,-11.42 21.69,-39.47 47.6,-74.95 77.08,-106.51 -11.22,-57.53 -22.27,-129.27 -27.27,-195.15 -4.41,-58.21 -4.14,-112.63 4.72,-150.6 10.1,-43.28 26.01,-83.3 48.48,-118.16 9.75,-15.12 20.72,-29.25 32.96,-42.24 -2.41,-7.24 -5.11,-15.74 -7.62,-24.61 -4.53,-16.02 -8.67,-34 -10.16,-50.29 -1.17,-12.77 1.21,-24.85 6.56,-36.22 5.14,-10.92 13.13,-20.99 23.32,-30.21 -58.71,-267.5 -253.79,-520.68 -527.87,-696.64 -218.1,-140.03 -485.98,-230.89 -774.89,-241.12 -37.83,0.55 -75.6,1.24 -113.19,1.94l-49.81 0.91 -6.21 0.43c-186.82,26.35 -481.01,-109.34 -647.02,-185.92 -59.59,-27.48 -86.34,-56.35 -93.09,-51.21 -1.48,1.13 2.19,-0.48 2.19,1.72 0,14.13 6.76,35.93 19.43,62.48 13.72,28.76 33.89,61.64 59.57,95.33 67.47,88.49 172.4,182.29 298.04,221.72 152.54,47.87 198.7,102.71 24,63.83 -107.93,-24.01 -203.09,-84.82 -278.06,-154.76 -159.91,-32.07 -333.5,-86.59 -550.74,-154.83 -122.2,-38.38 -258.17,-81.09 -409.7,-125.57 10.77,18.54 27.28,41.92 48.74,68.38 88.43,109 256.56,264.6 449.35,344.96 153.13,63.83 290.52,157.62 36.41,72.69 -73.98,-24.73 -145.16,-60.77 -211,-102.42 -196.37,-0.13 -359.02,-13.69 -522.9,-38.49 -163.06,-24.67 -328.43,-60.83 -530.56,-106.12 -8.91,-1.99 -12.32,-3.46 -5.57,3.91 22.05,24.07 59.85,55.58 109.25,90.74 174.66,124.32 486.96,288.4 755.19,325.94 187.94,26.3 268.11,79.24 44.07,60.39 -101.93,-8.59 -211.23,-36.48 -318.41,-74.91l0.06 0.15c-303.21,128.71 -581.83,462.29 -703.83,663.55 -26.34,43.46 -45.08,80.26 -54.85,106.91l6.02 -4.71c47.51,-37.74 108.36,-81.17 186.87,-125.3 75.56,-42.47 167.47,-85.61 279.58,-124.97 68.92,-91.91 148.12,-172.34 242.98,-220.41 171.52,-86.93 244.2,-59.12 23.79,49.39 -168.34,82.89 -286.53,289.63 -386.89,465.19 -75.54,132.13 -141.52,247.54 -216.93,289.69 6.3,0.1 13.42,0.15 21.3,0.15 22.65,0 92.51,-4.96 172.09,-35.68 46.44,-17.93 96.09,-44.66 141.27,-84.34 3.11,-7.22 6.15,-14.48 9.15,-21.79 103.87,-253.67 105.5,-96.93 33.37,62.73 -23.72,52.48 -51.69,103.72 -90.15,159.41 -52.02,75.33 -123.04,158.4 -228.57,263.36 4.29,-1.01 8.75,-2.11 13.38,-3.3 117.8,-30.21 332.94,-114.09 482.41,-225.7 33.59,-48.05 63.71,-96.92 88.27,-146.09 131.28,-262.85 75.14,-18.69 26.91,67.41 -92.25,164.65 -236.09,321.39 -360.96,455.44 40.66,-7.49 98.47,-21.71 167.63,-42.37 313.83,-93.78 851.95,-318.26 1049.11,-643.27 135.42,-223.26 135.89,-107.62 38.24,43.42 -33,88.84 -65.02,164.44 -95.94,228.67 -24.91,51.74 -49.02,95.83 -72.3,133.31 114.09,-49.48 327.42,-159.67 510.53,-305.31 124.87,-99.32 234.99,-214.69 287.75,-337.24 -10.47,-9.43 -20.92,-19.09 -31.34,-28.99 -135.59,-128.85 -100.17,-171.14 40.07,-38.35 115.09,109.01 234.2,187.95 344.24,244.57 168.56,86.72 314.86,120.87 392.86,130.58 -68.76,-78.98 -208.39,-243.86 -248.46,-413.63 -50.82,-215.26 23.15,-99.18 64.94,26.68 23.28,70.11 63.5,139.23 105.56,199.63 75.78,52.78 183.07,102.54 293.98,139.25 219.16,72.55 352.24,56.63 362.43,73.33 10.25,16.8 -96.87,48.35 -279.13,7.43zm231.93 304.66c-29.02,-16.5 -57.24,-36.17 -84.18,-57.86 -100.54,-80.96 -184.41,-191.24 -223.26,-266.84 -8.27,-2.52 -16.64,-5.17 -25.14,-7.99 -65.02,-21.52 -129.11,-47.54 -187.09,-76.2 14.48,17.18 27.51,32.12 38.16,44.33l17.65 20.3 0.05 -0.05c12.09,13.88 19.19,22.06 18.53,36.09 -1.39,29.44 -17.68,30.94 -56.39,29.11 -67.84,-3.19 -243.49,-34.44 -447.83,-139.57 -90.94,-46.79 -187.85,-108.28 -283.86,-188.55 -59.15,125.98 -171.16,242.63 -296.96,342.69 -221.51,176.19 -487.81,302.29 -577.88,334.78 -38.04,13.72 -55.74,10.09 -63.29,-10.82 -6.21,-17.26 2.73,-28.09 15.51,-43.54 5.29,-6.4 11.89,-14.38 17.32,-22.53 27.21,-40.83 55.8,-91.29 85.69,-153.38 9.24,-19.2 18.62,-39.55 28.15,-61.13 -196.07,195.56 -496.06,344.34 -746.5,439.15 6.39,53.97 11.38,105.46 14.91,158.88 2.72,41.26 4.54,83.13 5.42,127.53 15.14,-3.93 30.55,-7.81 46.2,-11.65 138.65,-33.95 297.98,-69.46 441.73,-99.04 -30.72,-12.6 -69.23,-23.78 -112.41,-29.33 -64,-8.22 -93.39,-18.5 -203.3,8.25 -143.67,34.96 -225.65,41.89 -124.6,-32.93 112.7,-83.44 236.65,-98.64 341.8,-85.13 106.79,13.73 209.22,74.68 249.13,109.27 14.13,-2.68 27.92,-5.26 41.29,-7.72 63.45,-11.67 118.24,-20.77 159.17,-26.22 3.79,-0.5 8.17,-1.3 18.71,-2.88 37.55,-5.64 55.65,-8.39 84.14,12.16 26.79,19.33 30.5,36.31 37.65,69.13 1.32,6.06 2.93,13.43 5.47,23.43 7.61,29.95 17.9,72.06 29.65,121.46 30.98,-18.07 66.7,-34.15 104.66,-46.4 70.85,-22.87 152,-33.75 227.44,-20.99 -10.45,-44.35 -19.45,-83.54 -26.11,-113.61 -1.79,-8.08 -3.99,-16.59 -5.8,-23.58 -8.64,-33.43 -13.1,-50.75 3.02,-80.17l0.11 0.06c16.98,-30.89 34.98,-36.23 72.2,-47.28 3.9,-1.16 8.46,-2.52 18.82,-5.78 8.79,-2.77 20.59,-6.33 35.1,-10.6 38.14,-11.22 85.14,-24.06 138.13,-37.83 55.68,-80.87 172.64,-175.78 276.87,-227.51 183.13,-90.89 426.83,-71.95 420.86,-33.18 -3.88,25.19 -142.23,18.62 -371.81,132.57 -46.77,23.21 -90.87,50.03 -128.03,78.96 114.1,-27.25 237.45,-55.07 353.15,-79.42 273.46,-57.55 513.92,-83.27 547.96,-26.98l69.78 -11.48zm-2120.56 37.17c-0.11,-0.08 0.2,0.91 1.16,3.59 2.61,7.24 1.14,3.05 -1.16,-3.59zm2698.22 -908.04c-188.07,-667.63 -645.24,-825.62 -1146.42,-857.54 151.11,43.58 291.54,108.14 416.28,188.22 279.47,179.43 480.58,437.12 547.48,711.67 8.5,-4 17.45,-7.71 26.72,-11.13 42.24,-15.59 92.45,-25.89 135.9,-29.85 6.82,-0.62 13.52,-1.08 20.04,-1.37zm142.98 195.38c0.68,6.65 1.3,13.31 1.85,19.94 2.63,31.39 3.91,62.77 3.87,90.41 5.05,4.9 9.75,10.02 14.09,15.33 4.57,5.58 9.35,12.27 14.28,19.9l0.11 0c13.04,20.19 24.14,50.29 32.97,83.89 9.93,37.78 17.25,80.69 21.31,118.58 1.93,17.97 21.65,27.99 42.29,31.94 8.15,1.56 16.24,2.18 23.63,1.98 6.04,-0.16 11.59,-0.86 16.2,-2.03 -4.87,-63.03 -14.17,-153.96 -42.74,-232.38 -24.6,-67.52 -63.87,-126.14 -127.86,-147.56zm-2.32 195.2c-0.2,0.5 -0.4,0.98 -0.61,1.42l0 0.11c-2.34,4.93 -5.44,9.07 -9.45,12.36l0.04 0.06c-21.02,17.19 -62.26,34.22 -103.51,44.83 -39.57,10.18 -80.82,14.78 -106.61,8.43 -10.93,-2.69 -21.99,-6.57 -33.06,-11.66l-0.23 -0.11c-1.92,18.81 -1.98,42.16 -0.7,67.52 1.19,23.47 3.52,48.4 6.62,73.01 41.39,-17.42 85.29,-30.79 130.98,-40.18 48.24,-9.91 98.48,-15.37 149.89,-16.48 -3.98,-30.16 -9.92,-62.22 -17.46,-90.95 -4.78,-18.17 -10.12,-34.8 -15.9,-48.36zm-238.73 0.92c2.87,1.56 5.71,2.98 8.53,4.28 7.7,3.54 15.5,6.27 23.3,8.19 16.69,4.11 47.94,-0.04 79.71,-8.21 31.1,-8 61.18,-19.59 77.69,-30.97 4.49,-18.73 3.79,-79.96 -1.66,-144.91 -5.86,-69.87 -17.3,-140.56 -33.74,-160.69l0.04 -0.04c-12.17,-4.92 -38.65,-5.6 -70.85,-2.67 -38.8,3.54 -83.78,12.78 -121.8,26.81 -33.89,12.51 -60.8,27.83 -68.56,44.33 -1.23,2.62 -1.8,5.23 -1.56,7.79 1.09,11.92 4.57,26.65 8.43,40.31l0.16 0.55c1.29,-0.87 2.58,-1.73 3.89,-2.58 21.26,-13.83 42.18,-15.12 61.5,-7.63 15.74,6.1 29.21,18 39.9,33.38 9.44,13.59 16.98,30.23 22.02,47.86 12.17,42.56 9.85,93.15 -14.77,123.96 -4.58,5.74 -8.65,12.55 -12.22,20.23zm155.05 -331.83l-1.18 -0.51 -0.04 0.04c0.08,0.01 2.03,0.91 1.2,0.52l0.02 -0.04zm149.29 545.05c-6.81,-5.61 -12.8,-12.15 -17.61,-19.67 -52.76,0.32 -104.25,5.47 -153.46,15.58 -46.87,9.63 -91.67,23.81 -133.5,42.64l0.65 3.62c9.95,55.34 -22.34,98.91 -62.85,123.17 -12.69,7.59 -26.17,13.31 -39.31,16.85 -13.92,3.75 -27.76,5.21 -40.29,4.1 -14.92,-1.31 -28.15,-5.85 -38.41,-13.94 -19.86,23.57 -37.69,49.43 -53.17,77.6 -21.91,39.87 -39.14,84.5 -50.88,133.98 -21.91,92.39 -33.06,246.72 -26.8,408.54 5.33,137.82 23.26,280.53 57.86,394.25 12.99,42.7 35.37,79.62 64.73,110.97l0 0.11c66.37,70.87 168.64,113.76 280.2,131.32 113.26,17.84 235.39,9.48 339.56,-22.21l3.2 -0.98c-89.09,9.44 -182.09,5.17 -267.34,-14.06 -148.67,-33.54 -274.53,-112.55 -318.91,-243.61 -35.57,-105.03 -52.04,-238.38 -55.33,-367.72 -4,-157.09 11.51,-309.29 35.79,-397.64 41.19,-149.89 126.52,-252.79 242.76,-314.98 68.2,-36.49 146.8,-58.69 233.11,-67.91zm-481.41 -82.52c5.46,72.04 18.32,151 30.47,209.23 0.5,2.41 4.22,3.8 9.35,4.25 6.21,0.55 13.5,-0.29 21.2,-2.36 8.47,-2.28 17.13,-5.94 25.2,-10.78 23.18,-13.88 41.9,-37.51 36.8,-65.88 -7.97,-44.31 -14.39,-95.07 -16.69,-140.5 -2.03,-40.15 -0.87,-76.82 5.16,-102.67 3.51,-15.04 8.07,-29.18 13.75,-42.03 5.7,-12.88 12.56,-24.55 20.65,-34.69 12.75,-15.97 12.66,-46.72 4.78,-74.27 -3.4,-11.9 -8.27,-22.82 -14.21,-31.36 -4.7,-6.76 -9.62,-11.61 -14.29,-13.42 -2.96,-1.15 -6.76,-0.57 -11.37,2.43 -27,17.57 -48.94,40.46 -66.28,67.36 -18.9,29.31 -32.4,63.48 -41.11,100.81 -7.45,31.93 -7.46,80.65 -3.42,133.88zm787.6 157.23l-0.46 0.46 -0.83 -0.83c-27.97,-8.06 -56.77,-13.25 -84.67,-16.46 -166.06,-19.1 -313.67,-1.93 -427.3,58.86 -102.9,55.06 -178.6,146.73 -215.41,280.7 -23.03,83.82 -37.71,229.84 -33.84,381.8 3.17,124.17 18.8,251.68 52.52,351.23 37.37,110.34 147.54,177.81 278.54,207.36 85.57,19.3 179.73,22.41 268.8,10.74 88.44,-11.58 171.49,-37.69 235.55,-76.88 46.83,-28.65 83.21,-64.35 103.29,-106.39 -66.89,49.08 -144.11,77.7 -221.02,91.51 -109.13,19.59 -218.14,9.26 -295.91,-14.63 -80.64,-24.77 -141.14,-99.2 -181.75,-196.46 -44.79,-107.26 -65.91,-243.7 -63.03,-369.9 3.16,-138.4 36.22,-267.28 118.11,-365.41 70.47,-84.44 176.16,-145.28 328.71,-168.72 118.17,-18.16 222.5,6.48 305.25,62.09 -17.3,-37.56 -43.38,-65.81 -74.22,-86.94 -27.7,-18.98 -59.42,-32.55 -92.32,-42.13zm-127.35 501.06l212.61 -21.82c4.13,-0.42 7.72,-0.63 10.72,-0.63 25.6,0 48.84,9.46 66.43,25.42 17.54,15.91 29.25,38.12 31.87,63.7 0.41,4.07 0.63,7.74 0.63,10.95l0 44.18c0,29.05 -11.65,56.55 -30.42,77.44 -18.72,20.85 -44.81,35.28 -73.7,38.24l-212.61 21.82c-4.14,0.42 -7.72,0.63 -10.72,0.63 -25.6,0 -48.84,-9.46 -66.43,-25.42 -17.54,-15.91 -29.25,-38.13 -31.87,-63.7 -0.41,-4.07 -0.63,-7.74 -0.63,-10.95l0 -44.18c0,-29.06 11.65,-56.55 30.42,-77.44 18.73,-20.85 44.81,-35.28 73.7,-38.24zm218.15 33.29l-212.5 21.83c-14.64,1.5 -28.15,9.14 -38.11,20.23 -9.93,11.05 -16.09,25.39 -16.09,40.33l0 44.18c0,2.3 0.07,4.07 0.19,5.3 1.19,11.58 6.28,21.45 13.87,28.33 7.52,6.82 17.77,10.87 29.32,10.87 2.2,0 3.93,-0.06 5.18,-0.18l212.5 -21.83c14.64,-1.5 28.15,-9.14 38.11,-20.23 9.93,-11.05 16.09,-25.39 16.09,-40.33l0 -44.18c0,-2.3 -0.07,-4.07 -0.19,-5.3 -1.19,-11.58 -6.28,-21.45 -13.87,-28.33 -7.52,-6.82 -17.77,-10.87 -29.32,-10.87 -2.2,0 -3.93,0.06 -5.18,0.18zm58.47 -349.67c-73.44,-54.7 -169.35,-79.74 -279.73,-62.78 -137.79,21.17 -232.32,75 -294.42,149.4 -72.93,87.39 -102.42,204.35 -105.31,330.91 -2.72,119.01 17.02,247.25 58.91,347.55 34.56,82.76 83.73,145.39 146.81,164.77 70.66,21.7 170.02,31.03 269.87,13.11 72.5,-13.02 145.04,-40.46 206.48,-88.06 60.96,-47.25 111.28,-114.8 140.05,-208.45 30.23,-98.41 36.86,-225.55 7.69,-388.1 -19.7,-109.76 -72.92,-200.67 -150.34,-258.33zm-2059.97 377.19c14.39,24.27 -191.3,233.72 -203.05,212.68 -16.12,-28.86 191.13,-232.78 203.05,-212.68zm-1828.55 538.63l122.02 -119.29c152.46,-149.05 94.59,-34.36 -18.92,76.61l-144.82 141.58c-162.03,158.4 -51.7,-7.57 41.72,-98.9zm2268.43 -283.53c88.71,-86.72 23.28,6.95 -43.35,86.38 -39.41,46.98 -88.6,92.43 -135.01,132.94 -316.51,276.38 111.93,-154.38 178.36,-219.32zm-1964.91 385.66l207.13 -202.5c285.43,-279.04 158.57,-96.91 -25.88,83.41l-227.37 222.28c-270.29,264.24 -101.24,40.87 46.12,-103.2zm1507.81 -313.3l300.26 -293.54c123.32,-120.56 215.66,-152.72 60.96,-1.49l-366.06 357.86c-196.18,191.79 -143.46,82.14 4.84,-62.83zm-78.18 903.92c42.55,-178.38 91.42,-42.27 31.76,71.93 -60.02,114.88 -194.93,184.41 -318.64,203.81 -79.66,12.49 -113.3,-10.63 -65.19,-21.5 137.4,-31.02 315.06,-98.95 352.08,-254.24zm374.97 -568.75c146.43,-41.37 281.53,-105.56 364.1,-172.7 172.65,-140.39 79.53,-454.57 9.25,-691.65 -11.91,-40.16 -19.76,-33.24 -28.39,-65.11 -8.98,-20.81 -178.32,25.21 -393.46,70.49 -248.04,52.2 -531.05,120.37 -678.31,163.7 -8.3,2.44 -17.17,5.13 -26.66,8.09 14.52,65.26 41.74,180.13 71.89,300.96 23.22,93.09 47.94,188.33 69.2,263.57 8.02,28.39 20.48,52.27 36.57,72.06 47.26,58.12 129.7,86.55 227.24,93.76 107.48,7.95 230.96,-9.93 348.59,-43.17z"/>
  </g>
 </g>
</svg>
