<svg width="500mm" height="500mm" viewBox="0 0 500 500" xmlns="http://www.w3.org/2000/svg">
  <g id="Column00Key00" transform="translate(42.85,34.875) rotate(0)">
    <path d="M -9.05 -9.05 L 9.05 -9.05 L 9.05 9.05 L -9.05 9.05 L -9.05 -9.05"/>
  </g>
  <g id="Column00Key01" transform="translate(42.85,53.925) rotate(0)">
    <path d="M -9.05 -9.05 L 9.05 -9.05 L 9.05 9.05 L -9.05 9.05 L -9.05 -9.05"/>
  </g>
  <g id="Column00Key02" transform="translate(42.85,72.975) rotate(0)">
    <path d="M -9.05 -9.05 L 9.05 -9.05 L 9.05 9.05 L -9.05 9.05 L -9.05 -9.05"/>
  </g>
  <g id="Column00Key03" transform="translate(42.85,92.025) rotate(0)">
    <path d="M -9.05 -9.05 L 9.05 -9.05 L 9.05 9.05 L -9.05 9.05 L -9.05 -9.05"/>
  </g>
  <g id="Column00Key04" transform="translate(42.85,111.075) rotate(0)">
    <path d="M -9.05 -9.05 L 9.05 -9.05 L 9.05 9.05 L -9.05 9.05 L -9.05 -9.05"/>
  </g>
  <g id="Column00Key05" transform="translate(42.85,130.125) rotate(0)">
    <path d="M -9.05 -9.05 L 9.05 -9.05 L 9.05 9.05 L -9.05 9.05 L -9.05 -9.05"/>
  </g>
  <g id="Column01Key00" transform="translate(61.9,34.875) rotate(0)">
    <path d="M -9.05 -9.05 L 9.05 -9.05 L 9.05 9.05 L -9.05 9.05 L -9.05 -9.05"/>
  </g>
  <g id="Column01Key01" transform="translate(61.9,53.925) rotate(0)">
    <path d="M -9.05 -9.05 L 9.05 -9.05 L 9.05 9.05 L -9.05 9.05 L -9.05 -9.05"/>
  </g>
  <g id="Column01Key02" transform="translate(61.9,72.975) rotate(0)">
    <path d="M -9.05 -9.05 L 9.05 -9.05 L 9.05 9.05 L -9.05 9.05 L -9.05 -9.05"/>
  </g>
  <g id="Column01Key03" transform="translate(61.9,92.025) rotate(0)">
    <path d="M -9.05 -9.05 L 9.05 -9.05 L 9.05 9.05 L -9.05 9.05 L -9.05 -9.05"/>
  </g>
  <g id="Column01Key04" transform="translate(61.9,111.075) rotate(0)">
    <path d="M -9.05 -9.05 L 9.05 -9.05 L 9.05 9.05 L -9.05 9.05 L -9.05 -9.05"/>
  </g>
  <g id="Column01Key05" transform="translate(61.9,130.125) rotate(0)">
    <path d="M -9.05 -9.05 L 9.05 -9.05 L 9.05 9.05 L -9.05 9.05 L -9.05 -9.05"/>
  </g>
  <g id="Column02Key00" transform="translate(80.95,31.875) rotate(0)">
    <path d="M -9.05 -9.05 L 9.05 -9.05 L 9.05 9.05 L -9.05 9.05 L -9.05 -9.05"/>
  </g>
  <g id="Column02Key01" transform="translate(80.95,50.925) rotate(0)">
    <path d="M -9.05 -9.05 L 9.05 -9.05 L 9.05 9.05 L -9.05 9.05 L -9.05 -9.05"/>
  </g>
  <g id="Column02Key02" transform="translate(80.95,69.975) rotate(0)">
    <path d="M -9.05 -9.05 L 9.05 -9.05 L 9.05 9.05 L -9.05 9.05 L -9.05 -9.05"/>
  </g>
  <g id="Column02Key03" transform="translate(80.95,89.025) rotate(0)">
    <path d="M -9.05 -9.05 L 9.05 -9.05 L 9.05 9.05 L -9.05 9.05 L -9.05 -9.05"/>
  </g>
  <g id="Column02Key04" transform="translate(80.95,108.075) rotate(0)">
    <path d="M -9.05 -9.05 L 9.05 -9.05 L 9.05 9.05 L -9.05 9.05 L -9.05 -9.05"/>
  </g>
  <g id="Column02Key05" transform="translate(80.95,127.125) rotate(0)">
    <path d="M -9.05 -9.05 L 9.05 -9.05 L 9.05 9.05 L -9.05 9.05 L -9.05 -9.05"/>
  </g>
  <g id="Column03Key00" transform="translate(100,26.875) rotate(0)">
    <path d="M -9.05 -9.05 L 9.05 -9.05 L 9.05 9.05 L -9.05 9.05 L -9.05 -9.05"/>
  </g>
  <g id="Column03Key01" transform="translate(100,45.925) rotate(0)">
    <path d="M -9.05 -9.05 L 9.05 -9.05 L 9.05 9.05 L -9.05 9.05 L -9.05 -9.05"/>
  </g>
  <g id="Column03Key02" transform="translate(100,64.975) rotate(0)">
    <path d="M -9.05 -9.05 L 9.05 -9.05 L 9.05 9.05 L -9.05 9.05 L -9.05 -9.05"/>
  </g>
  <g id="Column03Key03" transform="translate(100,84.025) rotate(0)">
    <path d="M -9.05 -9.05 L 9.05 -9.05 L 9.05 9.05 L -9.05 9.05 L -9.05 -9.05"/>
  </g>
  <g id="Column03Key04" transform="translate(100,103.075) rotate(0)">
    <path d="M -9.05 -9.05 L 9.05 -9.05 L 9.05 9.05 L -9.05 9.05 L -9.05 -9.05"/>
  </g>
  <g id="Column03Key05" transform="translate(100,122.125) rotate(0)">
    <path d="M -9.05 -9.05 L 9.05 -9.05 L 9.05 9.05 L -9.05 9.05 L -9.05 -9.05"/>
  </g>
  <g id="Column04Key00" transform="translate(119.05,32.875) rotate(0)">
    <path d="M -9.05 -9.05 L 9.05 -9.05 L 9.05 9.05 L -9.05 9.05 L -9.05 -9.05"/>
  </g>
  <g id="Column04Key01" transform="translate(119.05,51.925) rotate(0)">
    <path d="M -9.05 -9.05 L 9.05 -9.05 L 9.05 9.05 L -9.05 9.05 L -9.05 -9.05"/>
  </g>
  <g id="Column04Key02" transform="translate(119.05,70.975) rotate(0)">
    <path d="M -9.05 -9.05 L 9.05 -9.05 L 9.05 9.05 L -9.05 9.05 L -9.05 -9.05"/>
  </g>
  <g id="Column04Key03" transform="translate(119.05,90.025) rotate(0)">
    <path d="M -9.05 -9.05 L 9.05 -9.05 L 9.05 9.05 L -9.05 9.05 L -9.05 -9.05"/>
  </g>
  <g id="Column04Key04" transform="translate(119.05,109.075) rotate(0)">
    <path d="M -9.05 -9.05 L 9.05 -9.05 L 9.05 9.05 L -9.05 9.05 L -9.05 -9.05"/>
  </g>
  <g id="Column04Key05" transform="translate(119.05,128.125) rotate(0)">
    <path d="M -9.05 -9.05 L 9.05 -9.05 L 9.05 9.05 L -9.05 9.05 L -9.05 -9.05"/>
  </g>
  <g id="Column05Key00" transform="translate(138.1,37.875) rotate(0)">
    <path d="M -9.05 -9.05 L 9.05 -9.05 L 9.05 9.05 L -9.05 9.05 L -9.05 -9.05"/>
  </g>
  <g id="Column05Key01" transform="translate(138.1,56.925) rotate(0)">
    <path d="M -9.05 -9.05 L 9.05 -9.05 L 9.05 9.05 L -9.05 9.05 L -9.05 -9.05"/>
  </g>
  <g id="Column05Key02" transform="translate(138.1,75.975) rotate(0)">
    <path d="M -9.05 -9.05 L 9.05 -9.05 L 9.05 9.05 L -9.05 9.05 L -9.05 -9.05"/>
  </g>
  <g id="Column05Key03" transform="translate(138.1,95.025) rotate(0)">
    <path d="M -9.05 -9.05 L 9.05 -9.05 L 9.05 9.05 L -9.05 9.05 L -9.05 -9.05"/>
  </g>
  <g id="Column05Key04" transform="translate(138.1,114.075) rotate(0)">
    <path d="M -9.05 -9.05 L 9.05 -9.05 L 9.05 9.05 L -9.05 9.05 L -9.05 -9.05"/>
  </g>
  <g id="Column05Key05" transform="translate(138.1,133.125) rotate(0)">
    <path d="M -9.05 -9.05 L 9.05 -9.05 L 9.05 9.05 L -9.05 9.05 L -9.05 -9.05"/>
  </g>
  <g id="Column06Key00" transform="translate(157.15,75.975) rotate(0)">
    <path d="M -9.05 -9.05 L 9.05 -9.05 L 9.05 9.05 L -9.05 9.05 L -9.05 -9.05"/>
  </g>
  <g id="Column06Key01" transform="translate(157.15,95.025) rotate(0)">
    <path d="M -9.05 -9.05 L 9.05 -9.05 L 9.05 9.05 L -9.05 9.05 L -9.05 -9.05"/>
  </g>
  <g id="Column06Key02" transform="translate(157.15,114.075) rotate(0)">
    <path d="M -9.05 -9.05 L 9.05 -9.05 L 9.05 9.05 L -9.05 9.05 L -9.05 -9.05"/>
  </g>
  <g id="Column06Key03" transform="translate(157.15,133.125) rotate(0)">
    <path d="M -9.05 -9.05 L 9.05 -9.05 L 9.05 9.05 L -9.05 9.05 L -9.05 -9.05"/>
  </g>
  <g id="Column07Key00" transform="translate(192.85,75.975) rotate(0)">
    <path d="M -9.05 -9.05 L 9.05 -9.05 L 9.05 9.05 L -9.05 9.05 L -9.05 -9.05"/>
  </g>
  <g id="Column07Key01" transform="translate(192.85,95.025) rotate(0)">
    <path d="M -9.05 -9.05 L 9.05 -9.05 L 9.05 9.05 L -9.05 9.05 L -9.05 -9.05"/>
  </g>
  <g id="Column07Key02" transform="translate(192.85,114.075) rotate(0)">
    <path d="M -9.05 -9.05 L 9.05 -9.05 L 9.05 9.05 L -9.05 9.05 L -9.05 -9.05"/>
  </g>
  <g id="Column07Key03" transform="translate(192.85,133.125) rotate(0)">
    <path d="M -9.05 -9.05 L 9.05 -9.05 L 9.05 9.05 L -9.05 9.05 L -9.05 -9.05"/>
  </g>
  <g id="Column08Key00" transform="translate(211.9,37.875) rotate(0)">
    <path d="M -9.05 -9.05 L 9.05 -9.05 L 9.05 9.05 L -9.05 9.05 L -9.05 -9.05"/>
  </g>
  <g id="Column08Key01" transform="translate(211.9,56.925) rotate(0)">
    <path d="M -9.05 -9.05 L 9.05 -9.05 L 9.05 9.05 L -9.05 9.05 L -9.05 -9.05"/>
  </g>
  <g id="Column08Key02" transform="translate(211.9,75.975) rotate(0)">
    <path d="M -9.05 -9.05 L 9.05 -9.05 L 9.05 9.05 L -9.05 9.05 L -9.05 -9.05"/>
  </g>
  <g id="Column08Key03" transform="translate(211.9,95.025) rotate(0)">
    <path d="M -9.05 -9.05 L 9.05 -9.05 L 9.05 9.05 L -9.05 9.05 L -9.05 -9.05"/>
  </g>
  <g id="Column08Key04" transform="translate(211.9,114.075) rotate(0)">
    <path d="M -9.05 -9.05 L 9.05 -9.05 L 9.05 9.05 L -9.05 9.05 L -9.05 -9.05"/>
  </g>
  <g id="Column08Key05" transform="translate(211.9,133.125) rotate(0)">
    <path d="M -9.05 -9.05 L 9.05 -9.05 L 9.05 9.05 L -9.05 9.05 L -9.05 -9.05"/>
  </g>
  <g id="Column09Key00" transform="translate(230.95,32.875) rotate(0)">
    <path d="M -9.05 -9.05 L 9.05 -9.05 L 9.05 9.05 L -9.05 9.05 L -9.05 -9.05"/>
  </g>
  <g id="Column09Key01" transform="translate(230.95,51.925) rotate(0)">
    <path d="M -9.05 -9.05 L 9.05 -9.05 L 9.05 9.05 L -9.05 9.05 L -9.05 -9.05"/>
  </g>
  <g id="Column09Key02" transform="translate(230.95,70.975) rotate(0)">
    <path d="M -9.05 -9.05 L 9.05 -9.05 L 9.05 9.05 L -9.05 9.05 L -9.05 -9.05"/>
  </g>
  <g id="Column09Key03" transform="translate(230.95,90.025) rotate(0)">
    <path d="M -9.05 -9.05 L 9.05 -9.05 L 9.05 9.05 L -9.05 9.05 L -9.05 -9.05"/>
  </g>
  <g id="Column09Key04" transform="translate(230.95,109.075) rotate(0)">
    <path d="M -9.05 -9.05 L 9.05 -9.05 L 9.05 9.05 L -9.05 9.05 L -9.05 -9.05"/>
  </g>
  <g id="Column09Key05" transform="translate(230.95,128.125) rotate(0)">
    <path d="M -9.05 -9.05 L 9.05 -9.05 L 9.05 9.05 L -9.05 9.05 L -9.05 -9.05"/>
  </g>
  <g id="Column10Key00" transform="translate(250,26.875) rotate(0)">
    <path d="M -9.05 -9.05 L 9.05 -9.05 L 9.05 9.05 L -9.05 9.05 L -9.05 -9.05"/>
  </g>
  <g id="Column10Key01" transform="translate(250,45.925) rotate(0)">
    <path d="M -9.05 -9.05 L 9.05 -9.05 L 9.05 9.05 L -9.05 9.05 L -9.05 -9.05"/>
  </g>
  <g id="Column10Key02" transform="translate(250,64.975) rotate(0)">
    <path d="M -9.05 -9.05 L 9.05 -9.05 L 9.05 9.05 L -9.05 9.05 L -9.05 -9.05"/>
  </g>
  <g id="Column10Key03" transform="translate(250,84.025) rotate(0)">
    <path d="M -9.05 -9.05 L 9.05 -9.05 L 9.05 9.05 L -9.05 9.05 L -9.05 -9.05"/>
  </g>
  <g id="Column10Key04" transform="translate(250,103.075) rotate(0)">
    <path d="M -9.05 -9.05 L 9.05 -9.05 L 9.05 9.05 L -9.05 9.05 L -9.05 -9.05"/>
  </g>
  <g id="Column10Key05" transform="translate(250,122.125) rotate(0)">
    <path d="M -9.05 -9.05 L 9.05 -9.05 L 9.05 9.05 L -9.05 9.05 L -9.05 -9.05"/>
  </g>
  <g id="Column11Key00" transform="translate(269.05,31.875) rotate(0)">
    <path d="M -9.05 -9.05 L 9.05 -9.05 L 9.05 9.05 L -9.05 9.05 L -9.05 -9.05"/>
  </g>
  <g id="Column11Key01" transform="translate(269.05,50.925) rotate(0)">
    <path d="M -9.05 -9.05 L 9.05 -9.05 L 9.05 9.05 L -9.05 9.05 L -9.05 -9.05"/>
  </g>
  <g id="Column11Key02" transform="translate(269.05,69.975) rotate(0)">
    <path d="M -9.05 -9.05 L 9.05 -9.05 L 9.05 9.05 L -9.05 9.05 L -9.05 -9.05"/>
  </g>
  <g id="Column11Key03" transform="translate(269.05,89.025) rotate(0)">
    <path d="M -9.05 -9.05 L 9.05 -9.05 L 9.05 9.05 L -9.05 9.05 L -9.05 -9.05"/>
  </g>
  <g id="Column11Key04" transform="translate(269.05,108.075) rotate(0)">
    <path d="M -9.05 -9.05 L 9.05 -9.05 L 9.05 9.05 L -9.05 9.05 L -9.05 -9.05"/>
  </g>
  <g id="Column11Key05" transform="translate(269.05,127.125) rotate(0)">
    <path d="M -9.05 -9.05 L 9.05 -9.05 L 9.05 9.05 L -9.05 9.05 L -9.05 -9.05"/>
  </g>
  <g id="Column12Key00" transform="translate(288.1,34.875) rotate(0)">
    <path d="M -9.05 -9.05 L 9.05 -9.05 L 9.05 9.05 L -9.05 9.05 L -9.05 -9.05"/>
  </g>
  <g id="Column12Key01" transform="translate(288.1,53.925) rotate(0)">
    <path d="M -9.05 -9.05 L 9.05 -9.05 L 9.05 9.05 L -9.05 9.05 L -9.05 -9.05"/>
  </g>
  <g id="Column12Key02" transform="translate(288.1,72.975) rotate(0)">
    <path d="M -9.05 -9.05 L 9.05 -9.05 L 9.05 9.05 L -9.05 9.05 L -9.05 -9.05"/>
  </g>
  <g id="Column12Key03" transform="translate(288.1,92.025) rotate(0)">
    <path d="M -9.05 -9.05 L 9.05 -9.05 L 9.05 9.05 L -9.05 9.05 L -9.05 -9.05"/>
  </g>
  <g id="Column12Key04" transform="translate(288.1,111.075) rotate(0)">
    <path d="M -9.05 -9.05 L 9.05 -9.05 L 9.05 9.05 L -9.05 9.05 L -9.05 -9.05"/>
  </g>
  <g id="Column12Key05" transform="translate(288.1,130.125) rotate(0)">
    <path d="M -9.05 -9.05 L 9.05 -9.05 L 9.05 9.05 L -9.05 9.05 L -9.05 -9.05"/>
  </g>
  <g id="Column13Key00" transform="translate(307.15,34.875) rotate(0)">
    <path d="M -9.05 -9.05 L 9.05 -9.05 L 9.05 9.05 L -9.05 9.05 L -9.05 -9.05"/>
  </g>
  <g id="Column13Key01" transform="translate(307.15,53.925) rotate(0)">
    <path d="M -9.05 -9.05 L 9.05 -9.05 L 9.05 9.05 L -9.05 9.05 L -9.05 -9.05"/>
  </g>
  <g id="Column13Key02" transform="translate(307.15,72.975) rotate(0)">
    <path d="M -9.05 -9.05 L 9.05 -9.05 L 9.05 9.05 L -9.05 9.05 L -9.05 -9.05"/>
  </g>
  <g id="Column13Key03" transform="translate(307.15,92.025) rotate(0)">
    <path d="M -9.05 -9.05 L 9.05 -9.05 L 9.05 9.05 L -9.05 9.05 L -9.05 -9.05"/>
  </g>
  <g id="Column13Key04" transform="translate(307.15,111.075) rotate(0)">
    <path d="M -9.05 -9.05 L 9.05 -9.05 L 9.05 9.05 L -9.05 9.05 L -9.05 -9.05"/>
  </g>
  <g id="Column13Key05" transform="translate(307.15,130.125) rotate(0)">
    <path d="M -9.05 -9.05 L 9.05 -9.05 L 9.05 9.05 L -9.05 9.05 L -9.05 -9.05"/>
  </g>
</svg>