G04 #@! TF.GenerationSoftware,KiCad,Pcbnew,5.1.5+dfsg1-2build2*
G04 #@! TF.CreationDate,2020-05-17T17:46:53-07:00*
G04 #@! TF.ProjectId,triad_right,74726961-645f-4726-9967-68742e6b6963,rev?*
G04 #@! TF.SameCoordinates,Original*
G04 #@! TF.FileFunction,Soldermask,Top*
G04 #@! TF.FilePolarity,Negative*
%FSLAX46Y46*%
G04 Gerber Fmt 4.6, Leading zero omitted, Abs format (unit mm)*
G04 Created by KiCad (PCBNEW 5.1.5+dfsg1-2build2) date 2020-05-17 17:46:53*
%MOMM*%
%LPD*%
G04 APERTURE LIST*
%ADD10C,0.100000*%
G04 APERTURE END LIST*
D10*
G36*
X56034549Y-137076116D02*
G01*
X56145734Y-137098232D01*
X56355203Y-137184997D01*
X56543720Y-137310960D01*
X56704040Y-137471280D01*
X56830003Y-137659797D01*
X56916768Y-137869266D01*
X56961000Y-138091636D01*
X56961000Y-138318364D01*
X56916768Y-138540734D01*
X56830003Y-138750203D01*
X56704040Y-138938720D01*
X56543720Y-139099040D01*
X56355203Y-139225003D01*
X56145734Y-139311768D01*
X56034549Y-139333884D01*
X55923365Y-139356000D01*
X55696635Y-139356000D01*
X55585451Y-139333884D01*
X55474266Y-139311768D01*
X55264797Y-139225003D01*
X55076280Y-139099040D01*
X54915960Y-138938720D01*
X54789997Y-138750203D01*
X54703232Y-138540734D01*
X54659000Y-138318364D01*
X54659000Y-138091636D01*
X54703232Y-137869266D01*
X54789997Y-137659797D01*
X54915960Y-137471280D01*
X55076280Y-137310960D01*
X55264797Y-137184997D01*
X55474266Y-137098232D01*
X55585451Y-137076116D01*
X55696635Y-137054000D01*
X55923365Y-137054000D01*
X56034549Y-137076116D01*
G37*
G36*
X36984549Y-137076116D02*
G01*
X37095734Y-137098232D01*
X37305203Y-137184997D01*
X37493720Y-137310960D01*
X37654040Y-137471280D01*
X37780003Y-137659797D01*
X37866768Y-137869266D01*
X37911000Y-138091636D01*
X37911000Y-138318364D01*
X37866768Y-138540734D01*
X37780003Y-138750203D01*
X37654040Y-138938720D01*
X37493720Y-139099040D01*
X37305203Y-139225003D01*
X37095734Y-139311768D01*
X36984549Y-139333884D01*
X36873365Y-139356000D01*
X36646635Y-139356000D01*
X36535451Y-139333884D01*
X36424266Y-139311768D01*
X36214797Y-139225003D01*
X36026280Y-139099040D01*
X35865960Y-138938720D01*
X35739997Y-138750203D01*
X35653232Y-138540734D01*
X35609000Y-138318364D01*
X35609000Y-138091636D01*
X35653232Y-137869266D01*
X35739997Y-137659797D01*
X35865960Y-137471280D01*
X36026280Y-137310960D01*
X36214797Y-137184997D01*
X36424266Y-137098232D01*
X36535451Y-137076116D01*
X36646635Y-137054000D01*
X36873365Y-137054000D01*
X36984549Y-137076116D01*
G37*
G36*
X62384549Y-134536116D02*
G01*
X62495734Y-134558232D01*
X62705203Y-134644997D01*
X62893720Y-134770960D01*
X63054040Y-134931280D01*
X63180003Y-135119797D01*
X63262253Y-135318365D01*
X63266768Y-135329267D01*
X63308832Y-135540734D01*
X63311000Y-135551636D01*
X63311000Y-135778364D01*
X63266768Y-136000734D01*
X63180003Y-136210203D01*
X63054040Y-136398720D01*
X62893720Y-136559040D01*
X62705203Y-136685003D01*
X62495734Y-136771768D01*
X62384549Y-136793884D01*
X62273365Y-136816000D01*
X62046635Y-136816000D01*
X61935451Y-136793884D01*
X61824266Y-136771768D01*
X61614797Y-136685003D01*
X61426280Y-136559040D01*
X61265960Y-136398720D01*
X61139997Y-136210203D01*
X61053232Y-136000734D01*
X61009000Y-135778364D01*
X61009000Y-135551636D01*
X61011169Y-135540734D01*
X61053232Y-135329267D01*
X61057748Y-135318365D01*
X61139997Y-135119797D01*
X61265960Y-134931280D01*
X61426280Y-134770960D01*
X61614797Y-134644997D01*
X61824266Y-134558232D01*
X61935451Y-134536116D01*
X62046635Y-134514000D01*
X62273365Y-134514000D01*
X62384549Y-134536116D01*
G37*
G36*
X43334549Y-134536116D02*
G01*
X43445734Y-134558232D01*
X43655203Y-134644997D01*
X43843720Y-134770960D01*
X44004040Y-134931280D01*
X44130003Y-135119797D01*
X44212253Y-135318365D01*
X44216768Y-135329267D01*
X44258832Y-135540734D01*
X44261000Y-135551636D01*
X44261000Y-135778364D01*
X44216768Y-136000734D01*
X44130003Y-136210203D01*
X44004040Y-136398720D01*
X43843720Y-136559040D01*
X43655203Y-136685003D01*
X43445734Y-136771768D01*
X43334549Y-136793884D01*
X43223365Y-136816000D01*
X42996635Y-136816000D01*
X42885451Y-136793884D01*
X42774266Y-136771768D01*
X42564797Y-136685003D01*
X42376280Y-136559040D01*
X42215960Y-136398720D01*
X42089997Y-136210203D01*
X42003232Y-136000734D01*
X41959000Y-135778364D01*
X41959000Y-135551636D01*
X41961169Y-135540734D01*
X42003232Y-135329267D01*
X42007748Y-135318365D01*
X42089997Y-135119797D01*
X42215960Y-134931280D01*
X42376280Y-134770960D01*
X42564797Y-134644997D01*
X42774266Y-134558232D01*
X42885451Y-134536116D01*
X42996635Y-134514000D01*
X43223365Y-134514000D01*
X43334549Y-134536116D01*
G37*
G36*
X151284549Y-134076116D02*
G01*
X151395734Y-134098232D01*
X151605203Y-134184997D01*
X151793720Y-134310960D01*
X151954040Y-134471280D01*
X152080003Y-134659797D01*
X152166768Y-134869266D01*
X152181350Y-134942573D01*
X152211000Y-135091635D01*
X152211000Y-135318365D01*
X152208831Y-135329267D01*
X152166768Y-135540734D01*
X152080003Y-135750203D01*
X151954040Y-135938720D01*
X151793720Y-136099040D01*
X151605203Y-136225003D01*
X151395734Y-136311768D01*
X151284549Y-136333884D01*
X151173365Y-136356000D01*
X150946635Y-136356000D01*
X150835451Y-136333884D01*
X150724266Y-136311768D01*
X150514797Y-136225003D01*
X150326280Y-136099040D01*
X150165960Y-135938720D01*
X150039997Y-135750203D01*
X149953232Y-135540734D01*
X149911169Y-135329267D01*
X149909000Y-135318365D01*
X149909000Y-135091635D01*
X149938650Y-134942573D01*
X149953232Y-134869266D01*
X150039997Y-134659797D01*
X150165960Y-134471280D01*
X150326280Y-134310960D01*
X150514797Y-134184997D01*
X150724266Y-134098232D01*
X150835451Y-134076116D01*
X150946635Y-134054000D01*
X151173365Y-134054000D01*
X151284549Y-134076116D01*
G37*
G36*
X132234549Y-134076116D02*
G01*
X132345734Y-134098232D01*
X132555203Y-134184997D01*
X132743720Y-134310960D01*
X132904040Y-134471280D01*
X133030003Y-134659797D01*
X133116768Y-134869266D01*
X133131350Y-134942573D01*
X133161000Y-135091635D01*
X133161000Y-135318365D01*
X133158831Y-135329267D01*
X133116768Y-135540734D01*
X133030003Y-135750203D01*
X132904040Y-135938720D01*
X132743720Y-136099040D01*
X132555203Y-136225003D01*
X132345734Y-136311768D01*
X132234549Y-136333884D01*
X132123365Y-136356000D01*
X131896635Y-136356000D01*
X131785451Y-136333884D01*
X131674266Y-136311768D01*
X131464797Y-136225003D01*
X131276280Y-136099040D01*
X131115960Y-135938720D01*
X130989997Y-135750203D01*
X130903232Y-135540734D01*
X130861169Y-135329267D01*
X130859000Y-135318365D01*
X130859000Y-135091635D01*
X130888650Y-134942573D01*
X130903232Y-134869266D01*
X130989997Y-134659797D01*
X131115960Y-134471280D01*
X131276280Y-134310960D01*
X131464797Y-134184997D01*
X131674266Y-134098232D01*
X131785451Y-134076116D01*
X131896635Y-134054000D01*
X132123365Y-134054000D01*
X132234549Y-134076116D01*
G37*
G36*
X39898254Y-131152818D02*
G01*
X40271511Y-131307426D01*
X40271513Y-131307427D01*
X40607436Y-131531884D01*
X40893116Y-131817564D01*
X41080653Y-132098232D01*
X41117574Y-132153489D01*
X41272182Y-132526746D01*
X41351000Y-132922993D01*
X41351000Y-133327007D01*
X41272182Y-133723254D01*
X41117574Y-134096511D01*
X41117573Y-134096513D01*
X40893116Y-134432436D01*
X40607436Y-134718116D01*
X40271513Y-134942573D01*
X40271512Y-134942574D01*
X40271511Y-134942574D01*
X39898254Y-135097182D01*
X39502007Y-135176000D01*
X39097993Y-135176000D01*
X38701746Y-135097182D01*
X38328489Y-134942574D01*
X38328488Y-134942574D01*
X38328487Y-134942573D01*
X37992564Y-134718116D01*
X37706884Y-134432436D01*
X37482427Y-134096513D01*
X37482426Y-134096511D01*
X37327818Y-133723254D01*
X37249000Y-133327007D01*
X37249000Y-132922993D01*
X37327818Y-132526746D01*
X37482426Y-132153489D01*
X37519348Y-132098232D01*
X37706884Y-131817564D01*
X37992564Y-131531884D01*
X38328487Y-131307427D01*
X38328489Y-131307426D01*
X38701746Y-131152818D01*
X39097993Y-131074000D01*
X39502007Y-131074000D01*
X39898254Y-131152818D01*
G37*
G36*
X58948254Y-131152818D02*
G01*
X59321511Y-131307426D01*
X59321513Y-131307427D01*
X59657436Y-131531884D01*
X59943116Y-131817564D01*
X60130653Y-132098232D01*
X60167574Y-132153489D01*
X60322182Y-132526746D01*
X60401000Y-132922993D01*
X60401000Y-133327007D01*
X60322182Y-133723254D01*
X60167574Y-134096511D01*
X60167573Y-134096513D01*
X59943116Y-134432436D01*
X59657436Y-134718116D01*
X59321513Y-134942573D01*
X59321512Y-134942574D01*
X59321511Y-134942574D01*
X58948254Y-135097182D01*
X58552007Y-135176000D01*
X58147993Y-135176000D01*
X57751746Y-135097182D01*
X57378489Y-134942574D01*
X57378488Y-134942574D01*
X57378487Y-134942573D01*
X57042564Y-134718116D01*
X56756884Y-134432436D01*
X56532427Y-134096513D01*
X56532426Y-134096511D01*
X56377818Y-133723254D01*
X56299000Y-133327007D01*
X56299000Y-132922993D01*
X56377818Y-132526746D01*
X56532426Y-132153489D01*
X56569348Y-132098232D01*
X56756884Y-131817564D01*
X57042564Y-131531884D01*
X57378487Y-131307427D01*
X57378489Y-131307426D01*
X57751746Y-131152818D01*
X58147993Y-131074000D01*
X58552007Y-131074000D01*
X58948254Y-131152818D01*
G37*
G36*
X75084549Y-132076116D02*
G01*
X75195734Y-132098232D01*
X75247796Y-132119797D01*
X75383483Y-132176000D01*
X75405203Y-132184997D01*
X75593720Y-132310960D01*
X75754040Y-132471280D01*
X75880003Y-132659797D01*
X75963837Y-132862189D01*
X75966768Y-132869267D01*
X76011000Y-133091635D01*
X76011000Y-133318365D01*
X75995016Y-133398720D01*
X75966768Y-133540734D01*
X75880003Y-133750203D01*
X75754040Y-133938720D01*
X75593720Y-134099040D01*
X75405203Y-134225003D01*
X75195734Y-134311768D01*
X75084549Y-134333884D01*
X74973365Y-134356000D01*
X74746635Y-134356000D01*
X74635451Y-134333884D01*
X74524266Y-134311768D01*
X74314797Y-134225003D01*
X74126280Y-134099040D01*
X73965960Y-133938720D01*
X73839997Y-133750203D01*
X73753232Y-133540734D01*
X73724984Y-133398720D01*
X73709000Y-133318365D01*
X73709000Y-133091635D01*
X73753232Y-132869267D01*
X73756164Y-132862189D01*
X73839997Y-132659797D01*
X73965960Y-132471280D01*
X74126280Y-132310960D01*
X74314797Y-132184997D01*
X74336518Y-132176000D01*
X74472204Y-132119797D01*
X74524266Y-132098232D01*
X74635451Y-132076116D01*
X74746635Y-132054000D01*
X74973365Y-132054000D01*
X75084549Y-132076116D01*
G37*
G36*
X44493512Y-132228927D02*
G01*
X44642812Y-132258624D01*
X44806784Y-132326544D01*
X44954354Y-132425147D01*
X45079853Y-132550646D01*
X45178456Y-132698216D01*
X45246376Y-132862188D01*
X45281000Y-133036259D01*
X45281000Y-133213741D01*
X45246376Y-133387812D01*
X45178456Y-133551784D01*
X45079853Y-133699354D01*
X44954354Y-133824853D01*
X44806784Y-133923456D01*
X44642812Y-133991376D01*
X44493512Y-134021073D01*
X44468742Y-134026000D01*
X44291258Y-134026000D01*
X44266488Y-134021073D01*
X44117188Y-133991376D01*
X43953216Y-133923456D01*
X43805646Y-133824853D01*
X43680147Y-133699354D01*
X43581544Y-133551784D01*
X43513624Y-133387812D01*
X43479000Y-133213741D01*
X43479000Y-133036259D01*
X43513624Y-132862188D01*
X43581544Y-132698216D01*
X43680147Y-132550646D01*
X43805646Y-132425147D01*
X43953216Y-132326544D01*
X44117188Y-132258624D01*
X44266488Y-132228927D01*
X44291258Y-132224000D01*
X44468742Y-132224000D01*
X44493512Y-132228927D01*
G37*
G36*
X34333512Y-132228927D02*
G01*
X34482812Y-132258624D01*
X34646784Y-132326544D01*
X34794354Y-132425147D01*
X34919853Y-132550646D01*
X35018456Y-132698216D01*
X35086376Y-132862188D01*
X35121000Y-133036259D01*
X35121000Y-133213741D01*
X35086376Y-133387812D01*
X35018456Y-133551784D01*
X34919853Y-133699354D01*
X34794354Y-133824853D01*
X34646784Y-133923456D01*
X34482812Y-133991376D01*
X34333512Y-134021073D01*
X34308742Y-134026000D01*
X34131258Y-134026000D01*
X34106488Y-134021073D01*
X33957188Y-133991376D01*
X33793216Y-133923456D01*
X33645646Y-133824853D01*
X33520147Y-133699354D01*
X33421544Y-133551784D01*
X33353624Y-133387812D01*
X33319000Y-133213741D01*
X33319000Y-133036259D01*
X33353624Y-132862188D01*
X33421544Y-132698216D01*
X33520147Y-132550646D01*
X33645646Y-132425147D01*
X33793216Y-132326544D01*
X33957188Y-132258624D01*
X34106488Y-132228927D01*
X34131258Y-132224000D01*
X34308742Y-132224000D01*
X34333512Y-132228927D01*
G37*
G36*
X53383512Y-132228927D02*
G01*
X53532812Y-132258624D01*
X53696784Y-132326544D01*
X53844354Y-132425147D01*
X53969853Y-132550646D01*
X54068456Y-132698216D01*
X54136376Y-132862188D01*
X54171000Y-133036259D01*
X54171000Y-133213741D01*
X54136376Y-133387812D01*
X54068456Y-133551784D01*
X53969853Y-133699354D01*
X53844354Y-133824853D01*
X53696784Y-133923456D01*
X53532812Y-133991376D01*
X53383512Y-134021073D01*
X53358742Y-134026000D01*
X53181258Y-134026000D01*
X53156488Y-134021073D01*
X53007188Y-133991376D01*
X52843216Y-133923456D01*
X52695646Y-133824853D01*
X52570147Y-133699354D01*
X52471544Y-133551784D01*
X52403624Y-133387812D01*
X52369000Y-133213741D01*
X52369000Y-133036259D01*
X52403624Y-132862188D01*
X52471544Y-132698216D01*
X52570147Y-132550646D01*
X52695646Y-132425147D01*
X52843216Y-132326544D01*
X53007188Y-132258624D01*
X53156488Y-132228927D01*
X53181258Y-132224000D01*
X53358742Y-132224000D01*
X53383512Y-132228927D01*
G37*
G36*
X63543512Y-132228927D02*
G01*
X63692812Y-132258624D01*
X63856784Y-132326544D01*
X64004354Y-132425147D01*
X64129853Y-132550646D01*
X64228456Y-132698216D01*
X64296376Y-132862188D01*
X64331000Y-133036259D01*
X64331000Y-133213741D01*
X64296376Y-133387812D01*
X64228456Y-133551784D01*
X64129853Y-133699354D01*
X64004354Y-133824853D01*
X63856784Y-133923456D01*
X63692812Y-133991376D01*
X63543512Y-134021073D01*
X63518742Y-134026000D01*
X63341258Y-134026000D01*
X63316488Y-134021073D01*
X63167188Y-133991376D01*
X63003216Y-133923456D01*
X62855646Y-133824853D01*
X62730147Y-133699354D01*
X62631544Y-133551784D01*
X62563624Y-133387812D01*
X62529000Y-133213741D01*
X62529000Y-133036259D01*
X62563624Y-132862188D01*
X62631544Y-132698216D01*
X62730147Y-132550646D01*
X62855646Y-132425147D01*
X63003216Y-132326544D01*
X63167188Y-132258624D01*
X63316488Y-132228927D01*
X63341258Y-132224000D01*
X63518742Y-132224000D01*
X63543512Y-132228927D01*
G37*
G36*
X157613273Y-131531884D02*
G01*
X157745734Y-131558232D01*
X157955203Y-131644997D01*
X158143720Y-131770960D01*
X158304040Y-131931280D01*
X158430003Y-132119797D01*
X158515641Y-132326544D01*
X158516768Y-132329267D01*
X158558832Y-132540734D01*
X158561000Y-132551636D01*
X158561000Y-132778364D01*
X158516768Y-133000734D01*
X158430003Y-133210203D01*
X158304040Y-133398720D01*
X158143720Y-133559040D01*
X157955203Y-133685003D01*
X157745734Y-133771768D01*
X157634549Y-133793884D01*
X157523365Y-133816000D01*
X157296635Y-133816000D01*
X157185451Y-133793884D01*
X157074266Y-133771768D01*
X156864797Y-133685003D01*
X156676280Y-133559040D01*
X156515960Y-133398720D01*
X156389997Y-133210203D01*
X156303232Y-133000734D01*
X156259000Y-132778364D01*
X156259000Y-132551636D01*
X156261169Y-132540734D01*
X156303232Y-132329267D01*
X156304360Y-132326544D01*
X156389997Y-132119797D01*
X156515960Y-131931280D01*
X156676280Y-131770960D01*
X156864797Y-131644997D01*
X157074266Y-131558232D01*
X157206727Y-131531884D01*
X157296635Y-131514000D01*
X157523365Y-131514000D01*
X157613273Y-131531884D01*
G37*
G36*
X138563273Y-131531884D02*
G01*
X138695734Y-131558232D01*
X138905203Y-131644997D01*
X139093720Y-131770960D01*
X139254040Y-131931280D01*
X139380003Y-132119797D01*
X139465641Y-132326544D01*
X139466768Y-132329267D01*
X139508832Y-132540734D01*
X139511000Y-132551636D01*
X139511000Y-132778364D01*
X139466768Y-133000734D01*
X139380003Y-133210203D01*
X139254040Y-133398720D01*
X139093720Y-133559040D01*
X138905203Y-133685003D01*
X138695734Y-133771768D01*
X138584549Y-133793884D01*
X138473365Y-133816000D01*
X138246635Y-133816000D01*
X138135451Y-133793884D01*
X138024266Y-133771768D01*
X137814797Y-133685003D01*
X137626280Y-133559040D01*
X137465960Y-133398720D01*
X137339997Y-133210203D01*
X137253232Y-133000734D01*
X137209000Y-132778364D01*
X137209000Y-132551636D01*
X137211169Y-132540734D01*
X137253232Y-132329267D01*
X137254360Y-132326544D01*
X137339997Y-132119797D01*
X137465960Y-131931280D01*
X137626280Y-131770960D01*
X137814797Y-131644997D01*
X138024266Y-131558232D01*
X138156727Y-131531884D01*
X138246635Y-131514000D01*
X138473365Y-131514000D01*
X138563273Y-131531884D01*
G37*
G36*
X113173911Y-131074000D02*
G01*
X113295734Y-131098232D01*
X113505203Y-131184997D01*
X113693720Y-131310960D01*
X113854040Y-131471280D01*
X113980003Y-131659797D01*
X114066768Y-131869266D01*
X114081350Y-131942573D01*
X114111000Y-132091635D01*
X114111000Y-132318365D01*
X114108831Y-132329267D01*
X114066768Y-132540734D01*
X113980003Y-132750203D01*
X113854040Y-132938720D01*
X113693720Y-133099040D01*
X113505203Y-133225003D01*
X113295734Y-133311768D01*
X113219127Y-133327006D01*
X113073365Y-133356000D01*
X112846635Y-133356000D01*
X112700873Y-133327006D01*
X112624266Y-133311768D01*
X112414797Y-133225003D01*
X112226280Y-133099040D01*
X112065960Y-132938720D01*
X111939997Y-132750203D01*
X111853232Y-132540734D01*
X111811169Y-132329267D01*
X111809000Y-132318365D01*
X111809000Y-132091635D01*
X111838650Y-131942573D01*
X111853232Y-131869266D01*
X111939997Y-131659797D01*
X112065960Y-131471280D01*
X112226280Y-131310960D01*
X112414797Y-131184997D01*
X112624266Y-131098232D01*
X112746089Y-131074000D01*
X112846635Y-131054000D01*
X113073365Y-131054000D01*
X113173911Y-131074000D01*
G37*
G36*
X154198254Y-128152818D02*
G01*
X154571511Y-128307426D01*
X154571513Y-128307427D01*
X154907436Y-128531884D01*
X155193116Y-128817564D01*
X155276645Y-128942573D01*
X155417574Y-129153489D01*
X155572182Y-129526746D01*
X155651000Y-129922993D01*
X155651000Y-130327007D01*
X155572182Y-130723254D01*
X155426898Y-131074000D01*
X155417573Y-131096513D01*
X155193116Y-131432436D01*
X154907436Y-131718116D01*
X154571513Y-131942573D01*
X154571512Y-131942574D01*
X154571511Y-131942574D01*
X154198254Y-132097182D01*
X153802007Y-132176000D01*
X153397993Y-132176000D01*
X153001746Y-132097182D01*
X152628489Y-131942574D01*
X152628488Y-131942574D01*
X152628487Y-131942573D01*
X152292564Y-131718116D01*
X152006884Y-131432436D01*
X151782427Y-131096513D01*
X151773102Y-131074000D01*
X151627818Y-130723254D01*
X151549000Y-130327007D01*
X151549000Y-129922993D01*
X151627818Y-129526746D01*
X151782426Y-129153489D01*
X151923356Y-128942573D01*
X152006884Y-128817564D01*
X152292564Y-128531884D01*
X152628487Y-128307427D01*
X152628489Y-128307426D01*
X153001746Y-128152818D01*
X153397993Y-128074000D01*
X153802007Y-128074000D01*
X154198254Y-128152818D01*
G37*
G36*
X135148254Y-128152818D02*
G01*
X135521511Y-128307426D01*
X135521513Y-128307427D01*
X135857436Y-128531884D01*
X136143116Y-128817564D01*
X136226645Y-128942573D01*
X136367574Y-129153489D01*
X136522182Y-129526746D01*
X136601000Y-129922993D01*
X136601000Y-130327007D01*
X136522182Y-130723254D01*
X136376898Y-131074000D01*
X136367573Y-131096513D01*
X136143116Y-131432436D01*
X135857436Y-131718116D01*
X135521513Y-131942573D01*
X135521512Y-131942574D01*
X135521511Y-131942574D01*
X135148254Y-132097182D01*
X134752007Y-132176000D01*
X134347993Y-132176000D01*
X133951746Y-132097182D01*
X133578489Y-131942574D01*
X133578488Y-131942574D01*
X133578487Y-131942573D01*
X133242564Y-131718116D01*
X132956884Y-131432436D01*
X132732427Y-131096513D01*
X132723102Y-131074000D01*
X132577818Y-130723254D01*
X132499000Y-130327007D01*
X132499000Y-129922993D01*
X132577818Y-129526746D01*
X132732426Y-129153489D01*
X132873356Y-128942573D01*
X132956884Y-128817564D01*
X133242564Y-128531884D01*
X133578487Y-128307427D01*
X133578489Y-128307426D01*
X133951746Y-128152818D01*
X134347993Y-128074000D01*
X134752007Y-128074000D01*
X135148254Y-128152818D01*
G37*
G36*
X81387438Y-129526745D02*
G01*
X81545734Y-129558232D01*
X81755203Y-129644997D01*
X81943720Y-129770960D01*
X82104040Y-129931280D01*
X82230003Y-130119797D01*
X82316768Y-130329266D01*
X82361000Y-130551636D01*
X82361000Y-130778364D01*
X82316768Y-131000734D01*
X82230003Y-131210203D01*
X82104040Y-131398720D01*
X81943720Y-131559040D01*
X81755203Y-131685003D01*
X81545734Y-131771768D01*
X81434549Y-131793884D01*
X81323365Y-131816000D01*
X81096635Y-131816000D01*
X80985451Y-131793884D01*
X80874266Y-131771768D01*
X80664797Y-131685003D01*
X80476280Y-131559040D01*
X80315960Y-131398720D01*
X80189997Y-131210203D01*
X80103232Y-131000734D01*
X80059000Y-130778364D01*
X80059000Y-130551636D01*
X80103232Y-130329266D01*
X80189997Y-130119797D01*
X80315960Y-129931280D01*
X80476280Y-129770960D01*
X80664797Y-129644997D01*
X80874266Y-129558232D01*
X81032562Y-129526745D01*
X81096635Y-129514000D01*
X81323365Y-129514000D01*
X81387438Y-129526745D01*
G37*
G36*
X129583512Y-129228927D02*
G01*
X129732812Y-129258624D01*
X129896784Y-129326544D01*
X130044354Y-129425147D01*
X130169853Y-129550646D01*
X130268456Y-129698216D01*
X130336376Y-129862188D01*
X130371000Y-130036259D01*
X130371000Y-130213741D01*
X130336376Y-130387812D01*
X130268456Y-130551784D01*
X130169853Y-130699354D01*
X130044354Y-130824853D01*
X129896784Y-130923456D01*
X129732812Y-130991376D01*
X129583512Y-131021073D01*
X129558742Y-131026000D01*
X129381258Y-131026000D01*
X129356488Y-131021073D01*
X129207188Y-130991376D01*
X129043216Y-130923456D01*
X128895646Y-130824853D01*
X128770147Y-130699354D01*
X128671544Y-130551784D01*
X128603624Y-130387812D01*
X128569000Y-130213741D01*
X128569000Y-130036259D01*
X128603624Y-129862188D01*
X128671544Y-129698216D01*
X128770147Y-129550646D01*
X128895646Y-129425147D01*
X129043216Y-129326544D01*
X129207188Y-129258624D01*
X129356488Y-129228927D01*
X129381258Y-129224000D01*
X129558742Y-129224000D01*
X129583512Y-129228927D01*
G37*
G36*
X139743512Y-129228927D02*
G01*
X139892812Y-129258624D01*
X140056784Y-129326544D01*
X140204354Y-129425147D01*
X140329853Y-129550646D01*
X140428456Y-129698216D01*
X140496376Y-129862188D01*
X140531000Y-130036259D01*
X140531000Y-130213741D01*
X140496376Y-130387812D01*
X140428456Y-130551784D01*
X140329853Y-130699354D01*
X140204354Y-130824853D01*
X140056784Y-130923456D01*
X139892812Y-130991376D01*
X139743512Y-131021073D01*
X139718742Y-131026000D01*
X139541258Y-131026000D01*
X139516488Y-131021073D01*
X139367188Y-130991376D01*
X139203216Y-130923456D01*
X139055646Y-130824853D01*
X138930147Y-130699354D01*
X138831544Y-130551784D01*
X138763624Y-130387812D01*
X138729000Y-130213741D01*
X138729000Y-130036259D01*
X138763624Y-129862188D01*
X138831544Y-129698216D01*
X138930147Y-129550646D01*
X139055646Y-129425147D01*
X139203216Y-129326544D01*
X139367188Y-129258624D01*
X139516488Y-129228927D01*
X139541258Y-129224000D01*
X139718742Y-129224000D01*
X139743512Y-129228927D01*
G37*
G36*
X158793512Y-129228927D02*
G01*
X158942812Y-129258624D01*
X159106784Y-129326544D01*
X159254354Y-129425147D01*
X159379853Y-129550646D01*
X159478456Y-129698216D01*
X159546376Y-129862188D01*
X159581000Y-130036259D01*
X159581000Y-130213741D01*
X159546376Y-130387812D01*
X159478456Y-130551784D01*
X159379853Y-130699354D01*
X159254354Y-130824853D01*
X159106784Y-130923456D01*
X158942812Y-130991376D01*
X158793512Y-131021073D01*
X158768742Y-131026000D01*
X158591258Y-131026000D01*
X158566488Y-131021073D01*
X158417188Y-130991376D01*
X158253216Y-130923456D01*
X158105646Y-130824853D01*
X157980147Y-130699354D01*
X157881544Y-130551784D01*
X157813624Y-130387812D01*
X157779000Y-130213741D01*
X157779000Y-130036259D01*
X157813624Y-129862188D01*
X157881544Y-129698216D01*
X157980147Y-129550646D01*
X158105646Y-129425147D01*
X158253216Y-129326544D01*
X158417188Y-129258624D01*
X158566488Y-129228927D01*
X158591258Y-129224000D01*
X158768742Y-129224000D01*
X158793512Y-129228927D01*
G37*
G36*
X148633512Y-129228927D02*
G01*
X148782812Y-129258624D01*
X148946784Y-129326544D01*
X149094354Y-129425147D01*
X149219853Y-129550646D01*
X149318456Y-129698216D01*
X149386376Y-129862188D01*
X149421000Y-130036259D01*
X149421000Y-130213741D01*
X149386376Y-130387812D01*
X149318456Y-130551784D01*
X149219853Y-130699354D01*
X149094354Y-130824853D01*
X148946784Y-130923456D01*
X148782812Y-130991376D01*
X148633512Y-131021073D01*
X148608742Y-131026000D01*
X148431258Y-131026000D01*
X148406488Y-131021073D01*
X148257188Y-130991376D01*
X148093216Y-130923456D01*
X147945646Y-130824853D01*
X147820147Y-130699354D01*
X147721544Y-130551784D01*
X147653624Y-130387812D01*
X147619000Y-130213741D01*
X147619000Y-130036259D01*
X147653624Y-129862188D01*
X147721544Y-129698216D01*
X147820147Y-129550646D01*
X147945646Y-129425147D01*
X148093216Y-129326544D01*
X148257188Y-129258624D01*
X148406488Y-129228927D01*
X148431258Y-129224000D01*
X148608742Y-129224000D01*
X148633512Y-129228927D01*
G37*
G36*
X119513273Y-128531884D02*
G01*
X119645734Y-128558232D01*
X119855203Y-128644997D01*
X120043720Y-128770960D01*
X120204040Y-128931280D01*
X120330003Y-129119797D01*
X120416768Y-129329266D01*
X120461000Y-129551636D01*
X120461000Y-129778364D01*
X120416768Y-130000734D01*
X120330003Y-130210203D01*
X120204040Y-130398720D01*
X120043720Y-130559040D01*
X119855203Y-130685003D01*
X119645734Y-130771768D01*
X119534549Y-130793884D01*
X119423365Y-130816000D01*
X119196635Y-130816000D01*
X119085451Y-130793884D01*
X118974266Y-130771768D01*
X118764797Y-130685003D01*
X118576280Y-130559040D01*
X118415960Y-130398720D01*
X118289997Y-130210203D01*
X118203232Y-130000734D01*
X118159000Y-129778364D01*
X118159000Y-129551636D01*
X118203232Y-129329266D01*
X118289997Y-129119797D01*
X118415960Y-128931280D01*
X118576280Y-128770960D01*
X118764797Y-128644997D01*
X118974266Y-128558232D01*
X119106727Y-128531884D01*
X119196635Y-128514000D01*
X119423365Y-128514000D01*
X119513273Y-128531884D01*
G37*
G36*
X77998254Y-126152818D02*
G01*
X78371511Y-126307426D01*
X78371513Y-126307427D01*
X78707436Y-126531884D01*
X78993116Y-126817564D01*
X79176245Y-127091635D01*
X79217574Y-127153489D01*
X79372182Y-127526746D01*
X79451000Y-127922993D01*
X79451000Y-128327007D01*
X79372182Y-128723254D01*
X79217574Y-129096511D01*
X79217573Y-129096513D01*
X78993116Y-129432436D01*
X78707436Y-129718116D01*
X78371513Y-129942573D01*
X78371512Y-129942574D01*
X78371511Y-129942574D01*
X77998254Y-130097182D01*
X77602007Y-130176000D01*
X77197993Y-130176000D01*
X76801746Y-130097182D01*
X76428489Y-129942574D01*
X76428488Y-129942574D01*
X76428487Y-129942573D01*
X76092564Y-129718116D01*
X75806884Y-129432436D01*
X75582427Y-129096513D01*
X75582426Y-129096511D01*
X75427818Y-128723254D01*
X75349000Y-128327007D01*
X75349000Y-127922993D01*
X75427818Y-127526746D01*
X75582426Y-127153489D01*
X75623756Y-127091635D01*
X75806884Y-126817564D01*
X76092564Y-126531884D01*
X76428487Y-126307427D01*
X76428489Y-126307426D01*
X76801746Y-126152818D01*
X77197993Y-126074000D01*
X77602007Y-126074000D01*
X77998254Y-126152818D01*
G37*
G36*
X116098254Y-125152818D02*
G01*
X116471511Y-125307426D01*
X116471513Y-125307427D01*
X116807436Y-125531884D01*
X117093116Y-125817564D01*
X117317127Y-126152819D01*
X117317574Y-126153489D01*
X117472182Y-126526746D01*
X117551000Y-126922993D01*
X117551000Y-127327007D01*
X117472182Y-127723254D01*
X117342531Y-128036259D01*
X117317573Y-128096513D01*
X117093116Y-128432436D01*
X116807436Y-128718116D01*
X116471513Y-128942573D01*
X116471512Y-128942574D01*
X116471511Y-128942574D01*
X116098254Y-129097182D01*
X115702007Y-129176000D01*
X115297993Y-129176000D01*
X114901746Y-129097182D01*
X114528489Y-128942574D01*
X114528488Y-128942574D01*
X114528487Y-128942573D01*
X114192564Y-128718116D01*
X113906884Y-128432436D01*
X113682427Y-128096513D01*
X113657469Y-128036259D01*
X113527818Y-127723254D01*
X113449000Y-127327007D01*
X113449000Y-126922993D01*
X113527818Y-126526746D01*
X113682426Y-126153489D01*
X113682874Y-126152819D01*
X113906884Y-125817564D01*
X114192564Y-125531884D01*
X114528487Y-125307427D01*
X114528489Y-125307426D01*
X114901746Y-125152818D01*
X115297993Y-125074000D01*
X115702007Y-125074000D01*
X116098254Y-125152818D01*
G37*
G36*
X82593512Y-127228927D02*
G01*
X82742812Y-127258624D01*
X82906784Y-127326544D01*
X83054354Y-127425147D01*
X83179853Y-127550646D01*
X83278456Y-127698216D01*
X83346376Y-127862188D01*
X83372072Y-127991375D01*
X83378960Y-128026000D01*
X83381000Y-128036259D01*
X83381000Y-128213741D01*
X83346376Y-128387812D01*
X83278456Y-128551784D01*
X83179853Y-128699354D01*
X83054354Y-128824853D01*
X82906784Y-128923456D01*
X82742812Y-128991376D01*
X82593512Y-129021073D01*
X82568742Y-129026000D01*
X82391258Y-129026000D01*
X82366488Y-129021073D01*
X82217188Y-128991376D01*
X82053216Y-128923456D01*
X81905646Y-128824853D01*
X81780147Y-128699354D01*
X81681544Y-128551784D01*
X81613624Y-128387812D01*
X81579000Y-128213741D01*
X81579000Y-128036259D01*
X81581041Y-128026000D01*
X81587928Y-127991375D01*
X81613624Y-127862188D01*
X81681544Y-127698216D01*
X81780147Y-127550646D01*
X81905646Y-127425147D01*
X82053216Y-127326544D01*
X82217188Y-127258624D01*
X82366488Y-127228927D01*
X82391258Y-127224000D01*
X82568742Y-127224000D01*
X82593512Y-127228927D01*
G37*
G36*
X72433512Y-127228927D02*
G01*
X72582812Y-127258624D01*
X72746784Y-127326544D01*
X72894354Y-127425147D01*
X73019853Y-127550646D01*
X73118456Y-127698216D01*
X73186376Y-127862188D01*
X73212072Y-127991375D01*
X73218960Y-128026000D01*
X73221000Y-128036259D01*
X73221000Y-128213741D01*
X73186376Y-128387812D01*
X73118456Y-128551784D01*
X73019853Y-128699354D01*
X72894354Y-128824853D01*
X72746784Y-128923456D01*
X72582812Y-128991376D01*
X72433512Y-129021073D01*
X72408742Y-129026000D01*
X72231258Y-129026000D01*
X72206488Y-129021073D01*
X72057188Y-128991376D01*
X71893216Y-128923456D01*
X71745646Y-128824853D01*
X71620147Y-128699354D01*
X71521544Y-128551784D01*
X71453624Y-128387812D01*
X71419000Y-128213741D01*
X71419000Y-128036259D01*
X71421041Y-128026000D01*
X71427928Y-127991375D01*
X71453624Y-127862188D01*
X71521544Y-127698216D01*
X71620147Y-127550646D01*
X71745646Y-127425147D01*
X71893216Y-127326544D01*
X72057188Y-127258624D01*
X72206488Y-127228927D01*
X72231258Y-127224000D01*
X72408742Y-127224000D01*
X72433512Y-127228927D01*
G37*
G36*
X94123911Y-126074000D02*
G01*
X94245734Y-126098232D01*
X94455203Y-126184997D01*
X94643720Y-126310960D01*
X94804040Y-126471280D01*
X94930003Y-126659797D01*
X95016768Y-126869266D01*
X95061000Y-127091636D01*
X95061000Y-127318364D01*
X95016768Y-127540734D01*
X94930003Y-127750203D01*
X94804040Y-127938720D01*
X94643720Y-128099040D01*
X94455203Y-128225003D01*
X94245734Y-128311768D01*
X94169127Y-128327006D01*
X94023365Y-128356000D01*
X93796635Y-128356000D01*
X93650873Y-128327006D01*
X93574266Y-128311768D01*
X93364797Y-128225003D01*
X93176280Y-128099040D01*
X93015960Y-127938720D01*
X92889997Y-127750203D01*
X92803232Y-127540734D01*
X92759000Y-127318364D01*
X92759000Y-127091636D01*
X92803232Y-126869266D01*
X92889997Y-126659797D01*
X93015960Y-126471280D01*
X93176280Y-126310960D01*
X93364797Y-126184997D01*
X93574266Y-126098232D01*
X93696089Y-126074000D01*
X93796635Y-126054000D01*
X94023365Y-126054000D01*
X94123911Y-126074000D01*
G37*
G36*
X110533512Y-126228927D02*
G01*
X110682812Y-126258624D01*
X110846784Y-126326544D01*
X110994354Y-126425147D01*
X111119853Y-126550646D01*
X111218456Y-126698216D01*
X111286376Y-126862188D01*
X111316073Y-127011488D01*
X111321000Y-127036258D01*
X111321000Y-127213742D01*
X111316073Y-127238512D01*
X111286376Y-127387812D01*
X111218456Y-127551784D01*
X111119853Y-127699354D01*
X110994354Y-127824853D01*
X110846784Y-127923456D01*
X110682812Y-127991376D01*
X110533512Y-128021073D01*
X110508742Y-128026000D01*
X110331258Y-128026000D01*
X110306488Y-128021073D01*
X110157188Y-127991376D01*
X109993216Y-127923456D01*
X109845646Y-127824853D01*
X109720147Y-127699354D01*
X109621544Y-127551784D01*
X109553624Y-127387812D01*
X109523927Y-127238512D01*
X109519000Y-127213742D01*
X109519000Y-127036258D01*
X109523927Y-127011488D01*
X109553624Y-126862188D01*
X109621544Y-126698216D01*
X109720147Y-126550646D01*
X109845646Y-126425147D01*
X109993216Y-126326544D01*
X110157188Y-126258624D01*
X110306488Y-126228927D01*
X110331258Y-126224000D01*
X110508742Y-126224000D01*
X110533512Y-126228927D01*
G37*
G36*
X120693512Y-126228927D02*
G01*
X120842812Y-126258624D01*
X121006784Y-126326544D01*
X121154354Y-126425147D01*
X121279853Y-126550646D01*
X121378456Y-126698216D01*
X121446376Y-126862188D01*
X121476073Y-127011488D01*
X121481000Y-127036258D01*
X121481000Y-127213742D01*
X121476073Y-127238512D01*
X121446376Y-127387812D01*
X121378456Y-127551784D01*
X121279853Y-127699354D01*
X121154354Y-127824853D01*
X121006784Y-127923456D01*
X120842812Y-127991376D01*
X120693512Y-128021073D01*
X120668742Y-128026000D01*
X120491258Y-128026000D01*
X120466488Y-128021073D01*
X120317188Y-127991376D01*
X120153216Y-127923456D01*
X120005646Y-127824853D01*
X119880147Y-127699354D01*
X119781544Y-127551784D01*
X119713624Y-127387812D01*
X119683927Y-127238512D01*
X119679000Y-127213742D01*
X119679000Y-127036258D01*
X119683927Y-127011488D01*
X119713624Y-126862188D01*
X119781544Y-126698216D01*
X119880147Y-126550646D01*
X120005646Y-126425147D01*
X120153216Y-126326544D01*
X120317188Y-126258624D01*
X120466488Y-126228927D01*
X120491258Y-126224000D01*
X120668742Y-126224000D01*
X120693512Y-126228927D01*
G37*
G36*
X100484549Y-123536116D02*
G01*
X100595734Y-123558232D01*
X100805203Y-123644997D01*
X100993720Y-123770960D01*
X101154040Y-123931280D01*
X101280003Y-124119797D01*
X101366768Y-124329266D01*
X101411000Y-124551636D01*
X101411000Y-124778364D01*
X101366768Y-125000734D01*
X101280003Y-125210203D01*
X101154040Y-125398720D01*
X100993720Y-125559040D01*
X100805203Y-125685003D01*
X100595734Y-125771768D01*
X100484549Y-125793884D01*
X100373365Y-125816000D01*
X100146635Y-125816000D01*
X100035451Y-125793884D01*
X99924266Y-125771768D01*
X99714797Y-125685003D01*
X99526280Y-125559040D01*
X99365960Y-125398720D01*
X99239997Y-125210203D01*
X99153232Y-125000734D01*
X99109000Y-124778364D01*
X99109000Y-124551636D01*
X99153232Y-124329266D01*
X99239997Y-124119797D01*
X99365960Y-123931280D01*
X99526280Y-123770960D01*
X99714797Y-123644997D01*
X99924266Y-123558232D01*
X100035451Y-123536116D01*
X100146635Y-123514000D01*
X100373365Y-123514000D01*
X100484549Y-123536116D01*
G37*
G36*
X97048254Y-120152818D02*
G01*
X97418068Y-120306000D01*
X97421513Y-120307427D01*
X97541057Y-120387304D01*
X97757436Y-120531884D01*
X98043116Y-120817564D01*
X98267574Y-121153489D01*
X98422182Y-121526746D01*
X98501000Y-121922993D01*
X98501000Y-122327007D01*
X98422182Y-122723254D01*
X98267574Y-123096511D01*
X98267573Y-123096513D01*
X98043116Y-123432436D01*
X97757436Y-123718116D01*
X97421513Y-123942573D01*
X97421512Y-123942574D01*
X97421511Y-123942574D01*
X97048254Y-124097182D01*
X96652007Y-124176000D01*
X96247993Y-124176000D01*
X95851746Y-124097182D01*
X95478489Y-123942574D01*
X95478488Y-123942574D01*
X95478487Y-123942573D01*
X95142564Y-123718116D01*
X94856884Y-123432436D01*
X94632427Y-123096513D01*
X94632426Y-123096511D01*
X94477818Y-122723254D01*
X94399000Y-122327007D01*
X94399000Y-121922993D01*
X94477818Y-121526746D01*
X94632426Y-121153489D01*
X94856884Y-120817564D01*
X95142564Y-120531884D01*
X95358943Y-120387304D01*
X95478487Y-120307427D01*
X95481932Y-120306000D01*
X95851746Y-120152818D01*
X96247993Y-120074000D01*
X96652007Y-120074000D01*
X97048254Y-120152818D01*
G37*
G36*
X101643512Y-121228927D02*
G01*
X101792812Y-121258624D01*
X101956784Y-121326544D01*
X102104354Y-121425147D01*
X102229853Y-121550646D01*
X102328456Y-121698216D01*
X102396376Y-121862188D01*
X102431000Y-122036259D01*
X102431000Y-122213741D01*
X102396376Y-122387812D01*
X102328456Y-122551784D01*
X102229853Y-122699354D01*
X102104354Y-122824853D01*
X101956784Y-122923456D01*
X101792812Y-122991376D01*
X101643512Y-123021073D01*
X101618742Y-123026000D01*
X101441258Y-123026000D01*
X101416488Y-123021073D01*
X101267188Y-122991376D01*
X101103216Y-122923456D01*
X100955646Y-122824853D01*
X100830147Y-122699354D01*
X100731544Y-122551784D01*
X100663624Y-122387812D01*
X100629000Y-122213741D01*
X100629000Y-122036259D01*
X100663624Y-121862188D01*
X100731544Y-121698216D01*
X100830147Y-121550646D01*
X100955646Y-121425147D01*
X101103216Y-121326544D01*
X101267188Y-121258624D01*
X101416488Y-121228927D01*
X101441258Y-121224000D01*
X101618742Y-121224000D01*
X101643512Y-121228927D01*
G37*
G36*
X91483512Y-121228927D02*
G01*
X91632812Y-121258624D01*
X91796784Y-121326544D01*
X91944354Y-121425147D01*
X92069853Y-121550646D01*
X92168456Y-121698216D01*
X92236376Y-121862188D01*
X92271000Y-122036259D01*
X92271000Y-122213741D01*
X92236376Y-122387812D01*
X92168456Y-122551784D01*
X92069853Y-122699354D01*
X91944354Y-122824853D01*
X91796784Y-122923456D01*
X91632812Y-122991376D01*
X91483512Y-123021073D01*
X91458742Y-123026000D01*
X91281258Y-123026000D01*
X91256488Y-123021073D01*
X91107188Y-122991376D01*
X90943216Y-122923456D01*
X90795646Y-122824853D01*
X90670147Y-122699354D01*
X90571544Y-122551784D01*
X90503624Y-122387812D01*
X90469000Y-122213741D01*
X90469000Y-122036259D01*
X90503624Y-121862188D01*
X90571544Y-121698216D01*
X90670147Y-121550646D01*
X90795646Y-121425147D01*
X90943216Y-121326544D01*
X91107188Y-121258624D01*
X91256488Y-121228927D01*
X91281258Y-121224000D01*
X91458742Y-121224000D01*
X91483512Y-121228927D01*
G37*
G36*
X144523903Y-118343213D02*
G01*
X144746177Y-118387426D01*
X145164932Y-118560880D01*
X145541802Y-118812696D01*
X145862304Y-119133198D01*
X146114120Y-119510068D01*
X146287574Y-119928823D01*
X146376000Y-120373371D01*
X146376000Y-120826629D01*
X146287574Y-121271177D01*
X146114120Y-121689932D01*
X145862304Y-122066802D01*
X145541802Y-122387304D01*
X145164932Y-122639120D01*
X144746177Y-122812574D01*
X144684451Y-122824852D01*
X144301630Y-122901000D01*
X143848370Y-122901000D01*
X143465549Y-122824852D01*
X143403823Y-122812574D01*
X142985068Y-122639120D01*
X142608198Y-122387304D01*
X142287696Y-122066802D01*
X142035880Y-121689932D01*
X141862426Y-121271177D01*
X141774000Y-120826629D01*
X141774000Y-120373371D01*
X141862426Y-119928823D01*
X142035880Y-119510068D01*
X142287696Y-119133198D01*
X142608198Y-118812696D01*
X142985068Y-118560880D01*
X143403823Y-118387426D01*
X143626097Y-118343213D01*
X143848370Y-118299000D01*
X144301630Y-118299000D01*
X144523903Y-118343213D01*
G37*
G36*
X68323903Y-116343213D02*
G01*
X68546177Y-116387426D01*
X68964932Y-116560880D01*
X69341802Y-116812696D01*
X69662304Y-117133198D01*
X69914120Y-117510068D01*
X70087574Y-117928823D01*
X70131787Y-118151097D01*
X70176000Y-118373370D01*
X70176000Y-118826630D01*
X70131787Y-119048903D01*
X70087574Y-119271177D01*
X69914120Y-119689932D01*
X69662304Y-120066802D01*
X69341802Y-120387304D01*
X68964932Y-120639120D01*
X68546177Y-120812574D01*
X68323903Y-120856787D01*
X68101630Y-120901000D01*
X67648370Y-120901000D01*
X67426097Y-120856787D01*
X67203823Y-120812574D01*
X66785068Y-120639120D01*
X66408198Y-120387304D01*
X66087696Y-120066802D01*
X65835880Y-119689932D01*
X65662426Y-119271177D01*
X65618213Y-119048903D01*
X65574000Y-118826630D01*
X65574000Y-118373370D01*
X65618213Y-118151097D01*
X65662426Y-117928823D01*
X65835880Y-117510068D01*
X66087696Y-117133198D01*
X66408198Y-116812696D01*
X66785068Y-116560880D01*
X67203823Y-116387426D01*
X67426097Y-116343213D01*
X67648370Y-116299000D01*
X68101630Y-116299000D01*
X68323903Y-116343213D01*
G37*
G36*
X56034549Y-118026116D02*
G01*
X56145734Y-118048232D01*
X56355203Y-118134997D01*
X56543720Y-118260960D01*
X56704040Y-118421280D01*
X56830003Y-118609797D01*
X56916768Y-118819266D01*
X56918233Y-118826630D01*
X56961000Y-119041635D01*
X56961000Y-119268365D01*
X56938884Y-119379549D01*
X56916768Y-119490734D01*
X56855416Y-119638850D01*
X56834258Y-119689932D01*
X56830003Y-119700203D01*
X56704040Y-119888720D01*
X56543720Y-120049040D01*
X56355203Y-120175003D01*
X56145734Y-120261768D01*
X56034549Y-120283884D01*
X55923365Y-120306000D01*
X55696635Y-120306000D01*
X55585451Y-120283884D01*
X55474266Y-120261768D01*
X55264797Y-120175003D01*
X55076280Y-120049040D01*
X54915960Y-119888720D01*
X54789997Y-119700203D01*
X54785743Y-119689932D01*
X54764584Y-119638850D01*
X54703232Y-119490734D01*
X54681116Y-119379549D01*
X54659000Y-119268365D01*
X54659000Y-119041635D01*
X54701767Y-118826630D01*
X54703232Y-118819266D01*
X54789997Y-118609797D01*
X54915960Y-118421280D01*
X55076280Y-118260960D01*
X55264797Y-118134997D01*
X55474266Y-118048232D01*
X55585451Y-118026116D01*
X55696635Y-118004000D01*
X55923365Y-118004000D01*
X56034549Y-118026116D01*
G37*
G36*
X62384549Y-115486116D02*
G01*
X62495734Y-115508232D01*
X62705203Y-115594997D01*
X62893720Y-115720960D01*
X63054040Y-115881280D01*
X63180003Y-116069797D01*
X63262253Y-116268365D01*
X63266768Y-116279267D01*
X63308832Y-116490734D01*
X63311000Y-116501636D01*
X63311000Y-116728364D01*
X63279104Y-116888719D01*
X63266768Y-116950733D01*
X63191189Y-117133199D01*
X63180003Y-117160203D01*
X63054040Y-117348720D01*
X62893720Y-117509040D01*
X62705203Y-117635003D01*
X62495734Y-117721768D01*
X62384549Y-117743884D01*
X62273365Y-117766000D01*
X62046635Y-117766000D01*
X61935451Y-117743884D01*
X61824266Y-117721768D01*
X61614797Y-117635003D01*
X61426280Y-117509040D01*
X61265960Y-117348720D01*
X61139997Y-117160203D01*
X61128812Y-117133199D01*
X61053232Y-116950733D01*
X61040897Y-116888719D01*
X61009000Y-116728364D01*
X61009000Y-116501636D01*
X61011169Y-116490734D01*
X61053232Y-116279267D01*
X61057748Y-116268365D01*
X61139997Y-116069797D01*
X61265960Y-115881280D01*
X61426280Y-115720960D01*
X61614797Y-115594997D01*
X61824266Y-115508232D01*
X61935451Y-115486116D01*
X62046635Y-115464000D01*
X62273365Y-115464000D01*
X62384549Y-115486116D01*
G37*
G36*
X151284549Y-115026116D02*
G01*
X151395734Y-115048232D01*
X151605203Y-115134997D01*
X151793720Y-115260960D01*
X151954040Y-115421280D01*
X152080003Y-115609797D01*
X152166768Y-115819266D01*
X152181350Y-115892573D01*
X152211000Y-116041635D01*
X152211000Y-116268365D01*
X152208831Y-116279267D01*
X152166768Y-116490734D01*
X152080003Y-116700203D01*
X151954040Y-116888720D01*
X151793720Y-117049040D01*
X151605203Y-117175003D01*
X151395734Y-117261768D01*
X151284549Y-117283884D01*
X151173365Y-117306000D01*
X150946635Y-117306000D01*
X150835451Y-117283884D01*
X150724266Y-117261768D01*
X150514797Y-117175003D01*
X150326280Y-117049040D01*
X150165960Y-116888720D01*
X150039997Y-116700203D01*
X149953232Y-116490734D01*
X149911169Y-116279267D01*
X149909000Y-116268365D01*
X149909000Y-116041635D01*
X149938650Y-115892573D01*
X149953232Y-115819266D01*
X150039997Y-115609797D01*
X150165960Y-115421280D01*
X150326280Y-115260960D01*
X150514797Y-115134997D01*
X150724266Y-115048232D01*
X150835451Y-115026116D01*
X150946635Y-115004000D01*
X151173365Y-115004000D01*
X151284549Y-115026116D01*
G37*
G36*
X132234549Y-115026116D02*
G01*
X132345734Y-115048232D01*
X132555203Y-115134997D01*
X132743720Y-115260960D01*
X132904040Y-115421280D01*
X133030003Y-115609797D01*
X133116768Y-115819266D01*
X133131350Y-115892573D01*
X133161000Y-116041635D01*
X133161000Y-116268365D01*
X133158831Y-116279267D01*
X133116768Y-116490734D01*
X133030003Y-116700203D01*
X132904040Y-116888720D01*
X132743720Y-117049040D01*
X132555203Y-117175003D01*
X132345734Y-117261768D01*
X132234549Y-117283884D01*
X132123365Y-117306000D01*
X131896635Y-117306000D01*
X131785451Y-117283884D01*
X131674266Y-117261768D01*
X131464797Y-117175003D01*
X131276280Y-117049040D01*
X131115960Y-116888720D01*
X130989997Y-116700203D01*
X130903232Y-116490734D01*
X130861169Y-116279267D01*
X130859000Y-116268365D01*
X130859000Y-116041635D01*
X130888650Y-115892573D01*
X130903232Y-115819266D01*
X130989997Y-115609797D01*
X131115960Y-115421280D01*
X131276280Y-115260960D01*
X131464797Y-115134997D01*
X131674266Y-115048232D01*
X131785451Y-115026116D01*
X131896635Y-115004000D01*
X132123365Y-115004000D01*
X132234549Y-115026116D01*
G37*
G36*
X58948254Y-112102818D02*
G01*
X59321511Y-112257426D01*
X59321513Y-112257427D01*
X59657436Y-112481884D01*
X59943116Y-112767564D01*
X60130653Y-113048232D01*
X60167574Y-113103489D01*
X60322182Y-113476746D01*
X60401000Y-113872993D01*
X60401000Y-114277007D01*
X60322182Y-114673254D01*
X60167574Y-115046511D01*
X60167573Y-115046513D01*
X59943116Y-115382436D01*
X59657436Y-115668116D01*
X59321513Y-115892573D01*
X59321512Y-115892574D01*
X59321511Y-115892574D01*
X58948254Y-116047182D01*
X58552007Y-116126000D01*
X58147993Y-116126000D01*
X57751746Y-116047182D01*
X57378489Y-115892574D01*
X57378488Y-115892574D01*
X57378487Y-115892573D01*
X57042564Y-115668116D01*
X56756884Y-115382436D01*
X56532427Y-115046513D01*
X56532426Y-115046511D01*
X56377818Y-114673254D01*
X56299000Y-114277007D01*
X56299000Y-113872993D01*
X56377818Y-113476746D01*
X56532426Y-113103489D01*
X56569348Y-113048232D01*
X56756884Y-112767564D01*
X57042564Y-112481884D01*
X57378487Y-112257427D01*
X57378489Y-112257426D01*
X57751746Y-112102818D01*
X58147993Y-112024000D01*
X58552007Y-112024000D01*
X58948254Y-112102818D01*
G37*
G36*
X75084549Y-113026116D02*
G01*
X75195734Y-113048232D01*
X75247796Y-113069797D01*
X75383483Y-113126000D01*
X75405203Y-113134997D01*
X75593720Y-113260960D01*
X75754040Y-113421280D01*
X75880003Y-113609797D01*
X75963837Y-113812189D01*
X75966768Y-113819267D01*
X76011000Y-114041635D01*
X76011000Y-114268365D01*
X75995016Y-114348720D01*
X75966768Y-114490734D01*
X75880003Y-114700203D01*
X75754040Y-114888720D01*
X75593720Y-115049040D01*
X75405203Y-115175003D01*
X75195734Y-115261768D01*
X75084549Y-115283884D01*
X74973365Y-115306000D01*
X74746635Y-115306000D01*
X74635451Y-115283884D01*
X74524266Y-115261768D01*
X74314797Y-115175003D01*
X74126280Y-115049040D01*
X73965960Y-114888720D01*
X73839997Y-114700203D01*
X73753232Y-114490734D01*
X73724984Y-114348720D01*
X73709000Y-114268365D01*
X73709000Y-114041635D01*
X73753232Y-113819267D01*
X73756164Y-113812189D01*
X73839997Y-113609797D01*
X73965960Y-113421280D01*
X74126280Y-113260960D01*
X74314797Y-113134997D01*
X74336518Y-113126000D01*
X74472204Y-113069797D01*
X74524266Y-113048232D01*
X74635451Y-113026116D01*
X74746635Y-113004000D01*
X74973365Y-113004000D01*
X75084549Y-113026116D01*
G37*
G36*
X53383512Y-113178927D02*
G01*
X53532812Y-113208624D01*
X53696784Y-113276544D01*
X53844354Y-113375147D01*
X53969853Y-113500646D01*
X54068456Y-113648216D01*
X54136376Y-113812188D01*
X54171000Y-113986259D01*
X54171000Y-114163741D01*
X54136376Y-114337812D01*
X54068456Y-114501784D01*
X53969853Y-114649354D01*
X53844354Y-114774853D01*
X53696784Y-114873456D01*
X53532812Y-114941376D01*
X53383512Y-114971073D01*
X53358742Y-114976000D01*
X53181258Y-114976000D01*
X53156488Y-114971073D01*
X53007188Y-114941376D01*
X52843216Y-114873456D01*
X52695646Y-114774853D01*
X52570147Y-114649354D01*
X52471544Y-114501784D01*
X52403624Y-114337812D01*
X52369000Y-114163741D01*
X52369000Y-113986259D01*
X52403624Y-113812188D01*
X52471544Y-113648216D01*
X52570147Y-113500646D01*
X52695646Y-113375147D01*
X52843216Y-113276544D01*
X53007188Y-113208624D01*
X53156488Y-113178927D01*
X53181258Y-113174000D01*
X53358742Y-113174000D01*
X53383512Y-113178927D01*
G37*
G36*
X63543512Y-113178927D02*
G01*
X63692812Y-113208624D01*
X63856784Y-113276544D01*
X64004354Y-113375147D01*
X64129853Y-113500646D01*
X64228456Y-113648216D01*
X64296376Y-113812188D01*
X64331000Y-113986259D01*
X64331000Y-114163741D01*
X64296376Y-114337812D01*
X64228456Y-114501784D01*
X64129853Y-114649354D01*
X64004354Y-114774853D01*
X63856784Y-114873456D01*
X63692812Y-114941376D01*
X63543512Y-114971073D01*
X63518742Y-114976000D01*
X63341258Y-114976000D01*
X63316488Y-114971073D01*
X63167188Y-114941376D01*
X63003216Y-114873456D01*
X62855646Y-114774853D01*
X62730147Y-114649354D01*
X62631544Y-114501784D01*
X62563624Y-114337812D01*
X62529000Y-114163741D01*
X62529000Y-113986259D01*
X62563624Y-113812188D01*
X62631544Y-113648216D01*
X62730147Y-113500646D01*
X62855646Y-113375147D01*
X63003216Y-113276544D01*
X63167188Y-113208624D01*
X63316488Y-113178927D01*
X63341258Y-113174000D01*
X63518742Y-113174000D01*
X63543512Y-113178927D01*
G37*
G36*
X157613273Y-112481884D02*
G01*
X157745734Y-112508232D01*
X157955203Y-112594997D01*
X158143720Y-112720960D01*
X158304040Y-112881280D01*
X158430003Y-113069797D01*
X158515641Y-113276544D01*
X158516768Y-113279267D01*
X158558832Y-113490734D01*
X158561000Y-113501636D01*
X158561000Y-113728364D01*
X158516768Y-113950734D01*
X158430003Y-114160203D01*
X158304040Y-114348720D01*
X158143720Y-114509040D01*
X157955203Y-114635003D01*
X157745734Y-114721768D01*
X157634549Y-114743884D01*
X157523365Y-114766000D01*
X157296635Y-114766000D01*
X157185451Y-114743884D01*
X157074266Y-114721768D01*
X156864797Y-114635003D01*
X156676280Y-114509040D01*
X156515960Y-114348720D01*
X156389997Y-114160203D01*
X156303232Y-113950734D01*
X156259000Y-113728364D01*
X156259000Y-113501636D01*
X156261169Y-113490734D01*
X156303232Y-113279267D01*
X156304360Y-113276544D01*
X156389997Y-113069797D01*
X156515960Y-112881280D01*
X156676280Y-112720960D01*
X156864797Y-112594997D01*
X157074266Y-112508232D01*
X157206727Y-112481884D01*
X157296635Y-112464000D01*
X157523365Y-112464000D01*
X157613273Y-112481884D01*
G37*
G36*
X138563273Y-112481884D02*
G01*
X138695734Y-112508232D01*
X138905203Y-112594997D01*
X139093720Y-112720960D01*
X139254040Y-112881280D01*
X139380003Y-113069797D01*
X139465641Y-113276544D01*
X139466768Y-113279267D01*
X139508832Y-113490734D01*
X139511000Y-113501636D01*
X139511000Y-113728364D01*
X139466768Y-113950734D01*
X139380003Y-114160203D01*
X139254040Y-114348720D01*
X139093720Y-114509040D01*
X138905203Y-114635003D01*
X138695734Y-114721768D01*
X138584549Y-114743884D01*
X138473365Y-114766000D01*
X138246635Y-114766000D01*
X138135451Y-114743884D01*
X138024266Y-114721768D01*
X137814797Y-114635003D01*
X137626280Y-114509040D01*
X137465960Y-114348720D01*
X137339997Y-114160203D01*
X137253232Y-113950734D01*
X137209000Y-113728364D01*
X137209000Y-113501636D01*
X137211169Y-113490734D01*
X137253232Y-113279267D01*
X137254360Y-113276544D01*
X137339997Y-113069797D01*
X137465960Y-112881280D01*
X137626280Y-112720960D01*
X137814797Y-112594997D01*
X138024266Y-112508232D01*
X138156727Y-112481884D01*
X138246635Y-112464000D01*
X138473365Y-112464000D01*
X138563273Y-112481884D01*
G37*
G36*
X113173911Y-112024000D02*
G01*
X113295734Y-112048232D01*
X113505203Y-112134997D01*
X113693720Y-112260960D01*
X113854040Y-112421280D01*
X113980003Y-112609797D01*
X114066768Y-112819266D01*
X114081350Y-112892573D01*
X114111000Y-113041635D01*
X114111000Y-113268365D01*
X114108831Y-113279267D01*
X114066768Y-113490734D01*
X113980003Y-113700203D01*
X113854040Y-113888720D01*
X113693720Y-114049040D01*
X113505203Y-114175003D01*
X113295734Y-114261768D01*
X113219127Y-114277006D01*
X113073365Y-114306000D01*
X112846635Y-114306000D01*
X112700873Y-114277006D01*
X112624266Y-114261768D01*
X112414797Y-114175003D01*
X112226280Y-114049040D01*
X112065960Y-113888720D01*
X111939997Y-113700203D01*
X111853232Y-113490734D01*
X111811169Y-113279267D01*
X111809000Y-113268365D01*
X111809000Y-113041635D01*
X111838650Y-112892573D01*
X111853232Y-112819266D01*
X111939997Y-112609797D01*
X112065960Y-112421280D01*
X112226280Y-112260960D01*
X112414797Y-112134997D01*
X112624266Y-112048232D01*
X112746089Y-112024000D01*
X112846635Y-112004000D01*
X113073365Y-112004000D01*
X113173911Y-112024000D01*
G37*
G36*
X154198254Y-109102818D02*
G01*
X154571511Y-109257426D01*
X154571513Y-109257427D01*
X154907436Y-109481884D01*
X155193116Y-109767564D01*
X155276645Y-109892573D01*
X155417574Y-110103489D01*
X155572182Y-110476746D01*
X155651000Y-110872993D01*
X155651000Y-111277007D01*
X155572182Y-111673254D01*
X155426898Y-112024000D01*
X155417573Y-112046513D01*
X155193116Y-112382436D01*
X154907436Y-112668116D01*
X154571513Y-112892573D01*
X154571512Y-112892574D01*
X154571511Y-112892574D01*
X154198254Y-113047182D01*
X153802007Y-113126000D01*
X153397993Y-113126000D01*
X153001746Y-113047182D01*
X152628489Y-112892574D01*
X152628488Y-112892574D01*
X152628487Y-112892573D01*
X152292564Y-112668116D01*
X152006884Y-112382436D01*
X151782427Y-112046513D01*
X151773102Y-112024000D01*
X151627818Y-111673254D01*
X151549000Y-111277007D01*
X151549000Y-110872993D01*
X151627818Y-110476746D01*
X151782426Y-110103489D01*
X151923356Y-109892573D01*
X152006884Y-109767564D01*
X152292564Y-109481884D01*
X152628487Y-109257427D01*
X152628489Y-109257426D01*
X153001746Y-109102818D01*
X153397993Y-109024000D01*
X153802007Y-109024000D01*
X154198254Y-109102818D01*
G37*
G36*
X135148254Y-109102818D02*
G01*
X135521511Y-109257426D01*
X135521513Y-109257427D01*
X135857436Y-109481884D01*
X136143116Y-109767564D01*
X136226645Y-109892573D01*
X136367574Y-110103489D01*
X136522182Y-110476746D01*
X136601000Y-110872993D01*
X136601000Y-111277007D01*
X136522182Y-111673254D01*
X136376898Y-112024000D01*
X136367573Y-112046513D01*
X136143116Y-112382436D01*
X135857436Y-112668116D01*
X135521513Y-112892573D01*
X135521512Y-112892574D01*
X135521511Y-112892574D01*
X135148254Y-113047182D01*
X134752007Y-113126000D01*
X134347993Y-113126000D01*
X133951746Y-113047182D01*
X133578489Y-112892574D01*
X133578488Y-112892574D01*
X133578487Y-112892573D01*
X133242564Y-112668116D01*
X132956884Y-112382436D01*
X132732427Y-112046513D01*
X132723102Y-112024000D01*
X132577818Y-111673254D01*
X132499000Y-111277007D01*
X132499000Y-110872993D01*
X132577818Y-110476746D01*
X132732426Y-110103489D01*
X132873356Y-109892573D01*
X132956884Y-109767564D01*
X133242564Y-109481884D01*
X133578487Y-109257427D01*
X133578489Y-109257426D01*
X133951746Y-109102818D01*
X134347993Y-109024000D01*
X134752007Y-109024000D01*
X135148254Y-109102818D01*
G37*
G36*
X81387438Y-110476745D02*
G01*
X81545734Y-110508232D01*
X81755203Y-110594997D01*
X81943720Y-110720960D01*
X82104040Y-110881280D01*
X82230003Y-111069797D01*
X82316768Y-111279266D01*
X82361000Y-111501636D01*
X82361000Y-111728364D01*
X82316768Y-111950734D01*
X82230003Y-112160203D01*
X82104040Y-112348720D01*
X81943720Y-112509040D01*
X81755203Y-112635003D01*
X81545734Y-112721768D01*
X81434549Y-112743884D01*
X81323365Y-112766000D01*
X81096635Y-112766000D01*
X80985451Y-112743884D01*
X80874266Y-112721768D01*
X80664797Y-112635003D01*
X80476280Y-112509040D01*
X80315960Y-112348720D01*
X80189997Y-112160203D01*
X80103232Y-111950734D01*
X80059000Y-111728364D01*
X80059000Y-111501636D01*
X80103232Y-111279266D01*
X80189997Y-111069797D01*
X80315960Y-110881280D01*
X80476280Y-110720960D01*
X80664797Y-110594997D01*
X80874266Y-110508232D01*
X81032562Y-110476745D01*
X81096635Y-110464000D01*
X81323365Y-110464000D01*
X81387438Y-110476745D01*
G37*
G36*
X148633512Y-110178927D02*
G01*
X148782812Y-110208624D01*
X148946784Y-110276544D01*
X149094354Y-110375147D01*
X149219853Y-110500646D01*
X149318456Y-110648216D01*
X149386376Y-110812188D01*
X149421000Y-110986259D01*
X149421000Y-111163741D01*
X149386376Y-111337812D01*
X149318456Y-111501784D01*
X149219853Y-111649354D01*
X149094354Y-111774853D01*
X148946784Y-111873456D01*
X148782812Y-111941376D01*
X148633512Y-111971073D01*
X148608742Y-111976000D01*
X148431258Y-111976000D01*
X148406488Y-111971073D01*
X148257188Y-111941376D01*
X148093216Y-111873456D01*
X147945646Y-111774853D01*
X147820147Y-111649354D01*
X147721544Y-111501784D01*
X147653624Y-111337812D01*
X147619000Y-111163741D01*
X147619000Y-110986259D01*
X147653624Y-110812188D01*
X147721544Y-110648216D01*
X147820147Y-110500646D01*
X147945646Y-110375147D01*
X148093216Y-110276544D01*
X148257188Y-110208624D01*
X148406488Y-110178927D01*
X148431258Y-110174000D01*
X148608742Y-110174000D01*
X148633512Y-110178927D01*
G37*
G36*
X139743512Y-110178927D02*
G01*
X139892812Y-110208624D01*
X140056784Y-110276544D01*
X140204354Y-110375147D01*
X140329853Y-110500646D01*
X140428456Y-110648216D01*
X140496376Y-110812188D01*
X140531000Y-110986259D01*
X140531000Y-111163741D01*
X140496376Y-111337812D01*
X140428456Y-111501784D01*
X140329853Y-111649354D01*
X140204354Y-111774853D01*
X140056784Y-111873456D01*
X139892812Y-111941376D01*
X139743512Y-111971073D01*
X139718742Y-111976000D01*
X139541258Y-111976000D01*
X139516488Y-111971073D01*
X139367188Y-111941376D01*
X139203216Y-111873456D01*
X139055646Y-111774853D01*
X138930147Y-111649354D01*
X138831544Y-111501784D01*
X138763624Y-111337812D01*
X138729000Y-111163741D01*
X138729000Y-110986259D01*
X138763624Y-110812188D01*
X138831544Y-110648216D01*
X138930147Y-110500646D01*
X139055646Y-110375147D01*
X139203216Y-110276544D01*
X139367188Y-110208624D01*
X139516488Y-110178927D01*
X139541258Y-110174000D01*
X139718742Y-110174000D01*
X139743512Y-110178927D01*
G37*
G36*
X129583512Y-110178927D02*
G01*
X129732812Y-110208624D01*
X129896784Y-110276544D01*
X130044354Y-110375147D01*
X130169853Y-110500646D01*
X130268456Y-110648216D01*
X130336376Y-110812188D01*
X130371000Y-110986259D01*
X130371000Y-111163741D01*
X130336376Y-111337812D01*
X130268456Y-111501784D01*
X130169853Y-111649354D01*
X130044354Y-111774853D01*
X129896784Y-111873456D01*
X129732812Y-111941376D01*
X129583512Y-111971073D01*
X129558742Y-111976000D01*
X129381258Y-111976000D01*
X129356488Y-111971073D01*
X129207188Y-111941376D01*
X129043216Y-111873456D01*
X128895646Y-111774853D01*
X128770147Y-111649354D01*
X128671544Y-111501784D01*
X128603624Y-111337812D01*
X128569000Y-111163741D01*
X128569000Y-110986259D01*
X128603624Y-110812188D01*
X128671544Y-110648216D01*
X128770147Y-110500646D01*
X128895646Y-110375147D01*
X129043216Y-110276544D01*
X129207188Y-110208624D01*
X129356488Y-110178927D01*
X129381258Y-110174000D01*
X129558742Y-110174000D01*
X129583512Y-110178927D01*
G37*
G36*
X158793512Y-110178927D02*
G01*
X158942812Y-110208624D01*
X159106784Y-110276544D01*
X159254354Y-110375147D01*
X159379853Y-110500646D01*
X159478456Y-110648216D01*
X159546376Y-110812188D01*
X159581000Y-110986259D01*
X159581000Y-111163741D01*
X159546376Y-111337812D01*
X159478456Y-111501784D01*
X159379853Y-111649354D01*
X159254354Y-111774853D01*
X159106784Y-111873456D01*
X158942812Y-111941376D01*
X158793512Y-111971073D01*
X158768742Y-111976000D01*
X158591258Y-111976000D01*
X158566488Y-111971073D01*
X158417188Y-111941376D01*
X158253216Y-111873456D01*
X158105646Y-111774853D01*
X157980147Y-111649354D01*
X157881544Y-111501784D01*
X157813624Y-111337812D01*
X157779000Y-111163741D01*
X157779000Y-110986259D01*
X157813624Y-110812188D01*
X157881544Y-110648216D01*
X157980147Y-110500646D01*
X158105646Y-110375147D01*
X158253216Y-110276544D01*
X158417188Y-110208624D01*
X158566488Y-110178927D01*
X158591258Y-110174000D01*
X158768742Y-110174000D01*
X158793512Y-110178927D01*
G37*
G36*
X119513273Y-109481884D02*
G01*
X119645734Y-109508232D01*
X119855203Y-109594997D01*
X120043720Y-109720960D01*
X120204040Y-109881280D01*
X120330003Y-110069797D01*
X120416768Y-110279266D01*
X120461000Y-110501636D01*
X120461000Y-110728364D01*
X120416768Y-110950734D01*
X120330003Y-111160203D01*
X120204040Y-111348720D01*
X120043720Y-111509040D01*
X119855203Y-111635003D01*
X119645734Y-111721768D01*
X119534549Y-111743884D01*
X119423365Y-111766000D01*
X119196635Y-111766000D01*
X119085451Y-111743884D01*
X118974266Y-111721768D01*
X118764797Y-111635003D01*
X118576280Y-111509040D01*
X118415960Y-111348720D01*
X118289997Y-111160203D01*
X118203232Y-110950734D01*
X118159000Y-110728364D01*
X118159000Y-110501636D01*
X118203232Y-110279266D01*
X118289997Y-110069797D01*
X118415960Y-109881280D01*
X118576280Y-109720960D01*
X118764797Y-109594997D01*
X118974266Y-109508232D01*
X119106727Y-109481884D01*
X119196635Y-109464000D01*
X119423365Y-109464000D01*
X119513273Y-109481884D01*
G37*
G36*
X77998254Y-107102818D02*
G01*
X78371511Y-107257426D01*
X78371513Y-107257427D01*
X78707436Y-107481884D01*
X78993116Y-107767564D01*
X79176245Y-108041635D01*
X79217574Y-108103489D01*
X79372182Y-108476746D01*
X79451000Y-108872993D01*
X79451000Y-109277007D01*
X79372182Y-109673254D01*
X79217574Y-110046511D01*
X79217573Y-110046513D01*
X78993116Y-110382436D01*
X78707436Y-110668116D01*
X78371513Y-110892573D01*
X78371512Y-110892574D01*
X78371511Y-110892574D01*
X77998254Y-111047182D01*
X77602007Y-111126000D01*
X77197993Y-111126000D01*
X76801746Y-111047182D01*
X76428489Y-110892574D01*
X76428488Y-110892574D01*
X76428487Y-110892573D01*
X76092564Y-110668116D01*
X75806884Y-110382436D01*
X75582427Y-110046513D01*
X75582426Y-110046511D01*
X75427818Y-109673254D01*
X75349000Y-109277007D01*
X75349000Y-108872993D01*
X75427818Y-108476746D01*
X75582426Y-108103489D01*
X75623756Y-108041635D01*
X75806884Y-107767564D01*
X76092564Y-107481884D01*
X76428487Y-107257427D01*
X76428489Y-107257426D01*
X76801746Y-107102818D01*
X77197993Y-107024000D01*
X77602007Y-107024000D01*
X77998254Y-107102818D01*
G37*
G36*
X116098254Y-106102818D02*
G01*
X116471511Y-106257426D01*
X116471513Y-106257427D01*
X116807436Y-106481884D01*
X117093116Y-106767564D01*
X117317127Y-107102819D01*
X117317574Y-107103489D01*
X117472182Y-107476746D01*
X117551000Y-107872993D01*
X117551000Y-108277007D01*
X117472182Y-108673254D01*
X117342531Y-108986259D01*
X117317573Y-109046513D01*
X117093116Y-109382436D01*
X116807436Y-109668116D01*
X116471513Y-109892573D01*
X116471512Y-109892574D01*
X116471511Y-109892574D01*
X116098254Y-110047182D01*
X115702007Y-110126000D01*
X115297993Y-110126000D01*
X114901746Y-110047182D01*
X114528489Y-109892574D01*
X114528488Y-109892574D01*
X114528487Y-109892573D01*
X114192564Y-109668116D01*
X113906884Y-109382436D01*
X113682427Y-109046513D01*
X113657469Y-108986259D01*
X113527818Y-108673254D01*
X113449000Y-108277007D01*
X113449000Y-107872993D01*
X113527818Y-107476746D01*
X113682426Y-107103489D01*
X113682874Y-107102819D01*
X113906884Y-106767564D01*
X114192564Y-106481884D01*
X114528487Y-106257427D01*
X114528489Y-106257426D01*
X114901746Y-106102818D01*
X115297993Y-106024000D01*
X115702007Y-106024000D01*
X116098254Y-106102818D01*
G37*
G36*
X72433512Y-108178927D02*
G01*
X72582812Y-108208624D01*
X72746784Y-108276544D01*
X72894354Y-108375147D01*
X73019853Y-108500646D01*
X73118456Y-108648216D01*
X73186376Y-108812188D01*
X73212072Y-108941375D01*
X73218960Y-108976000D01*
X73221000Y-108986259D01*
X73221000Y-109163741D01*
X73186376Y-109337812D01*
X73118456Y-109501784D01*
X73019853Y-109649354D01*
X72894354Y-109774853D01*
X72746784Y-109873456D01*
X72582812Y-109941376D01*
X72433512Y-109971073D01*
X72408742Y-109976000D01*
X72231258Y-109976000D01*
X72206488Y-109971073D01*
X72057188Y-109941376D01*
X71893216Y-109873456D01*
X71745646Y-109774853D01*
X71620147Y-109649354D01*
X71521544Y-109501784D01*
X71453624Y-109337812D01*
X71419000Y-109163741D01*
X71419000Y-108986259D01*
X71421041Y-108976000D01*
X71427928Y-108941375D01*
X71453624Y-108812188D01*
X71521544Y-108648216D01*
X71620147Y-108500646D01*
X71745646Y-108375147D01*
X71893216Y-108276544D01*
X72057188Y-108208624D01*
X72206488Y-108178927D01*
X72231258Y-108174000D01*
X72408742Y-108174000D01*
X72433512Y-108178927D01*
G37*
G36*
X82593512Y-108178927D02*
G01*
X82742812Y-108208624D01*
X82906784Y-108276544D01*
X83054354Y-108375147D01*
X83179853Y-108500646D01*
X83278456Y-108648216D01*
X83346376Y-108812188D01*
X83372072Y-108941375D01*
X83378960Y-108976000D01*
X83381000Y-108986259D01*
X83381000Y-109163741D01*
X83346376Y-109337812D01*
X83278456Y-109501784D01*
X83179853Y-109649354D01*
X83054354Y-109774853D01*
X82906784Y-109873456D01*
X82742812Y-109941376D01*
X82593512Y-109971073D01*
X82568742Y-109976000D01*
X82391258Y-109976000D01*
X82366488Y-109971073D01*
X82217188Y-109941376D01*
X82053216Y-109873456D01*
X81905646Y-109774853D01*
X81780147Y-109649354D01*
X81681544Y-109501784D01*
X81613624Y-109337812D01*
X81579000Y-109163741D01*
X81579000Y-108986259D01*
X81581041Y-108976000D01*
X81587928Y-108941375D01*
X81613624Y-108812188D01*
X81681544Y-108648216D01*
X81780147Y-108500646D01*
X81905646Y-108375147D01*
X82053216Y-108276544D01*
X82217188Y-108208624D01*
X82366488Y-108178927D01*
X82391258Y-108174000D01*
X82568742Y-108174000D01*
X82593512Y-108178927D01*
G37*
G36*
X94123911Y-107024000D02*
G01*
X94245734Y-107048232D01*
X94455203Y-107134997D01*
X94643720Y-107260960D01*
X94804040Y-107421280D01*
X94930003Y-107609797D01*
X95016768Y-107819266D01*
X95061000Y-108041636D01*
X95061000Y-108268364D01*
X95016768Y-108490734D01*
X94930003Y-108700203D01*
X94804040Y-108888720D01*
X94643720Y-109049040D01*
X94455203Y-109175003D01*
X94245734Y-109261768D01*
X94169127Y-109277006D01*
X94023365Y-109306000D01*
X93796635Y-109306000D01*
X93650873Y-109277006D01*
X93574266Y-109261768D01*
X93364797Y-109175003D01*
X93176280Y-109049040D01*
X93015960Y-108888720D01*
X92889997Y-108700203D01*
X92803232Y-108490734D01*
X92759000Y-108268364D01*
X92759000Y-108041636D01*
X92803232Y-107819266D01*
X92889997Y-107609797D01*
X93015960Y-107421280D01*
X93176280Y-107260960D01*
X93364797Y-107134997D01*
X93574266Y-107048232D01*
X93696089Y-107024000D01*
X93796635Y-107004000D01*
X94023365Y-107004000D01*
X94123911Y-107024000D01*
G37*
G36*
X110533512Y-107178927D02*
G01*
X110682812Y-107208624D01*
X110846784Y-107276544D01*
X110994354Y-107375147D01*
X111119853Y-107500646D01*
X111218456Y-107648216D01*
X111286376Y-107812188D01*
X111316073Y-107961488D01*
X111321000Y-107986258D01*
X111321000Y-108163742D01*
X111316073Y-108188512D01*
X111286376Y-108337812D01*
X111218456Y-108501784D01*
X111119853Y-108649354D01*
X110994354Y-108774853D01*
X110846784Y-108873456D01*
X110682812Y-108941376D01*
X110533512Y-108971073D01*
X110508742Y-108976000D01*
X110331258Y-108976000D01*
X110306488Y-108971073D01*
X110157188Y-108941376D01*
X109993216Y-108873456D01*
X109845646Y-108774853D01*
X109720147Y-108649354D01*
X109621544Y-108501784D01*
X109553624Y-108337812D01*
X109523927Y-108188512D01*
X109519000Y-108163742D01*
X109519000Y-107986258D01*
X109523927Y-107961488D01*
X109553624Y-107812188D01*
X109621544Y-107648216D01*
X109720147Y-107500646D01*
X109845646Y-107375147D01*
X109993216Y-107276544D01*
X110157188Y-107208624D01*
X110306488Y-107178927D01*
X110331258Y-107174000D01*
X110508742Y-107174000D01*
X110533512Y-107178927D01*
G37*
G36*
X120693512Y-107178927D02*
G01*
X120842812Y-107208624D01*
X121006784Y-107276544D01*
X121154354Y-107375147D01*
X121279853Y-107500646D01*
X121378456Y-107648216D01*
X121446376Y-107812188D01*
X121476073Y-107961488D01*
X121481000Y-107986258D01*
X121481000Y-108163742D01*
X121476073Y-108188512D01*
X121446376Y-108337812D01*
X121378456Y-108501784D01*
X121279853Y-108649354D01*
X121154354Y-108774853D01*
X121006784Y-108873456D01*
X120842812Y-108941376D01*
X120693512Y-108971073D01*
X120668742Y-108976000D01*
X120491258Y-108976000D01*
X120466488Y-108971073D01*
X120317188Y-108941376D01*
X120153216Y-108873456D01*
X120005646Y-108774853D01*
X119880147Y-108649354D01*
X119781544Y-108501784D01*
X119713624Y-108337812D01*
X119683927Y-108188512D01*
X119679000Y-108163742D01*
X119679000Y-107986258D01*
X119683927Y-107961488D01*
X119713624Y-107812188D01*
X119781544Y-107648216D01*
X119880147Y-107500646D01*
X120005646Y-107375147D01*
X120153216Y-107276544D01*
X120317188Y-107208624D01*
X120466488Y-107178927D01*
X120491258Y-107174000D01*
X120668742Y-107174000D01*
X120693512Y-107178927D01*
G37*
G36*
X100484549Y-104486116D02*
G01*
X100595734Y-104508232D01*
X100805203Y-104594997D01*
X100993720Y-104720960D01*
X101154040Y-104881280D01*
X101280003Y-105069797D01*
X101366768Y-105279266D01*
X101411000Y-105501636D01*
X101411000Y-105728364D01*
X101366768Y-105950734D01*
X101280003Y-106160203D01*
X101154040Y-106348720D01*
X100993720Y-106509040D01*
X100805203Y-106635003D01*
X100595734Y-106721768D01*
X100484549Y-106743884D01*
X100373365Y-106766000D01*
X100146635Y-106766000D01*
X100035451Y-106743884D01*
X99924266Y-106721768D01*
X99714797Y-106635003D01*
X99526280Y-106509040D01*
X99365960Y-106348720D01*
X99239997Y-106160203D01*
X99153232Y-105950734D01*
X99109000Y-105728364D01*
X99109000Y-105501636D01*
X99153232Y-105279266D01*
X99239997Y-105069797D01*
X99365960Y-104881280D01*
X99526280Y-104720960D01*
X99714797Y-104594997D01*
X99924266Y-104508232D01*
X100035451Y-104486116D01*
X100146635Y-104464000D01*
X100373365Y-104464000D01*
X100484549Y-104486116D01*
G37*
G36*
X97048254Y-101102818D02*
G01*
X97418068Y-101256000D01*
X97421513Y-101257427D01*
X97757436Y-101481884D01*
X98043116Y-101767564D01*
X98267574Y-102103489D01*
X98422182Y-102476746D01*
X98501000Y-102872993D01*
X98501000Y-103277007D01*
X98422182Y-103673254D01*
X98267574Y-104046511D01*
X98267573Y-104046513D01*
X98043116Y-104382436D01*
X97757436Y-104668116D01*
X97421513Y-104892573D01*
X97421512Y-104892574D01*
X97421511Y-104892574D01*
X97048254Y-105047182D01*
X96652007Y-105126000D01*
X96247993Y-105126000D01*
X95851746Y-105047182D01*
X95478489Y-104892574D01*
X95478488Y-104892574D01*
X95478487Y-104892573D01*
X95142564Y-104668116D01*
X94856884Y-104382436D01*
X94632427Y-104046513D01*
X94632426Y-104046511D01*
X94477818Y-103673254D01*
X94399000Y-103277007D01*
X94399000Y-102872993D01*
X94477818Y-102476746D01*
X94632426Y-102103489D01*
X94856884Y-101767564D01*
X95142564Y-101481884D01*
X95478487Y-101257427D01*
X95481932Y-101256000D01*
X95851746Y-101102818D01*
X96247993Y-101024000D01*
X96652007Y-101024000D01*
X97048254Y-101102818D01*
G37*
G36*
X91483512Y-102178927D02*
G01*
X91632812Y-102208624D01*
X91796784Y-102276544D01*
X91944354Y-102375147D01*
X92069853Y-102500646D01*
X92168456Y-102648216D01*
X92236376Y-102812188D01*
X92271000Y-102986259D01*
X92271000Y-103163741D01*
X92236376Y-103337812D01*
X92168456Y-103501784D01*
X92069853Y-103649354D01*
X91944354Y-103774853D01*
X91796784Y-103873456D01*
X91632812Y-103941376D01*
X91483512Y-103971073D01*
X91458742Y-103976000D01*
X91281258Y-103976000D01*
X91256488Y-103971073D01*
X91107188Y-103941376D01*
X90943216Y-103873456D01*
X90795646Y-103774853D01*
X90670147Y-103649354D01*
X90571544Y-103501784D01*
X90503624Y-103337812D01*
X90469000Y-103163741D01*
X90469000Y-102986259D01*
X90503624Y-102812188D01*
X90571544Y-102648216D01*
X90670147Y-102500646D01*
X90795646Y-102375147D01*
X90943216Y-102276544D01*
X91107188Y-102208624D01*
X91256488Y-102178927D01*
X91281258Y-102174000D01*
X91458742Y-102174000D01*
X91483512Y-102178927D01*
G37*
G36*
X101643512Y-102178927D02*
G01*
X101792812Y-102208624D01*
X101956784Y-102276544D01*
X102104354Y-102375147D01*
X102229853Y-102500646D01*
X102328456Y-102648216D01*
X102396376Y-102812188D01*
X102431000Y-102986259D01*
X102431000Y-103163741D01*
X102396376Y-103337812D01*
X102328456Y-103501784D01*
X102229853Y-103649354D01*
X102104354Y-103774853D01*
X101956784Y-103873456D01*
X101792812Y-103941376D01*
X101643512Y-103971073D01*
X101618742Y-103976000D01*
X101441258Y-103976000D01*
X101416488Y-103971073D01*
X101267188Y-103941376D01*
X101103216Y-103873456D01*
X100955646Y-103774853D01*
X100830147Y-103649354D01*
X100731544Y-103501784D01*
X100663624Y-103337812D01*
X100629000Y-103163741D01*
X100629000Y-102986259D01*
X100663624Y-102812188D01*
X100731544Y-102648216D01*
X100830147Y-102500646D01*
X100955646Y-102375147D01*
X101103216Y-102276544D01*
X101267188Y-102208624D01*
X101416488Y-102178927D01*
X101441258Y-102174000D01*
X101618742Y-102174000D01*
X101643512Y-102178927D01*
G37*
G36*
X56034549Y-98976116D02*
G01*
X56145734Y-98998232D01*
X56355203Y-99084997D01*
X56543720Y-99210960D01*
X56704040Y-99371280D01*
X56830003Y-99559797D01*
X56916768Y-99769266D01*
X56961000Y-99991636D01*
X56961000Y-100218364D01*
X56916768Y-100440734D01*
X56830003Y-100650203D01*
X56704040Y-100838720D01*
X56543720Y-100999040D01*
X56355203Y-101125003D01*
X56145734Y-101211768D01*
X56034549Y-101233884D01*
X55923365Y-101256000D01*
X55696635Y-101256000D01*
X55585451Y-101233884D01*
X55474266Y-101211768D01*
X55264797Y-101125003D01*
X55076280Y-100999040D01*
X54915960Y-100838720D01*
X54789997Y-100650203D01*
X54703232Y-100440734D01*
X54659000Y-100218364D01*
X54659000Y-99991636D01*
X54703232Y-99769266D01*
X54789997Y-99559797D01*
X54915960Y-99371280D01*
X55076280Y-99210960D01*
X55264797Y-99084997D01*
X55474266Y-98998232D01*
X55585451Y-98976116D01*
X55696635Y-98954000D01*
X55923365Y-98954000D01*
X56034549Y-98976116D01*
G37*
G36*
X62384549Y-96436116D02*
G01*
X62495734Y-96458232D01*
X62705203Y-96544997D01*
X62893720Y-96670960D01*
X63054040Y-96831280D01*
X63180003Y-97019797D01*
X63262253Y-97218365D01*
X63266768Y-97229267D01*
X63308832Y-97440734D01*
X63311000Y-97451636D01*
X63311000Y-97678364D01*
X63266768Y-97900734D01*
X63180003Y-98110203D01*
X63054040Y-98298720D01*
X62893720Y-98459040D01*
X62705203Y-98585003D01*
X62495734Y-98671768D01*
X62384549Y-98693884D01*
X62273365Y-98716000D01*
X62046635Y-98716000D01*
X61935451Y-98693884D01*
X61824266Y-98671768D01*
X61614797Y-98585003D01*
X61426280Y-98459040D01*
X61265960Y-98298720D01*
X61139997Y-98110203D01*
X61053232Y-97900734D01*
X61009000Y-97678364D01*
X61009000Y-97451636D01*
X61011169Y-97440734D01*
X61053232Y-97229267D01*
X61057748Y-97218365D01*
X61139997Y-97019797D01*
X61265960Y-96831280D01*
X61426280Y-96670960D01*
X61614797Y-96544997D01*
X61824266Y-96458232D01*
X61935451Y-96436116D01*
X62046635Y-96414000D01*
X62273365Y-96414000D01*
X62384549Y-96436116D01*
G37*
G36*
X132234549Y-95976116D02*
G01*
X132345734Y-95998232D01*
X132555203Y-96084997D01*
X132743720Y-96210960D01*
X132904040Y-96371280D01*
X133030003Y-96559797D01*
X133116768Y-96769266D01*
X133131350Y-96842573D01*
X133161000Y-96991635D01*
X133161000Y-97218365D01*
X133158831Y-97229267D01*
X133116768Y-97440734D01*
X133030003Y-97650203D01*
X132904040Y-97838720D01*
X132743720Y-97999040D01*
X132555203Y-98125003D01*
X132345734Y-98211768D01*
X132234549Y-98233884D01*
X132123365Y-98256000D01*
X131896635Y-98256000D01*
X131785451Y-98233884D01*
X131674266Y-98211768D01*
X131464797Y-98125003D01*
X131276280Y-97999040D01*
X131115960Y-97838720D01*
X130989997Y-97650203D01*
X130903232Y-97440734D01*
X130861169Y-97229267D01*
X130859000Y-97218365D01*
X130859000Y-96991635D01*
X130888650Y-96842573D01*
X130903232Y-96769266D01*
X130989997Y-96559797D01*
X131115960Y-96371280D01*
X131276280Y-96210960D01*
X131464797Y-96084997D01*
X131674266Y-95998232D01*
X131785451Y-95976116D01*
X131896635Y-95954000D01*
X132123365Y-95954000D01*
X132234549Y-95976116D01*
G37*
G36*
X151284549Y-95976116D02*
G01*
X151395734Y-95998232D01*
X151605203Y-96084997D01*
X151793720Y-96210960D01*
X151954040Y-96371280D01*
X152080003Y-96559797D01*
X152166768Y-96769266D01*
X152181350Y-96842573D01*
X152211000Y-96991635D01*
X152211000Y-97218365D01*
X152208831Y-97229267D01*
X152166768Y-97440734D01*
X152080003Y-97650203D01*
X151954040Y-97838720D01*
X151793720Y-97999040D01*
X151605203Y-98125003D01*
X151395734Y-98211768D01*
X151284549Y-98233884D01*
X151173365Y-98256000D01*
X150946635Y-98256000D01*
X150835451Y-98233884D01*
X150724266Y-98211768D01*
X150514797Y-98125003D01*
X150326280Y-97999040D01*
X150165960Y-97838720D01*
X150039997Y-97650203D01*
X149953232Y-97440734D01*
X149911169Y-97229267D01*
X149909000Y-97218365D01*
X149909000Y-96991635D01*
X149938650Y-96842573D01*
X149953232Y-96769266D01*
X150039997Y-96559797D01*
X150165960Y-96371280D01*
X150326280Y-96210960D01*
X150514797Y-96084997D01*
X150724266Y-95998232D01*
X150835451Y-95976116D01*
X150946635Y-95954000D01*
X151173365Y-95954000D01*
X151284549Y-95976116D01*
G37*
G36*
X58948254Y-93052818D02*
G01*
X59321511Y-93207426D01*
X59321513Y-93207427D01*
X59657436Y-93431884D01*
X59943116Y-93717564D01*
X60130653Y-93998232D01*
X60167574Y-94053489D01*
X60322182Y-94426746D01*
X60401000Y-94822993D01*
X60401000Y-95227007D01*
X60322182Y-95623254D01*
X60167574Y-95996511D01*
X60167573Y-95996513D01*
X59943116Y-96332436D01*
X59657436Y-96618116D01*
X59321513Y-96842573D01*
X59321512Y-96842574D01*
X59321511Y-96842574D01*
X58948254Y-96997182D01*
X58552007Y-97076000D01*
X58147993Y-97076000D01*
X57751746Y-96997182D01*
X57378489Y-96842574D01*
X57378488Y-96842574D01*
X57378487Y-96842573D01*
X57042564Y-96618116D01*
X56756884Y-96332436D01*
X56532427Y-95996513D01*
X56532426Y-95996511D01*
X56377818Y-95623254D01*
X56299000Y-95227007D01*
X56299000Y-94822993D01*
X56377818Y-94426746D01*
X56532426Y-94053489D01*
X56569348Y-93998232D01*
X56756884Y-93717564D01*
X57042564Y-93431884D01*
X57378487Y-93207427D01*
X57378489Y-93207426D01*
X57751746Y-93052818D01*
X58147993Y-92974000D01*
X58552007Y-92974000D01*
X58948254Y-93052818D01*
G37*
G36*
X75084549Y-93976116D02*
G01*
X75195734Y-93998232D01*
X75247796Y-94019797D01*
X75383483Y-94076000D01*
X75405203Y-94084997D01*
X75593720Y-94210960D01*
X75754040Y-94371280D01*
X75880003Y-94559797D01*
X75963837Y-94762189D01*
X75966768Y-94769267D01*
X76011000Y-94991635D01*
X76011000Y-95218365D01*
X75995016Y-95298720D01*
X75966768Y-95440734D01*
X75880003Y-95650203D01*
X75754040Y-95838720D01*
X75593720Y-95999040D01*
X75405203Y-96125003D01*
X75195734Y-96211768D01*
X75084549Y-96233884D01*
X74973365Y-96256000D01*
X74746635Y-96256000D01*
X74635451Y-96233884D01*
X74524266Y-96211768D01*
X74314797Y-96125003D01*
X74126280Y-95999040D01*
X73965960Y-95838720D01*
X73839997Y-95650203D01*
X73753232Y-95440734D01*
X73724984Y-95298720D01*
X73709000Y-95218365D01*
X73709000Y-94991635D01*
X73753232Y-94769267D01*
X73756164Y-94762189D01*
X73839997Y-94559797D01*
X73965960Y-94371280D01*
X74126280Y-94210960D01*
X74314797Y-94084997D01*
X74336518Y-94076000D01*
X74472204Y-94019797D01*
X74524266Y-93998232D01*
X74635451Y-93976116D01*
X74746635Y-93954000D01*
X74973365Y-93954000D01*
X75084549Y-93976116D01*
G37*
G36*
X63543512Y-94128927D02*
G01*
X63692812Y-94158624D01*
X63856784Y-94226544D01*
X64004354Y-94325147D01*
X64129853Y-94450646D01*
X64228456Y-94598216D01*
X64296376Y-94762188D01*
X64331000Y-94936259D01*
X64331000Y-95113741D01*
X64296376Y-95287812D01*
X64228456Y-95451784D01*
X64129853Y-95599354D01*
X64004354Y-95724853D01*
X63856784Y-95823456D01*
X63692812Y-95891376D01*
X63543512Y-95921073D01*
X63518742Y-95926000D01*
X63341258Y-95926000D01*
X63316488Y-95921073D01*
X63167188Y-95891376D01*
X63003216Y-95823456D01*
X62855646Y-95724853D01*
X62730147Y-95599354D01*
X62631544Y-95451784D01*
X62563624Y-95287812D01*
X62529000Y-95113741D01*
X62529000Y-94936259D01*
X62563624Y-94762188D01*
X62631544Y-94598216D01*
X62730147Y-94450646D01*
X62855646Y-94325147D01*
X63003216Y-94226544D01*
X63167188Y-94158624D01*
X63316488Y-94128927D01*
X63341258Y-94124000D01*
X63518742Y-94124000D01*
X63543512Y-94128927D01*
G37*
G36*
X53383512Y-94128927D02*
G01*
X53532812Y-94158624D01*
X53696784Y-94226544D01*
X53844354Y-94325147D01*
X53969853Y-94450646D01*
X54068456Y-94598216D01*
X54136376Y-94762188D01*
X54171000Y-94936259D01*
X54171000Y-95113741D01*
X54136376Y-95287812D01*
X54068456Y-95451784D01*
X53969853Y-95599354D01*
X53844354Y-95724853D01*
X53696784Y-95823456D01*
X53532812Y-95891376D01*
X53383512Y-95921073D01*
X53358742Y-95926000D01*
X53181258Y-95926000D01*
X53156488Y-95921073D01*
X53007188Y-95891376D01*
X52843216Y-95823456D01*
X52695646Y-95724853D01*
X52570147Y-95599354D01*
X52471544Y-95451784D01*
X52403624Y-95287812D01*
X52369000Y-95113741D01*
X52369000Y-94936259D01*
X52403624Y-94762188D01*
X52471544Y-94598216D01*
X52570147Y-94450646D01*
X52695646Y-94325147D01*
X52843216Y-94226544D01*
X53007188Y-94158624D01*
X53156488Y-94128927D01*
X53181258Y-94124000D01*
X53358742Y-94124000D01*
X53383512Y-94128927D01*
G37*
G36*
X157613273Y-93431884D02*
G01*
X157745734Y-93458232D01*
X157955203Y-93544997D01*
X158143720Y-93670960D01*
X158304040Y-93831280D01*
X158430003Y-94019797D01*
X158515641Y-94226544D01*
X158516768Y-94229267D01*
X158558832Y-94440734D01*
X158561000Y-94451636D01*
X158561000Y-94678364D01*
X158516768Y-94900734D01*
X158430003Y-95110203D01*
X158304040Y-95298720D01*
X158143720Y-95459040D01*
X157955203Y-95585003D01*
X157745734Y-95671768D01*
X157634549Y-95693884D01*
X157523365Y-95716000D01*
X157296635Y-95716000D01*
X157185451Y-95693884D01*
X157074266Y-95671768D01*
X156864797Y-95585003D01*
X156676280Y-95459040D01*
X156515960Y-95298720D01*
X156389997Y-95110203D01*
X156303232Y-94900734D01*
X156259000Y-94678364D01*
X156259000Y-94451636D01*
X156261169Y-94440734D01*
X156303232Y-94229267D01*
X156304360Y-94226544D01*
X156389997Y-94019797D01*
X156515960Y-93831280D01*
X156676280Y-93670960D01*
X156864797Y-93544997D01*
X157074266Y-93458232D01*
X157206727Y-93431884D01*
X157296635Y-93414000D01*
X157523365Y-93414000D01*
X157613273Y-93431884D01*
G37*
G36*
X138563273Y-93431884D02*
G01*
X138695734Y-93458232D01*
X138905203Y-93544997D01*
X139093720Y-93670960D01*
X139254040Y-93831280D01*
X139380003Y-94019797D01*
X139465641Y-94226544D01*
X139466768Y-94229267D01*
X139508832Y-94440734D01*
X139511000Y-94451636D01*
X139511000Y-94678364D01*
X139466768Y-94900734D01*
X139380003Y-95110203D01*
X139254040Y-95298720D01*
X139093720Y-95459040D01*
X138905203Y-95585003D01*
X138695734Y-95671768D01*
X138584549Y-95693884D01*
X138473365Y-95716000D01*
X138246635Y-95716000D01*
X138135451Y-95693884D01*
X138024266Y-95671768D01*
X137814797Y-95585003D01*
X137626280Y-95459040D01*
X137465960Y-95298720D01*
X137339997Y-95110203D01*
X137253232Y-94900734D01*
X137209000Y-94678364D01*
X137209000Y-94451636D01*
X137211169Y-94440734D01*
X137253232Y-94229267D01*
X137254360Y-94226544D01*
X137339997Y-94019797D01*
X137465960Y-93831280D01*
X137626280Y-93670960D01*
X137814797Y-93544997D01*
X138024266Y-93458232D01*
X138156727Y-93431884D01*
X138246635Y-93414000D01*
X138473365Y-93414000D01*
X138563273Y-93431884D01*
G37*
G36*
X113173911Y-92974000D02*
G01*
X113295734Y-92998232D01*
X113505203Y-93084997D01*
X113693720Y-93210960D01*
X113854040Y-93371280D01*
X113980003Y-93559797D01*
X114066768Y-93769266D01*
X114081350Y-93842573D01*
X114111000Y-93991635D01*
X114111000Y-94218365D01*
X114108831Y-94229267D01*
X114066768Y-94440734D01*
X113980003Y-94650203D01*
X113854040Y-94838720D01*
X113693720Y-94999040D01*
X113505203Y-95125003D01*
X113295734Y-95211768D01*
X113219127Y-95227006D01*
X113073365Y-95256000D01*
X112846635Y-95256000D01*
X112700873Y-95227006D01*
X112624266Y-95211768D01*
X112414797Y-95125003D01*
X112226280Y-94999040D01*
X112065960Y-94838720D01*
X111939997Y-94650203D01*
X111853232Y-94440734D01*
X111811169Y-94229267D01*
X111809000Y-94218365D01*
X111809000Y-93991635D01*
X111838650Y-93842573D01*
X111853232Y-93769266D01*
X111939997Y-93559797D01*
X112065960Y-93371280D01*
X112226280Y-93210960D01*
X112414797Y-93084997D01*
X112624266Y-92998232D01*
X112746089Y-92974000D01*
X112846635Y-92954000D01*
X113073365Y-92954000D01*
X113173911Y-92974000D01*
G37*
G36*
X154198254Y-90052818D02*
G01*
X154571511Y-90207426D01*
X154571513Y-90207427D01*
X154907436Y-90431884D01*
X155193116Y-90717564D01*
X155276645Y-90842573D01*
X155417574Y-91053489D01*
X155572182Y-91426746D01*
X155651000Y-91822993D01*
X155651000Y-92227007D01*
X155572182Y-92623254D01*
X155426898Y-92974000D01*
X155417573Y-92996513D01*
X155193116Y-93332436D01*
X154907436Y-93618116D01*
X154571513Y-93842573D01*
X154571512Y-93842574D01*
X154571511Y-93842574D01*
X154198254Y-93997182D01*
X153802007Y-94076000D01*
X153397993Y-94076000D01*
X153001746Y-93997182D01*
X152628489Y-93842574D01*
X152628488Y-93842574D01*
X152628487Y-93842573D01*
X152292564Y-93618116D01*
X152006884Y-93332436D01*
X151782427Y-92996513D01*
X151773102Y-92974000D01*
X151627818Y-92623254D01*
X151549000Y-92227007D01*
X151549000Y-91822993D01*
X151627818Y-91426746D01*
X151782426Y-91053489D01*
X151923356Y-90842573D01*
X152006884Y-90717564D01*
X152292564Y-90431884D01*
X152628487Y-90207427D01*
X152628489Y-90207426D01*
X153001746Y-90052818D01*
X153397993Y-89974000D01*
X153802007Y-89974000D01*
X154198254Y-90052818D01*
G37*
G36*
X135148254Y-90052818D02*
G01*
X135521511Y-90207426D01*
X135521513Y-90207427D01*
X135857436Y-90431884D01*
X136143116Y-90717564D01*
X136226645Y-90842573D01*
X136367574Y-91053489D01*
X136522182Y-91426746D01*
X136601000Y-91822993D01*
X136601000Y-92227007D01*
X136522182Y-92623254D01*
X136376898Y-92974000D01*
X136367573Y-92996513D01*
X136143116Y-93332436D01*
X135857436Y-93618116D01*
X135521513Y-93842573D01*
X135521512Y-93842574D01*
X135521511Y-93842574D01*
X135148254Y-93997182D01*
X134752007Y-94076000D01*
X134347993Y-94076000D01*
X133951746Y-93997182D01*
X133578489Y-93842574D01*
X133578488Y-93842574D01*
X133578487Y-93842573D01*
X133242564Y-93618116D01*
X132956884Y-93332436D01*
X132732427Y-92996513D01*
X132723102Y-92974000D01*
X132577818Y-92623254D01*
X132499000Y-92227007D01*
X132499000Y-91822993D01*
X132577818Y-91426746D01*
X132732426Y-91053489D01*
X132873356Y-90842573D01*
X132956884Y-90717564D01*
X133242564Y-90431884D01*
X133578487Y-90207427D01*
X133578489Y-90207426D01*
X133951746Y-90052818D01*
X134347993Y-89974000D01*
X134752007Y-89974000D01*
X135148254Y-90052818D01*
G37*
G36*
X81387438Y-91426745D02*
G01*
X81545734Y-91458232D01*
X81755203Y-91544997D01*
X81943720Y-91670960D01*
X82104040Y-91831280D01*
X82230003Y-92019797D01*
X82316768Y-92229266D01*
X82361000Y-92451636D01*
X82361000Y-92678364D01*
X82316768Y-92900734D01*
X82230003Y-93110203D01*
X82104040Y-93298720D01*
X81943720Y-93459040D01*
X81755203Y-93585003D01*
X81545734Y-93671768D01*
X81434549Y-93693884D01*
X81323365Y-93716000D01*
X81096635Y-93716000D01*
X80985451Y-93693884D01*
X80874266Y-93671768D01*
X80664797Y-93585003D01*
X80476280Y-93459040D01*
X80315960Y-93298720D01*
X80189997Y-93110203D01*
X80103232Y-92900734D01*
X80059000Y-92678364D01*
X80059000Y-92451636D01*
X80103232Y-92229266D01*
X80189997Y-92019797D01*
X80315960Y-91831280D01*
X80476280Y-91670960D01*
X80664797Y-91544997D01*
X80874266Y-91458232D01*
X81032562Y-91426745D01*
X81096635Y-91414000D01*
X81323365Y-91414000D01*
X81387438Y-91426745D01*
G37*
G36*
X148633512Y-91128927D02*
G01*
X148782812Y-91158624D01*
X148946784Y-91226544D01*
X149094354Y-91325147D01*
X149219853Y-91450646D01*
X149318456Y-91598216D01*
X149386376Y-91762188D01*
X149421000Y-91936259D01*
X149421000Y-92113741D01*
X149386376Y-92287812D01*
X149318456Y-92451784D01*
X149219853Y-92599354D01*
X149094354Y-92724853D01*
X148946784Y-92823456D01*
X148782812Y-92891376D01*
X148633512Y-92921073D01*
X148608742Y-92926000D01*
X148431258Y-92926000D01*
X148406488Y-92921073D01*
X148257188Y-92891376D01*
X148093216Y-92823456D01*
X147945646Y-92724853D01*
X147820147Y-92599354D01*
X147721544Y-92451784D01*
X147653624Y-92287812D01*
X147619000Y-92113741D01*
X147619000Y-91936259D01*
X147653624Y-91762188D01*
X147721544Y-91598216D01*
X147820147Y-91450646D01*
X147945646Y-91325147D01*
X148093216Y-91226544D01*
X148257188Y-91158624D01*
X148406488Y-91128927D01*
X148431258Y-91124000D01*
X148608742Y-91124000D01*
X148633512Y-91128927D01*
G37*
G36*
X129583512Y-91128927D02*
G01*
X129732812Y-91158624D01*
X129896784Y-91226544D01*
X130044354Y-91325147D01*
X130169853Y-91450646D01*
X130268456Y-91598216D01*
X130336376Y-91762188D01*
X130371000Y-91936259D01*
X130371000Y-92113741D01*
X130336376Y-92287812D01*
X130268456Y-92451784D01*
X130169853Y-92599354D01*
X130044354Y-92724853D01*
X129896784Y-92823456D01*
X129732812Y-92891376D01*
X129583512Y-92921073D01*
X129558742Y-92926000D01*
X129381258Y-92926000D01*
X129356488Y-92921073D01*
X129207188Y-92891376D01*
X129043216Y-92823456D01*
X128895646Y-92724853D01*
X128770147Y-92599354D01*
X128671544Y-92451784D01*
X128603624Y-92287812D01*
X128569000Y-92113741D01*
X128569000Y-91936259D01*
X128603624Y-91762188D01*
X128671544Y-91598216D01*
X128770147Y-91450646D01*
X128895646Y-91325147D01*
X129043216Y-91226544D01*
X129207188Y-91158624D01*
X129356488Y-91128927D01*
X129381258Y-91124000D01*
X129558742Y-91124000D01*
X129583512Y-91128927D01*
G37*
G36*
X158793512Y-91128927D02*
G01*
X158942812Y-91158624D01*
X159106784Y-91226544D01*
X159254354Y-91325147D01*
X159379853Y-91450646D01*
X159478456Y-91598216D01*
X159546376Y-91762188D01*
X159581000Y-91936259D01*
X159581000Y-92113741D01*
X159546376Y-92287812D01*
X159478456Y-92451784D01*
X159379853Y-92599354D01*
X159254354Y-92724853D01*
X159106784Y-92823456D01*
X158942812Y-92891376D01*
X158793512Y-92921073D01*
X158768742Y-92926000D01*
X158591258Y-92926000D01*
X158566488Y-92921073D01*
X158417188Y-92891376D01*
X158253216Y-92823456D01*
X158105646Y-92724853D01*
X157980147Y-92599354D01*
X157881544Y-92451784D01*
X157813624Y-92287812D01*
X157779000Y-92113741D01*
X157779000Y-91936259D01*
X157813624Y-91762188D01*
X157881544Y-91598216D01*
X157980147Y-91450646D01*
X158105646Y-91325147D01*
X158253216Y-91226544D01*
X158417188Y-91158624D01*
X158566488Y-91128927D01*
X158591258Y-91124000D01*
X158768742Y-91124000D01*
X158793512Y-91128927D01*
G37*
G36*
X139743512Y-91128927D02*
G01*
X139892812Y-91158624D01*
X140056784Y-91226544D01*
X140204354Y-91325147D01*
X140329853Y-91450646D01*
X140428456Y-91598216D01*
X140496376Y-91762188D01*
X140531000Y-91936259D01*
X140531000Y-92113741D01*
X140496376Y-92287812D01*
X140428456Y-92451784D01*
X140329853Y-92599354D01*
X140204354Y-92724853D01*
X140056784Y-92823456D01*
X139892812Y-92891376D01*
X139743512Y-92921073D01*
X139718742Y-92926000D01*
X139541258Y-92926000D01*
X139516488Y-92921073D01*
X139367188Y-92891376D01*
X139203216Y-92823456D01*
X139055646Y-92724853D01*
X138930147Y-92599354D01*
X138831544Y-92451784D01*
X138763624Y-92287812D01*
X138729000Y-92113741D01*
X138729000Y-91936259D01*
X138763624Y-91762188D01*
X138831544Y-91598216D01*
X138930147Y-91450646D01*
X139055646Y-91325147D01*
X139203216Y-91226544D01*
X139367188Y-91158624D01*
X139516488Y-91128927D01*
X139541258Y-91124000D01*
X139718742Y-91124000D01*
X139743512Y-91128927D01*
G37*
G36*
X119513273Y-90431884D02*
G01*
X119645734Y-90458232D01*
X119855203Y-90544997D01*
X120043720Y-90670960D01*
X120204040Y-90831280D01*
X120330003Y-91019797D01*
X120416768Y-91229266D01*
X120461000Y-91451636D01*
X120461000Y-91678364D01*
X120416768Y-91900734D01*
X120330003Y-92110203D01*
X120204040Y-92298720D01*
X120043720Y-92459040D01*
X119855203Y-92585003D01*
X119645734Y-92671768D01*
X119534549Y-92693884D01*
X119423365Y-92716000D01*
X119196635Y-92716000D01*
X119085451Y-92693884D01*
X118974266Y-92671768D01*
X118764797Y-92585003D01*
X118576280Y-92459040D01*
X118415960Y-92298720D01*
X118289997Y-92110203D01*
X118203232Y-91900734D01*
X118159000Y-91678364D01*
X118159000Y-91451636D01*
X118203232Y-91229266D01*
X118289997Y-91019797D01*
X118415960Y-90831280D01*
X118576280Y-90670960D01*
X118764797Y-90544997D01*
X118974266Y-90458232D01*
X119106727Y-90431884D01*
X119196635Y-90414000D01*
X119423365Y-90414000D01*
X119513273Y-90431884D01*
G37*
G36*
X77998254Y-88052818D02*
G01*
X78371511Y-88207426D01*
X78371513Y-88207427D01*
X78707436Y-88431884D01*
X78993116Y-88717564D01*
X79176245Y-88991635D01*
X79217574Y-89053489D01*
X79372182Y-89426746D01*
X79451000Y-89822993D01*
X79451000Y-90227007D01*
X79372182Y-90623254D01*
X79217574Y-90996511D01*
X79217573Y-90996513D01*
X78993116Y-91332436D01*
X78707436Y-91618116D01*
X78371513Y-91842573D01*
X78371512Y-91842574D01*
X78371511Y-91842574D01*
X77998254Y-91997182D01*
X77602007Y-92076000D01*
X77197993Y-92076000D01*
X76801746Y-91997182D01*
X76428489Y-91842574D01*
X76428488Y-91842574D01*
X76428487Y-91842573D01*
X76092564Y-91618116D01*
X75806884Y-91332436D01*
X75582427Y-90996513D01*
X75582426Y-90996511D01*
X75427818Y-90623254D01*
X75349000Y-90227007D01*
X75349000Y-89822993D01*
X75427818Y-89426746D01*
X75582426Y-89053489D01*
X75623756Y-88991635D01*
X75806884Y-88717564D01*
X76092564Y-88431884D01*
X76428487Y-88207427D01*
X76428489Y-88207426D01*
X76801746Y-88052818D01*
X77197993Y-87974000D01*
X77602007Y-87974000D01*
X77998254Y-88052818D01*
G37*
G36*
X116098254Y-87052818D02*
G01*
X116471511Y-87207426D01*
X116471513Y-87207427D01*
X116807436Y-87431884D01*
X117093116Y-87717564D01*
X117317127Y-88052819D01*
X117317574Y-88053489D01*
X117472182Y-88426746D01*
X117551000Y-88822993D01*
X117551000Y-89227007D01*
X117472182Y-89623254D01*
X117342531Y-89936259D01*
X117317573Y-89996513D01*
X117093116Y-90332436D01*
X116807436Y-90618116D01*
X116471513Y-90842573D01*
X116471512Y-90842574D01*
X116471511Y-90842574D01*
X116098254Y-90997182D01*
X115702007Y-91076000D01*
X115297993Y-91076000D01*
X114901746Y-90997182D01*
X114528489Y-90842574D01*
X114528488Y-90842574D01*
X114528487Y-90842573D01*
X114192564Y-90618116D01*
X113906884Y-90332436D01*
X113682427Y-89996513D01*
X113657469Y-89936259D01*
X113527818Y-89623254D01*
X113449000Y-89227007D01*
X113449000Y-88822993D01*
X113527818Y-88426746D01*
X113682426Y-88053489D01*
X113682874Y-88052819D01*
X113906884Y-87717564D01*
X114192564Y-87431884D01*
X114528487Y-87207427D01*
X114528489Y-87207426D01*
X114901746Y-87052818D01*
X115297993Y-86974000D01*
X115702007Y-86974000D01*
X116098254Y-87052818D01*
G37*
G36*
X82593512Y-89128927D02*
G01*
X82742812Y-89158624D01*
X82906784Y-89226544D01*
X83054354Y-89325147D01*
X83179853Y-89450646D01*
X83278456Y-89598216D01*
X83346376Y-89762188D01*
X83372072Y-89891375D01*
X83378960Y-89926000D01*
X83381000Y-89936259D01*
X83381000Y-90113741D01*
X83346376Y-90287812D01*
X83278456Y-90451784D01*
X83179853Y-90599354D01*
X83054354Y-90724853D01*
X82906784Y-90823456D01*
X82742812Y-90891376D01*
X82593512Y-90921073D01*
X82568742Y-90926000D01*
X82391258Y-90926000D01*
X82366488Y-90921073D01*
X82217188Y-90891376D01*
X82053216Y-90823456D01*
X81905646Y-90724853D01*
X81780147Y-90599354D01*
X81681544Y-90451784D01*
X81613624Y-90287812D01*
X81579000Y-90113741D01*
X81579000Y-89936259D01*
X81581041Y-89926000D01*
X81587928Y-89891375D01*
X81613624Y-89762188D01*
X81681544Y-89598216D01*
X81780147Y-89450646D01*
X81905646Y-89325147D01*
X82053216Y-89226544D01*
X82217188Y-89158624D01*
X82366488Y-89128927D01*
X82391258Y-89124000D01*
X82568742Y-89124000D01*
X82593512Y-89128927D01*
G37*
G36*
X72433512Y-89128927D02*
G01*
X72582812Y-89158624D01*
X72746784Y-89226544D01*
X72894354Y-89325147D01*
X73019853Y-89450646D01*
X73118456Y-89598216D01*
X73186376Y-89762188D01*
X73212072Y-89891375D01*
X73218960Y-89926000D01*
X73221000Y-89936259D01*
X73221000Y-90113741D01*
X73186376Y-90287812D01*
X73118456Y-90451784D01*
X73019853Y-90599354D01*
X72894354Y-90724853D01*
X72746784Y-90823456D01*
X72582812Y-90891376D01*
X72433512Y-90921073D01*
X72408742Y-90926000D01*
X72231258Y-90926000D01*
X72206488Y-90921073D01*
X72057188Y-90891376D01*
X71893216Y-90823456D01*
X71745646Y-90724853D01*
X71620147Y-90599354D01*
X71521544Y-90451784D01*
X71453624Y-90287812D01*
X71419000Y-90113741D01*
X71419000Y-89936259D01*
X71421041Y-89926000D01*
X71427928Y-89891375D01*
X71453624Y-89762188D01*
X71521544Y-89598216D01*
X71620147Y-89450646D01*
X71745646Y-89325147D01*
X71893216Y-89226544D01*
X72057188Y-89158624D01*
X72206488Y-89128927D01*
X72231258Y-89124000D01*
X72408742Y-89124000D01*
X72433512Y-89128927D01*
G37*
G36*
X94123911Y-87974000D02*
G01*
X94245734Y-87998232D01*
X94455203Y-88084997D01*
X94643720Y-88210960D01*
X94804040Y-88371280D01*
X94930003Y-88559797D01*
X95016768Y-88769266D01*
X95061000Y-88991636D01*
X95061000Y-89218364D01*
X95016768Y-89440734D01*
X94930003Y-89650203D01*
X94804040Y-89838720D01*
X94643720Y-89999040D01*
X94455203Y-90125003D01*
X94245734Y-90211768D01*
X94169127Y-90227006D01*
X94023365Y-90256000D01*
X93796635Y-90256000D01*
X93650873Y-90227006D01*
X93574266Y-90211768D01*
X93364797Y-90125003D01*
X93176280Y-89999040D01*
X93015960Y-89838720D01*
X92889997Y-89650203D01*
X92803232Y-89440734D01*
X92759000Y-89218364D01*
X92759000Y-88991636D01*
X92803232Y-88769266D01*
X92889997Y-88559797D01*
X93015960Y-88371280D01*
X93176280Y-88210960D01*
X93364797Y-88084997D01*
X93574266Y-87998232D01*
X93696089Y-87974000D01*
X93796635Y-87954000D01*
X94023365Y-87954000D01*
X94123911Y-87974000D01*
G37*
G36*
X120693512Y-88128927D02*
G01*
X120842812Y-88158624D01*
X121006784Y-88226544D01*
X121154354Y-88325147D01*
X121279853Y-88450646D01*
X121378456Y-88598216D01*
X121446376Y-88762188D01*
X121476073Y-88911488D01*
X121481000Y-88936258D01*
X121481000Y-89113742D01*
X121476073Y-89138512D01*
X121446376Y-89287812D01*
X121378456Y-89451784D01*
X121279853Y-89599354D01*
X121154354Y-89724853D01*
X121006784Y-89823456D01*
X120842812Y-89891376D01*
X120693512Y-89921073D01*
X120668742Y-89926000D01*
X120491258Y-89926000D01*
X120466488Y-89921073D01*
X120317188Y-89891376D01*
X120153216Y-89823456D01*
X120005646Y-89724853D01*
X119880147Y-89599354D01*
X119781544Y-89451784D01*
X119713624Y-89287812D01*
X119683927Y-89138512D01*
X119679000Y-89113742D01*
X119679000Y-88936258D01*
X119683927Y-88911488D01*
X119713624Y-88762188D01*
X119781544Y-88598216D01*
X119880147Y-88450646D01*
X120005646Y-88325147D01*
X120153216Y-88226544D01*
X120317188Y-88158624D01*
X120466488Y-88128927D01*
X120491258Y-88124000D01*
X120668742Y-88124000D01*
X120693512Y-88128927D01*
G37*
G36*
X110533512Y-88128927D02*
G01*
X110682812Y-88158624D01*
X110846784Y-88226544D01*
X110994354Y-88325147D01*
X111119853Y-88450646D01*
X111218456Y-88598216D01*
X111286376Y-88762188D01*
X111316073Y-88911488D01*
X111321000Y-88936258D01*
X111321000Y-89113742D01*
X111316073Y-89138512D01*
X111286376Y-89287812D01*
X111218456Y-89451784D01*
X111119853Y-89599354D01*
X110994354Y-89724853D01*
X110846784Y-89823456D01*
X110682812Y-89891376D01*
X110533512Y-89921073D01*
X110508742Y-89926000D01*
X110331258Y-89926000D01*
X110306488Y-89921073D01*
X110157188Y-89891376D01*
X109993216Y-89823456D01*
X109845646Y-89724853D01*
X109720147Y-89599354D01*
X109621544Y-89451784D01*
X109553624Y-89287812D01*
X109523927Y-89138512D01*
X109519000Y-89113742D01*
X109519000Y-88936258D01*
X109523927Y-88911488D01*
X109553624Y-88762188D01*
X109621544Y-88598216D01*
X109720147Y-88450646D01*
X109845646Y-88325147D01*
X109993216Y-88226544D01*
X110157188Y-88158624D01*
X110306488Y-88128927D01*
X110331258Y-88124000D01*
X110508742Y-88124000D01*
X110533512Y-88128927D01*
G37*
G36*
X100484549Y-85436116D02*
G01*
X100595734Y-85458232D01*
X100805203Y-85544997D01*
X100993720Y-85670960D01*
X101154040Y-85831280D01*
X101280003Y-86019797D01*
X101366768Y-86229266D01*
X101411000Y-86451636D01*
X101411000Y-86678364D01*
X101366768Y-86900734D01*
X101280003Y-87110203D01*
X101154040Y-87298720D01*
X100993720Y-87459040D01*
X100805203Y-87585003D01*
X100595734Y-87671768D01*
X100484549Y-87693884D01*
X100373365Y-87716000D01*
X100146635Y-87716000D01*
X100035451Y-87693884D01*
X99924266Y-87671768D01*
X99714797Y-87585003D01*
X99526280Y-87459040D01*
X99365960Y-87298720D01*
X99239997Y-87110203D01*
X99153232Y-86900734D01*
X99109000Y-86678364D01*
X99109000Y-86451636D01*
X99153232Y-86229266D01*
X99239997Y-86019797D01*
X99365960Y-85831280D01*
X99526280Y-85670960D01*
X99714797Y-85544997D01*
X99924266Y-85458232D01*
X100035451Y-85436116D01*
X100146635Y-85414000D01*
X100373365Y-85414000D01*
X100484549Y-85436116D01*
G37*
G36*
X97048254Y-82052818D02*
G01*
X97418068Y-82206000D01*
X97421513Y-82207427D01*
X97757436Y-82431884D01*
X98043116Y-82717564D01*
X98267574Y-83053489D01*
X98422182Y-83426746D01*
X98501000Y-83822993D01*
X98501000Y-84227007D01*
X98422182Y-84623254D01*
X98267574Y-84996511D01*
X98267573Y-84996513D01*
X98043116Y-85332436D01*
X97757436Y-85618116D01*
X97421513Y-85842573D01*
X97421512Y-85842574D01*
X97421511Y-85842574D01*
X97048254Y-85997182D01*
X96652007Y-86076000D01*
X96247993Y-86076000D01*
X95851746Y-85997182D01*
X95478489Y-85842574D01*
X95478488Y-85842574D01*
X95478487Y-85842573D01*
X95142564Y-85618116D01*
X94856884Y-85332436D01*
X94632427Y-84996513D01*
X94632426Y-84996511D01*
X94477818Y-84623254D01*
X94399000Y-84227007D01*
X94399000Y-83822993D01*
X94477818Y-83426746D01*
X94632426Y-83053489D01*
X94856884Y-82717564D01*
X95142564Y-82431884D01*
X95478487Y-82207427D01*
X95481932Y-82206000D01*
X95851746Y-82052818D01*
X96247993Y-81974000D01*
X96652007Y-81974000D01*
X97048254Y-82052818D01*
G37*
G36*
X91483512Y-83128927D02*
G01*
X91632812Y-83158624D01*
X91796784Y-83226544D01*
X91944354Y-83325147D01*
X92069853Y-83450646D01*
X92168456Y-83598216D01*
X92236376Y-83762188D01*
X92271000Y-83936259D01*
X92271000Y-84113741D01*
X92236376Y-84287812D01*
X92168456Y-84451784D01*
X92069853Y-84599354D01*
X91944354Y-84724853D01*
X91796784Y-84823456D01*
X91632812Y-84891376D01*
X91483512Y-84921073D01*
X91458742Y-84926000D01*
X91281258Y-84926000D01*
X91256488Y-84921073D01*
X91107188Y-84891376D01*
X90943216Y-84823456D01*
X90795646Y-84724853D01*
X90670147Y-84599354D01*
X90571544Y-84451784D01*
X90503624Y-84287812D01*
X90469000Y-84113741D01*
X90469000Y-83936259D01*
X90503624Y-83762188D01*
X90571544Y-83598216D01*
X90670147Y-83450646D01*
X90795646Y-83325147D01*
X90943216Y-83226544D01*
X91107188Y-83158624D01*
X91256488Y-83128927D01*
X91281258Y-83124000D01*
X91458742Y-83124000D01*
X91483512Y-83128927D01*
G37*
G36*
X101643512Y-83128927D02*
G01*
X101792812Y-83158624D01*
X101956784Y-83226544D01*
X102104354Y-83325147D01*
X102229853Y-83450646D01*
X102328456Y-83598216D01*
X102396376Y-83762188D01*
X102431000Y-83936259D01*
X102431000Y-84113741D01*
X102396376Y-84287812D01*
X102328456Y-84451784D01*
X102229853Y-84599354D01*
X102104354Y-84724853D01*
X101956784Y-84823456D01*
X101792812Y-84891376D01*
X101643512Y-84921073D01*
X101618742Y-84926000D01*
X101441258Y-84926000D01*
X101416488Y-84921073D01*
X101267188Y-84891376D01*
X101103216Y-84823456D01*
X100955646Y-84724853D01*
X100830147Y-84599354D01*
X100731544Y-84451784D01*
X100663624Y-84287812D01*
X100629000Y-84113741D01*
X100629000Y-83936259D01*
X100663624Y-83762188D01*
X100731544Y-83598216D01*
X100830147Y-83450646D01*
X100955646Y-83325147D01*
X101103216Y-83226544D01*
X101267188Y-83158624D01*
X101416488Y-83128927D01*
X101441258Y-83124000D01*
X101618742Y-83124000D01*
X101643512Y-83128927D01*
G37*
G36*
X56034549Y-79926116D02*
G01*
X56145734Y-79948232D01*
X56355203Y-80034997D01*
X56543720Y-80160960D01*
X56704040Y-80321280D01*
X56830003Y-80509797D01*
X56916768Y-80719266D01*
X56961000Y-80941636D01*
X56961000Y-81168364D01*
X56916768Y-81390734D01*
X56830003Y-81600203D01*
X56704040Y-81788720D01*
X56543720Y-81949040D01*
X56355203Y-82075003D01*
X56145734Y-82161768D01*
X56034549Y-82183884D01*
X55923365Y-82206000D01*
X55696635Y-82206000D01*
X55585451Y-82183884D01*
X55474266Y-82161768D01*
X55264797Y-82075003D01*
X55076280Y-81949040D01*
X54915960Y-81788720D01*
X54789997Y-81600203D01*
X54703232Y-81390734D01*
X54659000Y-81168364D01*
X54659000Y-80941636D01*
X54703232Y-80719266D01*
X54789997Y-80509797D01*
X54915960Y-80321280D01*
X55076280Y-80160960D01*
X55264797Y-80034997D01*
X55474266Y-79948232D01*
X55585451Y-79926116D01*
X55696635Y-79904000D01*
X55923365Y-79904000D01*
X56034549Y-79926116D01*
G37*
G36*
X62384549Y-77386116D02*
G01*
X62495734Y-77408232D01*
X62705203Y-77494997D01*
X62893720Y-77620960D01*
X63054040Y-77781280D01*
X63180003Y-77969797D01*
X63262253Y-78168365D01*
X63266768Y-78179267D01*
X63308832Y-78390734D01*
X63311000Y-78401636D01*
X63311000Y-78628364D01*
X63266768Y-78850734D01*
X63180003Y-79060203D01*
X63054040Y-79248720D01*
X62893720Y-79409040D01*
X62705203Y-79535003D01*
X62495734Y-79621768D01*
X62384549Y-79643884D01*
X62273365Y-79666000D01*
X62046635Y-79666000D01*
X61935451Y-79643884D01*
X61824266Y-79621768D01*
X61614797Y-79535003D01*
X61426280Y-79409040D01*
X61265960Y-79248720D01*
X61139997Y-79060203D01*
X61053232Y-78850734D01*
X61009000Y-78628364D01*
X61009000Y-78401636D01*
X61011169Y-78390734D01*
X61053232Y-78179267D01*
X61057748Y-78168365D01*
X61139997Y-77969797D01*
X61265960Y-77781280D01*
X61426280Y-77620960D01*
X61614797Y-77494997D01*
X61824266Y-77408232D01*
X61935451Y-77386116D01*
X62046635Y-77364000D01*
X62273365Y-77364000D01*
X62384549Y-77386116D01*
G37*
G36*
X151284549Y-76926116D02*
G01*
X151395734Y-76948232D01*
X151605203Y-77034997D01*
X151793720Y-77160960D01*
X151954040Y-77321280D01*
X152080003Y-77509797D01*
X152166768Y-77719266D01*
X152181350Y-77792573D01*
X152211000Y-77941635D01*
X152211000Y-78168365D01*
X152208831Y-78179267D01*
X152166768Y-78390734D01*
X152080003Y-78600203D01*
X151954040Y-78788720D01*
X151793720Y-78949040D01*
X151605203Y-79075003D01*
X151395734Y-79161768D01*
X151284549Y-79183884D01*
X151173365Y-79206000D01*
X150946635Y-79206000D01*
X150835451Y-79183884D01*
X150724266Y-79161768D01*
X150514797Y-79075003D01*
X150326280Y-78949040D01*
X150165960Y-78788720D01*
X150039997Y-78600203D01*
X149953232Y-78390734D01*
X149911169Y-78179267D01*
X149909000Y-78168365D01*
X149909000Y-77941635D01*
X149938650Y-77792573D01*
X149953232Y-77719266D01*
X150039997Y-77509797D01*
X150165960Y-77321280D01*
X150326280Y-77160960D01*
X150514797Y-77034997D01*
X150724266Y-76948232D01*
X150835451Y-76926116D01*
X150946635Y-76904000D01*
X151173365Y-76904000D01*
X151284549Y-76926116D01*
G37*
G36*
X132234549Y-76926116D02*
G01*
X132345734Y-76948232D01*
X132555203Y-77034997D01*
X132743720Y-77160960D01*
X132904040Y-77321280D01*
X133030003Y-77509797D01*
X133116768Y-77719266D01*
X133131350Y-77792573D01*
X133161000Y-77941635D01*
X133161000Y-78168365D01*
X133158831Y-78179267D01*
X133116768Y-78390734D01*
X133030003Y-78600203D01*
X132904040Y-78788720D01*
X132743720Y-78949040D01*
X132555203Y-79075003D01*
X132345734Y-79161768D01*
X132234549Y-79183884D01*
X132123365Y-79206000D01*
X131896635Y-79206000D01*
X131785451Y-79183884D01*
X131674266Y-79161768D01*
X131464797Y-79075003D01*
X131276280Y-78949040D01*
X131115960Y-78788720D01*
X130989997Y-78600203D01*
X130903232Y-78390734D01*
X130861169Y-78179267D01*
X130859000Y-78168365D01*
X130859000Y-77941635D01*
X130888650Y-77792573D01*
X130903232Y-77719266D01*
X130989997Y-77509797D01*
X131115960Y-77321280D01*
X131276280Y-77160960D01*
X131464797Y-77034997D01*
X131674266Y-76948232D01*
X131785451Y-76926116D01*
X131896635Y-76904000D01*
X132123365Y-76904000D01*
X132234549Y-76926116D01*
G37*
G36*
X58948254Y-74002818D02*
G01*
X59321511Y-74157426D01*
X59321513Y-74157427D01*
X59657436Y-74381884D01*
X59943116Y-74667564D01*
X60130653Y-74948232D01*
X60167574Y-75003489D01*
X60322182Y-75376746D01*
X60401000Y-75772993D01*
X60401000Y-76177007D01*
X60322182Y-76573254D01*
X60167574Y-76946511D01*
X60167573Y-76946513D01*
X59943116Y-77282436D01*
X59657436Y-77568116D01*
X59321513Y-77792573D01*
X59321512Y-77792574D01*
X59321511Y-77792574D01*
X58948254Y-77947182D01*
X58552007Y-78026000D01*
X58147993Y-78026000D01*
X57751746Y-77947182D01*
X57378489Y-77792574D01*
X57378488Y-77792574D01*
X57378487Y-77792573D01*
X57042564Y-77568116D01*
X56756884Y-77282436D01*
X56532427Y-76946513D01*
X56532426Y-76946511D01*
X56377818Y-76573254D01*
X56299000Y-76177007D01*
X56299000Y-75772993D01*
X56377818Y-75376746D01*
X56532426Y-75003489D01*
X56569348Y-74948232D01*
X56756884Y-74667564D01*
X57042564Y-74381884D01*
X57378487Y-74157427D01*
X57378489Y-74157426D01*
X57751746Y-74002818D01*
X58147993Y-73924000D01*
X58552007Y-73924000D01*
X58948254Y-74002818D01*
G37*
G36*
X75084549Y-74926116D02*
G01*
X75195734Y-74948232D01*
X75247796Y-74969797D01*
X75383483Y-75026000D01*
X75405203Y-75034997D01*
X75593720Y-75160960D01*
X75754040Y-75321280D01*
X75880003Y-75509797D01*
X75963837Y-75712189D01*
X75966768Y-75719267D01*
X76011000Y-75941635D01*
X76011000Y-76168365D01*
X75995016Y-76248720D01*
X75966768Y-76390734D01*
X75880003Y-76600203D01*
X75754040Y-76788720D01*
X75593720Y-76949040D01*
X75405203Y-77075003D01*
X75195734Y-77161768D01*
X75084549Y-77183884D01*
X74973365Y-77206000D01*
X74746635Y-77206000D01*
X74635451Y-77183884D01*
X74524266Y-77161768D01*
X74314797Y-77075003D01*
X74126280Y-76949040D01*
X73965960Y-76788720D01*
X73839997Y-76600203D01*
X73753232Y-76390734D01*
X73724984Y-76248720D01*
X73709000Y-76168365D01*
X73709000Y-75941635D01*
X73753232Y-75719267D01*
X73756164Y-75712189D01*
X73839997Y-75509797D01*
X73965960Y-75321280D01*
X74126280Y-75160960D01*
X74314797Y-75034997D01*
X74336518Y-75026000D01*
X74472204Y-74969797D01*
X74524266Y-74948232D01*
X74635451Y-74926116D01*
X74746635Y-74904000D01*
X74973365Y-74904000D01*
X75084549Y-74926116D01*
G37*
G36*
X63543512Y-75078927D02*
G01*
X63692812Y-75108624D01*
X63856784Y-75176544D01*
X64004354Y-75275147D01*
X64129853Y-75400646D01*
X64228456Y-75548216D01*
X64296376Y-75712188D01*
X64331000Y-75886259D01*
X64331000Y-76063741D01*
X64296376Y-76237812D01*
X64228456Y-76401784D01*
X64129853Y-76549354D01*
X64004354Y-76674853D01*
X63856784Y-76773456D01*
X63692812Y-76841376D01*
X63543512Y-76871073D01*
X63518742Y-76876000D01*
X63341258Y-76876000D01*
X63316488Y-76871073D01*
X63167188Y-76841376D01*
X63003216Y-76773456D01*
X62855646Y-76674853D01*
X62730147Y-76549354D01*
X62631544Y-76401784D01*
X62563624Y-76237812D01*
X62529000Y-76063741D01*
X62529000Y-75886259D01*
X62563624Y-75712188D01*
X62631544Y-75548216D01*
X62730147Y-75400646D01*
X62855646Y-75275147D01*
X63003216Y-75176544D01*
X63167188Y-75108624D01*
X63316488Y-75078927D01*
X63341258Y-75074000D01*
X63518742Y-75074000D01*
X63543512Y-75078927D01*
G37*
G36*
X53383512Y-75078927D02*
G01*
X53532812Y-75108624D01*
X53696784Y-75176544D01*
X53844354Y-75275147D01*
X53969853Y-75400646D01*
X54068456Y-75548216D01*
X54136376Y-75712188D01*
X54171000Y-75886259D01*
X54171000Y-76063741D01*
X54136376Y-76237812D01*
X54068456Y-76401784D01*
X53969853Y-76549354D01*
X53844354Y-76674853D01*
X53696784Y-76773456D01*
X53532812Y-76841376D01*
X53383512Y-76871073D01*
X53358742Y-76876000D01*
X53181258Y-76876000D01*
X53156488Y-76871073D01*
X53007188Y-76841376D01*
X52843216Y-76773456D01*
X52695646Y-76674853D01*
X52570147Y-76549354D01*
X52471544Y-76401784D01*
X52403624Y-76237812D01*
X52369000Y-76063741D01*
X52369000Y-75886259D01*
X52403624Y-75712188D01*
X52471544Y-75548216D01*
X52570147Y-75400646D01*
X52695646Y-75275147D01*
X52843216Y-75176544D01*
X53007188Y-75108624D01*
X53156488Y-75078927D01*
X53181258Y-75074000D01*
X53358742Y-75074000D01*
X53383512Y-75078927D01*
G37*
G36*
X157613273Y-74381884D02*
G01*
X157745734Y-74408232D01*
X157955203Y-74494997D01*
X158143720Y-74620960D01*
X158304040Y-74781280D01*
X158430003Y-74969797D01*
X158515641Y-75176544D01*
X158516768Y-75179267D01*
X158558832Y-75390734D01*
X158561000Y-75401636D01*
X158561000Y-75628364D01*
X158516768Y-75850734D01*
X158430003Y-76060203D01*
X158304040Y-76248720D01*
X158143720Y-76409040D01*
X157955203Y-76535003D01*
X157745734Y-76621768D01*
X157634549Y-76643884D01*
X157523365Y-76666000D01*
X157296635Y-76666000D01*
X157185451Y-76643884D01*
X157074266Y-76621768D01*
X156864797Y-76535003D01*
X156676280Y-76409040D01*
X156515960Y-76248720D01*
X156389997Y-76060203D01*
X156303232Y-75850734D01*
X156259000Y-75628364D01*
X156259000Y-75401636D01*
X156261169Y-75390734D01*
X156303232Y-75179267D01*
X156304360Y-75176544D01*
X156389997Y-74969797D01*
X156515960Y-74781280D01*
X156676280Y-74620960D01*
X156864797Y-74494997D01*
X157074266Y-74408232D01*
X157206727Y-74381884D01*
X157296635Y-74364000D01*
X157523365Y-74364000D01*
X157613273Y-74381884D01*
G37*
G36*
X138563273Y-74381884D02*
G01*
X138695734Y-74408232D01*
X138905203Y-74494997D01*
X139093720Y-74620960D01*
X139254040Y-74781280D01*
X139380003Y-74969797D01*
X139465641Y-75176544D01*
X139466768Y-75179267D01*
X139508832Y-75390734D01*
X139511000Y-75401636D01*
X139511000Y-75628364D01*
X139466768Y-75850734D01*
X139380003Y-76060203D01*
X139254040Y-76248720D01*
X139093720Y-76409040D01*
X138905203Y-76535003D01*
X138695734Y-76621768D01*
X138584549Y-76643884D01*
X138473365Y-76666000D01*
X138246635Y-76666000D01*
X138135451Y-76643884D01*
X138024266Y-76621768D01*
X137814797Y-76535003D01*
X137626280Y-76409040D01*
X137465960Y-76248720D01*
X137339997Y-76060203D01*
X137253232Y-75850734D01*
X137209000Y-75628364D01*
X137209000Y-75401636D01*
X137211169Y-75390734D01*
X137253232Y-75179267D01*
X137254360Y-75176544D01*
X137339997Y-74969797D01*
X137465960Y-74781280D01*
X137626280Y-74620960D01*
X137814797Y-74494997D01*
X138024266Y-74408232D01*
X138156727Y-74381884D01*
X138246635Y-74364000D01*
X138473365Y-74364000D01*
X138563273Y-74381884D01*
G37*
G36*
X113173911Y-73924000D02*
G01*
X113295734Y-73948232D01*
X113505203Y-74034997D01*
X113693720Y-74160960D01*
X113854040Y-74321280D01*
X113980003Y-74509797D01*
X114066768Y-74719266D01*
X114081350Y-74792573D01*
X114111000Y-74941635D01*
X114111000Y-75168365D01*
X114108831Y-75179267D01*
X114066768Y-75390734D01*
X113980003Y-75600203D01*
X113854040Y-75788720D01*
X113693720Y-75949040D01*
X113505203Y-76075003D01*
X113295734Y-76161768D01*
X113219127Y-76177006D01*
X113073365Y-76206000D01*
X112846635Y-76206000D01*
X112700873Y-76177006D01*
X112624266Y-76161768D01*
X112414797Y-76075003D01*
X112226280Y-75949040D01*
X112065960Y-75788720D01*
X111939997Y-75600203D01*
X111853232Y-75390734D01*
X111811169Y-75179267D01*
X111809000Y-75168365D01*
X111809000Y-74941635D01*
X111838650Y-74792573D01*
X111853232Y-74719266D01*
X111939997Y-74509797D01*
X112065960Y-74321280D01*
X112226280Y-74160960D01*
X112414797Y-74034997D01*
X112624266Y-73948232D01*
X112746089Y-73924000D01*
X112846635Y-73904000D01*
X113073365Y-73904000D01*
X113173911Y-73924000D01*
G37*
G36*
X135148254Y-71002818D02*
G01*
X135521511Y-71157426D01*
X135521513Y-71157427D01*
X135857436Y-71381884D01*
X136143116Y-71667564D01*
X136226645Y-71792573D01*
X136367574Y-72003489D01*
X136522182Y-72376746D01*
X136601000Y-72772993D01*
X136601000Y-73177007D01*
X136522182Y-73573254D01*
X136376898Y-73924000D01*
X136367573Y-73946513D01*
X136143116Y-74282436D01*
X135857436Y-74568116D01*
X135521513Y-74792573D01*
X135521512Y-74792574D01*
X135521511Y-74792574D01*
X135148254Y-74947182D01*
X134752007Y-75026000D01*
X134347993Y-75026000D01*
X133951746Y-74947182D01*
X133578489Y-74792574D01*
X133578488Y-74792574D01*
X133578487Y-74792573D01*
X133242564Y-74568116D01*
X132956884Y-74282436D01*
X132732427Y-73946513D01*
X132723102Y-73924000D01*
X132577818Y-73573254D01*
X132499000Y-73177007D01*
X132499000Y-72772993D01*
X132577818Y-72376746D01*
X132732426Y-72003489D01*
X132873356Y-71792573D01*
X132956884Y-71667564D01*
X133242564Y-71381884D01*
X133578487Y-71157427D01*
X133578489Y-71157426D01*
X133951746Y-71002818D01*
X134347993Y-70924000D01*
X134752007Y-70924000D01*
X135148254Y-71002818D01*
G37*
G36*
X154198254Y-71002818D02*
G01*
X154571511Y-71157426D01*
X154571513Y-71157427D01*
X154907436Y-71381884D01*
X155193116Y-71667564D01*
X155276645Y-71792573D01*
X155417574Y-72003489D01*
X155572182Y-72376746D01*
X155651000Y-72772993D01*
X155651000Y-73177007D01*
X155572182Y-73573254D01*
X155426898Y-73924000D01*
X155417573Y-73946513D01*
X155193116Y-74282436D01*
X154907436Y-74568116D01*
X154571513Y-74792573D01*
X154571512Y-74792574D01*
X154571511Y-74792574D01*
X154198254Y-74947182D01*
X153802007Y-75026000D01*
X153397993Y-75026000D01*
X153001746Y-74947182D01*
X152628489Y-74792574D01*
X152628488Y-74792574D01*
X152628487Y-74792573D01*
X152292564Y-74568116D01*
X152006884Y-74282436D01*
X151782427Y-73946513D01*
X151773102Y-73924000D01*
X151627818Y-73573254D01*
X151549000Y-73177007D01*
X151549000Y-72772993D01*
X151627818Y-72376746D01*
X151782426Y-72003489D01*
X151923356Y-71792573D01*
X152006884Y-71667564D01*
X152292564Y-71381884D01*
X152628487Y-71157427D01*
X152628489Y-71157426D01*
X153001746Y-71002818D01*
X153397993Y-70924000D01*
X153802007Y-70924000D01*
X154198254Y-71002818D01*
G37*
G36*
X81387438Y-72376745D02*
G01*
X81545734Y-72408232D01*
X81755203Y-72494997D01*
X81943720Y-72620960D01*
X82104040Y-72781280D01*
X82230003Y-72969797D01*
X82316768Y-73179266D01*
X82361000Y-73401636D01*
X82361000Y-73628364D01*
X82316768Y-73850734D01*
X82230003Y-74060203D01*
X82104040Y-74248720D01*
X81943720Y-74409040D01*
X81755203Y-74535003D01*
X81545734Y-74621768D01*
X81434549Y-74643884D01*
X81323365Y-74666000D01*
X81096635Y-74666000D01*
X80985451Y-74643884D01*
X80874266Y-74621768D01*
X80664797Y-74535003D01*
X80476280Y-74409040D01*
X80315960Y-74248720D01*
X80189997Y-74060203D01*
X80103232Y-73850734D01*
X80059000Y-73628364D01*
X80059000Y-73401636D01*
X80103232Y-73179266D01*
X80189997Y-72969797D01*
X80315960Y-72781280D01*
X80476280Y-72620960D01*
X80664797Y-72494997D01*
X80874266Y-72408232D01*
X81032562Y-72376745D01*
X81096635Y-72364000D01*
X81323365Y-72364000D01*
X81387438Y-72376745D01*
G37*
G36*
X148633512Y-72078927D02*
G01*
X148782812Y-72108624D01*
X148946784Y-72176544D01*
X149094354Y-72275147D01*
X149219853Y-72400646D01*
X149318456Y-72548216D01*
X149386376Y-72712188D01*
X149421000Y-72886259D01*
X149421000Y-73063741D01*
X149386376Y-73237812D01*
X149318456Y-73401784D01*
X149219853Y-73549354D01*
X149094354Y-73674853D01*
X148946784Y-73773456D01*
X148782812Y-73841376D01*
X148633512Y-73871073D01*
X148608742Y-73876000D01*
X148431258Y-73876000D01*
X148406488Y-73871073D01*
X148257188Y-73841376D01*
X148093216Y-73773456D01*
X147945646Y-73674853D01*
X147820147Y-73549354D01*
X147721544Y-73401784D01*
X147653624Y-73237812D01*
X147619000Y-73063741D01*
X147619000Y-72886259D01*
X147653624Y-72712188D01*
X147721544Y-72548216D01*
X147820147Y-72400646D01*
X147945646Y-72275147D01*
X148093216Y-72176544D01*
X148257188Y-72108624D01*
X148406488Y-72078927D01*
X148431258Y-72074000D01*
X148608742Y-72074000D01*
X148633512Y-72078927D01*
G37*
G36*
X158793512Y-72078927D02*
G01*
X158942812Y-72108624D01*
X159106784Y-72176544D01*
X159254354Y-72275147D01*
X159379853Y-72400646D01*
X159478456Y-72548216D01*
X159546376Y-72712188D01*
X159581000Y-72886259D01*
X159581000Y-73063741D01*
X159546376Y-73237812D01*
X159478456Y-73401784D01*
X159379853Y-73549354D01*
X159254354Y-73674853D01*
X159106784Y-73773456D01*
X158942812Y-73841376D01*
X158793512Y-73871073D01*
X158768742Y-73876000D01*
X158591258Y-73876000D01*
X158566488Y-73871073D01*
X158417188Y-73841376D01*
X158253216Y-73773456D01*
X158105646Y-73674853D01*
X157980147Y-73549354D01*
X157881544Y-73401784D01*
X157813624Y-73237812D01*
X157779000Y-73063741D01*
X157779000Y-72886259D01*
X157813624Y-72712188D01*
X157881544Y-72548216D01*
X157980147Y-72400646D01*
X158105646Y-72275147D01*
X158253216Y-72176544D01*
X158417188Y-72108624D01*
X158566488Y-72078927D01*
X158591258Y-72074000D01*
X158768742Y-72074000D01*
X158793512Y-72078927D01*
G37*
G36*
X129583512Y-72078927D02*
G01*
X129732812Y-72108624D01*
X129896784Y-72176544D01*
X130044354Y-72275147D01*
X130169853Y-72400646D01*
X130268456Y-72548216D01*
X130336376Y-72712188D01*
X130371000Y-72886259D01*
X130371000Y-73063741D01*
X130336376Y-73237812D01*
X130268456Y-73401784D01*
X130169853Y-73549354D01*
X130044354Y-73674853D01*
X129896784Y-73773456D01*
X129732812Y-73841376D01*
X129583512Y-73871073D01*
X129558742Y-73876000D01*
X129381258Y-73876000D01*
X129356488Y-73871073D01*
X129207188Y-73841376D01*
X129043216Y-73773456D01*
X128895646Y-73674853D01*
X128770147Y-73549354D01*
X128671544Y-73401784D01*
X128603624Y-73237812D01*
X128569000Y-73063741D01*
X128569000Y-72886259D01*
X128603624Y-72712188D01*
X128671544Y-72548216D01*
X128770147Y-72400646D01*
X128895646Y-72275147D01*
X129043216Y-72176544D01*
X129207188Y-72108624D01*
X129356488Y-72078927D01*
X129381258Y-72074000D01*
X129558742Y-72074000D01*
X129583512Y-72078927D01*
G37*
G36*
X139743512Y-72078927D02*
G01*
X139892812Y-72108624D01*
X140056784Y-72176544D01*
X140204354Y-72275147D01*
X140329853Y-72400646D01*
X140428456Y-72548216D01*
X140496376Y-72712188D01*
X140531000Y-72886259D01*
X140531000Y-73063741D01*
X140496376Y-73237812D01*
X140428456Y-73401784D01*
X140329853Y-73549354D01*
X140204354Y-73674853D01*
X140056784Y-73773456D01*
X139892812Y-73841376D01*
X139743512Y-73871073D01*
X139718742Y-73876000D01*
X139541258Y-73876000D01*
X139516488Y-73871073D01*
X139367188Y-73841376D01*
X139203216Y-73773456D01*
X139055646Y-73674853D01*
X138930147Y-73549354D01*
X138831544Y-73401784D01*
X138763624Y-73237812D01*
X138729000Y-73063741D01*
X138729000Y-72886259D01*
X138763624Y-72712188D01*
X138831544Y-72548216D01*
X138930147Y-72400646D01*
X139055646Y-72275147D01*
X139203216Y-72176544D01*
X139367188Y-72108624D01*
X139516488Y-72078927D01*
X139541258Y-72074000D01*
X139718742Y-72074000D01*
X139743512Y-72078927D01*
G37*
G36*
X119513273Y-71381884D02*
G01*
X119645734Y-71408232D01*
X119855203Y-71494997D01*
X120043720Y-71620960D01*
X120204040Y-71781280D01*
X120330003Y-71969797D01*
X120416768Y-72179266D01*
X120461000Y-72401636D01*
X120461000Y-72628364D01*
X120416768Y-72850734D01*
X120330003Y-73060203D01*
X120204040Y-73248720D01*
X120043720Y-73409040D01*
X119855203Y-73535003D01*
X119645734Y-73621768D01*
X119534549Y-73643884D01*
X119423365Y-73666000D01*
X119196635Y-73666000D01*
X119085451Y-73643884D01*
X118974266Y-73621768D01*
X118764797Y-73535003D01*
X118576280Y-73409040D01*
X118415960Y-73248720D01*
X118289997Y-73060203D01*
X118203232Y-72850734D01*
X118159000Y-72628364D01*
X118159000Y-72401636D01*
X118203232Y-72179266D01*
X118289997Y-71969797D01*
X118415960Y-71781280D01*
X118576280Y-71620960D01*
X118764797Y-71494997D01*
X118974266Y-71408232D01*
X119106727Y-71381884D01*
X119196635Y-71364000D01*
X119423365Y-71364000D01*
X119513273Y-71381884D01*
G37*
G36*
X77998254Y-69002818D02*
G01*
X78371511Y-69157426D01*
X78371513Y-69157427D01*
X78707436Y-69381884D01*
X78993116Y-69667564D01*
X79176245Y-69941635D01*
X79217574Y-70003489D01*
X79372182Y-70376746D01*
X79451000Y-70772993D01*
X79451000Y-71177007D01*
X79372182Y-71573254D01*
X79217574Y-71946511D01*
X79217573Y-71946513D01*
X78993116Y-72282436D01*
X78707436Y-72568116D01*
X78371513Y-72792573D01*
X78371512Y-72792574D01*
X78371511Y-72792574D01*
X77998254Y-72947182D01*
X77602007Y-73026000D01*
X77197993Y-73026000D01*
X76801746Y-72947182D01*
X76428489Y-72792574D01*
X76428488Y-72792574D01*
X76428487Y-72792573D01*
X76092564Y-72568116D01*
X75806884Y-72282436D01*
X75582427Y-71946513D01*
X75582426Y-71946511D01*
X75427818Y-71573254D01*
X75349000Y-71177007D01*
X75349000Y-70772993D01*
X75427818Y-70376746D01*
X75582426Y-70003489D01*
X75623756Y-69941635D01*
X75806884Y-69667564D01*
X76092564Y-69381884D01*
X76428487Y-69157427D01*
X76428489Y-69157426D01*
X76801746Y-69002818D01*
X77197993Y-68924000D01*
X77602007Y-68924000D01*
X77998254Y-69002818D01*
G37*
G36*
X116098254Y-68002818D02*
G01*
X116471511Y-68157426D01*
X116471513Y-68157427D01*
X116807436Y-68381884D01*
X117093116Y-68667564D01*
X117317127Y-69002819D01*
X117317574Y-69003489D01*
X117472182Y-69376746D01*
X117551000Y-69772993D01*
X117551000Y-70177007D01*
X117472182Y-70573254D01*
X117342531Y-70886259D01*
X117317573Y-70946513D01*
X117093116Y-71282436D01*
X116807436Y-71568116D01*
X116471513Y-71792573D01*
X116471512Y-71792574D01*
X116471511Y-71792574D01*
X116098254Y-71947182D01*
X115702007Y-72026000D01*
X115297993Y-72026000D01*
X114901746Y-71947182D01*
X114528489Y-71792574D01*
X114528488Y-71792574D01*
X114528487Y-71792573D01*
X114192564Y-71568116D01*
X113906884Y-71282436D01*
X113682427Y-70946513D01*
X113657469Y-70886259D01*
X113527818Y-70573254D01*
X113449000Y-70177007D01*
X113449000Y-69772993D01*
X113527818Y-69376746D01*
X113682426Y-69003489D01*
X113682874Y-69002819D01*
X113906884Y-68667564D01*
X114192564Y-68381884D01*
X114528487Y-68157427D01*
X114528489Y-68157426D01*
X114901746Y-68002818D01*
X115297993Y-67924000D01*
X115702007Y-67924000D01*
X116098254Y-68002818D01*
G37*
G36*
X82593512Y-70078927D02*
G01*
X82742812Y-70108624D01*
X82906784Y-70176544D01*
X83054354Y-70275147D01*
X83179853Y-70400646D01*
X83278456Y-70548216D01*
X83346376Y-70712188D01*
X83372072Y-70841375D01*
X83378960Y-70876000D01*
X83381000Y-70886259D01*
X83381000Y-71063741D01*
X83346376Y-71237812D01*
X83278456Y-71401784D01*
X83179853Y-71549354D01*
X83054354Y-71674853D01*
X82906784Y-71773456D01*
X82742812Y-71841376D01*
X82593512Y-71871073D01*
X82568742Y-71876000D01*
X82391258Y-71876000D01*
X82366488Y-71871073D01*
X82217188Y-71841376D01*
X82053216Y-71773456D01*
X81905646Y-71674853D01*
X81780147Y-71549354D01*
X81681544Y-71401784D01*
X81613624Y-71237812D01*
X81579000Y-71063741D01*
X81579000Y-70886259D01*
X81581041Y-70876000D01*
X81587928Y-70841375D01*
X81613624Y-70712188D01*
X81681544Y-70548216D01*
X81780147Y-70400646D01*
X81905646Y-70275147D01*
X82053216Y-70176544D01*
X82217188Y-70108624D01*
X82366488Y-70078927D01*
X82391258Y-70074000D01*
X82568742Y-70074000D01*
X82593512Y-70078927D01*
G37*
G36*
X72433512Y-70078927D02*
G01*
X72582812Y-70108624D01*
X72746784Y-70176544D01*
X72894354Y-70275147D01*
X73019853Y-70400646D01*
X73118456Y-70548216D01*
X73186376Y-70712188D01*
X73212072Y-70841375D01*
X73218960Y-70876000D01*
X73221000Y-70886259D01*
X73221000Y-71063741D01*
X73186376Y-71237812D01*
X73118456Y-71401784D01*
X73019853Y-71549354D01*
X72894354Y-71674853D01*
X72746784Y-71773456D01*
X72582812Y-71841376D01*
X72433512Y-71871073D01*
X72408742Y-71876000D01*
X72231258Y-71876000D01*
X72206488Y-71871073D01*
X72057188Y-71841376D01*
X71893216Y-71773456D01*
X71745646Y-71674853D01*
X71620147Y-71549354D01*
X71521544Y-71401784D01*
X71453624Y-71237812D01*
X71419000Y-71063741D01*
X71419000Y-70886259D01*
X71421041Y-70876000D01*
X71427928Y-70841375D01*
X71453624Y-70712188D01*
X71521544Y-70548216D01*
X71620147Y-70400646D01*
X71745646Y-70275147D01*
X71893216Y-70176544D01*
X72057188Y-70108624D01*
X72206488Y-70078927D01*
X72231258Y-70074000D01*
X72408742Y-70074000D01*
X72433512Y-70078927D01*
G37*
G36*
X94123916Y-68924000D02*
G01*
X94245734Y-68948231D01*
X94455203Y-69034996D01*
X94643720Y-69160959D01*
X94804040Y-69321279D01*
X94930003Y-69509796D01*
X95016768Y-69719265D01*
X95061000Y-69941635D01*
X95061000Y-70168363D01*
X95016768Y-70390733D01*
X94930003Y-70600202D01*
X94804040Y-70788719D01*
X94643720Y-70949039D01*
X94455203Y-71075002D01*
X94245734Y-71161767D01*
X94169122Y-71177006D01*
X94023365Y-71205999D01*
X93796635Y-71205999D01*
X93650878Y-71177006D01*
X93574266Y-71161767D01*
X93364797Y-71075002D01*
X93176280Y-70949039D01*
X93015960Y-70788719D01*
X92889997Y-70600202D01*
X92803232Y-70390733D01*
X92759000Y-70168363D01*
X92759000Y-69941635D01*
X92803232Y-69719265D01*
X92889997Y-69509796D01*
X93015960Y-69321279D01*
X93176280Y-69160959D01*
X93364797Y-69034996D01*
X93574266Y-68948231D01*
X93696084Y-68924000D01*
X93796635Y-68903999D01*
X94023365Y-68903999D01*
X94123916Y-68924000D01*
G37*
G36*
X120693512Y-69078927D02*
G01*
X120842812Y-69108624D01*
X121006784Y-69176544D01*
X121154354Y-69275147D01*
X121279853Y-69400646D01*
X121378456Y-69548216D01*
X121446376Y-69712188D01*
X121476073Y-69861488D01*
X121481000Y-69886258D01*
X121481000Y-70063742D01*
X121476073Y-70088512D01*
X121446376Y-70237812D01*
X121378456Y-70401784D01*
X121279853Y-70549354D01*
X121154354Y-70674853D01*
X121006784Y-70773456D01*
X120842812Y-70841376D01*
X120693512Y-70871073D01*
X120668742Y-70876000D01*
X120491258Y-70876000D01*
X120466488Y-70871073D01*
X120317188Y-70841376D01*
X120153216Y-70773456D01*
X120005646Y-70674853D01*
X119880147Y-70549354D01*
X119781544Y-70401784D01*
X119713624Y-70237812D01*
X119683927Y-70088512D01*
X119679000Y-70063742D01*
X119679000Y-69886258D01*
X119683927Y-69861488D01*
X119713624Y-69712188D01*
X119781544Y-69548216D01*
X119880147Y-69400646D01*
X120005646Y-69275147D01*
X120153216Y-69176544D01*
X120317188Y-69108624D01*
X120466488Y-69078927D01*
X120491258Y-69074000D01*
X120668742Y-69074000D01*
X120693512Y-69078927D01*
G37*
G36*
X110533512Y-69078927D02*
G01*
X110682812Y-69108624D01*
X110846784Y-69176544D01*
X110994354Y-69275147D01*
X111119853Y-69400646D01*
X111218456Y-69548216D01*
X111286376Y-69712188D01*
X111316073Y-69861488D01*
X111321000Y-69886258D01*
X111321000Y-70063742D01*
X111316073Y-70088512D01*
X111286376Y-70237812D01*
X111218456Y-70401784D01*
X111119853Y-70549354D01*
X110994354Y-70674853D01*
X110846784Y-70773456D01*
X110682812Y-70841376D01*
X110533512Y-70871073D01*
X110508742Y-70876000D01*
X110331258Y-70876000D01*
X110306488Y-70871073D01*
X110157188Y-70841376D01*
X109993216Y-70773456D01*
X109845646Y-70674853D01*
X109720147Y-70549354D01*
X109621544Y-70401784D01*
X109553624Y-70237812D01*
X109523927Y-70088512D01*
X109519000Y-70063742D01*
X109519000Y-69886258D01*
X109523927Y-69861488D01*
X109553624Y-69712188D01*
X109621544Y-69548216D01*
X109720147Y-69400646D01*
X109845646Y-69275147D01*
X109993216Y-69176544D01*
X110157188Y-69108624D01*
X110306488Y-69078927D01*
X110331258Y-69074000D01*
X110508742Y-69074000D01*
X110533512Y-69078927D01*
G37*
G36*
X100484549Y-66386115D02*
G01*
X100595734Y-66408231D01*
X100805203Y-66494996D01*
X100993720Y-66620959D01*
X101154040Y-66781279D01*
X101280003Y-66969796D01*
X101366768Y-67179265D01*
X101411000Y-67401635D01*
X101411000Y-67628363D01*
X101366768Y-67850733D01*
X101280003Y-68060202D01*
X101154040Y-68248719D01*
X100993720Y-68409039D01*
X100805203Y-68535002D01*
X100595734Y-68621767D01*
X100484549Y-68643883D01*
X100373365Y-68665999D01*
X100146635Y-68665999D01*
X100035451Y-68643883D01*
X99924266Y-68621767D01*
X99714797Y-68535002D01*
X99526280Y-68409039D01*
X99365960Y-68248719D01*
X99239997Y-68060202D01*
X99153232Y-67850733D01*
X99109000Y-67628363D01*
X99109000Y-67401635D01*
X99153232Y-67179265D01*
X99239997Y-66969796D01*
X99365960Y-66781279D01*
X99526280Y-66620959D01*
X99714797Y-66494996D01*
X99924266Y-66408231D01*
X100035451Y-66386115D01*
X100146635Y-66363999D01*
X100373365Y-66363999D01*
X100484549Y-66386115D01*
G37*
G36*
X97048254Y-63002817D02*
G01*
X97421511Y-63157425D01*
X97421513Y-63157426D01*
X97757436Y-63381883D01*
X98043116Y-63667563D01*
X98267574Y-64003488D01*
X98422182Y-64376745D01*
X98501000Y-64772992D01*
X98501000Y-65177006D01*
X98422182Y-65573253D01*
X98267574Y-65946510D01*
X98267573Y-65946512D01*
X98043116Y-66282435D01*
X97757436Y-66568115D01*
X97421513Y-66792572D01*
X97421512Y-66792573D01*
X97421511Y-66792573D01*
X97048254Y-66947181D01*
X96652007Y-67025999D01*
X96247993Y-67025999D01*
X95851746Y-66947181D01*
X95478489Y-66792573D01*
X95478488Y-66792573D01*
X95478487Y-66792572D01*
X95142564Y-66568115D01*
X94856884Y-66282435D01*
X94632427Y-65946512D01*
X94632426Y-65946510D01*
X94477818Y-65573253D01*
X94399000Y-65177006D01*
X94399000Y-64772992D01*
X94477818Y-64376745D01*
X94632426Y-64003488D01*
X94856884Y-63667563D01*
X95142564Y-63381883D01*
X95478487Y-63157426D01*
X95478489Y-63157425D01*
X95851746Y-63002817D01*
X96247993Y-62923999D01*
X96652007Y-62923999D01*
X97048254Y-63002817D01*
G37*
G36*
X91483512Y-64078926D02*
G01*
X91632812Y-64108623D01*
X91796784Y-64176543D01*
X91944354Y-64275146D01*
X92069853Y-64400645D01*
X92168456Y-64548215D01*
X92236376Y-64712187D01*
X92271000Y-64886258D01*
X92271000Y-65063740D01*
X92236376Y-65237811D01*
X92168456Y-65401783D01*
X92069853Y-65549353D01*
X91944354Y-65674852D01*
X91796784Y-65773455D01*
X91632812Y-65841375D01*
X91483512Y-65871072D01*
X91458742Y-65875999D01*
X91281258Y-65875999D01*
X91256488Y-65871072D01*
X91107188Y-65841375D01*
X90943216Y-65773455D01*
X90795646Y-65674852D01*
X90670147Y-65549353D01*
X90571544Y-65401783D01*
X90503624Y-65237811D01*
X90469000Y-65063740D01*
X90469000Y-64886258D01*
X90503624Y-64712187D01*
X90571544Y-64548215D01*
X90670147Y-64400645D01*
X90795646Y-64275146D01*
X90943216Y-64176543D01*
X91107188Y-64108623D01*
X91256488Y-64078926D01*
X91281258Y-64073999D01*
X91458742Y-64073999D01*
X91483512Y-64078926D01*
G37*
G36*
X101643512Y-64078926D02*
G01*
X101792812Y-64108623D01*
X101956784Y-64176543D01*
X102104354Y-64275146D01*
X102229853Y-64400645D01*
X102328456Y-64548215D01*
X102396376Y-64712187D01*
X102431000Y-64886258D01*
X102431000Y-65063740D01*
X102396376Y-65237811D01*
X102328456Y-65401783D01*
X102229853Y-65549353D01*
X102104354Y-65674852D01*
X101956784Y-65773455D01*
X101792812Y-65841375D01*
X101643512Y-65871072D01*
X101618742Y-65875999D01*
X101441258Y-65875999D01*
X101416488Y-65871072D01*
X101267188Y-65841375D01*
X101103216Y-65773455D01*
X100955646Y-65674852D01*
X100830147Y-65549353D01*
X100731544Y-65401783D01*
X100663624Y-65237811D01*
X100629000Y-65063740D01*
X100629000Y-64886258D01*
X100663624Y-64712187D01*
X100731544Y-64548215D01*
X100830147Y-64400645D01*
X100955646Y-64275146D01*
X101103216Y-64176543D01*
X101267188Y-64108623D01*
X101416488Y-64078926D01*
X101441258Y-64073999D01*
X101618742Y-64073999D01*
X101643512Y-64078926D01*
G37*
G36*
X56034549Y-60876116D02*
G01*
X56145734Y-60898232D01*
X56355203Y-60984997D01*
X56543720Y-61110960D01*
X56704040Y-61271280D01*
X56830003Y-61459797D01*
X56916768Y-61669266D01*
X56961000Y-61891636D01*
X56961000Y-62118364D01*
X56916768Y-62340734D01*
X56830003Y-62550203D01*
X56704040Y-62738720D01*
X56543720Y-62899040D01*
X56355203Y-63025003D01*
X56145734Y-63111768D01*
X56034549Y-63133884D01*
X55923365Y-63156000D01*
X55696635Y-63156000D01*
X55585451Y-63133884D01*
X55474266Y-63111768D01*
X55264797Y-63025003D01*
X55076280Y-62899040D01*
X54915960Y-62738720D01*
X54789997Y-62550203D01*
X54703232Y-62340734D01*
X54659000Y-62118364D01*
X54659000Y-61891636D01*
X54703232Y-61669266D01*
X54789997Y-61459797D01*
X54915960Y-61271280D01*
X55076280Y-61110960D01*
X55264797Y-60984997D01*
X55474266Y-60898232D01*
X55585451Y-60876116D01*
X55696635Y-60854000D01*
X55923365Y-60854000D01*
X56034549Y-60876116D01*
G37*
G36*
X62384549Y-58336116D02*
G01*
X62495734Y-58358232D01*
X62705203Y-58444997D01*
X62893720Y-58570960D01*
X63054040Y-58731280D01*
X63180003Y-58919797D01*
X63262253Y-59118365D01*
X63266768Y-59129267D01*
X63308832Y-59340734D01*
X63311000Y-59351636D01*
X63311000Y-59578364D01*
X63266768Y-59800734D01*
X63180003Y-60010203D01*
X63054040Y-60198720D01*
X62893720Y-60359040D01*
X62705203Y-60485003D01*
X62495734Y-60571768D01*
X62384549Y-60593884D01*
X62273365Y-60616000D01*
X62046635Y-60616000D01*
X61935451Y-60593884D01*
X61824266Y-60571768D01*
X61614797Y-60485003D01*
X61426280Y-60359040D01*
X61265960Y-60198720D01*
X61139997Y-60010203D01*
X61053232Y-59800734D01*
X61009000Y-59578364D01*
X61009000Y-59351636D01*
X61011169Y-59340734D01*
X61053232Y-59129267D01*
X61057748Y-59118365D01*
X61139997Y-58919797D01*
X61265960Y-58731280D01*
X61426280Y-58570960D01*
X61614797Y-58444997D01*
X61824266Y-58358232D01*
X61935451Y-58336116D01*
X62046635Y-58314000D01*
X62273365Y-58314000D01*
X62384549Y-58336116D01*
G37*
G36*
X151284549Y-57876116D02*
G01*
X151395734Y-57898232D01*
X151605203Y-57984997D01*
X151793720Y-58110960D01*
X151954040Y-58271280D01*
X152080003Y-58459797D01*
X152166768Y-58669266D01*
X152181350Y-58742573D01*
X152211000Y-58891635D01*
X152211000Y-59118365D01*
X152208831Y-59129267D01*
X152166768Y-59340734D01*
X152080003Y-59550203D01*
X151954040Y-59738720D01*
X151793720Y-59899040D01*
X151605203Y-60025003D01*
X151395734Y-60111768D01*
X151284549Y-60133884D01*
X151173365Y-60156000D01*
X150946635Y-60156000D01*
X150835451Y-60133884D01*
X150724266Y-60111768D01*
X150514797Y-60025003D01*
X150326280Y-59899040D01*
X150165960Y-59738720D01*
X150039997Y-59550203D01*
X149953232Y-59340734D01*
X149911169Y-59129267D01*
X149909000Y-59118365D01*
X149909000Y-58891635D01*
X149938650Y-58742573D01*
X149953232Y-58669266D01*
X150039997Y-58459797D01*
X150165960Y-58271280D01*
X150326280Y-58110960D01*
X150514797Y-57984997D01*
X150724266Y-57898232D01*
X150835451Y-57876116D01*
X150946635Y-57854000D01*
X151173365Y-57854000D01*
X151284549Y-57876116D01*
G37*
G36*
X132234549Y-57876116D02*
G01*
X132345734Y-57898232D01*
X132555203Y-57984997D01*
X132743720Y-58110960D01*
X132904040Y-58271280D01*
X133030003Y-58459797D01*
X133116768Y-58669266D01*
X133131350Y-58742573D01*
X133161000Y-58891635D01*
X133161000Y-59118365D01*
X133158831Y-59129267D01*
X133116768Y-59340734D01*
X133030003Y-59550203D01*
X132904040Y-59738720D01*
X132743720Y-59899040D01*
X132555203Y-60025003D01*
X132345734Y-60111768D01*
X132234549Y-60133884D01*
X132123365Y-60156000D01*
X131896635Y-60156000D01*
X131785451Y-60133884D01*
X131674266Y-60111768D01*
X131464797Y-60025003D01*
X131276280Y-59899040D01*
X131115960Y-59738720D01*
X130989997Y-59550203D01*
X130903232Y-59340734D01*
X130861169Y-59129267D01*
X130859000Y-59118365D01*
X130859000Y-58891635D01*
X130888650Y-58742573D01*
X130903232Y-58669266D01*
X130989997Y-58459797D01*
X131115960Y-58271280D01*
X131276280Y-58110960D01*
X131464797Y-57984997D01*
X131674266Y-57898232D01*
X131785451Y-57876116D01*
X131896635Y-57854000D01*
X132123365Y-57854000D01*
X132234549Y-57876116D01*
G37*
G36*
X58948254Y-54952818D02*
G01*
X59321511Y-55107426D01*
X59321513Y-55107427D01*
X59657436Y-55331884D01*
X59943116Y-55617564D01*
X60130653Y-55898232D01*
X60167574Y-55953489D01*
X60322182Y-56326746D01*
X60401000Y-56722993D01*
X60401000Y-57127007D01*
X60322182Y-57523254D01*
X60167574Y-57896511D01*
X60167573Y-57896513D01*
X59943116Y-58232436D01*
X59657436Y-58518116D01*
X59321513Y-58742573D01*
X59321512Y-58742574D01*
X59321511Y-58742574D01*
X58948254Y-58897182D01*
X58552007Y-58976000D01*
X58147993Y-58976000D01*
X57751746Y-58897182D01*
X57378489Y-58742574D01*
X57378488Y-58742574D01*
X57378487Y-58742573D01*
X57042564Y-58518116D01*
X56756884Y-58232436D01*
X56532427Y-57896513D01*
X56532426Y-57896511D01*
X56377818Y-57523254D01*
X56299000Y-57127007D01*
X56299000Y-56722993D01*
X56377818Y-56326746D01*
X56532426Y-55953489D01*
X56569348Y-55898232D01*
X56756884Y-55617564D01*
X57042564Y-55331884D01*
X57378487Y-55107427D01*
X57378489Y-55107426D01*
X57751746Y-54952818D01*
X58147993Y-54874000D01*
X58552007Y-54874000D01*
X58948254Y-54952818D01*
G37*
G36*
X75084549Y-55876116D02*
G01*
X75195734Y-55898232D01*
X75247796Y-55919797D01*
X75383483Y-55976000D01*
X75405203Y-55984997D01*
X75593720Y-56110960D01*
X75754040Y-56271280D01*
X75880003Y-56459797D01*
X75963837Y-56662189D01*
X75966768Y-56669267D01*
X76011000Y-56891635D01*
X76011000Y-57118365D01*
X75995016Y-57198720D01*
X75966768Y-57340734D01*
X75880003Y-57550203D01*
X75754040Y-57738720D01*
X75593720Y-57899040D01*
X75405203Y-58025003D01*
X75195734Y-58111768D01*
X75084549Y-58133884D01*
X74973365Y-58156000D01*
X74746635Y-58156000D01*
X74635451Y-58133884D01*
X74524266Y-58111768D01*
X74314797Y-58025003D01*
X74126280Y-57899040D01*
X73965960Y-57738720D01*
X73839997Y-57550203D01*
X73753232Y-57340734D01*
X73724984Y-57198720D01*
X73709000Y-57118365D01*
X73709000Y-56891635D01*
X73753232Y-56669267D01*
X73756164Y-56662189D01*
X73839997Y-56459797D01*
X73965960Y-56271280D01*
X74126280Y-56110960D01*
X74314797Y-55984997D01*
X74336518Y-55976000D01*
X74472204Y-55919797D01*
X74524266Y-55898232D01*
X74635451Y-55876116D01*
X74746635Y-55854000D01*
X74973365Y-55854000D01*
X75084549Y-55876116D01*
G37*
G36*
X53383512Y-56028927D02*
G01*
X53532812Y-56058624D01*
X53696784Y-56126544D01*
X53844354Y-56225147D01*
X53969853Y-56350646D01*
X54068456Y-56498216D01*
X54136376Y-56662188D01*
X54171000Y-56836259D01*
X54171000Y-57013741D01*
X54136376Y-57187812D01*
X54068456Y-57351784D01*
X53969853Y-57499354D01*
X53844354Y-57624853D01*
X53696784Y-57723456D01*
X53532812Y-57791376D01*
X53383512Y-57821073D01*
X53358742Y-57826000D01*
X53181258Y-57826000D01*
X53156488Y-57821073D01*
X53007188Y-57791376D01*
X52843216Y-57723456D01*
X52695646Y-57624853D01*
X52570147Y-57499354D01*
X52471544Y-57351784D01*
X52403624Y-57187812D01*
X52369000Y-57013741D01*
X52369000Y-56836259D01*
X52403624Y-56662188D01*
X52471544Y-56498216D01*
X52570147Y-56350646D01*
X52695646Y-56225147D01*
X52843216Y-56126544D01*
X53007188Y-56058624D01*
X53156488Y-56028927D01*
X53181258Y-56024000D01*
X53358742Y-56024000D01*
X53383512Y-56028927D01*
G37*
G36*
X63543512Y-56028927D02*
G01*
X63692812Y-56058624D01*
X63856784Y-56126544D01*
X64004354Y-56225147D01*
X64129853Y-56350646D01*
X64228456Y-56498216D01*
X64296376Y-56662188D01*
X64331000Y-56836259D01*
X64331000Y-57013741D01*
X64296376Y-57187812D01*
X64228456Y-57351784D01*
X64129853Y-57499354D01*
X64004354Y-57624853D01*
X63856784Y-57723456D01*
X63692812Y-57791376D01*
X63543512Y-57821073D01*
X63518742Y-57826000D01*
X63341258Y-57826000D01*
X63316488Y-57821073D01*
X63167188Y-57791376D01*
X63003216Y-57723456D01*
X62855646Y-57624853D01*
X62730147Y-57499354D01*
X62631544Y-57351784D01*
X62563624Y-57187812D01*
X62529000Y-57013741D01*
X62529000Y-56836259D01*
X62563624Y-56662188D01*
X62631544Y-56498216D01*
X62730147Y-56350646D01*
X62855646Y-56225147D01*
X63003216Y-56126544D01*
X63167188Y-56058624D01*
X63316488Y-56028927D01*
X63341258Y-56024000D01*
X63518742Y-56024000D01*
X63543512Y-56028927D01*
G37*
G36*
X157613273Y-55331884D02*
G01*
X157745734Y-55358232D01*
X157955203Y-55444997D01*
X158143720Y-55570960D01*
X158304040Y-55731280D01*
X158430003Y-55919797D01*
X158515641Y-56126544D01*
X158516768Y-56129267D01*
X158558832Y-56340734D01*
X158561000Y-56351636D01*
X158561000Y-56578364D01*
X158516768Y-56800734D01*
X158430003Y-57010203D01*
X158304040Y-57198720D01*
X158143720Y-57359040D01*
X157955203Y-57485003D01*
X157745734Y-57571768D01*
X157634549Y-57593884D01*
X157523365Y-57616000D01*
X157296635Y-57616000D01*
X157185451Y-57593884D01*
X157074266Y-57571768D01*
X156864797Y-57485003D01*
X156676280Y-57359040D01*
X156515960Y-57198720D01*
X156389997Y-57010203D01*
X156303232Y-56800734D01*
X156259000Y-56578364D01*
X156259000Y-56351636D01*
X156261169Y-56340734D01*
X156303232Y-56129267D01*
X156304360Y-56126544D01*
X156389997Y-55919797D01*
X156515960Y-55731280D01*
X156676280Y-55570960D01*
X156864797Y-55444997D01*
X157074266Y-55358232D01*
X157206727Y-55331884D01*
X157296635Y-55314000D01*
X157523365Y-55314000D01*
X157613273Y-55331884D01*
G37*
G36*
X138563273Y-55331884D02*
G01*
X138695734Y-55358232D01*
X138905203Y-55444997D01*
X139093720Y-55570960D01*
X139254040Y-55731280D01*
X139380003Y-55919797D01*
X139465641Y-56126544D01*
X139466768Y-56129267D01*
X139508832Y-56340734D01*
X139511000Y-56351636D01*
X139511000Y-56578364D01*
X139466768Y-56800734D01*
X139380003Y-57010203D01*
X139254040Y-57198720D01*
X139093720Y-57359040D01*
X138905203Y-57485003D01*
X138695734Y-57571768D01*
X138584549Y-57593884D01*
X138473365Y-57616000D01*
X138246635Y-57616000D01*
X138135451Y-57593884D01*
X138024266Y-57571768D01*
X137814797Y-57485003D01*
X137626280Y-57359040D01*
X137465960Y-57198720D01*
X137339997Y-57010203D01*
X137253232Y-56800734D01*
X137209000Y-56578364D01*
X137209000Y-56351636D01*
X137211169Y-56340734D01*
X137253232Y-56129267D01*
X137254360Y-56126544D01*
X137339997Y-55919797D01*
X137465960Y-55731280D01*
X137626280Y-55570960D01*
X137814797Y-55444997D01*
X138024266Y-55358232D01*
X138156727Y-55331884D01*
X138246635Y-55314000D01*
X138473365Y-55314000D01*
X138563273Y-55331884D01*
G37*
G36*
X113173911Y-54874000D02*
G01*
X113295734Y-54898232D01*
X113505203Y-54984997D01*
X113693720Y-55110960D01*
X113854040Y-55271280D01*
X113980003Y-55459797D01*
X114066768Y-55669266D01*
X114081350Y-55742573D01*
X114111000Y-55891635D01*
X114111000Y-56118365D01*
X114108831Y-56129267D01*
X114066768Y-56340734D01*
X113980003Y-56550203D01*
X113854040Y-56738720D01*
X113693720Y-56899040D01*
X113505203Y-57025003D01*
X113295734Y-57111768D01*
X113219127Y-57127006D01*
X113073365Y-57156000D01*
X112846635Y-57156000D01*
X112700873Y-57127006D01*
X112624266Y-57111768D01*
X112414797Y-57025003D01*
X112226280Y-56899040D01*
X112065960Y-56738720D01*
X111939997Y-56550203D01*
X111853232Y-56340734D01*
X111811169Y-56129267D01*
X111809000Y-56118365D01*
X111809000Y-55891635D01*
X111838650Y-55742573D01*
X111853232Y-55669266D01*
X111939997Y-55459797D01*
X112065960Y-55271280D01*
X112226280Y-55110960D01*
X112414797Y-54984997D01*
X112624266Y-54898232D01*
X112746089Y-54874000D01*
X112846635Y-54854000D01*
X113073365Y-54854000D01*
X113173911Y-54874000D01*
G37*
G36*
X135148254Y-51952818D02*
G01*
X135521511Y-52107426D01*
X135521513Y-52107427D01*
X135857436Y-52331884D01*
X136143116Y-52617564D01*
X136226645Y-52742573D01*
X136367574Y-52953489D01*
X136522182Y-53326746D01*
X136601000Y-53722993D01*
X136601000Y-54127007D01*
X136522182Y-54523254D01*
X136376898Y-54874000D01*
X136367573Y-54896513D01*
X136143116Y-55232436D01*
X135857436Y-55518116D01*
X135521513Y-55742573D01*
X135521512Y-55742574D01*
X135521511Y-55742574D01*
X135148254Y-55897182D01*
X134752007Y-55976000D01*
X134347993Y-55976000D01*
X133951746Y-55897182D01*
X133578489Y-55742574D01*
X133578488Y-55742574D01*
X133578487Y-55742573D01*
X133242564Y-55518116D01*
X132956884Y-55232436D01*
X132732427Y-54896513D01*
X132723102Y-54874000D01*
X132577818Y-54523254D01*
X132499000Y-54127007D01*
X132499000Y-53722993D01*
X132577818Y-53326746D01*
X132732426Y-52953489D01*
X132873356Y-52742573D01*
X132956884Y-52617564D01*
X133242564Y-52331884D01*
X133578487Y-52107427D01*
X133578489Y-52107426D01*
X133951746Y-51952818D01*
X134347993Y-51874000D01*
X134752007Y-51874000D01*
X135148254Y-51952818D01*
G37*
G36*
X154198254Y-51952818D02*
G01*
X154571511Y-52107426D01*
X154571513Y-52107427D01*
X154907436Y-52331884D01*
X155193116Y-52617564D01*
X155276645Y-52742573D01*
X155417574Y-52953489D01*
X155572182Y-53326746D01*
X155651000Y-53722993D01*
X155651000Y-54127007D01*
X155572182Y-54523254D01*
X155426898Y-54874000D01*
X155417573Y-54896513D01*
X155193116Y-55232436D01*
X154907436Y-55518116D01*
X154571513Y-55742573D01*
X154571512Y-55742574D01*
X154571511Y-55742574D01*
X154198254Y-55897182D01*
X153802007Y-55976000D01*
X153397993Y-55976000D01*
X153001746Y-55897182D01*
X152628489Y-55742574D01*
X152628488Y-55742574D01*
X152628487Y-55742573D01*
X152292564Y-55518116D01*
X152006884Y-55232436D01*
X151782427Y-54896513D01*
X151773102Y-54874000D01*
X151627818Y-54523254D01*
X151549000Y-54127007D01*
X151549000Y-53722993D01*
X151627818Y-53326746D01*
X151782426Y-52953489D01*
X151923356Y-52742573D01*
X152006884Y-52617564D01*
X152292564Y-52331884D01*
X152628487Y-52107427D01*
X152628489Y-52107426D01*
X153001746Y-51952818D01*
X153397993Y-51874000D01*
X153802007Y-51874000D01*
X154198254Y-51952818D01*
G37*
G36*
X81387438Y-53326745D02*
G01*
X81545734Y-53358232D01*
X81755203Y-53444997D01*
X81943720Y-53570960D01*
X82104040Y-53731280D01*
X82230003Y-53919797D01*
X82316768Y-54129266D01*
X82361000Y-54351636D01*
X82361000Y-54578364D01*
X82316768Y-54800734D01*
X82230003Y-55010203D01*
X82104040Y-55198720D01*
X81943720Y-55359040D01*
X81755203Y-55485003D01*
X81545734Y-55571768D01*
X81434549Y-55593884D01*
X81323365Y-55616000D01*
X81096635Y-55616000D01*
X80985451Y-55593884D01*
X80874266Y-55571768D01*
X80664797Y-55485003D01*
X80476280Y-55359040D01*
X80315960Y-55198720D01*
X80189997Y-55010203D01*
X80103232Y-54800734D01*
X80059000Y-54578364D01*
X80059000Y-54351636D01*
X80103232Y-54129266D01*
X80189997Y-53919797D01*
X80315960Y-53731280D01*
X80476280Y-53570960D01*
X80664797Y-53444997D01*
X80874266Y-53358232D01*
X81032562Y-53326745D01*
X81096635Y-53314000D01*
X81323365Y-53314000D01*
X81387438Y-53326745D01*
G37*
G36*
X129583512Y-53028927D02*
G01*
X129732812Y-53058624D01*
X129896784Y-53126544D01*
X130044354Y-53225147D01*
X130169853Y-53350646D01*
X130268456Y-53498216D01*
X130336376Y-53662188D01*
X130371000Y-53836259D01*
X130371000Y-54013741D01*
X130336376Y-54187812D01*
X130268456Y-54351784D01*
X130169853Y-54499354D01*
X130044354Y-54624853D01*
X129896784Y-54723456D01*
X129732812Y-54791376D01*
X129583512Y-54821073D01*
X129558742Y-54826000D01*
X129381258Y-54826000D01*
X129356488Y-54821073D01*
X129207188Y-54791376D01*
X129043216Y-54723456D01*
X128895646Y-54624853D01*
X128770147Y-54499354D01*
X128671544Y-54351784D01*
X128603624Y-54187812D01*
X128569000Y-54013741D01*
X128569000Y-53836259D01*
X128603624Y-53662188D01*
X128671544Y-53498216D01*
X128770147Y-53350646D01*
X128895646Y-53225147D01*
X129043216Y-53126544D01*
X129207188Y-53058624D01*
X129356488Y-53028927D01*
X129381258Y-53024000D01*
X129558742Y-53024000D01*
X129583512Y-53028927D01*
G37*
G36*
X158793512Y-53028927D02*
G01*
X158942812Y-53058624D01*
X159106784Y-53126544D01*
X159254354Y-53225147D01*
X159379853Y-53350646D01*
X159478456Y-53498216D01*
X159546376Y-53662188D01*
X159581000Y-53836259D01*
X159581000Y-54013741D01*
X159546376Y-54187812D01*
X159478456Y-54351784D01*
X159379853Y-54499354D01*
X159254354Y-54624853D01*
X159106784Y-54723456D01*
X158942812Y-54791376D01*
X158793512Y-54821073D01*
X158768742Y-54826000D01*
X158591258Y-54826000D01*
X158566488Y-54821073D01*
X158417188Y-54791376D01*
X158253216Y-54723456D01*
X158105646Y-54624853D01*
X157980147Y-54499354D01*
X157881544Y-54351784D01*
X157813624Y-54187812D01*
X157779000Y-54013741D01*
X157779000Y-53836259D01*
X157813624Y-53662188D01*
X157881544Y-53498216D01*
X157980147Y-53350646D01*
X158105646Y-53225147D01*
X158253216Y-53126544D01*
X158417188Y-53058624D01*
X158566488Y-53028927D01*
X158591258Y-53024000D01*
X158768742Y-53024000D01*
X158793512Y-53028927D01*
G37*
G36*
X148633512Y-53028927D02*
G01*
X148782812Y-53058624D01*
X148946784Y-53126544D01*
X149094354Y-53225147D01*
X149219853Y-53350646D01*
X149318456Y-53498216D01*
X149386376Y-53662188D01*
X149421000Y-53836259D01*
X149421000Y-54013741D01*
X149386376Y-54187812D01*
X149318456Y-54351784D01*
X149219853Y-54499354D01*
X149094354Y-54624853D01*
X148946784Y-54723456D01*
X148782812Y-54791376D01*
X148633512Y-54821073D01*
X148608742Y-54826000D01*
X148431258Y-54826000D01*
X148406488Y-54821073D01*
X148257188Y-54791376D01*
X148093216Y-54723456D01*
X147945646Y-54624853D01*
X147820147Y-54499354D01*
X147721544Y-54351784D01*
X147653624Y-54187812D01*
X147619000Y-54013741D01*
X147619000Y-53836259D01*
X147653624Y-53662188D01*
X147721544Y-53498216D01*
X147820147Y-53350646D01*
X147945646Y-53225147D01*
X148093216Y-53126544D01*
X148257188Y-53058624D01*
X148406488Y-53028927D01*
X148431258Y-53024000D01*
X148608742Y-53024000D01*
X148633512Y-53028927D01*
G37*
G36*
X139743512Y-53028927D02*
G01*
X139892812Y-53058624D01*
X140056784Y-53126544D01*
X140204354Y-53225147D01*
X140329853Y-53350646D01*
X140428456Y-53498216D01*
X140496376Y-53662188D01*
X140531000Y-53836259D01*
X140531000Y-54013741D01*
X140496376Y-54187812D01*
X140428456Y-54351784D01*
X140329853Y-54499354D01*
X140204354Y-54624853D01*
X140056784Y-54723456D01*
X139892812Y-54791376D01*
X139743512Y-54821073D01*
X139718742Y-54826000D01*
X139541258Y-54826000D01*
X139516488Y-54821073D01*
X139367188Y-54791376D01*
X139203216Y-54723456D01*
X139055646Y-54624853D01*
X138930147Y-54499354D01*
X138831544Y-54351784D01*
X138763624Y-54187812D01*
X138729000Y-54013741D01*
X138729000Y-53836259D01*
X138763624Y-53662188D01*
X138831544Y-53498216D01*
X138930147Y-53350646D01*
X139055646Y-53225147D01*
X139203216Y-53126544D01*
X139367188Y-53058624D01*
X139516488Y-53028927D01*
X139541258Y-53024000D01*
X139718742Y-53024000D01*
X139743512Y-53028927D01*
G37*
G36*
X119513273Y-52331884D02*
G01*
X119645734Y-52358232D01*
X119855203Y-52444997D01*
X120043720Y-52570960D01*
X120204040Y-52731280D01*
X120330003Y-52919797D01*
X120416768Y-53129266D01*
X120461000Y-53351636D01*
X120461000Y-53578364D01*
X120416768Y-53800734D01*
X120330003Y-54010203D01*
X120204040Y-54198720D01*
X120043720Y-54359040D01*
X119855203Y-54485003D01*
X119645734Y-54571768D01*
X119534549Y-54593884D01*
X119423365Y-54616000D01*
X119196635Y-54616000D01*
X119085451Y-54593884D01*
X118974266Y-54571768D01*
X118764797Y-54485003D01*
X118576280Y-54359040D01*
X118415960Y-54198720D01*
X118289997Y-54010203D01*
X118203232Y-53800734D01*
X118159000Y-53578364D01*
X118159000Y-53351636D01*
X118203232Y-53129266D01*
X118289997Y-52919797D01*
X118415960Y-52731280D01*
X118576280Y-52570960D01*
X118764797Y-52444997D01*
X118974266Y-52358232D01*
X119106727Y-52331884D01*
X119196635Y-52314000D01*
X119423365Y-52314000D01*
X119513273Y-52331884D01*
G37*
G36*
X77998254Y-49952818D02*
G01*
X78371511Y-50107426D01*
X78371513Y-50107427D01*
X78707436Y-50331884D01*
X78993116Y-50617564D01*
X79176245Y-50891635D01*
X79217574Y-50953489D01*
X79372182Y-51326746D01*
X79451000Y-51722993D01*
X79451000Y-52127007D01*
X79372182Y-52523254D01*
X79217574Y-52896511D01*
X79217573Y-52896513D01*
X78993116Y-53232436D01*
X78707436Y-53518116D01*
X78371513Y-53742573D01*
X78371512Y-53742574D01*
X78371511Y-53742574D01*
X77998254Y-53897182D01*
X77602007Y-53976000D01*
X77197993Y-53976000D01*
X76801746Y-53897182D01*
X76428489Y-53742574D01*
X76428488Y-53742574D01*
X76428487Y-53742573D01*
X76092564Y-53518116D01*
X75806884Y-53232436D01*
X75582427Y-52896513D01*
X75582426Y-52896511D01*
X75427818Y-52523254D01*
X75349000Y-52127007D01*
X75349000Y-51722993D01*
X75427818Y-51326746D01*
X75582426Y-50953489D01*
X75623756Y-50891635D01*
X75806884Y-50617564D01*
X76092564Y-50331884D01*
X76428487Y-50107427D01*
X76428489Y-50107426D01*
X76801746Y-49952818D01*
X77197993Y-49874000D01*
X77602007Y-49874000D01*
X77998254Y-49952818D01*
G37*
G36*
X116098254Y-48952818D02*
G01*
X116471511Y-49107426D01*
X116471513Y-49107427D01*
X116807436Y-49331884D01*
X117093116Y-49617564D01*
X117317127Y-49952819D01*
X117317574Y-49953489D01*
X117472182Y-50326746D01*
X117551000Y-50722993D01*
X117551000Y-51127007D01*
X117472182Y-51523254D01*
X117342531Y-51836259D01*
X117317573Y-51896513D01*
X117093116Y-52232436D01*
X116807436Y-52518116D01*
X116471513Y-52742573D01*
X116471512Y-52742574D01*
X116471511Y-52742574D01*
X116098254Y-52897182D01*
X115702007Y-52976000D01*
X115297993Y-52976000D01*
X114901746Y-52897182D01*
X114528489Y-52742574D01*
X114528488Y-52742574D01*
X114528487Y-52742573D01*
X114192564Y-52518116D01*
X113906884Y-52232436D01*
X113682427Y-51896513D01*
X113657469Y-51836259D01*
X113527818Y-51523254D01*
X113449000Y-51127007D01*
X113449000Y-50722993D01*
X113527818Y-50326746D01*
X113682426Y-49953489D01*
X113682874Y-49952819D01*
X113906884Y-49617564D01*
X114192564Y-49331884D01*
X114528487Y-49107427D01*
X114528489Y-49107426D01*
X114901746Y-48952818D01*
X115297993Y-48874000D01*
X115702007Y-48874000D01*
X116098254Y-48952818D01*
G37*
G36*
X82593512Y-51028927D02*
G01*
X82742812Y-51058624D01*
X82906784Y-51126544D01*
X83054354Y-51225147D01*
X83179853Y-51350646D01*
X83278456Y-51498216D01*
X83346376Y-51662188D01*
X83372072Y-51791375D01*
X83378960Y-51826000D01*
X83381000Y-51836259D01*
X83381000Y-52013741D01*
X83346376Y-52187812D01*
X83278456Y-52351784D01*
X83179853Y-52499354D01*
X83054354Y-52624853D01*
X82906784Y-52723456D01*
X82742812Y-52791376D01*
X82593512Y-52821073D01*
X82568742Y-52826000D01*
X82391258Y-52826000D01*
X82366488Y-52821073D01*
X82217188Y-52791376D01*
X82053216Y-52723456D01*
X81905646Y-52624853D01*
X81780147Y-52499354D01*
X81681544Y-52351784D01*
X81613624Y-52187812D01*
X81579000Y-52013741D01*
X81579000Y-51836259D01*
X81581041Y-51826000D01*
X81587928Y-51791375D01*
X81613624Y-51662188D01*
X81681544Y-51498216D01*
X81780147Y-51350646D01*
X81905646Y-51225147D01*
X82053216Y-51126544D01*
X82217188Y-51058624D01*
X82366488Y-51028927D01*
X82391258Y-51024000D01*
X82568742Y-51024000D01*
X82593512Y-51028927D01*
G37*
G36*
X72433512Y-51028927D02*
G01*
X72582812Y-51058624D01*
X72746784Y-51126544D01*
X72894354Y-51225147D01*
X73019853Y-51350646D01*
X73118456Y-51498216D01*
X73186376Y-51662188D01*
X73212072Y-51791375D01*
X73218960Y-51826000D01*
X73221000Y-51836259D01*
X73221000Y-52013741D01*
X73186376Y-52187812D01*
X73118456Y-52351784D01*
X73019853Y-52499354D01*
X72894354Y-52624853D01*
X72746784Y-52723456D01*
X72582812Y-52791376D01*
X72433512Y-52821073D01*
X72408742Y-52826000D01*
X72231258Y-52826000D01*
X72206488Y-52821073D01*
X72057188Y-52791376D01*
X71893216Y-52723456D01*
X71745646Y-52624853D01*
X71620147Y-52499354D01*
X71521544Y-52351784D01*
X71453624Y-52187812D01*
X71419000Y-52013741D01*
X71419000Y-51836259D01*
X71421041Y-51826000D01*
X71427928Y-51791375D01*
X71453624Y-51662188D01*
X71521544Y-51498216D01*
X71620147Y-51350646D01*
X71745646Y-51225147D01*
X71893216Y-51126544D01*
X72057188Y-51058624D01*
X72206488Y-51028927D01*
X72231258Y-51024000D01*
X72408742Y-51024000D01*
X72433512Y-51028927D01*
G37*
G36*
X94123911Y-49874000D02*
G01*
X94245734Y-49898232D01*
X94455203Y-49984997D01*
X94643720Y-50110960D01*
X94804040Y-50271280D01*
X94930003Y-50459797D01*
X95016768Y-50669266D01*
X95061000Y-50891636D01*
X95061000Y-51118364D01*
X95016768Y-51340734D01*
X94930003Y-51550203D01*
X94804040Y-51738720D01*
X94643720Y-51899040D01*
X94455203Y-52025003D01*
X94245734Y-52111768D01*
X94169127Y-52127006D01*
X94023365Y-52156000D01*
X93796635Y-52156000D01*
X93650873Y-52127006D01*
X93574266Y-52111768D01*
X93364797Y-52025003D01*
X93176280Y-51899040D01*
X93015960Y-51738720D01*
X92889997Y-51550203D01*
X92803232Y-51340734D01*
X92759000Y-51118364D01*
X92759000Y-50891636D01*
X92803232Y-50669266D01*
X92889997Y-50459797D01*
X93015960Y-50271280D01*
X93176280Y-50110960D01*
X93364797Y-49984997D01*
X93574266Y-49898232D01*
X93696089Y-49874000D01*
X93796635Y-49854000D01*
X94023365Y-49854000D01*
X94123911Y-49874000D01*
G37*
G36*
X110533512Y-50028927D02*
G01*
X110682812Y-50058624D01*
X110846784Y-50126544D01*
X110994354Y-50225147D01*
X111119853Y-50350646D01*
X111218456Y-50498216D01*
X111286376Y-50662188D01*
X111316073Y-50811488D01*
X111321000Y-50836258D01*
X111321000Y-51013742D01*
X111316073Y-51038512D01*
X111286376Y-51187812D01*
X111218456Y-51351784D01*
X111119853Y-51499354D01*
X110994354Y-51624853D01*
X110846784Y-51723456D01*
X110682812Y-51791376D01*
X110533512Y-51821073D01*
X110508742Y-51826000D01*
X110331258Y-51826000D01*
X110306488Y-51821073D01*
X110157188Y-51791376D01*
X109993216Y-51723456D01*
X109845646Y-51624853D01*
X109720147Y-51499354D01*
X109621544Y-51351784D01*
X109553624Y-51187812D01*
X109523927Y-51038512D01*
X109519000Y-51013742D01*
X109519000Y-50836258D01*
X109523927Y-50811488D01*
X109553624Y-50662188D01*
X109621544Y-50498216D01*
X109720147Y-50350646D01*
X109845646Y-50225147D01*
X109993216Y-50126544D01*
X110157188Y-50058624D01*
X110306488Y-50028927D01*
X110331258Y-50024000D01*
X110508742Y-50024000D01*
X110533512Y-50028927D01*
G37*
G36*
X120693512Y-50028927D02*
G01*
X120842812Y-50058624D01*
X121006784Y-50126544D01*
X121154354Y-50225147D01*
X121279853Y-50350646D01*
X121378456Y-50498216D01*
X121446376Y-50662188D01*
X121476073Y-50811488D01*
X121481000Y-50836258D01*
X121481000Y-51013742D01*
X121476073Y-51038512D01*
X121446376Y-51187812D01*
X121378456Y-51351784D01*
X121279853Y-51499354D01*
X121154354Y-51624853D01*
X121006784Y-51723456D01*
X120842812Y-51791376D01*
X120693512Y-51821073D01*
X120668742Y-51826000D01*
X120491258Y-51826000D01*
X120466488Y-51821073D01*
X120317188Y-51791376D01*
X120153216Y-51723456D01*
X120005646Y-51624853D01*
X119880147Y-51499354D01*
X119781544Y-51351784D01*
X119713624Y-51187812D01*
X119683927Y-51038512D01*
X119679000Y-51013742D01*
X119679000Y-50836258D01*
X119683927Y-50811488D01*
X119713624Y-50662188D01*
X119781544Y-50498216D01*
X119880147Y-50350646D01*
X120005646Y-50225147D01*
X120153216Y-50126544D01*
X120317188Y-50058624D01*
X120466488Y-50028927D01*
X120491258Y-50024000D01*
X120668742Y-50024000D01*
X120693512Y-50028927D01*
G37*
G36*
X100484549Y-47336116D02*
G01*
X100595734Y-47358232D01*
X100805203Y-47444997D01*
X100993720Y-47570960D01*
X101154040Y-47731280D01*
X101280003Y-47919797D01*
X101366768Y-48129266D01*
X101411000Y-48351636D01*
X101411000Y-48578364D01*
X101366768Y-48800734D01*
X101280003Y-49010203D01*
X101154040Y-49198720D01*
X100993720Y-49359040D01*
X100805203Y-49485003D01*
X100595734Y-49571768D01*
X100484549Y-49593884D01*
X100373365Y-49616000D01*
X100146635Y-49616000D01*
X100035451Y-49593884D01*
X99924266Y-49571768D01*
X99714797Y-49485003D01*
X99526280Y-49359040D01*
X99365960Y-49198720D01*
X99239997Y-49010203D01*
X99153232Y-48800734D01*
X99109000Y-48578364D01*
X99109000Y-48351636D01*
X99153232Y-48129266D01*
X99239997Y-47919797D01*
X99365960Y-47731280D01*
X99526280Y-47570960D01*
X99714797Y-47444997D01*
X99924266Y-47358232D01*
X100035451Y-47336116D01*
X100146635Y-47314000D01*
X100373365Y-47314000D01*
X100484549Y-47336116D01*
G37*
G36*
X97048254Y-43952818D02*
G01*
X97418068Y-44106000D01*
X97421513Y-44107427D01*
X97541057Y-44187304D01*
X97757436Y-44331884D01*
X98043116Y-44617564D01*
X98267574Y-44953489D01*
X98422182Y-45326746D01*
X98501000Y-45722993D01*
X98501000Y-46127007D01*
X98422182Y-46523254D01*
X98267574Y-46896511D01*
X98267573Y-46896513D01*
X98043116Y-47232436D01*
X97757436Y-47518116D01*
X97421513Y-47742573D01*
X97421512Y-47742574D01*
X97421511Y-47742574D01*
X97048254Y-47897182D01*
X96652007Y-47976000D01*
X96247993Y-47976000D01*
X95851746Y-47897182D01*
X95478489Y-47742574D01*
X95478488Y-47742574D01*
X95478487Y-47742573D01*
X95142564Y-47518116D01*
X94856884Y-47232436D01*
X94632427Y-46896513D01*
X94632426Y-46896511D01*
X94477818Y-46523254D01*
X94399000Y-46127007D01*
X94399000Y-45722993D01*
X94477818Y-45326746D01*
X94632426Y-44953489D01*
X94856884Y-44617564D01*
X95142564Y-44331884D01*
X95358943Y-44187304D01*
X95478487Y-44107427D01*
X95481932Y-44106000D01*
X95851746Y-43952818D01*
X96247993Y-43874000D01*
X96652007Y-43874000D01*
X97048254Y-43952818D01*
G37*
G36*
X91483512Y-45028927D02*
G01*
X91632812Y-45058624D01*
X91796784Y-45126544D01*
X91944354Y-45225147D01*
X92069853Y-45350646D01*
X92168456Y-45498216D01*
X92236376Y-45662188D01*
X92271000Y-45836259D01*
X92271000Y-46013741D01*
X92236376Y-46187812D01*
X92168456Y-46351784D01*
X92069853Y-46499354D01*
X91944354Y-46624853D01*
X91796784Y-46723456D01*
X91632812Y-46791376D01*
X91483512Y-46821073D01*
X91458742Y-46826000D01*
X91281258Y-46826000D01*
X91256488Y-46821073D01*
X91107188Y-46791376D01*
X90943216Y-46723456D01*
X90795646Y-46624853D01*
X90670147Y-46499354D01*
X90571544Y-46351784D01*
X90503624Y-46187812D01*
X90469000Y-46013741D01*
X90469000Y-45836259D01*
X90503624Y-45662188D01*
X90571544Y-45498216D01*
X90670147Y-45350646D01*
X90795646Y-45225147D01*
X90943216Y-45126544D01*
X91107188Y-45058624D01*
X91256488Y-45028927D01*
X91281258Y-45024000D01*
X91458742Y-45024000D01*
X91483512Y-45028927D01*
G37*
G36*
X101643512Y-45028927D02*
G01*
X101792812Y-45058624D01*
X101956784Y-45126544D01*
X102104354Y-45225147D01*
X102229853Y-45350646D01*
X102328456Y-45498216D01*
X102396376Y-45662188D01*
X102431000Y-45836259D01*
X102431000Y-46013741D01*
X102396376Y-46187812D01*
X102328456Y-46351784D01*
X102229853Y-46499354D01*
X102104354Y-46624853D01*
X101956784Y-46723456D01*
X101792812Y-46791376D01*
X101643512Y-46821073D01*
X101618742Y-46826000D01*
X101441258Y-46826000D01*
X101416488Y-46821073D01*
X101267188Y-46791376D01*
X101103216Y-46723456D01*
X100955646Y-46624853D01*
X100830147Y-46499354D01*
X100731544Y-46351784D01*
X100663624Y-46187812D01*
X100629000Y-46013741D01*
X100629000Y-45836259D01*
X100663624Y-45662188D01*
X100731544Y-45498216D01*
X100830147Y-45350646D01*
X100955646Y-45225147D01*
X101103216Y-45126544D01*
X101267188Y-45058624D01*
X101416488Y-45028927D01*
X101441258Y-45024000D01*
X101618742Y-45024000D01*
X101643512Y-45028927D01*
G37*
G36*
X144523903Y-42143213D02*
G01*
X144746177Y-42187426D01*
X145164932Y-42360880D01*
X145541802Y-42612696D01*
X145862304Y-42933198D01*
X146114120Y-43310068D01*
X146287574Y-43728823D01*
X146376000Y-44173371D01*
X146376000Y-44626629D01*
X146287574Y-45071177D01*
X146114120Y-45489932D01*
X145862304Y-45866802D01*
X145541802Y-46187304D01*
X145164932Y-46439120D01*
X144746177Y-46612574D01*
X144684451Y-46624852D01*
X144301630Y-46701000D01*
X143848370Y-46701000D01*
X143465549Y-46624852D01*
X143403823Y-46612574D01*
X142985068Y-46439120D01*
X142608198Y-46187304D01*
X142287696Y-45866802D01*
X142035880Y-45489932D01*
X141862426Y-45071177D01*
X141774000Y-44626629D01*
X141774000Y-44173371D01*
X141862426Y-43728823D01*
X142035880Y-43310068D01*
X142287696Y-42933198D01*
X142608198Y-42612696D01*
X142985068Y-42360880D01*
X143403823Y-42187426D01*
X143626097Y-42143213D01*
X143848370Y-42099000D01*
X144301630Y-42099000D01*
X144523903Y-42143213D01*
G37*
G36*
X68323903Y-40143213D02*
G01*
X68546177Y-40187426D01*
X68964932Y-40360880D01*
X69341802Y-40612696D01*
X69662304Y-40933198D01*
X69914120Y-41310068D01*
X70087574Y-41728823D01*
X70131787Y-41951097D01*
X70176000Y-42173370D01*
X70176000Y-42626630D01*
X70131787Y-42848903D01*
X70087574Y-43071177D01*
X69914120Y-43489932D01*
X69662304Y-43866802D01*
X69341802Y-44187304D01*
X68964932Y-44439120D01*
X68546177Y-44612574D01*
X68323903Y-44656787D01*
X68101630Y-44701000D01*
X67648370Y-44701000D01*
X67426097Y-44656787D01*
X67203823Y-44612574D01*
X66785068Y-44439120D01*
X66408198Y-44187304D01*
X66087696Y-43866802D01*
X65835880Y-43489932D01*
X65662426Y-43071177D01*
X65618213Y-42848903D01*
X65574000Y-42626630D01*
X65574000Y-42173370D01*
X65618213Y-41951097D01*
X65662426Y-41728823D01*
X65835880Y-41310068D01*
X66087696Y-40933198D01*
X66408198Y-40612696D01*
X66785068Y-40360880D01*
X67203823Y-40187426D01*
X67426097Y-40143213D01*
X67648370Y-40099000D01*
X68101630Y-40099000D01*
X68323903Y-40143213D01*
G37*
G36*
X56034549Y-41826116D02*
G01*
X56145734Y-41848232D01*
X56355203Y-41934997D01*
X56543720Y-42060960D01*
X56704040Y-42221280D01*
X56830003Y-42409797D01*
X56916768Y-42619266D01*
X56918233Y-42626630D01*
X56961000Y-42841635D01*
X56961000Y-43068365D01*
X56938884Y-43179549D01*
X56916768Y-43290734D01*
X56855416Y-43438850D01*
X56834258Y-43489932D01*
X56830003Y-43500203D01*
X56704040Y-43688720D01*
X56543720Y-43849040D01*
X56355203Y-43975003D01*
X56145734Y-44061768D01*
X56034549Y-44083884D01*
X55923365Y-44106000D01*
X55696635Y-44106000D01*
X55585451Y-44083884D01*
X55474266Y-44061768D01*
X55264797Y-43975003D01*
X55076280Y-43849040D01*
X54915960Y-43688720D01*
X54789997Y-43500203D01*
X54785743Y-43489932D01*
X54764584Y-43438850D01*
X54703232Y-43290734D01*
X54681116Y-43179549D01*
X54659000Y-43068365D01*
X54659000Y-42841635D01*
X54701767Y-42626630D01*
X54703232Y-42619266D01*
X54789997Y-42409797D01*
X54915960Y-42221280D01*
X55076280Y-42060960D01*
X55264797Y-41934997D01*
X55474266Y-41848232D01*
X55585451Y-41826116D01*
X55696635Y-41804000D01*
X55923365Y-41804000D01*
X56034549Y-41826116D01*
G37*
G36*
X62384549Y-39286116D02*
G01*
X62495734Y-39308232D01*
X62705203Y-39394997D01*
X62893720Y-39520960D01*
X63054040Y-39681280D01*
X63180003Y-39869797D01*
X63262253Y-40068365D01*
X63266768Y-40079267D01*
X63308832Y-40290734D01*
X63311000Y-40301636D01*
X63311000Y-40528364D01*
X63279104Y-40688719D01*
X63266768Y-40750733D01*
X63191189Y-40933199D01*
X63180003Y-40960203D01*
X63054040Y-41148720D01*
X62893720Y-41309040D01*
X62705203Y-41435003D01*
X62495734Y-41521768D01*
X62384549Y-41543884D01*
X62273365Y-41566000D01*
X62046635Y-41566000D01*
X61935451Y-41543884D01*
X61824266Y-41521768D01*
X61614797Y-41435003D01*
X61426280Y-41309040D01*
X61265960Y-41148720D01*
X61139997Y-40960203D01*
X61128812Y-40933199D01*
X61053232Y-40750733D01*
X61040897Y-40688719D01*
X61009000Y-40528364D01*
X61009000Y-40301636D01*
X61011169Y-40290734D01*
X61053232Y-40079267D01*
X61057748Y-40068365D01*
X61139997Y-39869797D01*
X61265960Y-39681280D01*
X61426280Y-39520960D01*
X61614797Y-39394997D01*
X61824266Y-39308232D01*
X61935451Y-39286116D01*
X62046635Y-39264000D01*
X62273365Y-39264000D01*
X62384549Y-39286116D01*
G37*
G36*
X151284549Y-38826116D02*
G01*
X151395734Y-38848232D01*
X151605203Y-38934997D01*
X151793720Y-39060960D01*
X151954040Y-39221280D01*
X152080003Y-39409797D01*
X152166768Y-39619266D01*
X152181350Y-39692573D01*
X152211000Y-39841635D01*
X152211000Y-40068365D01*
X152208831Y-40079267D01*
X152166768Y-40290734D01*
X152080003Y-40500203D01*
X151954040Y-40688720D01*
X151793720Y-40849040D01*
X151605203Y-40975003D01*
X151395734Y-41061768D01*
X151284549Y-41083884D01*
X151173365Y-41106000D01*
X150946635Y-41106000D01*
X150835451Y-41083884D01*
X150724266Y-41061768D01*
X150514797Y-40975003D01*
X150326280Y-40849040D01*
X150165960Y-40688720D01*
X150039997Y-40500203D01*
X149953232Y-40290734D01*
X149911169Y-40079267D01*
X149909000Y-40068365D01*
X149909000Y-39841635D01*
X149938650Y-39692573D01*
X149953232Y-39619266D01*
X150039997Y-39409797D01*
X150165960Y-39221280D01*
X150326280Y-39060960D01*
X150514797Y-38934997D01*
X150724266Y-38848232D01*
X150835451Y-38826116D01*
X150946635Y-38804000D01*
X151173365Y-38804000D01*
X151284549Y-38826116D01*
G37*
G36*
X132234549Y-38826116D02*
G01*
X132345734Y-38848232D01*
X132555203Y-38934997D01*
X132743720Y-39060960D01*
X132904040Y-39221280D01*
X133030003Y-39409797D01*
X133116768Y-39619266D01*
X133131350Y-39692573D01*
X133161000Y-39841635D01*
X133161000Y-40068365D01*
X133158831Y-40079267D01*
X133116768Y-40290734D01*
X133030003Y-40500203D01*
X132904040Y-40688720D01*
X132743720Y-40849040D01*
X132555203Y-40975003D01*
X132345734Y-41061768D01*
X132234549Y-41083884D01*
X132123365Y-41106000D01*
X131896635Y-41106000D01*
X131785451Y-41083884D01*
X131674266Y-41061768D01*
X131464797Y-40975003D01*
X131276280Y-40849040D01*
X131115960Y-40688720D01*
X130989997Y-40500203D01*
X130903232Y-40290734D01*
X130861169Y-40079267D01*
X130859000Y-40068365D01*
X130859000Y-39841635D01*
X130888650Y-39692573D01*
X130903232Y-39619266D01*
X130989997Y-39409797D01*
X131115960Y-39221280D01*
X131276280Y-39060960D01*
X131464797Y-38934997D01*
X131674266Y-38848232D01*
X131785451Y-38826116D01*
X131896635Y-38804000D01*
X132123365Y-38804000D01*
X132234549Y-38826116D01*
G37*
G36*
X58948254Y-35902818D02*
G01*
X59321511Y-36057426D01*
X59321513Y-36057427D01*
X59657436Y-36281884D01*
X59943116Y-36567564D01*
X60130653Y-36848232D01*
X60167574Y-36903489D01*
X60322182Y-37276746D01*
X60401000Y-37672993D01*
X60401000Y-38077007D01*
X60322182Y-38473254D01*
X60167574Y-38846511D01*
X60167573Y-38846513D01*
X59943116Y-39182436D01*
X59657436Y-39468116D01*
X59321513Y-39692573D01*
X59321512Y-39692574D01*
X59321511Y-39692574D01*
X58948254Y-39847182D01*
X58552007Y-39926000D01*
X58147993Y-39926000D01*
X57751746Y-39847182D01*
X57378489Y-39692574D01*
X57378488Y-39692574D01*
X57378487Y-39692573D01*
X57042564Y-39468116D01*
X56756884Y-39182436D01*
X56532427Y-38846513D01*
X56532426Y-38846511D01*
X56377818Y-38473254D01*
X56299000Y-38077007D01*
X56299000Y-37672993D01*
X56377818Y-37276746D01*
X56532426Y-36903489D01*
X56569348Y-36848232D01*
X56756884Y-36567564D01*
X57042564Y-36281884D01*
X57378487Y-36057427D01*
X57378489Y-36057426D01*
X57751746Y-35902818D01*
X58147993Y-35824000D01*
X58552007Y-35824000D01*
X58948254Y-35902818D01*
G37*
G36*
X75084549Y-36826116D02*
G01*
X75195734Y-36848232D01*
X75247796Y-36869797D01*
X75383483Y-36926000D01*
X75405203Y-36934997D01*
X75593720Y-37060960D01*
X75754040Y-37221280D01*
X75880003Y-37409797D01*
X75963837Y-37612189D01*
X75966768Y-37619267D01*
X76011000Y-37841635D01*
X76011000Y-38068365D01*
X75995016Y-38148720D01*
X75966768Y-38290734D01*
X75880003Y-38500203D01*
X75754040Y-38688720D01*
X75593720Y-38849040D01*
X75405203Y-38975003D01*
X75195734Y-39061768D01*
X75084549Y-39083884D01*
X74973365Y-39106000D01*
X74746635Y-39106000D01*
X74635451Y-39083884D01*
X74524266Y-39061768D01*
X74314797Y-38975003D01*
X74126280Y-38849040D01*
X73965960Y-38688720D01*
X73839997Y-38500203D01*
X73753232Y-38290734D01*
X73724984Y-38148720D01*
X73709000Y-38068365D01*
X73709000Y-37841635D01*
X73753232Y-37619267D01*
X73756164Y-37612189D01*
X73839997Y-37409797D01*
X73965960Y-37221280D01*
X74126280Y-37060960D01*
X74314797Y-36934997D01*
X74336518Y-36926000D01*
X74472204Y-36869797D01*
X74524266Y-36848232D01*
X74635451Y-36826116D01*
X74746635Y-36804000D01*
X74973365Y-36804000D01*
X75084549Y-36826116D01*
G37*
G36*
X53383512Y-36978927D02*
G01*
X53532812Y-37008624D01*
X53696784Y-37076544D01*
X53844354Y-37175147D01*
X53969853Y-37300646D01*
X54068456Y-37448216D01*
X54136376Y-37612188D01*
X54171000Y-37786259D01*
X54171000Y-37963741D01*
X54136376Y-38137812D01*
X54068456Y-38301784D01*
X53969853Y-38449354D01*
X53844354Y-38574853D01*
X53696784Y-38673456D01*
X53532812Y-38741376D01*
X53383512Y-38771073D01*
X53358742Y-38776000D01*
X53181258Y-38776000D01*
X53156488Y-38771073D01*
X53007188Y-38741376D01*
X52843216Y-38673456D01*
X52695646Y-38574853D01*
X52570147Y-38449354D01*
X52471544Y-38301784D01*
X52403624Y-38137812D01*
X52369000Y-37963741D01*
X52369000Y-37786259D01*
X52403624Y-37612188D01*
X52471544Y-37448216D01*
X52570147Y-37300646D01*
X52695646Y-37175147D01*
X52843216Y-37076544D01*
X53007188Y-37008624D01*
X53156488Y-36978927D01*
X53181258Y-36974000D01*
X53358742Y-36974000D01*
X53383512Y-36978927D01*
G37*
G36*
X63543512Y-36978927D02*
G01*
X63692812Y-37008624D01*
X63856784Y-37076544D01*
X64004354Y-37175147D01*
X64129853Y-37300646D01*
X64228456Y-37448216D01*
X64296376Y-37612188D01*
X64331000Y-37786259D01*
X64331000Y-37963741D01*
X64296376Y-38137812D01*
X64228456Y-38301784D01*
X64129853Y-38449354D01*
X64004354Y-38574853D01*
X63856784Y-38673456D01*
X63692812Y-38741376D01*
X63543512Y-38771073D01*
X63518742Y-38776000D01*
X63341258Y-38776000D01*
X63316488Y-38771073D01*
X63167188Y-38741376D01*
X63003216Y-38673456D01*
X62855646Y-38574853D01*
X62730147Y-38449354D01*
X62631544Y-38301784D01*
X62563624Y-38137812D01*
X62529000Y-37963741D01*
X62529000Y-37786259D01*
X62563624Y-37612188D01*
X62631544Y-37448216D01*
X62730147Y-37300646D01*
X62855646Y-37175147D01*
X63003216Y-37076544D01*
X63167188Y-37008624D01*
X63316488Y-36978927D01*
X63341258Y-36974000D01*
X63518742Y-36974000D01*
X63543512Y-36978927D01*
G37*
G36*
X138563273Y-36281884D02*
G01*
X138695734Y-36308232D01*
X138905203Y-36394997D01*
X139093720Y-36520960D01*
X139254040Y-36681280D01*
X139380003Y-36869797D01*
X139465641Y-37076544D01*
X139466768Y-37079267D01*
X139508832Y-37290734D01*
X139511000Y-37301636D01*
X139511000Y-37528364D01*
X139466768Y-37750734D01*
X139380003Y-37960203D01*
X139254040Y-38148720D01*
X139093720Y-38309040D01*
X138905203Y-38435003D01*
X138695734Y-38521768D01*
X138584549Y-38543884D01*
X138473365Y-38566000D01*
X138246635Y-38566000D01*
X138135451Y-38543884D01*
X138024266Y-38521768D01*
X137814797Y-38435003D01*
X137626280Y-38309040D01*
X137465960Y-38148720D01*
X137339997Y-37960203D01*
X137253232Y-37750734D01*
X137209000Y-37528364D01*
X137209000Y-37301636D01*
X137211169Y-37290734D01*
X137253232Y-37079267D01*
X137254360Y-37076544D01*
X137339997Y-36869797D01*
X137465960Y-36681280D01*
X137626280Y-36520960D01*
X137814797Y-36394997D01*
X138024266Y-36308232D01*
X138156727Y-36281884D01*
X138246635Y-36264000D01*
X138473365Y-36264000D01*
X138563273Y-36281884D01*
G37*
G36*
X157613273Y-36281884D02*
G01*
X157745734Y-36308232D01*
X157955203Y-36394997D01*
X158143720Y-36520960D01*
X158304040Y-36681280D01*
X158430003Y-36869797D01*
X158515641Y-37076544D01*
X158516768Y-37079267D01*
X158558832Y-37290734D01*
X158561000Y-37301636D01*
X158561000Y-37528364D01*
X158516768Y-37750734D01*
X158430003Y-37960203D01*
X158304040Y-38148720D01*
X158143720Y-38309040D01*
X157955203Y-38435003D01*
X157745734Y-38521768D01*
X157634549Y-38543884D01*
X157523365Y-38566000D01*
X157296635Y-38566000D01*
X157185451Y-38543884D01*
X157074266Y-38521768D01*
X156864797Y-38435003D01*
X156676280Y-38309040D01*
X156515960Y-38148720D01*
X156389997Y-37960203D01*
X156303232Y-37750734D01*
X156259000Y-37528364D01*
X156259000Y-37301636D01*
X156261169Y-37290734D01*
X156303232Y-37079267D01*
X156304360Y-37076544D01*
X156389997Y-36869797D01*
X156515960Y-36681280D01*
X156676280Y-36520960D01*
X156864797Y-36394997D01*
X157074266Y-36308232D01*
X157206727Y-36281884D01*
X157296635Y-36264000D01*
X157523365Y-36264000D01*
X157613273Y-36281884D01*
G37*
G36*
X113173911Y-35824000D02*
G01*
X113295734Y-35848232D01*
X113505203Y-35934997D01*
X113693720Y-36060960D01*
X113854040Y-36221280D01*
X113980003Y-36409797D01*
X114066768Y-36619266D01*
X114081350Y-36692573D01*
X114111000Y-36841635D01*
X114111000Y-37068365D01*
X114108831Y-37079267D01*
X114066768Y-37290734D01*
X113980003Y-37500203D01*
X113854040Y-37688720D01*
X113693720Y-37849040D01*
X113505203Y-37975003D01*
X113295734Y-38061768D01*
X113219127Y-38077006D01*
X113073365Y-38106000D01*
X112846635Y-38106000D01*
X112700873Y-38077006D01*
X112624266Y-38061768D01*
X112414797Y-37975003D01*
X112226280Y-37849040D01*
X112065960Y-37688720D01*
X111939997Y-37500203D01*
X111853232Y-37290734D01*
X111811169Y-37079267D01*
X111809000Y-37068365D01*
X111809000Y-36841635D01*
X111838650Y-36692573D01*
X111853232Y-36619266D01*
X111939997Y-36409797D01*
X112065960Y-36221280D01*
X112226280Y-36060960D01*
X112414797Y-35934997D01*
X112624266Y-35848232D01*
X112746089Y-35824000D01*
X112846635Y-35804000D01*
X113073365Y-35804000D01*
X113173911Y-35824000D01*
G37*
G36*
X135148254Y-32902818D02*
G01*
X135521511Y-33057426D01*
X135521513Y-33057427D01*
X135857436Y-33281884D01*
X136143116Y-33567564D01*
X136226645Y-33692573D01*
X136367574Y-33903489D01*
X136522182Y-34276746D01*
X136601000Y-34672993D01*
X136601000Y-35077007D01*
X136522182Y-35473254D01*
X136376898Y-35824000D01*
X136367573Y-35846513D01*
X136143116Y-36182436D01*
X135857436Y-36468116D01*
X135521513Y-36692573D01*
X135521512Y-36692574D01*
X135521511Y-36692574D01*
X135148254Y-36847182D01*
X134752007Y-36926000D01*
X134347993Y-36926000D01*
X133951746Y-36847182D01*
X133578489Y-36692574D01*
X133578488Y-36692574D01*
X133578487Y-36692573D01*
X133242564Y-36468116D01*
X132956884Y-36182436D01*
X132732427Y-35846513D01*
X132723102Y-35824000D01*
X132577818Y-35473254D01*
X132499000Y-35077007D01*
X132499000Y-34672993D01*
X132577818Y-34276746D01*
X132732426Y-33903489D01*
X132873356Y-33692573D01*
X132956884Y-33567564D01*
X133242564Y-33281884D01*
X133578487Y-33057427D01*
X133578489Y-33057426D01*
X133951746Y-32902818D01*
X134347993Y-32824000D01*
X134752007Y-32824000D01*
X135148254Y-32902818D01*
G37*
G36*
X154198254Y-32902818D02*
G01*
X154571511Y-33057426D01*
X154571513Y-33057427D01*
X154907436Y-33281884D01*
X155193116Y-33567564D01*
X155276645Y-33692573D01*
X155417574Y-33903489D01*
X155572182Y-34276746D01*
X155651000Y-34672993D01*
X155651000Y-35077007D01*
X155572182Y-35473254D01*
X155426898Y-35824000D01*
X155417573Y-35846513D01*
X155193116Y-36182436D01*
X154907436Y-36468116D01*
X154571513Y-36692573D01*
X154571512Y-36692574D01*
X154571511Y-36692574D01*
X154198254Y-36847182D01*
X153802007Y-36926000D01*
X153397993Y-36926000D01*
X153001746Y-36847182D01*
X152628489Y-36692574D01*
X152628488Y-36692574D01*
X152628487Y-36692573D01*
X152292564Y-36468116D01*
X152006884Y-36182436D01*
X151782427Y-35846513D01*
X151773102Y-35824000D01*
X151627818Y-35473254D01*
X151549000Y-35077007D01*
X151549000Y-34672993D01*
X151627818Y-34276746D01*
X151782426Y-33903489D01*
X151923356Y-33692573D01*
X152006884Y-33567564D01*
X152292564Y-33281884D01*
X152628487Y-33057427D01*
X152628489Y-33057426D01*
X153001746Y-32902818D01*
X153397993Y-32824000D01*
X153802007Y-32824000D01*
X154198254Y-32902818D01*
G37*
G36*
X81387438Y-34276745D02*
G01*
X81545734Y-34308232D01*
X81755203Y-34394997D01*
X81943720Y-34520960D01*
X82104040Y-34681280D01*
X82230003Y-34869797D01*
X82316768Y-35079266D01*
X82361000Y-35301636D01*
X82361000Y-35528364D01*
X82316768Y-35750734D01*
X82230003Y-35960203D01*
X82104040Y-36148720D01*
X81943720Y-36309040D01*
X81755203Y-36435003D01*
X81545734Y-36521768D01*
X81434549Y-36543884D01*
X81323365Y-36566000D01*
X81096635Y-36566000D01*
X80985451Y-36543884D01*
X80874266Y-36521768D01*
X80664797Y-36435003D01*
X80476280Y-36309040D01*
X80315960Y-36148720D01*
X80189997Y-35960203D01*
X80103232Y-35750734D01*
X80059000Y-35528364D01*
X80059000Y-35301636D01*
X80103232Y-35079266D01*
X80189997Y-34869797D01*
X80315960Y-34681280D01*
X80476280Y-34520960D01*
X80664797Y-34394997D01*
X80874266Y-34308232D01*
X81032562Y-34276745D01*
X81096635Y-34264000D01*
X81323365Y-34264000D01*
X81387438Y-34276745D01*
G37*
G36*
X139743512Y-33978927D02*
G01*
X139892812Y-34008624D01*
X140056784Y-34076544D01*
X140204354Y-34175147D01*
X140329853Y-34300646D01*
X140428456Y-34448216D01*
X140496376Y-34612188D01*
X140531000Y-34786259D01*
X140531000Y-34963741D01*
X140496376Y-35137812D01*
X140428456Y-35301784D01*
X140329853Y-35449354D01*
X140204354Y-35574853D01*
X140056784Y-35673456D01*
X139892812Y-35741376D01*
X139743512Y-35771073D01*
X139718742Y-35776000D01*
X139541258Y-35776000D01*
X139516488Y-35771073D01*
X139367188Y-35741376D01*
X139203216Y-35673456D01*
X139055646Y-35574853D01*
X138930147Y-35449354D01*
X138831544Y-35301784D01*
X138763624Y-35137812D01*
X138729000Y-34963741D01*
X138729000Y-34786259D01*
X138763624Y-34612188D01*
X138831544Y-34448216D01*
X138930147Y-34300646D01*
X139055646Y-34175147D01*
X139203216Y-34076544D01*
X139367188Y-34008624D01*
X139516488Y-33978927D01*
X139541258Y-33974000D01*
X139718742Y-33974000D01*
X139743512Y-33978927D01*
G37*
G36*
X158793512Y-33978927D02*
G01*
X158942812Y-34008624D01*
X159106784Y-34076544D01*
X159254354Y-34175147D01*
X159379853Y-34300646D01*
X159478456Y-34448216D01*
X159546376Y-34612188D01*
X159581000Y-34786259D01*
X159581000Y-34963741D01*
X159546376Y-35137812D01*
X159478456Y-35301784D01*
X159379853Y-35449354D01*
X159254354Y-35574853D01*
X159106784Y-35673456D01*
X158942812Y-35741376D01*
X158793512Y-35771073D01*
X158768742Y-35776000D01*
X158591258Y-35776000D01*
X158566488Y-35771073D01*
X158417188Y-35741376D01*
X158253216Y-35673456D01*
X158105646Y-35574853D01*
X157980147Y-35449354D01*
X157881544Y-35301784D01*
X157813624Y-35137812D01*
X157779000Y-34963741D01*
X157779000Y-34786259D01*
X157813624Y-34612188D01*
X157881544Y-34448216D01*
X157980147Y-34300646D01*
X158105646Y-34175147D01*
X158253216Y-34076544D01*
X158417188Y-34008624D01*
X158566488Y-33978927D01*
X158591258Y-33974000D01*
X158768742Y-33974000D01*
X158793512Y-33978927D01*
G37*
G36*
X129583512Y-33978927D02*
G01*
X129732812Y-34008624D01*
X129896784Y-34076544D01*
X130044354Y-34175147D01*
X130169853Y-34300646D01*
X130268456Y-34448216D01*
X130336376Y-34612188D01*
X130371000Y-34786259D01*
X130371000Y-34963741D01*
X130336376Y-35137812D01*
X130268456Y-35301784D01*
X130169853Y-35449354D01*
X130044354Y-35574853D01*
X129896784Y-35673456D01*
X129732812Y-35741376D01*
X129583512Y-35771073D01*
X129558742Y-35776000D01*
X129381258Y-35776000D01*
X129356488Y-35771073D01*
X129207188Y-35741376D01*
X129043216Y-35673456D01*
X128895646Y-35574853D01*
X128770147Y-35449354D01*
X128671544Y-35301784D01*
X128603624Y-35137812D01*
X128569000Y-34963741D01*
X128569000Y-34786259D01*
X128603624Y-34612188D01*
X128671544Y-34448216D01*
X128770147Y-34300646D01*
X128895646Y-34175147D01*
X129043216Y-34076544D01*
X129207188Y-34008624D01*
X129356488Y-33978927D01*
X129381258Y-33974000D01*
X129558742Y-33974000D01*
X129583512Y-33978927D01*
G37*
G36*
X148633512Y-33978927D02*
G01*
X148782812Y-34008624D01*
X148946784Y-34076544D01*
X149094354Y-34175147D01*
X149219853Y-34300646D01*
X149318456Y-34448216D01*
X149386376Y-34612188D01*
X149421000Y-34786259D01*
X149421000Y-34963741D01*
X149386376Y-35137812D01*
X149318456Y-35301784D01*
X149219853Y-35449354D01*
X149094354Y-35574853D01*
X148946784Y-35673456D01*
X148782812Y-35741376D01*
X148633512Y-35771073D01*
X148608742Y-35776000D01*
X148431258Y-35776000D01*
X148406488Y-35771073D01*
X148257188Y-35741376D01*
X148093216Y-35673456D01*
X147945646Y-35574853D01*
X147820147Y-35449354D01*
X147721544Y-35301784D01*
X147653624Y-35137812D01*
X147619000Y-34963741D01*
X147619000Y-34786259D01*
X147653624Y-34612188D01*
X147721544Y-34448216D01*
X147820147Y-34300646D01*
X147945646Y-34175147D01*
X148093216Y-34076544D01*
X148257188Y-34008624D01*
X148406488Y-33978927D01*
X148431258Y-33974000D01*
X148608742Y-33974000D01*
X148633512Y-33978927D01*
G37*
G36*
X119513273Y-33281884D02*
G01*
X119645734Y-33308232D01*
X119855203Y-33394997D01*
X120043720Y-33520960D01*
X120204040Y-33681280D01*
X120330003Y-33869797D01*
X120416768Y-34079266D01*
X120461000Y-34301636D01*
X120461000Y-34528364D01*
X120416768Y-34750734D01*
X120330003Y-34960203D01*
X120204040Y-35148720D01*
X120043720Y-35309040D01*
X119855203Y-35435003D01*
X119645734Y-35521768D01*
X119534549Y-35543884D01*
X119423365Y-35566000D01*
X119196635Y-35566000D01*
X119085451Y-35543884D01*
X118974266Y-35521768D01*
X118764797Y-35435003D01*
X118576280Y-35309040D01*
X118415960Y-35148720D01*
X118289997Y-34960203D01*
X118203232Y-34750734D01*
X118159000Y-34528364D01*
X118159000Y-34301636D01*
X118203232Y-34079266D01*
X118289997Y-33869797D01*
X118415960Y-33681280D01*
X118576280Y-33520960D01*
X118764797Y-33394997D01*
X118974266Y-33308232D01*
X119106727Y-33281884D01*
X119196635Y-33264000D01*
X119423365Y-33264000D01*
X119513273Y-33281884D01*
G37*
G36*
X77998254Y-30902818D02*
G01*
X78371511Y-31057426D01*
X78371513Y-31057427D01*
X78707436Y-31281884D01*
X78993116Y-31567564D01*
X79176245Y-31841635D01*
X79217574Y-31903489D01*
X79372182Y-32276746D01*
X79451000Y-32672993D01*
X79451000Y-33077007D01*
X79372182Y-33473254D01*
X79217574Y-33846511D01*
X79217573Y-33846513D01*
X78993116Y-34182436D01*
X78707436Y-34468116D01*
X78371513Y-34692573D01*
X78371512Y-34692574D01*
X78371511Y-34692574D01*
X77998254Y-34847182D01*
X77602007Y-34926000D01*
X77197993Y-34926000D01*
X76801746Y-34847182D01*
X76428489Y-34692574D01*
X76428488Y-34692574D01*
X76428487Y-34692573D01*
X76092564Y-34468116D01*
X75806884Y-34182436D01*
X75582427Y-33846513D01*
X75582426Y-33846511D01*
X75427818Y-33473254D01*
X75349000Y-33077007D01*
X75349000Y-32672993D01*
X75427818Y-32276746D01*
X75582426Y-31903489D01*
X75623756Y-31841635D01*
X75806884Y-31567564D01*
X76092564Y-31281884D01*
X76428487Y-31057427D01*
X76428489Y-31057426D01*
X76801746Y-30902818D01*
X77197993Y-30824000D01*
X77602007Y-30824000D01*
X77998254Y-30902818D01*
G37*
G36*
X116098254Y-29902818D02*
G01*
X116471511Y-30057426D01*
X116471513Y-30057427D01*
X116807436Y-30281884D01*
X117093116Y-30567564D01*
X117317127Y-30902819D01*
X117317574Y-30903489D01*
X117472182Y-31276746D01*
X117551000Y-31672993D01*
X117551000Y-32077007D01*
X117472182Y-32473254D01*
X117342531Y-32786259D01*
X117317573Y-32846513D01*
X117093116Y-33182436D01*
X116807436Y-33468116D01*
X116471513Y-33692573D01*
X116471512Y-33692574D01*
X116471511Y-33692574D01*
X116098254Y-33847182D01*
X115702007Y-33926000D01*
X115297993Y-33926000D01*
X114901746Y-33847182D01*
X114528489Y-33692574D01*
X114528488Y-33692574D01*
X114528487Y-33692573D01*
X114192564Y-33468116D01*
X113906884Y-33182436D01*
X113682427Y-32846513D01*
X113657469Y-32786259D01*
X113527818Y-32473254D01*
X113449000Y-32077007D01*
X113449000Y-31672993D01*
X113527818Y-31276746D01*
X113682426Y-30903489D01*
X113682874Y-30902819D01*
X113906884Y-30567564D01*
X114192564Y-30281884D01*
X114528487Y-30057427D01*
X114528489Y-30057426D01*
X114901746Y-29902818D01*
X115297993Y-29824000D01*
X115702007Y-29824000D01*
X116098254Y-29902818D01*
G37*
G36*
X72433512Y-31978927D02*
G01*
X72582812Y-32008624D01*
X72746784Y-32076544D01*
X72894354Y-32175147D01*
X73019853Y-32300646D01*
X73118456Y-32448216D01*
X73186376Y-32612188D01*
X73212072Y-32741375D01*
X73218960Y-32776000D01*
X73221000Y-32786259D01*
X73221000Y-32963741D01*
X73186376Y-33137812D01*
X73118456Y-33301784D01*
X73019853Y-33449354D01*
X72894354Y-33574853D01*
X72746784Y-33673456D01*
X72582812Y-33741376D01*
X72433512Y-33771073D01*
X72408742Y-33776000D01*
X72231258Y-33776000D01*
X72206488Y-33771073D01*
X72057188Y-33741376D01*
X71893216Y-33673456D01*
X71745646Y-33574853D01*
X71620147Y-33449354D01*
X71521544Y-33301784D01*
X71453624Y-33137812D01*
X71419000Y-32963741D01*
X71419000Y-32786259D01*
X71421041Y-32776000D01*
X71427928Y-32741375D01*
X71453624Y-32612188D01*
X71521544Y-32448216D01*
X71620147Y-32300646D01*
X71745646Y-32175147D01*
X71893216Y-32076544D01*
X72057188Y-32008624D01*
X72206488Y-31978927D01*
X72231258Y-31974000D01*
X72408742Y-31974000D01*
X72433512Y-31978927D01*
G37*
G36*
X82593512Y-31978927D02*
G01*
X82742812Y-32008624D01*
X82906784Y-32076544D01*
X83054354Y-32175147D01*
X83179853Y-32300646D01*
X83278456Y-32448216D01*
X83346376Y-32612188D01*
X83372072Y-32741375D01*
X83378960Y-32776000D01*
X83381000Y-32786259D01*
X83381000Y-32963741D01*
X83346376Y-33137812D01*
X83278456Y-33301784D01*
X83179853Y-33449354D01*
X83054354Y-33574853D01*
X82906784Y-33673456D01*
X82742812Y-33741376D01*
X82593512Y-33771073D01*
X82568742Y-33776000D01*
X82391258Y-33776000D01*
X82366488Y-33771073D01*
X82217188Y-33741376D01*
X82053216Y-33673456D01*
X81905646Y-33574853D01*
X81780147Y-33449354D01*
X81681544Y-33301784D01*
X81613624Y-33137812D01*
X81579000Y-32963741D01*
X81579000Y-32786259D01*
X81581041Y-32776000D01*
X81587928Y-32741375D01*
X81613624Y-32612188D01*
X81681544Y-32448216D01*
X81780147Y-32300646D01*
X81905646Y-32175147D01*
X82053216Y-32076544D01*
X82217188Y-32008624D01*
X82366488Y-31978927D01*
X82391258Y-31974000D01*
X82568742Y-31974000D01*
X82593512Y-31978927D01*
G37*
G36*
X94123911Y-30824000D02*
G01*
X94245734Y-30848232D01*
X94455203Y-30934997D01*
X94643720Y-31060960D01*
X94804040Y-31221280D01*
X94930003Y-31409797D01*
X95016768Y-31619266D01*
X95061000Y-31841636D01*
X95061000Y-32068364D01*
X95016768Y-32290734D01*
X94930003Y-32500203D01*
X94804040Y-32688720D01*
X94643720Y-32849040D01*
X94455203Y-32975003D01*
X94245734Y-33061768D01*
X94169127Y-33077006D01*
X94023365Y-33106000D01*
X93796635Y-33106000D01*
X93650873Y-33077006D01*
X93574266Y-33061768D01*
X93364797Y-32975003D01*
X93176280Y-32849040D01*
X93015960Y-32688720D01*
X92889997Y-32500203D01*
X92803232Y-32290734D01*
X92759000Y-32068364D01*
X92759000Y-31841636D01*
X92803232Y-31619266D01*
X92889997Y-31409797D01*
X93015960Y-31221280D01*
X93176280Y-31060960D01*
X93364797Y-30934997D01*
X93574266Y-30848232D01*
X93696089Y-30824000D01*
X93796635Y-30804000D01*
X94023365Y-30804000D01*
X94123911Y-30824000D01*
G37*
G36*
X110533512Y-30978927D02*
G01*
X110682812Y-31008624D01*
X110846784Y-31076544D01*
X110994354Y-31175147D01*
X111119853Y-31300646D01*
X111218456Y-31448216D01*
X111286376Y-31612188D01*
X111316073Y-31761488D01*
X111321000Y-31786258D01*
X111321000Y-31963742D01*
X111316073Y-31988512D01*
X111286376Y-32137812D01*
X111218456Y-32301784D01*
X111119853Y-32449354D01*
X110994354Y-32574853D01*
X110846784Y-32673456D01*
X110682812Y-32741376D01*
X110533512Y-32771073D01*
X110508742Y-32776000D01*
X110331258Y-32776000D01*
X110306488Y-32771073D01*
X110157188Y-32741376D01*
X109993216Y-32673456D01*
X109845646Y-32574853D01*
X109720147Y-32449354D01*
X109621544Y-32301784D01*
X109553624Y-32137812D01*
X109523927Y-31988512D01*
X109519000Y-31963742D01*
X109519000Y-31786258D01*
X109523927Y-31761488D01*
X109553624Y-31612188D01*
X109621544Y-31448216D01*
X109720147Y-31300646D01*
X109845646Y-31175147D01*
X109993216Y-31076544D01*
X110157188Y-31008624D01*
X110306488Y-30978927D01*
X110331258Y-30974000D01*
X110508742Y-30974000D01*
X110533512Y-30978927D01*
G37*
G36*
X120693512Y-30978927D02*
G01*
X120842812Y-31008624D01*
X121006784Y-31076544D01*
X121154354Y-31175147D01*
X121279853Y-31300646D01*
X121378456Y-31448216D01*
X121446376Y-31612188D01*
X121476073Y-31761488D01*
X121481000Y-31786258D01*
X121481000Y-31963742D01*
X121476073Y-31988512D01*
X121446376Y-32137812D01*
X121378456Y-32301784D01*
X121279853Y-32449354D01*
X121154354Y-32574853D01*
X121006784Y-32673456D01*
X120842812Y-32741376D01*
X120693512Y-32771073D01*
X120668742Y-32776000D01*
X120491258Y-32776000D01*
X120466488Y-32771073D01*
X120317188Y-32741376D01*
X120153216Y-32673456D01*
X120005646Y-32574853D01*
X119880147Y-32449354D01*
X119781544Y-32301784D01*
X119713624Y-32137812D01*
X119683927Y-31988512D01*
X119679000Y-31963742D01*
X119679000Y-31786258D01*
X119683927Y-31761488D01*
X119713624Y-31612188D01*
X119781544Y-31448216D01*
X119880147Y-31300646D01*
X120005646Y-31175147D01*
X120153216Y-31076544D01*
X120317188Y-31008624D01*
X120466488Y-30978927D01*
X120491258Y-30974000D01*
X120668742Y-30974000D01*
X120693512Y-30978927D01*
G37*
G36*
X100484549Y-28286116D02*
G01*
X100595734Y-28308232D01*
X100805203Y-28394997D01*
X100993720Y-28520960D01*
X101154040Y-28681280D01*
X101280003Y-28869797D01*
X101366768Y-29079266D01*
X101411000Y-29301636D01*
X101411000Y-29528364D01*
X101366768Y-29750734D01*
X101280003Y-29960203D01*
X101154040Y-30148720D01*
X100993720Y-30309040D01*
X100805203Y-30435003D01*
X100595734Y-30521768D01*
X100484549Y-30543884D01*
X100373365Y-30566000D01*
X100146635Y-30566000D01*
X100035451Y-30543884D01*
X99924266Y-30521768D01*
X99714797Y-30435003D01*
X99526280Y-30309040D01*
X99365960Y-30148720D01*
X99239997Y-29960203D01*
X99153232Y-29750734D01*
X99109000Y-29528364D01*
X99109000Y-29301636D01*
X99153232Y-29079266D01*
X99239997Y-28869797D01*
X99365960Y-28681280D01*
X99526280Y-28520960D01*
X99714797Y-28394997D01*
X99924266Y-28308232D01*
X100035451Y-28286116D01*
X100146635Y-28264000D01*
X100373365Y-28264000D01*
X100484549Y-28286116D01*
G37*
G36*
X97048254Y-24902818D02*
G01*
X97421511Y-25057426D01*
X97421513Y-25057427D01*
X97757436Y-25281884D01*
X98043116Y-25567564D01*
X98267574Y-25903489D01*
X98422182Y-26276746D01*
X98501000Y-26672993D01*
X98501000Y-27077007D01*
X98422182Y-27473254D01*
X98267574Y-27846511D01*
X98267573Y-27846513D01*
X98043116Y-28182436D01*
X97757436Y-28468116D01*
X97421513Y-28692573D01*
X97421512Y-28692574D01*
X97421511Y-28692574D01*
X97048254Y-28847182D01*
X96652007Y-28926000D01*
X96247993Y-28926000D01*
X95851746Y-28847182D01*
X95478489Y-28692574D01*
X95478488Y-28692574D01*
X95478487Y-28692573D01*
X95142564Y-28468116D01*
X94856884Y-28182436D01*
X94632427Y-27846513D01*
X94632426Y-27846511D01*
X94477818Y-27473254D01*
X94399000Y-27077007D01*
X94399000Y-26672993D01*
X94477818Y-26276746D01*
X94632426Y-25903489D01*
X94856884Y-25567564D01*
X95142564Y-25281884D01*
X95478487Y-25057427D01*
X95478489Y-25057426D01*
X95851746Y-24902818D01*
X96247993Y-24824000D01*
X96652007Y-24824000D01*
X97048254Y-24902818D01*
G37*
G36*
X91483512Y-25978927D02*
G01*
X91632812Y-26008624D01*
X91796784Y-26076544D01*
X91944354Y-26175147D01*
X92069853Y-26300646D01*
X92168456Y-26448216D01*
X92236376Y-26612188D01*
X92271000Y-26786259D01*
X92271000Y-26963741D01*
X92236376Y-27137812D01*
X92168456Y-27301784D01*
X92069853Y-27449354D01*
X91944354Y-27574853D01*
X91796784Y-27673456D01*
X91632812Y-27741376D01*
X91483512Y-27771073D01*
X91458742Y-27776000D01*
X91281258Y-27776000D01*
X91256488Y-27771073D01*
X91107188Y-27741376D01*
X90943216Y-27673456D01*
X90795646Y-27574853D01*
X90670147Y-27449354D01*
X90571544Y-27301784D01*
X90503624Y-27137812D01*
X90469000Y-26963741D01*
X90469000Y-26786259D01*
X90503624Y-26612188D01*
X90571544Y-26448216D01*
X90670147Y-26300646D01*
X90795646Y-26175147D01*
X90943216Y-26076544D01*
X91107188Y-26008624D01*
X91256488Y-25978927D01*
X91281258Y-25974000D01*
X91458742Y-25974000D01*
X91483512Y-25978927D01*
G37*
G36*
X101643512Y-25978927D02*
G01*
X101792812Y-26008624D01*
X101956784Y-26076544D01*
X102104354Y-26175147D01*
X102229853Y-26300646D01*
X102328456Y-26448216D01*
X102396376Y-26612188D01*
X102431000Y-26786259D01*
X102431000Y-26963741D01*
X102396376Y-27137812D01*
X102328456Y-27301784D01*
X102229853Y-27449354D01*
X102104354Y-27574853D01*
X101956784Y-27673456D01*
X101792812Y-27741376D01*
X101643512Y-27771073D01*
X101618742Y-27776000D01*
X101441258Y-27776000D01*
X101416488Y-27771073D01*
X101267188Y-27741376D01*
X101103216Y-27673456D01*
X100955646Y-27574853D01*
X100830147Y-27449354D01*
X100731544Y-27301784D01*
X100663624Y-27137812D01*
X100629000Y-26963741D01*
X100629000Y-26786259D01*
X100663624Y-26612188D01*
X100731544Y-26448216D01*
X100830147Y-26300646D01*
X100955646Y-26175147D01*
X101103216Y-26076544D01*
X101267188Y-26008624D01*
X101416488Y-25978927D01*
X101441258Y-25974000D01*
X101618742Y-25974000D01*
X101643512Y-25978927D01*
G37*
M02*
