G04 #@! TF.GenerationSoftware,KiCad,Pcbnew,5.1.5+dfsg1-2build2*
G04 #@! TF.CreationDate,2020-05-17T17:46:53-07:00*
G04 #@! TF.ProjectId,triad_right,74726961-645f-4726-9967-68742e6b6963,rev?*
G04 #@! TF.SameCoordinates,Original*
G04 #@! TF.FileFunction,Paste,Bot*
G04 #@! TF.FilePolarity,Positive*
%FSLAX46Y46*%
G04 Gerber Fmt 4.6, Leading zero omitted, Abs format (unit mm)*
G04 Created by KiCad (PCBNEW 5.1.5+dfsg1-2build2) date 2020-05-17 17:46:53*
%MOMM*%
%LPD*%
G04 APERTURE LIST*
%ADD10R,1.100000X1.100000*%
%ADD11R,1.500000X1.000000*%
%ADD12C,0.100000*%
G04 APERTURE END LIST*
D10*
X50087500Y-36475000D03*
X50087500Y-39275000D03*
X69137500Y-34275000D03*
X69137500Y-31475000D03*
X88187500Y-25475000D03*
X88187500Y-28275000D03*
X107237500Y-30475000D03*
X107237500Y-33275000D03*
X126287500Y-33475000D03*
X126287500Y-36275000D03*
X145337500Y-36275000D03*
X145337500Y-33475000D03*
X50087500Y-55525000D03*
X50087500Y-58325000D03*
X69137500Y-53325000D03*
X69137500Y-50525000D03*
X88187500Y-44525000D03*
X88187500Y-47325000D03*
X107237500Y-52325000D03*
X107237500Y-49525000D03*
X126287500Y-52525000D03*
X126287500Y-55325000D03*
X145337500Y-55325000D03*
X145337500Y-52525000D03*
X50087500Y-74575000D03*
X50087500Y-77375000D03*
X69137500Y-72375000D03*
X69137500Y-69575000D03*
X88187500Y-66374999D03*
X88187500Y-63574999D03*
X107237500Y-68575000D03*
X107237500Y-71375000D03*
X126287500Y-74375000D03*
X126287500Y-71575000D03*
X145337500Y-71575000D03*
X145337500Y-74375000D03*
X50087500Y-93625000D03*
X50087500Y-96425000D03*
X69137500Y-91425000D03*
X69137500Y-88625000D03*
X88187500Y-85425000D03*
X88187500Y-82625000D03*
X107237500Y-87625000D03*
X107237500Y-90425000D03*
X126287500Y-93425000D03*
X126287500Y-90625000D03*
X145337500Y-90625000D03*
X145337500Y-93425000D03*
X31037499Y-134525000D03*
X31037499Y-131725000D03*
X50087500Y-115475000D03*
X50087500Y-112675000D03*
X69137500Y-107675000D03*
X69137500Y-110475000D03*
X88187500Y-104475000D03*
X88187500Y-101675000D03*
X107237500Y-106675000D03*
X107237500Y-109475000D03*
X126287500Y-112475000D03*
X126287500Y-109675000D03*
X145337500Y-109675000D03*
X145337500Y-112475000D03*
X50087500Y-134525000D03*
X50087500Y-131725000D03*
X69137500Y-126725000D03*
X69137500Y-129525000D03*
X88187500Y-123525000D03*
X88187500Y-120725000D03*
X107237500Y-125725000D03*
X107237500Y-128525000D03*
X126287500Y-131525000D03*
X126287500Y-128725000D03*
X145337500Y-128725000D03*
X145337500Y-131525000D03*
D11*
X79850000Y-40800000D03*
X79850000Y-44000000D03*
X74950000Y-40800000D03*
X74950000Y-44000000D03*
X132100000Y-46000000D03*
X132100000Y-42800000D03*
X137000000Y-46000000D03*
X137000000Y-42800000D03*
X132100000Y-122200000D03*
X132100000Y-119000000D03*
X137000000Y-122200000D03*
X137000000Y-119000000D03*
X79850000Y-117000000D03*
X79850000Y-120200000D03*
X74950000Y-117000000D03*
X74950000Y-120200000D03*
D12*
G36*
X36588120Y-103962698D02*
G01*
X35307869Y-103736956D01*
X35614358Y-101998770D01*
X36894609Y-102224512D01*
X36588120Y-103962698D01*
G37*
G36*
X34116238Y-117981436D02*
G01*
X32835987Y-117755694D01*
X33142476Y-116017508D01*
X34422727Y-116243250D01*
X34116238Y-117981436D01*
G37*
G36*
X37313962Y-115394920D02*
G01*
X36329154Y-115221272D01*
X36380380Y-114930754D01*
X37365188Y-115104402D01*
X37313962Y-115394920D01*
G37*
G36*
X37400786Y-114902516D02*
G01*
X36415978Y-114728868D01*
X36467204Y-114438350D01*
X37452012Y-114611998D01*
X37400786Y-114902516D01*
G37*
G36*
X37487610Y-114410112D02*
G01*
X36502802Y-114236464D01*
X36554028Y-113945946D01*
X37538836Y-114119594D01*
X37487610Y-114410112D01*
G37*
G36*
X37574434Y-113917708D02*
G01*
X36589626Y-113744060D01*
X36640852Y-113453542D01*
X37625660Y-113627190D01*
X37574434Y-113917708D01*
G37*
G36*
X37661259Y-113425304D02*
G01*
X36676451Y-113251656D01*
X36727677Y-112961138D01*
X37712485Y-113134786D01*
X37661259Y-113425304D01*
G37*
G36*
X37748083Y-112932900D02*
G01*
X36763275Y-112759252D01*
X36814501Y-112468734D01*
X37799309Y-112642382D01*
X37748083Y-112932900D01*
G37*
G36*
X37834907Y-112440497D02*
G01*
X36850099Y-112266849D01*
X36901325Y-111976331D01*
X37886133Y-112149979D01*
X37834907Y-112440497D01*
G37*
G36*
X37921731Y-111948093D02*
G01*
X36936923Y-111774445D01*
X36988149Y-111483927D01*
X37972957Y-111657575D01*
X37921731Y-111948093D01*
G37*
G36*
X38008555Y-111455689D02*
G01*
X37023747Y-111282041D01*
X37074973Y-110991523D01*
X38059781Y-111165171D01*
X38008555Y-111455689D01*
G37*
G36*
X38095379Y-110963285D02*
G01*
X37110571Y-110789637D01*
X37161797Y-110499119D01*
X38146605Y-110672767D01*
X38095379Y-110963285D01*
G37*
G36*
X38182203Y-110470881D02*
G01*
X37197395Y-110297233D01*
X37248621Y-110006715D01*
X38233429Y-110180363D01*
X38182203Y-110470881D01*
G37*
G36*
X38269027Y-109978477D02*
G01*
X37284219Y-109804829D01*
X37335445Y-109514311D01*
X38320253Y-109687959D01*
X38269027Y-109978477D01*
G37*
G36*
X38355851Y-109486073D02*
G01*
X37371043Y-109312425D01*
X37422269Y-109021907D01*
X38407077Y-109195555D01*
X38355851Y-109486073D01*
G37*
G36*
X38442675Y-108993669D02*
G01*
X37457867Y-108820021D01*
X37509093Y-108529503D01*
X38493901Y-108703151D01*
X38442675Y-108993669D01*
G37*
G36*
X38529499Y-108501266D02*
G01*
X37544691Y-108327618D01*
X37595917Y-108037100D01*
X38580725Y-108210748D01*
X38529499Y-108501266D01*
G37*
G36*
X38616323Y-108008862D02*
G01*
X37631515Y-107835214D01*
X37682741Y-107544696D01*
X38667549Y-107718344D01*
X38616323Y-108008862D01*
G37*
G36*
X38703148Y-107516458D02*
G01*
X37718340Y-107342810D01*
X37769566Y-107052292D01*
X38754374Y-107225940D01*
X38703148Y-107516458D01*
G37*
G36*
X38789972Y-107024054D02*
G01*
X37805164Y-106850406D01*
X37856390Y-106559888D01*
X38841198Y-106733536D01*
X38789972Y-107024054D01*
G37*
G36*
X38876796Y-106531650D02*
G01*
X37891988Y-106358002D01*
X37943214Y-106067484D01*
X38928022Y-106241132D01*
X38876796Y-106531650D01*
G37*
G36*
X38963620Y-106039246D02*
G01*
X37978812Y-105865598D01*
X38030038Y-105575080D01*
X39014846Y-105748728D01*
X38963620Y-106039246D01*
G37*
G36*
X76724505Y-45511204D02*
G01*
X76748773Y-45514804D01*
X76772572Y-45520765D01*
X76795671Y-45529030D01*
X76817850Y-45539520D01*
X76838893Y-45552132D01*
X76858599Y-45566747D01*
X76876777Y-45583223D01*
X76893253Y-45601401D01*
X76907868Y-45621107D01*
X76920480Y-45642150D01*
X76930970Y-45664329D01*
X76939235Y-45687428D01*
X76945196Y-45711227D01*
X76948796Y-45735495D01*
X76950000Y-45759999D01*
X76950000Y-46660001D01*
X76948796Y-46684505D01*
X76945196Y-46708773D01*
X76939235Y-46732572D01*
X76930970Y-46755671D01*
X76920480Y-46777850D01*
X76907868Y-46798893D01*
X76893253Y-46818599D01*
X76876777Y-46836777D01*
X76858599Y-46853253D01*
X76838893Y-46867868D01*
X76817850Y-46880480D01*
X76795671Y-46890970D01*
X76772572Y-46899235D01*
X76748773Y-46905196D01*
X76724505Y-46908796D01*
X76700001Y-46910000D01*
X76049999Y-46910000D01*
X76025495Y-46908796D01*
X76001227Y-46905196D01*
X75977428Y-46899235D01*
X75954329Y-46890970D01*
X75932150Y-46880480D01*
X75911107Y-46867868D01*
X75891401Y-46853253D01*
X75873223Y-46836777D01*
X75856747Y-46818599D01*
X75842132Y-46798893D01*
X75829520Y-46777850D01*
X75819030Y-46755671D01*
X75810765Y-46732572D01*
X75804804Y-46708773D01*
X75801204Y-46684505D01*
X75800000Y-46660001D01*
X75800000Y-45759999D01*
X75801204Y-45735495D01*
X75804804Y-45711227D01*
X75810765Y-45687428D01*
X75819030Y-45664329D01*
X75829520Y-45642150D01*
X75842132Y-45621107D01*
X75856747Y-45601401D01*
X75873223Y-45583223D01*
X75891401Y-45566747D01*
X75911107Y-45552132D01*
X75932150Y-45539520D01*
X75954329Y-45529030D01*
X75977428Y-45520765D01*
X76001227Y-45514804D01*
X76025495Y-45511204D01*
X76049999Y-45510000D01*
X76700001Y-45510000D01*
X76724505Y-45511204D01*
G37*
G36*
X78774505Y-45511204D02*
G01*
X78798773Y-45514804D01*
X78822572Y-45520765D01*
X78845671Y-45529030D01*
X78867850Y-45539520D01*
X78888893Y-45552132D01*
X78908599Y-45566747D01*
X78926777Y-45583223D01*
X78943253Y-45601401D01*
X78957868Y-45621107D01*
X78970480Y-45642150D01*
X78980970Y-45664329D01*
X78989235Y-45687428D01*
X78995196Y-45711227D01*
X78998796Y-45735495D01*
X79000000Y-45759999D01*
X79000000Y-46660001D01*
X78998796Y-46684505D01*
X78995196Y-46708773D01*
X78989235Y-46732572D01*
X78980970Y-46755671D01*
X78970480Y-46777850D01*
X78957868Y-46798893D01*
X78943253Y-46818599D01*
X78926777Y-46836777D01*
X78908599Y-46853253D01*
X78888893Y-46867868D01*
X78867850Y-46880480D01*
X78845671Y-46890970D01*
X78822572Y-46899235D01*
X78798773Y-46905196D01*
X78774505Y-46908796D01*
X78750001Y-46910000D01*
X78099999Y-46910000D01*
X78075495Y-46908796D01*
X78051227Y-46905196D01*
X78027428Y-46899235D01*
X78004329Y-46890970D01*
X77982150Y-46880480D01*
X77961107Y-46867868D01*
X77941401Y-46853253D01*
X77923223Y-46836777D01*
X77906747Y-46818599D01*
X77892132Y-46798893D01*
X77879520Y-46777850D01*
X77869030Y-46755671D01*
X77860765Y-46732572D01*
X77854804Y-46708773D01*
X77851204Y-46684505D01*
X77850000Y-46660001D01*
X77850000Y-45759999D01*
X77851204Y-45735495D01*
X77854804Y-45711227D01*
X77860765Y-45687428D01*
X77869030Y-45664329D01*
X77879520Y-45642150D01*
X77892132Y-45621107D01*
X77906747Y-45601401D01*
X77923223Y-45583223D01*
X77941401Y-45566747D01*
X77961107Y-45552132D01*
X77982150Y-45539520D01*
X78004329Y-45529030D01*
X78027428Y-45520765D01*
X78051227Y-45514804D01*
X78075495Y-45511204D01*
X78099999Y-45510000D01*
X78750001Y-45510000D01*
X78774505Y-45511204D01*
G37*
G36*
X135924505Y-47511204D02*
G01*
X135948773Y-47514804D01*
X135972572Y-47520765D01*
X135995671Y-47529030D01*
X136017850Y-47539520D01*
X136038893Y-47552132D01*
X136058599Y-47566747D01*
X136076777Y-47583223D01*
X136093253Y-47601401D01*
X136107868Y-47621107D01*
X136120480Y-47642150D01*
X136130970Y-47664329D01*
X136139235Y-47687428D01*
X136145196Y-47711227D01*
X136148796Y-47735495D01*
X136150000Y-47759999D01*
X136150000Y-48660001D01*
X136148796Y-48684505D01*
X136145196Y-48708773D01*
X136139235Y-48732572D01*
X136130970Y-48755671D01*
X136120480Y-48777850D01*
X136107868Y-48798893D01*
X136093253Y-48818599D01*
X136076777Y-48836777D01*
X136058599Y-48853253D01*
X136038893Y-48867868D01*
X136017850Y-48880480D01*
X135995671Y-48890970D01*
X135972572Y-48899235D01*
X135948773Y-48905196D01*
X135924505Y-48908796D01*
X135900001Y-48910000D01*
X135249999Y-48910000D01*
X135225495Y-48908796D01*
X135201227Y-48905196D01*
X135177428Y-48899235D01*
X135154329Y-48890970D01*
X135132150Y-48880480D01*
X135111107Y-48867868D01*
X135091401Y-48853253D01*
X135073223Y-48836777D01*
X135056747Y-48818599D01*
X135042132Y-48798893D01*
X135029520Y-48777850D01*
X135019030Y-48755671D01*
X135010765Y-48732572D01*
X135004804Y-48708773D01*
X135001204Y-48684505D01*
X135000000Y-48660001D01*
X135000000Y-47759999D01*
X135001204Y-47735495D01*
X135004804Y-47711227D01*
X135010765Y-47687428D01*
X135019030Y-47664329D01*
X135029520Y-47642150D01*
X135042132Y-47621107D01*
X135056747Y-47601401D01*
X135073223Y-47583223D01*
X135091401Y-47566747D01*
X135111107Y-47552132D01*
X135132150Y-47539520D01*
X135154329Y-47529030D01*
X135177428Y-47520765D01*
X135201227Y-47514804D01*
X135225495Y-47511204D01*
X135249999Y-47510000D01*
X135900001Y-47510000D01*
X135924505Y-47511204D01*
G37*
G36*
X133874505Y-47511204D02*
G01*
X133898773Y-47514804D01*
X133922572Y-47520765D01*
X133945671Y-47529030D01*
X133967850Y-47539520D01*
X133988893Y-47552132D01*
X134008599Y-47566747D01*
X134026777Y-47583223D01*
X134043253Y-47601401D01*
X134057868Y-47621107D01*
X134070480Y-47642150D01*
X134080970Y-47664329D01*
X134089235Y-47687428D01*
X134095196Y-47711227D01*
X134098796Y-47735495D01*
X134100000Y-47759999D01*
X134100000Y-48660001D01*
X134098796Y-48684505D01*
X134095196Y-48708773D01*
X134089235Y-48732572D01*
X134080970Y-48755671D01*
X134070480Y-48777850D01*
X134057868Y-48798893D01*
X134043253Y-48818599D01*
X134026777Y-48836777D01*
X134008599Y-48853253D01*
X133988893Y-48867868D01*
X133967850Y-48880480D01*
X133945671Y-48890970D01*
X133922572Y-48899235D01*
X133898773Y-48905196D01*
X133874505Y-48908796D01*
X133850001Y-48910000D01*
X133199999Y-48910000D01*
X133175495Y-48908796D01*
X133151227Y-48905196D01*
X133127428Y-48899235D01*
X133104329Y-48890970D01*
X133082150Y-48880480D01*
X133061107Y-48867868D01*
X133041401Y-48853253D01*
X133023223Y-48836777D01*
X133006747Y-48818599D01*
X132992132Y-48798893D01*
X132979520Y-48777850D01*
X132969030Y-48755671D01*
X132960765Y-48732572D01*
X132954804Y-48708773D01*
X132951204Y-48684505D01*
X132950000Y-48660001D01*
X132950000Y-47759999D01*
X132951204Y-47735495D01*
X132954804Y-47711227D01*
X132960765Y-47687428D01*
X132969030Y-47664329D01*
X132979520Y-47642150D01*
X132992132Y-47621107D01*
X133006747Y-47601401D01*
X133023223Y-47583223D01*
X133041401Y-47566747D01*
X133061107Y-47552132D01*
X133082150Y-47539520D01*
X133104329Y-47529030D01*
X133127428Y-47520765D01*
X133151227Y-47514804D01*
X133175495Y-47511204D01*
X133199999Y-47510000D01*
X133850001Y-47510000D01*
X133874505Y-47511204D01*
G37*
G36*
X135924505Y-123711204D02*
G01*
X135948773Y-123714804D01*
X135972572Y-123720765D01*
X135995671Y-123729030D01*
X136017850Y-123739520D01*
X136038893Y-123752132D01*
X136058599Y-123766747D01*
X136076777Y-123783223D01*
X136093253Y-123801401D01*
X136107868Y-123821107D01*
X136120480Y-123842150D01*
X136130970Y-123864329D01*
X136139235Y-123887428D01*
X136145196Y-123911227D01*
X136148796Y-123935495D01*
X136150000Y-123959999D01*
X136150000Y-124860001D01*
X136148796Y-124884505D01*
X136145196Y-124908773D01*
X136139235Y-124932572D01*
X136130970Y-124955671D01*
X136120480Y-124977850D01*
X136107868Y-124998893D01*
X136093253Y-125018599D01*
X136076777Y-125036777D01*
X136058599Y-125053253D01*
X136038893Y-125067868D01*
X136017850Y-125080480D01*
X135995671Y-125090970D01*
X135972572Y-125099235D01*
X135948773Y-125105196D01*
X135924505Y-125108796D01*
X135900001Y-125110000D01*
X135249999Y-125110000D01*
X135225495Y-125108796D01*
X135201227Y-125105196D01*
X135177428Y-125099235D01*
X135154329Y-125090970D01*
X135132150Y-125080480D01*
X135111107Y-125067868D01*
X135091401Y-125053253D01*
X135073223Y-125036777D01*
X135056747Y-125018599D01*
X135042132Y-124998893D01*
X135029520Y-124977850D01*
X135019030Y-124955671D01*
X135010765Y-124932572D01*
X135004804Y-124908773D01*
X135001204Y-124884505D01*
X135000000Y-124860001D01*
X135000000Y-123959999D01*
X135001204Y-123935495D01*
X135004804Y-123911227D01*
X135010765Y-123887428D01*
X135019030Y-123864329D01*
X135029520Y-123842150D01*
X135042132Y-123821107D01*
X135056747Y-123801401D01*
X135073223Y-123783223D01*
X135091401Y-123766747D01*
X135111107Y-123752132D01*
X135132150Y-123739520D01*
X135154329Y-123729030D01*
X135177428Y-123720765D01*
X135201227Y-123714804D01*
X135225495Y-123711204D01*
X135249999Y-123710000D01*
X135900001Y-123710000D01*
X135924505Y-123711204D01*
G37*
G36*
X133874505Y-123711204D02*
G01*
X133898773Y-123714804D01*
X133922572Y-123720765D01*
X133945671Y-123729030D01*
X133967850Y-123739520D01*
X133988893Y-123752132D01*
X134008599Y-123766747D01*
X134026777Y-123783223D01*
X134043253Y-123801401D01*
X134057868Y-123821107D01*
X134070480Y-123842150D01*
X134080970Y-123864329D01*
X134089235Y-123887428D01*
X134095196Y-123911227D01*
X134098796Y-123935495D01*
X134100000Y-123959999D01*
X134100000Y-124860001D01*
X134098796Y-124884505D01*
X134095196Y-124908773D01*
X134089235Y-124932572D01*
X134080970Y-124955671D01*
X134070480Y-124977850D01*
X134057868Y-124998893D01*
X134043253Y-125018599D01*
X134026777Y-125036777D01*
X134008599Y-125053253D01*
X133988893Y-125067868D01*
X133967850Y-125080480D01*
X133945671Y-125090970D01*
X133922572Y-125099235D01*
X133898773Y-125105196D01*
X133874505Y-125108796D01*
X133850001Y-125110000D01*
X133199999Y-125110000D01*
X133175495Y-125108796D01*
X133151227Y-125105196D01*
X133127428Y-125099235D01*
X133104329Y-125090970D01*
X133082150Y-125080480D01*
X133061107Y-125067868D01*
X133041401Y-125053253D01*
X133023223Y-125036777D01*
X133006747Y-125018599D01*
X132992132Y-124998893D01*
X132979520Y-124977850D01*
X132969030Y-124955671D01*
X132960765Y-124932572D01*
X132954804Y-124908773D01*
X132951204Y-124884505D01*
X132950000Y-124860001D01*
X132950000Y-123959999D01*
X132951204Y-123935495D01*
X132954804Y-123911227D01*
X132960765Y-123887428D01*
X132969030Y-123864329D01*
X132979520Y-123842150D01*
X132992132Y-123821107D01*
X133006747Y-123801401D01*
X133023223Y-123783223D01*
X133041401Y-123766747D01*
X133061107Y-123752132D01*
X133082150Y-123739520D01*
X133104329Y-123729030D01*
X133127428Y-123720765D01*
X133151227Y-123714804D01*
X133175495Y-123711204D01*
X133199999Y-123710000D01*
X133850001Y-123710000D01*
X133874505Y-123711204D01*
G37*
G36*
X76724505Y-121711204D02*
G01*
X76748773Y-121714804D01*
X76772572Y-121720765D01*
X76795671Y-121729030D01*
X76817850Y-121739520D01*
X76838893Y-121752132D01*
X76858599Y-121766747D01*
X76876777Y-121783223D01*
X76893253Y-121801401D01*
X76907868Y-121821107D01*
X76920480Y-121842150D01*
X76930970Y-121864329D01*
X76939235Y-121887428D01*
X76945196Y-121911227D01*
X76948796Y-121935495D01*
X76950000Y-121959999D01*
X76950000Y-122860001D01*
X76948796Y-122884505D01*
X76945196Y-122908773D01*
X76939235Y-122932572D01*
X76930970Y-122955671D01*
X76920480Y-122977850D01*
X76907868Y-122998893D01*
X76893253Y-123018599D01*
X76876777Y-123036777D01*
X76858599Y-123053253D01*
X76838893Y-123067868D01*
X76817850Y-123080480D01*
X76795671Y-123090970D01*
X76772572Y-123099235D01*
X76748773Y-123105196D01*
X76724505Y-123108796D01*
X76700001Y-123110000D01*
X76049999Y-123110000D01*
X76025495Y-123108796D01*
X76001227Y-123105196D01*
X75977428Y-123099235D01*
X75954329Y-123090970D01*
X75932150Y-123080480D01*
X75911107Y-123067868D01*
X75891401Y-123053253D01*
X75873223Y-123036777D01*
X75856747Y-123018599D01*
X75842132Y-122998893D01*
X75829520Y-122977850D01*
X75819030Y-122955671D01*
X75810765Y-122932572D01*
X75804804Y-122908773D01*
X75801204Y-122884505D01*
X75800000Y-122860001D01*
X75800000Y-121959999D01*
X75801204Y-121935495D01*
X75804804Y-121911227D01*
X75810765Y-121887428D01*
X75819030Y-121864329D01*
X75829520Y-121842150D01*
X75842132Y-121821107D01*
X75856747Y-121801401D01*
X75873223Y-121783223D01*
X75891401Y-121766747D01*
X75911107Y-121752132D01*
X75932150Y-121739520D01*
X75954329Y-121729030D01*
X75977428Y-121720765D01*
X76001227Y-121714804D01*
X76025495Y-121711204D01*
X76049999Y-121710000D01*
X76700001Y-121710000D01*
X76724505Y-121711204D01*
G37*
G36*
X78774505Y-121711204D02*
G01*
X78798773Y-121714804D01*
X78822572Y-121720765D01*
X78845671Y-121729030D01*
X78867850Y-121739520D01*
X78888893Y-121752132D01*
X78908599Y-121766747D01*
X78926777Y-121783223D01*
X78943253Y-121801401D01*
X78957868Y-121821107D01*
X78970480Y-121842150D01*
X78980970Y-121864329D01*
X78989235Y-121887428D01*
X78995196Y-121911227D01*
X78998796Y-121935495D01*
X79000000Y-121959999D01*
X79000000Y-122860001D01*
X78998796Y-122884505D01*
X78995196Y-122908773D01*
X78989235Y-122932572D01*
X78980970Y-122955671D01*
X78970480Y-122977850D01*
X78957868Y-122998893D01*
X78943253Y-123018599D01*
X78926777Y-123036777D01*
X78908599Y-123053253D01*
X78888893Y-123067868D01*
X78867850Y-123080480D01*
X78845671Y-123090970D01*
X78822572Y-123099235D01*
X78798773Y-123105196D01*
X78774505Y-123108796D01*
X78750001Y-123110000D01*
X78099999Y-123110000D01*
X78075495Y-123108796D01*
X78051227Y-123105196D01*
X78027428Y-123099235D01*
X78004329Y-123090970D01*
X77982150Y-123080480D01*
X77961107Y-123067868D01*
X77941401Y-123053253D01*
X77923223Y-123036777D01*
X77906747Y-123018599D01*
X77892132Y-122998893D01*
X77879520Y-122977850D01*
X77869030Y-122955671D01*
X77860765Y-122932572D01*
X77854804Y-122908773D01*
X77851204Y-122884505D01*
X77850000Y-122860001D01*
X77850000Y-121959999D01*
X77851204Y-121935495D01*
X77854804Y-121911227D01*
X77860765Y-121887428D01*
X77869030Y-121864329D01*
X77879520Y-121842150D01*
X77892132Y-121821107D01*
X77906747Y-121801401D01*
X77923223Y-121783223D01*
X77941401Y-121766747D01*
X77961107Y-121752132D01*
X77982150Y-121739520D01*
X78004329Y-121729030D01*
X78027428Y-121720765D01*
X78051227Y-121714804D01*
X78075495Y-121711204D01*
X78099999Y-121710000D01*
X78750001Y-121710000D01*
X78774505Y-121711204D01*
G37*
M02*
