M48
; DRILL file {KiCad 5.1.5+dfsg1-2build2} date Sun 17 May 2020 05:47:00 PM PDT
; FORMAT={-:-/ absolute / inch / decimal}
; #@! TF.CreationDate,2020-05-17T17:47:00-07:00
; #@! TF.GenerationSoftware,Kicad,Pcbnew,5.1.5+dfsg1-2build2
; #@! TF.FileFunction,Plated,1,2,PTH
FMAT,2
INCH
T1C0.0157
T2C0.0591
T3C0.1378
%
G90
G05
T1
X1.2219Y-5.111
X1.6452Y-4.4337
X1.8445Y-4.3388
X1.8445Y-4.3888
X1.8445Y-4.4388
X1.8445Y-4.4888
X1.8445Y-4.5388
X1.8445Y-4.5888
X1.875Y-4.775
X1.875Y-4.825
X1.925Y-1.875
X1.9715Y-4.775
X1.9715Y-4.825
X1.9719Y-1.361
X1.9719Y-2.111
X1.9719Y-2.861
X1.9719Y-3.611
X1.9719Y-4.361
X1.9719Y-5.111
X2.4472Y-3.3778
X3.1972Y-3.1528
X3.325Y-1.6
X3.4Y-4.65
X3.9472Y-2.9028
X4.6972Y-2.4028
X4.875Y-4.75
X4.975Y-1.775
X5.4472Y-2.5028
X5.525Y-1.825
X5.55Y-4.8
X6.1972Y-2.4778
T2
X4.4472Y-3.7049
X4.6972Y-3.6049
X4.4472Y-2.9549
X4.6972Y-2.8549
X4.4472Y-5.2049
X4.6972Y-5.1049
X3.6972Y-5.0081
X3.9472Y-4.9081
X2.9472Y-4.4943
X3.1972Y-4.3943
X5.1972Y-3.073
X5.4472Y-2.973
X5.1972Y-2.323
X5.4472Y-2.223
X5.9472Y-2.323
X6.1972Y-2.223
X2.9472Y-1.4943
X3.1972Y-1.3943
X2.9472Y-5.2443
X3.1972Y-5.1443
X3.6972Y-2.7581
X3.9472Y-2.6581
X4.4472Y-2.2049
X4.6972Y-2.1049
X5.9472Y-4.573
X6.1972Y-4.473
X5.1972Y-5.323
X5.4472Y-5.223
X3.6972Y-1.2581
X3.9472Y-1.1581
X2.1972Y-4.6911
X2.4472Y-4.5911
X5.9472Y-5.323
X6.1972Y-5.223
X5.1972Y-1.573
X5.4472Y-1.473
X5.1972Y-4.573
X5.4472Y-4.473
X5.9472Y-1.573
X6.1972Y-1.473
X2.9472Y-3.7443
X3.1972Y-3.6443
X4.4472Y-1.4549
X4.6972Y-1.3549
X2.9472Y-2.9943
X3.1972Y-2.8943
X2.1972Y-1.6911
X2.4472Y-1.5911
X2.9472Y-2.2443
X3.1972Y-2.1443
X5.1972Y-3.823
X5.4472Y-3.723
X5.9472Y-3.073
X6.1972Y-2.973
X4.4472Y-4.4549
X4.6972Y-4.3549
X3.6972Y-2.0081
X3.9472Y-1.9081
X2.1972Y-3.9411
X2.4472Y-3.8411
X2.1972Y-2.4411
X2.4472Y-2.3411
X2.1972Y-3.1911
X2.4472Y-3.0911
X5.9472Y-3.823
X6.1972Y-3.723
X2.1972Y-5.4411
X2.4472Y-5.3411
X3.6972Y-3.5081
X3.9472Y-3.4081
X3.6972Y-4.2581
X3.9472Y-4.1581
X1.4472Y-5.4411
X1.6972Y-5.3411
T3
X2.6722Y-1.6693
X5.6722Y-1.748
X5.6722Y-4.748
X2.6722Y-4.6693
T0
M30
