G04 #@! TF.GenerationSoftware,KiCad,Pcbnew,5.1.5+dfsg1-2build2*
G04 #@! TF.CreationDate,2020-05-17T17:46:53-07:00*
G04 #@! TF.ProjectId,triad_right,74726961-645f-4726-9967-68742e6b6963,rev?*
G04 #@! TF.SameCoordinates,Original*
G04 #@! TF.FileFunction,Copper,L1,Top*
G04 #@! TF.FilePolarity,Positive*
%FSLAX46Y46*%
G04 Gerber Fmt 4.6, Leading zero omitted, Abs format (unit mm)*
G04 Created by KiCad (PCBNEW 5.1.5+dfsg1-2build2) date 2020-05-17 17:46:53*
%MOMM*%
%LPD*%
G04 APERTURE LIST*
%ADD10C,2.200000*%
%ADD11C,4.500000*%
%ADD12C,0.800000*%
%ADD13C,0.250000*%
G04 APERTURE END LIST*
D10*
X74860000Y-76055000D03*
X81210000Y-73515000D03*
D11*
X67875000Y-118600000D03*
X144075000Y-120600000D03*
X67875000Y-42400000D03*
X144075000Y-44400000D03*
D10*
X62160000Y-40415000D03*
X55810000Y-42955000D03*
X74860000Y-37955000D03*
X81210000Y-35415000D03*
X100260000Y-29415000D03*
X93910000Y-31955000D03*
X112960000Y-36955000D03*
X119310000Y-34415000D03*
X138360000Y-37415000D03*
X132010000Y-39955000D03*
X151060000Y-39955000D03*
X157410000Y-37415000D03*
X62160000Y-59465000D03*
X55810000Y-62005000D03*
X74860000Y-57005000D03*
X81210000Y-54465000D03*
X100260000Y-48465000D03*
X93910000Y-51005000D03*
X112960000Y-56005000D03*
X119310000Y-53465000D03*
X138360000Y-56465000D03*
X132010000Y-59005000D03*
X151060000Y-59005000D03*
X157410000Y-56465000D03*
X62160000Y-78515000D03*
X55810000Y-81055000D03*
X100260000Y-67514999D03*
X93910000Y-70054999D03*
X112960000Y-75055000D03*
X119310000Y-72515000D03*
X138360000Y-75515000D03*
X132010000Y-78055000D03*
X151060000Y-78055000D03*
X157410000Y-75515000D03*
X62160000Y-97565000D03*
X55810000Y-100105000D03*
X81210000Y-92565000D03*
X74860000Y-95105000D03*
X93910000Y-89105000D03*
X100260000Y-86565000D03*
X119310000Y-91565000D03*
X112960000Y-94105000D03*
X132010000Y-97105000D03*
X138360000Y-94565000D03*
X157410000Y-94565000D03*
X151060000Y-97105000D03*
X43110000Y-135665000D03*
X36760000Y-138205000D03*
X55810000Y-119155000D03*
X62160000Y-116615000D03*
X81210000Y-111615000D03*
X74860000Y-114155000D03*
X93910000Y-108155000D03*
X100260000Y-105615000D03*
X112960000Y-113155000D03*
X119310000Y-110615000D03*
X138360000Y-113615000D03*
X132010000Y-116155000D03*
X151060000Y-116155000D03*
X157410000Y-113615000D03*
X62160000Y-135665000D03*
X55810000Y-138205000D03*
X74860000Y-133205000D03*
X81210000Y-130665000D03*
X100260000Y-124665000D03*
X93910000Y-127205000D03*
X112960000Y-132205000D03*
X119310000Y-129665000D03*
X138360000Y-132665000D03*
X132010000Y-135205000D03*
X151060000Y-135205000D03*
X157410000Y-132665000D03*
D12*
X50087500Y-34570000D03*
X46850000Y-110205000D03*
X46850000Y-111475000D03*
X50087500Y-53620000D03*
X46850000Y-112745000D03*
X50087500Y-72670000D03*
X46850000Y-114015000D03*
X50087500Y-91720000D03*
X46850000Y-115285000D03*
X50087500Y-110770000D03*
X31037499Y-129820000D03*
X46850000Y-116555000D03*
X50087500Y-129820000D03*
X47625000Y-121285000D03*
X50075000Y-121285000D03*
X41787347Y-112615000D03*
X48895000Y-47625000D03*
X140970000Y-121920000D03*
X140335000Y-46355000D03*
X157410000Y-62935000D03*
X138360000Y-63570000D03*
X119310000Y-61030000D03*
X100260000Y-73730000D03*
X81210000Y-80080000D03*
X62160000Y-85795000D03*
X47625000Y-122555000D03*
X50075000Y-122555000D03*
X123825000Y-120650000D03*
X126365000Y-45085000D03*
X86360000Y-118110000D03*
X84455000Y-40640000D03*
D13*
X47415685Y-110205000D02*
X46850000Y-110205000D01*
X47625000Y-109995685D02*
X47415685Y-110205000D01*
X48260000Y-90001089D02*
X48260000Y-107315000D01*
X47625000Y-107950000D02*
X47625000Y-109995685D01*
X48895000Y-89366089D02*
X48260000Y-90001089D01*
X48895000Y-70952499D02*
X48895000Y-89366089D01*
X49362499Y-70485000D02*
X48895000Y-70952499D01*
X50087500Y-52070000D02*
X49362499Y-52795001D01*
X48260000Y-107315000D02*
X47625000Y-107950000D01*
X49362499Y-52795001D02*
X49362499Y-70485000D01*
X50087500Y-34570000D02*
X50087500Y-52070000D01*
X48260000Y-111125000D02*
X47910000Y-111475000D01*
X48260000Y-108585000D02*
X48260000Y-111125000D01*
X47910000Y-111475000D02*
X46850000Y-111475000D01*
X48895000Y-107950000D02*
X48260000Y-108585000D01*
X49362499Y-89535000D02*
X48895000Y-90002499D01*
X49362499Y-71845001D02*
X49362499Y-89535000D01*
X50087500Y-71120000D02*
X49362499Y-71845001D01*
X48895000Y-90002499D02*
X48895000Y-107950000D01*
X50087500Y-53620000D02*
X50087500Y-71120000D01*
X48895000Y-109220000D02*
X48895000Y-111760000D01*
X49362499Y-108752501D02*
X48895000Y-109220000D01*
X49362499Y-90260001D02*
X49362499Y-108752501D01*
X50087500Y-89535000D02*
X49362499Y-90260001D01*
X47910000Y-112745000D02*
X46850000Y-112745000D01*
X48895000Y-111760000D02*
X47910000Y-112745000D01*
X50087500Y-72670000D02*
X50087500Y-89535000D01*
X50087500Y-91720000D02*
X50087500Y-109297500D01*
X49362499Y-110022501D02*
X49362499Y-112701776D01*
X50087500Y-109297500D02*
X49362499Y-110022501D01*
X48049275Y-114015000D02*
X46850000Y-114015000D01*
X49362499Y-112701776D02*
X48049275Y-114015000D01*
X50087500Y-111335685D02*
X50087500Y-110770000D01*
X50087500Y-112613185D02*
X50087500Y-111335685D01*
X47415685Y-115285000D02*
X50087500Y-112613185D01*
X46850000Y-115285000D02*
X47415685Y-115285000D01*
X46124999Y-129820000D02*
X31037499Y-129820000D01*
X46124999Y-116010001D02*
X46124999Y-129820000D01*
X46850000Y-115285000D02*
X46124999Y-116010001D01*
X50087500Y-119792500D02*
X46850000Y-116555000D01*
X50087500Y-129820000D02*
X50087500Y-128982500D01*
X50087500Y-128982500D02*
X50800000Y-128270000D01*
X50800000Y-120505000D02*
X50087500Y-119792500D01*
X50800000Y-128270000D02*
X50800000Y-120505000D01*
X47625000Y-121285000D02*
X50075000Y-121285000D01*
X42187346Y-112215001D02*
X42723589Y-112215001D01*
X41787347Y-112615000D02*
X42187346Y-112215001D01*
X42723589Y-112215001D02*
X47625000Y-107313590D01*
X47625000Y-107313590D02*
X47625000Y-89999679D01*
X48444990Y-89179689D02*
X48444991Y-70766098D01*
X47625000Y-89999679D02*
X48444990Y-89179689D01*
X48444991Y-70766098D02*
X48895000Y-70316089D01*
X48895000Y-70316089D02*
X48895000Y-52070000D01*
X48895000Y-52070000D02*
X48895000Y-47625000D01*
X140970000Y-121920000D02*
X140970000Y-46990000D01*
X140970000Y-46990000D02*
X140335000Y-46355000D01*
X157410000Y-37415000D02*
X157410000Y-56465000D01*
X157410000Y-75515000D02*
X157410000Y-62935000D01*
X157410000Y-94565000D02*
X157410000Y-75515000D01*
X157410000Y-132665000D02*
X157410000Y-113615000D01*
X157410000Y-113615000D02*
X157410000Y-94565000D01*
X157410000Y-62935000D02*
X157410000Y-56465000D01*
X138360000Y-37415000D02*
X138360000Y-56465000D01*
X138360000Y-56465000D02*
X138360000Y-63570000D01*
X138360000Y-75515000D02*
X138360000Y-94565000D01*
X138360000Y-94565000D02*
X138360000Y-113615000D01*
X138360000Y-113615000D02*
X138360000Y-132665000D01*
X138360000Y-63570000D02*
X138360000Y-75515000D01*
X119310000Y-51394002D02*
X119310000Y-53465000D01*
X119310000Y-34415000D02*
X119310000Y-51394002D01*
X119310000Y-72515000D02*
X119310000Y-61030000D01*
X119310000Y-91565000D02*
X119310000Y-72515000D01*
X119310000Y-129665000D02*
X119310000Y-110615000D01*
X119310000Y-110615000D02*
X119310000Y-91565000D01*
X119310000Y-61030000D02*
X119310000Y-53465000D01*
X100260000Y-29415000D02*
X100260000Y-48465000D01*
X100260000Y-50020634D02*
X100260000Y-67514999D01*
X100260000Y-48465000D02*
X100260000Y-50020634D01*
X100260000Y-86565000D02*
X100260000Y-73730000D01*
X100260000Y-86565000D02*
X100260000Y-105615000D01*
X100260000Y-105615000D02*
X100260000Y-124665000D01*
X100260000Y-73730000D02*
X100260000Y-67514999D01*
X81210000Y-35415000D02*
X81210000Y-54465000D01*
X81210000Y-73515000D02*
X81210000Y-54465000D01*
X81210000Y-92565000D02*
X81210000Y-80080000D01*
X81210000Y-130665000D02*
X81210000Y-111615000D01*
X81210000Y-111615000D02*
X81210000Y-92565000D01*
X81210000Y-80080000D02*
X81210000Y-73515000D01*
X62160000Y-40415000D02*
X62160000Y-59465000D01*
X62160000Y-59465000D02*
X62160000Y-78515000D01*
X62160000Y-97565000D02*
X62160000Y-85795000D01*
X62160000Y-116615000D02*
X62160000Y-97565000D01*
X62160000Y-135665000D02*
X62160000Y-116615000D01*
X62160000Y-85795000D02*
X62160000Y-78515000D01*
X47625000Y-122555000D02*
X50075000Y-122555000D01*
X123825000Y-120650000D02*
X123825000Y-69850000D01*
X123825000Y-47625000D02*
X126365000Y-45085000D01*
X123825000Y-69850000D02*
X123825000Y-47625000D01*
X86360000Y-118110000D02*
X86360000Y-97790000D01*
X86360000Y-97790000D02*
X86360000Y-67945000D01*
X86360000Y-67945000D02*
X86360000Y-42545000D01*
X86360000Y-42545000D02*
X84455000Y-40640000D01*
M02*
