M48
; DRILL file {KiCad 5.1.5+dfsg1-2build2} date Sun 17 May 2020 05:47:00 PM PDT
; FORMAT={-:-/ absolute / inch / decimal}
; #@! TF.CreationDate,2020-05-17T17:47:00-07:00
; #@! TF.GenerationSoftware,Kicad,Pcbnew,5.1.5+dfsg1-2build2
; #@! TF.FileFunction,NonPlated,1,2,NPTH
FMAT,2
INCH
T1C0.0669
T2C0.1575
%
G90
G05
T1
X2.8472Y-4.2943
X3.2472Y-4.2943
X5.0972Y-2.873
X5.4972Y-2.873
X5.0972Y-2.123
X5.4972Y-2.123
X5.8472Y-2.123
X6.2472Y-2.123
X2.8472Y-1.2943
X3.2472Y-1.2943
X2.8472Y-5.0443
X3.2472Y-5.0443
X3.5972Y-2.5581
X3.9972Y-2.5581
X4.3472Y-2.0049
X4.7472Y-2.0049
X5.8472Y-4.373
X6.2472Y-4.373
X5.0972Y-5.123
X5.4972Y-5.123
X3.5972Y-1.0581
X3.9972Y-1.0581
X2.0972Y-4.4911
X2.4972Y-4.4911
X5.8472Y-5.123
X6.2472Y-5.123
X5.0972Y-1.373
X5.4972Y-1.373
X5.0972Y-4.373
X5.4972Y-4.373
X5.8472Y-1.373
X6.2472Y-1.373
X2.8472Y-3.5443
X3.2472Y-3.5443
X4.3472Y-1.2549
X4.7472Y-1.2549
X2.8472Y-2.7943
X3.2472Y-2.7943
X2.0972Y-1.4911
X2.4972Y-1.4911
X2.8472Y-2.0443
X3.2472Y-2.0443
X5.0972Y-3.623
X5.4972Y-3.623
X5.8472Y-2.873
X6.2472Y-2.873
X4.3472Y-4.2549
X4.7472Y-4.2549
X3.5972Y-1.8081
X3.9972Y-1.8081
X2.0972Y-3.7411
X2.4972Y-3.7411
X2.0972Y-2.2411
X2.4972Y-2.2411
X2.0972Y-2.9911
X2.4972Y-2.9911
X5.8472Y-3.623
X6.2472Y-3.623
X2.0972Y-5.2411
X2.4972Y-5.2411
X3.5972Y-3.3081
X3.9972Y-3.3081
X3.5972Y-4.0581
X3.9972Y-4.0581
X1.3472Y-5.2411
X1.7472Y-5.2411
X4.3472Y-3.5049
X4.7472Y-3.5049
X4.3472Y-2.7549
X4.7472Y-2.7549
X4.3472Y-5.0049
X4.7472Y-5.0049
X3.5972Y-4.8081
X3.9972Y-4.8081
T2
X3.0472Y-4.2943
X5.2972Y-2.873
X5.2972Y-2.123
X6.0472Y-2.123
X3.0472Y-1.2943
X3.0472Y-5.0443
X3.7972Y-2.5581
X4.5472Y-2.0049
X6.0472Y-4.373
X5.2972Y-5.123
X3.7972Y-1.0581
X2.2972Y-4.4911
X6.0472Y-5.123
X5.2972Y-1.373
X5.2972Y-4.373
X6.0472Y-1.373
X3.0472Y-3.5443
X4.5472Y-1.2549
X3.0472Y-2.7943
X2.2972Y-1.4911
X3.0472Y-2.0443
X5.2972Y-3.623
X6.0472Y-2.873
X4.5472Y-4.2549
X3.7972Y-1.8081
X2.2972Y-3.7411
X2.2972Y-2.2411
X2.2972Y-2.9911
X6.0472Y-3.623
X2.2972Y-5.2411
X3.7972Y-3.3081
X3.7972Y-4.0581
X1.5472Y-5.2411
X4.5472Y-3.5049
X4.5472Y-2.7549
X4.5472Y-5.0049
X3.7972Y-4.8081
T0
M30
