<?xml version="1.0" encoding="utf-8"?>
<svg
  width="192mm"
  height="160mm"
  viewBox="0 0 192 160" xmlns="http://www.w3.org/2000/svg">
  <g
    id="switch"
    transform="translate(96.45,80)">
    <g
      id="Outer">
      <g
        id="PlatePerimeter">
        <g
          id="">
          <path
            style="fill:#7f7f7f;fill-opacity:1.0;stroke:#000000;stroke-width:0.5"
            d="M -69.675 -54.259 Q -69.675 -57.259 -66.704 -57.675 L -12.705 -65.234 Q -9.734 -65.65 -6.734 -65.65 L 6.949 -65.65 Q 9.949 -65.65 12.831 -64.818 L 49.749 -54.159 Q 52.631 -53.327 53.152 -50.373 L 69.154 40.384 Q 69.675 43.338 69.675 46.338 L 69.675 62.65 Q 69.675 65.65 66.675 65.65 L 31.496 65.65 Q 28.496 65.65 25.5 65.493 L -25.658 62.807 Q -28.654 62.65 -31.654 62.65 L -66.675 62.65 Q -69.675 62.65 -69.675 59.65 L -69.675 -54.259" />
        </g>
      </g>
      <g
        id="ScrewHoles">
        <g
          id=""
          transform="translate(-47.625,-35.6)">
          <circle
            r="1.15"
            style="fill:none;stroke:#0000ff;stroke-width:0.01" />
          <circle
            r="1.15"
            style="fill:#000000;stroke:#000000;stroke-width:0.01" />
        </g>
        <g
          id=""
          transform="translate(28.575,-37.6)">
          <circle
            r="1.15"
            style="fill:none;stroke:#0000ff;stroke-width:0.01" />
          <circle
            r="1.15"
            style="fill:#000000;stroke:#000000;stroke-width:0.01" />
        </g>
        <g
          id=""
          transform="translate(-47.625,40.6)">
          <circle
            r="1.15"
            style="fill:none;stroke:#0000ff;stroke-width:0.01" />
          <circle
            r="1.15"
            style="fill:#000000;stroke:#000000;stroke-width:0.01" />
        </g>
        <g
          id=""
          transform="translate(28.575,38.6)">
          <circle
            r="1.15"
            style="fill:none;stroke:#0000ff;stroke-width:0.01" />
          <circle
            r="1.15"
            style="fill:#000000;stroke:#000000;stroke-width:0.01" />
        </g>
      </g>
      <g
        id="Keys">
        <g
          id="Column00"
          transform="translate(-57.15,2.5)">
          <g
            id="Column00Key00"
            transform="translate(0,-47.625004)">
            <g
              id="">
              <path
                style="fill:none;fill-opacity:1;stroke:#0000ff;stroke-width:0.5"
                d="M -7 -7 L 7 -7 L 7 -6 L 7.8 -6 L 7.8 6 L 7 6 L 7 7 L -7 7 L -7 6 L -7.8 6 L -7.8 -6 L -7 -6 L -7 -7" />
            </g>
            <path
              id="Column00Key00KeycapOverlay"
              d="M -9.05,-9.05 h 18.1 v 18.1 h -18.1 v -18.1 h 18.1"
              style="fill:#ffffff;stroke:#000000;stroke-width:0.5" />
            <text
              id="Column00Key00Legend0"
              text-anchor="middle"
              style="fill:#000000;dominant-baseline:central;text-anchor:middle;font-size:4px;font-family:sans-serif;font-weight:normal;font-style:normal">F1</text>
          </g>
          <g
            id="Column00Key01"
            transform="translate(0,-28.575003)">
            <g
              id="">
              <path
                style="fill:none;fill-opacity:1;stroke:#0000ff;stroke-width:0.5"
                d="M -7 -7 L 7 -7 L 7 -6 L 7.8 -6 L 7.8 6 L 7 6 L 7 7 L -7 7 L -7 6 L -7.8 6 L -7.8 -6 L -7 -6 L -7 -7" />
            </g>
            <path
              id="Column00Key01KeycapOverlay"
              d="M -9.05,-9.05 h 18.1 v 18.1 h -18.1 v -18.1 h 18.1"
              style="fill:#ffffff;stroke:#000000;stroke-width:0.5" />
            <text
              id="Column00Key01Legend0"
              transform="translate(0,-3)"
              text-anchor="middle"
              style="fill:#000000;dominant-baseline:central;text-anchor:middle;font-size:6px;font-family:sans-serif;font-weight:normal;font-style:normal">+</text>
            <text
              id="Column00Key01Legend1"
              transform="translate(0,3)"
              text-anchor="middle"
              style="fill:#000000;dominant-baseline:central;text-anchor:middle;font-size:6px;font-family:sans-serif;font-weight:normal;font-style:normal">=</text>
          </g>
          <g
            id="Column00Key02"
            transform="translate(0,-9.525005)">
            <g
              id="">
              <path
                style="fill:none;fill-opacity:1;stroke:#0000ff;stroke-width:0.5"
                d="M -7 -7 L 7 -7 L 7 -6 L 7.8 -6 L 7.8 6 L 7 6 L 7 7 L -7 7 L -7 6 L -7.8 6 L -7.8 -6 L -7 -6 L -7 -7" />
            </g>
            <path
              id="Column00Key02KeycapOverlay"
              d="M -9.05,-9.05 h 18.1 v 18.1 h -18.1 v -18.1 h 18.1"
              style="fill:#cfcfcf;stroke:#000000;stroke-width:0.5" />
            <text
              id="Column00Key02Legend0"
              text-anchor="middle"
              style="fill:#000000;dominant-baseline:central;text-anchor:middle;font-size:4px;font-family:sans-serif;font-weight:normal;font-style:normal">TAB</text>
          </g>
          <g
            id="Column00Key03"
            transform="translate(0,9.524998)">
            <g
              id="">
              <path
                style="fill:none;fill-opacity:1;stroke:#0000ff;stroke-width:0.5"
                d="M -7 -7 L 7 -7 L 7 -6 L 7.8 -6 L 7.8 6 L 7 6 L 7 7 L -7 7 L -7 6 L -7.8 6 L -7.8 -6 L -7 -6 L -7 -7" />
            </g>
            <path
              id="Column00Key03KeycapOverlay"
              d="M -9.05,-9.05 h 18.1 v 18.1 h -18.1 v -18.1 h 18.1"
              style="fill:#cfcfcf;stroke:#000000;stroke-width:0.5" />
            <text
              id="Column00Key03Legend0"
              text-anchor="middle"
              style="fill:#000000;dominant-baseline:central;text-anchor:middle;font-size:4px;font-family:sans-serif;font-weight:normal;font-style:normal">ESC</text>
          </g>
          <g
            id="Column00Key04"
            transform="translate(0,28.575)">
            <g
              id="">
              <path
                style="fill:none;fill-opacity:1;stroke:#0000ff;stroke-width:0.5"
                d="M -7 -7 L 7 -7 L 7 -6 L 7.8 -6 L 7.8 6 L 7 6 L 7 7 L -7 7 L -7 6 L -7.8 6 L -7.8 -6 L -7 -6 L -7 -7" />
            </g>
            <path
              id="Column00Key04KeycapOverlay"
              d="M -9.05,-9.05 h 18.1 v 18.1 h -18.1 v -18.1 h 18.1"
              style="fill:#cfcfcf;stroke:#000000;stroke-width:0.5" />
            <text
              id="Column00Key04Legend0"
              text-anchor="middle"
              style="fill:#000000;dominant-baseline:central;text-anchor:middle;font-size:4px;font-family:sans-serif;font-weight:normal;font-style:normal">SHFT</text>
          </g>
          <g
            id="Column00Key05"
            transform="translate(0,47.625004)">
            <g
              id="">
              <path
                style="fill:none;fill-opacity:1;stroke:#0000ff;stroke-width:0.5"
                d="M -7 -7 L 7 -7 L 7 -6 L 7.8 -6 L 7.8 6 L 7 6 L 7 7 L -7 7 L -7 6 L -7.8 6 L -7.8 -6 L -7 -6 L -7 -7" />
            </g>
            <path
              id="Column00Key05KeycapOverlay"
              d="M -9.05,-9.05 h 18.1 v 18.1 h -18.1 v -18.1 h 18.1"
              style="fill:#cfcfcf;stroke:#000000;stroke-width:0.5" />
            <text
              id="Column00Key05Legend0"
              text-anchor="middle"
              style="fill:#000000;dominant-baseline:central;text-anchor:middle;font-size:4px;font-family:sans-serif;font-weight:normal;font-style:normal">CTRL</text>
          </g>
        </g>
        <g
          id="Column01"
          transform="translate(-38.100002,2.5)">
          <g
            id="Column01Key00"
            transform="translate(0,-47.625004)">
            <g
              id="">
              <path
                style="fill:none;fill-opacity:1;stroke:#0000ff;stroke-width:0.5"
                d="M -7 -7 L 7 -7 L 7 -6 L 7.8 -6 L 7.8 6 L 7 6 L 7 7 L -7 7 L -7 6 L -7.8 6 L -7.8 -6 L -7 -6 L -7 -7" />
            </g>
            <path
              id="Column01Key00KeycapOverlay"
              d="M -9.05,-9.05 h 18.1 v 18.1 h -18.1 v -18.1 h 18.1"
              style="fill:#ffffff;stroke:#000000;stroke-width:0.5" />
            <text
              id="Column01Key00Legend0"
              text-anchor="middle"
              style="fill:#000000;dominant-baseline:central;text-anchor:middle;font-size:4px;font-family:sans-serif;font-weight:normal;font-style:normal">F2</text>
          </g>
          <g
            id="Column01Key01"
            transform="translate(0,-28.575003)">
            <g
              id="">
              <path
                style="fill:none;fill-opacity:1;stroke:#0000ff;stroke-width:0.5"
                d="M -7 -7 L 7 -7 L 7 -6 L 7.8 -6 L 7.8 6 L 7 6 L 7 7 L -7 7 L -7 6 L -7.8 6 L -7.8 -6 L -7 -6 L -7 -7" />
            </g>
            <path
              id="Column01Key01KeycapOverlay"
              d="M -9.05,-9.05 h 18.1 v 18.1 h -18.1 v -18.1 h 18.1"
              style="fill:#ffffff;stroke:#000000;stroke-width:0.5" />
            <text
              id="Column01Key01Legend0"
              transform="translate(0,-3)"
              text-anchor="middle"
              style="fill:#000000;dominant-baseline:central;text-anchor:middle;font-size:6px;font-family:sans-serif;font-weight:normal;font-style:normal">!</text>
            <text
              id="Column01Key01Legend1"
              transform="translate(0,3)"
              text-anchor="middle"
              style="fill:#000000;dominant-baseline:central;text-anchor:middle;font-size:6px;font-family:sans-serif;font-weight:normal;font-style:normal">1</text>
          </g>
          <g
            id="Column01Key02"
            transform="translate(0,-9.525005)">
            <g
              id="">
              <path
                style="fill:none;fill-opacity:1;stroke:#0000ff;stroke-width:0.5"
                d="M -7 -7 L 7 -7 L 7 -6 L 7.8 -6 L 7.8 6 L 7 6 L 7 7 L -7 7 L -7 6 L -7.8 6 L -7.8 -6 L -7 -6 L -7 -7" />
            </g>
            <path
              id="Column01Key02KeycapOverlay"
              d="M -9.05,-9.05 h 18.1 v 18.1 h -18.1 v -18.1 h 18.1"
              style="fill:#ffffff;stroke:#000000;stroke-width:0.5" />
            <text
              id="Column01Key02Legend0"
              text-anchor="middle"
              style="fill:#000000;dominant-baseline:central;text-anchor:middle;font-size:6px;font-family:sans-serif;font-weight:normal;font-style:normal">Q</text>
          </g>
          <g
            id="Column01Key03"
            transform="translate(0,9.524998)">
            <g
              id="">
              <path
                style="fill:none;fill-opacity:1;stroke:#0000ff;stroke-width:0.5"
                d="M -7 -7 L 7 -7 L 7 -6 L 7.8 -6 L 7.8 6 L 7 6 L 7 7 L -7 7 L -7 6 L -7.8 6 L -7.8 -6 L -7 -6 L -7 -7" />
            </g>
            <path
              id="Column01Key03KeycapOverlay"
              d="M -9.05,-9.05 h 18.1 v 18.1 h -18.1 v -18.1 h 18.1"
              style="fill:#ffffff;stroke:#000000;stroke-width:0.5" />
            <text
              id="Column01Key03Legend0"
              text-anchor="middle"
              style="fill:#000000;dominant-baseline:central;text-anchor:middle;font-size:6px;font-family:sans-serif;font-weight:normal;font-style:normal">A</text>
          </g>
          <g
            id="Column01Key04"
            transform="translate(0,28.575)">
            <g
              id="">
              <path
                style="fill:none;fill-opacity:1;stroke:#0000ff;stroke-width:0.5"
                d="M -7 -7 L 7 -7 L 7 -6 L 7.8 -6 L 7.8 6 L 7 6 L 7 7 L -7 7 L -7 6 L -7.8 6 L -7.8 -6 L -7 -6 L -7 -7" />
            </g>
            <path
              id="Column01Key04KeycapOverlay"
              d="M -9.05,-9.05 h 18.1 v 18.1 h -18.1 v -18.1 h 18.1"
              style="fill:#ffffff;stroke:#000000;stroke-width:0.5" />
            <text
              id="Column01Key04Legend0"
              text-anchor="middle"
              style="fill:#000000;dominant-baseline:central;text-anchor:middle;font-size:6px;font-family:sans-serif;font-weight:normal;font-style:normal">Z</text>
          </g>
          <g
            id="Column01Key05"
            transform="translate(0,47.625004)">
            <g
              id="">
              <path
                style="fill:none;fill-opacity:1;stroke:#0000ff;stroke-width:0.5"
                d="M -7 -7 L 7 -7 L 7 -6 L 7.8 -6 L 7.8 6 L 7 6 L 7 7 L -7 7 L -7 6 L -7.8 6 L -7.8 -6 L -7 -6 L -7 -7" />
            </g>
            <path
              id="Column01Key05KeycapOverlay"
              d="M -9.05,-9.05 h 18.1 v 18.1 h -18.1 v -18.1 h 18.1"
              style="fill:#cfcfcf;stroke:#000000;stroke-width:0.5" />
            <text
              id="Column01Key05Legend0"
              text-anchor="middle"
              style="fill:#000000;dominant-baseline:central;text-anchor:middle;font-size:4px;font-family:sans-serif;font-weight:normal;font-style:normal">OS</text>
          </g>
        </g>
        <g
          id="Column02"
          transform="translate(-19.05,-0.5)">
          <g
            id="Column02Key00"
            transform="translate(0,-47.625004)">
            <g
              id="">
              <path
                style="fill:none;fill-opacity:1;stroke:#0000ff;stroke-width:0.5"
                d="M -7 -7 L 7 -7 L 7 -6 L 7.8 -6 L 7.8 6 L 7 6 L 7 7 L -7 7 L -7 6 L -7.8 6 L -7.8 -6 L -7 -6 L -7 -7" />
            </g>
            <path
              id="Column02Key00KeycapOverlay"
              d="M -9.05,-9.05 h 18.1 v 18.1 h -18.1 v -18.1 h 18.1"
              style="fill:#ffffff;stroke:#000000;stroke-width:0.5" />
            <text
              id="Column02Key00Legend0"
              text-anchor="middle"
              style="fill:#000000;dominant-baseline:central;text-anchor:middle;font-size:4px;font-family:sans-serif;font-weight:normal;font-style:normal">F3</text>
          </g>
          <g
            id="Column02Key01"
            transform="translate(0,-28.575003)">
            <g
              id="">
              <path
                style="fill:none;fill-opacity:1;stroke:#0000ff;stroke-width:0.5"
                d="M -7 -7 L 7 -7 L 7 -6 L 7.8 -6 L 7.8 6 L 7 6 L 7 7 L -7 7 L -7 6 L -7.8 6 L -7.8 -6 L -7 -6 L -7 -7" />
            </g>
            <path
              id="Column02Key01KeycapOverlay"
              d="M -9.05,-9.05 h 18.1 v 18.1 h -18.1 v -18.1 h 18.1"
              style="fill:#ffffff;stroke:#000000;stroke-width:0.5" />
            <text
              id="Column02Key01Legend0"
              transform="translate(0,-3)"
              text-anchor="middle"
              style="fill:#000000;dominant-baseline:central;text-anchor:middle;font-size:6px;font-family:sans-serif;font-weight:normal;font-style:normal">@</text>
            <text
              id="Column02Key01Legend1"
              transform="translate(0,3)"
              text-anchor="middle"
              style="fill:#000000;dominant-baseline:central;text-anchor:middle;font-size:6px;font-family:sans-serif;font-weight:normal;font-style:normal">2</text>
          </g>
          <g
            id="Column02Key02"
            transform="translate(0,-9.525005)">
            <g
              id="">
              <path
                style="fill:none;fill-opacity:1;stroke:#0000ff;stroke-width:0.5"
                d="M -7 -7 L 7 -7 L 7 -6 L 7.8 -6 L 7.8 6 L 7 6 L 7 7 L -7 7 L -7 6 L -7.8 6 L -7.8 -6 L -7 -6 L -7 -7" />
            </g>
            <path
              id="Column02Key02KeycapOverlay"
              d="M -9.05,-9.05 h 18.1 v 18.1 h -18.1 v -18.1 h 18.1"
              style="fill:#ffffff;stroke:#000000;stroke-width:0.5" />
            <text
              id="Column02Key02Legend0"
              text-anchor="middle"
              style="fill:#000000;dominant-baseline:central;text-anchor:middle;font-size:6px;font-family:sans-serif;font-weight:normal;font-style:normal">W</text>
          </g>
          <g
            id="Column02Key03"
            transform="translate(0,9.524998)">
            <g
              id="">
              <path
                style="fill:none;fill-opacity:1;stroke:#0000ff;stroke-width:0.5"
                d="M -7 -7 L 7 -7 L 7 -6 L 7.8 -6 L 7.8 6 L 7 6 L 7 7 L -7 7 L -7 6 L -7.8 6 L -7.8 -6 L -7 -6 L -7 -7" />
            </g>
            <path
              id="Column02Key03KeycapOverlay"
              d="M -9.05,-9.05 h 18.1 v 18.1 h -18.1 v -18.1 h 18.1"
              style="fill:#ffffff;stroke:#000000;stroke-width:0.5" />
            <text
              id="Column02Key03Legend0"
              text-anchor="middle"
              style="fill:#000000;dominant-baseline:central;text-anchor:middle;font-size:6px;font-family:sans-serif;font-weight:normal;font-style:normal">S</text>
          </g>
          <g
            id="Column02Key04"
            transform="translate(0,28.575)">
            <g
              id="">
              <path
                style="fill:none;fill-opacity:1;stroke:#0000ff;stroke-width:0.5"
                d="M -7 -7 L 7 -7 L 7 -6 L 7.8 -6 L 7.8 6 L 7 6 L 7 7 L -7 7 L -7 6 L -7.8 6 L -7.8 -6 L -7 -6 L -7 -7" />
            </g>
            <path
              id="Column02Key04KeycapOverlay"
              d="M -9.05,-9.05 h 18.1 v 18.1 h -18.1 v -18.1 h 18.1"
              style="fill:#ffffff;stroke:#000000;stroke-width:0.5" />
            <text
              id="Column02Key04Legend0"
              text-anchor="middle"
              style="fill:#000000;dominant-baseline:central;text-anchor:middle;font-size:6px;font-family:sans-serif;font-weight:normal;font-style:normal">X</text>
          </g>
          <g
            id="Column02Key05"
            transform="translate(0,47.625004)">
            <g
              id="">
              <path
                style="fill:none;fill-opacity:1;stroke:#0000ff;stroke-width:0.5"
                d="M -7 -7 L 7 -7 L 7 -6 L 7.8 -6 L 7.8 6 L 7 6 L 7 7 L -7 7 L -7 6 L -7.8 6 L -7.8 -6 L -7 -6 L -7 -7" />
            </g>
            <path
              id="Column02Key05KeycapOverlay"
              d="M -9.05,-9.05 h 18.1 v 18.1 h -18.1 v -18.1 h 18.1"
              style="fill:#cfcfcf;stroke:#000000;stroke-width:0.5" />
            <text
              id="Column02Key05Legend0"
              text-anchor="middle"
              style="fill:#000000;dominant-baseline:central;text-anchor:middle;font-size:4px;font-family:sans-serif;font-weight:normal;font-style:normal">ALT</text>
          </g>
        </g>
        <g
          id="Column03"
          transform="translate(0,-5.5)">
          <g
            id="Column03Key00"
            transform="translate(0,-47.625004)">
            <g
              id="">
              <path
                style="fill:none;fill-opacity:1;stroke:#0000ff;stroke-width:0.5"
                d="M -7 -7 L 7 -7 L 7 -6 L 7.8 -6 L 7.8 6 L 7 6 L 7 7 L -7 7 L -7 6 L -7.8 6 L -7.8 -6 L -7 -6 L -7 -7" />
            </g>
            <path
              id="Column03Key00KeycapOverlay"
              d="M -9.05,-9.05 h 18.1 v 18.1 h -18.1 v -18.1 h 18.1"
              style="fill:#ffffff;stroke:#000000;stroke-width:0.5" />
            <text
              id="Column03Key00Legend0"
              text-anchor="middle"
              style="fill:#000000;dominant-baseline:central;text-anchor:middle;font-size:4px;font-family:sans-serif;font-weight:normal;font-style:normal">F4</text>
          </g>
          <g
            id="Column03Key01"
            transform="translate(0,-28.575003)">
            <g
              id="">
              <path
                style="fill:none;fill-opacity:1;stroke:#0000ff;stroke-width:0.5"
                d="M -7 -7 L 7 -7 L 7 -6 L 7.8 -6 L 7.8 6 L 7 6 L 7 7 L -7 7 L -7 6 L -7.8 6 L -7.8 -6 L -7 -6 L -7 -7" />
            </g>
            <path
              id="Column03Key01KeycapOverlay"
              d="M -9.05,-9.05 h 18.1 v 18.1 h -18.1 v -18.1 h 18.1"
              style="fill:#ffffff;stroke:#000000;stroke-width:0.5" />
            <text
              id="Column03Key01Legend0"
              transform="translate(0,-3)"
              text-anchor="middle"
              style="fill:#000000;dominant-baseline:central;text-anchor:middle;font-size:6px;font-family:sans-serif;font-weight:normal;font-style:normal">#</text>
            <text
              id="Column03Key01Legend1"
              transform="translate(0,3)"
              text-anchor="middle"
              style="fill:#000000;dominant-baseline:central;text-anchor:middle;font-size:6px;font-family:sans-serif;font-weight:normal;font-style:normal">3</text>
          </g>
          <g
            id="Column03Key02"
            transform="translate(0,-9.525005)">
            <g
              id="">
              <path
                style="fill:none;fill-opacity:1;stroke:#0000ff;stroke-width:0.5"
                d="M -7 -7 L 7 -7 L 7 -6 L 7.8 -6 L 7.8 6 L 7 6 L 7 7 L -7 7 L -7 6 L -7.8 6 L -7.8 -6 L -7 -6 L -7 -7" />
            </g>
            <path
              id="Column03Key02KeycapOverlay"
              d="M -9.05,-9.05 h 18.1 v 18.1 h -18.1 v -18.1 h 18.1"
              style="fill:#ffffff;stroke:#000000;stroke-width:0.5" />
            <text
              id="Column03Key02Legend0"
              text-anchor="middle"
              style="fill:#000000;dominant-baseline:central;text-anchor:middle;font-size:6px;font-family:sans-serif;font-weight:normal;font-style:normal">E</text>
          </g>
          <g
            id="Column03Key03"
            transform="translate(0,9.524998)">
            <g
              id="">
              <path
                style="fill:none;fill-opacity:1;stroke:#0000ff;stroke-width:0.5"
                d="M -7 -7 L 7 -7 L 7 -6 L 7.8 -6 L 7.8 6 L 7 6 L 7 7 L -7 7 L -7 6 L -7.8 6 L -7.8 -6 L -7 -6 L -7 -7" />
            </g>
            <path
              id="Column03Key03KeycapOverlay"
              d="M -9.05,-9.05 h 18.1 v 18.1 h -18.1 v -18.1 h 18.1"
              style="fill:#ffffff;stroke:#000000;stroke-width:0.5" />
            <text
              id="Column03Key03Legend0"
              text-anchor="middle"
              style="fill:#000000;dominant-baseline:central;text-anchor:middle;font-size:6px;font-family:sans-serif;font-weight:normal;font-style:normal">D</text>
          </g>
          <g
            id="Column03Key04"
            transform="translate(0,28.575)">
            <g
              id="">
              <path
                style="fill:none;fill-opacity:1;stroke:#0000ff;stroke-width:0.5"
                d="M -7 -7 L 7 -7 L 7 -6 L 7.8 -6 L 7.8 6 L 7 6 L 7 7 L -7 7 L -7 6 L -7.8 6 L -7.8 -6 L -7 -6 L -7 -7" />
            </g>
            <path
              id="Column03Key04KeycapOverlay"
              d="M -9.05,-9.05 h 18.1 v 18.1 h -18.1 v -18.1 h 18.1"
              style="fill:#ffffff;stroke:#000000;stroke-width:0.5" />
            <text
              id="Column03Key04Legend0"
              text-anchor="middle"
              style="fill:#000000;dominant-baseline:central;text-anchor:middle;font-size:6px;font-family:sans-serif;font-weight:normal;font-style:normal">C</text>
          </g>
          <g
            id="Column03Key05"
            transform="translate(0,47.625004)">
            <g
              id="">
              <path
                style="fill:none;fill-opacity:1;stroke:#0000ff;stroke-width:0.5"
                d="M -7 -7 L 7 -7 L 7 -6 L 7.8 -6 L 7.8 6 L 7 6 L 7 7 L -7 7 L -7 6 L -7.8 6 L -7.8 -6 L -7 -6 L -7 -7" />
            </g>
            <path
              id="Column03Key05KeycapOverlay"
              d="M -9.05,-9.05 h 18.1 v 18.1 h -18.1 v -18.1 h 18.1"
              style="fill:#ffffff;stroke:#000000;stroke-width:0.5" />
            <text
              id="Column03Key05Legend0"
              transform="translate(0,-3)"
              text-anchor="middle"
              style="fill:#000000;dominant-baseline:central;text-anchor:middle;font-size:6px;font-family:sans-serif;font-weight:normal;font-style:normal">~</text>
            <text
              id="Column03Key05Legend1"
              transform="translate(0,3)"
              text-anchor="middle"
              style="fill:#000000;dominant-baseline:central;text-anchor:middle;font-size:6px;font-family:sans-serif;font-weight:normal;font-style:normal">`</text>
          </g>
        </g>
        <g
          id="Column04"
          transform="translate(19.050003,0.5)">
          <g
            id="Column04Key00"
            transform="translate(0,-47.625004)">
            <g
              id="">
              <path
                style="fill:none;fill-opacity:1;stroke:#0000ff;stroke-width:0.5"
                d="M -7 -7 L 7 -7 L 7 -6 L 7.8 -6 L 7.8 6 L 7 6 L 7 7 L -7 7 L -7 6 L -7.8 6 L -7.8 -6 L -7 -6 L -7 -7" />
            </g>
            <path
              id="Column04Key00KeycapOverlay"
              d="M -9.05,-9.05 h 18.1 v 18.1 h -18.1 v -18.1 h 18.1"
              style="fill:#cfcfcf;stroke:#000000;stroke-width:0.5" />
            <text
              id="Column04Key00Legend0"
              text-anchor="middle"
              style="fill:#000000;dominant-baseline:central;text-anchor:middle;font-size:4px;font-family:sans-serif;font-weight:normal;font-style:normal">F5</text>
          </g>
          <g
            id="Column04Key01"
            transform="translate(0,-28.575003)">
            <g
              id="">
              <path
                style="fill:none;fill-opacity:1;stroke:#0000ff;stroke-width:0.5"
                d="M -7 -7 L 7 -7 L 7 -6 L 7.8 -6 L 7.8 6 L 7 6 L 7 7 L -7 7 L -7 6 L -7.8 6 L -7.8 -6 L -7 -6 L -7 -7" />
            </g>
            <path
              id="Column04Key01KeycapOverlay"
              d="M -9.05,-9.05 h 18.1 v 18.1 h -18.1 v -18.1 h 18.1"
              style="fill:#ffffff;stroke:#000000;stroke-width:0.5" />
            <text
              id="Column04Key01Legend0"
              transform="translate(0,-3)"
              text-anchor="middle"
              style="fill:#000000;dominant-baseline:central;text-anchor:middle;font-size:6px;font-family:sans-serif;font-weight:normal;font-style:normal">$</text>
            <text
              id="Column04Key01Legend1"
              transform="translate(0,3)"
              text-anchor="middle"
              style="fill:#000000;dominant-baseline:central;text-anchor:middle;font-size:6px;font-family:sans-serif;font-weight:normal;font-style:normal">4</text>
          </g>
          <g
            id="Column04Key02"
            transform="translate(0,-9.525005)">
            <g
              id="">
              <path
                style="fill:none;fill-opacity:1;stroke:#0000ff;stroke-width:0.5"
                d="M -7 -7 L 7 -7 L 7 -6 L 7.8 -6 L 7.8 6 L 7 6 L 7 7 L -7 7 L -7 6 L -7.8 6 L -7.8 -6 L -7 -6 L -7 -7" />
            </g>
            <path
              id="Column04Key02KeycapOverlay"
              d="M -9.05,-9.05 h 18.1 v 18.1 h -18.1 v -18.1 h 18.1"
              style="fill:#ffffff;stroke:#000000;stroke-width:0.5" />
            <text
              id="Column04Key02Legend0"
              text-anchor="middle"
              style="fill:#000000;dominant-baseline:central;text-anchor:middle;font-size:6px;font-family:sans-serif;font-weight:normal;font-style:normal">R</text>
          </g>
          <g
            id="Column04Key03"
            transform="translate(0,9.524998)">
            <g
              id="">
              <path
                style="fill:none;fill-opacity:1;stroke:#0000ff;stroke-width:0.5"
                d="M -7 -7 L 7 -7 L 7 -6 L 7.8 -6 L 7.8 6 L 7 6 L 7 7 L -7 7 L -7 6 L -7.8 6 L -7.8 -6 L -7 -6 L -7 -7" />
            </g>
            <path
              id="Column04Key03KeycapOverlay"
              d="M -9.05,-9.05 h 18.1 v 18.1 h -18.1 v -18.1 h 18.1"
              style="fill:#ffffff;stroke:#000000;stroke-width:0.5" />
            <text
              id="Column04Key03Legend0"
              text-anchor="middle"
              style="fill:#000000;dominant-baseline:central;text-anchor:middle;font-size:6px;font-family:sans-serif;font-weight:normal;font-style:normal">F</text>
          </g>
          <g
            id="Column04Key04"
            transform="translate(0,28.575)">
            <g
              id="">
              <path
                style="fill:none;fill-opacity:1;stroke:#0000ff;stroke-width:0.5"
                d="M -7 -7 L 7 -7 L 7 -6 L 7.8 -6 L 7.8 6 L 7 6 L 7 7 L -7 7 L -7 6 L -7.8 6 L -7.8 -6 L -7 -6 L -7 -7" />
            </g>
            <path
              id="Column04Key04KeycapOverlay"
              d="M -9.05,-9.05 h 18.1 v 18.1 h -18.1 v -18.1 h 18.1"
              style="fill:#ffffff;stroke:#000000;stroke-width:0.5" />
            <text
              id="Column04Key04Legend0"
              text-anchor="middle"
              style="fill:#000000;dominant-baseline:central;text-anchor:middle;font-size:6px;font-family:sans-serif;font-weight:normal;font-style:normal">V</text>
          </g>
          <g
            id="Column04Key05"
            transform="translate(0,47.625004)">
            <g
              id="">
              <path
                style="fill:none;fill-opacity:1;stroke:#0000ff;stroke-width:0.5"
                d="M -7 -7 L 7 -7 L 7 -6 L 7.8 -6 L 7.8 6 L 7 6 L 7 7 L -7 7 L -7 6 L -7.8 6 L -7.8 -6 L -7 -6 L -7 -7" />
            </g>
            <path
              id="Column04Key05KeycapOverlay"
              d="M -9.05,-9.05 h 18.1 v 18.1 h -18.1 v -18.1 h 18.1"
              style="fill:#ffffff;stroke:#000000;stroke-width:0.5" />
            <text
              id="Column04Key05Legend0"
              text-anchor="middle"
              style="fill:#000000;dominant-baseline:central;text-anchor:middle;font-size:4px;font-family:sans-serif;font-weight:normal;font-style:normal">FN</text>
          </g>
        </g>
        <g
          id="Column05"
          transform="translate(38.100006,5.5)">
          <g
            id="Column05Key00"
            transform="translate(0,-47.625004)">
            <g
              id="">
              <path
                style="fill:none;fill-opacity:1;stroke:#0000ff;stroke-width:0.5"
                d="M -7 -7 L 7 -7 L 7 -6 L 7.8 -6 L 7.8 6 L 7 6 L 7 7 L -7 7 L -7 6 L -7.8 6 L -7.8 -6 L -7 -6 L -7 -7" />
            </g>
            <path
              id="Column05Key00KeycapOverlay"
              d="M -9.05,-9.05 h 18.1 v 18.1 h -18.1 v -18.1 h 18.1"
              style="fill:#cfcfcf;stroke:#000000;stroke-width:0.5" />
            <text
              id="Column05Key00Legend0"
              text-anchor="middle"
              style="fill:#000000;dominant-baseline:central;text-anchor:middle;font-size:4px;font-family:sans-serif;font-weight:normal;font-style:normal">F6</text>
          </g>
          <g
            id="Column05Key01"
            transform="translate(0,-28.575003)">
            <g
              id="">
              <path
                style="fill:none;fill-opacity:1;stroke:#0000ff;stroke-width:0.5"
                d="M -7 -7 L 7 -7 L 7 -6 L 7.8 -6 L 7.8 6 L 7 6 L 7 7 L -7 7 L -7 6 L -7.8 6 L -7.8 -6 L -7 -6 L -7 -7" />
            </g>
            <path
              id="Column05Key01KeycapOverlay"
              d="M -9.05,-9.05 h 18.1 v 18.1 h -18.1 v -18.1 h 18.1"
              style="fill:#ffffff;stroke:#000000;stroke-width:0.5" />
            <text
              id="Column05Key01Legend0"
              transform="translate(0,-3)"
              text-anchor="middle"
              style="fill:#000000;dominant-baseline:central;text-anchor:middle;font-size:6px;font-family:sans-serif;font-weight:normal;font-style:normal">%</text>
            <text
              id="Column05Key01Legend1"
              transform="translate(0,3)"
              text-anchor="middle"
              style="fill:#000000;dominant-baseline:central;text-anchor:middle;font-size:6px;font-family:sans-serif;font-weight:normal;font-style:normal">5</text>
          </g>
          <g
            id="Column05Key02"
            transform="translate(0,-9.525005)">
            <g
              id="">
              <path
                style="fill:none;fill-opacity:1;stroke:#0000ff;stroke-width:0.5"
                d="M -7 -7 L 7 -7 L 7 -6 L 7.8 -6 L 7.8 6 L 7 6 L 7 7 L -7 7 L -7 6 L -7.8 6 L -7.8 -6 L -7 -6 L -7 -7" />
            </g>
            <path
              id="Column05Key02KeycapOverlay"
              d="M -9.05,-9.05 h 18.1 v 18.1 h -18.1 v -18.1 h 18.1"
              style="fill:#ffffff;stroke:#000000;stroke-width:0.5" />
            <text
              id="Column05Key02Legend0"
              text-anchor="middle"
              style="fill:#000000;dominant-baseline:central;text-anchor:middle;font-size:6px;font-family:sans-serif;font-weight:normal;font-style:normal">T</text>
          </g>
          <g
            id="Column05Key03"
            transform="translate(0,9.524998)">
            <g
              id="">
              <path
                style="fill:none;fill-opacity:1;stroke:#0000ff;stroke-width:0.5"
                d="M -7 -7 L 7 -7 L 7 -6 L 7.8 -6 L 7.8 6 L 7 6 L 7 7 L -7 7 L -7 6 L -7.8 6 L -7.8 -6 L -7 -6 L -7 -7" />
            </g>
            <path
              id="Column05Key03KeycapOverlay"
              d="M -9.05,-9.05 h 18.1 v 18.1 h -18.1 v -18.1 h 18.1"
              style="fill:#ffffff;stroke:#000000;stroke-width:0.5" />
            <text
              id="Column05Key03Legend0"
              text-anchor="middle"
              style="fill:#000000;dominant-baseline:central;text-anchor:middle;font-size:6px;font-family:sans-serif;font-weight:normal;font-style:normal">G</text>
          </g>
          <g
            id="Column05Key04"
            transform="translate(0,28.575)">
            <g
              id="">
              <path
                style="fill:none;fill-opacity:1;stroke:#0000ff;stroke-width:0.5"
                d="M -7 -7 L 7 -7 L 7 -6 L 7.8 -6 L 7.8 6 L 7 6 L 7 7 L -7 7 L -7 6 L -7.8 6 L -7.8 -6 L -7 -6 L -7 -7" />
            </g>
            <path
              id="Column05Key04KeycapOverlay"
              d="M -9.05,-9.05 h 18.1 v 18.1 h -18.1 v -18.1 h 18.1"
              style="fill:#ffffff;stroke:#000000;stroke-width:0.5" />
            <text
              id="Column05Key04Legend0"
              text-anchor="middle"
              style="fill:#000000;dominant-baseline:central;text-anchor:middle;font-size:6px;font-family:sans-serif;font-weight:normal;font-style:normal">B</text>
          </g>
          <g
            id="Column05Key05"
            transform="translate(0,47.625004)">
            <g
              id="">
              <path
                style="fill:none;fill-opacity:1;stroke:#0000ff;stroke-width:0.5"
                d="M -7 -7 L 7 -7 L 7 -6 L 7.8 -6 L 7.8 6 L 7 6 L 7 7 L -7 7 L -7 6 L -7.8 6 L -7.8 -6 L -7 -6 L -7 -7" />
            </g>
            <path
              id="Column05Key05KeycapOverlay"
              d="M -9.05,-9.05 h 18.1 v 18.1 h -18.1 v -18.1 h 18.1"
              style="fill:#ffffff;stroke:#000000;stroke-width:0.5" />
            <text
              id="Column05Key05Legend0"
              text-anchor="middle"
              style="fill:#000000;dominant-baseline:central;text-anchor:middle;font-size:4px;font-family:sans-serif;font-weight:normal;font-style:normal">BKSP</text>
          </g>
        </g>
        <g
          id="Column06"
          transform="translate(57.15001,5.5)">
          <g
            id=""
            transform="translate(0,-9.525002)" />
          <g
            id="Column06Key04"
            transform="translate(0,47.625)">
            <g
              id="">
              <path
                style="fill:none;fill-opacity:1;stroke:#0000ff;stroke-width:0.5"
                d="M -7 -7 L 7 -7 L 7 -6 L 7.8 -6 L 7.8 6 L 7 6 L 7 7 L -7 7 L -7 6 L -7.8 6 L -7.8 -6 L -7 -6 L -7 -7" />
            </g>
            <path
              id="Column06Key04KeycapOverlay"
              d="M -9.05,-9.05 h 18.1 v 18.1 h -18.1 v -18.1 h 18.1"
              style="fill:#ffffff;stroke:#000000;stroke-width:0.5" />
            <text
              id="Column06Key04Legend0"
              text-anchor="middle"
              style="fill:#000000;dominant-baseline:central;text-anchor:middle;font-size:4px;font-family:sans-serif;font-weight:normal;font-style:normal">DEL</text>
          </g>
        </g>
      </g>
    </g>
  </g>
</svg>